G04 #@! TF.GenerationSoftware,KiCad,Pcbnew,7.0.9*
G04 #@! TF.CreationDate,2023-12-20T17:08:32-07:00*
G04 #@! TF.ProjectId,genesis-6_controller_pcb,67656e65-7369-4732-9d36-5f636f6e7472,4a*
G04 #@! TF.SameCoordinates,Original*
G04 #@! TF.FileFunction,AssemblyDrawing,Bot*
%FSLAX46Y46*%
G04 Gerber Fmt 4.6, Leading zero omitted, Abs format (unit mm)*
G04 Created by KiCad (PCBNEW 7.0.9) date 2023-12-20 17:08:32*
%MOMM*%
%LPD*%
G01*
G04 APERTURE LIST*
%ADD10C,0.150000*%
%ADD11C,0.100000*%
G04 APERTURE END LIST*
D10*
X142849819Y-114636904D02*
X143659342Y-114636904D01*
X143659342Y-114636904D02*
X143754580Y-114589285D01*
X143754580Y-114589285D02*
X143802200Y-114541666D01*
X143802200Y-114541666D02*
X143849819Y-114446428D01*
X143849819Y-114446428D02*
X143849819Y-114255952D01*
X143849819Y-114255952D02*
X143802200Y-114160714D01*
X143802200Y-114160714D02*
X143754580Y-114113095D01*
X143754580Y-114113095D02*
X143659342Y-114065476D01*
X143659342Y-114065476D02*
X142849819Y-114065476D01*
X142849819Y-113160714D02*
X142849819Y-113351190D01*
X142849819Y-113351190D02*
X142897438Y-113446428D01*
X142897438Y-113446428D02*
X142945057Y-113494047D01*
X142945057Y-113494047D02*
X143087914Y-113589285D01*
X143087914Y-113589285D02*
X143278390Y-113636904D01*
X143278390Y-113636904D02*
X143659342Y-113636904D01*
X143659342Y-113636904D02*
X143754580Y-113589285D01*
X143754580Y-113589285D02*
X143802200Y-113541666D01*
X143802200Y-113541666D02*
X143849819Y-113446428D01*
X143849819Y-113446428D02*
X143849819Y-113255952D01*
X143849819Y-113255952D02*
X143802200Y-113160714D01*
X143802200Y-113160714D02*
X143754580Y-113113095D01*
X143754580Y-113113095D02*
X143659342Y-113065476D01*
X143659342Y-113065476D02*
X143421247Y-113065476D01*
X143421247Y-113065476D02*
X143326009Y-113113095D01*
X143326009Y-113113095D02*
X143278390Y-113160714D01*
X143278390Y-113160714D02*
X143230771Y-113255952D01*
X143230771Y-113255952D02*
X143230771Y-113446428D01*
X143230771Y-113446428D02*
X143278390Y-113541666D01*
X143278390Y-113541666D02*
X143326009Y-113589285D01*
X143326009Y-113589285D02*
X143421247Y-113636904D01*
X194381118Y-112637723D02*
X194235373Y-112599855D01*
X194235373Y-112599855D02*
X194035689Y-112470179D01*
X194035689Y-112470179D02*
X193981751Y-112378372D01*
X193981751Y-112378372D02*
X193967749Y-112312500D01*
X193967749Y-112312500D02*
X193979683Y-112206691D01*
X193979683Y-112206691D02*
X194031553Y-112126818D01*
X194031553Y-112126818D02*
X194123361Y-112072879D01*
X194123361Y-112072879D02*
X194189232Y-112058878D01*
X194189232Y-112058878D02*
X194295041Y-112070812D01*
X194295041Y-112070812D02*
X194480723Y-112134616D01*
X194480723Y-112134616D02*
X194586532Y-112146549D01*
X194586532Y-112146549D02*
X194652403Y-112132548D01*
X194652403Y-112132548D02*
X194744211Y-112078610D01*
X194744211Y-112078610D02*
X194796081Y-111998736D01*
X194796081Y-111998736D02*
X194808015Y-111892928D01*
X194808015Y-111892928D02*
X194794013Y-111827056D01*
X194794013Y-111827056D02*
X194740075Y-111735249D01*
X194740075Y-111735249D02*
X194540391Y-111605573D01*
X194540391Y-111605573D02*
X194394646Y-111567704D01*
X194141024Y-111346221D02*
X193396702Y-112055216D01*
X193396702Y-112055216D02*
X193625983Y-111352424D01*
X193625983Y-111352424D02*
X193077208Y-111847734D01*
X193077208Y-111847734D02*
X193422164Y-110879387D01*
X192118728Y-111225289D02*
X192597968Y-111536512D01*
X192358348Y-111380901D02*
X192902987Y-110542230D01*
X192902987Y-110542230D02*
X192905055Y-110713910D01*
X192905055Y-110713910D02*
X192933058Y-110845654D01*
X192933058Y-110845654D02*
X192986996Y-110937461D01*
X192292003Y-110259011D02*
X192278001Y-110193139D01*
X192278001Y-110193139D02*
X192224063Y-110101332D01*
X192224063Y-110101332D02*
X192024380Y-109971656D01*
X192024380Y-109971656D02*
X191918571Y-109959722D01*
X191918571Y-109959722D02*
X191852699Y-109973724D01*
X191852699Y-109973724D02*
X191760892Y-110027662D01*
X191760892Y-110027662D02*
X191709022Y-110107535D01*
X191709022Y-110107535D02*
X191671153Y-110253280D01*
X191671153Y-110253280D02*
X191839171Y-111043743D01*
X191839171Y-111043743D02*
X191319994Y-110706586D01*
X194157487Y-116348229D02*
X194011741Y-116310360D01*
X194011741Y-116310360D02*
X193945870Y-116324361D01*
X193945870Y-116324361D02*
X193854062Y-116378299D01*
X193854062Y-116378299D02*
X193776257Y-116498109D01*
X193776257Y-116498109D02*
X193764323Y-116603918D01*
X193764323Y-116603918D02*
X193778325Y-116669790D01*
X193778325Y-116669790D02*
X193832263Y-116761597D01*
X193832263Y-116761597D02*
X194151756Y-116969079D01*
X194151756Y-116969079D02*
X194696395Y-116130408D01*
X194696395Y-116130408D02*
X194416839Y-115948862D01*
X194416839Y-115948862D02*
X194311030Y-115936928D01*
X194311030Y-115936928D02*
X194245158Y-115950929D01*
X194245158Y-115950929D02*
X194153351Y-116004868D01*
X194153351Y-116004868D02*
X194101481Y-116084741D01*
X194101481Y-116084741D02*
X194089547Y-116190550D01*
X194089547Y-116190550D02*
X194103549Y-116256421D01*
X194103549Y-116256421D02*
X194157487Y-116348229D01*
X194157487Y-116348229D02*
X194437044Y-116529775D01*
X193316748Y-115631909D02*
X192953656Y-116191023D01*
X193676179Y-115865326D02*
X193390891Y-116304629D01*
X193390891Y-116304629D02*
X193299084Y-116358568D01*
X193299084Y-116358568D02*
X193193276Y-116346634D01*
X193193276Y-116346634D02*
X193073466Y-116268828D01*
X193073466Y-116268828D02*
X193019528Y-116177021D01*
X193019528Y-116177021D02*
X193005526Y-116111149D01*
X193037191Y-115450363D02*
X192717698Y-115242881D01*
X193098928Y-115093000D02*
X192632094Y-115811861D01*
X192632094Y-115811861D02*
X192540287Y-115865799D01*
X192540287Y-115865799D02*
X192434479Y-115853865D01*
X192434479Y-115853865D02*
X192354605Y-115801995D01*
X192557951Y-115139140D02*
X192238457Y-114931659D01*
X192619687Y-114781778D02*
X192152854Y-115500638D01*
X192152854Y-115500638D02*
X192061046Y-115554576D01*
X192061046Y-115554576D02*
X191955238Y-115542643D01*
X191955238Y-115542643D02*
X191875364Y-115490772D01*
X191475997Y-115231420D02*
X191581806Y-115243354D01*
X191581806Y-115243354D02*
X191647678Y-115229352D01*
X191647678Y-115229352D02*
X191739485Y-115175414D01*
X191739485Y-115175414D02*
X191895096Y-114935794D01*
X191895096Y-114935794D02*
X191907030Y-114829985D01*
X191907030Y-114829985D02*
X191893028Y-114764114D01*
X191893028Y-114764114D02*
X191839090Y-114672306D01*
X191839090Y-114672306D02*
X191719280Y-114594501D01*
X191719280Y-114594501D02*
X191613471Y-114582567D01*
X191613471Y-114582567D02*
X191547599Y-114596569D01*
X191547599Y-114596569D02*
X191455792Y-114650507D01*
X191455792Y-114650507D02*
X191300181Y-114890127D01*
X191300181Y-114890127D02*
X191288247Y-114995936D01*
X191288247Y-114995936D02*
X191302249Y-115061808D01*
X191302249Y-115061808D02*
X191356187Y-115153615D01*
X191356187Y-115153615D02*
X191475997Y-115231420D01*
X191200103Y-114257343D02*
X190837010Y-114816457D01*
X191148232Y-114337217D02*
X191134231Y-114271345D01*
X191134231Y-114271345D02*
X191080293Y-114179538D01*
X191080293Y-114179538D02*
X190960483Y-114101732D01*
X190960483Y-114101732D02*
X190854674Y-114089798D01*
X190854674Y-114089798D02*
X190762867Y-114143737D01*
X190762867Y-114143737D02*
X190477580Y-114583040D01*
X190226026Y-114533238D02*
X189587039Y-114118275D01*
X189439225Y-113908725D02*
X189983864Y-113070055D01*
X189983864Y-113070055D02*
X189664371Y-112862573D01*
X189664371Y-112862573D02*
X189558562Y-112850639D01*
X189558562Y-112850639D02*
X189492690Y-112864641D01*
X189492690Y-112864641D02*
X189400883Y-112918579D01*
X189400883Y-112918579D02*
X189323078Y-113038389D01*
X189323078Y-113038389D02*
X189311144Y-113144198D01*
X189311144Y-113144198D02*
X189325146Y-113210070D01*
X189325146Y-113210070D02*
X189379084Y-113301877D01*
X189379084Y-113301877D02*
X189698577Y-113509358D01*
X188241125Y-113130669D02*
X188526412Y-112691366D01*
X188526412Y-112691366D02*
X188618219Y-112637428D01*
X188618219Y-112637428D02*
X188724027Y-112649361D01*
X188724027Y-112649361D02*
X188883774Y-112753102D01*
X188883774Y-112753102D02*
X188937712Y-112844909D01*
X188267060Y-113090733D02*
X188320998Y-113182540D01*
X188320998Y-113182540D02*
X188520681Y-113312216D01*
X188520681Y-113312216D02*
X188626490Y-113324149D01*
X188626490Y-113324149D02*
X188718297Y-113270211D01*
X188718297Y-113270211D02*
X188770168Y-113190338D01*
X188770168Y-113190338D02*
X188782101Y-113084529D01*
X188782101Y-113084529D02*
X188728163Y-112992722D01*
X188728163Y-112992722D02*
X188528480Y-112863046D01*
X188528480Y-112863046D02*
X188474541Y-112771239D01*
X187482327Y-112637901D02*
X188026966Y-111799230D01*
X187508263Y-112597964D02*
X187562201Y-112689771D01*
X187562201Y-112689771D02*
X187721948Y-112793512D01*
X187721948Y-112793512D02*
X187827756Y-112805446D01*
X187827756Y-112805446D02*
X187893628Y-112791444D01*
X187893628Y-112791444D02*
X187985435Y-112737506D01*
X187985435Y-112737506D02*
X188141046Y-112497886D01*
X188141046Y-112497886D02*
X188152980Y-112392077D01*
X188152980Y-112392077D02*
X188138978Y-112326205D01*
X188138978Y-112326205D02*
X188085040Y-112234398D01*
X188085040Y-112234398D02*
X187925293Y-112130657D01*
X187925293Y-112130657D02*
X187819485Y-112118724D01*
X194381118Y-112637723D02*
X194235373Y-112599855D01*
X194235373Y-112599855D02*
X194035689Y-112470179D01*
X194035689Y-112470179D02*
X193981751Y-112378372D01*
X193981751Y-112378372D02*
X193967749Y-112312500D01*
X193967749Y-112312500D02*
X193979683Y-112206691D01*
X193979683Y-112206691D02*
X194031553Y-112126818D01*
X194031553Y-112126818D02*
X194123361Y-112072879D01*
X194123361Y-112072879D02*
X194189232Y-112058878D01*
X194189232Y-112058878D02*
X194295041Y-112070812D01*
X194295041Y-112070812D02*
X194480723Y-112134616D01*
X194480723Y-112134616D02*
X194586532Y-112146549D01*
X194586532Y-112146549D02*
X194652403Y-112132548D01*
X194652403Y-112132548D02*
X194744211Y-112078610D01*
X194744211Y-112078610D02*
X194796081Y-111998736D01*
X194796081Y-111998736D02*
X194808015Y-111892928D01*
X194808015Y-111892928D02*
X194794013Y-111827056D01*
X194794013Y-111827056D02*
X194740075Y-111735249D01*
X194740075Y-111735249D02*
X194540391Y-111605573D01*
X194540391Y-111605573D02*
X194394646Y-111567704D01*
X194141024Y-111346221D02*
X193396702Y-112055216D01*
X193396702Y-112055216D02*
X193625983Y-111352424D01*
X193625983Y-111352424D02*
X193077208Y-111847734D01*
X193077208Y-111847734D02*
X193422164Y-110879387D01*
X192118728Y-111225289D02*
X192597968Y-111536512D01*
X192358348Y-111380901D02*
X192902987Y-110542230D01*
X192902987Y-110542230D02*
X192905055Y-110713910D01*
X192905055Y-110713910D02*
X192933058Y-110845654D01*
X192933058Y-110845654D02*
X192986996Y-110937461D01*
X192292003Y-110259011D02*
X192278001Y-110193139D01*
X192278001Y-110193139D02*
X192224063Y-110101332D01*
X192224063Y-110101332D02*
X192024380Y-109971656D01*
X192024380Y-109971656D02*
X191918571Y-109959722D01*
X191918571Y-109959722D02*
X191852699Y-109973724D01*
X191852699Y-109973724D02*
X191760892Y-110027662D01*
X191760892Y-110027662D02*
X191709022Y-110107535D01*
X191709022Y-110107535D02*
X191671153Y-110253280D01*
X191671153Y-110253280D02*
X191839171Y-111043743D01*
X191839171Y-111043743D02*
X191319994Y-110706586D01*
X146009471Y-104664455D02*
X146057091Y-104616836D01*
X146057091Y-104616836D02*
X146104710Y-104473979D01*
X146104710Y-104473979D02*
X146104710Y-104378741D01*
X146104710Y-104378741D02*
X146057091Y-104235884D01*
X146057091Y-104235884D02*
X145961852Y-104140646D01*
X145961852Y-104140646D02*
X145866614Y-104093027D01*
X145866614Y-104093027D02*
X145676138Y-104045408D01*
X145676138Y-104045408D02*
X145533281Y-104045408D01*
X145533281Y-104045408D02*
X145342805Y-104093027D01*
X145342805Y-104093027D02*
X145247567Y-104140646D01*
X145247567Y-104140646D02*
X145152329Y-104235884D01*
X145152329Y-104235884D02*
X145104710Y-104378741D01*
X145104710Y-104378741D02*
X145104710Y-104473979D01*
X145104710Y-104473979D02*
X145152329Y-104616836D01*
X145152329Y-104616836D02*
X145199948Y-104664455D01*
X146104710Y-105235884D02*
X146057091Y-105140646D01*
X146057091Y-105140646D02*
X146009471Y-105093027D01*
X146009471Y-105093027D02*
X145914233Y-105045408D01*
X145914233Y-105045408D02*
X145628519Y-105045408D01*
X145628519Y-105045408D02*
X145533281Y-105093027D01*
X145533281Y-105093027D02*
X145485662Y-105140646D01*
X145485662Y-105140646D02*
X145438043Y-105235884D01*
X145438043Y-105235884D02*
X145438043Y-105378741D01*
X145438043Y-105378741D02*
X145485662Y-105473979D01*
X145485662Y-105473979D02*
X145533281Y-105521598D01*
X145533281Y-105521598D02*
X145628519Y-105569217D01*
X145628519Y-105569217D02*
X145914233Y-105569217D01*
X145914233Y-105569217D02*
X146009471Y-105521598D01*
X146009471Y-105521598D02*
X146057091Y-105473979D01*
X146057091Y-105473979D02*
X146104710Y-105378741D01*
X146104710Y-105378741D02*
X146104710Y-105235884D01*
X145438043Y-105997789D02*
X146104710Y-105997789D01*
X145533281Y-105997789D02*
X145485662Y-106045408D01*
X145485662Y-106045408D02*
X145438043Y-106140646D01*
X145438043Y-106140646D02*
X145438043Y-106283503D01*
X145438043Y-106283503D02*
X145485662Y-106378741D01*
X145485662Y-106378741D02*
X145580900Y-106426360D01*
X145580900Y-106426360D02*
X146104710Y-106426360D01*
X145438043Y-106902551D02*
X146104710Y-106902551D01*
X145533281Y-106902551D02*
X145485662Y-106950170D01*
X145485662Y-106950170D02*
X145438043Y-107045408D01*
X145438043Y-107045408D02*
X145438043Y-107188265D01*
X145438043Y-107188265D02*
X145485662Y-107283503D01*
X145485662Y-107283503D02*
X145580900Y-107331122D01*
X145580900Y-107331122D02*
X146104710Y-107331122D01*
X146199948Y-107569218D02*
X146199948Y-108331122D01*
X145104710Y-108759694D02*
X145104710Y-108854932D01*
X145104710Y-108854932D02*
X145152329Y-108950170D01*
X145152329Y-108950170D02*
X145199948Y-108997789D01*
X145199948Y-108997789D02*
X145295186Y-109045408D01*
X145295186Y-109045408D02*
X145485662Y-109093027D01*
X145485662Y-109093027D02*
X145723757Y-109093027D01*
X145723757Y-109093027D02*
X145914233Y-109045408D01*
X145914233Y-109045408D02*
X146009471Y-108997789D01*
X146009471Y-108997789D02*
X146057091Y-108950170D01*
X146057091Y-108950170D02*
X146104710Y-108854932D01*
X146104710Y-108854932D02*
X146104710Y-108759694D01*
X146104710Y-108759694D02*
X146057091Y-108664456D01*
X146057091Y-108664456D02*
X146009471Y-108616837D01*
X146009471Y-108616837D02*
X145914233Y-108569218D01*
X145914233Y-108569218D02*
X145723757Y-108521599D01*
X145723757Y-108521599D02*
X145485662Y-108521599D01*
X145485662Y-108521599D02*
X145295186Y-108569218D01*
X145295186Y-108569218D02*
X145199948Y-108616837D01*
X145199948Y-108616837D02*
X145152329Y-108664456D01*
X145152329Y-108664456D02*
X145104710Y-108759694D01*
X146104710Y-110045408D02*
X146104710Y-109473980D01*
X146104710Y-109759694D02*
X145104710Y-109759694D01*
X145104710Y-109759694D02*
X145247567Y-109664456D01*
X145247567Y-109664456D02*
X145342805Y-109569218D01*
X145342805Y-109569218D02*
X145390424Y-109473980D01*
X146104710Y-110378742D02*
X145438043Y-110902551D01*
X145438043Y-110378742D02*
X146104710Y-110902551D01*
X145104710Y-111473980D02*
X145104710Y-111569218D01*
X145104710Y-111569218D02*
X145152329Y-111664456D01*
X145152329Y-111664456D02*
X145199948Y-111712075D01*
X145199948Y-111712075D02*
X145295186Y-111759694D01*
X145295186Y-111759694D02*
X145485662Y-111807313D01*
X145485662Y-111807313D02*
X145723757Y-111807313D01*
X145723757Y-111807313D02*
X145914233Y-111759694D01*
X145914233Y-111759694D02*
X146009471Y-111712075D01*
X146009471Y-111712075D02*
X146057091Y-111664456D01*
X146057091Y-111664456D02*
X146104710Y-111569218D01*
X146104710Y-111569218D02*
X146104710Y-111473980D01*
X146104710Y-111473980D02*
X146057091Y-111378742D01*
X146057091Y-111378742D02*
X146009471Y-111331123D01*
X146009471Y-111331123D02*
X145914233Y-111283504D01*
X145914233Y-111283504D02*
X145723757Y-111235885D01*
X145723757Y-111235885D02*
X145485662Y-111235885D01*
X145485662Y-111235885D02*
X145295186Y-111283504D01*
X145295186Y-111283504D02*
X145199948Y-111331123D01*
X145199948Y-111331123D02*
X145152329Y-111378742D01*
X145152329Y-111378742D02*
X145104710Y-111473980D01*
X145104710Y-112712075D02*
X145104710Y-112235885D01*
X145104710Y-112235885D02*
X145580900Y-112188266D01*
X145580900Y-112188266D02*
X145533281Y-112235885D01*
X145533281Y-112235885D02*
X145485662Y-112331123D01*
X145485662Y-112331123D02*
X145485662Y-112569218D01*
X145485662Y-112569218D02*
X145533281Y-112664456D01*
X145533281Y-112664456D02*
X145580900Y-112712075D01*
X145580900Y-112712075D02*
X145676138Y-112759694D01*
X145676138Y-112759694D02*
X145914233Y-112759694D01*
X145914233Y-112759694D02*
X146009471Y-112712075D01*
X146009471Y-112712075D02*
X146057091Y-112664456D01*
X146057091Y-112664456D02*
X146104710Y-112569218D01*
X146104710Y-112569218D02*
X146104710Y-112331123D01*
X146104710Y-112331123D02*
X146057091Y-112235885D01*
X146057091Y-112235885D02*
X146009471Y-112188266D01*
X140154710Y-108069217D02*
X140868995Y-108069217D01*
X140868995Y-108069217D02*
X141011852Y-108021598D01*
X141011852Y-108021598D02*
X141107091Y-107926360D01*
X141107091Y-107926360D02*
X141154710Y-107783503D01*
X141154710Y-107783503D02*
X141154710Y-107688265D01*
X140154710Y-109021598D02*
X140154710Y-108545408D01*
X140154710Y-108545408D02*
X140630900Y-108497789D01*
X140630900Y-108497789D02*
X140583281Y-108545408D01*
X140583281Y-108545408D02*
X140535662Y-108640646D01*
X140535662Y-108640646D02*
X140535662Y-108878741D01*
X140535662Y-108878741D02*
X140583281Y-108973979D01*
X140583281Y-108973979D02*
X140630900Y-109021598D01*
X140630900Y-109021598D02*
X140726138Y-109069217D01*
X140726138Y-109069217D02*
X140964233Y-109069217D01*
X140964233Y-109069217D02*
X141059471Y-109021598D01*
X141059471Y-109021598D02*
X141107091Y-108973979D01*
X141107091Y-108973979D02*
X141154710Y-108878741D01*
X141154710Y-108878741D02*
X141154710Y-108640646D01*
X141154710Y-108640646D02*
X141107091Y-108545408D01*
X141107091Y-108545408D02*
X141059471Y-108497789D01*
D11*
X194857825Y-115466526D02*
X198555924Y-109771953D01*
X194857825Y-115466526D02*
X194606224Y-115303134D01*
X198555924Y-109771953D02*
X192265895Y-105687160D01*
X194606224Y-115303134D02*
X196425318Y-112501975D01*
X196425318Y-112501975D02*
X190638491Y-108743965D01*
X197564828Y-107625950D02*
X196878583Y-108682675D01*
X197564828Y-107625950D02*
X194629481Y-105719713D01*
X194629481Y-105719713D02*
X193943236Y-106776438D01*
X188819397Y-111545125D02*
X190638491Y-108743965D01*
X188819397Y-111545125D02*
X188567796Y-111381733D01*
X188567796Y-111381733D02*
X192265895Y-105687160D01*
X144449891Y-102452551D02*
X144449891Y-114352551D01*
X136849891Y-102452551D02*
X144449891Y-102452551D01*
X138449891Y-103152551D02*
X136849891Y-103152551D01*
X136849891Y-103152551D02*
X136849891Y-102452551D01*
X139574891Y-103902551D02*
X139574891Y-104902551D01*
X139074891Y-104402551D02*
X139574891Y-103902551D01*
X139574891Y-104902551D02*
X139074891Y-104402551D01*
X138449891Y-113652551D02*
X138449891Y-103152551D01*
X136849891Y-113652551D02*
X138449891Y-113652551D01*
X144449891Y-114352551D02*
X136849891Y-114352551D01*
X136849891Y-114352551D02*
X136849891Y-113652551D01*
M02*
