G04 #@! TF.GenerationSoftware,KiCad,Pcbnew,7.0.9*
G04 #@! TF.CreationDate,2023-12-20T17:08:32-07:00*
G04 #@! TF.ProjectId,genesis-6_controller_pcb,67656e65-7369-4732-9d36-5f636f6e7472,4a*
G04 #@! TF.SameCoordinates,Original*
G04 #@! TF.FileFunction,Profile,NP*
%FSLAX46Y46*%
G04 Gerber Fmt 4.6, Leading zero omitted, Abs format (unit mm)*
G04 Created by KiCad (PCBNEW 7.0.9) date 2023-12-20 17:08:32*
%MOMM*%
%LPD*%
G01*
G04 APERTURE LIST*
G04 #@! TA.AperFunction,Profile*
%ADD10C,0.100000*%
G04 #@! TD*
G04 APERTURE END LIST*
D10*
X187650000Y-103500000D02*
X185400000Y-105450000D01*
X129500000Y-100000000D02*
X183550000Y-100000000D01*
X106500000Y-145000000D02*
G75*
G03*
X106500000Y-145000000I-1500000J0D01*
G01*
X187650000Y-103500000D02*
X195000000Y-103500000D01*
X181000000Y-155000000D02*
X175000000Y-151670000D01*
X211000000Y-119000000D02*
X211000000Y-114800000D01*
X183550000Y-101550000D02*
X183550000Y-100000000D01*
X100000000Y-155000000D02*
X128050000Y-155000000D01*
X213600000Y-150750000D02*
G75*
G03*
X213600000Y-150750000I-2250000J0D01*
G01*
X133400000Y-104500000D02*
G75*
G03*
X133400000Y-104500000I-2250000J0D01*
G01*
X202500000Y-145000000D02*
G75*
G03*
X202500000Y-145000000I-1500000J0D01*
G01*
X223000000Y-131500000D02*
X223000000Y-146500000D01*
X211000000Y-114800000D02*
X195000000Y-103500000D01*
X106700000Y-151750000D02*
G75*
G03*
X106700000Y-151750000I-2250000J0D01*
G01*
X100000000Y-120000000D02*
X129500000Y-100000000D01*
X100000000Y-155000000D02*
X100000000Y-120000000D01*
X211000000Y-119000000D02*
X217450000Y-119000000D01*
X214750000Y-155000000D02*
X223000000Y-146500000D01*
X141000000Y-151670000D02*
X175000000Y-151670000D01*
X181000000Y-155000000D02*
X214750000Y-155000000D01*
X160150000Y-145000000D02*
G75*
G03*
X160150000Y-145000000I-2250000J0D01*
G01*
X128050000Y-155000000D02*
X141000000Y-151670000D01*
X182614797Y-102364803D02*
G75*
G03*
X185400000Y-105450000I1392603J-1542597D01*
G01*
X223000000Y-131500000D02*
X217450000Y-119000000D01*
X183550000Y-101550000D02*
X182614749Y-102364749D01*
M02*
