G04 #@! TF.GenerationSoftware,KiCad,Pcbnew,7.0.9*
G04 #@! TF.CreationDate,2023-12-20T17:10:12-07:00*
G04 #@! TF.ProjectId,saturn_controller_pcb,73617475-726e-45f6-936f-6e74726f6c6c,4a*
G04 #@! TF.SameCoordinates,Original*
G04 #@! TF.FileFunction,Profile,NP*
%FSLAX46Y46*%
G04 Gerber Fmt 4.6, Leading zero omitted, Abs format (unit mm)*
G04 Created by KiCad (PCBNEW 7.0.9) date 2023-12-20 17:10:12*
%MOMM*%
%LPD*%
G01*
G04 APERTURE LIST*
G04 #@! TA.AperFunction,Profile*
%ADD10C,0.100000*%
G04 #@! TD*
G04 APERTURE END LIST*
D10*
X96500000Y-118000000D02*
G75*
G03*
X96500000Y-118000000I-1500000J0D01*
G01*
X181500000Y-75000000D02*
X206500000Y-87000000D01*
X154000000Y-78300000D02*
X154000000Y-75000000D01*
X211000000Y-100500000D02*
X211000000Y-116500000D01*
X127300000Y-125000000D02*
X137300000Y-122000000D01*
X154000000Y-75000000D02*
X181500000Y-75000000D01*
X193400000Y-119000000D02*
G75*
G03*
X193400000Y-119000000I-1500000J0D01*
G01*
X157300000Y-122000000D02*
X167300000Y-125000000D01*
X111500000Y-75000000D02*
X139000000Y-75000000D01*
X127300000Y-125000000D02*
X92800000Y-125000000D01*
X157300000Y-122000000D02*
X137300000Y-122000000D01*
X111500000Y-75000000D02*
X89000000Y-85500000D01*
X211000000Y-100500000D02*
X206500000Y-87000000D01*
X139000000Y-78300000D02*
X154000000Y-78300000D01*
X89000000Y-122000000D02*
X92800000Y-125000000D01*
X89000000Y-122000000D02*
X89000000Y-85500000D01*
X127450000Y-121150000D02*
G75*
G03*
X127450000Y-121150000I-2450000J0D01*
G01*
X202800000Y-125000000D02*
X167300000Y-125000000D01*
X202800000Y-125000000D02*
X211000000Y-116500000D01*
X139000000Y-75000000D02*
X139000000Y-78300000D01*
M02*
