G04 #@! TF.GenerationSoftware,KiCad,Pcbnew,7.0.9*
G04 #@! TF.CreationDate,2023-12-20T17:10:12-07:00*
G04 #@! TF.ProjectId,saturn_controller_pcb,73617475-726e-45f6-936f-6e74726f6c6c,4a*
G04 #@! TF.SameCoordinates,Original*
G04 #@! TF.FileFunction,Legend,Top*
G04 #@! TF.FilePolarity,Positive*
%FSLAX46Y46*%
G04 Gerber Fmt 4.6, Leading zero omitted, Abs format (unit mm)*
G04 Created by KiCad (PCBNEW 7.0.9) date 2023-12-20 17:10:12*
%MOMM*%
%LPD*%
G01*
G04 APERTURE LIST*
%ADD10C,0.150000*%
%ADD11C,0.120000*%
%ADD12C,0.127000*%
%ADD13C,0.200000*%
G04 APERTURE END LIST*
D10*
X173500000Y-101000000D02*
G75*
G03*
X173500000Y-101000000I-6000000J0D01*
G01*
X125250000Y-105000000D02*
G75*
G03*
X125250000Y-105000000I-16250000J0D01*
G01*
X112000000Y-105000000D02*
G75*
G03*
X112000000Y-105000000I-3000000J0D01*
G01*
X112000000Y-96000000D02*
G75*
G03*
X112000000Y-96000000I-3000000J0D01*
G01*
X180500000Y-117000000D02*
G75*
G03*
X180500000Y-117000000I-8000000J0D01*
G01*
X112000000Y-114000000D02*
G75*
G03*
X112000000Y-114000000I-3000000J0D01*
G01*
X194500000Y-107750000D02*
G75*
G03*
X194500000Y-107750000I-8000000J0D01*
G01*
X138500000Y-110500000D02*
X155500000Y-110500000D01*
X155500000Y-122500000D01*
X138500000Y-122500000D01*
X138500000Y-110500000D01*
X199000000Y-87500000D02*
G75*
G03*
X199000000Y-87500000I-6000000J0D01*
G01*
X103000000Y-105000000D02*
G75*
G03*
X103000000Y-105000000I-3000000J0D01*
G01*
X210500000Y-101500000D02*
G75*
G03*
X210500000Y-101500000I-8000000J0D01*
G01*
X185000000Y-92500000D02*
G75*
G03*
X185000000Y-92500000I-6000000J0D01*
G01*
X121000000Y-105000000D02*
G75*
G03*
X121000000Y-105000000I-3000000J0D01*
G01*
X148835225Y-85084104D02*
X149311415Y-85084104D01*
X148739987Y-85369819D02*
X149073320Y-84369819D01*
X149073320Y-84369819D02*
X149406653Y-85369819D01*
X149739987Y-84369819D02*
X149739987Y-85179342D01*
X149739987Y-85179342D02*
X149787606Y-85274580D01*
X149787606Y-85274580D02*
X149835225Y-85322200D01*
X149835225Y-85322200D02*
X149930463Y-85369819D01*
X149930463Y-85369819D02*
X150120939Y-85369819D01*
X150120939Y-85369819D02*
X150216177Y-85322200D01*
X150216177Y-85322200D02*
X150263796Y-85274580D01*
X150263796Y-85274580D02*
X150311415Y-85179342D01*
X150311415Y-85179342D02*
X150311415Y-84369819D01*
X150644749Y-84369819D02*
X151216177Y-84369819D01*
X150930463Y-85369819D02*
X150930463Y-84369819D01*
X151549511Y-85369819D02*
X151549511Y-84369819D01*
X151549511Y-84846009D02*
X152120939Y-84846009D01*
X152120939Y-85369819D02*
X152120939Y-84369819D01*
X147835225Y-86979819D02*
X147835225Y-85979819D01*
X147835225Y-85979819D02*
X148073320Y-85979819D01*
X148073320Y-85979819D02*
X148216177Y-86027438D01*
X148216177Y-86027438D02*
X148311415Y-86122676D01*
X148311415Y-86122676D02*
X148359034Y-86217914D01*
X148359034Y-86217914D02*
X148406653Y-86408390D01*
X148406653Y-86408390D02*
X148406653Y-86551247D01*
X148406653Y-86551247D02*
X148359034Y-86741723D01*
X148359034Y-86741723D02*
X148311415Y-86836961D01*
X148311415Y-86836961D02*
X148216177Y-86932200D01*
X148216177Y-86932200D02*
X148073320Y-86979819D01*
X148073320Y-86979819D02*
X147835225Y-86979819D01*
X149025701Y-85979819D02*
X149216177Y-85979819D01*
X149216177Y-85979819D02*
X149311415Y-86027438D01*
X149311415Y-86027438D02*
X149406653Y-86122676D01*
X149406653Y-86122676D02*
X149454272Y-86313152D01*
X149454272Y-86313152D02*
X149454272Y-86646485D01*
X149454272Y-86646485D02*
X149406653Y-86836961D01*
X149406653Y-86836961D02*
X149311415Y-86932200D01*
X149311415Y-86932200D02*
X149216177Y-86979819D01*
X149216177Y-86979819D02*
X149025701Y-86979819D01*
X149025701Y-86979819D02*
X148930463Y-86932200D01*
X148930463Y-86932200D02*
X148835225Y-86836961D01*
X148835225Y-86836961D02*
X148787606Y-86646485D01*
X148787606Y-86646485D02*
X148787606Y-86313152D01*
X148787606Y-86313152D02*
X148835225Y-86122676D01*
X148835225Y-86122676D02*
X148930463Y-86027438D01*
X148930463Y-86027438D02*
X149025701Y-85979819D01*
X149882844Y-86979819D02*
X149882844Y-85979819D01*
X149882844Y-85979819D02*
X150454272Y-86979819D01*
X150454272Y-86979819D02*
X150454272Y-85979819D01*
X151454272Y-86027438D02*
X151359034Y-85979819D01*
X151359034Y-85979819D02*
X151216177Y-85979819D01*
X151216177Y-85979819D02*
X151073320Y-86027438D01*
X151073320Y-86027438D02*
X150978082Y-86122676D01*
X150978082Y-86122676D02*
X150930463Y-86217914D01*
X150930463Y-86217914D02*
X150882844Y-86408390D01*
X150882844Y-86408390D02*
X150882844Y-86551247D01*
X150882844Y-86551247D02*
X150930463Y-86741723D01*
X150930463Y-86741723D02*
X150978082Y-86836961D01*
X150978082Y-86836961D02*
X151073320Y-86932200D01*
X151073320Y-86932200D02*
X151216177Y-86979819D01*
X151216177Y-86979819D02*
X151311415Y-86979819D01*
X151311415Y-86979819D02*
X151454272Y-86932200D01*
X151454272Y-86932200D02*
X151501891Y-86884580D01*
X151501891Y-86884580D02*
X151501891Y-86551247D01*
X151501891Y-86551247D02*
X151311415Y-86551247D01*
X152406653Y-86979819D02*
X151930463Y-86979819D01*
X151930463Y-86979819D02*
X151930463Y-85979819D01*
X152739987Y-86456009D02*
X153073320Y-86456009D01*
X153216177Y-86979819D02*
X152739987Y-86979819D01*
X152739987Y-86979819D02*
X152739987Y-85979819D01*
X152739987Y-85979819D02*
X153216177Y-85979819D01*
X127441541Y-112469819D02*
X127679636Y-113469819D01*
X127679636Y-113469819D02*
X127870112Y-112755533D01*
X127870112Y-112755533D02*
X128060588Y-113469819D01*
X128060588Y-113469819D02*
X128298684Y-112469819D01*
X128679636Y-112946009D02*
X129012969Y-112946009D01*
X129155826Y-113469819D02*
X128679636Y-113469819D01*
X128679636Y-113469819D02*
X128679636Y-112469819D01*
X128679636Y-112469819D02*
X129155826Y-112469819D01*
X129917731Y-112946009D02*
X130060588Y-112993628D01*
X130060588Y-112993628D02*
X130108207Y-113041247D01*
X130108207Y-113041247D02*
X130155826Y-113136485D01*
X130155826Y-113136485D02*
X130155826Y-113279342D01*
X130155826Y-113279342D02*
X130108207Y-113374580D01*
X130108207Y-113374580D02*
X130060588Y-113422200D01*
X130060588Y-113422200D02*
X129965350Y-113469819D01*
X129965350Y-113469819D02*
X129584398Y-113469819D01*
X129584398Y-113469819D02*
X129584398Y-112469819D01*
X129584398Y-112469819D02*
X129917731Y-112469819D01*
X129917731Y-112469819D02*
X130012969Y-112517438D01*
X130012969Y-112517438D02*
X130060588Y-112565057D01*
X130060588Y-112565057D02*
X130108207Y-112660295D01*
X130108207Y-112660295D02*
X130108207Y-112755533D01*
X130108207Y-112755533D02*
X130060588Y-112850771D01*
X130060588Y-112850771D02*
X130012969Y-112898390D01*
X130012969Y-112898390D02*
X129917731Y-112946009D01*
X129917731Y-112946009D02*
X129584398Y-112946009D01*
X131917731Y-113374580D02*
X131870112Y-113422200D01*
X131870112Y-113422200D02*
X131727255Y-113469819D01*
X131727255Y-113469819D02*
X131632017Y-113469819D01*
X131632017Y-113469819D02*
X131489160Y-113422200D01*
X131489160Y-113422200D02*
X131393922Y-113326961D01*
X131393922Y-113326961D02*
X131346303Y-113231723D01*
X131346303Y-113231723D02*
X131298684Y-113041247D01*
X131298684Y-113041247D02*
X131298684Y-112898390D01*
X131298684Y-112898390D02*
X131346303Y-112707914D01*
X131346303Y-112707914D02*
X131393922Y-112612676D01*
X131393922Y-112612676D02*
X131489160Y-112517438D01*
X131489160Y-112517438D02*
X131632017Y-112469819D01*
X131632017Y-112469819D02*
X131727255Y-112469819D01*
X131727255Y-112469819D02*
X131870112Y-112517438D01*
X131870112Y-112517438D02*
X131917731Y-112565057D01*
X132536779Y-112469819D02*
X132727255Y-112469819D01*
X132727255Y-112469819D02*
X132822493Y-112517438D01*
X132822493Y-112517438D02*
X132917731Y-112612676D01*
X132917731Y-112612676D02*
X132965350Y-112803152D01*
X132965350Y-112803152D02*
X132965350Y-113136485D01*
X132965350Y-113136485D02*
X132917731Y-113326961D01*
X132917731Y-113326961D02*
X132822493Y-113422200D01*
X132822493Y-113422200D02*
X132727255Y-113469819D01*
X132727255Y-113469819D02*
X132536779Y-113469819D01*
X132536779Y-113469819D02*
X132441541Y-113422200D01*
X132441541Y-113422200D02*
X132346303Y-113326961D01*
X132346303Y-113326961D02*
X132298684Y-113136485D01*
X132298684Y-113136485D02*
X132298684Y-112803152D01*
X132298684Y-112803152D02*
X132346303Y-112612676D01*
X132346303Y-112612676D02*
X132441541Y-112517438D01*
X132441541Y-112517438D02*
X132536779Y-112469819D01*
X133393922Y-113469819D02*
X133393922Y-112469819D01*
X133393922Y-112469819D02*
X133965350Y-113469819D01*
X133965350Y-113469819D02*
X133965350Y-112469819D01*
X134774874Y-112946009D02*
X134441541Y-112946009D01*
X134441541Y-113469819D02*
X134441541Y-112469819D01*
X134441541Y-112469819D02*
X134917731Y-112469819D01*
X135298684Y-113469819D02*
X135298684Y-112469819D01*
X136298683Y-112517438D02*
X136203445Y-112469819D01*
X136203445Y-112469819D02*
X136060588Y-112469819D01*
X136060588Y-112469819D02*
X135917731Y-112517438D01*
X135917731Y-112517438D02*
X135822493Y-112612676D01*
X135822493Y-112612676D02*
X135774874Y-112707914D01*
X135774874Y-112707914D02*
X135727255Y-112898390D01*
X135727255Y-112898390D02*
X135727255Y-113041247D01*
X135727255Y-113041247D02*
X135774874Y-113231723D01*
X135774874Y-113231723D02*
X135822493Y-113326961D01*
X135822493Y-113326961D02*
X135917731Y-113422200D01*
X135917731Y-113422200D02*
X136060588Y-113469819D01*
X136060588Y-113469819D02*
X136155826Y-113469819D01*
X136155826Y-113469819D02*
X136298683Y-113422200D01*
X136298683Y-113422200D02*
X136346302Y-113374580D01*
X136346302Y-113374580D02*
X136346302Y-113041247D01*
X136346302Y-113041247D02*
X136155826Y-113041247D01*
X128990112Y-104676009D02*
X128656779Y-104676009D01*
X128656779Y-105199819D02*
X128656779Y-104199819D01*
X128656779Y-104199819D02*
X129132969Y-104199819D01*
X129990112Y-105199819D02*
X129513922Y-105199819D01*
X129513922Y-105199819D02*
X129513922Y-104199819D01*
X130275827Y-104914104D02*
X130752017Y-104914104D01*
X130180589Y-105199819D02*
X130513922Y-104199819D01*
X130513922Y-104199819D02*
X130847255Y-105199819D01*
X131132970Y-105152200D02*
X131275827Y-105199819D01*
X131275827Y-105199819D02*
X131513922Y-105199819D01*
X131513922Y-105199819D02*
X131609160Y-105152200D01*
X131609160Y-105152200D02*
X131656779Y-105104580D01*
X131656779Y-105104580D02*
X131704398Y-105009342D01*
X131704398Y-105009342D02*
X131704398Y-104914104D01*
X131704398Y-104914104D02*
X131656779Y-104818866D01*
X131656779Y-104818866D02*
X131609160Y-104771247D01*
X131609160Y-104771247D02*
X131513922Y-104723628D01*
X131513922Y-104723628D02*
X131323446Y-104676009D01*
X131323446Y-104676009D02*
X131228208Y-104628390D01*
X131228208Y-104628390D02*
X131180589Y-104580771D01*
X131180589Y-104580771D02*
X131132970Y-104485533D01*
X131132970Y-104485533D02*
X131132970Y-104390295D01*
X131132970Y-104390295D02*
X131180589Y-104295057D01*
X131180589Y-104295057D02*
X131228208Y-104247438D01*
X131228208Y-104247438D02*
X131323446Y-104199819D01*
X131323446Y-104199819D02*
X131561541Y-104199819D01*
X131561541Y-104199819D02*
X131704398Y-104247438D01*
X132132970Y-105199819D02*
X132132970Y-104199819D01*
X132132970Y-104676009D02*
X132704398Y-104676009D01*
X132704398Y-105199819D02*
X132704398Y-104199819D01*
D11*
X123820000Y-76210000D02*
X129830000Y-76210000D01*
X126070000Y-83030000D02*
X129830000Y-83030000D01*
X129830000Y-76210000D02*
X129830000Y-77470000D01*
X129830000Y-83030000D02*
X129830000Y-81770000D01*
X127980000Y-109450000D02*
X127980000Y-107370000D01*
X129250000Y-105690000D02*
X128760000Y-106180000D01*
X129250000Y-105690000D02*
X132150000Y-105690000D01*
X129250000Y-111130000D02*
X128760000Y-110640000D01*
X129250000Y-111130000D02*
X132150000Y-111130000D01*
X132150000Y-105690000D02*
X132640000Y-106180000D01*
X132150000Y-111130000D02*
X132640000Y-110640000D01*
X133420000Y-109450000D02*
X133420000Y-107370000D01*
X135523341Y-98347053D02*
X135307669Y-98347053D01*
X135523341Y-97627053D02*
X135307669Y-97627053D01*
X152140000Y-107312164D02*
X152140000Y-107527836D01*
X151420000Y-107312164D02*
X151420000Y-107527836D01*
X135790505Y-94237053D02*
X134490505Y-94237053D01*
X135140505Y-97037053D02*
X134490505Y-97037053D01*
X154695000Y-99470000D02*
X153395000Y-99470000D01*
X154045000Y-102270000D02*
X153395000Y-102270000D01*
D10*
X149900000Y-116500000D02*
G75*
G03*
X149900000Y-116500000I-2800000J0D01*
G01*
X170300000Y-101000000D02*
G75*
G03*
X170300000Y-101000000I-2800000J0D01*
G01*
X205300000Y-101500000D02*
G75*
G03*
X205300000Y-101500000I-2800000J0D01*
G01*
D11*
X135813641Y-93890000D02*
X135506359Y-93890000D01*
X135813641Y-93130000D02*
X135506359Y-93130000D01*
D10*
X195800000Y-87500000D02*
G75*
G03*
X195800000Y-87500000I-2800000J0D01*
G01*
D11*
X135271864Y-98947053D02*
X135579146Y-98947053D01*
X135271864Y-99707053D02*
X135579146Y-99707053D01*
X138715505Y-105110189D02*
X138715505Y-104802907D01*
X139475505Y-105110189D02*
X139475505Y-104802907D01*
X135533341Y-101697053D02*
X135317669Y-101697053D01*
X135533341Y-100977053D02*
X135317669Y-100977053D01*
X106300000Y-99900000D02*
X106300000Y-92068426D01*
X111700000Y-99900000D02*
X111700000Y-92100000D01*
X106300000Y-99900000D02*
G75*
G03*
X111700000Y-99900000I2700000J3900000D01*
G01*
X111700000Y-92100000D02*
G75*
G03*
X106300000Y-92068427I-2723093J-3933782D01*
G01*
X146177669Y-97357053D02*
X146393341Y-97357053D01*
X146177669Y-98077053D02*
X146393341Y-98077053D01*
X133300000Y-80002164D02*
X133300000Y-80217836D01*
X132580000Y-80002164D02*
X132580000Y-80217836D01*
X141565505Y-104839217D02*
X141565505Y-105054889D01*
X140845505Y-104839217D02*
X140845505Y-105054889D01*
X136960000Y-109410000D02*
X138260000Y-109410000D01*
X137610000Y-106610000D02*
X138260000Y-106610000D01*
X151400000Y-105033641D02*
X151400000Y-104726359D01*
X152160000Y-105033641D02*
X152160000Y-104726359D01*
D10*
X189300000Y-107700000D02*
G75*
G03*
X189300000Y-107700000I-2800000J0D01*
G01*
D11*
X149435505Y-96157053D02*
X148135505Y-96157053D01*
X148785505Y-98957053D02*
X148135505Y-98957053D01*
X139715505Y-105110189D02*
X139715505Y-104802907D01*
X140475505Y-105110189D02*
X140475505Y-104802907D01*
X137485505Y-104819217D02*
X137485505Y-105034889D01*
X136765505Y-104819217D02*
X136765505Y-105034889D01*
X132852288Y-101779553D02*
X134322288Y-101779553D01*
X134322288Y-101779553D02*
X134322288Y-99494553D01*
X133587288Y-100494553D02*
X133187288Y-100094553D01*
X133987288Y-100494553D02*
X133187288Y-100494553D01*
X133187288Y-100094553D02*
X133987288Y-100094553D01*
X133987288Y-100094553D02*
X133587288Y-100494553D01*
X132852288Y-99494553D02*
X132852288Y-101779553D01*
X106300000Y-117900000D02*
X106300000Y-110068426D01*
X111700000Y-117900000D02*
X111700000Y-110100000D01*
X106300000Y-117900000D02*
G75*
G03*
X111700000Y-117900000I2700000J3900000D01*
G01*
X111700000Y-110100000D02*
G75*
G03*
X106300000Y-110068427I-2723093J-3933782D01*
G01*
X125465000Y-85577438D02*
X123995000Y-85577438D01*
X123995000Y-85577438D02*
X123995000Y-87862438D01*
X125465000Y-87862438D02*
X125465000Y-85577438D01*
X103900000Y-107700000D02*
X96068426Y-107700000D01*
X103900000Y-102300000D02*
X96100000Y-102300000D01*
X103900000Y-107700000D02*
G75*
G03*
X103900000Y-102300000I-3900000J2700000D01*
G01*
X96100000Y-102300000D02*
G75*
G03*
X96068427Y-107700000I3933782J-2723093D01*
G01*
X133212164Y-93150000D02*
X133427836Y-93150000D01*
X133212164Y-93870000D02*
X133427836Y-93870000D01*
D10*
X175300000Y-117000000D02*
G75*
G03*
X175300000Y-117000000I-2800000J0D01*
G01*
D12*
X150890000Y-103200000D02*
X150710000Y-103200000D01*
X150890000Y-103200000D02*
X150890000Y-108580000D01*
X145690000Y-103200000D02*
X145510000Y-103200000D01*
X145510000Y-103200000D02*
X145510000Y-108580000D01*
X150890000Y-108580000D02*
X150710000Y-108580000D01*
X145690000Y-108580000D02*
X145510000Y-108580000D01*
D11*
X149200000Y-104390000D02*
X147200000Y-104390000D01*
X147200000Y-104390000D02*
X147200000Y-107390000D01*
X147200000Y-107390000D02*
X149200000Y-107390000D01*
X149200000Y-107390000D02*
X149200000Y-104390000D01*
D13*
X150300000Y-100890000D02*
G75*
G03*
X150300000Y-100890000I-100000J0D01*
G01*
D11*
X149061803Y-103940000D02*
G75*
G03*
X149061803Y-103940000I-111803J0D01*
G01*
X132500000Y-89625000D02*
X132500000Y-92775000D01*
X132500000Y-92775000D02*
X136500000Y-92775000D01*
X139707836Y-94160000D02*
X139492164Y-94160000D01*
X139707836Y-93440000D02*
X139492164Y-93440000D01*
X134392164Y-88540000D02*
X134607836Y-88540000D01*
X134392164Y-89260000D02*
X134607836Y-89260000D01*
X134620000Y-115710000D02*
X134620000Y-117790000D01*
X133350000Y-119470000D02*
X133840000Y-118980000D01*
X133350000Y-119470000D02*
X130450000Y-119470000D01*
X133350000Y-114030000D02*
X133840000Y-114520000D01*
X133350000Y-114030000D02*
X130450000Y-114030000D01*
X130450000Y-119470000D02*
X129960000Y-118980000D01*
X130450000Y-114030000D02*
X129960000Y-114520000D01*
X129180000Y-115710000D02*
X129180000Y-117790000D01*
X121900000Y-107700000D02*
X114068426Y-107700000D01*
X121900000Y-102300000D02*
X114100000Y-102300000D01*
X121900000Y-107700000D02*
G75*
G03*
X121900000Y-102300000I-3900000J2700000D01*
G01*
X114100000Y-102300000D02*
G75*
G03*
X114068427Y-107700000I3933782J-2723093D01*
G01*
X144500505Y-95111548D02*
X144500505Y-95761548D01*
X143850505Y-102331548D02*
X144500505Y-102331548D01*
X143850505Y-95111548D02*
X144500505Y-95111548D01*
X137930505Y-102331548D02*
X137280505Y-102331548D01*
X137930505Y-95111548D02*
X137280505Y-95111548D01*
X137280505Y-102331548D02*
X137280505Y-101681548D01*
X137280505Y-95111548D02*
X137280505Y-95761548D01*
X138465505Y-104849217D02*
X138465505Y-105064889D01*
X137745505Y-104849217D02*
X137745505Y-105064889D01*
X125132164Y-83480000D02*
X125347836Y-83480000D01*
X125132164Y-84200000D02*
X125347836Y-84200000D01*
X149435505Y-92957053D02*
X148135505Y-92957053D01*
X148785505Y-95757053D02*
X148135505Y-95757053D01*
X152146359Y-102640000D02*
X152453641Y-102640000D01*
X152146359Y-103400000D02*
X152453641Y-103400000D01*
X142675505Y-104849217D02*
X142675505Y-105064889D01*
X141955505Y-104849217D02*
X141955505Y-105064889D01*
D10*
X181800000Y-92500000D02*
G75*
G03*
X181800000Y-92500000I-2800000J0D01*
G01*
D11*
X137240000Y-93707836D02*
X137240000Y-93492164D01*
X137960000Y-93707836D02*
X137960000Y-93492164D01*
M02*
