%TF.GenerationSoftware,KiCad,Pcbnew,(7.0.0-0)*%
%TF.CreationDate,2023-06-11T14:42:47-06:00*%
%TF.ProjectId,snes_controller_pcb,736e6573-5f63-46f6-9e74-726f6c6c6572,4a*%
%TF.SameCoordinates,Original*%
%TF.FileFunction,Profile,NP*%
%FSLAX46Y46*%
G04 Gerber Fmt 4.6, Leading zero omitted, Abs format (unit mm)*
G04 Created by KiCad (PCBNEW (7.0.0-0)) date 2023-06-11 14:42:47*
%MOMM*%
%LPD*%
G01*
G04 APERTURE LIST*
%TA.AperFunction,Profile*%
%ADD10C,0.100000*%
%TD*%
G04 APERTURE END LIST*
D10*
X174400000Y-84800000D02*
G75*
G03*
X174400000Y-84800000I-500000J0D01*
G01*
X100970000Y-84750000D02*
G75*
G03*
X100970000Y-84750000I-500000J0D01*
G01*
X91820000Y-87760000D02*
G75*
G03*
X91820000Y-87760000I-500000J0D01*
G01*
X82740000Y-90790000D02*
G75*
G03*
X82740000Y-90790000I-500000J0D01*
G01*
X88410000Y-88910000D02*
G75*
G03*
X88410000Y-88910000I-500000J0D01*
G01*
X81610000Y-91140000D02*
G75*
G03*
X81610000Y-91140000I-500000J0D01*
G01*
X95240000Y-86640000D02*
G75*
G03*
X95240000Y-86640000I-500000J0D01*
G01*
X94110000Y-87020000D02*
G75*
G03*
X94110000Y-87020000I-500000J0D01*
G01*
X183510000Y-87760000D02*
G75*
G03*
X183510000Y-87760000I-500000J0D01*
G01*
X178980000Y-86290000D02*
G75*
G03*
X178980000Y-86290000I-500000J0D01*
G01*
X188010000Y-89220000D02*
G75*
G03*
X188010000Y-89220000I-500000J0D01*
G01*
X184650000Y-88120000D02*
G75*
G03*
X184650000Y-88120000I-500000J0D01*
G01*
X97530000Y-85890000D02*
G75*
G03*
X97530000Y-85890000I-500000J0D01*
G01*
X190260000Y-89920000D02*
G75*
G03*
X190260000Y-89920000I-500000J0D01*
G01*
X92960000Y-87370000D02*
G75*
G03*
X92960000Y-87370000I-500000J0D01*
G01*
X191420000Y-90290000D02*
G75*
G03*
X191420000Y-90290000I-500000J0D01*
G01*
X192520000Y-90660000D02*
G75*
G03*
X192520000Y-90660000I-500000J0D01*
G01*
X182400000Y-87410000D02*
G75*
G03*
X182400000Y-87410000I-500000J0D01*
G01*
X181270000Y-87040000D02*
G75*
G03*
X181270000Y-87040000I-500000J0D01*
G01*
X177820000Y-85940000D02*
G75*
G03*
X177820000Y-85940000I-500000J0D01*
G01*
X98690000Y-85500000D02*
G75*
G03*
X98690000Y-85500000I-500000J0D01*
G01*
X90660000Y-88130000D02*
G75*
G03*
X90660000Y-88130000I-500000J0D01*
G01*
X193660000Y-91030000D02*
G75*
G03*
X193660000Y-91030000I-500000J0D01*
G01*
X84990000Y-90060000D02*
G75*
G03*
X84990000Y-90060000I-500000J0D01*
G01*
X99830000Y-85130000D02*
G75*
G03*
X99830000Y-85130000I-500000J0D01*
G01*
X175520000Y-85170000D02*
G75*
G03*
X175520000Y-85170000I-500000J0D01*
G01*
X89530000Y-88540000D02*
G75*
G03*
X89530000Y-88540000I-500000J0D01*
G01*
X185760000Y-88480000D02*
G75*
G03*
X185760000Y-88480000I-500000J0D01*
G01*
X186880000Y-88840000D02*
G75*
G03*
X186880000Y-88840000I-500000J0D01*
G01*
X180130000Y-86680000D02*
G75*
G03*
X180130000Y-86680000I-500000J0D01*
G01*
X189140000Y-89570000D02*
G75*
G03*
X189140000Y-89570000I-500000J0D01*
G01*
X96380000Y-86260000D02*
G75*
G03*
X96380000Y-86260000I-500000J0D01*
G01*
X83860000Y-90410000D02*
G75*
G03*
X83860000Y-90410000I-500000J0D01*
G01*
X87290000Y-89280000D02*
G75*
G03*
X87290000Y-89280000I-500000J0D01*
G01*
X176680000Y-85540000D02*
G75*
G03*
X176680000Y-85540000I-500000J0D01*
G01*
X86120000Y-89660000D02*
G75*
G03*
X86120000Y-89660000I-500000J0D01*
G01*
%TO.C,Ref\u002A\u002A*%
X73800401Y-89982160D02*
X73800457Y-90085268D01*
X73800457Y-90085268D02*
X73800457Y-110841011D01*
X73800457Y-110841011D02*
X74713067Y-110841011D01*
X73800457Y-115572548D02*
X73800457Y-117287575D01*
X73800457Y-117287575D02*
X84568254Y-125211307D01*
X73808346Y-89882888D02*
X73800401Y-89982160D01*
X73824002Y-89787533D02*
X73808346Y-89882888D01*
X73847081Y-89696066D02*
X73824002Y-89787533D01*
X73877297Y-89608516D02*
X73847081Y-89696066D01*
X73881000Y-78070000D02*
X76181000Y-84870000D01*
X73914360Y-89524934D02*
X73877297Y-89608516D01*
X73957981Y-89445374D02*
X73914360Y-89524934D01*
X74007879Y-89369809D02*
X73957981Y-89445374D01*
X74063759Y-89298266D02*
X74007879Y-89369809D01*
X74125338Y-89230824D02*
X74063759Y-89298266D01*
X74192325Y-89167482D02*
X74125338Y-89230824D01*
X74264435Y-89108269D02*
X74192325Y-89167482D01*
X74341378Y-89053209D02*
X74264435Y-89108269D01*
X74422870Y-89002330D02*
X74341378Y-89053209D01*
X74508618Y-88955657D02*
X74422870Y-89002330D01*
X74598344Y-88913245D02*
X74508618Y-88955657D01*
X74713067Y-110841011D02*
X74828822Y-110844186D01*
X74713067Y-115572548D02*
X73800457Y-115572548D01*
X74828822Y-110844186D02*
X74943069Y-110853181D01*
X74828822Y-115569373D02*
X74713067Y-115572548D01*
X74943069Y-110853181D02*
X75055649Y-110868263D01*
X74943069Y-115560378D02*
X74828822Y-115569373D01*
X75055649Y-110868263D02*
X75166430Y-110889165D01*
X75055649Y-115545296D02*
X74943069Y-115560378D01*
X75166430Y-110889165D02*
X75275253Y-110915623D01*
X75166430Y-115524394D02*
X75055649Y-115545296D01*
X75275253Y-110915623D02*
X75382012Y-110947373D01*
X75275253Y-115498201D02*
X75166430Y-115524394D01*
X75382012Y-110947373D02*
X75486522Y-110984679D01*
X75382012Y-115466186D02*
X75275253Y-115498201D01*
X75486522Y-110984679D02*
X75588678Y-111027012D01*
X75486522Y-115428880D02*
X75382012Y-115466186D01*
X75588678Y-111027012D02*
X75688320Y-111074373D01*
X75588678Y-115386546D02*
X75486522Y-115428880D01*
X75688320Y-111074373D02*
X75785316Y-111126496D01*
X75688320Y-115339186D02*
X75588678Y-115386546D01*
X75785316Y-111126496D02*
X75879534Y-111183646D01*
X75785316Y-115287063D02*
X75688320Y-115339186D01*
X75879534Y-111183646D02*
X75970789Y-111245029D01*
X75879534Y-115230178D02*
X75785316Y-115287063D01*
X75970789Y-111245029D02*
X76058974Y-111311175D01*
X75970789Y-115168530D02*
X75879534Y-115230178D01*
X76058974Y-111311175D02*
X76143958Y-111381289D01*
X76058974Y-115102649D02*
X75970789Y-115168530D01*
X76143958Y-111381289D02*
X76225582Y-111455637D01*
X76143958Y-115032270D02*
X76058974Y-115102649D01*
X76181000Y-84870000D02*
X78581000Y-86070000D01*
X76225582Y-111455637D02*
X76303713Y-111533953D01*
X76225582Y-114957922D02*
X76143958Y-115032270D01*
X76303713Y-111533953D02*
X76378194Y-111616239D01*
X76303713Y-114879605D02*
X76225582Y-114957922D01*
X76378194Y-111616239D02*
X76448890Y-111701964D01*
X76378194Y-114797585D02*
X76303713Y-114879605D01*
X76448890Y-111701964D02*
X76515671Y-111791393D01*
X76448890Y-114711595D02*
X76378194Y-114797585D01*
X76515671Y-111791393D02*
X76578377Y-111884261D01*
X76515671Y-114622166D02*
X76448890Y-114711595D01*
X76578377Y-111884261D02*
X76636876Y-111980040D01*
X76578377Y-114529562D02*
X76515671Y-114622166D01*
X76636876Y-111980040D02*
X76691036Y-112079259D01*
X76636876Y-114433519D02*
X76578377Y-114529562D01*
X76691036Y-112079259D02*
X76740725Y-112181123D01*
X76691036Y-114334564D02*
X76636876Y-114433519D01*
X76740725Y-112181123D02*
X76785757Y-112285898D01*
X76740725Y-114232435D02*
X76691036Y-114334564D01*
X76785757Y-112285898D02*
X76826053Y-112393319D01*
X76785757Y-114127661D02*
X76740725Y-114232435D01*
X76826053Y-112393319D02*
X76861401Y-112503386D01*
X76826053Y-114020240D02*
X76785757Y-114127661D01*
X76861401Y-112503386D02*
X76891723Y-112615569D01*
X76861401Y-113910173D02*
X76826053Y-114020240D01*
X76891723Y-112615569D02*
X76916832Y-112730133D01*
X76891723Y-113797990D02*
X76861401Y-113910173D01*
X76916832Y-112730133D02*
X76936622Y-112846550D01*
X76916832Y-113683690D02*
X76891723Y-113797990D01*
X76936622Y-112846550D02*
X76950910Y-112964818D01*
X76936622Y-113567009D02*
X76916832Y-113683690D01*
X76950910Y-112964818D02*
X76959615Y-113085204D01*
X76950910Y-113448741D02*
X76936622Y-113567009D01*
X76959615Y-113085204D02*
X76962525Y-113206912D01*
X76959615Y-113328620D02*
X76950910Y-113448741D01*
X76962525Y-113206912D02*
X76959615Y-113328620D01*
X77380593Y-87911242D02*
X74598344Y-88913245D01*
X77469069Y-87892880D02*
X77380593Y-87911242D01*
X77585909Y-87878513D02*
X77469069Y-87892880D01*
X77652134Y-87875788D02*
X77585909Y-87878513D01*
X77722064Y-87877640D02*
X77652134Y-87875788D01*
X77794533Y-87885234D02*
X77722064Y-87877640D01*
X77868431Y-87899759D02*
X77794533Y-87885234D01*
X77942593Y-87922408D02*
X77868431Y-87899759D01*
X78015909Y-87954369D02*
X77942593Y-87922408D01*
X78087241Y-87996808D02*
X78015909Y-87954369D01*
X78155450Y-88050916D02*
X78087241Y-87996808D01*
X78219400Y-88117882D02*
X78155450Y-88050916D01*
X78277952Y-88198923D02*
X78219400Y-88117882D01*
X78329969Y-88295179D02*
X78277952Y-88198923D01*
X78374340Y-88407838D02*
X78329969Y-88295179D01*
X78581000Y-86070000D02*
X80386000Y-91400000D01*
X79446000Y-91710000D02*
X78374340Y-88407838D01*
X80386000Y-91400000D02*
X79446000Y-91710000D01*
X84568254Y-125211307D02*
X134413205Y-125210778D01*
X98531000Y-70470000D02*
X73881000Y-78070000D01*
X98531000Y-70470000D02*
X100831000Y-77270000D01*
X99631000Y-79670000D02*
X100831000Y-77270000D01*
X99631000Y-79670000D02*
X101296000Y-84480000D01*
X101205657Y-81156147D02*
X101214917Y-81260869D01*
X101206186Y-81052193D02*
X101205657Y-81156147D01*
X101214917Y-81260869D02*
X101234496Y-81365380D01*
X101217563Y-80949958D02*
X101206186Y-81052193D01*
X101234496Y-81365380D02*
X102066000Y-84230000D01*
X101239523Y-80850448D02*
X101217563Y-80949958D01*
X101272861Y-80754616D02*
X101239523Y-80850448D01*
X101317311Y-80663414D02*
X101272861Y-80754616D01*
X101373932Y-80577795D02*
X101317311Y-80663414D01*
X101442459Y-80498749D02*
X101373932Y-80577795D01*
X101523156Y-80427234D02*
X101442459Y-80498749D01*
X101616819Y-80364221D02*
X101523156Y-80427234D01*
X101723446Y-80310670D02*
X101616819Y-80364221D01*
X101843302Y-80267551D02*
X101723446Y-80310670D01*
X101976652Y-80235824D02*
X101843302Y-80267551D01*
X102066000Y-84230000D02*
X101296000Y-84480000D01*
X102124289Y-80216460D02*
X101976652Y-80235824D01*
X102285949Y-80210422D02*
X102124289Y-80216460D01*
X102285949Y-80210422D02*
X102285949Y-80210422D01*
X109917052Y-80210422D02*
X102285949Y-80210422D01*
X110008862Y-80219939D02*
X109917052Y-80210422D01*
X110098556Y-80234443D02*
X110008862Y-80219939D01*
X110185604Y-80254493D02*
X110098556Y-80234443D01*
X110269741Y-80280640D02*
X110185604Y-80254493D01*
X110350704Y-80313435D02*
X110269741Y-80280640D01*
X110428756Y-80353434D02*
X110350704Y-80313435D01*
X110502839Y-80401191D02*
X110428756Y-80353434D01*
X110573218Y-80457257D02*
X110502839Y-80401191D01*
X110639628Y-80522180D02*
X110573218Y-80457257D01*
X110701541Y-80596528D02*
X110639628Y-80522180D01*
X110758955Y-80680850D02*
X110701541Y-80596528D01*
X110811343Y-80775677D02*
X110758955Y-80680850D01*
X110858703Y-80881590D02*
X110811343Y-80775677D01*
X110900772Y-80999144D02*
X110858703Y-80881590D01*
X110937020Y-81128869D02*
X110900772Y-80999144D01*
X110967711Y-81271347D02*
X110937020Y-81128869D01*
X111118524Y-82846436D02*
X110967711Y-81271347D01*
X111151067Y-82922424D02*
X111118524Y-82846436D01*
X111189167Y-82999391D02*
X111151067Y-82922424D01*
X111233088Y-83076649D02*
X111189167Y-82999391D01*
X111282830Y-83153405D02*
X111233088Y-83076649D01*
X111338657Y-83228943D02*
X111282830Y-83153405D01*
X111400834Y-83302524D02*
X111338657Y-83228943D01*
X111469625Y-83373432D02*
X111400834Y-83302524D01*
X111544767Y-83440901D02*
X111469625Y-83373432D01*
X111626787Y-83504189D02*
X111544767Y-83440901D01*
X111715952Y-83562556D02*
X111626787Y-83504189D01*
X111811996Y-83615288D02*
X111715952Y-83562556D01*
X111915183Y-83661642D02*
X111811996Y-83615288D01*
X112025779Y-83700854D02*
X111915183Y-83661642D01*
X112144312Y-83732207D02*
X112025779Y-83700854D01*
X112270253Y-83754934D02*
X112144312Y-83732207D01*
X112404132Y-83768349D02*
X112270253Y-83754934D01*
X117007083Y-83772979D02*
X112404132Y-83768349D01*
X117178003Y-83696991D02*
X117007083Y-83772979D01*
X117346278Y-83616875D02*
X117178003Y-83696991D01*
X117508732Y-83527949D02*
X117346278Y-83616875D01*
X117586784Y-83478736D02*
X117508732Y-83527949D01*
X117662190Y-83425529D02*
X117586784Y-83478736D01*
X117734421Y-83367797D02*
X117662190Y-83425529D01*
X117803478Y-83304932D02*
X117734421Y-83367797D01*
X117868830Y-83236325D02*
X117803478Y-83304932D01*
X117929684Y-83161422D02*
X117868830Y-83236325D01*
X117986304Y-83079613D02*
X117929684Y-83161422D01*
X118037634Y-82990343D02*
X117986304Y-83079613D01*
X118083936Y-82893002D02*
X118037634Y-82990343D01*
X118124417Y-82787010D02*
X118083936Y-82893002D01*
X118289252Y-81550905D02*
X118124417Y-82787010D01*
X118311212Y-81438828D02*
X118289252Y-81550905D01*
X118336348Y-81333312D02*
X118311212Y-81438828D01*
X118364658Y-81234226D02*
X118336348Y-81333312D01*
X118395879Y-81141304D02*
X118364658Y-81234226D01*
X118429746Y-81054362D02*
X118395879Y-81141304D01*
X118466523Y-80973188D02*
X118429746Y-81054362D01*
X118505681Y-80897597D02*
X118466523Y-80973188D01*
X118547750Y-80827350D02*
X118505681Y-80897597D01*
X118591935Y-80762236D02*
X118547750Y-80827350D01*
X118638766Y-80702096D02*
X118591935Y-80762236D01*
X118687449Y-80646666D02*
X118638766Y-80702096D01*
X118738514Y-80595787D02*
X118687449Y-80646666D01*
X118791695Y-80549220D02*
X118738514Y-80595787D01*
X118846728Y-80506765D02*
X118791695Y-80549220D01*
X118903614Y-80468221D02*
X118846728Y-80506765D01*
X118962351Y-80433378D02*
X118903614Y-80468221D01*
X119084588Y-80373969D02*
X118962351Y-80433378D01*
X119212382Y-80326883D02*
X119084588Y-80373969D01*
X119345467Y-80290463D02*
X119212382Y-80326883D01*
X119482786Y-80263055D02*
X119345467Y-80290463D01*
X119623544Y-80243003D02*
X119482786Y-80263055D01*
X119767213Y-80228652D02*
X119623544Y-80243003D01*
X120059048Y-80210424D02*
X119767213Y-80228652D01*
X131478450Y-80210424D02*
X120059048Y-80210424D01*
X131590898Y-80214576D02*
X131478450Y-80210424D01*
X131699112Y-80228675D02*
X131590898Y-80214576D01*
X131803358Y-80251898D02*
X131699112Y-80228675D01*
X131902841Y-80283423D02*
X131803358Y-80251898D01*
X131997826Y-80322430D02*
X131902841Y-80283423D01*
X132087785Y-80368097D02*
X131997826Y-80322430D01*
X132172451Y-80419604D02*
X132087785Y-80368097D01*
X132251561Y-80476127D02*
X132172451Y-80419604D01*
X132324851Y-80536838D02*
X132251561Y-80476127D01*
X132392055Y-80600946D02*
X132324851Y-80536838D01*
X132453174Y-80667595D02*
X132392055Y-80600946D01*
X132507678Y-80735963D02*
X132453174Y-80667595D01*
X132555038Y-80805257D02*
X132507678Y-80735963D01*
X132595519Y-80874631D02*
X132555038Y-80805257D01*
X132628592Y-80943290D02*
X132595519Y-80874631D01*
X132654257Y-81010362D02*
X132628592Y-80943290D01*
X132959056Y-82749281D02*
X132654257Y-81010362D01*
X133086056Y-82928906D02*
X132959056Y-82749281D01*
X133219406Y-83094826D02*
X133086056Y-82928906D01*
X133359106Y-83246141D02*
X133219406Y-83094826D01*
X133431602Y-83316018D02*
X133359106Y-83246141D01*
X133505949Y-83381899D02*
X133431602Y-83316018D01*
X133582149Y-83443653D02*
X133505949Y-83381899D01*
X133659937Y-83501173D02*
X133582149Y-83443653D01*
X133740105Y-83554328D02*
X133659937Y-83501173D01*
X133821862Y-83603011D02*
X133740105Y-83554328D01*
X133905999Y-83647117D02*
X133821862Y-83603011D01*
X133991988Y-83686540D02*
X133905999Y-83647117D01*
X134080359Y-83721121D02*
X133991988Y-83686540D01*
X134170847Y-83750781D02*
X134080359Y-83721121D01*
X134413205Y-123057337D02*
X134416644Y-122941714D01*
X134413205Y-125210778D02*
X134413205Y-123057337D01*
X134416644Y-122941714D02*
X134426698Y-122827414D01*
X134426698Y-122827414D02*
X134443367Y-122714702D01*
X134443367Y-122714702D02*
X134466650Y-122604106D01*
X134466650Y-122604106D02*
X134496019Y-122495098D01*
X134496019Y-122495098D02*
X134531209Y-122388471D01*
X134531209Y-122388471D02*
X134572484Y-122283961D01*
X134572484Y-122283961D02*
X134619579Y-122181832D01*
X134619579Y-122181832D02*
X134672231Y-122082084D01*
X134672231Y-122082084D02*
X134730175Y-121984982D01*
X134730175Y-121984982D02*
X134793410Y-121890790D01*
X134793410Y-121890790D02*
X134861673Y-121799509D01*
X134861673Y-121799509D02*
X134934962Y-121711403D01*
X134934962Y-121711403D02*
X135013014Y-121626472D01*
X135013014Y-121626472D02*
X135095564Y-121544716D01*
X135095564Y-121544716D02*
X135182347Y-121466664D01*
X135182347Y-121466664D02*
X135273629Y-121392316D01*
X135273629Y-121392316D02*
X135368878Y-121321408D01*
X135368878Y-121321408D02*
X135468097Y-121254733D01*
X135468097Y-121254733D02*
X135571020Y-121192027D01*
X135571020Y-121192027D02*
X135677647Y-121133554D01*
X135677647Y-121133554D02*
X135787713Y-121079314D01*
X135787713Y-121079314D02*
X135900955Y-121029573D01*
X135900955Y-121029573D02*
X136017107Y-120984594D01*
X136017107Y-120984594D02*
X136136434Y-120944377D01*
X136136434Y-120944377D02*
X136258406Y-120908923D01*
X136258406Y-120908923D02*
X136383025Y-120878760D01*
X136383025Y-120878760D02*
X136510289Y-120853625D01*
X136510289Y-120853625D02*
X136639406Y-120833781D01*
X136639406Y-120833781D02*
X136770904Y-120819494D01*
X136770904Y-120819494D02*
X136904254Y-120810763D01*
X136904254Y-120810763D02*
X137039455Y-120807852D01*
X137039455Y-120807852D02*
X137174657Y-120810763D01*
X137174657Y-120810763D02*
X137308007Y-120819494D01*
X137308007Y-120819494D02*
X137439240Y-120833781D01*
X137439240Y-120833781D02*
X137568621Y-120853625D01*
X137568621Y-120853625D02*
X137695621Y-120878760D01*
X137695621Y-120878760D02*
X137820240Y-120908923D01*
X137820240Y-120908923D02*
X137942213Y-120944377D01*
X137942213Y-120944377D02*
X138061540Y-120984594D01*
X138061540Y-120984594D02*
X138177956Y-121029573D01*
X138177956Y-121029573D02*
X138290933Y-121079314D01*
X138290933Y-121079314D02*
X138401000Y-121133554D01*
X138401000Y-121133554D02*
X138507627Y-121192027D01*
X138507627Y-121192027D02*
X138610549Y-121254733D01*
X138610549Y-121254733D02*
X138709768Y-121321408D01*
X138709768Y-121321408D02*
X138805018Y-121392316D01*
X138805018Y-121392316D02*
X138896034Y-121466664D01*
X138896034Y-121466664D02*
X138983082Y-121544716D01*
X138983082Y-121544716D02*
X139065632Y-121626472D01*
X139065632Y-121626472D02*
X139143419Y-121711403D01*
X139143419Y-121711403D02*
X139216709Y-121799509D01*
X139216709Y-121799509D02*
X139284971Y-121890790D01*
X139284971Y-121890790D02*
X139348207Y-121984982D01*
X139348207Y-121984982D02*
X139406150Y-122082084D01*
X139406150Y-122082084D02*
X139458802Y-122181832D01*
X139458802Y-122181832D02*
X139505898Y-122283961D01*
X139505898Y-122283961D02*
X139547173Y-122388471D01*
X139547173Y-122388471D02*
X139582363Y-122495098D01*
X139582363Y-122495098D02*
X139611731Y-122604106D01*
X139611731Y-122604106D02*
X139634750Y-122714702D01*
X139634750Y-122714702D02*
X139651419Y-122827414D01*
X139651419Y-122827414D02*
X139661738Y-122941714D01*
X139661738Y-122941714D02*
X139665177Y-123057337D01*
X139665177Y-123057337D02*
X139665177Y-125210778D01*
X139665177Y-125210778D02*
X188896665Y-125210249D01*
X146048242Y-83778668D02*
X134170847Y-83750781D01*
X149612704Y-87314370D02*
X146048242Y-83778668D01*
X161212023Y-87309713D02*
X149612704Y-87314370D01*
X161336377Y-87272777D02*
X161212023Y-87309713D01*
X161447237Y-87231052D02*
X161336377Y-87272777D01*
X161545397Y-87184856D02*
X161447237Y-87231052D01*
X161631916Y-87134585D02*
X161545397Y-87184856D01*
X161707851Y-87080505D02*
X161631916Y-87134585D01*
X161773997Y-87022958D02*
X161707851Y-87080505D01*
X161831147Y-86962315D02*
X161773997Y-87022958D01*
X161880624Y-86898868D02*
X161831147Y-86962315D01*
X161922957Y-86832961D02*
X161880624Y-86898868D01*
X161959205Y-86764910D02*
X161922957Y-86832961D01*
X161990426Y-86695087D02*
X161959205Y-86764910D01*
X162017678Y-86623781D02*
X161990426Y-86695087D01*
X162062922Y-86478076D02*
X162017678Y-86623781D01*
X162102874Y-86330465D02*
X162062922Y-86478076D01*
X162232255Y-83820525D02*
X162102874Y-86330465D01*
X162299459Y-83587692D02*
X162232255Y-83820525D01*
X162376453Y-83363722D02*
X162299459Y-83587692D01*
X162462707Y-83148510D02*
X162376453Y-83363722D01*
X162557957Y-82941977D02*
X162462707Y-83148510D01*
X162661673Y-82743989D02*
X162557957Y-82941977D01*
X162773063Y-82554416D02*
X162661673Y-82743989D01*
X162891860Y-82373176D02*
X162773063Y-82554416D01*
X163017537Y-82200112D02*
X162891860Y-82373176D01*
X163149564Y-82035145D02*
X163017537Y-82200112D01*
X163287412Y-81878141D02*
X163149564Y-82035145D01*
X163430551Y-81729022D02*
X163287412Y-81878141D01*
X163578189Y-81587629D02*
X163430551Y-81729022D01*
X163730588Y-81453856D02*
X163578189Y-81587629D01*
X163886428Y-81327597D02*
X163730588Y-81453856D01*
X164045707Y-81208773D02*
X163886428Y-81327597D01*
X164207632Y-81097198D02*
X164045707Y-81208773D01*
X164371938Y-80992820D02*
X164207632Y-81097198D01*
X164538096Y-80895507D02*
X164371938Y-80992820D01*
X164705312Y-80805125D02*
X164538096Y-80895507D01*
X164873322Y-80721570D02*
X164705312Y-80805125D01*
X165041597Y-80644761D02*
X164873322Y-80721570D01*
X165209607Y-80574541D02*
X165041597Y-80644761D01*
X165376824Y-80510795D02*
X165209607Y-80574541D01*
X165542717Y-80453439D02*
X165376824Y-80510795D01*
X165707023Y-80402342D02*
X165542717Y-80453439D01*
X165868684Y-80357395D02*
X165707023Y-80402342D01*
X166027698Y-80318480D02*
X165868684Y-80357395D01*
X166183537Y-80285484D02*
X166027698Y-80318480D01*
X166335408Y-80258295D02*
X166183537Y-80285484D01*
X166483045Y-80236798D02*
X166335408Y-80258295D01*
X166625656Y-80220878D02*
X166483045Y-80236798D01*
X166763239Y-80210422D02*
X166625656Y-80220878D01*
X171986000Y-84210249D02*
X172963212Y-81327147D01*
X172041405Y-80210422D02*
X166763239Y-80210422D01*
X172167876Y-80234147D02*
X172041405Y-80210422D01*
X172322921Y-80271657D02*
X172167876Y-80234147D01*
X172406265Y-80298599D02*
X172322921Y-80271657D01*
X172490932Y-80332609D02*
X172406265Y-80298599D01*
X172574804Y-80374897D02*
X172490932Y-80332609D01*
X172655767Y-80426668D02*
X172574804Y-80374897D01*
X172731967Y-80489128D02*
X172655767Y-80426668D01*
X172801287Y-80563481D02*
X172731967Y-80489128D01*
X172832773Y-80605497D02*
X172801287Y-80563481D01*
X172861877Y-80650953D02*
X172832773Y-80605497D01*
X172888335Y-80699980D02*
X172861877Y-80650953D01*
X172911619Y-80752738D02*
X172888335Y-80699980D01*
X172931991Y-80809385D02*
X172911619Y-80752738D01*
X172948925Y-80870027D02*
X172931991Y-80809385D01*
X172961889Y-80934877D02*
X172948925Y-80870027D01*
X172963212Y-81327147D02*
X172972473Y-81239121D01*
X172971150Y-81004065D02*
X172961889Y-80934877D01*
X172972473Y-81239121D02*
X172976441Y-81156041D01*
X172975912Y-81077725D02*
X172971150Y-81004065D01*
X172976441Y-81156041D02*
X172975912Y-81077725D01*
X173136000Y-84580000D02*
X171986000Y-84210249D01*
X174806000Y-79670000D02*
X173136000Y-84580000D01*
X174806000Y-79670000D02*
X173606000Y-77270000D01*
X175906000Y-70470000D02*
X173606000Y-77270000D01*
X175906000Y-70470000D02*
X200556000Y-78070000D01*
X188896665Y-125210249D02*
X199800395Y-117193648D01*
X195276000Y-91710249D02*
X194066000Y-91320000D01*
X195856000Y-86070000D02*
X194066000Y-91320000D01*
X196187250Y-88786642D02*
X195276000Y-91710249D01*
X196216618Y-88744652D02*
X196187250Y-88786642D01*
X196247575Y-88707875D02*
X196216618Y-88744652D01*
X196279854Y-88676020D02*
X196247575Y-88707875D01*
X196313456Y-88648820D02*
X196279854Y-88676020D01*
X196348381Y-88626040D02*
X196313456Y-88648820D01*
X196384629Y-88607360D02*
X196348381Y-88626040D01*
X196460299Y-88581352D02*
X196384629Y-88607360D01*
X196539674Y-88568705D02*
X196460299Y-88581352D01*
X196596824Y-113203737D02*
X196599999Y-113082029D01*
X196599999Y-113082029D02*
X196608466Y-112961908D01*
X196599999Y-113325445D02*
X196596824Y-113203737D01*
X196608466Y-112961908D02*
X196622753Y-112843375D01*
X196608466Y-113445566D02*
X196599999Y-113325445D01*
X196622489Y-88567302D02*
X196539674Y-88568705D01*
X196622753Y-112843375D02*
X196642597Y-112726958D01*
X196622753Y-113563834D02*
X196608466Y-113445566D01*
X196642597Y-112726958D02*
X196667732Y-112612394D01*
X196642597Y-113680515D02*
X196622753Y-113563834D01*
X196667732Y-112612394D02*
X196698159Y-112500211D01*
X196667732Y-113794815D02*
X196642597Y-113680515D01*
X196698159Y-112500211D02*
X196733349Y-112390409D01*
X196698159Y-113907263D02*
X196667732Y-113794815D01*
X196707949Y-88575028D02*
X196622489Y-88567302D01*
X196733349Y-112390409D02*
X196773830Y-112282988D01*
X196733349Y-114017065D02*
X196698159Y-113907263D01*
X196773830Y-112282988D02*
X196818809Y-112177948D01*
X196773830Y-114124486D02*
X196733349Y-114017065D01*
X196795261Y-88589739D02*
X196707949Y-88575028D01*
X196818809Y-112177948D02*
X196868551Y-112076084D01*
X196818809Y-114229260D02*
X196773830Y-114124486D01*
X196868551Y-112076084D02*
X196922526Y-111976865D01*
X196868551Y-114331389D02*
X196818809Y-114229260D01*
X196922526Y-111976865D02*
X196980999Y-111881086D01*
X196922526Y-114430344D02*
X196868551Y-114331389D01*
X196980999Y-111881086D02*
X197043705Y-111788218D01*
X196980999Y-114526387D02*
X196922526Y-114430344D01*
X197043705Y-111788218D02*
X197110644Y-111698789D01*
X197043705Y-114619256D02*
X196980999Y-114526387D01*
X197110644Y-111698789D02*
X197181288Y-111613064D01*
X197110644Y-114708420D02*
X197043705Y-114619256D01*
X197181288Y-111613064D02*
X197255900Y-111530778D01*
X197181288Y-114794410D02*
X197110644Y-114708420D01*
X197255900Y-111530778D02*
X197333952Y-111452462D01*
X197255900Y-114876430D02*
X197181288Y-114794410D01*
X197333952Y-111452462D02*
X197415444Y-111378114D01*
X197333952Y-114954747D02*
X197255900Y-114876430D01*
X197415444Y-111378114D02*
X197500375Y-111308000D01*
X197415444Y-115029095D02*
X197333952Y-114954747D01*
X197500375Y-111308000D02*
X197588746Y-111242118D01*
X197500375Y-115099474D02*
X197415444Y-115029095D01*
X197588746Y-111242118D02*
X197680027Y-111180471D01*
X197588746Y-115165355D02*
X197500375Y-115099474D01*
X197680027Y-111180471D02*
X197774219Y-111123585D01*
X197680027Y-115227003D02*
X197588746Y-115165355D01*
X197774219Y-111123585D02*
X197871056Y-111071198D01*
X197774219Y-115283888D02*
X197680027Y-115227003D01*
X197871056Y-111071198D02*
X197970804Y-111023837D01*
X197871056Y-115336011D02*
X197774219Y-115283888D01*
X197970804Y-111023837D02*
X198072933Y-110981504D01*
X197970804Y-115383636D02*
X197871056Y-115336011D01*
X198072933Y-110981504D02*
X198177443Y-110944198D01*
X198072933Y-115425969D02*
X197970804Y-115383636D01*
X198177443Y-110944198D02*
X198284335Y-110912448D01*
X198177443Y-115463011D02*
X198072933Y-115425969D01*
X198256000Y-84870000D02*
X195856000Y-86070000D01*
X198284335Y-110912448D02*
X198393078Y-110885990D01*
X198284335Y-115495026D02*
X198177443Y-115463011D01*
X198393078Y-110885990D02*
X198503938Y-110865088D01*
X198393078Y-115521484D02*
X198284335Y-115495026D01*
X198503938Y-110865088D02*
X198616386Y-110850271D01*
X198503938Y-115542121D02*
X198393078Y-115521484D01*
X198616386Y-110850271D02*
X198730686Y-110841011D01*
X198616386Y-115557203D02*
X198503938Y-115542121D01*
X198730686Y-110841011D02*
X198846309Y-110837836D01*
X198730686Y-115566463D02*
X198616386Y-115557203D01*
X198846309Y-110837836D02*
X199800395Y-110837836D01*
X198846309Y-115569373D02*
X198730686Y-115566463D01*
X199430773Y-89095648D02*
X196795261Y-88589739D01*
X199482631Y-89145919D02*
X199430773Y-89095648D01*
X199529727Y-89200026D02*
X199482631Y-89145919D01*
X199572589Y-89258023D02*
X199529727Y-89200026D01*
X199611218Y-89319935D02*
X199572589Y-89258023D01*
X199645614Y-89385790D02*
X199611218Y-89319935D01*
X199676306Y-89455666D02*
X199645614Y-89385790D01*
X199703293Y-89529591D02*
X199676306Y-89455666D01*
X199726576Y-89607590D02*
X199703293Y-89529591D01*
X199746420Y-89689716D02*
X199726576Y-89607590D01*
X199762824Y-89775997D02*
X199746420Y-89689716D01*
X199786372Y-89961231D02*
X199762824Y-89775997D01*
X199798543Y-90163611D02*
X199786372Y-89961231D01*
X199800395Y-90383427D02*
X199798543Y-90163611D01*
X199800395Y-110837836D02*
X199800395Y-90383427D01*
X199800395Y-115569373D02*
X198846309Y-115569373D01*
X199800395Y-117193648D02*
X199800395Y-115569373D01*
X200556000Y-78070000D02*
X198256000Y-84870000D01*
%TD*%
M02*
