%TF.GenerationSoftware,KiCad,Pcbnew,(7.0.0-0)*%
%TF.CreationDate,2023-06-11T14:42:47-06:00*%
%TF.ProjectId,snes_controller_pcb,736e6573-5f63-46f6-9e74-726f6c6c6572,4a*%
%TF.SameCoordinates,Original*%
%TF.FileFunction,Soldermask,Top*%
%TF.FilePolarity,Negative*%
%FSLAX46Y46*%
G04 Gerber Fmt 4.6, Leading zero omitted, Abs format (unit mm)*
G04 Created by KiCad (PCBNEW (7.0.0-0)) date 2023-06-11 14:42:47*
%MOMM*%
%LPD*%
G01*
G04 APERTURE LIST*
G04 Aperture macros list*
%AMRoundRect*
0 Rectangle with rounded corners*
0 $1 Rounding radius*
0 $2 $3 $4 $5 $6 $7 $8 $9 X,Y pos of 4 corners*
0 Add a 4 corners polygon primitive as box body*
4,1,4,$2,$3,$4,$5,$6,$7,$8,$9,$2,$3,0*
0 Add four circle primitives for the rounded corners*
1,1,$1+$1,$2,$3*
1,1,$1+$1,$4,$5*
1,1,$1+$1,$6,$7*
1,1,$1+$1,$8,$9*
0 Add four rect primitives between the rounded corners*
20,1,$1+$1,$2,$3,$4,$5,0*
20,1,$1+$1,$4,$5,$6,$7,0*
20,1,$1+$1,$6,$7,$8,$9,0*
20,1,$1+$1,$8,$9,$2,$3,0*%
%AMFreePoly0*
4,1,142,1.313367,2.648542,1.321935,2.645906,1.330902,2.645906,1.360764,2.636202,1.366113,2.632314,1.372436,2.630370,1.398126,2.612315,1.403507,2.605146,1.410760,2.599878,1.429217,2.574474,1.431260,2.568181,1.435231,2.562895,1.445403,2.533187,1.445543,2.524222,1.448313,2.515699,1.450800,2.500000,1.450800,-2.500000,1.448313,-2.515699,1.445543,-2.524222,1.445403,-2.533187,
1.435231,-2.562895,1.431260,-2.568181,1.429217,-2.574474,1.410760,-2.599878,1.403507,-2.605146,1.398126,-2.612315,1.372436,-2.630370,1.366113,-2.632314,1.360764,-2.636202,1.330902,-2.645906,1.321935,-2.645906,1.313367,-2.648542,1.297633,-2.650782,1.140502,-2.648314,1.132289,-2.646881,1.123969,-2.647143,0.812183,-2.607756,0.803050,-2.605102,0.793582,-2.604208,0.489192,-2.526054,
0.480466,-2.522278,0.471181,-2.520202,0.178986,-2.404515,0.170798,-2.399672,0.161850,-2.396451,-0.113539,-2.245054,-0.121053,-2.239224,-0.129529,-2.234906,-0.383773,-2.050187,-0.390501,-2.043458,-0.398364,-2.038116,-0.627453,-1.822989,-0.633284,-1.815470,-0.640417,-1.809183,-0.771443,-1.650800,-2.400000,-1.650800,-2.401553,-1.650553,-2.403114,-1.650768,-2.527194,-1.648206,-2.537963,-1.646271,
-2.548901,-1.646181,-2.793679,-1.605335,-2.805516,-1.601379,-2.817824,-1.599221,-3.052541,-1.518645,-3.063573,-1.512789,-3.075349,-1.508638,-3.293601,-1.390526,-3.303516,-1.382939,-3.314451,-1.376904,-3.510286,-1.224479,-3.518813,-1.215367,-3.528611,-1.207612,-3.696685,-1.025032,-3.703600,-1.014637,-3.711984,-1.005378,-3.847716,-0.797625,-3.852828,-0.786226,-3.859569,-0.775721,-3.959256,-0.548460,
-3.962418,-0.536385,-3.967343,-0.524904,-4.028263,-0.284334,-4.029396,-0.271893,-4.032360,-0.259769,-4.052855,-0.012454,-4.051926,0.000000,-4.052855,0.012453,-4.032361,0.259769,-4.029396,0.271894,-4.028263,0.284334,-3.967343,0.524904,-3.962418,0.536385,-3.959255,0.548460,-3.859569,0.775721,-3.852828,0.786226,-3.847716,0.797625,-3.711984,1.005378,-3.703600,1.014637,-3.696687,1.025032,
-3.528610,1.207612,-3.518813,1.215367,-3.510286,1.224479,-3.314451,1.376904,-3.303516,1.382939,-3.293601,1.390526,-3.075349,1.508638,-3.063573,1.512789,-3.052541,1.518644,-2.817824,1.599222,-2.805515,1.601379,-2.793679,1.605335,-2.548901,1.646181,-2.537963,1.646271,-2.527194,1.648205,-2.403114,1.650768,-2.401553,1.650553,-2.400000,1.650801,-0.771443,1.650800,-0.640417,1.809183,
-0.633284,1.815470,-0.627453,1.822989,-0.398364,2.038116,-0.390501,2.043458,-0.383773,2.050187,-0.129529,2.234906,-0.121053,2.239224,-0.113539,2.245054,0.161850,2.396451,0.170798,2.399672,0.178986,2.404515,0.471181,2.520203,0.480466,2.522278,0.489192,2.526054,0.793582,2.604208,0.803050,2.605102,0.812184,2.607756,1.123969,2.647143,1.132289,2.646881,1.140502,2.648315,
1.297633,2.650782,1.313367,2.648542,1.313367,2.648542,$1*%
%AMFreePoly1*
4,1,142,-1.140503,2.648315,-1.132291,2.646881,-1.123969,2.647143,-0.812183,2.607756,-0.803050,2.605102,-0.793582,2.604208,-0.489192,2.526054,-0.480466,2.522278,-0.471181,2.520202,-0.178985,2.404515,-0.170795,2.399671,-0.161851,2.396450,0.113539,2.245054,0.121053,2.239225,0.129530,2.234907,0.383773,2.050187,0.390497,2.043461,0.398365,2.038116,0.627453,1.822989,0.633286,1.815467,
0.640416,1.809183,0.771442,1.650800,2.400000,1.650800,2.401553,1.650553,2.403113,1.650768,2.527194,1.648206,2.537963,1.646271,2.548901,1.646181,2.793680,1.605335,2.805518,1.601379,2.817824,1.599221,3.052541,1.518645,3.063573,1.512789,3.075349,1.508638,3.293601,1.390526,3.303516,1.382939,3.314451,1.376904,3.510287,1.224479,3.518822,1.215360,3.528610,1.207611,
3.696687,1.025032,3.703604,1.014631,3.711984,1.005378,3.847715,0.797625,3.852824,0.786232,3.859569,0.775721,3.959256,0.548460,3.962419,0.536380,3.967343,0.524903,4.028263,0.284334,4.029396,0.271893,4.032361,0.259768,4.052855,0.012454,4.051926,0.000000,4.052855,-0.012453,4.032361,-0.259768,4.029396,-0.271894,4.028263,-0.284334,3.967343,-0.524903,3.962419,-0.536380,
3.959255,-0.548460,3.859569,-0.775721,3.852824,-0.786232,3.847715,-0.797625,3.711984,-1.005378,3.703604,-1.014632,3.696687,-1.025032,3.528610,-1.207611,3.518822,-1.215358,3.510287,-1.224479,3.314451,-1.376904,3.303516,-1.382939,3.293601,-1.390526,3.075349,-1.508638,3.063573,-1.512789,3.052541,-1.518644,2.817824,-1.599222,2.805518,-1.601379,2.793680,-1.605335,2.548901,-1.646181,
2.537963,-1.646271,2.527194,-1.648205,2.403113,-1.650768,2.401553,-1.650553,2.400000,-1.650801,0.771442,-1.650800,0.640416,-1.809183,0.633286,-1.815467,0.627453,-1.822989,0.398365,-2.038116,0.390497,-2.043461,0.383773,-2.050187,0.129530,-2.234907,0.121053,-2.239225,0.113539,-2.245054,-0.161852,-2.396451,-0.170795,-2.399671,-0.178985,-2.404515,-0.471181,-2.520203,-0.480466,-2.522278,
-0.489192,-2.526054,-0.793582,-2.604208,-0.803050,-2.605102,-0.812184,-2.607756,-1.123969,-2.647143,-1.132291,-2.646881,-1.140503,-2.648315,-1.297633,-2.650782,-1.313367,-2.648542,-1.321935,-2.645906,-1.330902,-2.645906,-1.360762,-2.636203,-1.366115,-2.632314,-1.372439,-2.630369,-1.398128,-2.612314,-1.403509,-2.605145,-1.410760,-2.599878,-1.429216,-2.574475,-1.431260,-2.568182,-1.435232,-2.562893,
-1.445403,-2.533187,-1.445543,-2.524222,-1.448313,-2.515699,-1.450800,-2.500000,-1.450800,2.500000,-1.448313,2.515699,-1.445543,2.524222,-1.445403,2.533187,-1.435232,2.562893,-1.431260,2.568182,-1.429216,2.574475,-1.410760,2.599878,-1.403509,2.605145,-1.398128,2.612314,-1.372439,2.630369,-1.366115,2.632314,-1.360762,2.636204,-1.330902,2.645906,-1.321935,2.645906,-1.313367,2.648542,
-1.297633,2.650782,-1.140503,2.648315,-1.140503,2.648315,$1*%
G04 Aperture macros list end*
%ADD10C,0.010000*%
%ADD11FreePoly0,288.700000*%
%ADD12FreePoly1,288.700000*%
%ADD13FreePoly0,225.000000*%
%ADD14FreePoly1,225.000000*%
%ADD15RoundRect,0.050800X0.146720X0.153210X-0.153210X0.146720X-0.146720X-0.153210X0.153210X-0.146720X0*%
%ADD16RoundRect,0.050800X0.163088X0.135655X-0.135655X0.163088X-0.163088X-0.135655X0.135655X-0.163088X0*%
%ADD17RoundRect,0.050800X0.128473X0.168803X-0.168803X0.128473X-0.128473X-0.168803X0.168803X-0.128473X0*%
%ADD18RoundRect,0.050800X0.177369X0.116363X-0.116363X0.177369X-0.177369X-0.116363X0.116363X-0.177369X0*%
%ADD19RoundRect,0.050800X0.108582X0.182236X-0.182236X0.108582X-0.108582X-0.182236X0.182236X-0.108582X0*%
%ADD20RoundRect,0.050800X0.189378X0.095582X-0.095582X0.189378X-0.189378X-0.095582X0.095582X-0.189378X0*%
%ADD21RoundRect,0.050800X0.087300X0.193336X-0.193336X0.087300X-0.087300X-0.193336X0.193336X-0.087300X0*%
%ADD22RoundRect,0.050800X0.198964X0.073576X-0.073576X0.198964X-0.198964X-0.073576X0.073576X-0.198964X0*%
%ADD23RoundRect,0.050800X0.064901X0.201960X-0.201960X0.064901X-0.064901X-0.201960X0.201960X-0.064901X0*%
%ADD24RoundRect,0.050800X0.206002X0.050629X-0.050629X0.206002X-0.206002X-0.050629X0.050629X-0.206002X0*%
%ADD25RoundRect,0.050800X0.041671X0.207999X-0.207999X0.041671X-0.041671X-0.207999X0.207999X-0.041671X0*%
%ADD26RoundRect,0.050800X0.210402X0.027034X-0.027034X0.210402X-0.210402X-0.027034X0.027034X-0.210402X0*%
%ADD27RoundRect,0.050800X0.017908X0.211375X-0.211375X0.017908X-0.017908X-0.211375X0.211375X-0.017908X0*%
%ADD28RoundRect,0.050800X0.212109X0.003093X-0.003093X0.212109X-0.212109X-0.003093X0.003093X-0.212109X0*%
%ADD29RoundRect,0.050800X-0.006085X0.212045X-0.212045X-0.006085X0.006085X-0.212045X0.212045X0.006085X0*%
%ADD30RoundRect,0.050800X0.211101X-0.020888X0.020888X0.211101X-0.211101X0.020888X-0.020888X-0.211101X0*%
%ADD31RoundRect,0.050800X-0.030000X0.210000X-0.210000X-0.030000X0.030000X-0.210000X0.210000X0.030000X0*%
%ADD32RoundRect,0.050800X0.207390X-0.044602X0.044602X0.207390X-0.207390X0.044602X-0.044602X-0.207390X0*%
%ADD33RoundRect,0.050800X0.203246X-0.060754X0.060754X0.203246X-0.203246X0.060754X-0.060754X-0.203246X0*%
%ADD34O,1.289034X0.401600*%
%ADD35O,3.479009X0.401600*%
%ADD36O,4.069223X0.401600*%
%ADD37O,4.608059X0.401600*%
%ADD38O,4.535632X0.401600*%
%ADD39O,4.270727X0.401600*%
%ADD40O,3.039444X0.401600*%
%ADD41O,1.601600X0.401600*%
%ADD42RoundRect,0.050800X0.060754X-0.203246X0.203246X0.060754X-0.060754X0.203246X-0.203246X-0.060754X0*%
%ADD43RoundRect,0.050800X0.037405X-0.208808X0.208808X0.037405X-0.037405X0.208808X-0.208808X-0.037405X0*%
%ADD44RoundRect,0.050800X-0.210000X0.030000X-0.030000X-0.210000X0.210000X-0.030000X0.030000X0.210000X0*%
%ADD45RoundRect,0.050800X0.013578X-0.211697X0.211697X0.013578X-0.013578X0.211697X-0.211697X-0.013578X0*%
%ADD46RoundRect,0.050800X-0.211708X0.013412X-0.013412X-0.211708X0.211708X-0.013412X0.013412X0.211708X0*%
%ADD47RoundRect,0.050800X-0.010424X-0.211876X0.211876X-0.010424X0.010424X0.211876X-0.211876X0.010424X0*%
%ADD48RoundRect,0.050800X-0.211868X-0.010589X0.010589X-0.211868X0.211868X0.010589X-0.010589X0.211868X0*%
%ADD49RoundRect,0.050800X-0.034292X-0.209342X0.209342X-0.034292X0.034292X0.209342X-0.209342X0.034292X0*%
%ADD50RoundRect,0.050800X-0.209315X-0.034455X0.034455X-0.209315X0.209315X0.034455X-0.034455X0.209315X0*%
%ADD51RoundRect,0.050800X-0.057721X-0.204128X0.204128X-0.057721X0.057721X0.204128X-0.204128X0.057721X0*%
%ADD52RoundRect,0.050800X-0.204083X-0.057880X0.057880X-0.204083X0.204083X0.057880X-0.057880X0.204083X0*%
%ADD53RoundRect,0.050800X-0.080411X-0.196301X0.196301X-0.080411X0.080411X0.196301X-0.196301X0.080411X0*%
%ADD54RoundRect,0.050800X-0.196238X-0.080564X0.080564X-0.196238X0.196238X0.080564X-0.080564X0.196238X0*%
%ADD55RoundRect,0.050800X-0.102072X-0.185961X0.185961X-0.102072X0.102072X0.185961X-0.185961X0.102072X0*%
%ADD56RoundRect,0.050800X-0.185881X-0.102217X0.102217X-0.185881X0.185881X0.102217X-0.102217X0.185881X0*%
%ADD57RoundRect,0.050800X-0.122425X-0.173240X0.173240X-0.122425X0.122425X0.173240X-0.173240X0.122425X0*%
%ADD58RoundRect,0.050800X-0.173144X-0.122561X0.122561X-0.173144X0.173144X0.122561X-0.122561X0.173144X0*%
%ADD59RoundRect,0.050800X-0.141212X-0.158301X0.158301X-0.141212X0.141212X0.158301X-0.158301X0.141212X0*%
%ADD60RoundRect,0.050800X-0.158191X-0.141336X0.141336X-0.158191X0.158191X0.141336X-0.141336X0.158191X0*%
%ADD61C,2.301600*%
%ADD62C,4.601600*%
%ADD63FreePoly0,0.000000*%
%ADD64FreePoly1,0.000000*%
%ADD65C,2.201600*%
%ADD66C,1.901600*%
%ADD67FreePoly0,251.301000*%
%ADD68FreePoly1,251.301000*%
%ADD69FreePoly0,90.000000*%
%ADD70FreePoly1,90.000000*%
%ADD71RoundRect,0.300800X-0.350000X-0.625000X0.350000X-0.625000X0.350000X0.625000X-0.350000X0.625000X0*%
%ADD72O,1.301600X1.851600*%
%ADD73RoundRect,0.050800X-0.850000X-0.850000X0.850000X-0.850000X0.850000X0.850000X-0.850000X0.850000X0*%
%ADD74O,1.801600X1.801600*%
G04 APERTURE END LIST*
%TO.C,Ref\u002A\u002A*%
G36*
X147601835Y-117746247D02*
G01*
X147818208Y-117747277D01*
X148072669Y-117748746D01*
X148210459Y-117749548D01*
X148524842Y-117751701D01*
X148797383Y-117754319D01*
X149028571Y-117757413D01*
X149218896Y-117760995D01*
X149368846Y-117765075D01*
X149478910Y-117769665D01*
X149549578Y-117774774D01*
X149581000Y-117780261D01*
X149636464Y-117801940D01*
X149705466Y-117825741D01*
X149718584Y-117829919D01*
X149911817Y-117908447D01*
X150104774Y-118020231D01*
X150286243Y-118157631D01*
X150445010Y-118313008D01*
X150470000Y-118341924D01*
X150625086Y-118555943D01*
X150740180Y-118781045D01*
X150740778Y-118782500D01*
X150765024Y-118844561D01*
X150786264Y-118907520D01*
X150809777Y-118987620D01*
X150823304Y-119036500D01*
X150837551Y-119113457D01*
X150847791Y-119218527D01*
X150853941Y-119340843D01*
X150855914Y-119469536D01*
X150853627Y-119593737D01*
X150846995Y-119702577D01*
X150835932Y-119785188D01*
X150829346Y-119811346D01*
X150806261Y-119883010D01*
X150784722Y-119950042D01*
X150782411Y-119957250D01*
X150686348Y-120190007D01*
X150553664Y-120409232D01*
X150389552Y-120607999D01*
X150199204Y-120779383D01*
X150126042Y-120832509D01*
X150071535Y-120873035D01*
X150035022Y-120906476D01*
X150025500Y-120921638D01*
X150035578Y-120954593D01*
X150058489Y-121001140D01*
X150083249Y-121039874D01*
X150089998Y-121047334D01*
X150104914Y-121070576D01*
X150131991Y-121120298D01*
X150159626Y-121174334D01*
X150197869Y-121249398D01*
X150234741Y-121319144D01*
X150254180Y-121354250D01*
X150278380Y-121397639D01*
X150317091Y-121468492D01*
X150364927Y-121556902D01*
X150415233Y-121650584D01*
X150468966Y-121750730D01*
X150520925Y-121847040D01*
X150564882Y-121927999D01*
X150592702Y-121978667D01*
X150630917Y-122048245D01*
X150678052Y-122135158D01*
X150719040Y-122211500D01*
X150766858Y-122300624D01*
X150817352Y-122393984D01*
X150853479Y-122460209D01*
X150910409Y-122564201D01*
X150974708Y-122682312D01*
X151051029Y-122823098D01*
X151115192Y-122941750D01*
X151374910Y-123418000D01*
X151409573Y-123475824D01*
X151439819Y-123517554D01*
X151451357Y-123528801D01*
X151473895Y-123529823D01*
X151537442Y-123530830D01*
X151640673Y-123531818D01*
X151782262Y-123532787D01*
X151960885Y-123533733D01*
X152175216Y-123534655D01*
X152423932Y-123535550D01*
X152705707Y-123536417D01*
X153019216Y-123537253D01*
X153363134Y-123538056D01*
X153736137Y-123538823D01*
X154136899Y-123539554D01*
X154564096Y-123540245D01*
X155016403Y-123540894D01*
X155492494Y-123541500D01*
X155991045Y-123542060D01*
X156510732Y-123542571D01*
X157050228Y-123543033D01*
X157608210Y-123543442D01*
X158183352Y-123543797D01*
X158774330Y-123544095D01*
X159379818Y-123544334D01*
X159998492Y-123544512D01*
X160629027Y-123544628D01*
X161222835Y-123544676D01*
X170970253Y-123545000D01*
X171065335Y-123685347D01*
X171115593Y-123758063D01*
X171161388Y-123821777D01*
X171193965Y-123864356D01*
X171197459Y-123868503D01*
X171225525Y-123910895D01*
X171234500Y-123939822D01*
X171213593Y-123942036D01*
X171151911Y-123944170D01*
X171051010Y-123946226D01*
X170912450Y-123948202D01*
X170737787Y-123950099D01*
X170528580Y-123951916D01*
X170286387Y-123953653D01*
X170012764Y-123955311D01*
X169709270Y-123956889D01*
X169377462Y-123958386D01*
X169018898Y-123959803D01*
X168635137Y-123961140D01*
X168227735Y-123962396D01*
X167798251Y-123963571D01*
X167348242Y-123964665D01*
X166879266Y-123965678D01*
X166392880Y-123966610D01*
X165890643Y-123967461D01*
X165374112Y-123968230D01*
X164844845Y-123968917D01*
X164304400Y-123969523D01*
X163754335Y-123970046D01*
X163196206Y-123970487D01*
X162631573Y-123970846D01*
X162061992Y-123971122D01*
X161489021Y-123971316D01*
X160914219Y-123971427D01*
X160339143Y-123971455D01*
X159765350Y-123971400D01*
X159194399Y-123971262D01*
X158627847Y-123971040D01*
X158067252Y-123970735D01*
X157514172Y-123970346D01*
X156970164Y-123969874D01*
X156436786Y-123969317D01*
X155915596Y-123968676D01*
X155408152Y-123967951D01*
X154916011Y-123967141D01*
X154440731Y-123966247D01*
X153983871Y-123965267D01*
X153546986Y-123964203D01*
X153131637Y-123963054D01*
X152739379Y-123961820D01*
X152371772Y-123960500D01*
X152030372Y-123959095D01*
X151716737Y-123957604D01*
X151432426Y-123956027D01*
X151178995Y-123954364D01*
X150958003Y-123952615D01*
X150771008Y-123950780D01*
X150619567Y-123948858D01*
X150505237Y-123946850D01*
X150429577Y-123944755D01*
X150394145Y-123942572D01*
X150391570Y-123941875D01*
X150377153Y-123920815D01*
X150354726Y-123884169D01*
X150321033Y-123826361D01*
X150272814Y-123741816D01*
X150218412Y-123645542D01*
X150176479Y-123571482D01*
X150133005Y-123495162D01*
X150128216Y-123486792D01*
X150092107Y-123422826D01*
X150047775Y-123343075D01*
X150019152Y-123291000D01*
X149978075Y-123218332D01*
X149938514Y-123152403D01*
X149916437Y-123118399D01*
X149889459Y-123076821D01*
X149877380Y-123052638D01*
X149877334Y-123052077D01*
X149867328Y-123031411D01*
X149839453Y-122979818D01*
X149796917Y-122903085D01*
X149742930Y-122806995D01*
X149680703Y-122697335D01*
X149673627Y-122684928D01*
X149605346Y-122564904D01*
X149539828Y-122449088D01*
X149481721Y-122345743D01*
X149435672Y-122263136D01*
X149407645Y-122211984D01*
X149372075Y-122147217D01*
X149342850Y-122096578D01*
X149328650Y-122074401D01*
X149310152Y-122045292D01*
X149278967Y-121991514D01*
X149248250Y-121936334D01*
X149211289Y-121869564D01*
X149160583Y-121779027D01*
X149103417Y-121677695D01*
X149057984Y-121597667D01*
X149002447Y-121500003D01*
X148948979Y-121405703D01*
X148904233Y-121326518D01*
X148878192Y-121280167D01*
X148843768Y-121218749D01*
X148807835Y-121155161D01*
X148764402Y-121078853D01*
X148707477Y-120979272D01*
X148688882Y-120946792D01*
X148652773Y-120882826D01*
X148608441Y-120803075D01*
X148579819Y-120751000D01*
X148538742Y-120678332D01*
X148499180Y-120612403D01*
X148477104Y-120578399D01*
X148450106Y-120536593D01*
X148438044Y-120511951D01*
X148438000Y-120511377D01*
X148428182Y-120489697D01*
X148401553Y-120439161D01*
X148362348Y-120367644D01*
X148321584Y-120294973D01*
X148274809Y-120210918D01*
X148237005Y-120140207D01*
X148212444Y-120091010D01*
X148205167Y-120072180D01*
X148225437Y-120067475D01*
X148282660Y-120062794D01*
X148371458Y-120058354D01*
X148486450Y-120054373D01*
X148622257Y-120051067D01*
X148773501Y-120048655D01*
X148792542Y-120048435D01*
X149379917Y-120041917D01*
X149476937Y-119984880D01*
X149577178Y-119911969D01*
X149669930Y-119819625D01*
X149742358Y-119721580D01*
X149767053Y-119674454D01*
X149789452Y-119590980D01*
X149799771Y-119473408D01*
X149800369Y-119428084D01*
X149797408Y-119330523D01*
X149786897Y-119258282D01*
X149765463Y-119194551D01*
X149744733Y-119151011D01*
X149653595Y-119019283D01*
X149526700Y-118909470D01*
X149448120Y-118862005D01*
X149426010Y-118850647D01*
X149403392Y-118841217D01*
X149376254Y-118833506D01*
X149340583Y-118827301D01*
X149292368Y-118822392D01*
X149227597Y-118818567D01*
X149142256Y-118815615D01*
X149032335Y-118813325D01*
X148893821Y-118811485D01*
X148722701Y-118809885D01*
X148514964Y-118808312D01*
X148414745Y-118807602D01*
X147470739Y-118800954D01*
X147428899Y-118722935D01*
X147374038Y-118622499D01*
X147335947Y-118556968D01*
X147316133Y-118528500D01*
X147300146Y-118503912D01*
X147275700Y-118458531D01*
X147273800Y-118454766D01*
X147251001Y-118411970D01*
X147212411Y-118342208D01*
X147163435Y-118255160D01*
X147109792Y-118161053D01*
X147059520Y-118072504D01*
X147017954Y-117997514D01*
X146989145Y-117943524D01*
X146977148Y-117917976D01*
X146977030Y-117917286D01*
X146964910Y-117893006D01*
X146936286Y-117852603D01*
X146935167Y-117851167D01*
X146917567Y-117829141D01*
X146903735Y-117810289D01*
X146896530Y-117794384D01*
X146898813Y-117781199D01*
X146913444Y-117770504D01*
X146943282Y-117762072D01*
X146991188Y-117755676D01*
X147060022Y-117751087D01*
X147152643Y-117748078D01*
X147271913Y-117746420D01*
X147420690Y-117745886D01*
X147601835Y-117746247D01*
G37*
D10*
X147601835Y-117746247D02*
X147818208Y-117747277D01*
X148072669Y-117748746D01*
X148210459Y-117749548D01*
X148524842Y-117751701D01*
X148797383Y-117754319D01*
X149028571Y-117757413D01*
X149218896Y-117760995D01*
X149368846Y-117765075D01*
X149478910Y-117769665D01*
X149549578Y-117774774D01*
X149581000Y-117780261D01*
X149636464Y-117801940D01*
X149705466Y-117825741D01*
X149718584Y-117829919D01*
X149911817Y-117908447D01*
X150104774Y-118020231D01*
X150286243Y-118157631D01*
X150445010Y-118313008D01*
X150470000Y-118341924D01*
X150625086Y-118555943D01*
X150740180Y-118781045D01*
X150740778Y-118782500D01*
X150765024Y-118844561D01*
X150786264Y-118907520D01*
X150809777Y-118987620D01*
X150823304Y-119036500D01*
X150837551Y-119113457D01*
X150847791Y-119218527D01*
X150853941Y-119340843D01*
X150855914Y-119469536D01*
X150853627Y-119593737D01*
X150846995Y-119702577D01*
X150835932Y-119785188D01*
X150829346Y-119811346D01*
X150806261Y-119883010D01*
X150784722Y-119950042D01*
X150782411Y-119957250D01*
X150686348Y-120190007D01*
X150553664Y-120409232D01*
X150389552Y-120607999D01*
X150199204Y-120779383D01*
X150126042Y-120832509D01*
X150071535Y-120873035D01*
X150035022Y-120906476D01*
X150025500Y-120921638D01*
X150035578Y-120954593D01*
X150058489Y-121001140D01*
X150083249Y-121039874D01*
X150089998Y-121047334D01*
X150104914Y-121070576D01*
X150131991Y-121120298D01*
X150159626Y-121174334D01*
X150197869Y-121249398D01*
X150234741Y-121319144D01*
X150254180Y-121354250D01*
X150278380Y-121397639D01*
X150317091Y-121468492D01*
X150364927Y-121556902D01*
X150415233Y-121650584D01*
X150468966Y-121750730D01*
X150520925Y-121847040D01*
X150564882Y-121927999D01*
X150592702Y-121978667D01*
X150630917Y-122048245D01*
X150678052Y-122135158D01*
X150719040Y-122211500D01*
X150766858Y-122300624D01*
X150817352Y-122393984D01*
X150853479Y-122460209D01*
X150910409Y-122564201D01*
X150974708Y-122682312D01*
X151051029Y-122823098D01*
X151115192Y-122941750D01*
X151374910Y-123418000D01*
X151409573Y-123475824D01*
X151439819Y-123517554D01*
X151451357Y-123528801D01*
X151473895Y-123529823D01*
X151537442Y-123530830D01*
X151640673Y-123531818D01*
X151782262Y-123532787D01*
X151960885Y-123533733D01*
X152175216Y-123534655D01*
X152423932Y-123535550D01*
X152705707Y-123536417D01*
X153019216Y-123537253D01*
X153363134Y-123538056D01*
X153736137Y-123538823D01*
X154136899Y-123539554D01*
X154564096Y-123540245D01*
X155016403Y-123540894D01*
X155492494Y-123541500D01*
X155991045Y-123542060D01*
X156510732Y-123542571D01*
X157050228Y-123543033D01*
X157608210Y-123543442D01*
X158183352Y-123543797D01*
X158774330Y-123544095D01*
X159379818Y-123544334D01*
X159998492Y-123544512D01*
X160629027Y-123544628D01*
X161222835Y-123544676D01*
X170970253Y-123545000D01*
X171065335Y-123685347D01*
X171115593Y-123758063D01*
X171161388Y-123821777D01*
X171193965Y-123864356D01*
X171197459Y-123868503D01*
X171225525Y-123910895D01*
X171234500Y-123939822D01*
X171213593Y-123942036D01*
X171151911Y-123944170D01*
X171051010Y-123946226D01*
X170912450Y-123948202D01*
X170737787Y-123950099D01*
X170528580Y-123951916D01*
X170286387Y-123953653D01*
X170012764Y-123955311D01*
X169709270Y-123956889D01*
X169377462Y-123958386D01*
X169018898Y-123959803D01*
X168635137Y-123961140D01*
X168227735Y-123962396D01*
X167798251Y-123963571D01*
X167348242Y-123964665D01*
X166879266Y-123965678D01*
X166392880Y-123966610D01*
X165890643Y-123967461D01*
X165374112Y-123968230D01*
X164844845Y-123968917D01*
X164304400Y-123969523D01*
X163754335Y-123970046D01*
X163196206Y-123970487D01*
X162631573Y-123970846D01*
X162061992Y-123971122D01*
X161489021Y-123971316D01*
X160914219Y-123971427D01*
X160339143Y-123971455D01*
X159765350Y-123971400D01*
X159194399Y-123971262D01*
X158627847Y-123971040D01*
X158067252Y-123970735D01*
X157514172Y-123970346D01*
X156970164Y-123969874D01*
X156436786Y-123969317D01*
X155915596Y-123968676D01*
X155408152Y-123967951D01*
X154916011Y-123967141D01*
X154440731Y-123966247D01*
X153983871Y-123965267D01*
X153546986Y-123964203D01*
X153131637Y-123963054D01*
X152739379Y-123961820D01*
X152371772Y-123960500D01*
X152030372Y-123959095D01*
X151716737Y-123957604D01*
X151432426Y-123956027D01*
X151178995Y-123954364D01*
X150958003Y-123952615D01*
X150771008Y-123950780D01*
X150619567Y-123948858D01*
X150505237Y-123946850D01*
X150429577Y-123944755D01*
X150394145Y-123942572D01*
X150391570Y-123941875D01*
X150377153Y-123920815D01*
X150354726Y-123884169D01*
X150321033Y-123826361D01*
X150272814Y-123741816D01*
X150218412Y-123645542D01*
X150176479Y-123571482D01*
X150133005Y-123495162D01*
X150128216Y-123486792D01*
X150092107Y-123422826D01*
X150047775Y-123343075D01*
X150019152Y-123291000D01*
X149978075Y-123218332D01*
X149938514Y-123152403D01*
X149916437Y-123118399D01*
X149889459Y-123076821D01*
X149877380Y-123052638D01*
X149877334Y-123052077D01*
X149867328Y-123031411D01*
X149839453Y-122979818D01*
X149796917Y-122903085D01*
X149742930Y-122806995D01*
X149680703Y-122697335D01*
X149673627Y-122684928D01*
X149605346Y-122564904D01*
X149539828Y-122449088D01*
X149481721Y-122345743D01*
X149435672Y-122263136D01*
X149407645Y-122211984D01*
X149372075Y-122147217D01*
X149342850Y-122096578D01*
X149328650Y-122074401D01*
X149310152Y-122045292D01*
X149278967Y-121991514D01*
X149248250Y-121936334D01*
X149211289Y-121869564D01*
X149160583Y-121779027D01*
X149103417Y-121677695D01*
X149057984Y-121597667D01*
X149002447Y-121500003D01*
X148948979Y-121405703D01*
X148904233Y-121326518D01*
X148878192Y-121280167D01*
X148843768Y-121218749D01*
X148807835Y-121155161D01*
X148764402Y-121078853D01*
X148707477Y-120979272D01*
X148688882Y-120946792D01*
X148652773Y-120882826D01*
X148608441Y-120803075D01*
X148579819Y-120751000D01*
X148538742Y-120678332D01*
X148499180Y-120612403D01*
X148477104Y-120578399D01*
X148450106Y-120536593D01*
X148438044Y-120511951D01*
X148438000Y-120511377D01*
X148428182Y-120489697D01*
X148401553Y-120439161D01*
X148362348Y-120367644D01*
X148321584Y-120294973D01*
X148274809Y-120210918D01*
X148237005Y-120140207D01*
X148212444Y-120091010D01*
X148205167Y-120072180D01*
X148225437Y-120067475D01*
X148282660Y-120062794D01*
X148371458Y-120058354D01*
X148486450Y-120054373D01*
X148622257Y-120051067D01*
X148773501Y-120048655D01*
X148792542Y-120048435D01*
X149379917Y-120041917D01*
X149476937Y-119984880D01*
X149577178Y-119911969D01*
X149669930Y-119819625D01*
X149742358Y-119721580D01*
X149767053Y-119674454D01*
X149789452Y-119590980D01*
X149799771Y-119473408D01*
X149800369Y-119428084D01*
X149797408Y-119330523D01*
X149786897Y-119258282D01*
X149765463Y-119194551D01*
X149744733Y-119151011D01*
X149653595Y-119019283D01*
X149526700Y-118909470D01*
X149448120Y-118862005D01*
X149426010Y-118850647D01*
X149403392Y-118841217D01*
X149376254Y-118833506D01*
X149340583Y-118827301D01*
X149292368Y-118822392D01*
X149227597Y-118818567D01*
X149142256Y-118815615D01*
X149032335Y-118813325D01*
X148893821Y-118811485D01*
X148722701Y-118809885D01*
X148514964Y-118808312D01*
X148414745Y-118807602D01*
X147470739Y-118800954D01*
X147428899Y-118722935D01*
X147374038Y-118622499D01*
X147335947Y-118556968D01*
X147316133Y-118528500D01*
X147300146Y-118503912D01*
X147275700Y-118458531D01*
X147273800Y-118454766D01*
X147251001Y-118411970D01*
X147212411Y-118342208D01*
X147163435Y-118255160D01*
X147109792Y-118161053D01*
X147059520Y-118072504D01*
X147017954Y-117997514D01*
X146989145Y-117943524D01*
X146977148Y-117917976D01*
X146977030Y-117917286D01*
X146964910Y-117893006D01*
X146936286Y-117852603D01*
X146935167Y-117851167D01*
X146917567Y-117829141D01*
X146903735Y-117810289D01*
X146896530Y-117794384D01*
X146898813Y-117781199D01*
X146913444Y-117770504D01*
X146943282Y-117762072D01*
X146991188Y-117755676D01*
X147060022Y-117751087D01*
X147152643Y-117748078D01*
X147271913Y-117746420D01*
X147420690Y-117745886D01*
X147601835Y-117746247D01*
G36*
X154544584Y-117755917D02*
G01*
X154544584Y-118793084D01*
X153549750Y-118803667D01*
X152554917Y-118814250D01*
X152554917Y-119851417D01*
X153385709Y-119856954D01*
X154216500Y-119862492D01*
X154216500Y-120899167D01*
X153406875Y-120899491D01*
X153225114Y-120899996D01*
X153056202Y-120901296D01*
X152904927Y-120903290D01*
X152776074Y-120905881D01*
X152674431Y-120908968D01*
X152604785Y-120912452D01*
X152571921Y-120916234D01*
X152570400Y-120916857D01*
X152561592Y-120932169D01*
X152555093Y-120968156D01*
X152550734Y-121028972D01*
X152548348Y-121118771D01*
X152547767Y-121241705D01*
X152548822Y-121401929D01*
X152549233Y-121440408D01*
X152554917Y-121946917D01*
X153549750Y-121957500D01*
X154544584Y-121968084D01*
X154555906Y-123015834D01*
X151486000Y-123015834D01*
X151486000Y-117745055D01*
X154544584Y-117755917D01*
G37*
X154544584Y-117755917D02*
X154544584Y-118793084D01*
X153549750Y-118803667D01*
X152554917Y-118814250D01*
X152554917Y-119851417D01*
X153385709Y-119856954D01*
X154216500Y-119862492D01*
X154216500Y-120899167D01*
X153406875Y-120899491D01*
X153225114Y-120899996D01*
X153056202Y-120901296D01*
X152904927Y-120903290D01*
X152776074Y-120905881D01*
X152674431Y-120908968D01*
X152604785Y-120912452D01*
X152571921Y-120916234D01*
X152570400Y-120916857D01*
X152561592Y-120932169D01*
X152555093Y-120968156D01*
X152550734Y-121028972D01*
X152548348Y-121118771D01*
X152547767Y-121241705D01*
X152548822Y-121401929D01*
X152549233Y-121440408D01*
X152554917Y-121946917D01*
X153549750Y-121957500D01*
X154544584Y-121968084D01*
X154555906Y-123015834D01*
X151486000Y-123015834D01*
X151486000Y-117745055D01*
X154544584Y-117755917D01*
G36*
X156550125Y-117750488D02*
G01*
X158100584Y-117755917D01*
X158100584Y-118793084D01*
X156057262Y-118804074D01*
X156062923Y-119327745D01*
X156068584Y-119851417D01*
X156920542Y-119856949D01*
X157772500Y-119862480D01*
X157772500Y-120898687D01*
X156920542Y-120904218D01*
X156068584Y-120909750D01*
X156058000Y-121957500D01*
X156047417Y-123005250D01*
X155523542Y-123010912D01*
X154999667Y-123016573D01*
X154999667Y-117745059D01*
X156550125Y-117750488D01*
G37*
X156550125Y-117750488D02*
X158100584Y-117755917D01*
X158100584Y-118793084D01*
X156057262Y-118804074D01*
X156062923Y-119327745D01*
X156068584Y-119851417D01*
X156920542Y-119856949D01*
X157772500Y-119862480D01*
X157772500Y-120898687D01*
X156920542Y-120904218D01*
X156068584Y-120909750D01*
X156058000Y-121957500D01*
X156047417Y-123005250D01*
X155523542Y-123010912D01*
X154999667Y-123016573D01*
X154999667Y-117745059D01*
X156550125Y-117750488D01*
G36*
X159619189Y-119845756D02*
G01*
X159624584Y-121946917D01*
X160682917Y-121957500D01*
X161741250Y-121968084D01*
X161746912Y-122491959D01*
X161752573Y-123015834D01*
X160164039Y-123015834D01*
X159854624Y-123015697D01*
X159585172Y-123015260D01*
X159353311Y-123014484D01*
X159156672Y-123013330D01*
X158992883Y-123011758D01*
X158859575Y-123009729D01*
X158754377Y-123007204D01*
X158674918Y-123004144D01*
X158618828Y-123000509D01*
X158583738Y-122996261D01*
X158567275Y-122991359D01*
X158565432Y-122989375D01*
X158564204Y-122965249D01*
X158563106Y-122901379D01*
X158562142Y-122800355D01*
X158561317Y-122664769D01*
X158560636Y-122497208D01*
X158560103Y-122300264D01*
X158559722Y-122076526D01*
X158559498Y-121828584D01*
X158559436Y-121559028D01*
X158559540Y-121270448D01*
X158559815Y-120965433D01*
X158560266Y-120646574D01*
X158560805Y-120359417D01*
X158566250Y-117755917D01*
X159090022Y-117750256D01*
X159613795Y-117744594D01*
X159619189Y-119845756D01*
G37*
X159619189Y-119845756D02*
X159624584Y-121946917D01*
X160682917Y-121957500D01*
X161741250Y-121968084D01*
X161746912Y-122491959D01*
X161752573Y-123015834D01*
X160164039Y-123015834D01*
X159854624Y-123015697D01*
X159585172Y-123015260D01*
X159353311Y-123014484D01*
X159156672Y-123013330D01*
X158992883Y-123011758D01*
X158859575Y-123009729D01*
X158754377Y-123007204D01*
X158674918Y-123004144D01*
X158618828Y-123000509D01*
X158583738Y-122996261D01*
X158567275Y-122991359D01*
X158565432Y-122989375D01*
X158564204Y-122965249D01*
X158563106Y-122901379D01*
X158562142Y-122800355D01*
X158561317Y-122664769D01*
X158560636Y-122497208D01*
X158560103Y-122300264D01*
X158559722Y-122076526D01*
X158559498Y-121828584D01*
X158559436Y-121559028D01*
X158559540Y-121270448D01*
X158559815Y-120965433D01*
X158560266Y-120646574D01*
X158560805Y-120359417D01*
X158566250Y-117755917D01*
X159090022Y-117750256D01*
X159613795Y-117744594D01*
X159619189Y-119845756D01*
G36*
X165265500Y-118803252D02*
G01*
X163265250Y-118814250D01*
X163265250Y-119851417D01*
X164085459Y-119856957D01*
X164905667Y-119862497D01*
X164905667Y-120899167D01*
X164106625Y-120899491D01*
X163926075Y-120900002D01*
X163758391Y-120901318D01*
X163608394Y-120903337D01*
X163480905Y-120905957D01*
X163380745Y-120909078D01*
X163312735Y-120912598D01*
X163281697Y-120916415D01*
X163280733Y-120916857D01*
X163271925Y-120932169D01*
X163265426Y-120968156D01*
X163261067Y-121028972D01*
X163258681Y-121118771D01*
X163258100Y-121241705D01*
X163259156Y-121401929D01*
X163259566Y-121440408D01*
X163265250Y-121946917D01*
X165265500Y-121957915D01*
X165265500Y-123015834D01*
X162196168Y-123015834D01*
X162201542Y-120385875D01*
X162206917Y-117755917D01*
X163736209Y-117750486D01*
X165265500Y-117745055D01*
X165265500Y-118803252D01*
G37*
X165265500Y-118803252D02*
X163265250Y-118814250D01*
X163265250Y-119851417D01*
X164085459Y-119856957D01*
X164905667Y-119862497D01*
X164905667Y-120899167D01*
X164106625Y-120899491D01*
X163926075Y-120900002D01*
X163758391Y-120901318D01*
X163608394Y-120903337D01*
X163480905Y-120905957D01*
X163380745Y-120909078D01*
X163312735Y-120912598D01*
X163281697Y-120916415D01*
X163280733Y-120916857D01*
X163271925Y-120932169D01*
X163265426Y-120968156D01*
X163261067Y-121028972D01*
X163258681Y-121118771D01*
X163258100Y-121241705D01*
X163259156Y-121401929D01*
X163259566Y-121440408D01*
X163265250Y-121946917D01*
X165265500Y-121957915D01*
X165265500Y-123015834D01*
X162196168Y-123015834D01*
X162201542Y-120385875D01*
X162206917Y-117755917D01*
X163736209Y-117750486D01*
X165265500Y-117745055D01*
X165265500Y-118803252D01*
G36*
X159622025Y-116814251D02*
G01*
X160247744Y-116814290D01*
X160870148Y-116814357D01*
X161487811Y-116814453D01*
X162099306Y-116814577D01*
X162703207Y-116814729D01*
X163298087Y-116814909D01*
X163882521Y-116815117D01*
X164455080Y-116815354D01*
X165014340Y-116815618D01*
X165558873Y-116815912D01*
X166087252Y-116816233D01*
X166598053Y-116816583D01*
X167089847Y-116816962D01*
X167561208Y-116817368D01*
X168010710Y-116817804D01*
X168436927Y-116818267D01*
X168838432Y-116818760D01*
X169213798Y-116819281D01*
X169561598Y-116819830D01*
X169880408Y-116820408D01*
X170168799Y-116821015D01*
X170425345Y-116821650D01*
X170648621Y-116822314D01*
X170837198Y-116823007D01*
X170989652Y-116823728D01*
X171104555Y-116824479D01*
X171180481Y-116825258D01*
X171216004Y-116826066D01*
X171218619Y-116826341D01*
X171215743Y-116839577D01*
X171197872Y-116872404D01*
X171163577Y-116926937D01*
X171111427Y-117005292D01*
X171039994Y-117109584D01*
X170947848Y-117241927D01*
X170833558Y-117404437D01*
X170706831Y-117583530D01*
X170653295Y-117659524D01*
X170607522Y-117725410D01*
X170576180Y-117771546D01*
X170567750Y-117784613D01*
X170544340Y-117819097D01*
X170534969Y-117830000D01*
X170515968Y-117853729D01*
X170476022Y-117908397D01*
X170417989Y-117989938D01*
X170344725Y-118094282D01*
X170259089Y-118217362D01*
X170163938Y-118355111D01*
X170072118Y-118488865D01*
X170016871Y-118568850D01*
X169969992Y-118635371D01*
X169936811Y-118680951D01*
X169923139Y-118697834D01*
X169906398Y-118718829D01*
X169868296Y-118771009D01*
X169811449Y-118850672D01*
X169738471Y-118954111D01*
X169651977Y-119077624D01*
X169554581Y-119217505D01*
X169459994Y-119354000D01*
X169400769Y-119438759D01*
X169338117Y-119527034D01*
X169287273Y-119597417D01*
X169185948Y-119737003D01*
X169088535Y-119873757D01*
X168998103Y-120003141D01*
X168917724Y-120120617D01*
X168850468Y-120221647D01*
X168799406Y-120301692D01*
X168767609Y-120356214D01*
X168758000Y-120379617D01*
X168769565Y-120410115D01*
X168801085Y-120466961D01*
X168847797Y-120542135D01*
X168904939Y-120627616D01*
X168907180Y-120630855D01*
X169011570Y-120781191D01*
X169106440Y-120917053D01*
X169188963Y-121034442D01*
X169256313Y-121129355D01*
X169305664Y-121197792D01*
X169334191Y-121235751D01*
X169335886Y-121237834D01*
X169358902Y-121268570D01*
X169398938Y-121324789D01*
X169449242Y-121396946D01*
X169478120Y-121438917D01*
X169529876Y-121514085D01*
X169573655Y-121576919D01*
X169603277Y-121618584D01*
X169611410Y-121629417D01*
X169632236Y-121657225D01*
X169673296Y-121713967D01*
X169730529Y-121793906D01*
X169799874Y-121891309D01*
X169877269Y-122000439D01*
X169958653Y-122115562D01*
X170039966Y-122230943D01*
X170117146Y-122340847D01*
X170186133Y-122439539D01*
X170239667Y-122516651D01*
X170324566Y-122638517D01*
X170399858Y-122744573D01*
X170462325Y-122830421D01*
X170508748Y-122891664D01*
X170535908Y-122923905D01*
X170540512Y-122927639D01*
X170554421Y-122951856D01*
X170557167Y-122975264D01*
X170555585Y-122986804D01*
X170547870Y-122995920D01*
X170529567Y-123002899D01*
X170496221Y-123008025D01*
X170443377Y-123011583D01*
X170366582Y-123013858D01*
X170261380Y-123015134D01*
X170123317Y-123015698D01*
X169947938Y-123015833D01*
X169922912Y-123015834D01*
X169742189Y-123015714D01*
X169599188Y-123015165D01*
X169489295Y-123013901D01*
X169407900Y-123011636D01*
X169350389Y-123008083D01*
X169312150Y-123002956D01*
X169288573Y-122995971D01*
X169275044Y-122986839D01*
X169266951Y-122975276D01*
X169266883Y-122975151D01*
X169235736Y-122927697D01*
X169217725Y-122906359D01*
X169194244Y-122877293D01*
X169153827Y-122822481D01*
X169103259Y-122751240D01*
X169073914Y-122708917D01*
X169002039Y-122604843D01*
X168925428Y-122494705D01*
X168848070Y-122384151D01*
X168773957Y-122278832D01*
X168707079Y-122184396D01*
X168651427Y-122106494D01*
X168610991Y-122050775D01*
X168589762Y-122022889D01*
X168588009Y-122021000D01*
X168571588Y-122000113D01*
X168536935Y-121952138D01*
X168489677Y-121884955D01*
X168451961Y-121830500D01*
X168350826Y-121683688D01*
X168270863Y-121568246D01*
X168209219Y-121480688D01*
X168163038Y-121417529D01*
X168129466Y-121375285D01*
X168105649Y-121350470D01*
X168088732Y-121339599D01*
X168075862Y-121339187D01*
X168064183Y-121345750D01*
X168058494Y-121350098D01*
X168036072Y-121375248D01*
X167994424Y-121429112D01*
X167938177Y-121505433D01*
X167871959Y-121597952D01*
X167815077Y-121679194D01*
X167736053Y-121793063D01*
X167665325Y-121894743D01*
X167597829Y-121991460D01*
X167528501Y-122090437D01*
X167452274Y-122198900D01*
X167364085Y-122324074D01*
X167258869Y-122473183D01*
X167202250Y-122553367D01*
X167119812Y-122670176D01*
X167057988Y-122758010D01*
X167012915Y-122822436D01*
X166980729Y-122869020D01*
X166957567Y-122903327D01*
X166939566Y-122930924D01*
X166932680Y-122941750D01*
X166902805Y-122981819D01*
X166884750Y-122999634D01*
X166858966Y-123003563D01*
X166796268Y-123007149D01*
X166702079Y-123010260D01*
X166581817Y-123012765D01*
X166440903Y-123014531D01*
X166284757Y-123015427D01*
X166231611Y-123015509D01*
X166049985Y-123015389D01*
X165906493Y-123014681D01*
X165796933Y-123013171D01*
X165717109Y-123010647D01*
X165662820Y-123006897D01*
X165629868Y-123001708D01*
X165614053Y-122994867D01*
X165611177Y-122986163D01*
X165611800Y-122984139D01*
X165627994Y-122955743D01*
X165663783Y-122900277D01*
X165714237Y-122825177D01*
X165774423Y-122737876D01*
X165788690Y-122717472D01*
X165851202Y-122627963D01*
X165906131Y-122548678D01*
X165948244Y-122487216D01*
X165972312Y-122451172D01*
X165974584Y-122447542D01*
X165998201Y-122412957D01*
X166007854Y-122402000D01*
X166022924Y-122382319D01*
X166058601Y-122332884D01*
X166111334Y-122258703D01*
X166177570Y-122164786D01*
X166253758Y-122056142D01*
X166300483Y-121989250D01*
X166382823Y-121871353D01*
X166459097Y-121762419D01*
X166525286Y-121668167D01*
X166577369Y-121594315D01*
X166611328Y-121546582D01*
X166620351Y-121534167D01*
X166661794Y-121477338D01*
X166721424Y-121394157D01*
X166793299Y-121293054D01*
X166871474Y-121182459D01*
X166950006Y-121070801D01*
X167022951Y-120966511D01*
X167084364Y-120878018D01*
X167127797Y-120814500D01*
X167173728Y-120748557D01*
X167211884Y-120697850D01*
X167235336Y-120671486D01*
X167237824Y-120669861D01*
X167253933Y-120645515D01*
X167255167Y-120634584D01*
X167265955Y-120603919D01*
X167272274Y-120599306D01*
X167293957Y-120578144D01*
X167328422Y-120533391D01*
X167366996Y-120477800D01*
X167401005Y-120424123D01*
X167421777Y-120385113D01*
X167424500Y-120375469D01*
X167411450Y-120347351D01*
X167386474Y-120315783D01*
X167360090Y-120282980D01*
X167315900Y-120223483D01*
X167259938Y-120145577D01*
X167198240Y-120057549D01*
X167194746Y-120052500D01*
X167115761Y-119938980D01*
X167025104Y-119809750D01*
X166935869Y-119683434D01*
X166882179Y-119608000D01*
X166809539Y-119506153D01*
X166734050Y-119399939D01*
X166665351Y-119302938D01*
X166619290Y-119237584D01*
X166567141Y-119163518D01*
X166498753Y-119066689D01*
X166422423Y-118958831D01*
X166346450Y-118851678D01*
X166334905Y-118835417D01*
X166255826Y-118723852D01*
X166171305Y-118604284D01*
X166091109Y-118490547D01*
X166025007Y-118396478D01*
X166021111Y-118390917D01*
X165950927Y-118290972D01*
X165868304Y-118173699D01*
X165785343Y-118056258D01*
X165735338Y-117985659D01*
X165677260Y-117902813D01*
X165629384Y-117832671D01*
X165596420Y-117782268D01*
X165583079Y-117758640D01*
X165583000Y-117758117D01*
X165603310Y-117754935D01*
X165660812Y-117752041D01*
X165750365Y-117749539D01*
X165866830Y-117747530D01*
X166005065Y-117746117D01*
X166159930Y-117745401D01*
X166226206Y-117745334D01*
X166869413Y-117745334D01*
X167118958Y-118099875D01*
X167197483Y-118211534D01*
X167270279Y-118315227D01*
X167332856Y-118404540D01*
X167380722Y-118473063D01*
X167409384Y-118514382D01*
X167411804Y-118517917D01*
X167445693Y-118566266D01*
X167471137Y-118600281D01*
X167473040Y-118602584D01*
X167491092Y-118626989D01*
X167528197Y-118679289D01*
X167579438Y-118752484D01*
X167639896Y-118839575D01*
X167658959Y-118867167D01*
X167722330Y-118958461D01*
X167779107Y-119039272D01*
X167823993Y-119102128D01*
X167851686Y-119139556D01*
X167855536Y-119144342D01*
X167881194Y-119178023D01*
X167921954Y-119235065D01*
X167969382Y-119303647D01*
X167973435Y-119309608D01*
X168019355Y-119371735D01*
X168059083Y-119415717D01*
X168085084Y-119433393D01*
X168087578Y-119433201D01*
X168107963Y-119413793D01*
X168147172Y-119365796D01*
X168200252Y-119295642D01*
X168262245Y-119209766D01*
X168288266Y-119172686D01*
X168354515Y-119077834D01*
X168415292Y-118991387D01*
X168464987Y-118921285D01*
X168497989Y-118875468D01*
X168504158Y-118867167D01*
X168531920Y-118829124D01*
X168577363Y-118765386D01*
X168634042Y-118685044D01*
X168691752Y-118602584D01*
X168763180Y-118500264D01*
X168848246Y-118378632D01*
X168936234Y-118252999D01*
X169015610Y-118139841D01*
X169080246Y-118047492D01*
X169137311Y-117965394D01*
X169181795Y-117900798D01*
X169208689Y-117860954D01*
X169213084Y-117854091D01*
X169236442Y-117819683D01*
X169245697Y-117808834D01*
X169267122Y-117782908D01*
X169305334Y-117731092D01*
X169355117Y-117661011D01*
X169411252Y-117580288D01*
X169468521Y-117496549D01*
X169521708Y-117417417D01*
X169565593Y-117350519D01*
X169594959Y-117303477D01*
X169604667Y-117284291D01*
X169587695Y-117259299D01*
X169571186Y-117250181D01*
X169548179Y-117249402D01*
X169484061Y-117248635D01*
X169380055Y-117247882D01*
X169237385Y-117247143D01*
X169057271Y-117246420D01*
X168840938Y-117245714D01*
X168589609Y-117245027D01*
X168304504Y-117244360D01*
X167986849Y-117243715D01*
X167637864Y-117243093D01*
X167258773Y-117242494D01*
X166850799Y-117241922D01*
X166415164Y-117241376D01*
X165953092Y-117240859D01*
X165465804Y-117240371D01*
X164954523Y-117239915D01*
X164420473Y-117239491D01*
X163864876Y-117239100D01*
X163288954Y-117238745D01*
X162693931Y-117238426D01*
X162081029Y-117238146D01*
X161451471Y-117237904D01*
X160806479Y-117237703D01*
X160147277Y-117237544D01*
X159475086Y-117237429D01*
X158791131Y-117237358D01*
X158096632Y-117237334D01*
X158079417Y-117237334D01*
X157384675Y-117237310D01*
X156700445Y-117237240D01*
X156027950Y-117237126D01*
X155368413Y-117236968D01*
X154723057Y-117236768D01*
X154093104Y-117236528D01*
X153479778Y-117236248D01*
X152884300Y-117235930D01*
X152307893Y-117235576D01*
X151751781Y-117235186D01*
X151217186Y-117234763D01*
X150705331Y-117234307D01*
X150217437Y-117233820D01*
X149754729Y-117233304D01*
X149318429Y-117232759D01*
X148909760Y-117232187D01*
X148529944Y-117231589D01*
X148180203Y-117230968D01*
X147861762Y-117230323D01*
X147575842Y-117229657D01*
X147323666Y-117228970D01*
X147106457Y-117228265D01*
X146925438Y-117227542D01*
X146781831Y-117226804D01*
X146676859Y-117226050D01*
X146611745Y-117225284D01*
X146587711Y-117224505D01*
X146587648Y-117224486D01*
X146558614Y-117204975D01*
X146554167Y-117195018D01*
X146544401Y-117170343D01*
X146518236Y-117118146D01*
X146480373Y-117047605D01*
X146458917Y-117009024D01*
X146417101Y-116933356D01*
X146384630Y-116872104D01*
X146366176Y-116834208D01*
X146363667Y-116826824D01*
X146384596Y-116826006D01*
X146446431Y-116825215D01*
X146547748Y-116824451D01*
X146687117Y-116823714D01*
X146863115Y-116823005D01*
X147074313Y-116822323D01*
X147319285Y-116821669D01*
X147596605Y-116821042D01*
X147904847Y-116820442D01*
X148242583Y-116819870D01*
X148608388Y-116819326D01*
X149000835Y-116818809D01*
X149418496Y-116818319D01*
X149859947Y-116817857D01*
X150323760Y-116817423D01*
X150808509Y-116817016D01*
X151312768Y-116816637D01*
X151835109Y-116816286D01*
X152374106Y-116815962D01*
X152928333Y-116815666D01*
X153496364Y-116815398D01*
X154076772Y-116815158D01*
X154668129Y-116814945D01*
X155269011Y-116814761D01*
X155877990Y-116814604D01*
X156493640Y-116814475D01*
X157114534Y-116814374D01*
X157739247Y-116814301D01*
X158366350Y-116814257D01*
X158994418Y-116814240D01*
X159622025Y-116814251D01*
G37*
X159622025Y-116814251D02*
X160247744Y-116814290D01*
X160870148Y-116814357D01*
X161487811Y-116814453D01*
X162099306Y-116814577D01*
X162703207Y-116814729D01*
X163298087Y-116814909D01*
X163882521Y-116815117D01*
X164455080Y-116815354D01*
X165014340Y-116815618D01*
X165558873Y-116815912D01*
X166087252Y-116816233D01*
X166598053Y-116816583D01*
X167089847Y-116816962D01*
X167561208Y-116817368D01*
X168010710Y-116817804D01*
X168436927Y-116818267D01*
X168838432Y-116818760D01*
X169213798Y-116819281D01*
X169561598Y-116819830D01*
X169880408Y-116820408D01*
X170168799Y-116821015D01*
X170425345Y-116821650D01*
X170648621Y-116822314D01*
X170837198Y-116823007D01*
X170989652Y-116823728D01*
X171104555Y-116824479D01*
X171180481Y-116825258D01*
X171216004Y-116826066D01*
X171218619Y-116826341D01*
X171215743Y-116839577D01*
X171197872Y-116872404D01*
X171163577Y-116926937D01*
X171111427Y-117005292D01*
X171039994Y-117109584D01*
X170947848Y-117241927D01*
X170833558Y-117404437D01*
X170706831Y-117583530D01*
X170653295Y-117659524D01*
X170607522Y-117725410D01*
X170576180Y-117771546D01*
X170567750Y-117784613D01*
X170544340Y-117819097D01*
X170534969Y-117830000D01*
X170515968Y-117853729D01*
X170476022Y-117908397D01*
X170417989Y-117989938D01*
X170344725Y-118094282D01*
X170259089Y-118217362D01*
X170163938Y-118355111D01*
X170072118Y-118488865D01*
X170016871Y-118568850D01*
X169969992Y-118635371D01*
X169936811Y-118680951D01*
X169923139Y-118697834D01*
X169906398Y-118718829D01*
X169868296Y-118771009D01*
X169811449Y-118850672D01*
X169738471Y-118954111D01*
X169651977Y-119077624D01*
X169554581Y-119217505D01*
X169459994Y-119354000D01*
X169400769Y-119438759D01*
X169338117Y-119527034D01*
X169287273Y-119597417D01*
X169185948Y-119737003D01*
X169088535Y-119873757D01*
X168998103Y-120003141D01*
X168917724Y-120120617D01*
X168850468Y-120221647D01*
X168799406Y-120301692D01*
X168767609Y-120356214D01*
X168758000Y-120379617D01*
X168769565Y-120410115D01*
X168801085Y-120466961D01*
X168847797Y-120542135D01*
X168904939Y-120627616D01*
X168907180Y-120630855D01*
X169011570Y-120781191D01*
X169106440Y-120917053D01*
X169188963Y-121034442D01*
X169256313Y-121129355D01*
X169305664Y-121197792D01*
X169334191Y-121235751D01*
X169335886Y-121237834D01*
X169358902Y-121268570D01*
X169398938Y-121324789D01*
X169449242Y-121396946D01*
X169478120Y-121438917D01*
X169529876Y-121514085D01*
X169573655Y-121576919D01*
X169603277Y-121618584D01*
X169611410Y-121629417D01*
X169632236Y-121657225D01*
X169673296Y-121713967D01*
X169730529Y-121793906D01*
X169799874Y-121891309D01*
X169877269Y-122000439D01*
X169958653Y-122115562D01*
X170039966Y-122230943D01*
X170117146Y-122340847D01*
X170186133Y-122439539D01*
X170239667Y-122516651D01*
X170324566Y-122638517D01*
X170399858Y-122744573D01*
X170462325Y-122830421D01*
X170508748Y-122891664D01*
X170535908Y-122923905D01*
X170540512Y-122927639D01*
X170554421Y-122951856D01*
X170557167Y-122975264D01*
X170555585Y-122986804D01*
X170547870Y-122995920D01*
X170529567Y-123002899D01*
X170496221Y-123008025D01*
X170443377Y-123011583D01*
X170366582Y-123013858D01*
X170261380Y-123015134D01*
X170123317Y-123015698D01*
X169947938Y-123015833D01*
X169922912Y-123015834D01*
X169742189Y-123015714D01*
X169599188Y-123015165D01*
X169489295Y-123013901D01*
X169407900Y-123011636D01*
X169350389Y-123008083D01*
X169312150Y-123002956D01*
X169288573Y-122995971D01*
X169275044Y-122986839D01*
X169266951Y-122975276D01*
X169266883Y-122975151D01*
X169235736Y-122927697D01*
X169217725Y-122906359D01*
X169194244Y-122877293D01*
X169153827Y-122822481D01*
X169103259Y-122751240D01*
X169073914Y-122708917D01*
X169002039Y-122604843D01*
X168925428Y-122494705D01*
X168848070Y-122384151D01*
X168773957Y-122278832D01*
X168707079Y-122184396D01*
X168651427Y-122106494D01*
X168610991Y-122050775D01*
X168589762Y-122022889D01*
X168588009Y-122021000D01*
X168571588Y-122000113D01*
X168536935Y-121952138D01*
X168489677Y-121884955D01*
X168451961Y-121830500D01*
X168350826Y-121683688D01*
X168270863Y-121568246D01*
X168209219Y-121480688D01*
X168163038Y-121417529D01*
X168129466Y-121375285D01*
X168105649Y-121350470D01*
X168088732Y-121339599D01*
X168075862Y-121339187D01*
X168064183Y-121345750D01*
X168058494Y-121350098D01*
X168036072Y-121375248D01*
X167994424Y-121429112D01*
X167938177Y-121505433D01*
X167871959Y-121597952D01*
X167815077Y-121679194D01*
X167736053Y-121793063D01*
X167665325Y-121894743D01*
X167597829Y-121991460D01*
X167528501Y-122090437D01*
X167452274Y-122198900D01*
X167364085Y-122324074D01*
X167258869Y-122473183D01*
X167202250Y-122553367D01*
X167119812Y-122670176D01*
X167057988Y-122758010D01*
X167012915Y-122822436D01*
X166980729Y-122869020D01*
X166957567Y-122903327D01*
X166939566Y-122930924D01*
X166932680Y-122941750D01*
X166902805Y-122981819D01*
X166884750Y-122999634D01*
X166858966Y-123003563D01*
X166796268Y-123007149D01*
X166702079Y-123010260D01*
X166581817Y-123012765D01*
X166440903Y-123014531D01*
X166284757Y-123015427D01*
X166231611Y-123015509D01*
X166049985Y-123015389D01*
X165906493Y-123014681D01*
X165796933Y-123013171D01*
X165717109Y-123010647D01*
X165662820Y-123006897D01*
X165629868Y-123001708D01*
X165614053Y-122994867D01*
X165611177Y-122986163D01*
X165611800Y-122984139D01*
X165627994Y-122955743D01*
X165663783Y-122900277D01*
X165714237Y-122825177D01*
X165774423Y-122737876D01*
X165788690Y-122717472D01*
X165851202Y-122627963D01*
X165906131Y-122548678D01*
X165948244Y-122487216D01*
X165972312Y-122451172D01*
X165974584Y-122447542D01*
X165998201Y-122412957D01*
X166007854Y-122402000D01*
X166022924Y-122382319D01*
X166058601Y-122332884D01*
X166111334Y-122258703D01*
X166177570Y-122164786D01*
X166253758Y-122056142D01*
X166300483Y-121989250D01*
X166382823Y-121871353D01*
X166459097Y-121762419D01*
X166525286Y-121668167D01*
X166577369Y-121594315D01*
X166611328Y-121546582D01*
X166620351Y-121534167D01*
X166661794Y-121477338D01*
X166721424Y-121394157D01*
X166793299Y-121293054D01*
X166871474Y-121182459D01*
X166950006Y-121070801D01*
X167022951Y-120966511D01*
X167084364Y-120878018D01*
X167127797Y-120814500D01*
X167173728Y-120748557D01*
X167211884Y-120697850D01*
X167235336Y-120671486D01*
X167237824Y-120669861D01*
X167253933Y-120645515D01*
X167255167Y-120634584D01*
X167265955Y-120603919D01*
X167272274Y-120599306D01*
X167293957Y-120578144D01*
X167328422Y-120533391D01*
X167366996Y-120477800D01*
X167401005Y-120424123D01*
X167421777Y-120385113D01*
X167424500Y-120375469D01*
X167411450Y-120347351D01*
X167386474Y-120315783D01*
X167360090Y-120282980D01*
X167315900Y-120223483D01*
X167259938Y-120145577D01*
X167198240Y-120057549D01*
X167194746Y-120052500D01*
X167115761Y-119938980D01*
X167025104Y-119809750D01*
X166935869Y-119683434D01*
X166882179Y-119608000D01*
X166809539Y-119506153D01*
X166734050Y-119399939D01*
X166665351Y-119302938D01*
X166619290Y-119237584D01*
X166567141Y-119163518D01*
X166498753Y-119066689D01*
X166422423Y-118958831D01*
X166346450Y-118851678D01*
X166334905Y-118835417D01*
X166255826Y-118723852D01*
X166171305Y-118604284D01*
X166091109Y-118490547D01*
X166025007Y-118396478D01*
X166021111Y-118390917D01*
X165950927Y-118290972D01*
X165868304Y-118173699D01*
X165785343Y-118056258D01*
X165735338Y-117985659D01*
X165677260Y-117902813D01*
X165629384Y-117832671D01*
X165596420Y-117782268D01*
X165583079Y-117758640D01*
X165583000Y-117758117D01*
X165603310Y-117754935D01*
X165660812Y-117752041D01*
X165750365Y-117749539D01*
X165866830Y-117747530D01*
X166005065Y-117746117D01*
X166159930Y-117745401D01*
X166226206Y-117745334D01*
X166869413Y-117745334D01*
X167118958Y-118099875D01*
X167197483Y-118211534D01*
X167270279Y-118315227D01*
X167332856Y-118404540D01*
X167380722Y-118473063D01*
X167409384Y-118514382D01*
X167411804Y-118517917D01*
X167445693Y-118566266D01*
X167471137Y-118600281D01*
X167473040Y-118602584D01*
X167491092Y-118626989D01*
X167528197Y-118679289D01*
X167579438Y-118752484D01*
X167639896Y-118839575D01*
X167658959Y-118867167D01*
X167722330Y-118958461D01*
X167779107Y-119039272D01*
X167823993Y-119102128D01*
X167851686Y-119139556D01*
X167855536Y-119144342D01*
X167881194Y-119178023D01*
X167921954Y-119235065D01*
X167969382Y-119303647D01*
X167973435Y-119309608D01*
X168019355Y-119371735D01*
X168059083Y-119415717D01*
X168085084Y-119433393D01*
X168087578Y-119433201D01*
X168107963Y-119413793D01*
X168147172Y-119365796D01*
X168200252Y-119295642D01*
X168262245Y-119209766D01*
X168288266Y-119172686D01*
X168354515Y-119077834D01*
X168415292Y-118991387D01*
X168464987Y-118921285D01*
X168497989Y-118875468D01*
X168504158Y-118867167D01*
X168531920Y-118829124D01*
X168577363Y-118765386D01*
X168634042Y-118685044D01*
X168691752Y-118602584D01*
X168763180Y-118500264D01*
X168848246Y-118378632D01*
X168936234Y-118252999D01*
X169015610Y-118139841D01*
X169080246Y-118047492D01*
X169137311Y-117965394D01*
X169181795Y-117900798D01*
X169208689Y-117860954D01*
X169213084Y-117854091D01*
X169236442Y-117819683D01*
X169245697Y-117808834D01*
X169267122Y-117782908D01*
X169305334Y-117731092D01*
X169355117Y-117661011D01*
X169411252Y-117580288D01*
X169468521Y-117496549D01*
X169521708Y-117417417D01*
X169565593Y-117350519D01*
X169594959Y-117303477D01*
X169604667Y-117284291D01*
X169587695Y-117259299D01*
X169571186Y-117250181D01*
X169548179Y-117249402D01*
X169484061Y-117248635D01*
X169380055Y-117247882D01*
X169237385Y-117247143D01*
X169057271Y-117246420D01*
X168840938Y-117245714D01*
X168589609Y-117245027D01*
X168304504Y-117244360D01*
X167986849Y-117243715D01*
X167637864Y-117243093D01*
X167258773Y-117242494D01*
X166850799Y-117241922D01*
X166415164Y-117241376D01*
X165953092Y-117240859D01*
X165465804Y-117240371D01*
X164954523Y-117239915D01*
X164420473Y-117239491D01*
X163864876Y-117239100D01*
X163288954Y-117238745D01*
X162693931Y-117238426D01*
X162081029Y-117238146D01*
X161451471Y-117237904D01*
X160806479Y-117237703D01*
X160147277Y-117237544D01*
X159475086Y-117237429D01*
X158791131Y-117237358D01*
X158096632Y-117237334D01*
X158079417Y-117237334D01*
X157384675Y-117237310D01*
X156700445Y-117237240D01*
X156027950Y-117237126D01*
X155368413Y-117236968D01*
X154723057Y-117236768D01*
X154093104Y-117236528D01*
X153479778Y-117236248D01*
X152884300Y-117235930D01*
X152307893Y-117235576D01*
X151751781Y-117235186D01*
X151217186Y-117234763D01*
X150705331Y-117234307D01*
X150217437Y-117233820D01*
X149754729Y-117233304D01*
X149318429Y-117232759D01*
X148909760Y-117232187D01*
X148529944Y-117231589D01*
X148180203Y-117230968D01*
X147861762Y-117230323D01*
X147575842Y-117229657D01*
X147323666Y-117228970D01*
X147106457Y-117228265D01*
X146925438Y-117227542D01*
X146781831Y-117226804D01*
X146676859Y-117226050D01*
X146611745Y-117225284D01*
X146587711Y-117224505D01*
X146587648Y-117224486D01*
X146558614Y-117204975D01*
X146554167Y-117195018D01*
X146544401Y-117170343D01*
X146518236Y-117118146D01*
X146480373Y-117047605D01*
X146458917Y-117009024D01*
X146417101Y-116933356D01*
X146384630Y-116872104D01*
X146366176Y-116834208D01*
X146363667Y-116826824D01*
X146384596Y-116826006D01*
X146446431Y-116825215D01*
X146547748Y-116824451D01*
X146687117Y-116823714D01*
X146863115Y-116823005D01*
X147074313Y-116822323D01*
X147319285Y-116821669D01*
X147596605Y-116821042D01*
X147904847Y-116820442D01*
X148242583Y-116819870D01*
X148608388Y-116819326D01*
X149000835Y-116818809D01*
X149418496Y-116818319D01*
X149859947Y-116817857D01*
X150323760Y-116817423D01*
X150808509Y-116817016D01*
X151312768Y-116816637D01*
X151835109Y-116816286D01*
X152374106Y-116815962D01*
X152928333Y-116815666D01*
X153496364Y-116815398D01*
X154076772Y-116815158D01*
X154668129Y-116814945D01*
X155269011Y-116814761D01*
X155877990Y-116814604D01*
X156493640Y-116814475D01*
X157114534Y-116814374D01*
X157739247Y-116814301D01*
X158366350Y-116814257D01*
X158994418Y-116814240D01*
X159622025Y-116814251D01*
G36*
X140199576Y-89187077D02*
G01*
X140284908Y-89227442D01*
X140315911Y-89254645D01*
X140333286Y-89278966D01*
X140371057Y-89336542D01*
X140427475Y-89424549D01*
X140500792Y-89540163D01*
X140589260Y-89680559D01*
X140691129Y-89842913D01*
X140804652Y-90024401D01*
X140928079Y-90222199D01*
X141059662Y-90433481D01*
X141197653Y-90655424D01*
X141340304Y-90885204D01*
X141485864Y-91119996D01*
X141632587Y-91356976D01*
X141778723Y-91593319D01*
X141922523Y-91826202D01*
X142062241Y-92052800D01*
X142196125Y-92270289D01*
X142322430Y-92475844D01*
X142439404Y-92666641D01*
X142545301Y-92839856D01*
X142638372Y-92992665D01*
X142716867Y-93122243D01*
X142779039Y-93225765D01*
X142823139Y-93300409D01*
X142847419Y-93343349D01*
X142848266Y-93344968D01*
X142887193Y-93440650D01*
X142892499Y-93519229D01*
X142863753Y-93589885D01*
X142834975Y-93626797D01*
X142773214Y-93695923D01*
X140183850Y-93701362D01*
X139797923Y-93702147D01*
X139452065Y-93702774D01*
X139144011Y-93703216D01*
X138871497Y-93703447D01*
X138632258Y-93703439D01*
X138424030Y-93703166D01*
X138244549Y-93702600D01*
X138091550Y-93701715D01*
X137962768Y-93700482D01*
X137855940Y-93698877D01*
X137768801Y-93696871D01*
X137699085Y-93694437D01*
X137644530Y-93691549D01*
X137602870Y-93688179D01*
X137571841Y-93684301D01*
X137549179Y-93679887D01*
X137532619Y-93674910D01*
X137520426Y-93669612D01*
X137444288Y-93612484D01*
X137405936Y-93538291D01*
X137406950Y-93450449D01*
X137411389Y-93433605D01*
X137425363Y-93405722D01*
X137460168Y-93344212D01*
X137514366Y-93251455D01*
X137586522Y-93129826D01*
X137675198Y-92981703D01*
X137778958Y-92809464D01*
X137896364Y-92615486D01*
X138025981Y-92402147D01*
X138166370Y-92171824D01*
X138316095Y-91926894D01*
X138473719Y-91669736D01*
X138637806Y-91402726D01*
X138692136Y-91314465D01*
X138899817Y-90977524D01*
X139086494Y-90675317D01*
X139253103Y-90406372D01*
X139400578Y-90169218D01*
X139529855Y-89962382D01*
X139641867Y-89784394D01*
X139737551Y-89633782D01*
X139817840Y-89509074D01*
X139883671Y-89408798D01*
X139935977Y-89331483D01*
X139975694Y-89275657D01*
X140003756Y-89239849D01*
X140021018Y-89222642D01*
X140108568Y-89185146D01*
X140199576Y-89187077D01*
G37*
X140199576Y-89187077D02*
X140284908Y-89227442D01*
X140315911Y-89254645D01*
X140333286Y-89278966D01*
X140371057Y-89336542D01*
X140427475Y-89424549D01*
X140500792Y-89540163D01*
X140589260Y-89680559D01*
X140691129Y-89842913D01*
X140804652Y-90024401D01*
X140928079Y-90222199D01*
X141059662Y-90433481D01*
X141197653Y-90655424D01*
X141340304Y-90885204D01*
X141485864Y-91119996D01*
X141632587Y-91356976D01*
X141778723Y-91593319D01*
X141922523Y-91826202D01*
X142062241Y-92052800D01*
X142196125Y-92270289D01*
X142322430Y-92475844D01*
X142439404Y-92666641D01*
X142545301Y-92839856D01*
X142638372Y-92992665D01*
X142716867Y-93122243D01*
X142779039Y-93225765D01*
X142823139Y-93300409D01*
X142847419Y-93343349D01*
X142848266Y-93344968D01*
X142887193Y-93440650D01*
X142892499Y-93519229D01*
X142863753Y-93589885D01*
X142834975Y-93626797D01*
X142773214Y-93695923D01*
X140183850Y-93701362D01*
X139797923Y-93702147D01*
X139452065Y-93702774D01*
X139144011Y-93703216D01*
X138871497Y-93703447D01*
X138632258Y-93703439D01*
X138424030Y-93703166D01*
X138244549Y-93702600D01*
X138091550Y-93701715D01*
X137962768Y-93700482D01*
X137855940Y-93698877D01*
X137768801Y-93696871D01*
X137699085Y-93694437D01*
X137644530Y-93691549D01*
X137602870Y-93688179D01*
X137571841Y-93684301D01*
X137549179Y-93679887D01*
X137532619Y-93674910D01*
X137520426Y-93669612D01*
X137444288Y-93612484D01*
X137405936Y-93538291D01*
X137406950Y-93450449D01*
X137411389Y-93433605D01*
X137425363Y-93405722D01*
X137460168Y-93344212D01*
X137514366Y-93251455D01*
X137586522Y-93129826D01*
X137675198Y-92981703D01*
X137778958Y-92809464D01*
X137896364Y-92615486D01*
X138025981Y-92402147D01*
X138166370Y-92171824D01*
X138316095Y-91926894D01*
X138473719Y-91669736D01*
X138637806Y-91402726D01*
X138692136Y-91314465D01*
X138899817Y-90977524D01*
X139086494Y-90675317D01*
X139253103Y-90406372D01*
X139400578Y-90169218D01*
X139529855Y-89962382D01*
X139641867Y-89784394D01*
X139737551Y-89633782D01*
X139817840Y-89509074D01*
X139883671Y-89408798D01*
X139935977Y-89331483D01*
X139975694Y-89275657D01*
X140003756Y-89239849D01*
X140021018Y-89222642D01*
X140108568Y-89185146D01*
X140199576Y-89187077D01*
G36*
X127632244Y-89197537D02*
G01*
X127718194Y-89256658D01*
X127739839Y-89284643D01*
X127781421Y-89345744D01*
X127841222Y-89437161D01*
X127917525Y-89556091D01*
X128008612Y-89699732D01*
X128112766Y-89865284D01*
X128228269Y-90049944D01*
X128353405Y-90250911D01*
X128486454Y-90465384D01*
X128625701Y-90690559D01*
X128769428Y-90923637D01*
X128915916Y-91161814D01*
X129063449Y-91402291D01*
X129210310Y-91642264D01*
X129354780Y-91878932D01*
X129495142Y-92109493D01*
X129629679Y-92331147D01*
X129756673Y-92541091D01*
X129874408Y-92736523D01*
X129981164Y-92914642D01*
X130075226Y-93072646D01*
X130154875Y-93207734D01*
X130218394Y-93317104D01*
X130264065Y-93397954D01*
X130290172Y-93447483D01*
X130295827Y-93461495D01*
X130293353Y-93544574D01*
X130271875Y-93591447D01*
X130261265Y-93608360D01*
X130251287Y-93623532D01*
X130239706Y-93637057D01*
X130224283Y-93649029D01*
X130202781Y-93659543D01*
X130172964Y-93668693D01*
X130132594Y-93676574D01*
X130079433Y-93683280D01*
X130011245Y-93688905D01*
X129925791Y-93693545D01*
X129820836Y-93697293D01*
X129694141Y-93700243D01*
X129543469Y-93702491D01*
X129366584Y-93704130D01*
X129161247Y-93705255D01*
X128925222Y-93705960D01*
X128656271Y-93706341D01*
X128352157Y-93706491D01*
X128010642Y-93706504D01*
X127629490Y-93706475D01*
X127546290Y-93706473D01*
X127163602Y-93706440D01*
X126820965Y-93706329D01*
X126516097Y-93706109D01*
X126246715Y-93705747D01*
X126010537Y-93705210D01*
X125805281Y-93704467D01*
X125628664Y-93703485D01*
X125478404Y-93702232D01*
X125352219Y-93700676D01*
X125247826Y-93698784D01*
X125162943Y-93696525D01*
X125095289Y-93693865D01*
X125042579Y-93690772D01*
X125002533Y-93687215D01*
X124972868Y-93683162D01*
X124951301Y-93678578D01*
X124935550Y-93673434D01*
X124926664Y-93669431D01*
X124847473Y-93612481D01*
X124808013Y-93541026D01*
X124808137Y-93454769D01*
X124812290Y-93437873D01*
X124826203Y-93409548D01*
X124860757Y-93348103D01*
X124914218Y-93256357D01*
X124984854Y-93137130D01*
X125070932Y-92993240D01*
X125170720Y-92827507D01*
X125282485Y-92642749D01*
X125404495Y-92441786D01*
X125535018Y-92227437D01*
X125672320Y-92002520D01*
X125814670Y-91769855D01*
X125960335Y-91532261D01*
X126107583Y-91292557D01*
X126254680Y-91053562D01*
X126399895Y-90818095D01*
X126541495Y-90588974D01*
X126677748Y-90369020D01*
X126806920Y-90161051D01*
X126927280Y-89967886D01*
X127037096Y-89792344D01*
X127134634Y-89637245D01*
X127218162Y-89505406D01*
X127285947Y-89399649D01*
X127336258Y-89322790D01*
X127367362Y-89277650D01*
X127374750Y-89268305D01*
X127456910Y-89202964D01*
X127543770Y-89179340D01*
X127632244Y-89197537D01*
G37*
X127632244Y-89197537D02*
X127718194Y-89256658D01*
X127739839Y-89284643D01*
X127781421Y-89345744D01*
X127841222Y-89437161D01*
X127917525Y-89556091D01*
X128008612Y-89699732D01*
X128112766Y-89865284D01*
X128228269Y-90049944D01*
X128353405Y-90250911D01*
X128486454Y-90465384D01*
X128625701Y-90690559D01*
X128769428Y-90923637D01*
X128915916Y-91161814D01*
X129063449Y-91402291D01*
X129210310Y-91642264D01*
X129354780Y-91878932D01*
X129495142Y-92109493D01*
X129629679Y-92331147D01*
X129756673Y-92541091D01*
X129874408Y-92736523D01*
X129981164Y-92914642D01*
X130075226Y-93072646D01*
X130154875Y-93207734D01*
X130218394Y-93317104D01*
X130264065Y-93397954D01*
X130290172Y-93447483D01*
X130295827Y-93461495D01*
X130293353Y-93544574D01*
X130271875Y-93591447D01*
X130261265Y-93608360D01*
X130251287Y-93623532D01*
X130239706Y-93637057D01*
X130224283Y-93649029D01*
X130202781Y-93659543D01*
X130172964Y-93668693D01*
X130132594Y-93676574D01*
X130079433Y-93683280D01*
X130011245Y-93688905D01*
X129925791Y-93693545D01*
X129820836Y-93697293D01*
X129694141Y-93700243D01*
X129543469Y-93702491D01*
X129366584Y-93704130D01*
X129161247Y-93705255D01*
X128925222Y-93705960D01*
X128656271Y-93706341D01*
X128352157Y-93706491D01*
X128010642Y-93706504D01*
X127629490Y-93706475D01*
X127546290Y-93706473D01*
X127163602Y-93706440D01*
X126820965Y-93706329D01*
X126516097Y-93706109D01*
X126246715Y-93705747D01*
X126010537Y-93705210D01*
X125805281Y-93704467D01*
X125628664Y-93703485D01*
X125478404Y-93702232D01*
X125352219Y-93700676D01*
X125247826Y-93698784D01*
X125162943Y-93696525D01*
X125095289Y-93693865D01*
X125042579Y-93690772D01*
X125002533Y-93687215D01*
X124972868Y-93683162D01*
X124951301Y-93678578D01*
X124935550Y-93673434D01*
X124926664Y-93669431D01*
X124847473Y-93612481D01*
X124808013Y-93541026D01*
X124808137Y-93454769D01*
X124812290Y-93437873D01*
X124826203Y-93409548D01*
X124860757Y-93348103D01*
X124914218Y-93256357D01*
X124984854Y-93137130D01*
X125070932Y-92993240D01*
X125170720Y-92827507D01*
X125282485Y-92642749D01*
X125404495Y-92441786D01*
X125535018Y-92227437D01*
X125672320Y-92002520D01*
X125814670Y-91769855D01*
X125960335Y-91532261D01*
X126107583Y-91292557D01*
X126254680Y-91053562D01*
X126399895Y-90818095D01*
X126541495Y-90588974D01*
X126677748Y-90369020D01*
X126806920Y-90161051D01*
X126927280Y-89967886D01*
X127037096Y-89792344D01*
X127134634Y-89637245D01*
X127218162Y-89505406D01*
X127285947Y-89399649D01*
X127336258Y-89322790D01*
X127367362Y-89277650D01*
X127374750Y-89268305D01*
X127456910Y-89202964D01*
X127543770Y-89179340D01*
X127632244Y-89197537D01*
G36*
X142569156Y-85241140D02*
G01*
X142811641Y-85241692D01*
X143023576Y-85242692D01*
X143207317Y-85244236D01*
X143365221Y-85246421D01*
X143499645Y-85249344D01*
X143612944Y-85253102D01*
X143707476Y-85257792D01*
X143785598Y-85263511D01*
X143849665Y-85270356D01*
X143902034Y-85278424D01*
X143945063Y-85287811D01*
X143981108Y-85298615D01*
X144012524Y-85310933D01*
X144041670Y-85324861D01*
X144070900Y-85340497D01*
X144102573Y-85357937D01*
X144104569Y-85359025D01*
X144179587Y-85407749D01*
X144257264Y-85470076D01*
X144290152Y-85501203D01*
X144310650Y-85528854D01*
X144352461Y-85591349D01*
X144414796Y-85687425D01*
X144496869Y-85815821D01*
X144597890Y-85975272D01*
X144717072Y-86164517D01*
X144853628Y-86382294D01*
X145006768Y-86627339D01*
X145175706Y-86898391D01*
X145359653Y-87194186D01*
X145557821Y-87513463D01*
X145769423Y-87854958D01*
X145993670Y-88217410D01*
X146229775Y-88599555D01*
X146476949Y-89000132D01*
X146722833Y-89399089D01*
X146950323Y-89768432D01*
X147172346Y-90128945D01*
X147387845Y-90478911D01*
X147595765Y-90816613D01*
X147795049Y-91140334D01*
X147984641Y-91448357D01*
X148163483Y-91738963D01*
X148330519Y-92010437D01*
X148484694Y-92261059D01*
X148624950Y-92489114D01*
X148750232Y-92692884D01*
X148859482Y-92870651D01*
X148951644Y-93020698D01*
X149025662Y-93141308D01*
X149080480Y-93230763D01*
X149115040Y-93287347D01*
X149127675Y-93308272D01*
X149171141Y-93410014D01*
X149182843Y-93506516D01*
X149163123Y-93589799D01*
X149112896Y-93651459D01*
X149053139Y-93695923D01*
X146467062Y-93700205D01*
X146081756Y-93700822D01*
X145736466Y-93701308D01*
X145428874Y-93701634D01*
X145156663Y-93701768D01*
X144917516Y-93701681D01*
X144709115Y-93701342D01*
X144529143Y-93700721D01*
X144375282Y-93699788D01*
X144245215Y-93698512D01*
X144136625Y-93696864D01*
X144047195Y-93694813D01*
X143974606Y-93692329D01*
X143916541Y-93689381D01*
X143870684Y-93685939D01*
X143834717Y-93681974D01*
X143806321Y-93677454D01*
X143783181Y-93672350D01*
X143762978Y-93666632D01*
X143757285Y-93664837D01*
X143640183Y-93616856D01*
X143524950Y-93551479D01*
X143424984Y-93477344D01*
X143355766Y-93405892D01*
X143333947Y-93373647D01*
X143291679Y-93307892D01*
X143230196Y-93210642D01*
X143150734Y-93083909D01*
X143054530Y-92929707D01*
X142942820Y-92750051D01*
X142816839Y-92546953D01*
X142677823Y-92322428D01*
X142527008Y-92078488D01*
X142365631Y-91817149D01*
X142194928Y-91540423D01*
X142016133Y-91250324D01*
X141830484Y-90948866D01*
X141639216Y-90638063D01*
X141443566Y-90319928D01*
X141244768Y-89996474D01*
X141044060Y-89669717D01*
X140842677Y-89341668D01*
X140641855Y-89014343D01*
X140442830Y-88689754D01*
X140246838Y-88369916D01*
X140055116Y-88056842D01*
X139868898Y-87752545D01*
X139689422Y-87459040D01*
X139517922Y-87178340D01*
X139355635Y-86912459D01*
X139203798Y-86663410D01*
X139063645Y-86433208D01*
X138936413Y-86223865D01*
X138823338Y-86037396D01*
X138725656Y-85875814D01*
X138644602Y-85741133D01*
X138581414Y-85635367D01*
X138537326Y-85560529D01*
X138513575Y-85518633D01*
X138509652Y-85510462D01*
X138505568Y-85420751D01*
X138539285Y-85344192D01*
X138606745Y-85287598D01*
X138653764Y-85268337D01*
X138678484Y-85264243D01*
X138725231Y-85260551D01*
X138795671Y-85257244D01*
X138891473Y-85254304D01*
X139014302Y-85251714D01*
X139165827Y-85249456D01*
X139347713Y-85247514D01*
X139561629Y-85245870D01*
X139809241Y-85244507D01*
X140092217Y-85243408D01*
X140412222Y-85242555D01*
X140770925Y-85241931D01*
X141169993Y-85241519D01*
X141246580Y-85241466D01*
X141634833Y-85241198D01*
X141983108Y-85240990D01*
X142293764Y-85240938D01*
X142569156Y-85241140D01*
G37*
X142569156Y-85241140D02*
X142811641Y-85241692D01*
X143023576Y-85242692D01*
X143207317Y-85244236D01*
X143365221Y-85246421D01*
X143499645Y-85249344D01*
X143612944Y-85253102D01*
X143707476Y-85257792D01*
X143785598Y-85263511D01*
X143849665Y-85270356D01*
X143902034Y-85278424D01*
X143945063Y-85287811D01*
X143981108Y-85298615D01*
X144012524Y-85310933D01*
X144041670Y-85324861D01*
X144070900Y-85340497D01*
X144102573Y-85357937D01*
X144104569Y-85359025D01*
X144179587Y-85407749D01*
X144257264Y-85470076D01*
X144290152Y-85501203D01*
X144310650Y-85528854D01*
X144352461Y-85591349D01*
X144414796Y-85687425D01*
X144496869Y-85815821D01*
X144597890Y-85975272D01*
X144717072Y-86164517D01*
X144853628Y-86382294D01*
X145006768Y-86627339D01*
X145175706Y-86898391D01*
X145359653Y-87194186D01*
X145557821Y-87513463D01*
X145769423Y-87854958D01*
X145993670Y-88217410D01*
X146229775Y-88599555D01*
X146476949Y-89000132D01*
X146722833Y-89399089D01*
X146950323Y-89768432D01*
X147172346Y-90128945D01*
X147387845Y-90478911D01*
X147595765Y-90816613D01*
X147795049Y-91140334D01*
X147984641Y-91448357D01*
X148163483Y-91738963D01*
X148330519Y-92010437D01*
X148484694Y-92261059D01*
X148624950Y-92489114D01*
X148750232Y-92692884D01*
X148859482Y-92870651D01*
X148951644Y-93020698D01*
X149025662Y-93141308D01*
X149080480Y-93230763D01*
X149115040Y-93287347D01*
X149127675Y-93308272D01*
X149171141Y-93410014D01*
X149182843Y-93506516D01*
X149163123Y-93589799D01*
X149112896Y-93651459D01*
X149053139Y-93695923D01*
X146467062Y-93700205D01*
X146081756Y-93700822D01*
X145736466Y-93701308D01*
X145428874Y-93701634D01*
X145156663Y-93701768D01*
X144917516Y-93701681D01*
X144709115Y-93701342D01*
X144529143Y-93700721D01*
X144375282Y-93699788D01*
X144245215Y-93698512D01*
X144136625Y-93696864D01*
X144047195Y-93694813D01*
X143974606Y-93692329D01*
X143916541Y-93689381D01*
X143870684Y-93685939D01*
X143834717Y-93681974D01*
X143806321Y-93677454D01*
X143783181Y-93672350D01*
X143762978Y-93666632D01*
X143757285Y-93664837D01*
X143640183Y-93616856D01*
X143524950Y-93551479D01*
X143424984Y-93477344D01*
X143355766Y-93405892D01*
X143333947Y-93373647D01*
X143291679Y-93307892D01*
X143230196Y-93210642D01*
X143150734Y-93083909D01*
X143054530Y-92929707D01*
X142942820Y-92750051D01*
X142816839Y-92546953D01*
X142677823Y-92322428D01*
X142527008Y-92078488D01*
X142365631Y-91817149D01*
X142194928Y-91540423D01*
X142016133Y-91250324D01*
X141830484Y-90948866D01*
X141639216Y-90638063D01*
X141443566Y-90319928D01*
X141244768Y-89996474D01*
X141044060Y-89669717D01*
X140842677Y-89341668D01*
X140641855Y-89014343D01*
X140442830Y-88689754D01*
X140246838Y-88369916D01*
X140055116Y-88056842D01*
X139868898Y-87752545D01*
X139689422Y-87459040D01*
X139517922Y-87178340D01*
X139355635Y-86912459D01*
X139203798Y-86663410D01*
X139063645Y-86433208D01*
X138936413Y-86223865D01*
X138823338Y-86037396D01*
X138725656Y-85875814D01*
X138644602Y-85741133D01*
X138581414Y-85635367D01*
X138537326Y-85560529D01*
X138513575Y-85518633D01*
X138509652Y-85510462D01*
X138505568Y-85420751D01*
X138539285Y-85344192D01*
X138606745Y-85287598D01*
X138653764Y-85268337D01*
X138678484Y-85264243D01*
X138725231Y-85260551D01*
X138795671Y-85257244D01*
X138891473Y-85254304D01*
X139014302Y-85251714D01*
X139165827Y-85249456D01*
X139347713Y-85247514D01*
X139561629Y-85245870D01*
X139809241Y-85244507D01*
X140092217Y-85243408D01*
X140412222Y-85242555D01*
X140770925Y-85241931D01*
X141169993Y-85241519D01*
X141246580Y-85241466D01*
X141634833Y-85241198D01*
X141983108Y-85240990D01*
X142293764Y-85240938D01*
X142569156Y-85241140D01*
G36*
X136979923Y-85242997D02*
G01*
X137085782Y-85244592D01*
X137266343Y-85248650D01*
X137411205Y-85254778D01*
X137526997Y-85264512D01*
X137620351Y-85279393D01*
X137697896Y-85300957D01*
X137766263Y-85330743D01*
X137832083Y-85370290D01*
X137901986Y-85421135D01*
X137925473Y-85439393D01*
X137948428Y-85458594D01*
X137972335Y-85481730D01*
X137998860Y-85511338D01*
X138029670Y-85549958D01*
X138066430Y-85600127D01*
X138110808Y-85664382D01*
X138164469Y-85745263D01*
X138229081Y-85845306D01*
X138306310Y-85967051D01*
X138397823Y-86113036D01*
X138505285Y-86285797D01*
X138630364Y-86487874D01*
X138774725Y-86721804D01*
X138884761Y-86900374D01*
X139047490Y-87164721D01*
X139189354Y-87395753D01*
X139311784Y-87596140D01*
X139416209Y-87768556D01*
X139504057Y-87915673D01*
X139576758Y-88040163D01*
X139635741Y-88144699D01*
X139682434Y-88231952D01*
X139718268Y-88304596D01*
X139744670Y-88365301D01*
X139763071Y-88416741D01*
X139774898Y-88461587D01*
X139781582Y-88502513D01*
X139784552Y-88542189D01*
X139785235Y-88583289D01*
X139785236Y-88584173D01*
X139784724Y-88621882D01*
X139782310Y-88658318D01*
X139776680Y-88695893D01*
X139766515Y-88737018D01*
X139750501Y-88784103D01*
X139727322Y-88839561D01*
X139695660Y-88905802D01*
X139654200Y-88985237D01*
X139601625Y-89080278D01*
X139536620Y-89193337D01*
X139457868Y-89326823D01*
X139364054Y-89483149D01*
X139253860Y-89664725D01*
X139125972Y-89873963D01*
X138979072Y-90113275D01*
X138811845Y-90385071D01*
X138727121Y-90522661D01*
X138511459Y-90872847D01*
X138316872Y-91188780D01*
X138142224Y-91472249D01*
X137986382Y-91725043D01*
X137848213Y-91948949D01*
X137726583Y-92145756D01*
X137620358Y-92317253D01*
X137528405Y-92465227D01*
X137449590Y-92591468D01*
X137382779Y-92697764D01*
X137326839Y-92785903D01*
X137280637Y-92857673D01*
X137243038Y-92914864D01*
X137212909Y-92959263D01*
X137189116Y-92992659D01*
X137170526Y-93016840D01*
X137156006Y-93033595D01*
X137144421Y-93044712D01*
X137134637Y-93051980D01*
X137125522Y-93057187D01*
X137118187Y-93060947D01*
X137020892Y-93091316D01*
X136927671Y-93082947D01*
X136846482Y-93036607D01*
X136844127Y-93034464D01*
X136826986Y-93011037D01*
X136789421Y-92954335D01*
X136733167Y-92867154D01*
X136659957Y-92752290D01*
X136571526Y-92612537D01*
X136469608Y-92450694D01*
X136355937Y-92269554D01*
X136232248Y-92071914D01*
X136100275Y-91860571D01*
X135961753Y-91638319D01*
X135818415Y-91407955D01*
X135671997Y-91172274D01*
X135524231Y-90934073D01*
X135376853Y-90696147D01*
X135231597Y-90461292D01*
X135090197Y-90232304D01*
X134954388Y-90011980D01*
X134825903Y-89803113D01*
X134706478Y-89608502D01*
X134597846Y-89430941D01*
X134501741Y-89273226D01*
X134419899Y-89138154D01*
X134354053Y-89028519D01*
X134305937Y-88947119D01*
X134277287Y-88896748D01*
X134276145Y-88894624D01*
X134254031Y-88847063D01*
X134239993Y-88796819D01*
X134232318Y-88732609D01*
X134229291Y-88643151D01*
X134228986Y-88584173D01*
X134230188Y-88478675D01*
X134235027Y-88403887D01*
X134245354Y-88348224D01*
X134263019Y-88300099D01*
X134279684Y-88266673D01*
X134299050Y-88233067D01*
X134338721Y-88166563D01*
X134396787Y-88070298D01*
X134471336Y-87947407D01*
X134560455Y-87801028D01*
X134662234Y-87634296D01*
X134774761Y-87450349D01*
X134896124Y-87252322D01*
X135024411Y-87043353D01*
X135124683Y-86880256D01*
X135285896Y-86618433D01*
X135426894Y-86390227D01*
X135549492Y-86193106D01*
X135655507Y-86024539D01*
X135746756Y-85881996D01*
X135825055Y-85762944D01*
X135892220Y-85664852D01*
X135950068Y-85585190D01*
X136000415Y-85521426D01*
X136045079Y-85471028D01*
X136085876Y-85431467D01*
X136124621Y-85400209D01*
X136163133Y-85374724D01*
X136203226Y-85352481D01*
X136231104Y-85338510D01*
X136301908Y-85307082D01*
X136374402Y-85282721D01*
X136454805Y-85264743D01*
X136549339Y-85252466D01*
X136664222Y-85245205D01*
X136805677Y-85242276D01*
X136979923Y-85242997D01*
G37*
X136979923Y-85242997D02*
X137085782Y-85244592D01*
X137266343Y-85248650D01*
X137411205Y-85254778D01*
X137526997Y-85264512D01*
X137620351Y-85279393D01*
X137697896Y-85300957D01*
X137766263Y-85330743D01*
X137832083Y-85370290D01*
X137901986Y-85421135D01*
X137925473Y-85439393D01*
X137948428Y-85458594D01*
X137972335Y-85481730D01*
X137998860Y-85511338D01*
X138029670Y-85549958D01*
X138066430Y-85600127D01*
X138110808Y-85664382D01*
X138164469Y-85745263D01*
X138229081Y-85845306D01*
X138306310Y-85967051D01*
X138397823Y-86113036D01*
X138505285Y-86285797D01*
X138630364Y-86487874D01*
X138774725Y-86721804D01*
X138884761Y-86900374D01*
X139047490Y-87164721D01*
X139189354Y-87395753D01*
X139311784Y-87596140D01*
X139416209Y-87768556D01*
X139504057Y-87915673D01*
X139576758Y-88040163D01*
X139635741Y-88144699D01*
X139682434Y-88231952D01*
X139718268Y-88304596D01*
X139744670Y-88365301D01*
X139763071Y-88416741D01*
X139774898Y-88461587D01*
X139781582Y-88502513D01*
X139784552Y-88542189D01*
X139785235Y-88583289D01*
X139785236Y-88584173D01*
X139784724Y-88621882D01*
X139782310Y-88658318D01*
X139776680Y-88695893D01*
X139766515Y-88737018D01*
X139750501Y-88784103D01*
X139727322Y-88839561D01*
X139695660Y-88905802D01*
X139654200Y-88985237D01*
X139601625Y-89080278D01*
X139536620Y-89193337D01*
X139457868Y-89326823D01*
X139364054Y-89483149D01*
X139253860Y-89664725D01*
X139125972Y-89873963D01*
X138979072Y-90113275D01*
X138811845Y-90385071D01*
X138727121Y-90522661D01*
X138511459Y-90872847D01*
X138316872Y-91188780D01*
X138142224Y-91472249D01*
X137986382Y-91725043D01*
X137848213Y-91948949D01*
X137726583Y-92145756D01*
X137620358Y-92317253D01*
X137528405Y-92465227D01*
X137449590Y-92591468D01*
X137382779Y-92697764D01*
X137326839Y-92785903D01*
X137280637Y-92857673D01*
X137243038Y-92914864D01*
X137212909Y-92959263D01*
X137189116Y-92992659D01*
X137170526Y-93016840D01*
X137156006Y-93033595D01*
X137144421Y-93044712D01*
X137134637Y-93051980D01*
X137125522Y-93057187D01*
X137118187Y-93060947D01*
X137020892Y-93091316D01*
X136927671Y-93082947D01*
X136846482Y-93036607D01*
X136844127Y-93034464D01*
X136826986Y-93011037D01*
X136789421Y-92954335D01*
X136733167Y-92867154D01*
X136659957Y-92752290D01*
X136571526Y-92612537D01*
X136469608Y-92450694D01*
X136355937Y-92269554D01*
X136232248Y-92071914D01*
X136100275Y-91860571D01*
X135961753Y-91638319D01*
X135818415Y-91407955D01*
X135671997Y-91172274D01*
X135524231Y-90934073D01*
X135376853Y-90696147D01*
X135231597Y-90461292D01*
X135090197Y-90232304D01*
X134954388Y-90011980D01*
X134825903Y-89803113D01*
X134706478Y-89608502D01*
X134597846Y-89430941D01*
X134501741Y-89273226D01*
X134419899Y-89138154D01*
X134354053Y-89028519D01*
X134305937Y-88947119D01*
X134277287Y-88896748D01*
X134276145Y-88894624D01*
X134254031Y-88847063D01*
X134239993Y-88796819D01*
X134232318Y-88732609D01*
X134229291Y-88643151D01*
X134228986Y-88584173D01*
X134230188Y-88478675D01*
X134235027Y-88403887D01*
X134245354Y-88348224D01*
X134263019Y-88300099D01*
X134279684Y-88266673D01*
X134299050Y-88233067D01*
X134338721Y-88166563D01*
X134396787Y-88070298D01*
X134471336Y-87947407D01*
X134560455Y-87801028D01*
X134662234Y-87634296D01*
X134774761Y-87450349D01*
X134896124Y-87252322D01*
X135024411Y-87043353D01*
X135124683Y-86880256D01*
X135285896Y-86618433D01*
X135426894Y-86390227D01*
X135549492Y-86193106D01*
X135655507Y-86024539D01*
X135746756Y-85881996D01*
X135825055Y-85762944D01*
X135892220Y-85664852D01*
X135950068Y-85585190D01*
X136000415Y-85521426D01*
X136045079Y-85471028D01*
X136085876Y-85431467D01*
X136124621Y-85400209D01*
X136163133Y-85374724D01*
X136203226Y-85352481D01*
X136231104Y-85338510D01*
X136301908Y-85307082D01*
X136374402Y-85282721D01*
X136454805Y-85264743D01*
X136549339Y-85252466D01*
X136664222Y-85245205D01*
X136805677Y-85242276D01*
X136979923Y-85242997D01*
G36*
X130859443Y-85241390D02*
G01*
X130993932Y-85244280D01*
X131109905Y-85249110D01*
X131198674Y-85255901D01*
X131236305Y-85261118D01*
X131376383Y-85301540D01*
X131515502Y-85366766D01*
X131637539Y-85448417D01*
X131692218Y-85497995D01*
X131712901Y-85525960D01*
X131754921Y-85588806D01*
X131817511Y-85685310D01*
X131899909Y-85814244D01*
X132001350Y-85974386D01*
X132121069Y-86164509D01*
X132258302Y-86383388D01*
X132412285Y-86629799D01*
X132582253Y-86902517D01*
X132767442Y-87200316D01*
X132967087Y-87521971D01*
X133180425Y-87866258D01*
X133406691Y-88231951D01*
X133645120Y-88617826D01*
X133894948Y-89022657D01*
X134155411Y-89445219D01*
X134179150Y-89483756D01*
X134454341Y-89930491D01*
X134708195Y-90342604D01*
X134941548Y-90721536D01*
X135155235Y-91068726D01*
X135350094Y-91385616D01*
X135526958Y-91673646D01*
X135686665Y-91934256D01*
X135830050Y-92168886D01*
X135957949Y-92378976D01*
X136071199Y-92565967D01*
X136170634Y-92731300D01*
X136257092Y-92876414D01*
X136331407Y-93002750D01*
X136394416Y-93111749D01*
X136446954Y-93204850D01*
X136489858Y-93283493D01*
X136523963Y-93349120D01*
X136550105Y-93403171D01*
X136569121Y-93447085D01*
X136581846Y-93482304D01*
X136589116Y-93510267D01*
X136591766Y-93532414D01*
X136590634Y-93550187D01*
X136586554Y-93565026D01*
X136580362Y-93578370D01*
X136572895Y-93591661D01*
X136568150Y-93600209D01*
X136560068Y-93615796D01*
X136551913Y-93629782D01*
X136541468Y-93642252D01*
X136526513Y-93653290D01*
X136504830Y-93662980D01*
X136474201Y-93671409D01*
X136432407Y-93678660D01*
X136377231Y-93684819D01*
X136306452Y-93689969D01*
X136217853Y-93694197D01*
X136109215Y-93697586D01*
X135978321Y-93700222D01*
X135822950Y-93702189D01*
X135640885Y-93703573D01*
X135429908Y-93704457D01*
X135187799Y-93704926D01*
X134912341Y-93705066D01*
X134601315Y-93704961D01*
X134252502Y-93704697D01*
X133863684Y-93704356D01*
X133843374Y-93704339D01*
X133516653Y-93703931D01*
X133200933Y-93703279D01*
X132898882Y-93702403D01*
X132613173Y-93701322D01*
X132346477Y-93700053D01*
X132101463Y-93698617D01*
X131880804Y-93697031D01*
X131687170Y-93695313D01*
X131523231Y-93693484D01*
X131391660Y-93691561D01*
X131295127Y-93689563D01*
X131236302Y-93687509D01*
X131218692Y-93685982D01*
X131109218Y-93647974D01*
X130990234Y-93587469D01*
X130879541Y-93514315D01*
X130823147Y-93467174D01*
X130801462Y-93442380D01*
X130767803Y-93397074D01*
X130721348Y-93329957D01*
X130661275Y-93239728D01*
X130586764Y-93125090D01*
X130496993Y-92984744D01*
X130391141Y-92817389D01*
X130268386Y-92621727D01*
X130127908Y-92396460D01*
X129968884Y-92140287D01*
X129790494Y-91851910D01*
X129591916Y-91530030D01*
X129372330Y-91173348D01*
X129350516Y-91137881D01*
X129142439Y-90799495D01*
X128955437Y-90495158D01*
X128788385Y-90222877D01*
X128640159Y-89980654D01*
X128509632Y-89766496D01*
X128395681Y-89578406D01*
X128297179Y-89414389D01*
X128213003Y-89272450D01*
X128142027Y-89150594D01*
X128083126Y-89046825D01*
X128035176Y-88959148D01*
X127997050Y-88885568D01*
X127967625Y-88824088D01*
X127945775Y-88772715D01*
X127930376Y-88729451D01*
X127920302Y-88692303D01*
X127914428Y-88659275D01*
X127911629Y-88628371D01*
X127910781Y-88597595D01*
X127910736Y-88584173D01*
X127911549Y-88543758D01*
X127914947Y-88504175D01*
X127922361Y-88462745D01*
X127935224Y-88416793D01*
X127954971Y-88363643D01*
X127983033Y-88300618D01*
X128020845Y-88225042D01*
X128069838Y-88134238D01*
X128131448Y-88025531D01*
X128207105Y-87896244D01*
X128298244Y-87743700D01*
X128406298Y-87565223D01*
X128532700Y-87358138D01*
X128678883Y-87119767D01*
X128803411Y-86917145D01*
X128955206Y-86671008D01*
X129097584Y-86441578D01*
X129229067Y-86231173D01*
X129348177Y-86042109D01*
X129453435Y-85876704D01*
X129543363Y-85737274D01*
X129616483Y-85626137D01*
X129671316Y-85545610D01*
X129706384Y-85498010D01*
X129715023Y-85488238D01*
X129820212Y-85405786D01*
X129950525Y-85333271D01*
X130088765Y-85279571D01*
X130150152Y-85263657D01*
X130213306Y-85255332D01*
X130310067Y-85248826D01*
X130431749Y-85244158D01*
X130569664Y-85241349D01*
X130715124Y-85240420D01*
X130859443Y-85241390D01*
G37*
X130859443Y-85241390D02*
X130993932Y-85244280D01*
X131109905Y-85249110D01*
X131198674Y-85255901D01*
X131236305Y-85261118D01*
X131376383Y-85301540D01*
X131515502Y-85366766D01*
X131637539Y-85448417D01*
X131692218Y-85497995D01*
X131712901Y-85525960D01*
X131754921Y-85588806D01*
X131817511Y-85685310D01*
X131899909Y-85814244D01*
X132001350Y-85974386D01*
X132121069Y-86164509D01*
X132258302Y-86383388D01*
X132412285Y-86629799D01*
X132582253Y-86902517D01*
X132767442Y-87200316D01*
X132967087Y-87521971D01*
X133180425Y-87866258D01*
X133406691Y-88231951D01*
X133645120Y-88617826D01*
X133894948Y-89022657D01*
X134155411Y-89445219D01*
X134179150Y-89483756D01*
X134454341Y-89930491D01*
X134708195Y-90342604D01*
X134941548Y-90721536D01*
X135155235Y-91068726D01*
X135350094Y-91385616D01*
X135526958Y-91673646D01*
X135686665Y-91934256D01*
X135830050Y-92168886D01*
X135957949Y-92378976D01*
X136071199Y-92565967D01*
X136170634Y-92731300D01*
X136257092Y-92876414D01*
X136331407Y-93002750D01*
X136394416Y-93111749D01*
X136446954Y-93204850D01*
X136489858Y-93283493D01*
X136523963Y-93349120D01*
X136550105Y-93403171D01*
X136569121Y-93447085D01*
X136581846Y-93482304D01*
X136589116Y-93510267D01*
X136591766Y-93532414D01*
X136590634Y-93550187D01*
X136586554Y-93565026D01*
X136580362Y-93578370D01*
X136572895Y-93591661D01*
X136568150Y-93600209D01*
X136560068Y-93615796D01*
X136551913Y-93629782D01*
X136541468Y-93642252D01*
X136526513Y-93653290D01*
X136504830Y-93662980D01*
X136474201Y-93671409D01*
X136432407Y-93678660D01*
X136377231Y-93684819D01*
X136306452Y-93689969D01*
X136217853Y-93694197D01*
X136109215Y-93697586D01*
X135978321Y-93700222D01*
X135822950Y-93702189D01*
X135640885Y-93703573D01*
X135429908Y-93704457D01*
X135187799Y-93704926D01*
X134912341Y-93705066D01*
X134601315Y-93704961D01*
X134252502Y-93704697D01*
X133863684Y-93704356D01*
X133843374Y-93704339D01*
X133516653Y-93703931D01*
X133200933Y-93703279D01*
X132898882Y-93702403D01*
X132613173Y-93701322D01*
X132346477Y-93700053D01*
X132101463Y-93698617D01*
X131880804Y-93697031D01*
X131687170Y-93695313D01*
X131523231Y-93693484D01*
X131391660Y-93691561D01*
X131295127Y-93689563D01*
X131236302Y-93687509D01*
X131218692Y-93685982D01*
X131109218Y-93647974D01*
X130990234Y-93587469D01*
X130879541Y-93514315D01*
X130823147Y-93467174D01*
X130801462Y-93442380D01*
X130767803Y-93397074D01*
X130721348Y-93329957D01*
X130661275Y-93239728D01*
X130586764Y-93125090D01*
X130496993Y-92984744D01*
X130391141Y-92817389D01*
X130268386Y-92621727D01*
X130127908Y-92396460D01*
X129968884Y-92140287D01*
X129790494Y-91851910D01*
X129591916Y-91530030D01*
X129372330Y-91173348D01*
X129350516Y-91137881D01*
X129142439Y-90799495D01*
X128955437Y-90495158D01*
X128788385Y-90222877D01*
X128640159Y-89980654D01*
X128509632Y-89766496D01*
X128395681Y-89578406D01*
X128297179Y-89414389D01*
X128213003Y-89272450D01*
X128142027Y-89150594D01*
X128083126Y-89046825D01*
X128035176Y-88959148D01*
X127997050Y-88885568D01*
X127967625Y-88824088D01*
X127945775Y-88772715D01*
X127930376Y-88729451D01*
X127920302Y-88692303D01*
X127914428Y-88659275D01*
X127911629Y-88628371D01*
X127910781Y-88597595D01*
X127910736Y-88584173D01*
X127911549Y-88543758D01*
X127914947Y-88504175D01*
X127922361Y-88462745D01*
X127935224Y-88416793D01*
X127954971Y-88363643D01*
X127983033Y-88300618D01*
X128020845Y-88225042D01*
X128069838Y-88134238D01*
X128131448Y-88025531D01*
X128207105Y-87896244D01*
X128298244Y-87743700D01*
X128406298Y-87565223D01*
X128532700Y-87358138D01*
X128678883Y-87119767D01*
X128803411Y-86917145D01*
X128955206Y-86671008D01*
X129097584Y-86441578D01*
X129229067Y-86231173D01*
X129348177Y-86042109D01*
X129453435Y-85876704D01*
X129543363Y-85737274D01*
X129616483Y-85626137D01*
X129671316Y-85545610D01*
X129706384Y-85498010D01*
X129715023Y-85488238D01*
X129820212Y-85405786D01*
X129950525Y-85333271D01*
X130088765Y-85279571D01*
X130150152Y-85263657D01*
X130213306Y-85255332D01*
X130310067Y-85248826D01*
X130431749Y-85244158D01*
X130569664Y-85241349D01*
X130715124Y-85240420D01*
X130859443Y-85241390D01*
%TD*%
D11*
%TO.C,SW9*%
X87987019Y-79994464D03*
D12*
X89012981Y-83025536D03*
%TD*%
D13*
%TO.C,SW4*%
X140465171Y-108590629D03*
D14*
X138202429Y-110853371D03*
%TD*%
D15*
%TO.C,SW6*%
X161568386Y-105276082D03*
D16*
X161578275Y-104993389D03*
D17*
X161590494Y-105558085D03*
D18*
X161620036Y-104713620D03*
D19*
X161644318Y-105835785D03*
D20*
X161693134Y-104440361D03*
D21*
X161729168Y-106105627D03*
D22*
X161796634Y-104177108D03*
D23*
X161843957Y-106364156D03*
D24*
X161929209Y-103927232D03*
D25*
X161987217Y-106608063D03*
D26*
X162089163Y-103693932D03*
D27*
X162157113Y-106834226D03*
D28*
X162274448Y-103480195D03*
D29*
X162351470Y-107039748D03*
D30*
X162482692Y-103288757D03*
D31*
X162567801Y-107222000D03*
D32*
X162711229Y-103122069D03*
D33*
X162880366Y-103022001D03*
D34*
X163474082Y-103021999D03*
D35*
X163685273Y-106621999D03*
D36*
X163760323Y-104221999D03*
D37*
X163829042Y-105421999D03*
D38*
X164318575Y-104821999D03*
D39*
X164351779Y-106021999D03*
D40*
X164519814Y-103621999D03*
D41*
X164817799Y-107221999D03*
D42*
X165255234Y-103022000D03*
D43*
X165496158Y-103170223D03*
D44*
X165567799Y-107222000D03*
D45*
X165718796Y-103344712D03*
D46*
X165720261Y-107097998D03*
D47*
X165920297Y-103543235D03*
D48*
X165921607Y-106899318D03*
D49*
X166098082Y-103763250D03*
D50*
X166099221Y-106679164D03*
D51*
X166249875Y-104001940D03*
D52*
X166250827Y-106440355D03*
D53*
X166373732Y-104256250D03*
D54*
X166374486Y-106185948D03*
D55*
X166468069Y-104522924D03*
D56*
X166468614Y-105919201D03*
D57*
X166531676Y-104798547D03*
D58*
X166532006Y-105643528D03*
D59*
X166563740Y-105079592D03*
D60*
X166563851Y-105362459D03*
%TD*%
D13*
%TO.C,SW5*%
X124965171Y-108590629D03*
D14*
X122702429Y-110853371D03*
%TD*%
D61*
%TO.C,JW2*%
X98602800Y-88011000D03*
%TD*%
%TO.C,JW6*%
X196050000Y-80030000D03*
%TD*%
D62*
%TO.C,H2*%
X167567800Y-87472000D03*
%TD*%
D63*
%TO.C,SW3*%
X93983800Y-96222000D03*
D64*
X97183800Y-96222000D03*
%TD*%
D65*
%TO.C,H4*%
X195567800Y-94972000D03*
%TD*%
D61*
%TO.C,JW1*%
X175260000Y-88011000D03*
%TD*%
D66*
%TO.C,H5*%
X131083800Y-109722000D03*
%TD*%
D61*
%TO.C,JW3*%
X189865000Y-92456000D03*
%TD*%
D15*
%TO.C,SW11*%
X188568386Y-105276082D03*
D16*
X188578275Y-104993389D03*
D17*
X188590494Y-105558085D03*
D18*
X188620036Y-104713620D03*
D19*
X188644318Y-105835785D03*
D20*
X188693134Y-104440361D03*
D21*
X188729168Y-106105627D03*
D22*
X188796634Y-104177108D03*
D23*
X188843957Y-106364156D03*
D24*
X188929209Y-103927232D03*
D25*
X188987217Y-106608063D03*
D26*
X189089163Y-103693932D03*
D27*
X189157113Y-106834226D03*
D28*
X189274448Y-103480195D03*
D29*
X189351470Y-107039748D03*
D30*
X189482692Y-103288757D03*
D31*
X189567801Y-107222000D03*
D32*
X189711229Y-103122069D03*
D33*
X189880366Y-103022001D03*
D34*
X190474082Y-103021999D03*
D35*
X190685273Y-106621999D03*
D36*
X190760323Y-104221999D03*
D37*
X190829042Y-105421999D03*
D38*
X191318575Y-104821999D03*
D39*
X191351779Y-106021999D03*
D40*
X191519814Y-103621999D03*
D41*
X191817799Y-107221999D03*
D42*
X192255234Y-103022000D03*
D43*
X192496158Y-103170223D03*
D44*
X192567799Y-107222000D03*
D45*
X192718796Y-103344712D03*
D46*
X192720261Y-107097998D03*
D47*
X192920297Y-103543235D03*
D48*
X192921607Y-106899318D03*
D49*
X193098082Y-103763250D03*
D50*
X193099221Y-106679164D03*
D51*
X193249875Y-104001940D03*
D52*
X193250827Y-106440355D03*
D53*
X193373732Y-104256250D03*
D54*
X193374486Y-106185948D03*
D55*
X193468069Y-104522924D03*
D56*
X193468614Y-105919201D03*
D57*
X193531676Y-104798547D03*
D58*
X193532006Y-105643528D03*
D59*
X193563740Y-105079592D03*
D60*
X193563851Y-105362459D03*
%TD*%
D61*
%TO.C,JW7*%
X177700000Y-73920000D03*
%TD*%
%TO.C,JW8*%
X77740000Y-80000000D03*
%TD*%
D63*
%TO.C,SW2*%
X93983800Y-113972000D03*
D64*
X97183800Y-113972000D03*
%TD*%
D61*
%TO.C,JW5*%
X96890000Y-74070000D03*
%TD*%
D67*
%TO.C,SW8*%
X185932954Y-80044455D03*
D68*
X184907046Y-83075545D03*
%TD*%
D69*
%TO.C,SW1*%
X86833800Y-106822000D03*
D70*
X86833800Y-103622000D03*
%TD*%
D62*
%TO.C,H1*%
X105583800Y-87472000D03*
%TD*%
D15*
%TO.C,SW7*%
X175068386Y-115776082D03*
D16*
X175078275Y-115493389D03*
D17*
X175090494Y-116058085D03*
D18*
X175120036Y-115213620D03*
D19*
X175144318Y-116335785D03*
D20*
X175193134Y-114940361D03*
D21*
X175229168Y-116605627D03*
D22*
X175296634Y-114677108D03*
D23*
X175343957Y-116864156D03*
D24*
X175429209Y-114427232D03*
D25*
X175487217Y-117108063D03*
D26*
X175589163Y-114193932D03*
D27*
X175657113Y-117334226D03*
D28*
X175774448Y-113980195D03*
D29*
X175851470Y-117539748D03*
D30*
X175982692Y-113788757D03*
D31*
X176067801Y-117722000D03*
D32*
X176211229Y-113622069D03*
D33*
X176380366Y-113522001D03*
D34*
X176974082Y-113521999D03*
D35*
X177185273Y-117121999D03*
D36*
X177260323Y-114721999D03*
D37*
X177329042Y-115921999D03*
D38*
X177818575Y-115321999D03*
D39*
X177851779Y-116521999D03*
D40*
X178019814Y-114121999D03*
D41*
X178317799Y-117721999D03*
D42*
X178755234Y-113522000D03*
D43*
X178996158Y-113670223D03*
D44*
X179067799Y-117722000D03*
D45*
X179218796Y-113844712D03*
D46*
X179220261Y-117597998D03*
D47*
X179420297Y-114043235D03*
D48*
X179421607Y-117399318D03*
D49*
X179598082Y-114263250D03*
D50*
X179599221Y-117179164D03*
D51*
X179749875Y-114501940D03*
D52*
X179750827Y-116940355D03*
D53*
X179873732Y-114756250D03*
D54*
X179874486Y-116685948D03*
D55*
X179968069Y-115022924D03*
D56*
X179968614Y-116419201D03*
D57*
X180031676Y-115298547D03*
D58*
X180032006Y-116143528D03*
D59*
X180063740Y-115579592D03*
D60*
X180063851Y-115862459D03*
%TD*%
D69*
%TO.C,SW0*%
X104583800Y-106822000D03*
D70*
X104583800Y-103622000D03*
%TD*%
D61*
%TO.C,JW4*%
X83667600Y-92633800D03*
%TD*%
D65*
%TO.C,H3*%
X77583800Y-94972000D03*
%TD*%
D15*
%TO.C,SW10*%
X175068386Y-94776082D03*
D16*
X175078275Y-94493389D03*
D17*
X175090494Y-95058085D03*
D18*
X175120036Y-94213620D03*
D19*
X175144318Y-95335785D03*
D20*
X175193134Y-93940361D03*
D21*
X175229168Y-95605627D03*
D22*
X175296634Y-93677108D03*
D23*
X175343957Y-95864156D03*
D24*
X175429209Y-93427232D03*
D25*
X175487217Y-96108063D03*
D26*
X175589163Y-93193932D03*
D27*
X175657113Y-96334226D03*
D28*
X175774448Y-92980195D03*
D29*
X175851470Y-96539748D03*
D30*
X175982692Y-92788757D03*
D31*
X176067801Y-96722000D03*
D32*
X176211229Y-92622069D03*
D33*
X176380366Y-92522001D03*
D34*
X176974082Y-92521999D03*
D35*
X177185273Y-96121999D03*
D36*
X177260323Y-93721999D03*
D37*
X177329042Y-94921999D03*
D38*
X177818575Y-94321999D03*
D39*
X177851779Y-95521999D03*
D40*
X178019814Y-93121999D03*
D41*
X178317799Y-96721999D03*
D42*
X178755234Y-92522000D03*
D43*
X178996158Y-92670223D03*
D44*
X179067799Y-96722000D03*
D45*
X179218796Y-92844712D03*
D46*
X179220261Y-96597998D03*
D47*
X179420297Y-93043235D03*
D48*
X179421607Y-96399318D03*
D49*
X179598082Y-93263250D03*
D50*
X179599221Y-96179164D03*
D51*
X179749875Y-93501940D03*
D52*
X179750827Y-95940355D03*
D53*
X179873732Y-93756250D03*
D54*
X179874486Y-95685948D03*
D55*
X179968069Y-94022924D03*
D56*
X179968614Y-95419201D03*
D57*
X180031676Y-94298547D03*
D58*
X180032006Y-95143528D03*
D59*
X180063740Y-94579592D03*
D60*
X180063851Y-94862459D03*
%TD*%
D71*
%TO.C,J5*%
X148700000Y-105150000D03*
D72*
X150699999Y-105149999D03*
X152699999Y-105149999D03*
X154699999Y-105149999D03*
X156699999Y-105149999D03*
%TD*%
D73*
%TO.C,J2*%
X127660000Y-119110000D03*
D74*
X127659999Y-116569999D03*
%TD*%
M02*
