G04 #@! TF.GenerationSoftware,KiCad,Pcbnew,7.0.9*
G04 #@! TF.CreationDate,2023-12-20T17:33:18-07:00*
G04 #@! TF.ProjectId,vb_controller_pcb,76625f63-6f6e-4747-926f-6c6c65725f70,4a*
G04 #@! TF.SameCoordinates,Original*
G04 #@! TF.FileFunction,AssemblyDrawing,Bot*
%FSLAX46Y46*%
G04 Gerber Fmt 4.6, Leading zero omitted, Abs format (unit mm)*
G04 Created by KiCad (PCBNEW 7.0.9) date 2023-12-20 17:33:18*
%MOMM*%
%LPD*%
G01*
G04 APERTURE LIST*
%ADD10C,0.150000*%
%ADD11C,0.075000*%
%ADD12C,0.100000*%
G04 APERTURE END LIST*
D10*
X172942590Y-144049819D02*
X172942590Y-144859342D01*
X172942590Y-144859342D02*
X172990209Y-144954580D01*
X172990209Y-144954580D02*
X173037828Y-145002200D01*
X173037828Y-145002200D02*
X173133066Y-145049819D01*
X173133066Y-145049819D02*
X173323542Y-145049819D01*
X173323542Y-145049819D02*
X173418780Y-145002200D01*
X173418780Y-145002200D02*
X173466399Y-144954580D01*
X173466399Y-144954580D02*
X173514018Y-144859342D01*
X173514018Y-144859342D02*
X173514018Y-144049819D01*
X174418780Y-144049819D02*
X174228304Y-144049819D01*
X174228304Y-144049819D02*
X174133066Y-144097438D01*
X174133066Y-144097438D02*
X174085447Y-144145057D01*
X174085447Y-144145057D02*
X173990209Y-144287914D01*
X173990209Y-144287914D02*
X173942590Y-144478390D01*
X173942590Y-144478390D02*
X173942590Y-144859342D01*
X173942590Y-144859342D02*
X173990209Y-144954580D01*
X173990209Y-144954580D02*
X174037828Y-145002200D01*
X174037828Y-145002200D02*
X174133066Y-145049819D01*
X174133066Y-145049819D02*
X174323542Y-145049819D01*
X174323542Y-145049819D02*
X174418780Y-145002200D01*
X174418780Y-145002200D02*
X174466399Y-144954580D01*
X174466399Y-144954580D02*
X174514018Y-144859342D01*
X174514018Y-144859342D02*
X174514018Y-144621247D01*
X174514018Y-144621247D02*
X174466399Y-144526009D01*
X174466399Y-144526009D02*
X174418780Y-144478390D01*
X174418780Y-144478390D02*
X174323542Y-144430771D01*
X174323542Y-144430771D02*
X174133066Y-144430771D01*
X174133066Y-144430771D02*
X174037828Y-144478390D01*
X174037828Y-144478390D02*
X173990209Y-144526009D01*
X173990209Y-144526009D02*
X173942590Y-144621247D01*
X153768095Y-130734819D02*
X153768095Y-131544342D01*
X153768095Y-131544342D02*
X153815714Y-131639580D01*
X153815714Y-131639580D02*
X153863333Y-131687200D01*
X153863333Y-131687200D02*
X153958571Y-131734819D01*
X153958571Y-131734819D02*
X154149047Y-131734819D01*
X154149047Y-131734819D02*
X154244285Y-131687200D01*
X154244285Y-131687200D02*
X154291904Y-131639580D01*
X154291904Y-131639580D02*
X154339523Y-131544342D01*
X154339523Y-131544342D02*
X154339523Y-130734819D01*
X154958571Y-131163390D02*
X154863333Y-131115771D01*
X154863333Y-131115771D02*
X154815714Y-131068152D01*
X154815714Y-131068152D02*
X154768095Y-130972914D01*
X154768095Y-130972914D02*
X154768095Y-130925295D01*
X154768095Y-130925295D02*
X154815714Y-130830057D01*
X154815714Y-130830057D02*
X154863333Y-130782438D01*
X154863333Y-130782438D02*
X154958571Y-130734819D01*
X154958571Y-130734819D02*
X155149047Y-130734819D01*
X155149047Y-130734819D02*
X155244285Y-130782438D01*
X155244285Y-130782438D02*
X155291904Y-130830057D01*
X155291904Y-130830057D02*
X155339523Y-130925295D01*
X155339523Y-130925295D02*
X155339523Y-130972914D01*
X155339523Y-130972914D02*
X155291904Y-131068152D01*
X155291904Y-131068152D02*
X155244285Y-131115771D01*
X155244285Y-131115771D02*
X155149047Y-131163390D01*
X155149047Y-131163390D02*
X154958571Y-131163390D01*
X154958571Y-131163390D02*
X154863333Y-131211009D01*
X154863333Y-131211009D02*
X154815714Y-131258628D01*
X154815714Y-131258628D02*
X154768095Y-131353866D01*
X154768095Y-131353866D02*
X154768095Y-131544342D01*
X154768095Y-131544342D02*
X154815714Y-131639580D01*
X154815714Y-131639580D02*
X154863333Y-131687200D01*
X154863333Y-131687200D02*
X154958571Y-131734819D01*
X154958571Y-131734819D02*
X155149047Y-131734819D01*
X155149047Y-131734819D02*
X155244285Y-131687200D01*
X155244285Y-131687200D02*
X155291904Y-131639580D01*
X155291904Y-131639580D02*
X155339523Y-131544342D01*
X155339523Y-131544342D02*
X155339523Y-131353866D01*
X155339523Y-131353866D02*
X155291904Y-131258628D01*
X155291904Y-131258628D02*
X155244285Y-131211009D01*
X155244285Y-131211009D02*
X155149047Y-131163390D01*
X132236904Y-133054819D02*
X132236904Y-133864342D01*
X132236904Y-133864342D02*
X132189285Y-133959580D01*
X132189285Y-133959580D02*
X132141666Y-134007200D01*
X132141666Y-134007200D02*
X132046428Y-134054819D01*
X132046428Y-134054819D02*
X131855952Y-134054819D01*
X131855952Y-134054819D02*
X131760714Y-134007200D01*
X131760714Y-134007200D02*
X131713095Y-133959580D01*
X131713095Y-133959580D02*
X131665476Y-133864342D01*
X131665476Y-133864342D02*
X131665476Y-133054819D01*
X131236904Y-133150057D02*
X131189285Y-133102438D01*
X131189285Y-133102438D02*
X131094047Y-133054819D01*
X131094047Y-133054819D02*
X130855952Y-133054819D01*
X130855952Y-133054819D02*
X130760714Y-133102438D01*
X130760714Y-133102438D02*
X130713095Y-133150057D01*
X130713095Y-133150057D02*
X130665476Y-133245295D01*
X130665476Y-133245295D02*
X130665476Y-133340533D01*
X130665476Y-133340533D02*
X130713095Y-133483390D01*
X130713095Y-133483390D02*
X131284523Y-134054819D01*
X131284523Y-134054819D02*
X130665476Y-134054819D01*
X139498809Y-137514819D02*
X138927381Y-137514819D01*
X139213095Y-138514819D02*
X139213095Y-137514819D01*
X138736904Y-137514819D02*
X138403571Y-138514819D01*
X138403571Y-138514819D02*
X138070238Y-137514819D01*
X137784523Y-138467200D02*
X137641666Y-138514819D01*
X137641666Y-138514819D02*
X137403571Y-138514819D01*
X137403571Y-138514819D02*
X137308333Y-138467200D01*
X137308333Y-138467200D02*
X137260714Y-138419580D01*
X137260714Y-138419580D02*
X137213095Y-138324342D01*
X137213095Y-138324342D02*
X137213095Y-138229104D01*
X137213095Y-138229104D02*
X137260714Y-138133866D01*
X137260714Y-138133866D02*
X137308333Y-138086247D01*
X137308333Y-138086247D02*
X137403571Y-138038628D01*
X137403571Y-138038628D02*
X137594047Y-137991009D01*
X137594047Y-137991009D02*
X137689285Y-137943390D01*
X137689285Y-137943390D02*
X137736904Y-137895771D01*
X137736904Y-137895771D02*
X137784523Y-137800533D01*
X137784523Y-137800533D02*
X137784523Y-137705295D01*
X137784523Y-137705295D02*
X137736904Y-137610057D01*
X137736904Y-137610057D02*
X137689285Y-137562438D01*
X137689285Y-137562438D02*
X137594047Y-137514819D01*
X137594047Y-137514819D02*
X137355952Y-137514819D01*
X137355952Y-137514819D02*
X137213095Y-137562438D01*
X137022619Y-138610057D02*
X136260714Y-138610057D01*
X135451190Y-138514819D02*
X135784523Y-138038628D01*
X136022618Y-138514819D02*
X136022618Y-137514819D01*
X136022618Y-137514819D02*
X135641666Y-137514819D01*
X135641666Y-137514819D02*
X135546428Y-137562438D01*
X135546428Y-137562438D02*
X135498809Y-137610057D01*
X135498809Y-137610057D02*
X135451190Y-137705295D01*
X135451190Y-137705295D02*
X135451190Y-137848152D01*
X135451190Y-137848152D02*
X135498809Y-137943390D01*
X135498809Y-137943390D02*
X135546428Y-137991009D01*
X135546428Y-137991009D02*
X135641666Y-138038628D01*
X135641666Y-138038628D02*
X136022618Y-138038628D01*
X134451190Y-138419580D02*
X134498809Y-138467200D01*
X134498809Y-138467200D02*
X134641666Y-138514819D01*
X134641666Y-138514819D02*
X134736904Y-138514819D01*
X134736904Y-138514819D02*
X134879761Y-138467200D01*
X134879761Y-138467200D02*
X134974999Y-138371961D01*
X134974999Y-138371961D02*
X135022618Y-138276723D01*
X135022618Y-138276723D02*
X135070237Y-138086247D01*
X135070237Y-138086247D02*
X135070237Y-137943390D01*
X135070237Y-137943390D02*
X135022618Y-137752914D01*
X135022618Y-137752914D02*
X134974999Y-137657676D01*
X134974999Y-137657676D02*
X134879761Y-137562438D01*
X134879761Y-137562438D02*
X134736904Y-137514819D01*
X134736904Y-137514819D02*
X134641666Y-137514819D01*
X134641666Y-137514819D02*
X134498809Y-137562438D01*
X134498809Y-137562438D02*
X134451190Y-137610057D01*
X133546428Y-138514819D02*
X134022618Y-138514819D01*
X134022618Y-138514819D02*
X134022618Y-137514819D01*
X133260713Y-138229104D02*
X132784523Y-138229104D01*
X133355951Y-138514819D02*
X133022618Y-137514819D01*
X133022618Y-137514819D02*
X132689285Y-138514819D01*
X132355951Y-138514819D02*
X132355951Y-137514819D01*
X132355951Y-137514819D02*
X132022618Y-138229104D01*
X132022618Y-138229104D02*
X131689285Y-137514819D01*
X131689285Y-137514819D02*
X131689285Y-138514819D01*
X131213094Y-138514819D02*
X131213094Y-137514819D01*
X131213094Y-137514819D02*
X130832142Y-137514819D01*
X130832142Y-137514819D02*
X130736904Y-137562438D01*
X130736904Y-137562438D02*
X130689285Y-137610057D01*
X130689285Y-137610057D02*
X130641666Y-137705295D01*
X130641666Y-137705295D02*
X130641666Y-137848152D01*
X130641666Y-137848152D02*
X130689285Y-137943390D01*
X130689285Y-137943390D02*
X130736904Y-137991009D01*
X130736904Y-137991009D02*
X130832142Y-138038628D01*
X130832142Y-138038628D02*
X131213094Y-138038628D01*
X130022618Y-137514819D02*
X129927380Y-137514819D01*
X129927380Y-137514819D02*
X129832142Y-137562438D01*
X129832142Y-137562438D02*
X129784523Y-137610057D01*
X129784523Y-137610057D02*
X129736904Y-137705295D01*
X129736904Y-137705295D02*
X129689285Y-137895771D01*
X129689285Y-137895771D02*
X129689285Y-138133866D01*
X129689285Y-138133866D02*
X129736904Y-138324342D01*
X129736904Y-138324342D02*
X129784523Y-138419580D01*
X129784523Y-138419580D02*
X129832142Y-138467200D01*
X129832142Y-138467200D02*
X129927380Y-138514819D01*
X129927380Y-138514819D02*
X130022618Y-138514819D01*
X130022618Y-138514819D02*
X130117856Y-138467200D01*
X130117856Y-138467200D02*
X130165475Y-138419580D01*
X130165475Y-138419580D02*
X130213094Y-138324342D01*
X130213094Y-138324342D02*
X130260713Y-138133866D01*
X130260713Y-138133866D02*
X130260713Y-137895771D01*
X130260713Y-137895771D02*
X130213094Y-137705295D01*
X130213094Y-137705295D02*
X130165475Y-137610057D01*
X130165475Y-137610057D02*
X130117856Y-137562438D01*
X130117856Y-137562438D02*
X130022618Y-137514819D01*
X128784523Y-137514819D02*
X129260713Y-137514819D01*
X129260713Y-137514819D02*
X129308332Y-137991009D01*
X129308332Y-137991009D02*
X129260713Y-137943390D01*
X129260713Y-137943390D02*
X129165475Y-137895771D01*
X129165475Y-137895771D02*
X128927380Y-137895771D01*
X128927380Y-137895771D02*
X128832142Y-137943390D01*
X128832142Y-137943390D02*
X128784523Y-137991009D01*
X128784523Y-137991009D02*
X128736904Y-138086247D01*
X128736904Y-138086247D02*
X128736904Y-138324342D01*
X128736904Y-138324342D02*
X128784523Y-138419580D01*
X128784523Y-138419580D02*
X128832142Y-138467200D01*
X128832142Y-138467200D02*
X128927380Y-138514819D01*
X128927380Y-138514819D02*
X129165475Y-138514819D01*
X129165475Y-138514819D02*
X129260713Y-138467200D01*
X129260713Y-138467200D02*
X129308332Y-138419580D01*
X128355951Y-137610057D02*
X128308332Y-137562438D01*
X128308332Y-137562438D02*
X128213094Y-137514819D01*
X128213094Y-137514819D02*
X127974999Y-137514819D01*
X127974999Y-137514819D02*
X127879761Y-137562438D01*
X127879761Y-137562438D02*
X127832142Y-137610057D01*
X127832142Y-137610057D02*
X127784523Y-137705295D01*
X127784523Y-137705295D02*
X127784523Y-137800533D01*
X127784523Y-137800533D02*
X127832142Y-137943390D01*
X127832142Y-137943390D02*
X128403570Y-138514819D01*
X128403570Y-138514819D02*
X127784523Y-138514819D01*
X126927380Y-137848152D02*
X126927380Y-138514819D01*
X127165475Y-137467200D02*
X127403570Y-138181485D01*
X127403570Y-138181485D02*
X126784523Y-138181485D01*
X126403570Y-138514819D02*
X126403570Y-137514819D01*
X126403570Y-137514819D02*
X126022618Y-137514819D01*
X126022618Y-137514819D02*
X125927380Y-137562438D01*
X125927380Y-137562438D02*
X125879761Y-137610057D01*
X125879761Y-137610057D02*
X125832142Y-137705295D01*
X125832142Y-137705295D02*
X125832142Y-137848152D01*
X125832142Y-137848152D02*
X125879761Y-137943390D01*
X125879761Y-137943390D02*
X125927380Y-137991009D01*
X125927380Y-137991009D02*
X126022618Y-138038628D01*
X126022618Y-138038628D02*
X126403570Y-138038628D01*
X125403570Y-138133866D02*
X124641666Y-138133866D01*
X124165475Y-138514819D02*
X124165475Y-137514819D01*
X124165475Y-137514819D02*
X123594047Y-138514819D01*
X123594047Y-138514819D02*
X123594047Y-137514819D01*
D11*
X131202409Y-135389047D02*
X131607171Y-135389047D01*
X131607171Y-135389047D02*
X131654790Y-135412857D01*
X131654790Y-135412857D02*
X131678600Y-135436666D01*
X131678600Y-135436666D02*
X131702409Y-135484285D01*
X131702409Y-135484285D02*
X131702409Y-135579523D01*
X131702409Y-135579523D02*
X131678600Y-135627142D01*
X131678600Y-135627142D02*
X131654790Y-135650952D01*
X131654790Y-135650952D02*
X131607171Y-135674761D01*
X131607171Y-135674761D02*
X131202409Y-135674761D01*
X131250028Y-135889048D02*
X131226219Y-135912857D01*
X131226219Y-135912857D02*
X131202409Y-135960476D01*
X131202409Y-135960476D02*
X131202409Y-136079524D01*
X131202409Y-136079524D02*
X131226219Y-136127143D01*
X131226219Y-136127143D02*
X131250028Y-136150952D01*
X131250028Y-136150952D02*
X131297647Y-136174762D01*
X131297647Y-136174762D02*
X131345266Y-136174762D01*
X131345266Y-136174762D02*
X131416695Y-136150952D01*
X131416695Y-136150952D02*
X131702409Y-135865238D01*
X131702409Y-135865238D02*
X131702409Y-136174762D01*
D10*
X185638095Y-141909580D02*
X185685714Y-141957200D01*
X185685714Y-141957200D02*
X185828571Y-142004819D01*
X185828571Y-142004819D02*
X185923809Y-142004819D01*
X185923809Y-142004819D02*
X186066666Y-141957200D01*
X186066666Y-141957200D02*
X186161904Y-141861961D01*
X186161904Y-141861961D02*
X186209523Y-141766723D01*
X186209523Y-141766723D02*
X186257142Y-141576247D01*
X186257142Y-141576247D02*
X186257142Y-141433390D01*
X186257142Y-141433390D02*
X186209523Y-141242914D01*
X186209523Y-141242914D02*
X186161904Y-141147676D01*
X186161904Y-141147676D02*
X186066666Y-141052438D01*
X186066666Y-141052438D02*
X185923809Y-141004819D01*
X185923809Y-141004819D02*
X185828571Y-141004819D01*
X185828571Y-141004819D02*
X185685714Y-141052438D01*
X185685714Y-141052438D02*
X185638095Y-141100057D01*
X185066666Y-142004819D02*
X185161904Y-141957200D01*
X185161904Y-141957200D02*
X185209523Y-141909580D01*
X185209523Y-141909580D02*
X185257142Y-141814342D01*
X185257142Y-141814342D02*
X185257142Y-141528628D01*
X185257142Y-141528628D02*
X185209523Y-141433390D01*
X185209523Y-141433390D02*
X185161904Y-141385771D01*
X185161904Y-141385771D02*
X185066666Y-141338152D01*
X185066666Y-141338152D02*
X184923809Y-141338152D01*
X184923809Y-141338152D02*
X184828571Y-141385771D01*
X184828571Y-141385771D02*
X184780952Y-141433390D01*
X184780952Y-141433390D02*
X184733333Y-141528628D01*
X184733333Y-141528628D02*
X184733333Y-141814342D01*
X184733333Y-141814342D02*
X184780952Y-141909580D01*
X184780952Y-141909580D02*
X184828571Y-141957200D01*
X184828571Y-141957200D02*
X184923809Y-142004819D01*
X184923809Y-142004819D02*
X185066666Y-142004819D01*
X184304761Y-141338152D02*
X184304761Y-142004819D01*
X184304761Y-141433390D02*
X184257142Y-141385771D01*
X184257142Y-141385771D02*
X184161904Y-141338152D01*
X184161904Y-141338152D02*
X184019047Y-141338152D01*
X184019047Y-141338152D02*
X183923809Y-141385771D01*
X183923809Y-141385771D02*
X183876190Y-141481009D01*
X183876190Y-141481009D02*
X183876190Y-142004819D01*
X183399999Y-141338152D02*
X183399999Y-142004819D01*
X183399999Y-141433390D02*
X183352380Y-141385771D01*
X183352380Y-141385771D02*
X183257142Y-141338152D01*
X183257142Y-141338152D02*
X183114285Y-141338152D01*
X183114285Y-141338152D02*
X183019047Y-141385771D01*
X183019047Y-141385771D02*
X182971428Y-141481009D01*
X182971428Y-141481009D02*
X182971428Y-142004819D01*
X182733333Y-142100057D02*
X181971428Y-142100057D01*
X181542856Y-141004819D02*
X181447618Y-141004819D01*
X181447618Y-141004819D02*
X181352380Y-141052438D01*
X181352380Y-141052438D02*
X181304761Y-141100057D01*
X181304761Y-141100057D02*
X181257142Y-141195295D01*
X181257142Y-141195295D02*
X181209523Y-141385771D01*
X181209523Y-141385771D02*
X181209523Y-141623866D01*
X181209523Y-141623866D02*
X181257142Y-141814342D01*
X181257142Y-141814342D02*
X181304761Y-141909580D01*
X181304761Y-141909580D02*
X181352380Y-141957200D01*
X181352380Y-141957200D02*
X181447618Y-142004819D01*
X181447618Y-142004819D02*
X181542856Y-142004819D01*
X181542856Y-142004819D02*
X181638094Y-141957200D01*
X181638094Y-141957200D02*
X181685713Y-141909580D01*
X181685713Y-141909580D02*
X181733332Y-141814342D01*
X181733332Y-141814342D02*
X181780951Y-141623866D01*
X181780951Y-141623866D02*
X181780951Y-141385771D01*
X181780951Y-141385771D02*
X181733332Y-141195295D01*
X181733332Y-141195295D02*
X181685713Y-141100057D01*
X181685713Y-141100057D02*
X181638094Y-141052438D01*
X181638094Y-141052438D02*
X181542856Y-141004819D01*
X180257142Y-142004819D02*
X180828570Y-142004819D01*
X180542856Y-142004819D02*
X180542856Y-141004819D01*
X180542856Y-141004819D02*
X180638094Y-141147676D01*
X180638094Y-141147676D02*
X180733332Y-141242914D01*
X180733332Y-141242914D02*
X180828570Y-141290533D01*
X179923808Y-142004819D02*
X179399999Y-141338152D01*
X179923808Y-141338152D02*
X179399999Y-142004819D01*
X178828570Y-141004819D02*
X178733332Y-141004819D01*
X178733332Y-141004819D02*
X178638094Y-141052438D01*
X178638094Y-141052438D02*
X178590475Y-141100057D01*
X178590475Y-141100057D02*
X178542856Y-141195295D01*
X178542856Y-141195295D02*
X178495237Y-141385771D01*
X178495237Y-141385771D02*
X178495237Y-141623866D01*
X178495237Y-141623866D02*
X178542856Y-141814342D01*
X178542856Y-141814342D02*
X178590475Y-141909580D01*
X178590475Y-141909580D02*
X178638094Y-141957200D01*
X178638094Y-141957200D02*
X178733332Y-142004819D01*
X178733332Y-142004819D02*
X178828570Y-142004819D01*
X178828570Y-142004819D02*
X178923808Y-141957200D01*
X178923808Y-141957200D02*
X178971427Y-141909580D01*
X178971427Y-141909580D02*
X179019046Y-141814342D01*
X179019046Y-141814342D02*
X179066665Y-141623866D01*
X179066665Y-141623866D02*
X179066665Y-141385771D01*
X179066665Y-141385771D02*
X179019046Y-141195295D01*
X179019046Y-141195295D02*
X178971427Y-141100057D01*
X178971427Y-141100057D02*
X178923808Y-141052438D01*
X178923808Y-141052438D02*
X178828570Y-141004819D01*
X177590475Y-141004819D02*
X178066665Y-141004819D01*
X178066665Y-141004819D02*
X178114284Y-141481009D01*
X178114284Y-141481009D02*
X178066665Y-141433390D01*
X178066665Y-141433390D02*
X177971427Y-141385771D01*
X177971427Y-141385771D02*
X177733332Y-141385771D01*
X177733332Y-141385771D02*
X177638094Y-141433390D01*
X177638094Y-141433390D02*
X177590475Y-141481009D01*
X177590475Y-141481009D02*
X177542856Y-141576247D01*
X177542856Y-141576247D02*
X177542856Y-141814342D01*
X177542856Y-141814342D02*
X177590475Y-141909580D01*
X177590475Y-141909580D02*
X177638094Y-141957200D01*
X177638094Y-141957200D02*
X177733332Y-142004819D01*
X177733332Y-142004819D02*
X177971427Y-142004819D01*
X177971427Y-142004819D02*
X178066665Y-141957200D01*
X178066665Y-141957200D02*
X178114284Y-141909580D01*
X182233333Y-145954819D02*
X182233333Y-146669104D01*
X182233333Y-146669104D02*
X182280952Y-146811961D01*
X182280952Y-146811961D02*
X182376190Y-146907200D01*
X182376190Y-146907200D02*
X182519047Y-146954819D01*
X182519047Y-146954819D02*
X182614285Y-146954819D01*
X181280952Y-145954819D02*
X181757142Y-145954819D01*
X181757142Y-145954819D02*
X181804761Y-146431009D01*
X181804761Y-146431009D02*
X181757142Y-146383390D01*
X181757142Y-146383390D02*
X181661904Y-146335771D01*
X181661904Y-146335771D02*
X181423809Y-146335771D01*
X181423809Y-146335771D02*
X181328571Y-146383390D01*
X181328571Y-146383390D02*
X181280952Y-146431009D01*
X181280952Y-146431009D02*
X181233333Y-146526247D01*
X181233333Y-146526247D02*
X181233333Y-146764342D01*
X181233333Y-146764342D02*
X181280952Y-146859580D01*
X181280952Y-146859580D02*
X181328571Y-146907200D01*
X181328571Y-146907200D02*
X181423809Y-146954819D01*
X181423809Y-146954819D02*
X181661904Y-146954819D01*
X181661904Y-146954819D02*
X181757142Y-146907200D01*
X181757142Y-146907200D02*
X181804761Y-146859580D01*
D12*
X132150000Y-137070000D02*
X132150000Y-134820000D01*
X132150000Y-134820000D02*
X131775000Y-134470000D01*
X131775000Y-134470000D02*
X130800000Y-134470000D01*
X130800000Y-137070000D02*
X132150000Y-137070000D01*
X130800000Y-134470000D02*
X130800000Y-137070000D01*
X175950000Y-142750000D02*
X187850000Y-142750000D01*
X175950000Y-150350000D02*
X175950000Y-142750000D01*
X176650000Y-148750000D02*
X176650000Y-150350000D01*
X176650000Y-150350000D02*
X175950000Y-150350000D01*
X177400000Y-147625000D02*
X178400000Y-147625000D01*
X177900000Y-148125000D02*
X177400000Y-147625000D01*
X178400000Y-147625000D02*
X177900000Y-148125000D01*
X187150000Y-148750000D02*
X176650000Y-148750000D01*
X187150000Y-150350000D02*
X187150000Y-148750000D01*
X187850000Y-142750000D02*
X187850000Y-150350000D01*
X187850000Y-150350000D02*
X187150000Y-150350000D01*
M02*
