M48
; DRILL file {KiCad (7.0.0-0)} date Sunday, May 07, 2023 at 01:27:27 AM
; FORMAT={-:-/ absolute / inch / decimal}
; #@! TF.CreationDate,2023-05-07T01:27:27-06:00
; #@! TF.GenerationSoftware,Kicad,Pcbnew,(7.0.0-0)
; #@! TF.FileFunction,Plated,1,2,PTH
FMAT,2
INCH
; #@! TA.AperFunction,Plated,PTH,ViaDrill
T1C0.0100
; #@! TA.AperFunction,Plated,PTH,ViaDrill
T2C0.0118
; #@! TA.AperFunction,Plated,PTH,ComponentDrill
T3C0.0138
; #@! TA.AperFunction,Plated,PTH,ComponentDrill
T4C0.0295
; #@! TA.AperFunction,Plated,PTH,ComponentDrill
T5C0.0394
; #@! TA.AperFunction,Plated,PTH,ComponentDrill
T6C0.0472
%
G90
G05
T1
X5.2913Y-4.189
T2
X3.0Y-3.8748
X3.0Y-4.0323
X3.1575Y-3.7173
X3.1575Y-3.8748
X3.1575Y-4.0323
X3.1575Y-4.1898
X3.1575Y-4.5047
X3.1575Y-4.6622
X3.315Y-4.0323
X3.315Y-4.3472
X3.315Y-4.5047
X3.315Y-4.6622
X3.3508Y-4.5665
X3.4724Y-3.5598
X3.4724Y-4.5047
X3.6299Y-3.5598
X3.6299Y-4.6622
X3.6374Y-4.5748
X3.6559Y-4.3996
X3.7874Y-3.5598
X3.7874Y-4.3472
X3.7874Y-4.6622
X3.7874Y-4.8197
X3.9449Y-3.8748
X3.9449Y-4.0323
X3.9449Y-4.6622
X3.9449Y-4.8197
X4.0815Y-4.5548
X4.1024Y-3.2449
X4.1024Y-3.5598
X4.1024Y-3.7173
X4.1024Y-3.8748
X4.1024Y-4.6622
X4.1024Y-4.8197
X4.2138Y-4.5374
X4.25Y-4.8007
X4.2535Y-4.3145
X4.2598Y-3.2449
X4.2598Y-3.5598
X4.2598Y-3.7173
X4.2598Y-4.0323
X4.2598Y-4.3819
X4.2744Y-4.7799
X4.2815Y-4.4051
X4.2855Y-4.1295
X4.2904Y-4.6773
X4.3854Y-4.3598
X4.4063Y-3.9409
X4.4173Y-3.4024
X4.4173Y-4.5047
X4.4453Y-3.9402
X4.4598Y-4.0409
X4.4631Y-3.815
X4.4909Y-4.5134
X4.4919Y-3.805
X4.5035Y-3.9252
X4.5079Y-4.4138
X4.5232Y-3.8007
X4.5295Y-4.5134
X4.5331Y-4.7523
X4.539Y-4.413
X4.5451Y-3.9287
X4.5697Y-4.6118
X4.5711Y-3.9449
X4.5728Y-4.0409
X4.5748Y-3.7173
X4.5888Y-3.8852
X4.5905Y-4.5169
X4.5939Y-4.3388
X4.6057Y-3.8262
X4.6173Y-4.4118
X4.6287Y-3.9272
X4.6335Y-4.6578
X4.6385Y-3.8591
X4.6627Y-4.6698
X4.6638Y-3.9547
X4.6801Y-3.9006
X4.6905Y-4.6818
X4.6949Y-4.3803
X4.7169Y-4.7153
X4.7224Y-4.1205
X4.7264Y-4.0189
X4.7286Y-4.3522
X4.7323Y-3.2449
X4.7427Y-4.2496
X4.7445Y-4.1449
X4.7468Y-4.1751
X4.7512Y-3.9015
X4.7679Y-4.1959
X4.7701Y-4.2385
X4.7895Y-4.2161
X4.8236Y-3.9015
X4.8335Y-4.6539
X4.8488Y-4.511
X4.876Y-4.1858
X4.8898Y-3.8748
X4.9185Y-4.5531
X4.9185Y-4.7303
X4.922Y-4.5232
X4.9232Y-4.0398
X4.9232Y-4.1449
X4.9728Y-4.0606
X4.9748Y-4.1184
X4.9917Y-3.9015
X5.0264Y-4.2961
X5.0472Y-3.2449
X5.0472Y-3.5598
X5.0472Y-3.7173
X5.0528Y-4.3913
X5.0579Y-4.287
X5.0756Y-3.9015
X5.076Y-3.955
X5.0949Y-4.0965
X5.1233Y-4.0331
X5.1264Y-4.1618
X5.1638Y-3.9015
X5.1638Y-3.955
X5.2047Y-3.4024
X5.2047Y-3.5598
X5.2047Y-4.1898
X5.2469Y-3.9015
X5.2469Y-3.955
X5.3402Y-3.955
X5.3406Y-3.9015
X5.3622Y-3.4024
X5.3622Y-3.5598
X5.3622Y-4.0323
X5.3622Y-4.1898
X5.4335Y-4.7012
X5.4374Y-3.9555
X5.4382Y-3.9015
X5.5197Y-3.4024
X5.5197Y-3.5598
X5.5197Y-3.7173
X5.5197Y-4.0323
X5.5197Y-4.6622
X5.5441Y-3.9015
X5.5441Y-3.955
X5.6445Y-4.7299
X5.65Y-3.9015
X5.6772Y-3.5598
X5.6772Y-3.7173
X5.6772Y-4.0323
X5.6772Y-4.8197
X5.6843Y-4.2205
X5.7492Y-3.9015
X5.75Y-3.955
X5.8346Y-3.5598
X5.8346Y-3.7173
X5.8374Y-3.9015
X5.8374Y-3.955
X5.8752Y-4.0039
X5.8752Y-4.0677
X5.8958Y-3.9341
X5.9288Y-3.9921
X5.9288Y-4.0579
X5.9921Y-3.5598
X5.9921Y-3.7173
X5.9921Y-3.8748
X5.9921Y-4.0323
X5.9921Y-4.3472
X6.087Y-4.0704
X6.1496Y-3.5598
X6.1496Y-4.0323
X6.1496Y-4.3472
X6.3071Y-3.5598
X6.3071Y-4.0323
X6.3071Y-4.3472
X6.4646Y-3.2449
X6.4646Y-3.5598
X6.4646Y-3.7173
X6.4646Y-3.8748
X6.4646Y-4.3472
X6.4906Y-4.2413
X6.5465Y-4.5118
X6.622Y-3.7173
X6.622Y-3.8748
X6.622Y-4.0323
X6.622Y-4.6622
X6.622Y-4.8197
X6.7795Y-3.5598
X6.7795Y-3.7173
X6.7795Y-3.8748
X6.7795Y-4.0323
X6.7795Y-4.6622
X6.7795Y-4.8197
X6.937Y-3.5598
X6.937Y-4.0323
X6.937Y-4.3472
X6.937Y-4.8197
X7.089Y-4.4496
X7.0945Y-3.5598
X7.1079Y-4.5394
X7.252Y-3.5598
X7.252Y-3.7173
X7.252Y-4.0323
X7.252Y-4.1898
X7.252Y-4.3472
X7.252Y-4.5047
X7.4094Y-3.7173
X7.4094Y-3.8748
X7.4094Y-4.0323
X7.4094Y-4.5047
X7.4094Y-4.6622
X7.4094Y-4.8197
X7.5669Y-3.7173
X7.5669Y-3.8748
X7.5669Y-4.6622
X7.6398Y-4.1795
X7.7244Y-3.8748
X7.7244Y-4.0323
X7.7244Y-4.1898
X7.7244Y-4.6622
T3
X4.5043Y-4.1827
X4.5043Y-4.2329
X4.5043Y-4.2831
X4.5545Y-4.1827
X4.5545Y-4.2329
X4.5545Y-4.2831
X4.6047Y-4.1827
X4.6047Y-4.2329
X4.6047Y-4.2831
T4
X5.7882Y-4.1398
X5.8669Y-4.1398
X5.9457Y-4.1398
X6.0244Y-4.1398
X6.1031Y-4.1398
T5
X5.026Y-4.5894
X5.026Y-4.6894
T6
X3.0606Y-3.1496
X3.294Y-3.647
X3.8146Y-2.9161
X3.882Y-3.465
X6.9Y-3.465
X6.9961Y-2.9102
X7.475Y-3.64
X7.7185Y-3.1508
T0
M30
