%TF.GenerationSoftware,KiCad,Pcbnew,8.0.0*%
%TF.CreationDate,2024-02-23T16:44:12-07:00*%
%TF.ProjectId,saturn_controller_pcb,73617475-726e-45f6-936f-6e74726f6c6c,4a*%
%TF.SameCoordinates,Original*%
%TF.FileFunction,Soldermask,Bot*%
%TF.FilePolarity,Negative*%
%FSLAX46Y46*%
G04 Gerber Fmt 4.6, Leading zero omitted, Abs format (unit mm)*
G04 Created by KiCad (PCBNEW 8.0.0) date 2024-02-23 16:44:12*
%MOMM*%
%LPD*%
G01*
G04 APERTURE LIST*
G04 Aperture macros list*
%AMRoundRect*
0 Rectangle with rounded corners*
0 $1 Rounding radius*
0 $2 $3 $4 $5 $6 $7 $8 $9 X,Y pos of 4 corners*
0 Add a 4 corners polygon primitive as box body*
4,1,4,$2,$3,$4,$5,$6,$7,$8,$9,$2,$3,0*
0 Add four circle primitives for the rounded corners*
1,1,$1+$1,$2,$3*
1,1,$1+$1,$4,$5*
1,1,$1+$1,$6,$7*
1,1,$1+$1,$8,$9*
0 Add four rect primitives between the rounded corners*
20,1,$1+$1,$2,$3,$4,$5,0*
20,1,$1+$1,$4,$5,$6,$7,0*
20,1,$1+$1,$6,$7,$8,$9,0*
20,1,$1+$1,$8,$9,$2,$3,0*%
G04 Aperture macros list end*
%ADD10C,0.010000*%
%ADD11C,1.701600*%
%ADD12C,3.101600*%
%ADD13C,2.201600*%
%ADD14C,1.851600*%
%ADD15RoundRect,0.271167X-0.654633X0.379633X-0.654633X-0.379633X0.654633X-0.379633X0.654633X0.379633X0*%
%ADD16O,1.851600X1.301600*%
G04 APERTURE END LIST*
D10*
%TO.C,Ref\u002A\u002A*%
X105849838Y-92132138D02*
X105867100Y-92149345D01*
X105895162Y-92185153D01*
X105934879Y-92240979D01*
X105987185Y-92318294D01*
X106053016Y-92418570D01*
X106133305Y-92543278D01*
X106228989Y-92693890D01*
X106341001Y-92871878D01*
X106470278Y-93078714D01*
X106617753Y-93315868D01*
X106784362Y-93584813D01*
X106971039Y-93887020D01*
X107178720Y-94223961D01*
X107233050Y-94312222D01*
X107397137Y-94579232D01*
X107554761Y-94836390D01*
X107704486Y-95081320D01*
X107844875Y-95311643D01*
X107974492Y-95524982D01*
X108091898Y-95718960D01*
X108195658Y-95891199D01*
X108284334Y-96039322D01*
X108356490Y-96160951D01*
X108410688Y-96253708D01*
X108445493Y-96315218D01*
X108459467Y-96343101D01*
X108463906Y-96359945D01*
X108464920Y-96447787D01*
X108426568Y-96521980D01*
X108350430Y-96579108D01*
X108338237Y-96584406D01*
X108321677Y-96589383D01*
X108299015Y-96593797D01*
X108267986Y-96597675D01*
X108226326Y-96601045D01*
X108171771Y-96603933D01*
X108102055Y-96606367D01*
X108014916Y-96608373D01*
X107908088Y-96609978D01*
X107779306Y-96611211D01*
X107626307Y-96612096D01*
X107446826Y-96612662D01*
X107238598Y-96612935D01*
X106999359Y-96612943D01*
X106726845Y-96612712D01*
X106418791Y-96612270D01*
X106072933Y-96611643D01*
X105687006Y-96610858D01*
X103097642Y-96605419D01*
X103035881Y-96536293D01*
X103007103Y-96499381D01*
X102978357Y-96428725D01*
X102983663Y-96350146D01*
X103022590Y-96254464D01*
X103023437Y-96252845D01*
X103047717Y-96209905D01*
X103091817Y-96135261D01*
X103153989Y-96031739D01*
X103232484Y-95902161D01*
X103325555Y-95749352D01*
X103431452Y-95576137D01*
X103548426Y-95385340D01*
X103674731Y-95179785D01*
X103808615Y-94962296D01*
X103948333Y-94735698D01*
X104092133Y-94502815D01*
X104238269Y-94266472D01*
X104384992Y-94029492D01*
X104530552Y-93794700D01*
X104673203Y-93564920D01*
X104811194Y-93342977D01*
X104942777Y-93131695D01*
X105066204Y-92933897D01*
X105179727Y-92752409D01*
X105281596Y-92590055D01*
X105370064Y-92449659D01*
X105443381Y-92334045D01*
X105499799Y-92246038D01*
X105537570Y-92188462D01*
X105554945Y-92164141D01*
X105585948Y-92136938D01*
X105671280Y-92096573D01*
X105762288Y-92094642D01*
X105849838Y-92132138D01*
G36*
X105849838Y-92132138D02*
G01*
X105867100Y-92149345D01*
X105895162Y-92185153D01*
X105934879Y-92240979D01*
X105987185Y-92318294D01*
X106053016Y-92418570D01*
X106133305Y-92543278D01*
X106228989Y-92693890D01*
X106341001Y-92871878D01*
X106470278Y-93078714D01*
X106617753Y-93315868D01*
X106784362Y-93584813D01*
X106971039Y-93887020D01*
X107178720Y-94223961D01*
X107233050Y-94312222D01*
X107397137Y-94579232D01*
X107554761Y-94836390D01*
X107704486Y-95081320D01*
X107844875Y-95311643D01*
X107974492Y-95524982D01*
X108091898Y-95718960D01*
X108195658Y-95891199D01*
X108284334Y-96039322D01*
X108356490Y-96160951D01*
X108410688Y-96253708D01*
X108445493Y-96315218D01*
X108459467Y-96343101D01*
X108463906Y-96359945D01*
X108464920Y-96447787D01*
X108426568Y-96521980D01*
X108350430Y-96579108D01*
X108338237Y-96584406D01*
X108321677Y-96589383D01*
X108299015Y-96593797D01*
X108267986Y-96597675D01*
X108226326Y-96601045D01*
X108171771Y-96603933D01*
X108102055Y-96606367D01*
X108014916Y-96608373D01*
X107908088Y-96609978D01*
X107779306Y-96611211D01*
X107626307Y-96612096D01*
X107446826Y-96612662D01*
X107238598Y-96612935D01*
X106999359Y-96612943D01*
X106726845Y-96612712D01*
X106418791Y-96612270D01*
X106072933Y-96611643D01*
X105687006Y-96610858D01*
X103097642Y-96605419D01*
X103035881Y-96536293D01*
X103007103Y-96499381D01*
X102978357Y-96428725D01*
X102983663Y-96350146D01*
X103022590Y-96254464D01*
X103023437Y-96252845D01*
X103047717Y-96209905D01*
X103091817Y-96135261D01*
X103153989Y-96031739D01*
X103232484Y-95902161D01*
X103325555Y-95749352D01*
X103431452Y-95576137D01*
X103548426Y-95385340D01*
X103674731Y-95179785D01*
X103808615Y-94962296D01*
X103948333Y-94735698D01*
X104092133Y-94502815D01*
X104238269Y-94266472D01*
X104384992Y-94029492D01*
X104530552Y-93794700D01*
X104673203Y-93564920D01*
X104811194Y-93342977D01*
X104942777Y-93131695D01*
X105066204Y-92933897D01*
X105179727Y-92752409D01*
X105281596Y-92590055D01*
X105370064Y-92449659D01*
X105443381Y-92334045D01*
X105499799Y-92246038D01*
X105537570Y-92188462D01*
X105554945Y-92164141D01*
X105585948Y-92136938D01*
X105671280Y-92096573D01*
X105762288Y-92094642D01*
X105849838Y-92132138D01*
G37*
X118413946Y-92112460D02*
X118496106Y-92177801D01*
X118503494Y-92187146D01*
X118534598Y-92232286D01*
X118584909Y-92309145D01*
X118652694Y-92414902D01*
X118736222Y-92546741D01*
X118833760Y-92701840D01*
X118943576Y-92877382D01*
X119063936Y-93070547D01*
X119193108Y-93278516D01*
X119329361Y-93498470D01*
X119470961Y-93727591D01*
X119616176Y-93963058D01*
X119763273Y-94202053D01*
X119910521Y-94441757D01*
X120056186Y-94679351D01*
X120198536Y-94912016D01*
X120335838Y-95136933D01*
X120466361Y-95351282D01*
X120588371Y-95552245D01*
X120700136Y-95737003D01*
X120799924Y-95902736D01*
X120886002Y-96046626D01*
X120956638Y-96165853D01*
X121010099Y-96257599D01*
X121044653Y-96319044D01*
X121058566Y-96347369D01*
X121062719Y-96364265D01*
X121062843Y-96450522D01*
X121023383Y-96521977D01*
X120944192Y-96578927D01*
X120935306Y-96582930D01*
X120919555Y-96588074D01*
X120897988Y-96592658D01*
X120868323Y-96596711D01*
X120828277Y-96600268D01*
X120775567Y-96603361D01*
X120707913Y-96606021D01*
X120623030Y-96608280D01*
X120518637Y-96610172D01*
X120392452Y-96611728D01*
X120242192Y-96612981D01*
X120065575Y-96613963D01*
X119860319Y-96614706D01*
X119624141Y-96615243D01*
X119354759Y-96615605D01*
X119049891Y-96615825D01*
X118707254Y-96615936D01*
X118324566Y-96615969D01*
X118241366Y-96615971D01*
X117860214Y-96616000D01*
X117518699Y-96615987D01*
X117214585Y-96615837D01*
X116945634Y-96615456D01*
X116709609Y-96614751D01*
X116504272Y-96613626D01*
X116327387Y-96611987D01*
X116176715Y-96609739D01*
X116050020Y-96606789D01*
X115945065Y-96603041D01*
X115859611Y-96598401D01*
X115791423Y-96592776D01*
X115738262Y-96586070D01*
X115697892Y-96578189D01*
X115668075Y-96569039D01*
X115646573Y-96558525D01*
X115631150Y-96546553D01*
X115619569Y-96533028D01*
X115609591Y-96517856D01*
X115598981Y-96500943D01*
X115577503Y-96454070D01*
X115575029Y-96370991D01*
X115580684Y-96356979D01*
X115606791Y-96307450D01*
X115652462Y-96226600D01*
X115715981Y-96117230D01*
X115795630Y-95982142D01*
X115889692Y-95824138D01*
X115996448Y-95646019D01*
X116114183Y-95450587D01*
X116241177Y-95240643D01*
X116375714Y-95018989D01*
X116516076Y-94788428D01*
X116660546Y-94551760D01*
X116807407Y-94311787D01*
X116954940Y-94071310D01*
X117101428Y-93833133D01*
X117245155Y-93600055D01*
X117384402Y-93374880D01*
X117517451Y-93160407D01*
X117642587Y-92959440D01*
X117758090Y-92774780D01*
X117862244Y-92609228D01*
X117953331Y-92465587D01*
X118029634Y-92346657D01*
X118089435Y-92255240D01*
X118131017Y-92194139D01*
X118152662Y-92166154D01*
X118238612Y-92107033D01*
X118327086Y-92088836D01*
X118413946Y-92112460D01*
G36*
X118413946Y-92112460D02*
G01*
X118496106Y-92177801D01*
X118503494Y-92187146D01*
X118534598Y-92232286D01*
X118584909Y-92309145D01*
X118652694Y-92414902D01*
X118736222Y-92546741D01*
X118833760Y-92701840D01*
X118943576Y-92877382D01*
X119063936Y-93070547D01*
X119193108Y-93278516D01*
X119329361Y-93498470D01*
X119470961Y-93727591D01*
X119616176Y-93963058D01*
X119763273Y-94202053D01*
X119910521Y-94441757D01*
X120056186Y-94679351D01*
X120198536Y-94912016D01*
X120335838Y-95136933D01*
X120466361Y-95351282D01*
X120588371Y-95552245D01*
X120700136Y-95737003D01*
X120799924Y-95902736D01*
X120886002Y-96046626D01*
X120956638Y-96165853D01*
X121010099Y-96257599D01*
X121044653Y-96319044D01*
X121058566Y-96347369D01*
X121062719Y-96364265D01*
X121062843Y-96450522D01*
X121023383Y-96521977D01*
X120944192Y-96578927D01*
X120935306Y-96582930D01*
X120919555Y-96588074D01*
X120897988Y-96592658D01*
X120868323Y-96596711D01*
X120828277Y-96600268D01*
X120775567Y-96603361D01*
X120707913Y-96606021D01*
X120623030Y-96608280D01*
X120518637Y-96610172D01*
X120392452Y-96611728D01*
X120242192Y-96612981D01*
X120065575Y-96613963D01*
X119860319Y-96614706D01*
X119624141Y-96615243D01*
X119354759Y-96615605D01*
X119049891Y-96615825D01*
X118707254Y-96615936D01*
X118324566Y-96615969D01*
X118241366Y-96615971D01*
X117860214Y-96616000D01*
X117518699Y-96615987D01*
X117214585Y-96615837D01*
X116945634Y-96615456D01*
X116709609Y-96614751D01*
X116504272Y-96613626D01*
X116327387Y-96611987D01*
X116176715Y-96609739D01*
X116050020Y-96606789D01*
X115945065Y-96603041D01*
X115859611Y-96598401D01*
X115791423Y-96592776D01*
X115738262Y-96586070D01*
X115697892Y-96578189D01*
X115668075Y-96569039D01*
X115646573Y-96558525D01*
X115631150Y-96546553D01*
X115619569Y-96533028D01*
X115609591Y-96517856D01*
X115598981Y-96500943D01*
X115577503Y-96454070D01*
X115575029Y-96370991D01*
X115580684Y-96356979D01*
X115606791Y-96307450D01*
X115652462Y-96226600D01*
X115715981Y-96117230D01*
X115795630Y-95982142D01*
X115889692Y-95824138D01*
X115996448Y-95646019D01*
X116114183Y-95450587D01*
X116241177Y-95240643D01*
X116375714Y-95018989D01*
X116516076Y-94788428D01*
X116660546Y-94551760D01*
X116807407Y-94311787D01*
X116954940Y-94071310D01*
X117101428Y-93833133D01*
X117245155Y-93600055D01*
X117384402Y-93374880D01*
X117517451Y-93160407D01*
X117642587Y-92959440D01*
X117758090Y-92774780D01*
X117862244Y-92609228D01*
X117953331Y-92465587D01*
X118029634Y-92346657D01*
X118089435Y-92255240D01*
X118131017Y-92194139D01*
X118152662Y-92166154D01*
X118238612Y-92107033D01*
X118327086Y-92088836D01*
X118413946Y-92112460D01*
G37*
X103887748Y-88150486D02*
X104236023Y-88150694D01*
X104624276Y-88150962D01*
X104700863Y-88151015D01*
X105099931Y-88151427D01*
X105458634Y-88152051D01*
X105778639Y-88152904D01*
X106061615Y-88154003D01*
X106309227Y-88155366D01*
X106523143Y-88157010D01*
X106705029Y-88158952D01*
X106856554Y-88161210D01*
X106979383Y-88163800D01*
X107075185Y-88166740D01*
X107145625Y-88170047D01*
X107192372Y-88173739D01*
X107217092Y-88177833D01*
X107264111Y-88197094D01*
X107331571Y-88253688D01*
X107365288Y-88330247D01*
X107361204Y-88419958D01*
X107357281Y-88428129D01*
X107333530Y-88470025D01*
X107289442Y-88544863D01*
X107226254Y-88650629D01*
X107145200Y-88785310D01*
X107047518Y-88946892D01*
X106934443Y-89133361D01*
X106807211Y-89342704D01*
X106667058Y-89572906D01*
X106515221Y-89821955D01*
X106352934Y-90087836D01*
X106181434Y-90368536D01*
X106001958Y-90662041D01*
X105815740Y-90966338D01*
X105624018Y-91279412D01*
X105428026Y-91599250D01*
X105229001Y-91923839D01*
X105028179Y-92251164D01*
X104826796Y-92579213D01*
X104626088Y-92905970D01*
X104427290Y-93229424D01*
X104231640Y-93547559D01*
X104040372Y-93858362D01*
X103854723Y-94159820D01*
X103675928Y-94449919D01*
X103505225Y-94726645D01*
X103343848Y-94987984D01*
X103193033Y-95231924D01*
X103054017Y-95456449D01*
X102928036Y-95659547D01*
X102816326Y-95839203D01*
X102720122Y-95993405D01*
X102640660Y-96120138D01*
X102579177Y-96217388D01*
X102536909Y-96283143D01*
X102515090Y-96315388D01*
X102445872Y-96386840D01*
X102345906Y-96460975D01*
X102230673Y-96526352D01*
X102113571Y-96574333D01*
X102107878Y-96576128D01*
X102087675Y-96581846D01*
X102064535Y-96586950D01*
X102036139Y-96591470D01*
X102000172Y-96595435D01*
X101954315Y-96598877D01*
X101896250Y-96601825D01*
X101823661Y-96604309D01*
X101734231Y-96606360D01*
X101625641Y-96608008D01*
X101495574Y-96609284D01*
X101341713Y-96610217D01*
X101161741Y-96610838D01*
X100953340Y-96611177D01*
X100714193Y-96611264D01*
X100441982Y-96611130D01*
X100134390Y-96610804D01*
X99789100Y-96610318D01*
X99403794Y-96609701D01*
X96817717Y-96605419D01*
X96757960Y-96560955D01*
X96707733Y-96499295D01*
X96688013Y-96416012D01*
X96699715Y-96319510D01*
X96743181Y-96217768D01*
X96755816Y-96196843D01*
X96790376Y-96140259D01*
X96845194Y-96050804D01*
X96919212Y-95930194D01*
X97011374Y-95780147D01*
X97120624Y-95602380D01*
X97245906Y-95398610D01*
X97386162Y-95170555D01*
X97540337Y-94919933D01*
X97707373Y-94648459D01*
X97886215Y-94357853D01*
X98075807Y-94049830D01*
X98275091Y-93726109D01*
X98483011Y-93388407D01*
X98698510Y-93038441D01*
X98920533Y-92677928D01*
X99148023Y-92308585D01*
X99393907Y-91909628D01*
X99641081Y-91509051D01*
X99877186Y-91126906D01*
X100101433Y-90764454D01*
X100313035Y-90422959D01*
X100511203Y-90103682D01*
X100695150Y-89807887D01*
X100864088Y-89536835D01*
X101017228Y-89291790D01*
X101153784Y-89074013D01*
X101272966Y-88884768D01*
X101373987Y-88725317D01*
X101456060Y-88596921D01*
X101518395Y-88500845D01*
X101560206Y-88438350D01*
X101580704Y-88410699D01*
X101613592Y-88379572D01*
X101691269Y-88317245D01*
X101766287Y-88268521D01*
X101768283Y-88267433D01*
X101799956Y-88249993D01*
X101829186Y-88234357D01*
X101858332Y-88220429D01*
X101889748Y-88208111D01*
X101925793Y-88197307D01*
X101968822Y-88187920D01*
X102021191Y-88179852D01*
X102085258Y-88173007D01*
X102163380Y-88167288D01*
X102257912Y-88162598D01*
X102371211Y-88158840D01*
X102505635Y-88155917D01*
X102663539Y-88153732D01*
X102847280Y-88152188D01*
X103059215Y-88151188D01*
X103301700Y-88150636D01*
X103577092Y-88150434D01*
X103887748Y-88150486D01*
G36*
X103887748Y-88150486D02*
G01*
X104236023Y-88150694D01*
X104624276Y-88150962D01*
X104700863Y-88151015D01*
X105099931Y-88151427D01*
X105458634Y-88152051D01*
X105778639Y-88152904D01*
X106061615Y-88154003D01*
X106309227Y-88155366D01*
X106523143Y-88157010D01*
X106705029Y-88158952D01*
X106856554Y-88161210D01*
X106979383Y-88163800D01*
X107075185Y-88166740D01*
X107145625Y-88170047D01*
X107192372Y-88173739D01*
X107217092Y-88177833D01*
X107264111Y-88197094D01*
X107331571Y-88253688D01*
X107365288Y-88330247D01*
X107361204Y-88419958D01*
X107357281Y-88428129D01*
X107333530Y-88470025D01*
X107289442Y-88544863D01*
X107226254Y-88650629D01*
X107145200Y-88785310D01*
X107047518Y-88946892D01*
X106934443Y-89133361D01*
X106807211Y-89342704D01*
X106667058Y-89572906D01*
X106515221Y-89821955D01*
X106352934Y-90087836D01*
X106181434Y-90368536D01*
X106001958Y-90662041D01*
X105815740Y-90966338D01*
X105624018Y-91279412D01*
X105428026Y-91599250D01*
X105229001Y-91923839D01*
X105028179Y-92251164D01*
X104826796Y-92579213D01*
X104626088Y-92905970D01*
X104427290Y-93229424D01*
X104231640Y-93547559D01*
X104040372Y-93858362D01*
X103854723Y-94159820D01*
X103675928Y-94449919D01*
X103505225Y-94726645D01*
X103343848Y-94987984D01*
X103193033Y-95231924D01*
X103054017Y-95456449D01*
X102928036Y-95659547D01*
X102816326Y-95839203D01*
X102720122Y-95993405D01*
X102640660Y-96120138D01*
X102579177Y-96217388D01*
X102536909Y-96283143D01*
X102515090Y-96315388D01*
X102445872Y-96386840D01*
X102345906Y-96460975D01*
X102230673Y-96526352D01*
X102113571Y-96574333D01*
X102107878Y-96576128D01*
X102087675Y-96581846D01*
X102064535Y-96586950D01*
X102036139Y-96591470D01*
X102000172Y-96595435D01*
X101954315Y-96598877D01*
X101896250Y-96601825D01*
X101823661Y-96604309D01*
X101734231Y-96606360D01*
X101625641Y-96608008D01*
X101495574Y-96609284D01*
X101341713Y-96610217D01*
X101161741Y-96610838D01*
X100953340Y-96611177D01*
X100714193Y-96611264D01*
X100441982Y-96611130D01*
X100134390Y-96610804D01*
X99789100Y-96610318D01*
X99403794Y-96609701D01*
X96817717Y-96605419D01*
X96757960Y-96560955D01*
X96707733Y-96499295D01*
X96688013Y-96416012D01*
X96699715Y-96319510D01*
X96743181Y-96217768D01*
X96755816Y-96196843D01*
X96790376Y-96140259D01*
X96845194Y-96050804D01*
X96919212Y-95930194D01*
X97011374Y-95780147D01*
X97120624Y-95602380D01*
X97245906Y-95398610D01*
X97386162Y-95170555D01*
X97540337Y-94919933D01*
X97707373Y-94648459D01*
X97886215Y-94357853D01*
X98075807Y-94049830D01*
X98275091Y-93726109D01*
X98483011Y-93388407D01*
X98698510Y-93038441D01*
X98920533Y-92677928D01*
X99148023Y-92308585D01*
X99393907Y-91909628D01*
X99641081Y-91509051D01*
X99877186Y-91126906D01*
X100101433Y-90764454D01*
X100313035Y-90422959D01*
X100511203Y-90103682D01*
X100695150Y-89807887D01*
X100864088Y-89536835D01*
X101017228Y-89291790D01*
X101153784Y-89074013D01*
X101272966Y-88884768D01*
X101373987Y-88725317D01*
X101456060Y-88596921D01*
X101518395Y-88500845D01*
X101560206Y-88438350D01*
X101580704Y-88410699D01*
X101613592Y-88379572D01*
X101691269Y-88317245D01*
X101766287Y-88268521D01*
X101768283Y-88267433D01*
X101799956Y-88249993D01*
X101829186Y-88234357D01*
X101858332Y-88220429D01*
X101889748Y-88208111D01*
X101925793Y-88197307D01*
X101968822Y-88187920D01*
X102021191Y-88179852D01*
X102085258Y-88173007D01*
X102163380Y-88167288D01*
X102257912Y-88162598D01*
X102371211Y-88158840D01*
X102505635Y-88155917D01*
X102663539Y-88153732D01*
X102847280Y-88152188D01*
X103059215Y-88151188D01*
X103301700Y-88150636D01*
X103577092Y-88150434D01*
X103887748Y-88150486D01*
G37*
X109206634Y-88154701D02*
X109321517Y-88161962D01*
X109416051Y-88174239D01*
X109496454Y-88192217D01*
X109568948Y-88216578D01*
X109639752Y-88248006D01*
X109667630Y-88261977D01*
X109707723Y-88284220D01*
X109746235Y-88309705D01*
X109784980Y-88340963D01*
X109825777Y-88380524D01*
X109870441Y-88430922D01*
X109920788Y-88494686D01*
X109978636Y-88574348D01*
X110045801Y-88672440D01*
X110124100Y-88791492D01*
X110215349Y-88934035D01*
X110321364Y-89102602D01*
X110443962Y-89299723D01*
X110584960Y-89527929D01*
X110746173Y-89789752D01*
X110846445Y-89952849D01*
X110974732Y-90161818D01*
X111096095Y-90359845D01*
X111208622Y-90543792D01*
X111310401Y-90710524D01*
X111399520Y-90856903D01*
X111474069Y-90979794D01*
X111532135Y-91076059D01*
X111571806Y-91142563D01*
X111591172Y-91176169D01*
X111607837Y-91209595D01*
X111625502Y-91257720D01*
X111635829Y-91313383D01*
X111640668Y-91388171D01*
X111641870Y-91493669D01*
X111641565Y-91552647D01*
X111638538Y-91642105D01*
X111630863Y-91706315D01*
X111616825Y-91756559D01*
X111594711Y-91804120D01*
X111593569Y-91806244D01*
X111564919Y-91856615D01*
X111516803Y-91938015D01*
X111450957Y-92047650D01*
X111369115Y-92182722D01*
X111273010Y-92340437D01*
X111164378Y-92517998D01*
X111044953Y-92712609D01*
X110916468Y-92921476D01*
X110780659Y-93141800D01*
X110639259Y-93370788D01*
X110494003Y-93605643D01*
X110346625Y-93843569D01*
X110198859Y-94081770D01*
X110052441Y-94317451D01*
X109909103Y-94547815D01*
X109770581Y-94770067D01*
X109638608Y-94981410D01*
X109514919Y-95179050D01*
X109401248Y-95360190D01*
X109299330Y-95522033D01*
X109210899Y-95661786D01*
X109137689Y-95776650D01*
X109081435Y-95863831D01*
X109043870Y-95920533D01*
X109026729Y-95943960D01*
X109024374Y-95946103D01*
X108943185Y-95992443D01*
X108849964Y-96000812D01*
X108752669Y-95970443D01*
X108745334Y-95966683D01*
X108736219Y-95961476D01*
X108726435Y-95954208D01*
X108714850Y-95943091D01*
X108700330Y-95926336D01*
X108681740Y-95902155D01*
X108657947Y-95868759D01*
X108627818Y-95824360D01*
X108590219Y-95767169D01*
X108544017Y-95695399D01*
X108488077Y-95607260D01*
X108421266Y-95500964D01*
X108342451Y-95374723D01*
X108250498Y-95226749D01*
X108144273Y-95055252D01*
X108022643Y-94858445D01*
X107884474Y-94634539D01*
X107728632Y-94381745D01*
X107553984Y-94098276D01*
X107359397Y-93782343D01*
X107143735Y-93432157D01*
X107059011Y-93294567D01*
X106891784Y-93022771D01*
X106744884Y-92783459D01*
X106616996Y-92574221D01*
X106506802Y-92392645D01*
X106412988Y-92236319D01*
X106334236Y-92102833D01*
X106269231Y-91989774D01*
X106216656Y-91894733D01*
X106175196Y-91815298D01*
X106143534Y-91749057D01*
X106120355Y-91693599D01*
X106104341Y-91646514D01*
X106094176Y-91605389D01*
X106088546Y-91567814D01*
X106086132Y-91531378D01*
X106085620Y-91493669D01*
X106085621Y-91492785D01*
X106086304Y-91451685D01*
X106089274Y-91412009D01*
X106095958Y-91371083D01*
X106107785Y-91326237D01*
X106126186Y-91274797D01*
X106152588Y-91214092D01*
X106188422Y-91141448D01*
X106235115Y-91054195D01*
X106294098Y-90949659D01*
X106366799Y-90825169D01*
X106454647Y-90678052D01*
X106559072Y-90505636D01*
X106681502Y-90305249D01*
X106823366Y-90074217D01*
X106986095Y-89809870D01*
X107096131Y-89631300D01*
X107240492Y-89397370D01*
X107365571Y-89195293D01*
X107473033Y-89022532D01*
X107564546Y-88876547D01*
X107641775Y-88754802D01*
X107706387Y-88654759D01*
X107760048Y-88573878D01*
X107804426Y-88509623D01*
X107841186Y-88459454D01*
X107871996Y-88420834D01*
X107898521Y-88391226D01*
X107922428Y-88368090D01*
X107945383Y-88348889D01*
X107968870Y-88330631D01*
X108038773Y-88279786D01*
X108104593Y-88240239D01*
X108172960Y-88210453D01*
X108250505Y-88188889D01*
X108343859Y-88174008D01*
X108459651Y-88164274D01*
X108604513Y-88158146D01*
X108785074Y-88154088D01*
X108890933Y-88152493D01*
X109065179Y-88151772D01*
X109206634Y-88154701D01*
G36*
X109206634Y-88154701D02*
G01*
X109321517Y-88161962D01*
X109416051Y-88174239D01*
X109496454Y-88192217D01*
X109568948Y-88216578D01*
X109639752Y-88248006D01*
X109667630Y-88261977D01*
X109707723Y-88284220D01*
X109746235Y-88309705D01*
X109784980Y-88340963D01*
X109825777Y-88380524D01*
X109870441Y-88430922D01*
X109920788Y-88494686D01*
X109978636Y-88574348D01*
X110045801Y-88672440D01*
X110124100Y-88791492D01*
X110215349Y-88934035D01*
X110321364Y-89102602D01*
X110443962Y-89299723D01*
X110584960Y-89527929D01*
X110746173Y-89789752D01*
X110846445Y-89952849D01*
X110974732Y-90161818D01*
X111096095Y-90359845D01*
X111208622Y-90543792D01*
X111310401Y-90710524D01*
X111399520Y-90856903D01*
X111474069Y-90979794D01*
X111532135Y-91076059D01*
X111571806Y-91142563D01*
X111591172Y-91176169D01*
X111607837Y-91209595D01*
X111625502Y-91257720D01*
X111635829Y-91313383D01*
X111640668Y-91388171D01*
X111641870Y-91493669D01*
X111641565Y-91552647D01*
X111638538Y-91642105D01*
X111630863Y-91706315D01*
X111616825Y-91756559D01*
X111594711Y-91804120D01*
X111593569Y-91806244D01*
X111564919Y-91856615D01*
X111516803Y-91938015D01*
X111450957Y-92047650D01*
X111369115Y-92182722D01*
X111273010Y-92340437D01*
X111164378Y-92517998D01*
X111044953Y-92712609D01*
X110916468Y-92921476D01*
X110780659Y-93141800D01*
X110639259Y-93370788D01*
X110494003Y-93605643D01*
X110346625Y-93843569D01*
X110198859Y-94081770D01*
X110052441Y-94317451D01*
X109909103Y-94547815D01*
X109770581Y-94770067D01*
X109638608Y-94981410D01*
X109514919Y-95179050D01*
X109401248Y-95360190D01*
X109299330Y-95522033D01*
X109210899Y-95661786D01*
X109137689Y-95776650D01*
X109081435Y-95863831D01*
X109043870Y-95920533D01*
X109026729Y-95943960D01*
X109024374Y-95946103D01*
X108943185Y-95992443D01*
X108849964Y-96000812D01*
X108752669Y-95970443D01*
X108745334Y-95966683D01*
X108736219Y-95961476D01*
X108726435Y-95954208D01*
X108714850Y-95943091D01*
X108700330Y-95926336D01*
X108681740Y-95902155D01*
X108657947Y-95868759D01*
X108627818Y-95824360D01*
X108590219Y-95767169D01*
X108544017Y-95695399D01*
X108488077Y-95607260D01*
X108421266Y-95500964D01*
X108342451Y-95374723D01*
X108250498Y-95226749D01*
X108144273Y-95055252D01*
X108022643Y-94858445D01*
X107884474Y-94634539D01*
X107728632Y-94381745D01*
X107553984Y-94098276D01*
X107359397Y-93782343D01*
X107143735Y-93432157D01*
X107059011Y-93294567D01*
X106891784Y-93022771D01*
X106744884Y-92783459D01*
X106616996Y-92574221D01*
X106506802Y-92392645D01*
X106412988Y-92236319D01*
X106334236Y-92102833D01*
X106269231Y-91989774D01*
X106216656Y-91894733D01*
X106175196Y-91815298D01*
X106143534Y-91749057D01*
X106120355Y-91693599D01*
X106104341Y-91646514D01*
X106094176Y-91605389D01*
X106088546Y-91567814D01*
X106086132Y-91531378D01*
X106085620Y-91493669D01*
X106085621Y-91492785D01*
X106086304Y-91451685D01*
X106089274Y-91412009D01*
X106095958Y-91371083D01*
X106107785Y-91326237D01*
X106126186Y-91274797D01*
X106152588Y-91214092D01*
X106188422Y-91141448D01*
X106235115Y-91054195D01*
X106294098Y-90949659D01*
X106366799Y-90825169D01*
X106454647Y-90678052D01*
X106559072Y-90505636D01*
X106681502Y-90305249D01*
X106823366Y-90074217D01*
X106986095Y-89809870D01*
X107096131Y-89631300D01*
X107240492Y-89397370D01*
X107365571Y-89195293D01*
X107473033Y-89022532D01*
X107564546Y-88876547D01*
X107641775Y-88754802D01*
X107706387Y-88654759D01*
X107760048Y-88573878D01*
X107804426Y-88509623D01*
X107841186Y-88459454D01*
X107871996Y-88420834D01*
X107898521Y-88391226D01*
X107922428Y-88368090D01*
X107945383Y-88348889D01*
X107968870Y-88330631D01*
X108038773Y-88279786D01*
X108104593Y-88240239D01*
X108172960Y-88210453D01*
X108250505Y-88188889D01*
X108343859Y-88174008D01*
X108459651Y-88164274D01*
X108604513Y-88158146D01*
X108785074Y-88154088D01*
X108890933Y-88152493D01*
X109065179Y-88151772D01*
X109206634Y-88154701D01*
G37*
X115301192Y-88150845D02*
X115439107Y-88153654D01*
X115560789Y-88158322D01*
X115657550Y-88164828D01*
X115720704Y-88173153D01*
X115782091Y-88189067D01*
X115920331Y-88242767D01*
X116050644Y-88315282D01*
X116155833Y-88397734D01*
X116164472Y-88407506D01*
X116199540Y-88455106D01*
X116254373Y-88535633D01*
X116327493Y-88646770D01*
X116417421Y-88786200D01*
X116522679Y-88951605D01*
X116641789Y-89140669D01*
X116773272Y-89351074D01*
X116915650Y-89580504D01*
X117067445Y-89826641D01*
X117191973Y-90029263D01*
X117338156Y-90267634D01*
X117464558Y-90474719D01*
X117572612Y-90653196D01*
X117663751Y-90805740D01*
X117739408Y-90935027D01*
X117801018Y-91043734D01*
X117850011Y-91134538D01*
X117887823Y-91210114D01*
X117915885Y-91273139D01*
X117935632Y-91326289D01*
X117948495Y-91372241D01*
X117955909Y-91413671D01*
X117959307Y-91453254D01*
X117960120Y-91493669D01*
X117960075Y-91507091D01*
X117959227Y-91537867D01*
X117956428Y-91568771D01*
X117950554Y-91601799D01*
X117940480Y-91638947D01*
X117925081Y-91682211D01*
X117903231Y-91733584D01*
X117873806Y-91795064D01*
X117835680Y-91868644D01*
X117787730Y-91956321D01*
X117728829Y-92060090D01*
X117657853Y-92181946D01*
X117573677Y-92323885D01*
X117475175Y-92487902D01*
X117361224Y-92675992D01*
X117230697Y-92890150D01*
X117082471Y-93132373D01*
X116915419Y-93404654D01*
X116728417Y-93708991D01*
X116520340Y-94047377D01*
X116498526Y-94082844D01*
X116278940Y-94439526D01*
X116080362Y-94761406D01*
X115901972Y-95049783D01*
X115742948Y-95305956D01*
X115602470Y-95531223D01*
X115479715Y-95726885D01*
X115373863Y-95894240D01*
X115284092Y-96034586D01*
X115209581Y-96149224D01*
X115149508Y-96239453D01*
X115103053Y-96306570D01*
X115069394Y-96351876D01*
X115047709Y-96376670D01*
X114991315Y-96423811D01*
X114880622Y-96496965D01*
X114761638Y-96557470D01*
X114652164Y-96595478D01*
X114634554Y-96597005D01*
X114575729Y-96599059D01*
X114479196Y-96601057D01*
X114347625Y-96602980D01*
X114183686Y-96604809D01*
X113990052Y-96606527D01*
X113769393Y-96608113D01*
X113524379Y-96609549D01*
X113257683Y-96610818D01*
X112971974Y-96611899D01*
X112669923Y-96612775D01*
X112354203Y-96613427D01*
X112027482Y-96613835D01*
X112007172Y-96613852D01*
X111618354Y-96614193D01*
X111269541Y-96614457D01*
X110958515Y-96614562D01*
X110683057Y-96614422D01*
X110440948Y-96613953D01*
X110229971Y-96613069D01*
X110047906Y-96611685D01*
X109892535Y-96609718D01*
X109761641Y-96607082D01*
X109653003Y-96603693D01*
X109564404Y-96599465D01*
X109493625Y-96594315D01*
X109438449Y-96588156D01*
X109396655Y-96580905D01*
X109366026Y-96572476D01*
X109344343Y-96562786D01*
X109329388Y-96551748D01*
X109318943Y-96539278D01*
X109310788Y-96525292D01*
X109302706Y-96509705D01*
X109297961Y-96501157D01*
X109290494Y-96487866D01*
X109284302Y-96474522D01*
X109280222Y-96459683D01*
X109279090Y-96441910D01*
X109281740Y-96419763D01*
X109289010Y-96391800D01*
X109301735Y-96356581D01*
X109320751Y-96312667D01*
X109346893Y-96258616D01*
X109380998Y-96192989D01*
X109423902Y-96114346D01*
X109476440Y-96021245D01*
X109539449Y-95912246D01*
X109613764Y-95785910D01*
X109700222Y-95640796D01*
X109799657Y-95475463D01*
X109912907Y-95288472D01*
X110040806Y-95078382D01*
X110184191Y-94843752D01*
X110343898Y-94583142D01*
X110520762Y-94295112D01*
X110715621Y-93978222D01*
X110929308Y-93631032D01*
X111162661Y-93252100D01*
X111416515Y-92839987D01*
X111691706Y-92393252D01*
X111715445Y-92354715D01*
X111975908Y-91932153D01*
X112225736Y-91527322D01*
X112464165Y-91141447D01*
X112690431Y-90775754D01*
X112903769Y-90431467D01*
X113103414Y-90109812D01*
X113288603Y-89812013D01*
X113458571Y-89539295D01*
X113612554Y-89292884D01*
X113749787Y-89074005D01*
X113869506Y-88883882D01*
X113970947Y-88723740D01*
X114053345Y-88594806D01*
X114115935Y-88498302D01*
X114157955Y-88435456D01*
X114178638Y-88407491D01*
X114233317Y-88357913D01*
X114355354Y-88276262D01*
X114494473Y-88211036D01*
X114634551Y-88170614D01*
X114672182Y-88165397D01*
X114760951Y-88158606D01*
X114876924Y-88153776D01*
X115011413Y-88150886D01*
X115155732Y-88149916D01*
X115301192Y-88150845D01*
G36*
X115301192Y-88150845D02*
G01*
X115439107Y-88153654D01*
X115560789Y-88158322D01*
X115657550Y-88164828D01*
X115720704Y-88173153D01*
X115782091Y-88189067D01*
X115920331Y-88242767D01*
X116050644Y-88315282D01*
X116155833Y-88397734D01*
X116164472Y-88407506D01*
X116199540Y-88455106D01*
X116254373Y-88535633D01*
X116327493Y-88646770D01*
X116417421Y-88786200D01*
X116522679Y-88951605D01*
X116641789Y-89140669D01*
X116773272Y-89351074D01*
X116915650Y-89580504D01*
X117067445Y-89826641D01*
X117191973Y-90029263D01*
X117338156Y-90267634D01*
X117464558Y-90474719D01*
X117572612Y-90653196D01*
X117663751Y-90805740D01*
X117739408Y-90935027D01*
X117801018Y-91043734D01*
X117850011Y-91134538D01*
X117887823Y-91210114D01*
X117915885Y-91273139D01*
X117935632Y-91326289D01*
X117948495Y-91372241D01*
X117955909Y-91413671D01*
X117959307Y-91453254D01*
X117960120Y-91493669D01*
X117960075Y-91507091D01*
X117959227Y-91537867D01*
X117956428Y-91568771D01*
X117950554Y-91601799D01*
X117940480Y-91638947D01*
X117925081Y-91682211D01*
X117903231Y-91733584D01*
X117873806Y-91795064D01*
X117835680Y-91868644D01*
X117787730Y-91956321D01*
X117728829Y-92060090D01*
X117657853Y-92181946D01*
X117573677Y-92323885D01*
X117475175Y-92487902D01*
X117361224Y-92675992D01*
X117230697Y-92890150D01*
X117082471Y-93132373D01*
X116915419Y-93404654D01*
X116728417Y-93708991D01*
X116520340Y-94047377D01*
X116498526Y-94082844D01*
X116278940Y-94439526D01*
X116080362Y-94761406D01*
X115901972Y-95049783D01*
X115742948Y-95305956D01*
X115602470Y-95531223D01*
X115479715Y-95726885D01*
X115373863Y-95894240D01*
X115284092Y-96034586D01*
X115209581Y-96149224D01*
X115149508Y-96239453D01*
X115103053Y-96306570D01*
X115069394Y-96351876D01*
X115047709Y-96376670D01*
X114991315Y-96423811D01*
X114880622Y-96496965D01*
X114761638Y-96557470D01*
X114652164Y-96595478D01*
X114634554Y-96597005D01*
X114575729Y-96599059D01*
X114479196Y-96601057D01*
X114347625Y-96602980D01*
X114183686Y-96604809D01*
X113990052Y-96606527D01*
X113769393Y-96608113D01*
X113524379Y-96609549D01*
X113257683Y-96610818D01*
X112971974Y-96611899D01*
X112669923Y-96612775D01*
X112354203Y-96613427D01*
X112027482Y-96613835D01*
X112007172Y-96613852D01*
X111618354Y-96614193D01*
X111269541Y-96614457D01*
X110958515Y-96614562D01*
X110683057Y-96614422D01*
X110440948Y-96613953D01*
X110229971Y-96613069D01*
X110047906Y-96611685D01*
X109892535Y-96609718D01*
X109761641Y-96607082D01*
X109653003Y-96603693D01*
X109564404Y-96599465D01*
X109493625Y-96594315D01*
X109438449Y-96588156D01*
X109396655Y-96580905D01*
X109366026Y-96572476D01*
X109344343Y-96562786D01*
X109329388Y-96551748D01*
X109318943Y-96539278D01*
X109310788Y-96525292D01*
X109302706Y-96509705D01*
X109297961Y-96501157D01*
X109290494Y-96487866D01*
X109284302Y-96474522D01*
X109280222Y-96459683D01*
X109279090Y-96441910D01*
X109281740Y-96419763D01*
X109289010Y-96391800D01*
X109301735Y-96356581D01*
X109320751Y-96312667D01*
X109346893Y-96258616D01*
X109380998Y-96192989D01*
X109423902Y-96114346D01*
X109476440Y-96021245D01*
X109539449Y-95912246D01*
X109613764Y-95785910D01*
X109700222Y-95640796D01*
X109799657Y-95475463D01*
X109912907Y-95288472D01*
X110040806Y-95078382D01*
X110184191Y-94843752D01*
X110343898Y-94583142D01*
X110520762Y-94295112D01*
X110715621Y-93978222D01*
X110929308Y-93631032D01*
X111162661Y-93252100D01*
X111416515Y-92839987D01*
X111691706Y-92393252D01*
X111715445Y-92354715D01*
X111975908Y-91932153D01*
X112225736Y-91527322D01*
X112464165Y-91141447D01*
X112690431Y-90775754D01*
X112903769Y-90431467D01*
X113103414Y-90109812D01*
X113288603Y-89812013D01*
X113458571Y-89539295D01*
X113612554Y-89292884D01*
X113749787Y-89074005D01*
X113869506Y-88883882D01*
X113970947Y-88723740D01*
X114053345Y-88594806D01*
X114115935Y-88498302D01*
X114157955Y-88435456D01*
X114178638Y-88407491D01*
X114233317Y-88357913D01*
X114355354Y-88276262D01*
X114494473Y-88211036D01*
X114634551Y-88170614D01*
X114672182Y-88165397D01*
X114760951Y-88158606D01*
X114876924Y-88153776D01*
X115011413Y-88150886D01*
X115155732Y-88149916D01*
X115301192Y-88150845D01*
G37*
X116187520Y-113928693D02*
X115409645Y-113923141D01*
X114631770Y-113917588D01*
X114621187Y-112340672D01*
X114610604Y-110763755D01*
X113324729Y-110758299D01*
X112038854Y-110752844D01*
X112038854Y-109186838D01*
X113303562Y-109186514D01*
X113522674Y-109186202D01*
X113738904Y-109185369D01*
X113939192Y-109184066D01*
X114119767Y-109182345D01*
X114276859Y-109180256D01*
X114406698Y-109177848D01*
X114505514Y-109175174D01*
X114569537Y-109172282D01*
X114594997Y-109169224D01*
X114601014Y-109159578D01*
X114607015Y-109130873D01*
X114611583Y-109080366D01*
X114614812Y-109004637D01*
X114616792Y-108900265D01*
X114617617Y-108763830D01*
X114617376Y-108591912D01*
X114616164Y-108381090D01*
X114610604Y-107609922D01*
X113087766Y-107604489D01*
X112798649Y-107603321D01*
X112532293Y-107601906D01*
X112303658Y-107600256D01*
X112110374Y-107598323D01*
X111950072Y-107596056D01*
X111820383Y-107593409D01*
X111718938Y-107590331D01*
X111643368Y-107586774D01*
X111591304Y-107582688D01*
X111560376Y-107578026D01*
X111548215Y-107572739D01*
X111547528Y-107571049D01*
X111543726Y-107537845D01*
X111540396Y-107469246D01*
X111537557Y-107371185D01*
X111535226Y-107249598D01*
X111533420Y-107110419D01*
X111532157Y-106959582D01*
X111531454Y-106803021D01*
X111531330Y-106646671D01*
X111531800Y-106496466D01*
X111532884Y-106358340D01*
X111534599Y-106238228D01*
X111536962Y-106142065D01*
X111539990Y-106075784D01*
X111543702Y-106045319D01*
X111544454Y-106043850D01*
X111551078Y-106038731D01*
X111565459Y-106034182D01*
X111589900Y-106030170D01*
X111626707Y-106026663D01*
X111678186Y-106023626D01*
X111746641Y-106021028D01*
X111834378Y-106018835D01*
X111943702Y-106017013D01*
X112076917Y-106015529D01*
X112236330Y-106014351D01*
X112424245Y-106013445D01*
X112642967Y-106012778D01*
X112894803Y-106012317D01*
X113182055Y-106012029D01*
X113507031Y-106011880D01*
X113872035Y-106011838D01*
X116187520Y-106011838D01*
X116187520Y-113928693D01*
G36*
X116187520Y-113928693D02*
G01*
X115409645Y-113923141D01*
X114631770Y-113917588D01*
X114621187Y-112340672D01*
X114610604Y-110763755D01*
X113324729Y-110758299D01*
X112038854Y-110752844D01*
X112038854Y-109186838D01*
X113303562Y-109186514D01*
X113522674Y-109186202D01*
X113738904Y-109185369D01*
X113939192Y-109184066D01*
X114119767Y-109182345D01*
X114276859Y-109180256D01*
X114406698Y-109177848D01*
X114505514Y-109175174D01*
X114569537Y-109172282D01*
X114594997Y-109169224D01*
X114601014Y-109159578D01*
X114607015Y-109130873D01*
X114611583Y-109080366D01*
X114614812Y-109004637D01*
X114616792Y-108900265D01*
X114617617Y-108763830D01*
X114617376Y-108591912D01*
X114616164Y-108381090D01*
X114610604Y-107609922D01*
X113087766Y-107604489D01*
X112798649Y-107603321D01*
X112532293Y-107601906D01*
X112303658Y-107600256D01*
X112110374Y-107598323D01*
X111950072Y-107596056D01*
X111820383Y-107593409D01*
X111718938Y-107590331D01*
X111643368Y-107586774D01*
X111591304Y-107582688D01*
X111560376Y-107578026D01*
X111548215Y-107572739D01*
X111547528Y-107571049D01*
X111543726Y-107537845D01*
X111540396Y-107469246D01*
X111537557Y-107371185D01*
X111535226Y-107249598D01*
X111533420Y-107110419D01*
X111532157Y-106959582D01*
X111531454Y-106803021D01*
X111531330Y-106646671D01*
X111531800Y-106496466D01*
X111532884Y-106358340D01*
X111534599Y-106238228D01*
X111536962Y-106142065D01*
X111539990Y-106075784D01*
X111543702Y-106045319D01*
X111544454Y-106043850D01*
X111551078Y-106038731D01*
X111565459Y-106034182D01*
X111589900Y-106030170D01*
X111626707Y-106026663D01*
X111678186Y-106023626D01*
X111746641Y-106021028D01*
X111834378Y-106018835D01*
X111943702Y-106017013D01*
X112076917Y-106015529D01*
X112236330Y-106014351D01*
X112424245Y-106013445D01*
X112642967Y-106012778D01*
X112894803Y-106012317D01*
X113182055Y-106012029D01*
X113507031Y-106011880D01*
X113872035Y-106011838D01*
X116187520Y-106011838D01*
X116187520Y-113928693D01*
G37*
X110065062Y-106016869D02*
X110842937Y-106022422D01*
X110848368Y-109948838D01*
X110848789Y-110278711D01*
X110849198Y-110674519D01*
X110849490Y-111057386D01*
X110849667Y-111425211D01*
X110849732Y-111775895D01*
X110849687Y-112107339D01*
X110849535Y-112417444D01*
X110849278Y-112704110D01*
X110848919Y-112965237D01*
X110848459Y-113198728D01*
X110847902Y-113402481D01*
X110847250Y-113574397D01*
X110846505Y-113712378D01*
X110845671Y-113814324D01*
X110844748Y-113878136D01*
X110843740Y-113901713D01*
X110834453Y-113905922D01*
X110808263Y-113909736D01*
X110763235Y-113913120D01*
X110697410Y-113916095D01*
X110608831Y-113918684D01*
X110495539Y-113920907D01*
X110355577Y-113922787D01*
X110186987Y-113924347D01*
X109987811Y-113925606D01*
X109756091Y-113926588D01*
X109489869Y-113927313D01*
X109187188Y-113927805D01*
X108846090Y-113928083D01*
X108464616Y-113928172D01*
X108290151Y-113928163D01*
X107939371Y-113928079D01*
X107627600Y-113927876D01*
X107352561Y-113927523D01*
X107111973Y-113926988D01*
X106903559Y-113926239D01*
X106725040Y-113925243D01*
X106574136Y-113923969D01*
X106448569Y-113922384D01*
X106346060Y-113920457D01*
X106264331Y-113918156D01*
X106201101Y-113915448D01*
X106154094Y-113912302D01*
X106121029Y-113908685D01*
X106099627Y-113904565D01*
X106087611Y-113899911D01*
X106082702Y-113894690D01*
X106082582Y-113894354D01*
X106079269Y-113863539D01*
X106076467Y-113796628D01*
X106074176Y-113699654D01*
X106072395Y-113578650D01*
X106071126Y-113439648D01*
X106070368Y-113288681D01*
X106070121Y-113131783D01*
X106070385Y-112974985D01*
X106071160Y-112824321D01*
X106072447Y-112685824D01*
X106074244Y-112565525D01*
X106076552Y-112469459D01*
X106079371Y-112403657D01*
X106082702Y-112374153D01*
X106083905Y-112371883D01*
X106091819Y-112365848D01*
X106108478Y-112360636D01*
X106136683Y-112356187D01*
X106179231Y-112352441D01*
X106238921Y-112349341D01*
X106318554Y-112346827D01*
X106420927Y-112344840D01*
X106548839Y-112343320D01*
X106705090Y-112342209D01*
X106892478Y-112341448D01*
X107113803Y-112340977D01*
X107371863Y-112340738D01*
X107669457Y-112340672D01*
X107838085Y-112340665D01*
X108111507Y-112340590D01*
X108347057Y-112340372D01*
X108547609Y-112339937D01*
X108716034Y-112339210D01*
X108855205Y-112338119D01*
X108967995Y-112336590D01*
X109057276Y-112334548D01*
X109125920Y-112331921D01*
X109176800Y-112328634D01*
X109212788Y-112324614D01*
X109236758Y-112319788D01*
X109251580Y-112314080D01*
X109260129Y-112307419D01*
X109265276Y-112299730D01*
X109266758Y-112293466D01*
X109270061Y-112250935D01*
X109273067Y-112169244D01*
X109275776Y-112048104D01*
X109278193Y-111887226D01*
X109280317Y-111686322D01*
X109282152Y-111445104D01*
X109283699Y-111163284D01*
X109284960Y-110840572D01*
X109285937Y-110476682D01*
X109286633Y-110071324D01*
X109287049Y-109624210D01*
X109287187Y-109135052D01*
X109287187Y-106011317D01*
X110065062Y-106016869D01*
G36*
X110065062Y-106016869D02*
G01*
X110842937Y-106022422D01*
X110848368Y-109948838D01*
X110848789Y-110278711D01*
X110849198Y-110674519D01*
X110849490Y-111057386D01*
X110849667Y-111425211D01*
X110849732Y-111775895D01*
X110849687Y-112107339D01*
X110849535Y-112417444D01*
X110849278Y-112704110D01*
X110848919Y-112965237D01*
X110848459Y-113198728D01*
X110847902Y-113402481D01*
X110847250Y-113574397D01*
X110846505Y-113712378D01*
X110845671Y-113814324D01*
X110844748Y-113878136D01*
X110843740Y-113901713D01*
X110834453Y-113905922D01*
X110808263Y-113909736D01*
X110763235Y-113913120D01*
X110697410Y-113916095D01*
X110608831Y-113918684D01*
X110495539Y-113920907D01*
X110355577Y-113922787D01*
X110186987Y-113924347D01*
X109987811Y-113925606D01*
X109756091Y-113926588D01*
X109489869Y-113927313D01*
X109187188Y-113927805D01*
X108846090Y-113928083D01*
X108464616Y-113928172D01*
X108290151Y-113928163D01*
X107939371Y-113928079D01*
X107627600Y-113927876D01*
X107352561Y-113927523D01*
X107111973Y-113926988D01*
X106903559Y-113926239D01*
X106725040Y-113925243D01*
X106574136Y-113923969D01*
X106448569Y-113922384D01*
X106346060Y-113920457D01*
X106264331Y-113918156D01*
X106201101Y-113915448D01*
X106154094Y-113912302D01*
X106121029Y-113908685D01*
X106099627Y-113904565D01*
X106087611Y-113899911D01*
X106082702Y-113894690D01*
X106082582Y-113894354D01*
X106079269Y-113863539D01*
X106076467Y-113796628D01*
X106074176Y-113699654D01*
X106072395Y-113578650D01*
X106071126Y-113439648D01*
X106070368Y-113288681D01*
X106070121Y-113131783D01*
X106070385Y-112974985D01*
X106071160Y-112824321D01*
X106072447Y-112685824D01*
X106074244Y-112565525D01*
X106076552Y-112469459D01*
X106079371Y-112403657D01*
X106082702Y-112374153D01*
X106083905Y-112371883D01*
X106091819Y-112365848D01*
X106108478Y-112360636D01*
X106136683Y-112356187D01*
X106179231Y-112352441D01*
X106238921Y-112349341D01*
X106318554Y-112346827D01*
X106420927Y-112344840D01*
X106548839Y-112343320D01*
X106705090Y-112342209D01*
X106892478Y-112341448D01*
X107113803Y-112340977D01*
X107371863Y-112340738D01*
X107669457Y-112340672D01*
X107838085Y-112340665D01*
X108111507Y-112340590D01*
X108347057Y-112340372D01*
X108547609Y-112339937D01*
X108716034Y-112339210D01*
X108855205Y-112338119D01*
X108967995Y-112336590D01*
X109057276Y-112334548D01*
X109125920Y-112331921D01*
X109176800Y-112328634D01*
X109212788Y-112324614D01*
X109236758Y-112319788D01*
X109251580Y-112314080D01*
X109260129Y-112307419D01*
X109265276Y-112299730D01*
X109266758Y-112293466D01*
X109270061Y-112250935D01*
X109273067Y-112169244D01*
X109275776Y-112048104D01*
X109278193Y-111887226D01*
X109280317Y-111686322D01*
X109282152Y-111445104D01*
X109283699Y-111163284D01*
X109284960Y-110840572D01*
X109285937Y-110476682D01*
X109286633Y-110071324D01*
X109287049Y-109624210D01*
X109287187Y-109135052D01*
X109287187Y-106011317D01*
X110065062Y-106016869D01*
G37*
X105403104Y-106022422D02*
X105408452Y-109946602D01*
X105408540Y-110012147D01*
X105409143Y-110522484D01*
X105409536Y-110991784D01*
X105409713Y-111421202D01*
X105409671Y-111811891D01*
X105409402Y-112165006D01*
X105408901Y-112481701D01*
X105408164Y-112763130D01*
X105407185Y-113010448D01*
X105405958Y-113224808D01*
X105404478Y-113407365D01*
X105402740Y-113559273D01*
X105400738Y-113681686D01*
X105398467Y-113775759D01*
X105395921Y-113842646D01*
X105393096Y-113883500D01*
X105389985Y-113899477D01*
X105385573Y-113902324D01*
X105368572Y-113906649D01*
X105337612Y-113910484D01*
X105290509Y-113913857D01*
X105225081Y-113916794D01*
X105139146Y-113919322D01*
X105030520Y-113921469D01*
X104897021Y-113923261D01*
X104736468Y-113924727D01*
X104546676Y-113925893D01*
X104325464Y-113926785D01*
X104070650Y-113927432D01*
X103780049Y-113927861D01*
X103451481Y-113928098D01*
X103082762Y-113928172D01*
X100799354Y-113928172D01*
X100799354Y-112340672D01*
X102271829Y-112340672D01*
X102371986Y-112340645D01*
X102692750Y-112340135D01*
X102972803Y-112338983D01*
X103211914Y-112337192D01*
X103409851Y-112334764D01*
X103566384Y-112331704D01*
X103681281Y-112328014D01*
X103754312Y-112323699D01*
X103785245Y-112318760D01*
X103793963Y-112313189D01*
X103803183Y-112302266D01*
X103810456Y-112283125D01*
X103816011Y-112251500D01*
X103820080Y-112203128D01*
X103822893Y-112133744D01*
X103824680Y-112039084D01*
X103825671Y-111914884D01*
X103826096Y-111756879D01*
X103826187Y-111560806D01*
X103826171Y-111513673D01*
X103825608Y-111311400D01*
X103824161Y-111147500D01*
X103821717Y-111018699D01*
X103818164Y-110921722D01*
X103813390Y-110853295D01*
X103807282Y-110810145D01*
X103799729Y-110788997D01*
X103791852Y-110781661D01*
X103777220Y-110775121D01*
X103752817Y-110769598D01*
X103715385Y-110764985D01*
X103661669Y-110761174D01*
X103588413Y-110758057D01*
X103492361Y-110755526D01*
X103370256Y-110753475D01*
X103218842Y-110751796D01*
X103034863Y-110750380D01*
X102815064Y-110749120D01*
X102556187Y-110747910D01*
X101339104Y-110742588D01*
X101333551Y-109964713D01*
X101327999Y-109186838D01*
X102543831Y-109186838D01*
X102681295Y-109186814D01*
X102921127Y-109186593D01*
X103123504Y-109186070D01*
X103291660Y-109185160D01*
X103428827Y-109183775D01*
X103538240Y-109181830D01*
X103623132Y-109179239D01*
X103686735Y-109175915D01*
X103732282Y-109171774D01*
X103763008Y-109166727D01*
X103782144Y-109160690D01*
X103792925Y-109153576D01*
X103799874Y-109144223D01*
X103807528Y-109123903D01*
X103813571Y-109090695D01*
X103818185Y-109040390D01*
X103821551Y-108968785D01*
X103823853Y-108871672D01*
X103825271Y-108744845D01*
X103825988Y-108584099D01*
X103826187Y-108385226D01*
X103825768Y-108173519D01*
X103824441Y-108000436D01*
X103822109Y-107863877D01*
X103818675Y-107760934D01*
X103814041Y-107688700D01*
X103808111Y-107644271D01*
X103800787Y-107624738D01*
X103796917Y-107622538D01*
X103772983Y-107617625D01*
X103726761Y-107613388D01*
X103656024Y-107609790D01*
X103558545Y-107606793D01*
X103432097Y-107604359D01*
X103274453Y-107602452D01*
X103083385Y-107601034D01*
X102856667Y-107600067D01*
X102592071Y-107599514D01*
X102287370Y-107599338D01*
X100799354Y-107599338D01*
X100799354Y-106011650D01*
X105403104Y-106022422D01*
G36*
X105403104Y-106022422D02*
G01*
X105408452Y-109946602D01*
X105408540Y-110012147D01*
X105409143Y-110522484D01*
X105409536Y-110991784D01*
X105409713Y-111421202D01*
X105409671Y-111811891D01*
X105409402Y-112165006D01*
X105408901Y-112481701D01*
X105408164Y-112763130D01*
X105407185Y-113010448D01*
X105405958Y-113224808D01*
X105404478Y-113407365D01*
X105402740Y-113559273D01*
X105400738Y-113681686D01*
X105398467Y-113775759D01*
X105395921Y-113842646D01*
X105393096Y-113883500D01*
X105389985Y-113899477D01*
X105385573Y-113902324D01*
X105368572Y-113906649D01*
X105337612Y-113910484D01*
X105290509Y-113913857D01*
X105225081Y-113916794D01*
X105139146Y-113919322D01*
X105030520Y-113921469D01*
X104897021Y-113923261D01*
X104736468Y-113924727D01*
X104546676Y-113925893D01*
X104325464Y-113926785D01*
X104070650Y-113927432D01*
X103780049Y-113927861D01*
X103451481Y-113928098D01*
X103082762Y-113928172D01*
X100799354Y-113928172D01*
X100799354Y-112340672D01*
X102271829Y-112340672D01*
X102371986Y-112340645D01*
X102692750Y-112340135D01*
X102972803Y-112338983D01*
X103211914Y-112337192D01*
X103409851Y-112334764D01*
X103566384Y-112331704D01*
X103681281Y-112328014D01*
X103754312Y-112323699D01*
X103785245Y-112318760D01*
X103793963Y-112313189D01*
X103803183Y-112302266D01*
X103810456Y-112283125D01*
X103816011Y-112251500D01*
X103820080Y-112203128D01*
X103822893Y-112133744D01*
X103824680Y-112039084D01*
X103825671Y-111914884D01*
X103826096Y-111756879D01*
X103826187Y-111560806D01*
X103826171Y-111513673D01*
X103825608Y-111311400D01*
X103824161Y-111147500D01*
X103821717Y-111018699D01*
X103818164Y-110921722D01*
X103813390Y-110853295D01*
X103807282Y-110810145D01*
X103799729Y-110788997D01*
X103791852Y-110781661D01*
X103777220Y-110775121D01*
X103752817Y-110769598D01*
X103715385Y-110764985D01*
X103661669Y-110761174D01*
X103588413Y-110758057D01*
X103492361Y-110755526D01*
X103370256Y-110753475D01*
X103218842Y-110751796D01*
X103034863Y-110750380D01*
X102815064Y-110749120D01*
X102556187Y-110747910D01*
X101339104Y-110742588D01*
X101333551Y-109964713D01*
X101327999Y-109186838D01*
X102543831Y-109186838D01*
X102681295Y-109186814D01*
X102921127Y-109186593D01*
X103123504Y-109186070D01*
X103291660Y-109185160D01*
X103428827Y-109183775D01*
X103538240Y-109181830D01*
X103623132Y-109179239D01*
X103686735Y-109175915D01*
X103732282Y-109171774D01*
X103763008Y-109166727D01*
X103782144Y-109160690D01*
X103792925Y-109153576D01*
X103799874Y-109144223D01*
X103807528Y-109123903D01*
X103813571Y-109090695D01*
X103818185Y-109040390D01*
X103821551Y-108968785D01*
X103823853Y-108871672D01*
X103825271Y-108744845D01*
X103825988Y-108584099D01*
X103826187Y-108385226D01*
X103825768Y-108173519D01*
X103824441Y-108000436D01*
X103822109Y-107863877D01*
X103818675Y-107760934D01*
X103814041Y-107688700D01*
X103808111Y-107644271D01*
X103800787Y-107624738D01*
X103796917Y-107622538D01*
X103772983Y-107617625D01*
X103726761Y-107613388D01*
X103656024Y-107609790D01*
X103558545Y-107606793D01*
X103432097Y-107604359D01*
X103274453Y-107602452D01*
X103083385Y-107601034D01*
X102856667Y-107600067D01*
X102592071Y-107599514D01*
X102287370Y-107599338D01*
X100799354Y-107599338D01*
X100799354Y-106011650D01*
X105403104Y-106022422D01*
G37*
X121479187Y-109955894D02*
X121479133Y-110302855D01*
X121478935Y-110698789D01*
X121478599Y-111081592D01*
X121478132Y-111449179D01*
X121477543Y-111799463D01*
X121476838Y-112130359D01*
X121476026Y-112439781D01*
X121475112Y-112725643D01*
X121474106Y-112985858D01*
X121473014Y-113218342D01*
X121471843Y-113421007D01*
X121470602Y-113591769D01*
X121469297Y-113728541D01*
X121467936Y-113829238D01*
X121466527Y-113891773D01*
X121465076Y-113914060D01*
X121465014Y-113914109D01*
X121441343Y-113916011D01*
X121378166Y-113917838D01*
X121278244Y-113919571D01*
X121144334Y-113921194D01*
X120979196Y-113922690D01*
X120785589Y-113924042D01*
X120566271Y-113925233D01*
X120324002Y-113926245D01*
X120061540Y-113927063D01*
X119781645Y-113927667D01*
X119487074Y-113928043D01*
X119180588Y-113928172D01*
X118831684Y-113928129D01*
X118508372Y-113927973D01*
X118222793Y-113927670D01*
X117972600Y-113927185D01*
X117755450Y-113926485D01*
X117568997Y-113925537D01*
X117410897Y-113924305D01*
X117278804Y-113922757D01*
X117170374Y-113920859D01*
X117083262Y-113918576D01*
X117015123Y-113915874D01*
X116963611Y-113912721D01*
X116926383Y-113909082D01*
X116901093Y-113904923D01*
X116885397Y-113900210D01*
X116876949Y-113894910D01*
X116870000Y-113885557D01*
X116862346Y-113865237D01*
X116856303Y-113832028D01*
X116851690Y-113781724D01*
X116848323Y-113710118D01*
X116846022Y-113613005D01*
X116844603Y-113486178D01*
X116843886Y-113325432D01*
X116843687Y-113126560D01*
X116844106Y-112914852D01*
X116845433Y-112741770D01*
X116847765Y-112605210D01*
X116851200Y-112502267D01*
X116855833Y-112430034D01*
X116861764Y-112385604D01*
X116869087Y-112366072D01*
X116871547Y-112364467D01*
X116893156Y-112359427D01*
X116936874Y-112355080D01*
X117004946Y-112351389D01*
X117099620Y-112348314D01*
X117223143Y-112345819D01*
X117377763Y-112343863D01*
X117565725Y-112342409D01*
X117789279Y-112341418D01*
X118050670Y-112340852D01*
X118352145Y-112340672D01*
X118438381Y-112340651D01*
X118758780Y-112340162D01*
X119038569Y-112339024D01*
X119277503Y-112337240D01*
X119475335Y-112334814D01*
X119631822Y-112331749D01*
X119746716Y-112328050D01*
X119819772Y-112323719D01*
X119850745Y-112318760D01*
X119860150Y-112312617D01*
X119869175Y-112301316D01*
X119876293Y-112281544D01*
X119881731Y-112249069D01*
X119885713Y-112199658D01*
X119888465Y-112129078D01*
X119890213Y-112033096D01*
X119891182Y-111907479D01*
X119891599Y-111747995D01*
X119891687Y-111550410D01*
X119891686Y-111536342D01*
X119891221Y-111324784D01*
X119889861Y-111152484D01*
X119887510Y-111016548D01*
X119884072Y-110914083D01*
X119879452Y-110842194D01*
X119873556Y-110797988D01*
X119866287Y-110778572D01*
X119862888Y-110776463D01*
X119838980Y-110771050D01*
X119792100Y-110766458D01*
X119719828Y-110762637D01*
X119619745Y-110759540D01*
X119489430Y-110757116D01*
X119326463Y-110755316D01*
X119128425Y-110754092D01*
X118892895Y-110753393D01*
X118617454Y-110753172D01*
X117394020Y-110753172D01*
X117394020Y-109186838D01*
X118588559Y-109186838D01*
X118603957Y-109186837D01*
X118861320Y-109186427D01*
X119094342Y-109185313D01*
X119300453Y-109183535D01*
X119477083Y-109181138D01*
X119621662Y-109178163D01*
X119731620Y-109174652D01*
X119804387Y-109170649D01*
X119837393Y-109166195D01*
X119891687Y-109145553D01*
X119891687Y-108397845D01*
X119891685Y-108382121D01*
X119891216Y-108170669D01*
X119889852Y-107998455D01*
X119887499Y-107862587D01*
X119884060Y-107760174D01*
X119879442Y-107688323D01*
X119873550Y-107644142D01*
X119866287Y-107624738D01*
X119863732Y-107623089D01*
X119841951Y-107618058D01*
X119798049Y-107613720D01*
X119729780Y-107610035D01*
X119634899Y-107606967D01*
X119511159Y-107604476D01*
X119356317Y-107602524D01*
X119168124Y-107601073D01*
X118944337Y-107600083D01*
X118682710Y-107599518D01*
X118380996Y-107599338D01*
X118378112Y-107599338D01*
X118092755Y-107599269D01*
X117846721Y-107599019D01*
X117637025Y-107598516D01*
X117460684Y-107597692D01*
X117314716Y-107596477D01*
X117196137Y-107594801D01*
X117101964Y-107592595D01*
X117029214Y-107589788D01*
X116974904Y-107586311D01*
X116936050Y-107582094D01*
X116909669Y-107577068D01*
X116892779Y-107571162D01*
X116882396Y-107564308D01*
X116877367Y-107559337D01*
X116867968Y-107545548D01*
X116860493Y-107524121D01*
X116854723Y-107490718D01*
X116850441Y-107441003D01*
X116847427Y-107370639D01*
X116845463Y-107275289D01*
X116844331Y-107150617D01*
X116843812Y-106992285D01*
X116843687Y-106795958D01*
X116844099Y-106586425D01*
X116845421Y-106413219D01*
X116847750Y-106276561D01*
X116851183Y-106173542D01*
X116855819Y-106101254D01*
X116861755Y-106056789D01*
X116869087Y-106037238D01*
X116869636Y-106036787D01*
X116885522Y-106032615D01*
X116921748Y-106028891D01*
X116980147Y-106025597D01*
X117062551Y-106022711D01*
X117170793Y-106020215D01*
X117306707Y-106018088D01*
X117472124Y-106016309D01*
X117668877Y-106014859D01*
X117898800Y-106013718D01*
X118163725Y-106012866D01*
X118465484Y-106012281D01*
X118805911Y-106011946D01*
X119186837Y-106011838D01*
X121479187Y-106011838D01*
X121479187Y-109955894D01*
G36*
X121479187Y-109955894D02*
G01*
X121479133Y-110302855D01*
X121478935Y-110698789D01*
X121478599Y-111081592D01*
X121478132Y-111449179D01*
X121477543Y-111799463D01*
X121476838Y-112130359D01*
X121476026Y-112439781D01*
X121475112Y-112725643D01*
X121474106Y-112985858D01*
X121473014Y-113218342D01*
X121471843Y-113421007D01*
X121470602Y-113591769D01*
X121469297Y-113728541D01*
X121467936Y-113829238D01*
X121466527Y-113891773D01*
X121465076Y-113914060D01*
X121465014Y-113914109D01*
X121441343Y-113916011D01*
X121378166Y-113917838D01*
X121278244Y-113919571D01*
X121144334Y-113921194D01*
X120979196Y-113922690D01*
X120785589Y-113924042D01*
X120566271Y-113925233D01*
X120324002Y-113926245D01*
X120061540Y-113927063D01*
X119781645Y-113927667D01*
X119487074Y-113928043D01*
X119180588Y-113928172D01*
X118831684Y-113928129D01*
X118508372Y-113927973D01*
X118222793Y-113927670D01*
X117972600Y-113927185D01*
X117755450Y-113926485D01*
X117568997Y-113925537D01*
X117410897Y-113924305D01*
X117278804Y-113922757D01*
X117170374Y-113920859D01*
X117083262Y-113918576D01*
X117015123Y-113915874D01*
X116963611Y-113912721D01*
X116926383Y-113909082D01*
X116901093Y-113904923D01*
X116885397Y-113900210D01*
X116876949Y-113894910D01*
X116870000Y-113885557D01*
X116862346Y-113865237D01*
X116856303Y-113832028D01*
X116851690Y-113781724D01*
X116848323Y-113710118D01*
X116846022Y-113613005D01*
X116844603Y-113486178D01*
X116843886Y-113325432D01*
X116843687Y-113126560D01*
X116844106Y-112914852D01*
X116845433Y-112741770D01*
X116847765Y-112605210D01*
X116851200Y-112502267D01*
X116855833Y-112430034D01*
X116861764Y-112385604D01*
X116869087Y-112366072D01*
X116871547Y-112364467D01*
X116893156Y-112359427D01*
X116936874Y-112355080D01*
X117004946Y-112351389D01*
X117099620Y-112348314D01*
X117223143Y-112345819D01*
X117377763Y-112343863D01*
X117565725Y-112342409D01*
X117789279Y-112341418D01*
X118050670Y-112340852D01*
X118352145Y-112340672D01*
X118438381Y-112340651D01*
X118758780Y-112340162D01*
X119038569Y-112339024D01*
X119277503Y-112337240D01*
X119475335Y-112334814D01*
X119631822Y-112331749D01*
X119746716Y-112328050D01*
X119819772Y-112323719D01*
X119850745Y-112318760D01*
X119860150Y-112312617D01*
X119869175Y-112301316D01*
X119876293Y-112281544D01*
X119881731Y-112249069D01*
X119885713Y-112199658D01*
X119888465Y-112129078D01*
X119890213Y-112033096D01*
X119891182Y-111907479D01*
X119891599Y-111747995D01*
X119891687Y-111550410D01*
X119891686Y-111536342D01*
X119891221Y-111324784D01*
X119889861Y-111152484D01*
X119887510Y-111016548D01*
X119884072Y-110914083D01*
X119879452Y-110842194D01*
X119873556Y-110797988D01*
X119866287Y-110778572D01*
X119862888Y-110776463D01*
X119838980Y-110771050D01*
X119792100Y-110766458D01*
X119719828Y-110762637D01*
X119619745Y-110759540D01*
X119489430Y-110757116D01*
X119326463Y-110755316D01*
X119128425Y-110754092D01*
X118892895Y-110753393D01*
X118617454Y-110753172D01*
X117394020Y-110753172D01*
X117394020Y-109186838D01*
X118588559Y-109186838D01*
X118603957Y-109186837D01*
X118861320Y-109186427D01*
X119094342Y-109185313D01*
X119300453Y-109183535D01*
X119477083Y-109181138D01*
X119621662Y-109178163D01*
X119731620Y-109174652D01*
X119804387Y-109170649D01*
X119837393Y-109166195D01*
X119891687Y-109145553D01*
X119891687Y-108397845D01*
X119891685Y-108382121D01*
X119891216Y-108170669D01*
X119889852Y-107998455D01*
X119887499Y-107862587D01*
X119884060Y-107760174D01*
X119879442Y-107688323D01*
X119873550Y-107644142D01*
X119866287Y-107624738D01*
X119863732Y-107623089D01*
X119841951Y-107618058D01*
X119798049Y-107613720D01*
X119729780Y-107610035D01*
X119634899Y-107606967D01*
X119511159Y-107604476D01*
X119356317Y-107602524D01*
X119168124Y-107601073D01*
X118944337Y-107600083D01*
X118682710Y-107599518D01*
X118380996Y-107599338D01*
X118378112Y-107599338D01*
X118092755Y-107599269D01*
X117846721Y-107599019D01*
X117637025Y-107598516D01*
X117460684Y-107597692D01*
X117314716Y-107596477D01*
X117196137Y-107594801D01*
X117101964Y-107592595D01*
X117029214Y-107589788D01*
X116974904Y-107586311D01*
X116936050Y-107582094D01*
X116909669Y-107577068D01*
X116892779Y-107571162D01*
X116882396Y-107564308D01*
X116877367Y-107559337D01*
X116867968Y-107545548D01*
X116860493Y-107524121D01*
X116854723Y-107490718D01*
X116850441Y-107441003D01*
X116847427Y-107370639D01*
X116845463Y-107275289D01*
X116844331Y-107150617D01*
X116843812Y-106992285D01*
X116843687Y-106795958D01*
X116844099Y-106586425D01*
X116845421Y-106413219D01*
X116847750Y-106276561D01*
X116851183Y-106173542D01*
X116855819Y-106101254D01*
X116861755Y-106056789D01*
X116869087Y-106037238D01*
X116869636Y-106036787D01*
X116885522Y-106032615D01*
X116921748Y-106028891D01*
X116980147Y-106025597D01*
X117062551Y-106022711D01*
X117170793Y-106020215D01*
X117306707Y-106018088D01*
X117472124Y-106016309D01*
X117668877Y-106014859D01*
X117898800Y-106013718D01*
X118163725Y-106012866D01*
X118465484Y-106012281D01*
X118805911Y-106011946D01*
X119186837Y-106011838D01*
X121479187Y-106011838D01*
X121479187Y-109955894D01*
G37*
X128358354Y-106052945D02*
X128354631Y-106078707D01*
X128339258Y-106096505D01*
X128319527Y-106113154D01*
X128297807Y-106154713D01*
X128282671Y-106189246D01*
X128248171Y-106257756D01*
X128204846Y-106337527D01*
X128159619Y-106416267D01*
X128119415Y-106481689D01*
X128091155Y-106521505D01*
X128075252Y-106545314D01*
X128062020Y-106589047D01*
X128059601Y-106605899D01*
X128039548Y-106637062D01*
X128021895Y-106654697D01*
X127996861Y-106696519D01*
X127988923Y-106713228D01*
X127959838Y-106768626D01*
X127924083Y-106832047D01*
X127904224Y-106866073D01*
X127840321Y-106976384D01*
X127791669Y-107062142D01*
X127753056Y-107132641D01*
X127719267Y-107197172D01*
X127701458Y-107230880D01*
X127673426Y-107279476D01*
X127656259Y-107303217D01*
X127645734Y-107317015D01*
X127620204Y-107360386D01*
X127588427Y-107420759D01*
X127579149Y-107440041D01*
X127564882Y-107471927D01*
X127551756Y-107499193D01*
X127536667Y-107522212D01*
X127516510Y-107541358D01*
X127488179Y-107557006D01*
X127448570Y-107569527D01*
X127394577Y-107579297D01*
X127323096Y-107586689D01*
X127231021Y-107592077D01*
X127115247Y-107595834D01*
X126972670Y-107598334D01*
X126800184Y-107599951D01*
X126594684Y-107601059D01*
X126353065Y-107602031D01*
X126072223Y-107603240D01*
X124685937Y-107609922D01*
X124537770Y-107683831D01*
X124524707Y-107690395D01*
X124451638Y-107728865D01*
X124393576Y-107762234D01*
X124362105Y-107783901D01*
X124341758Y-107801950D01*
X124297369Y-107836992D01*
X124280267Y-107851604D01*
X124232141Y-107904554D01*
X124175857Y-107976846D01*
X124120029Y-108056477D01*
X124073272Y-108131442D01*
X124044202Y-108189738D01*
X123996499Y-108368459D01*
X123983896Y-108554557D01*
X124005779Y-108738219D01*
X124060576Y-108912159D01*
X124146714Y-109069093D01*
X124262622Y-109201737D01*
X124324025Y-109256975D01*
X124376607Y-109302059D01*
X124417556Y-109332636D01*
X124457383Y-109356439D01*
X124506599Y-109381199D01*
X124521274Y-109388242D01*
X124574915Y-109412252D01*
X124628004Y-109431856D01*
X124685308Y-109447497D01*
X124751590Y-109459616D01*
X124831615Y-109468657D01*
X124930149Y-109475062D01*
X125051954Y-109479274D01*
X125201797Y-109481734D01*
X125384442Y-109482886D01*
X125604653Y-109483172D01*
X125609464Y-109483172D01*
X125814106Y-109483361D01*
X125980328Y-109484017D01*
X126111959Y-109485294D01*
X126212831Y-109487344D01*
X126286773Y-109490320D01*
X126337616Y-109494375D01*
X126369191Y-109499663D01*
X126385326Y-109506337D01*
X126389854Y-109514549D01*
X126380081Y-109544454D01*
X126351696Y-109602901D01*
X126309108Y-109681087D01*
X126256753Y-109770887D01*
X126199067Y-109864172D01*
X126175703Y-109905116D01*
X126147723Y-109959422D01*
X126131750Y-109990379D01*
X126094710Y-110057546D01*
X126053356Y-110128755D01*
X126030153Y-110168304D01*
X125981918Y-110253877D01*
X125941261Y-110329838D01*
X125924219Y-110361833D01*
X125890897Y-110418338D01*
X125865979Y-110453058D01*
X125852556Y-110469879D01*
X125839520Y-110499933D01*
X125837885Y-110506114D01*
X125820232Y-110543074D01*
X125787313Y-110602776D01*
X125744270Y-110675726D01*
X125727039Y-110704501D01*
X125687151Y-110774591D01*
X125659417Y-110828499D01*
X125649020Y-110856394D01*
X125648233Y-110863631D01*
X125632494Y-110880172D01*
X125613782Y-110897044D01*
X125591455Y-110938380D01*
X125577218Y-110968604D01*
X125542925Y-111032922D01*
X125502508Y-111102422D01*
X125475114Y-111147945D01*
X125439191Y-111209270D01*
X125416193Y-111250588D01*
X125409488Y-111263290D01*
X125380608Y-111315957D01*
X125345825Y-111377588D01*
X125317169Y-111428050D01*
X125272080Y-111508274D01*
X125226960Y-111589255D01*
X125189795Y-111655364D01*
X125158596Y-111709094D01*
X125140894Y-111737422D01*
X125138640Y-111740713D01*
X125118027Y-111775267D01*
X125084812Y-111834161D01*
X125045016Y-111906755D01*
X125029927Y-111934624D01*
X124978752Y-112028779D01*
X124941550Y-112096260D01*
X124913477Y-112145627D01*
X124889689Y-112185438D01*
X124865341Y-112224255D01*
X124828506Y-112286013D01*
X124793415Y-112351255D01*
X124777322Y-112382190D01*
X124740115Y-112449365D01*
X124698689Y-112520588D01*
X124675487Y-112560138D01*
X124627251Y-112645710D01*
X124586594Y-112721672D01*
X124569552Y-112753667D01*
X124536230Y-112810171D01*
X124511312Y-112844892D01*
X124497889Y-112861713D01*
X124484854Y-112891766D01*
X124483473Y-112897289D01*
X124466447Y-112933446D01*
X124434094Y-112992514D01*
X124391596Y-113064879D01*
X124311172Y-113199440D01*
X124236168Y-113328311D01*
X124175684Y-113436060D01*
X124133874Y-113515422D01*
X124117729Y-113546420D01*
X124080451Y-113613571D01*
X124038919Y-113684755D01*
X124012640Y-113729357D01*
X123975198Y-113795545D01*
X123949928Y-113843505D01*
X123927275Y-113884065D01*
X123897726Y-113924392D01*
X123884135Y-113941328D01*
X123871020Y-113971644D01*
X123860896Y-113997092D01*
X123832558Y-114051217D01*
X123790259Y-114126305D01*
X123738253Y-114214807D01*
X123680796Y-114309172D01*
X123668994Y-114329589D01*
X123640483Y-114382053D01*
X123606562Y-114446755D01*
X123585516Y-114486644D01*
X123544951Y-114559673D01*
X123511187Y-114616088D01*
X123493917Y-114644185D01*
X123454791Y-114712425D01*
X123415464Y-114785422D01*
X123394236Y-114825419D01*
X123353520Y-114898390D01*
X123319693Y-114954755D01*
X123317095Y-114958809D01*
X123285348Y-115010906D01*
X123264092Y-115050005D01*
X123241552Y-115093285D01*
X123202723Y-115159912D01*
X123158700Y-115230566D01*
X123118049Y-115291560D01*
X123089339Y-115329205D01*
X123085659Y-115331417D01*
X123078116Y-115333563D01*
X123065842Y-115335616D01*
X123047942Y-115337578D01*
X123023521Y-115339453D01*
X122991682Y-115341241D01*
X122951532Y-115342945D01*
X122902174Y-115344567D01*
X122842713Y-115346109D01*
X122772253Y-115347574D01*
X122689901Y-115348962D01*
X122594760Y-115350278D01*
X122485935Y-115351522D01*
X122362531Y-115352697D01*
X122223652Y-115353804D01*
X122068403Y-115354847D01*
X121895889Y-115355826D01*
X121705215Y-115356745D01*
X121495485Y-115357606D01*
X121265804Y-115358409D01*
X121015277Y-115359159D01*
X120743008Y-115359856D01*
X120448102Y-115360502D01*
X120129664Y-115361101D01*
X119786799Y-115361654D01*
X119418610Y-115362163D01*
X119024204Y-115362630D01*
X118602684Y-115363058D01*
X118153156Y-115363448D01*
X117674724Y-115363803D01*
X117166493Y-115364125D01*
X116627567Y-115364415D01*
X116057051Y-115364677D01*
X115454050Y-115364912D01*
X114817669Y-115365122D01*
X114147012Y-115365309D01*
X113441184Y-115365476D01*
X112699289Y-115365624D01*
X111920434Y-115365756D01*
X111103721Y-115365874D01*
X110248256Y-115365980D01*
X109353144Y-115366076D01*
X108417489Y-115366164D01*
X107440395Y-115366247D01*
X106829810Y-115366294D01*
X105873211Y-115366356D01*
X104957530Y-115366400D01*
X104081891Y-115366424D01*
X103245417Y-115366427D01*
X102447233Y-115366406D01*
X101686463Y-115366360D01*
X100962230Y-115366287D01*
X100273660Y-115366186D01*
X99619877Y-115366054D01*
X99000003Y-115365890D01*
X98413164Y-115365692D01*
X97858484Y-115365459D01*
X97335087Y-115365189D01*
X96842096Y-115364880D01*
X96378637Y-115364530D01*
X95943832Y-115364138D01*
X95536807Y-115363702D01*
X95156685Y-115363220D01*
X94802590Y-115362690D01*
X94473648Y-115362111D01*
X94168980Y-115361481D01*
X93887713Y-115360798D01*
X93628970Y-115360061D01*
X93391875Y-115359268D01*
X93175552Y-115358417D01*
X92979125Y-115357506D01*
X92801719Y-115356534D01*
X92642457Y-115355499D01*
X92500464Y-115354399D01*
X92374864Y-115353233D01*
X92264781Y-115351998D01*
X92169339Y-115350694D01*
X92087662Y-115349318D01*
X92018874Y-115347868D01*
X91962100Y-115346343D01*
X91916463Y-115344742D01*
X91881088Y-115343062D01*
X91855099Y-115341301D01*
X91837620Y-115339459D01*
X91827774Y-115337533D01*
X91824687Y-115335521D01*
X91834116Y-115311246D01*
X91864440Y-115259127D01*
X91910704Y-115188655D01*
X91967782Y-115107980D01*
X92014938Y-115043024D01*
X92078143Y-114954503D01*
X92132461Y-114876840D01*
X92169730Y-114821611D01*
X92191138Y-114791792D01*
X92239181Y-114739986D01*
X92282013Y-114710486D01*
X92287699Y-114709871D01*
X92330936Y-114708502D01*
X92415928Y-114707177D01*
X92542272Y-114705897D01*
X92709568Y-114704663D01*
X92917412Y-114703476D01*
X93165404Y-114702335D01*
X93453140Y-114701241D01*
X93780218Y-114700195D01*
X94146238Y-114699198D01*
X94550796Y-114698250D01*
X94993490Y-114697351D01*
X95473919Y-114696503D01*
X95991680Y-114695705D01*
X96546372Y-114694958D01*
X97137591Y-114694264D01*
X97764937Y-114693621D01*
X98428008Y-114693032D01*
X99126400Y-114692496D01*
X99859712Y-114692014D01*
X100627543Y-114691587D01*
X101429489Y-114691215D01*
X102265149Y-114690898D01*
X103134121Y-114690638D01*
X104036002Y-114690435D01*
X104970391Y-114690289D01*
X105936886Y-114690201D01*
X106935085Y-114690172D01*
X121534726Y-114690172D01*
X121575748Y-114631963D01*
X121577869Y-114628901D01*
X121608850Y-114578399D01*
X121649234Y-114505748D01*
X121690854Y-114425588D01*
X121699090Y-114409201D01*
X121734668Y-114340400D01*
X121762528Y-114289610D01*
X121777225Y-114266838D01*
X121786487Y-114253640D01*
X121810377Y-114210640D01*
X121840706Y-114150422D01*
X121862190Y-114106968D01*
X121888088Y-114057544D01*
X121902501Y-114034005D01*
X121916570Y-114011662D01*
X121943913Y-113962149D01*
X121978443Y-113896422D01*
X122005381Y-113844408D01*
X122071084Y-113719998D01*
X122135773Y-113600505D01*
X122193463Y-113496904D01*
X122238168Y-113420172D01*
X122246826Y-113405758D01*
X122276546Y-113353830D01*
X122293922Y-113319630D01*
X122311584Y-113277855D01*
X122330704Y-113238010D01*
X122357774Y-113187467D01*
X122399425Y-113113255D01*
X122435662Y-113048353D01*
X122482702Y-112962072D01*
X122520270Y-112891005D01*
X122538051Y-112857051D01*
X122564769Y-112808703D01*
X122579834Y-112785172D01*
X122588707Y-112771734D01*
X122612468Y-112728761D01*
X122643354Y-112668755D01*
X122665727Y-112624922D01*
X122692234Y-112575752D01*
X122706854Y-112552338D01*
X122709848Y-112548255D01*
X122729507Y-112514853D01*
X122761545Y-112456621D01*
X122800725Y-112383005D01*
X122809432Y-112366415D01*
X122892236Y-112209221D01*
X122961293Y-112079429D01*
X123021640Y-111967632D01*
X123078313Y-111864422D01*
X123113550Y-111800034D01*
X123159945Y-111713482D01*
X123197160Y-111642172D01*
X123210376Y-111616666D01*
X123252682Y-111538732D01*
X123291465Y-111471611D01*
X123308207Y-111443080D01*
X123346665Y-111374665D01*
X123393885Y-111288428D01*
X123443208Y-111196445D01*
X123471718Y-111142737D01*
X123524076Y-111044402D01*
X123571936Y-110954853D01*
X123607653Y-110888409D01*
X123629095Y-110845422D01*
X123651369Y-110773816D01*
X123642252Y-110725261D01*
X123601626Y-110695992D01*
X123593460Y-110692680D01*
X123529587Y-110655769D01*
X123445605Y-110594299D01*
X123348281Y-110514437D01*
X123244386Y-110422352D01*
X123140687Y-110324213D01*
X123043955Y-110226190D01*
X122960957Y-110134450D01*
X122898463Y-110055164D01*
X122885462Y-110036604D01*
X122785688Y-109887327D01*
X122704466Y-109753047D01*
X122646766Y-109641922D01*
X122627646Y-109600576D01*
X122598405Y-109539040D01*
X122578526Y-109499334D01*
X122567919Y-109476552D01*
X122558687Y-109442503D01*
X122551625Y-109411612D01*
X122533809Y-109362841D01*
X122513146Y-109306883D01*
X122478248Y-109176125D01*
X122447606Y-109008650D01*
X122420665Y-108801709D01*
X122410047Y-108698780D01*
X122402617Y-108592370D01*
X122401969Y-108497239D01*
X122408114Y-108396319D01*
X122421067Y-108272542D01*
X122433029Y-108176141D01*
X122462885Y-107984593D01*
X122496369Y-107832967D01*
X122533809Y-107719669D01*
X122551130Y-107672485D01*
X122558687Y-107640006D01*
X122561917Y-107623392D01*
X122579111Y-107583176D01*
X122589539Y-107562801D01*
X122615421Y-107507576D01*
X122645074Y-107440588D01*
X122647834Y-107434314D01*
X122685477Y-107360336D01*
X122739354Y-107266692D01*
X122801445Y-107166385D01*
X122863730Y-107072420D01*
X122918188Y-106997798D01*
X122978191Y-106925733D01*
X123053640Y-106841133D01*
X123134965Y-106754272D01*
X123213873Y-106673805D01*
X123282073Y-106608388D01*
X123331270Y-106566674D01*
X123343164Y-106557801D01*
X123383827Y-106526930D01*
X123437104Y-106486126D01*
X123466150Y-106464339D01*
X123518711Y-106427558D01*
X123553520Y-106406705D01*
X123555871Y-106405612D01*
X123596800Y-106383006D01*
X123648770Y-106350586D01*
X123651307Y-106348924D01*
X123707431Y-106314660D01*
X123754604Y-106289659D01*
X123785123Y-106275776D01*
X123846048Y-106247924D01*
X123917289Y-106215262D01*
X123975011Y-106190210D01*
X124032981Y-106168399D01*
X124066514Y-106160005D01*
X124076873Y-106158994D01*
X124115496Y-106141068D01*
X124129063Y-106132958D01*
X124176748Y-106115113D01*
X124241437Y-106097344D01*
X124269710Y-106090715D01*
X124360558Y-106069349D01*
X124442520Y-106049998D01*
X124456920Y-106047780D01*
X124517863Y-106043373D01*
X124620261Y-106039230D01*
X124763521Y-106035361D01*
X124947054Y-106031774D01*
X125170265Y-106028480D01*
X125432563Y-106025487D01*
X125733357Y-106022806D01*
X126072054Y-106020444D01*
X126448062Y-106018413D01*
X128358354Y-106009386D01*
X128358354Y-106052945D01*
G36*
X128358354Y-106052945D02*
G01*
X128354631Y-106078707D01*
X128339258Y-106096505D01*
X128319527Y-106113154D01*
X128297807Y-106154713D01*
X128282671Y-106189246D01*
X128248171Y-106257756D01*
X128204846Y-106337527D01*
X128159619Y-106416267D01*
X128119415Y-106481689D01*
X128091155Y-106521505D01*
X128075252Y-106545314D01*
X128062020Y-106589047D01*
X128059601Y-106605899D01*
X128039548Y-106637062D01*
X128021895Y-106654697D01*
X127996861Y-106696519D01*
X127988923Y-106713228D01*
X127959838Y-106768626D01*
X127924083Y-106832047D01*
X127904224Y-106866073D01*
X127840321Y-106976384D01*
X127791669Y-107062142D01*
X127753056Y-107132641D01*
X127719267Y-107197172D01*
X127701458Y-107230880D01*
X127673426Y-107279476D01*
X127656259Y-107303217D01*
X127645734Y-107317015D01*
X127620204Y-107360386D01*
X127588427Y-107420759D01*
X127579149Y-107440041D01*
X127564882Y-107471927D01*
X127551756Y-107499193D01*
X127536667Y-107522212D01*
X127516510Y-107541358D01*
X127488179Y-107557006D01*
X127448570Y-107569527D01*
X127394577Y-107579297D01*
X127323096Y-107586689D01*
X127231021Y-107592077D01*
X127115247Y-107595834D01*
X126972670Y-107598334D01*
X126800184Y-107599951D01*
X126594684Y-107601059D01*
X126353065Y-107602031D01*
X126072223Y-107603240D01*
X124685937Y-107609922D01*
X124537770Y-107683831D01*
X124524707Y-107690395D01*
X124451638Y-107728865D01*
X124393576Y-107762234D01*
X124362105Y-107783901D01*
X124341758Y-107801950D01*
X124297369Y-107836992D01*
X124280267Y-107851604D01*
X124232141Y-107904554D01*
X124175857Y-107976846D01*
X124120029Y-108056477D01*
X124073272Y-108131442D01*
X124044202Y-108189738D01*
X123996499Y-108368459D01*
X123983896Y-108554557D01*
X124005779Y-108738219D01*
X124060576Y-108912159D01*
X124146714Y-109069093D01*
X124262622Y-109201737D01*
X124324025Y-109256975D01*
X124376607Y-109302059D01*
X124417556Y-109332636D01*
X124457383Y-109356439D01*
X124506599Y-109381199D01*
X124521274Y-109388242D01*
X124574915Y-109412252D01*
X124628004Y-109431856D01*
X124685308Y-109447497D01*
X124751590Y-109459616D01*
X124831615Y-109468657D01*
X124930149Y-109475062D01*
X125051954Y-109479274D01*
X125201797Y-109481734D01*
X125384442Y-109482886D01*
X125604653Y-109483172D01*
X125609464Y-109483172D01*
X125814106Y-109483361D01*
X125980328Y-109484017D01*
X126111959Y-109485294D01*
X126212831Y-109487344D01*
X126286773Y-109490320D01*
X126337616Y-109494375D01*
X126369191Y-109499663D01*
X126385326Y-109506337D01*
X126389854Y-109514549D01*
X126380081Y-109544454D01*
X126351696Y-109602901D01*
X126309108Y-109681087D01*
X126256753Y-109770887D01*
X126199067Y-109864172D01*
X126175703Y-109905116D01*
X126147723Y-109959422D01*
X126131750Y-109990379D01*
X126094710Y-110057546D01*
X126053356Y-110128755D01*
X126030153Y-110168304D01*
X125981918Y-110253877D01*
X125941261Y-110329838D01*
X125924219Y-110361833D01*
X125890897Y-110418338D01*
X125865979Y-110453058D01*
X125852556Y-110469879D01*
X125839520Y-110499933D01*
X125837885Y-110506114D01*
X125820232Y-110543074D01*
X125787313Y-110602776D01*
X125744270Y-110675726D01*
X125727039Y-110704501D01*
X125687151Y-110774591D01*
X125659417Y-110828499D01*
X125649020Y-110856394D01*
X125648233Y-110863631D01*
X125632494Y-110880172D01*
X125613782Y-110897044D01*
X125591455Y-110938380D01*
X125577218Y-110968604D01*
X125542925Y-111032922D01*
X125502508Y-111102422D01*
X125475114Y-111147945D01*
X125439191Y-111209270D01*
X125416193Y-111250588D01*
X125409488Y-111263290D01*
X125380608Y-111315957D01*
X125345825Y-111377588D01*
X125317169Y-111428050D01*
X125272080Y-111508274D01*
X125226960Y-111589255D01*
X125189795Y-111655364D01*
X125158596Y-111709094D01*
X125140894Y-111737422D01*
X125138640Y-111740713D01*
X125118027Y-111775267D01*
X125084812Y-111834161D01*
X125045016Y-111906755D01*
X125029927Y-111934624D01*
X124978752Y-112028779D01*
X124941550Y-112096260D01*
X124913477Y-112145627D01*
X124889689Y-112185438D01*
X124865341Y-112224255D01*
X124828506Y-112286013D01*
X124793415Y-112351255D01*
X124777322Y-112382190D01*
X124740115Y-112449365D01*
X124698689Y-112520588D01*
X124675487Y-112560138D01*
X124627251Y-112645710D01*
X124586594Y-112721672D01*
X124569552Y-112753667D01*
X124536230Y-112810171D01*
X124511312Y-112844892D01*
X124497889Y-112861713D01*
X124484854Y-112891766D01*
X124483473Y-112897289D01*
X124466447Y-112933446D01*
X124434094Y-112992514D01*
X124391596Y-113064879D01*
X124311172Y-113199440D01*
X124236168Y-113328311D01*
X124175684Y-113436060D01*
X124133874Y-113515422D01*
X124117729Y-113546420D01*
X124080451Y-113613571D01*
X124038919Y-113684755D01*
X124012640Y-113729357D01*
X123975198Y-113795545D01*
X123949928Y-113843505D01*
X123927275Y-113884065D01*
X123897726Y-113924392D01*
X123884135Y-113941328D01*
X123871020Y-113971644D01*
X123860896Y-113997092D01*
X123832558Y-114051217D01*
X123790259Y-114126305D01*
X123738253Y-114214807D01*
X123680796Y-114309172D01*
X123668994Y-114329589D01*
X123640483Y-114382053D01*
X123606562Y-114446755D01*
X123585516Y-114486644D01*
X123544951Y-114559673D01*
X123511187Y-114616088D01*
X123493917Y-114644185D01*
X123454791Y-114712425D01*
X123415464Y-114785422D01*
X123394236Y-114825419D01*
X123353520Y-114898390D01*
X123319693Y-114954755D01*
X123317095Y-114958809D01*
X123285348Y-115010906D01*
X123264092Y-115050005D01*
X123241552Y-115093285D01*
X123202723Y-115159912D01*
X123158700Y-115230566D01*
X123118049Y-115291560D01*
X123089339Y-115329205D01*
X123085659Y-115331417D01*
X123078116Y-115333563D01*
X123065842Y-115335616D01*
X123047942Y-115337578D01*
X123023521Y-115339453D01*
X122991682Y-115341241D01*
X122951532Y-115342945D01*
X122902174Y-115344567D01*
X122842713Y-115346109D01*
X122772253Y-115347574D01*
X122689901Y-115348962D01*
X122594760Y-115350278D01*
X122485935Y-115351522D01*
X122362531Y-115352697D01*
X122223652Y-115353804D01*
X122068403Y-115354847D01*
X121895889Y-115355826D01*
X121705215Y-115356745D01*
X121495485Y-115357606D01*
X121265804Y-115358409D01*
X121015277Y-115359159D01*
X120743008Y-115359856D01*
X120448102Y-115360502D01*
X120129664Y-115361101D01*
X119786799Y-115361654D01*
X119418610Y-115362163D01*
X119024204Y-115362630D01*
X118602684Y-115363058D01*
X118153156Y-115363448D01*
X117674724Y-115363803D01*
X117166493Y-115364125D01*
X116627567Y-115364415D01*
X116057051Y-115364677D01*
X115454050Y-115364912D01*
X114817669Y-115365122D01*
X114147012Y-115365309D01*
X113441184Y-115365476D01*
X112699289Y-115365624D01*
X111920434Y-115365756D01*
X111103721Y-115365874D01*
X110248256Y-115365980D01*
X109353144Y-115366076D01*
X108417489Y-115366164D01*
X107440395Y-115366247D01*
X106829810Y-115366294D01*
X105873211Y-115366356D01*
X104957530Y-115366400D01*
X104081891Y-115366424D01*
X103245417Y-115366427D01*
X102447233Y-115366406D01*
X101686463Y-115366360D01*
X100962230Y-115366287D01*
X100273660Y-115366186D01*
X99619877Y-115366054D01*
X99000003Y-115365890D01*
X98413164Y-115365692D01*
X97858484Y-115365459D01*
X97335087Y-115365189D01*
X96842096Y-115364880D01*
X96378637Y-115364530D01*
X95943832Y-115364138D01*
X95536807Y-115363702D01*
X95156685Y-115363220D01*
X94802590Y-115362690D01*
X94473648Y-115362111D01*
X94168980Y-115361481D01*
X93887713Y-115360798D01*
X93628970Y-115360061D01*
X93391875Y-115359268D01*
X93175552Y-115358417D01*
X92979125Y-115357506D01*
X92801719Y-115356534D01*
X92642457Y-115355499D01*
X92500464Y-115354399D01*
X92374864Y-115353233D01*
X92264781Y-115351998D01*
X92169339Y-115350694D01*
X92087662Y-115349318D01*
X92018874Y-115347868D01*
X91962100Y-115346343D01*
X91916463Y-115344742D01*
X91881088Y-115343062D01*
X91855099Y-115341301D01*
X91837620Y-115339459D01*
X91827774Y-115337533D01*
X91824687Y-115335521D01*
X91834116Y-115311246D01*
X91864440Y-115259127D01*
X91910704Y-115188655D01*
X91967782Y-115107980D01*
X92014938Y-115043024D01*
X92078143Y-114954503D01*
X92132461Y-114876840D01*
X92169730Y-114821611D01*
X92191138Y-114791792D01*
X92239181Y-114739986D01*
X92282013Y-114710486D01*
X92287699Y-114709871D01*
X92330936Y-114708502D01*
X92415928Y-114707177D01*
X92542272Y-114705897D01*
X92709568Y-114704663D01*
X92917412Y-114703476D01*
X93165404Y-114702335D01*
X93453140Y-114701241D01*
X93780218Y-114700195D01*
X94146238Y-114699198D01*
X94550796Y-114698250D01*
X94993490Y-114697351D01*
X95473919Y-114696503D01*
X95991680Y-114695705D01*
X96546372Y-114694958D01*
X97137591Y-114694264D01*
X97764937Y-114693621D01*
X98428008Y-114693032D01*
X99126400Y-114692496D01*
X99859712Y-114692014D01*
X100627543Y-114691587D01*
X101429489Y-114691215D01*
X102265149Y-114690898D01*
X103134121Y-114690638D01*
X104036002Y-114690435D01*
X104970391Y-114690289D01*
X105936886Y-114690201D01*
X106935085Y-114690172D01*
X121534726Y-114690172D01*
X121575748Y-114631963D01*
X121577869Y-114628901D01*
X121608850Y-114578399D01*
X121649234Y-114505748D01*
X121690854Y-114425588D01*
X121699090Y-114409201D01*
X121734668Y-114340400D01*
X121762528Y-114289610D01*
X121777225Y-114266838D01*
X121786487Y-114253640D01*
X121810377Y-114210640D01*
X121840706Y-114150422D01*
X121862190Y-114106968D01*
X121888088Y-114057544D01*
X121902501Y-114034005D01*
X121916570Y-114011662D01*
X121943913Y-113962149D01*
X121978443Y-113896422D01*
X122005381Y-113844408D01*
X122071084Y-113719998D01*
X122135773Y-113600505D01*
X122193463Y-113496904D01*
X122238168Y-113420172D01*
X122246826Y-113405758D01*
X122276546Y-113353830D01*
X122293922Y-113319630D01*
X122311584Y-113277855D01*
X122330704Y-113238010D01*
X122357774Y-113187467D01*
X122399425Y-113113255D01*
X122435662Y-113048353D01*
X122482702Y-112962072D01*
X122520270Y-112891005D01*
X122538051Y-112857051D01*
X122564769Y-112808703D01*
X122579834Y-112785172D01*
X122588707Y-112771734D01*
X122612468Y-112728761D01*
X122643354Y-112668755D01*
X122665727Y-112624922D01*
X122692234Y-112575752D01*
X122706854Y-112552338D01*
X122709848Y-112548255D01*
X122729507Y-112514853D01*
X122761545Y-112456621D01*
X122800725Y-112383005D01*
X122809432Y-112366415D01*
X122892236Y-112209221D01*
X122961293Y-112079429D01*
X123021640Y-111967632D01*
X123078313Y-111864422D01*
X123113550Y-111800034D01*
X123159945Y-111713482D01*
X123197160Y-111642172D01*
X123210376Y-111616666D01*
X123252682Y-111538732D01*
X123291465Y-111471611D01*
X123308207Y-111443080D01*
X123346665Y-111374665D01*
X123393885Y-111288428D01*
X123443208Y-111196445D01*
X123471718Y-111142737D01*
X123524076Y-111044402D01*
X123571936Y-110954853D01*
X123607653Y-110888409D01*
X123629095Y-110845422D01*
X123651369Y-110773816D01*
X123642252Y-110725261D01*
X123601626Y-110695992D01*
X123593460Y-110692680D01*
X123529587Y-110655769D01*
X123445605Y-110594299D01*
X123348281Y-110514437D01*
X123244386Y-110422352D01*
X123140687Y-110324213D01*
X123043955Y-110226190D01*
X122960957Y-110134450D01*
X122898463Y-110055164D01*
X122885462Y-110036604D01*
X122785688Y-109887327D01*
X122704466Y-109753047D01*
X122646766Y-109641922D01*
X122627646Y-109600576D01*
X122598405Y-109539040D01*
X122578526Y-109499334D01*
X122567919Y-109476552D01*
X122558687Y-109442503D01*
X122551625Y-109411612D01*
X122533809Y-109362841D01*
X122513146Y-109306883D01*
X122478248Y-109176125D01*
X122447606Y-109008650D01*
X122420665Y-108801709D01*
X122410047Y-108698780D01*
X122402617Y-108592370D01*
X122401969Y-108497239D01*
X122408114Y-108396319D01*
X122421067Y-108272542D01*
X122433029Y-108176141D01*
X122462885Y-107984593D01*
X122496369Y-107832967D01*
X122533809Y-107719669D01*
X122551130Y-107672485D01*
X122558687Y-107640006D01*
X122561917Y-107623392D01*
X122579111Y-107583176D01*
X122589539Y-107562801D01*
X122615421Y-107507576D01*
X122645074Y-107440588D01*
X122647834Y-107434314D01*
X122685477Y-107360336D01*
X122739354Y-107266692D01*
X122801445Y-107166385D01*
X122863730Y-107072420D01*
X122918188Y-106997798D01*
X122978191Y-106925733D01*
X123053640Y-106841133D01*
X123134965Y-106754272D01*
X123213873Y-106673805D01*
X123282073Y-106608388D01*
X123331270Y-106566674D01*
X123343164Y-106557801D01*
X123383827Y-106526930D01*
X123437104Y-106486126D01*
X123466150Y-106464339D01*
X123518711Y-106427558D01*
X123553520Y-106406705D01*
X123555871Y-106405612D01*
X123596800Y-106383006D01*
X123648770Y-106350586D01*
X123651307Y-106348924D01*
X123707431Y-106314660D01*
X123754604Y-106289659D01*
X123785123Y-106275776D01*
X123846048Y-106247924D01*
X123917289Y-106215262D01*
X123975011Y-106190210D01*
X124032981Y-106168399D01*
X124066514Y-106160005D01*
X124076873Y-106158994D01*
X124115496Y-106141068D01*
X124129063Y-106132958D01*
X124176748Y-106115113D01*
X124241437Y-106097344D01*
X124269710Y-106090715D01*
X124360558Y-106069349D01*
X124442520Y-106049998D01*
X124456920Y-106047780D01*
X124517863Y-106043373D01*
X124620261Y-106039230D01*
X124763521Y-106035361D01*
X124947054Y-106031774D01*
X125170265Y-106028480D01*
X125432563Y-106025487D01*
X125733357Y-106022806D01*
X126072054Y-106020444D01*
X126448062Y-106018413D01*
X128358354Y-106009386D01*
X128358354Y-106052945D01*
G37*
X106181426Y-104613596D02*
X106935124Y-104613649D01*
X107694278Y-104613731D01*
X108457721Y-104613842D01*
X109224288Y-104613981D01*
X109992814Y-104614148D01*
X110762132Y-104614343D01*
X111531078Y-104614566D01*
X112298486Y-104614816D01*
X113063191Y-104615092D01*
X113824025Y-104615396D01*
X114579825Y-104615725D01*
X115329425Y-104616081D01*
X116071658Y-104616463D01*
X116805360Y-104616869D01*
X117529364Y-104617301D01*
X118242506Y-104617758D01*
X118943620Y-104618239D01*
X119631539Y-104618744D01*
X120305099Y-104619274D01*
X120963134Y-104619827D01*
X121604478Y-104620403D01*
X122227966Y-104621002D01*
X122832432Y-104621624D01*
X123416711Y-104622268D01*
X123979637Y-104622934D01*
X124520044Y-104623622D01*
X125036767Y-104624331D01*
X125528640Y-104625062D01*
X125994499Y-104625813D01*
X126433176Y-104626585D01*
X126843507Y-104627377D01*
X127224326Y-104628189D01*
X127574467Y-104629021D01*
X127892765Y-104629872D01*
X128178055Y-104630742D01*
X128429170Y-104631630D01*
X128644945Y-104632537D01*
X128824215Y-104633463D01*
X128965814Y-104634406D01*
X129068576Y-104635366D01*
X129131336Y-104636344D01*
X129152928Y-104637339D01*
X129155314Y-104658043D01*
X129137254Y-104695547D01*
X129129840Y-104705323D01*
X129098976Y-104754560D01*
X129066389Y-104815599D01*
X129056123Y-104835872D01*
X129024206Y-104892077D01*
X128998645Y-104928236D01*
X128985173Y-104945355D01*
X128972187Y-104975865D01*
X128967699Y-104991683D01*
X128944828Y-105037539D01*
X128909341Y-105097854D01*
X128868887Y-105160461D01*
X128831118Y-105213190D01*
X128803684Y-105243873D01*
X128802694Y-105244271D01*
X128788475Y-105245854D01*
X128757368Y-105247374D01*
X128708666Y-105248835D01*
X128641664Y-105250236D01*
X128555653Y-105251579D01*
X128449928Y-105252865D01*
X128323780Y-105254095D01*
X128176504Y-105255270D01*
X128007393Y-105256392D01*
X127815739Y-105257460D01*
X127600837Y-105258477D01*
X127361978Y-105259443D01*
X127098457Y-105260360D01*
X126809567Y-105261229D01*
X126494600Y-105262050D01*
X126152849Y-105262824D01*
X125783609Y-105263554D01*
X125386172Y-105264240D01*
X124959831Y-105264882D01*
X124503880Y-105265483D01*
X124017612Y-105266043D01*
X123500319Y-105266563D01*
X122951296Y-105267044D01*
X122369834Y-105267488D01*
X121755229Y-105267896D01*
X121106771Y-105268268D01*
X120423756Y-105268605D01*
X119705475Y-105268910D01*
X118951223Y-105269182D01*
X118160291Y-105269423D01*
X117331974Y-105269634D01*
X116465565Y-105269816D01*
X115560357Y-105269971D01*
X114615642Y-105270098D01*
X113630715Y-105270200D01*
X112604868Y-105270278D01*
X111537395Y-105270332D01*
X111332748Y-105270340D01*
X110203745Y-105270419D01*
X109111675Y-105270547D01*
X108056729Y-105270724D01*
X107039101Y-105270949D01*
X106058983Y-105271223D01*
X105116569Y-105271546D01*
X104212051Y-105271916D01*
X103345622Y-105272334D01*
X102517475Y-105272800D01*
X101727803Y-105273313D01*
X100976800Y-105273873D01*
X100264657Y-105274480D01*
X99591568Y-105275134D01*
X98957725Y-105275834D01*
X98363323Y-105276580D01*
X97808552Y-105277372D01*
X97293607Y-105278209D01*
X96818681Y-105279093D01*
X96383966Y-105280021D01*
X95989655Y-105280994D01*
X95635941Y-105282012D01*
X95323017Y-105283074D01*
X95051076Y-105284180D01*
X94820311Y-105285331D01*
X94630914Y-105286525D01*
X94483079Y-105287763D01*
X94376999Y-105289043D01*
X94312867Y-105290367D01*
X94290874Y-105291734D01*
X94290990Y-105325757D01*
X94313187Y-105377970D01*
X94351675Y-105434448D01*
X94376259Y-105464445D01*
X94412619Y-105511283D01*
X94438770Y-105550069D01*
X94441570Y-105554542D01*
X94501600Y-105647835D01*
X94558700Y-105732142D01*
X94608025Y-105800715D01*
X94644729Y-105846808D01*
X94663968Y-105863672D01*
X94668720Y-105864438D01*
X94682187Y-105885732D01*
X94684370Y-105897771D01*
X94704338Y-105933357D01*
X94707722Y-105937485D01*
X94733850Y-105972225D01*
X94775603Y-106029650D01*
X94826160Y-106100200D01*
X94878698Y-106174314D01*
X94926394Y-106242432D01*
X94962426Y-106294995D01*
X94965120Y-106298997D01*
X95001754Y-106352140D01*
X95049522Y-106419968D01*
X95101343Y-106492608D01*
X95150136Y-106560184D01*
X95188820Y-106612824D01*
X95210314Y-106640653D01*
X95220405Y-106653708D01*
X95232520Y-106679303D01*
X95232609Y-106679994D01*
X95246446Y-106704380D01*
X95279283Y-106751727D01*
X95324525Y-106812488D01*
X95373116Y-106877698D01*
X95428585Y-106955792D01*
X95470824Y-107019166D01*
X95487475Y-107045006D01*
X95525823Y-107100022D01*
X95554628Y-107135583D01*
X95571241Y-107154665D01*
X95598606Y-107197172D01*
X95609815Y-107216416D01*
X95642374Y-107265888D01*
X95689593Y-107334478D01*
X95745588Y-107413521D01*
X95779270Y-107460552D01*
X95847784Y-107556761D01*
X95912437Y-107648158D01*
X95962770Y-107719986D01*
X95974778Y-107737224D01*
X96032440Y-107819312D01*
X96099523Y-107914026D01*
X96163854Y-108004164D01*
X96189162Y-108039512D01*
X96242277Y-108114092D01*
X96285745Y-108175640D01*
X96312020Y-108213496D01*
X96328864Y-108238302D01*
X96396287Y-108334957D01*
X96458801Y-108420720D01*
X96511762Y-108489509D01*
X96550525Y-108535242D01*
X96570444Y-108551838D01*
X96596142Y-108539395D01*
X96642669Y-108493709D01*
X96703027Y-108418489D01*
X96773850Y-108317986D01*
X96851770Y-108196455D01*
X96864448Y-108177022D01*
X96894104Y-108137284D01*
X96910666Y-108116440D01*
X96941949Y-108072890D01*
X96961402Y-108044739D01*
X97000814Y-107988579D01*
X97052115Y-107915923D01*
X97108538Y-107836332D01*
X97163317Y-107759367D01*
X97209685Y-107694588D01*
X97285229Y-107589247D01*
X97369377Y-107470870D01*
X97428985Y-107385491D01*
X97464454Y-107332530D01*
X97476187Y-107311409D01*
X97478708Y-107303805D01*
X97498393Y-107275653D01*
X97503305Y-107269640D01*
X97531665Y-107231991D01*
X97574698Y-107172791D01*
X97625193Y-107101922D01*
X97642282Y-107077774D01*
X97690940Y-107009694D01*
X97729615Y-106956542D01*
X97751153Y-106928190D01*
X97760791Y-106915485D01*
X97772520Y-106891771D01*
X97776917Y-106882979D01*
X97801407Y-106845927D01*
X97842579Y-106787719D01*
X97894923Y-106716253D01*
X97922391Y-106679082D01*
X97979211Y-106600877D01*
X98026892Y-106533578D01*
X98057268Y-106488638D01*
X98060028Y-106484305D01*
X98092242Y-106435902D01*
X98115766Y-106403972D01*
X98120167Y-106398463D01*
X98146818Y-106362408D01*
X98188374Y-106304413D01*
X98237924Y-106234088D01*
X98241875Y-106228409D01*
X98276098Y-106177213D01*
X98304173Y-106134700D01*
X98330139Y-106100071D01*
X98358036Y-106072530D01*
X98391902Y-106051277D01*
X98435779Y-106035514D01*
X98493703Y-106024443D01*
X98569716Y-106017265D01*
X98667856Y-106013183D01*
X98792163Y-106011397D01*
X98946675Y-106011110D01*
X99135433Y-106011523D01*
X99362475Y-106011838D01*
X99575888Y-106012176D01*
X99796830Y-106013445D01*
X99980587Y-106015637D01*
X100126131Y-106018728D01*
X100232434Y-106022695D01*
X100298468Y-106027516D01*
X100323204Y-106033167D01*
X100325849Y-106049633D01*
X100308578Y-106083490D01*
X100289011Y-106105827D01*
X100254092Y-106152120D01*
X100234639Y-106180271D01*
X100195227Y-106236431D01*
X100143926Y-106309086D01*
X100087503Y-106388677D01*
X100032724Y-106465643D01*
X99986356Y-106530422D01*
X99922058Y-106620072D01*
X99843229Y-106731028D01*
X99785857Y-106813492D01*
X99747680Y-106870799D01*
X99726433Y-106906287D01*
X99719854Y-106923291D01*
X99719563Y-106927078D01*
X99703979Y-106943277D01*
X99691456Y-106953922D01*
X99659754Y-106992249D01*
X99616094Y-107050286D01*
X99566782Y-107119365D01*
X99518127Y-107190818D01*
X99476437Y-107255975D01*
X99463383Y-107275576D01*
X99427354Y-107320956D01*
X99399047Y-107356166D01*
X99364044Y-107406516D01*
X99361507Y-107410425D01*
X99332757Y-107452849D01*
X99286179Y-107519957D01*
X99227641Y-107603340D01*
X99163013Y-107694588D01*
X99096172Y-107788698D01*
X99012897Y-107906257D01*
X98932763Y-108019667D01*
X98866490Y-108113772D01*
X98754782Y-108272619D01*
X98618142Y-108466256D01*
X98501666Y-108630469D01*
X98406639Y-108763449D01*
X98334348Y-108863383D01*
X98325204Y-108875998D01*
X98281025Y-108940061D01*
X98249938Y-108990332D01*
X98238187Y-109016841D01*
X98237678Y-109022322D01*
X98222312Y-109038816D01*
X98215659Y-109042119D01*
X98188889Y-109070412D01*
X98154147Y-109118191D01*
X98129982Y-109153676D01*
X98081764Y-109222255D01*
X98021978Y-109305740D01*
X97958355Y-109393271D01*
X97905851Y-109465709D01*
X97858635Y-109532532D01*
X97826634Y-109579808D01*
X97814854Y-109600315D01*
X97811809Y-109606902D01*
X97789272Y-109641286D01*
X97749574Y-109697097D01*
X97698437Y-109766183D01*
X97651982Y-109832538D01*
X97606585Y-109911918D01*
X97581968Y-109975669D01*
X97580159Y-110018097D01*
X97603187Y-110033505D01*
X97609189Y-110034443D01*
X97624354Y-110056279D01*
X97624530Y-110057894D01*
X97639312Y-110087933D01*
X97673208Y-110139640D01*
X97719604Y-110202838D01*
X97726302Y-110211573D01*
X97771169Y-110271789D01*
X97802850Y-110317257D01*
X97814854Y-110338715D01*
X97814901Y-110339082D01*
X97828048Y-110361738D01*
X97861205Y-110411053D01*
X97909563Y-110480037D01*
X97968312Y-110561701D01*
X98023005Y-110637296D01*
X98096560Y-110740053D01*
X98164469Y-110836016D01*
X98217020Y-110911524D01*
X98224413Y-110922292D01*
X98274715Y-110994852D01*
X98318880Y-111057467D01*
X98348080Y-111097604D01*
X98394328Y-111160567D01*
X98465457Y-111260871D01*
X98558964Y-111395176D01*
X98674369Y-111562797D01*
X98729805Y-111641637D01*
X98779109Y-111707896D01*
X98815599Y-111752704D01*
X98833945Y-111769172D01*
X98841394Y-111771754D01*
X98852020Y-111798053D01*
X98854348Y-111808449D01*
X98876735Y-111848968D01*
X98915182Y-111898595D01*
X98932926Y-111919416D01*
X98965580Y-111962548D01*
X98978682Y-111987738D01*
X98978762Y-111988492D01*
X98992541Y-112014847D01*
X99025370Y-112063781D01*
X99070587Y-112125321D01*
X99071414Y-112126407D01*
X99119058Y-112191582D01*
X99156520Y-112247609D01*
X99175756Y-112282463D01*
X99186482Y-112302333D01*
X99211190Y-112319505D01*
X99216981Y-112320298D01*
X99233020Y-112341565D01*
X99235203Y-112353605D01*
X99255171Y-112389190D01*
X99258555Y-112393318D01*
X99284683Y-112428059D01*
X99326436Y-112485484D01*
X99376993Y-112556033D01*
X99429531Y-112630147D01*
X99477227Y-112698266D01*
X99513259Y-112750829D01*
X99519505Y-112760062D01*
X99555284Y-112811732D01*
X99602022Y-112878060D01*
X99652668Y-112949180D01*
X99700173Y-113015226D01*
X99737484Y-113066334D01*
X99757553Y-113092638D01*
X99758957Y-113094316D01*
X99783917Y-113128455D01*
X99816467Y-113177305D01*
X99844951Y-113220192D01*
X99891318Y-113287567D01*
X99941770Y-113359076D01*
X99986284Y-113421722D01*
X100029832Y-113483837D01*
X100058520Y-113525712D01*
X100084564Y-113562171D01*
X100116729Y-113601170D01*
X100130367Y-113617292D01*
X100143187Y-113641818D01*
X100154333Y-113663010D01*
X100184816Y-113708140D01*
X100227854Y-113766961D01*
X100269148Y-113824793D01*
X100300520Y-113875190D01*
X100312520Y-113903637D01*
X100312433Y-113904231D01*
X100298759Y-113910365D01*
X100260066Y-113915473D01*
X100193880Y-113919619D01*
X100097728Y-113922869D01*
X99969138Y-113925285D01*
X99805638Y-113926931D01*
X99604753Y-113927872D01*
X99364012Y-113928172D01*
X99339980Y-113928175D01*
X99115926Y-113928517D01*
X98929794Y-113928855D01*
X98777574Y-113928401D01*
X98655256Y-113926366D01*
X98558828Y-113921960D01*
X98484280Y-113914395D01*
X98427601Y-113902882D01*
X98384781Y-113886632D01*
X98351809Y-113864857D01*
X98324675Y-113836766D01*
X98299366Y-113801572D01*
X98271874Y-113758485D01*
X98238187Y-113706716D01*
X98233203Y-113699370D01*
X98178673Y-113621481D01*
X98125686Y-113549552D01*
X98085067Y-113498310D01*
X98071430Y-113481956D01*
X98039699Y-113439517D01*
X98026859Y-113414939D01*
X98026721Y-113413955D01*
X98012829Y-113387417D01*
X97980650Y-113337786D01*
X97936562Y-113274951D01*
X97887015Y-113206153D01*
X97843219Y-113144628D01*
X97814854Y-113103970D01*
X97789582Y-113067668D01*
X97756005Y-113021708D01*
X97750790Y-113014754D01*
X97720518Y-112973047D01*
X97675940Y-112910597D01*
X97624697Y-112838088D01*
X97607257Y-112813325D01*
X97559779Y-112746256D01*
X97522965Y-112694751D01*
X97503630Y-112668364D01*
X97488573Y-112647412D01*
X97453943Y-112597680D01*
X97405895Y-112527931D01*
X97349926Y-112446114D01*
X97299969Y-112373154D01*
X97250586Y-112301715D01*
X97213916Y-112249436D01*
X97195484Y-112224255D01*
X97188922Y-112215767D01*
X97160476Y-112176897D01*
X97117839Y-112117508D01*
X97067841Y-112047219D01*
X97017308Y-111975646D01*
X96973068Y-111912407D01*
X96941949Y-111867120D01*
X96923247Y-111840502D01*
X96894104Y-111802726D01*
X96881649Y-111787082D01*
X96851770Y-111744108D01*
X96762539Y-111606670D01*
X96683815Y-111498062D01*
X96621564Y-111427928D01*
X96575611Y-111396075D01*
X96545783Y-111402309D01*
X96542372Y-111406298D01*
X96507859Y-111449382D01*
X96463797Y-111507433D01*
X96417241Y-111570735D01*
X96375249Y-111629573D01*
X96344879Y-111674231D01*
X96333187Y-111694992D01*
X96329396Y-111705999D01*
X96306729Y-111736340D01*
X96282759Y-111764767D01*
X96248520Y-111812034D01*
X96237774Y-111827805D01*
X96201579Y-111879105D01*
X96151527Y-111948774D01*
X96095062Y-112026412D01*
X96062474Y-112071364D01*
X96016592Y-112136345D01*
X95985070Y-112183240D01*
X95973354Y-112204100D01*
X95971020Y-112211999D01*
X95951826Y-112241023D01*
X95939377Y-112256224D01*
X95899897Y-112307149D01*
X95852661Y-112370507D01*
X95804329Y-112437058D01*
X95761561Y-112497566D01*
X95731015Y-112542791D01*
X95719354Y-112563496D01*
X95715543Y-112574194D01*
X95692895Y-112604173D01*
X95669285Y-112631882D01*
X95634687Y-112678699D01*
X95634672Y-112678722D01*
X95606345Y-112719435D01*
X95562628Y-112781070D01*
X95512979Y-112850293D01*
X95508487Y-112856545D01*
X95465257Y-112919586D01*
X95434643Y-112969319D01*
X95423020Y-112995453D01*
X95420060Y-113006276D01*
X95394602Y-113032828D01*
X95392550Y-113034145D01*
X95361359Y-113065294D01*
X95326652Y-113113255D01*
X95296433Y-113158608D01*
X95248796Y-113225831D01*
X95196320Y-113296855D01*
X95192684Y-113301675D01*
X95148632Y-113361896D01*
X95117391Y-113407891D01*
X95105520Y-113430040D01*
X95103180Y-113438673D01*
X95083751Y-113468690D01*
X95071544Y-113484341D01*
X95037385Y-113530450D01*
X94989351Y-113596588D01*
X94933713Y-113674172D01*
X94928719Y-113681208D01*
X94888729Y-113739470D01*
X94855755Y-113787869D01*
X94825687Y-113827309D01*
X94794413Y-113858695D01*
X94757821Y-113882934D01*
X94711799Y-113900931D01*
X94652237Y-113913590D01*
X94575022Y-113921818D01*
X94476043Y-113926520D01*
X94351189Y-113928600D01*
X94196348Y-113928966D01*
X94007408Y-113928521D01*
X93780259Y-113928172D01*
X93731909Y-113928161D01*
X93501619Y-113927761D01*
X93310541Y-113926724D01*
X93156051Y-113924982D01*
X93035530Y-113922466D01*
X92946354Y-113919105D01*
X92885902Y-113914830D01*
X92851554Y-113909573D01*
X92840687Y-113903262D01*
X92840695Y-113902842D01*
X92853633Y-113870063D01*
X92888544Y-113809996D01*
X92941527Y-113728635D01*
X93008685Y-113631974D01*
X93086118Y-113526005D01*
X93095343Y-113513608D01*
X93153167Y-113434080D01*
X93219541Y-113340587D01*
X93281867Y-113250838D01*
X93288479Y-113241189D01*
X93356647Y-113142659D01*
X93431030Y-113036444D01*
X93496665Y-112943922D01*
X93513105Y-112920953D01*
X93563724Y-112849977D01*
X93604982Y-112791765D01*
X93629208Y-112757125D01*
X93647050Y-112731640D01*
X93682703Y-112683042D01*
X93688040Y-112675930D01*
X93718697Y-112633804D01*
X93764092Y-112570519D01*
X93816893Y-112496386D01*
X93869769Y-112421719D01*
X93915390Y-112356830D01*
X93946426Y-112312032D01*
X93956591Y-112297434D01*
X93990877Y-112249283D01*
X94039293Y-112181998D01*
X94094812Y-112105361D01*
X94127708Y-112059662D01*
X94173441Y-111994371D01*
X94204849Y-111947198D01*
X94216520Y-111926113D01*
X94220367Y-111915987D01*
X94242979Y-111886670D01*
X94261998Y-111864840D01*
X94296115Y-111819390D01*
X94301276Y-111811817D01*
X94331575Y-111768297D01*
X94376441Y-111704578D01*
X94428187Y-111631588D01*
X94444225Y-111609019D01*
X94494686Y-111537724D01*
X94535925Y-111479051D01*
X94560259Y-111443917D01*
X94569221Y-111430851D01*
X94602319Y-111383381D01*
X94649388Y-111316405D01*
X94703354Y-111240005D01*
X94729459Y-111203099D01*
X94782252Y-111128235D01*
X94825419Y-111066726D01*
X94851520Y-111029156D01*
X94853450Y-111026342D01*
X94883271Y-110983659D01*
X94927928Y-110920506D01*
X94978520Y-110849475D01*
X94983804Y-110842079D01*
X95034228Y-110771051D01*
X95077773Y-110708995D01*
X95105520Y-110668610D01*
X95131028Y-110632667D01*
X95159847Y-110597120D01*
X95161380Y-110595455D01*
X95188908Y-110559735D01*
X95222506Y-110509755D01*
X95252965Y-110464435D01*
X95300818Y-110397198D01*
X95353388Y-110326154D01*
X95356384Y-110322180D01*
X95400733Y-110260501D01*
X95432216Y-110211525D01*
X95444187Y-110185544D01*
X95447907Y-110174513D01*
X95475937Y-110152850D01*
X95490607Y-110143825D01*
X95507687Y-110110844D01*
X95512522Y-110091062D01*
X95539437Y-110054672D01*
X95554558Y-110041181D01*
X95569380Y-110021778D01*
X95575216Y-109998198D01*
X95570108Y-109966659D01*
X95552103Y-109923379D01*
X95519245Y-109864576D01*
X95469579Y-109786469D01*
X95401149Y-109685276D01*
X95312001Y-109557215D01*
X95200178Y-109398505D01*
X95136776Y-109308473D01*
X95069426Y-109212323D01*
X95010547Y-109127762D01*
X94968148Y-109066261D01*
X94931940Y-109014225D01*
X94892454Y-108959889D01*
X94867015Y-108927784D01*
X94852580Y-108910712D01*
X94819770Y-108864690D01*
X94814077Y-108855732D01*
X94785350Y-108812593D01*
X94742048Y-108748954D01*
X94691139Y-108675084D01*
X94680007Y-108659025D01*
X94618883Y-108570729D01*
X94558766Y-108483731D01*
X94511223Y-108414769D01*
X94478054Y-108367566D01*
X94437532Y-108312593D01*
X94410444Y-108279097D01*
X94401459Y-108268575D01*
X94367914Y-108223168D01*
X94329786Y-108165846D01*
X94317157Y-108146330D01*
X94273019Y-108081115D01*
X94216613Y-108000391D01*
X94157029Y-107917237D01*
X94134534Y-107886172D01*
X94060365Y-107782753D01*
X93980806Y-107670693D01*
X93909604Y-107569323D01*
X93868366Y-107510267D01*
X93791198Y-107400097D01*
X93709222Y-107283386D01*
X93634437Y-107177228D01*
X93583428Y-107104720D01*
X93511063Y-107001181D01*
X93443670Y-106904074D01*
X93391020Y-106827440D01*
X93380684Y-106812304D01*
X93333657Y-106744521D01*
X93295283Y-106690871D01*
X93273045Y-106661853D01*
X93268214Y-106656004D01*
X93239922Y-106618386D01*
X93197141Y-106559078D01*
X93147088Y-106488041D01*
X93143143Y-106482383D01*
X93080214Y-106392555D01*
X93013979Y-106298636D01*
X92958147Y-106220070D01*
X92904187Y-106143813D01*
X92838078Y-106049108D01*
X92777187Y-105960750D01*
X92768746Y-105948414D01*
X92719483Y-105877281D01*
X92677171Y-105817507D01*
X92650187Y-105780951D01*
X92624496Y-105746949D01*
X92586687Y-105693614D01*
X92585705Y-105692161D01*
X92546633Y-105635469D01*
X92497150Y-105565128D01*
X92444186Y-105490810D01*
X92394674Y-105422184D01*
X92355543Y-105368920D01*
X92333727Y-105340690D01*
X92323481Y-105327738D01*
X92311520Y-105304934D01*
X92300397Y-105285584D01*
X92270497Y-105240427D01*
X92227869Y-105178180D01*
X92178567Y-105107518D01*
X92128643Y-105037114D01*
X92084148Y-104975641D01*
X92051135Y-104931773D01*
X92050011Y-104930328D01*
X92024290Y-104895290D01*
X91983520Y-104837935D01*
X91935999Y-104769924D01*
X91897407Y-104712482D01*
X91871276Y-104666110D01*
X91866250Y-104640181D01*
X91879521Y-104627615D01*
X91888443Y-104627028D01*
X91936490Y-104626068D01*
X92024960Y-104625146D01*
X92152686Y-104624262D01*
X92318504Y-104623415D01*
X92521248Y-104622606D01*
X92759752Y-104621834D01*
X93032851Y-104621098D01*
X93339379Y-104620399D01*
X93678170Y-104619736D01*
X94048059Y-104619108D01*
X94447881Y-104618516D01*
X94876469Y-104617959D01*
X95332659Y-104617437D01*
X95815284Y-104616950D01*
X96323180Y-104616496D01*
X96855180Y-104616077D01*
X97410118Y-104615691D01*
X97986831Y-104615339D01*
X98584150Y-104615019D01*
X99200912Y-104614733D01*
X99835951Y-104614478D01*
X100488101Y-104614256D01*
X101156196Y-104614065D01*
X101839071Y-104613906D01*
X102535560Y-104613779D01*
X103244498Y-104613682D01*
X103964719Y-104613615D01*
X104695058Y-104613579D01*
X105434349Y-104613573D01*
X106181426Y-104613596D01*
G36*
X106181426Y-104613596D02*
G01*
X106935124Y-104613649D01*
X107694278Y-104613731D01*
X108457721Y-104613842D01*
X109224288Y-104613981D01*
X109992814Y-104614148D01*
X110762132Y-104614343D01*
X111531078Y-104614566D01*
X112298486Y-104614816D01*
X113063191Y-104615092D01*
X113824025Y-104615396D01*
X114579825Y-104615725D01*
X115329425Y-104616081D01*
X116071658Y-104616463D01*
X116805360Y-104616869D01*
X117529364Y-104617301D01*
X118242506Y-104617758D01*
X118943620Y-104618239D01*
X119631539Y-104618744D01*
X120305099Y-104619274D01*
X120963134Y-104619827D01*
X121604478Y-104620403D01*
X122227966Y-104621002D01*
X122832432Y-104621624D01*
X123416711Y-104622268D01*
X123979637Y-104622934D01*
X124520044Y-104623622D01*
X125036767Y-104624331D01*
X125528640Y-104625062D01*
X125994499Y-104625813D01*
X126433176Y-104626585D01*
X126843507Y-104627377D01*
X127224326Y-104628189D01*
X127574467Y-104629021D01*
X127892765Y-104629872D01*
X128178055Y-104630742D01*
X128429170Y-104631630D01*
X128644945Y-104632537D01*
X128824215Y-104633463D01*
X128965814Y-104634406D01*
X129068576Y-104635366D01*
X129131336Y-104636344D01*
X129152928Y-104637339D01*
X129155314Y-104658043D01*
X129137254Y-104695547D01*
X129129840Y-104705323D01*
X129098976Y-104754560D01*
X129066389Y-104815599D01*
X129056123Y-104835872D01*
X129024206Y-104892077D01*
X128998645Y-104928236D01*
X128985173Y-104945355D01*
X128972187Y-104975865D01*
X128967699Y-104991683D01*
X128944828Y-105037539D01*
X128909341Y-105097854D01*
X128868887Y-105160461D01*
X128831118Y-105213190D01*
X128803684Y-105243873D01*
X128802694Y-105244271D01*
X128788475Y-105245854D01*
X128757368Y-105247374D01*
X128708666Y-105248835D01*
X128641664Y-105250236D01*
X128555653Y-105251579D01*
X128449928Y-105252865D01*
X128323780Y-105254095D01*
X128176504Y-105255270D01*
X128007393Y-105256392D01*
X127815739Y-105257460D01*
X127600837Y-105258477D01*
X127361978Y-105259443D01*
X127098457Y-105260360D01*
X126809567Y-105261229D01*
X126494600Y-105262050D01*
X126152849Y-105262824D01*
X125783609Y-105263554D01*
X125386172Y-105264240D01*
X124959831Y-105264882D01*
X124503880Y-105265483D01*
X124017612Y-105266043D01*
X123500319Y-105266563D01*
X122951296Y-105267044D01*
X122369834Y-105267488D01*
X121755229Y-105267896D01*
X121106771Y-105268268D01*
X120423756Y-105268605D01*
X119705475Y-105268910D01*
X118951223Y-105269182D01*
X118160291Y-105269423D01*
X117331974Y-105269634D01*
X116465565Y-105269816D01*
X115560357Y-105269971D01*
X114615642Y-105270098D01*
X113630715Y-105270200D01*
X112604868Y-105270278D01*
X111537395Y-105270332D01*
X111332748Y-105270340D01*
X110203745Y-105270419D01*
X109111675Y-105270547D01*
X108056729Y-105270724D01*
X107039101Y-105270949D01*
X106058983Y-105271223D01*
X105116569Y-105271546D01*
X104212051Y-105271916D01*
X103345622Y-105272334D01*
X102517475Y-105272800D01*
X101727803Y-105273313D01*
X100976800Y-105273873D01*
X100264657Y-105274480D01*
X99591568Y-105275134D01*
X98957725Y-105275834D01*
X98363323Y-105276580D01*
X97808552Y-105277372D01*
X97293607Y-105278209D01*
X96818681Y-105279093D01*
X96383966Y-105280021D01*
X95989655Y-105280994D01*
X95635941Y-105282012D01*
X95323017Y-105283074D01*
X95051076Y-105284180D01*
X94820311Y-105285331D01*
X94630914Y-105286525D01*
X94483079Y-105287763D01*
X94376999Y-105289043D01*
X94312867Y-105290367D01*
X94290874Y-105291734D01*
X94290990Y-105325757D01*
X94313187Y-105377970D01*
X94351675Y-105434448D01*
X94376259Y-105464445D01*
X94412619Y-105511283D01*
X94438770Y-105550069D01*
X94441570Y-105554542D01*
X94501600Y-105647835D01*
X94558700Y-105732142D01*
X94608025Y-105800715D01*
X94644729Y-105846808D01*
X94663968Y-105863672D01*
X94668720Y-105864438D01*
X94682187Y-105885732D01*
X94684370Y-105897771D01*
X94704338Y-105933357D01*
X94707722Y-105937485D01*
X94733850Y-105972225D01*
X94775603Y-106029650D01*
X94826160Y-106100200D01*
X94878698Y-106174314D01*
X94926394Y-106242432D01*
X94962426Y-106294995D01*
X94965120Y-106298997D01*
X95001754Y-106352140D01*
X95049522Y-106419968D01*
X95101343Y-106492608D01*
X95150136Y-106560184D01*
X95188820Y-106612824D01*
X95210314Y-106640653D01*
X95220405Y-106653708D01*
X95232520Y-106679303D01*
X95232609Y-106679994D01*
X95246446Y-106704380D01*
X95279283Y-106751727D01*
X95324525Y-106812488D01*
X95373116Y-106877698D01*
X95428585Y-106955792D01*
X95470824Y-107019166D01*
X95487475Y-107045006D01*
X95525823Y-107100022D01*
X95554628Y-107135583D01*
X95571241Y-107154665D01*
X95598606Y-107197172D01*
X95609815Y-107216416D01*
X95642374Y-107265888D01*
X95689593Y-107334478D01*
X95745588Y-107413521D01*
X95779270Y-107460552D01*
X95847784Y-107556761D01*
X95912437Y-107648158D01*
X95962770Y-107719986D01*
X95974778Y-107737224D01*
X96032440Y-107819312D01*
X96099523Y-107914026D01*
X96163854Y-108004164D01*
X96189162Y-108039512D01*
X96242277Y-108114092D01*
X96285745Y-108175640D01*
X96312020Y-108213496D01*
X96328864Y-108238302D01*
X96396287Y-108334957D01*
X96458801Y-108420720D01*
X96511762Y-108489509D01*
X96550525Y-108535242D01*
X96570444Y-108551838D01*
X96596142Y-108539395D01*
X96642669Y-108493709D01*
X96703027Y-108418489D01*
X96773850Y-108317986D01*
X96851770Y-108196455D01*
X96864448Y-108177022D01*
X96894104Y-108137284D01*
X96910666Y-108116440D01*
X96941949Y-108072890D01*
X96961402Y-108044739D01*
X97000814Y-107988579D01*
X97052115Y-107915923D01*
X97108538Y-107836332D01*
X97163317Y-107759367D01*
X97209685Y-107694588D01*
X97285229Y-107589247D01*
X97369377Y-107470870D01*
X97428985Y-107385491D01*
X97464454Y-107332530D01*
X97476187Y-107311409D01*
X97478708Y-107303805D01*
X97498393Y-107275653D01*
X97503305Y-107269640D01*
X97531665Y-107231991D01*
X97574698Y-107172791D01*
X97625193Y-107101922D01*
X97642282Y-107077774D01*
X97690940Y-107009694D01*
X97729615Y-106956542D01*
X97751153Y-106928190D01*
X97760791Y-106915485D01*
X97772520Y-106891771D01*
X97776917Y-106882979D01*
X97801407Y-106845927D01*
X97842579Y-106787719D01*
X97894923Y-106716253D01*
X97922391Y-106679082D01*
X97979211Y-106600877D01*
X98026892Y-106533578D01*
X98057268Y-106488638D01*
X98060028Y-106484305D01*
X98092242Y-106435902D01*
X98115766Y-106403972D01*
X98120167Y-106398463D01*
X98146818Y-106362408D01*
X98188374Y-106304413D01*
X98237924Y-106234088D01*
X98241875Y-106228409D01*
X98276098Y-106177213D01*
X98304173Y-106134700D01*
X98330139Y-106100071D01*
X98358036Y-106072530D01*
X98391902Y-106051277D01*
X98435779Y-106035514D01*
X98493703Y-106024443D01*
X98569716Y-106017265D01*
X98667856Y-106013183D01*
X98792163Y-106011397D01*
X98946675Y-106011110D01*
X99135433Y-106011523D01*
X99362475Y-106011838D01*
X99575888Y-106012176D01*
X99796830Y-106013445D01*
X99980587Y-106015637D01*
X100126131Y-106018728D01*
X100232434Y-106022695D01*
X100298468Y-106027516D01*
X100323204Y-106033167D01*
X100325849Y-106049633D01*
X100308578Y-106083490D01*
X100289011Y-106105827D01*
X100254092Y-106152120D01*
X100234639Y-106180271D01*
X100195227Y-106236431D01*
X100143926Y-106309086D01*
X100087503Y-106388677D01*
X100032724Y-106465643D01*
X99986356Y-106530422D01*
X99922058Y-106620072D01*
X99843229Y-106731028D01*
X99785857Y-106813492D01*
X99747680Y-106870799D01*
X99726433Y-106906287D01*
X99719854Y-106923291D01*
X99719563Y-106927078D01*
X99703979Y-106943277D01*
X99691456Y-106953922D01*
X99659754Y-106992249D01*
X99616094Y-107050286D01*
X99566782Y-107119365D01*
X99518127Y-107190818D01*
X99476437Y-107255975D01*
X99463383Y-107275576D01*
X99427354Y-107320956D01*
X99399047Y-107356166D01*
X99364044Y-107406516D01*
X99361507Y-107410425D01*
X99332757Y-107452849D01*
X99286179Y-107519957D01*
X99227641Y-107603340D01*
X99163013Y-107694588D01*
X99096172Y-107788698D01*
X99012897Y-107906257D01*
X98932763Y-108019667D01*
X98866490Y-108113772D01*
X98754782Y-108272619D01*
X98618142Y-108466256D01*
X98501666Y-108630469D01*
X98406639Y-108763449D01*
X98334348Y-108863383D01*
X98325204Y-108875998D01*
X98281025Y-108940061D01*
X98249938Y-108990332D01*
X98238187Y-109016841D01*
X98237678Y-109022322D01*
X98222312Y-109038816D01*
X98215659Y-109042119D01*
X98188889Y-109070412D01*
X98154147Y-109118191D01*
X98129982Y-109153676D01*
X98081764Y-109222255D01*
X98021978Y-109305740D01*
X97958355Y-109393271D01*
X97905851Y-109465709D01*
X97858635Y-109532532D01*
X97826634Y-109579808D01*
X97814854Y-109600315D01*
X97811809Y-109606902D01*
X97789272Y-109641286D01*
X97749574Y-109697097D01*
X97698437Y-109766183D01*
X97651982Y-109832538D01*
X97606585Y-109911918D01*
X97581968Y-109975669D01*
X97580159Y-110018097D01*
X97603187Y-110033505D01*
X97609189Y-110034443D01*
X97624354Y-110056279D01*
X97624530Y-110057894D01*
X97639312Y-110087933D01*
X97673208Y-110139640D01*
X97719604Y-110202838D01*
X97726302Y-110211573D01*
X97771169Y-110271789D01*
X97802850Y-110317257D01*
X97814854Y-110338715D01*
X97814901Y-110339082D01*
X97828048Y-110361738D01*
X97861205Y-110411053D01*
X97909563Y-110480037D01*
X97968312Y-110561701D01*
X98023005Y-110637296D01*
X98096560Y-110740053D01*
X98164469Y-110836016D01*
X98217020Y-110911524D01*
X98224413Y-110922292D01*
X98274715Y-110994852D01*
X98318880Y-111057467D01*
X98348080Y-111097604D01*
X98394328Y-111160567D01*
X98465457Y-111260871D01*
X98558964Y-111395176D01*
X98674369Y-111562797D01*
X98729805Y-111641637D01*
X98779109Y-111707896D01*
X98815599Y-111752704D01*
X98833945Y-111769172D01*
X98841394Y-111771754D01*
X98852020Y-111798053D01*
X98854348Y-111808449D01*
X98876735Y-111848968D01*
X98915182Y-111898595D01*
X98932926Y-111919416D01*
X98965580Y-111962548D01*
X98978682Y-111987738D01*
X98978762Y-111988492D01*
X98992541Y-112014847D01*
X99025370Y-112063781D01*
X99070587Y-112125321D01*
X99071414Y-112126407D01*
X99119058Y-112191582D01*
X99156520Y-112247609D01*
X99175756Y-112282463D01*
X99186482Y-112302333D01*
X99211190Y-112319505D01*
X99216981Y-112320298D01*
X99233020Y-112341565D01*
X99235203Y-112353605D01*
X99255171Y-112389190D01*
X99258555Y-112393318D01*
X99284683Y-112428059D01*
X99326436Y-112485484D01*
X99376993Y-112556033D01*
X99429531Y-112630147D01*
X99477227Y-112698266D01*
X99513259Y-112750829D01*
X99519505Y-112760062D01*
X99555284Y-112811732D01*
X99602022Y-112878060D01*
X99652668Y-112949180D01*
X99700173Y-113015226D01*
X99737484Y-113066334D01*
X99757553Y-113092638D01*
X99758957Y-113094316D01*
X99783917Y-113128455D01*
X99816467Y-113177305D01*
X99844951Y-113220192D01*
X99891318Y-113287567D01*
X99941770Y-113359076D01*
X99986284Y-113421722D01*
X100029832Y-113483837D01*
X100058520Y-113525712D01*
X100084564Y-113562171D01*
X100116729Y-113601170D01*
X100130367Y-113617292D01*
X100143187Y-113641818D01*
X100154333Y-113663010D01*
X100184816Y-113708140D01*
X100227854Y-113766961D01*
X100269148Y-113824793D01*
X100300520Y-113875190D01*
X100312520Y-113903637D01*
X100312433Y-113904231D01*
X100298759Y-113910365D01*
X100260066Y-113915473D01*
X100193880Y-113919619D01*
X100097728Y-113922869D01*
X99969138Y-113925285D01*
X99805638Y-113926931D01*
X99604753Y-113927872D01*
X99364012Y-113928172D01*
X99339980Y-113928175D01*
X99115926Y-113928517D01*
X98929794Y-113928855D01*
X98777574Y-113928401D01*
X98655256Y-113926366D01*
X98558828Y-113921960D01*
X98484280Y-113914395D01*
X98427601Y-113902882D01*
X98384781Y-113886632D01*
X98351809Y-113864857D01*
X98324675Y-113836766D01*
X98299366Y-113801572D01*
X98271874Y-113758485D01*
X98238187Y-113706716D01*
X98233203Y-113699370D01*
X98178673Y-113621481D01*
X98125686Y-113549552D01*
X98085067Y-113498310D01*
X98071430Y-113481956D01*
X98039699Y-113439517D01*
X98026859Y-113414939D01*
X98026721Y-113413955D01*
X98012829Y-113387417D01*
X97980650Y-113337786D01*
X97936562Y-113274951D01*
X97887015Y-113206153D01*
X97843219Y-113144628D01*
X97814854Y-113103970D01*
X97789582Y-113067668D01*
X97756005Y-113021708D01*
X97750790Y-113014754D01*
X97720518Y-112973047D01*
X97675940Y-112910597D01*
X97624697Y-112838088D01*
X97607257Y-112813325D01*
X97559779Y-112746256D01*
X97522965Y-112694751D01*
X97503630Y-112668364D01*
X97488573Y-112647412D01*
X97453943Y-112597680D01*
X97405895Y-112527931D01*
X97349926Y-112446114D01*
X97299969Y-112373154D01*
X97250586Y-112301715D01*
X97213916Y-112249436D01*
X97195484Y-112224255D01*
X97188922Y-112215767D01*
X97160476Y-112176897D01*
X97117839Y-112117508D01*
X97067841Y-112047219D01*
X97017308Y-111975646D01*
X96973068Y-111912407D01*
X96941949Y-111867120D01*
X96923247Y-111840502D01*
X96894104Y-111802726D01*
X96881649Y-111787082D01*
X96851770Y-111744108D01*
X96762539Y-111606670D01*
X96683815Y-111498062D01*
X96621564Y-111427928D01*
X96575611Y-111396075D01*
X96545783Y-111402309D01*
X96542372Y-111406298D01*
X96507859Y-111449382D01*
X96463797Y-111507433D01*
X96417241Y-111570735D01*
X96375249Y-111629573D01*
X96344879Y-111674231D01*
X96333187Y-111694992D01*
X96329396Y-111705999D01*
X96306729Y-111736340D01*
X96282759Y-111764767D01*
X96248520Y-111812034D01*
X96237774Y-111827805D01*
X96201579Y-111879105D01*
X96151527Y-111948774D01*
X96095062Y-112026412D01*
X96062474Y-112071364D01*
X96016592Y-112136345D01*
X95985070Y-112183240D01*
X95973354Y-112204100D01*
X95971020Y-112211999D01*
X95951826Y-112241023D01*
X95939377Y-112256224D01*
X95899897Y-112307149D01*
X95852661Y-112370507D01*
X95804329Y-112437058D01*
X95761561Y-112497566D01*
X95731015Y-112542791D01*
X95719354Y-112563496D01*
X95715543Y-112574194D01*
X95692895Y-112604173D01*
X95669285Y-112631882D01*
X95634687Y-112678699D01*
X95634672Y-112678722D01*
X95606345Y-112719435D01*
X95562628Y-112781070D01*
X95512979Y-112850293D01*
X95508487Y-112856545D01*
X95465257Y-112919586D01*
X95434643Y-112969319D01*
X95423020Y-112995453D01*
X95420060Y-113006276D01*
X95394602Y-113032828D01*
X95392550Y-113034145D01*
X95361359Y-113065294D01*
X95326652Y-113113255D01*
X95296433Y-113158608D01*
X95248796Y-113225831D01*
X95196320Y-113296855D01*
X95192684Y-113301675D01*
X95148632Y-113361896D01*
X95117391Y-113407891D01*
X95105520Y-113430040D01*
X95103180Y-113438673D01*
X95083751Y-113468690D01*
X95071544Y-113484341D01*
X95037385Y-113530450D01*
X94989351Y-113596588D01*
X94933713Y-113674172D01*
X94928719Y-113681208D01*
X94888729Y-113739470D01*
X94855755Y-113787869D01*
X94825687Y-113827309D01*
X94794413Y-113858695D01*
X94757821Y-113882934D01*
X94711799Y-113900931D01*
X94652237Y-113913590D01*
X94575022Y-113921818D01*
X94476043Y-113926520D01*
X94351189Y-113928600D01*
X94196348Y-113928966D01*
X94007408Y-113928521D01*
X93780259Y-113928172D01*
X93731909Y-113928161D01*
X93501619Y-113927761D01*
X93310541Y-113926724D01*
X93156051Y-113924982D01*
X93035530Y-113922466D01*
X92946354Y-113919105D01*
X92885902Y-113914830D01*
X92851554Y-113909573D01*
X92840687Y-113903262D01*
X92840695Y-113902842D01*
X92853633Y-113870063D01*
X92888544Y-113809996D01*
X92941527Y-113728635D01*
X93008685Y-113631974D01*
X93086118Y-113526005D01*
X93095343Y-113513608D01*
X93153167Y-113434080D01*
X93219541Y-113340587D01*
X93281867Y-113250838D01*
X93288479Y-113241189D01*
X93356647Y-113142659D01*
X93431030Y-113036444D01*
X93496665Y-112943922D01*
X93513105Y-112920953D01*
X93563724Y-112849977D01*
X93604982Y-112791765D01*
X93629208Y-112757125D01*
X93647050Y-112731640D01*
X93682703Y-112683042D01*
X93688040Y-112675930D01*
X93718697Y-112633804D01*
X93764092Y-112570519D01*
X93816893Y-112496386D01*
X93869769Y-112421719D01*
X93915390Y-112356830D01*
X93946426Y-112312032D01*
X93956591Y-112297434D01*
X93990877Y-112249283D01*
X94039293Y-112181998D01*
X94094812Y-112105361D01*
X94127708Y-112059662D01*
X94173441Y-111994371D01*
X94204849Y-111947198D01*
X94216520Y-111926113D01*
X94220367Y-111915987D01*
X94242979Y-111886670D01*
X94261998Y-111864840D01*
X94296115Y-111819390D01*
X94301276Y-111811817D01*
X94331575Y-111768297D01*
X94376441Y-111704578D01*
X94428187Y-111631588D01*
X94444225Y-111609019D01*
X94494686Y-111537724D01*
X94535925Y-111479051D01*
X94560259Y-111443917D01*
X94569221Y-111430851D01*
X94602319Y-111383381D01*
X94649388Y-111316405D01*
X94703354Y-111240005D01*
X94729459Y-111203099D01*
X94782252Y-111128235D01*
X94825419Y-111066726D01*
X94851520Y-111029156D01*
X94853450Y-111026342D01*
X94883271Y-110983659D01*
X94927928Y-110920506D01*
X94978520Y-110849475D01*
X94983804Y-110842079D01*
X95034228Y-110771051D01*
X95077773Y-110708995D01*
X95105520Y-110668610D01*
X95131028Y-110632667D01*
X95159847Y-110597120D01*
X95161380Y-110595455D01*
X95188908Y-110559735D01*
X95222506Y-110509755D01*
X95252965Y-110464435D01*
X95300818Y-110397198D01*
X95353388Y-110326154D01*
X95356384Y-110322180D01*
X95400733Y-110260501D01*
X95432216Y-110211525D01*
X95444187Y-110185544D01*
X95447907Y-110174513D01*
X95475937Y-110152850D01*
X95490607Y-110143825D01*
X95507687Y-110110844D01*
X95512522Y-110091062D01*
X95539437Y-110054672D01*
X95554558Y-110041181D01*
X95569380Y-110021778D01*
X95575216Y-109998198D01*
X95570108Y-109966659D01*
X95552103Y-109923379D01*
X95519245Y-109864576D01*
X95469579Y-109786469D01*
X95401149Y-109685276D01*
X95312001Y-109557215D01*
X95200178Y-109398505D01*
X95136776Y-109308473D01*
X95069426Y-109212323D01*
X95010547Y-109127762D01*
X94968148Y-109066261D01*
X94931940Y-109014225D01*
X94892454Y-108959889D01*
X94867015Y-108927784D01*
X94852580Y-108910712D01*
X94819770Y-108864690D01*
X94814077Y-108855732D01*
X94785350Y-108812593D01*
X94742048Y-108748954D01*
X94691139Y-108675084D01*
X94680007Y-108659025D01*
X94618883Y-108570729D01*
X94558766Y-108483731D01*
X94511223Y-108414769D01*
X94478054Y-108367566D01*
X94437532Y-108312593D01*
X94410444Y-108279097D01*
X94401459Y-108268575D01*
X94367914Y-108223168D01*
X94329786Y-108165846D01*
X94317157Y-108146330D01*
X94273019Y-108081115D01*
X94216613Y-108000391D01*
X94157029Y-107917237D01*
X94134534Y-107886172D01*
X94060365Y-107782753D01*
X93980806Y-107670693D01*
X93909604Y-107569323D01*
X93868366Y-107510267D01*
X93791198Y-107400097D01*
X93709222Y-107283386D01*
X93634437Y-107177228D01*
X93583428Y-107104720D01*
X93511063Y-107001181D01*
X93443670Y-106904074D01*
X93391020Y-106827440D01*
X93380684Y-106812304D01*
X93333657Y-106744521D01*
X93295283Y-106690871D01*
X93273045Y-106661853D01*
X93268214Y-106656004D01*
X93239922Y-106618386D01*
X93197141Y-106559078D01*
X93147088Y-106488041D01*
X93143143Y-106482383D01*
X93080214Y-106392555D01*
X93013979Y-106298636D01*
X92958147Y-106220070D01*
X92904187Y-106143813D01*
X92838078Y-106049108D01*
X92777187Y-105960750D01*
X92768746Y-105948414D01*
X92719483Y-105877281D01*
X92677171Y-105817507D01*
X92650187Y-105780951D01*
X92624496Y-105746949D01*
X92586687Y-105693614D01*
X92585705Y-105692161D01*
X92546633Y-105635469D01*
X92497150Y-105565128D01*
X92444186Y-105490810D01*
X92394674Y-105422184D01*
X92355543Y-105368920D01*
X92333727Y-105340690D01*
X92323481Y-105327738D01*
X92311520Y-105304934D01*
X92300397Y-105285584D01*
X92270497Y-105240427D01*
X92227869Y-105178180D01*
X92178567Y-105107518D01*
X92128643Y-105037114D01*
X92084148Y-104975641D01*
X92051135Y-104931773D01*
X92050011Y-104930328D01*
X92024290Y-104895290D01*
X91983520Y-104837935D01*
X91935999Y-104769924D01*
X91897407Y-104712482D01*
X91871276Y-104666110D01*
X91866250Y-104640181D01*
X91879521Y-104627615D01*
X91888443Y-104627028D01*
X91936490Y-104626068D01*
X92024960Y-104625146D01*
X92152686Y-104624262D01*
X92318504Y-104623415D01*
X92521248Y-104622606D01*
X92759752Y-104621834D01*
X93032851Y-104621098D01*
X93339379Y-104620399D01*
X93678170Y-104619736D01*
X94048059Y-104619108D01*
X94447881Y-104618516D01*
X94876469Y-104617959D01*
X95332659Y-104617437D01*
X95815284Y-104616950D01*
X96323180Y-104616496D01*
X96855180Y-104616077D01*
X97410118Y-104615691D01*
X97986831Y-104615339D01*
X98584150Y-104615019D01*
X99200912Y-104614733D01*
X99835951Y-104614478D01*
X100488101Y-104614256D01*
X101156196Y-104614065D01*
X101839071Y-104613906D01*
X102535560Y-104613779D01*
X103244498Y-104613682D01*
X103964719Y-104613615D01*
X104695058Y-104613579D01*
X105434349Y-104613573D01*
X106181426Y-104613596D01*
G37*
%TD*%
D11*
%TO.C,J2*%
X166910000Y-81900000D03*
X166910000Y-84400000D03*
X166910000Y-86400000D03*
X166910000Y-88900000D03*
D12*
X164200000Y-78400000D03*
X164200000Y-92400000D03*
%TD*%
D13*
%TO.C,SW12*%
X185171075Y-80698859D03*
X178817858Y-77736305D03*
D14*
X185090510Y-77913880D03*
X181012125Y-76012098D03*
%TD*%
D15*
%TO.C,J1*%
X126801000Y-87800000D03*
D16*
X126801000Y-89800000D03*
X126801000Y-91800000D03*
X126801000Y-93800000D03*
X126801000Y-95800000D03*
%TD*%
D13*
%TO.C,SW5*%
X114268394Y-77759966D03*
X107915177Y-80722520D03*
D14*
X112083190Y-76031532D03*
X108004805Y-77933314D03*
%TD*%
M02*
