%TF.GenerationSoftware,KiCad,Pcbnew,8.0.0*%
%TF.CreationDate,2024-02-23T16:44:12-07:00*%
%TF.ProjectId,saturn_controller_pcb,73617475-726e-45f6-936f-6e74726f6c6c,4a*%
%TF.SameCoordinates,Original*%
%TF.FileFunction,Soldermask,Top*%
%TF.FilePolarity,Negative*%
%FSLAX46Y46*%
G04 Gerber Fmt 4.6, Leading zero omitted, Abs format (unit mm)*
G04 Created by KiCad (PCBNEW 8.0.0) date 2024-02-23 16:44:12*
%MOMM*%
%LPD*%
G01*
G04 APERTURE LIST*
G04 Aperture macros list*
%AMRoundRect*
0 Rectangle with rounded corners*
0 $1 Rounding radius*
0 $2 $3 $4 $5 $6 $7 $8 $9 X,Y pos of 4 corners*
0 Add a 4 corners polygon primitive as box body*
4,1,4,$2,$3,$4,$5,$6,$7,$8,$9,$2,$3,0*
0 Add four circle primitives for the rounded corners*
1,1,$1+$1,$2,$3*
1,1,$1+$1,$4,$5*
1,1,$1+$1,$6,$7*
1,1,$1+$1,$8,$9*
0 Add four rect primitives between the rounded corners*
20,1,$1+$1,$2,$3,$4,$5,0*
20,1,$1+$1,$4,$5,$6,$7,0*
20,1,$1+$1,$6,$7,$8,$9,0*
20,1,$1+$1,$8,$9,$2,$3,0*%
%AMHorizOval*
0 Thick line with rounded ends*
0 $1 width*
0 $2 $3 position (X,Y) of the first rounded end (center of the circle)*
0 $4 $5 position (X,Y) of the second rounded end (center of the circle)*
0 Add line between two ends*
20,1,$1,$2,$3,$4,$5,0*
0 Add two circle primitives to create the rounded ends*
1,1,$1,$2,$3*
1,1,$1,$4,$5*%
G04 Aperture macros list end*
%ADD10RoundRect,0.050800X-1.000000X-0.750000X1.000000X-0.750000X1.000000X0.750000X-1.000000X0.750000X0*%
%ADD11RoundRect,0.050800X-1.000000X-1.900000X1.000000X-1.900000X1.000000X1.900000X-1.000000X1.900000X0*%
%ADD12RoundRect,0.050800X-0.900000X-0.550000X0.900000X-0.550000X0.900000X0.550000X-0.900000X0.550000X0*%
%ADD13RoundRect,0.165400X0.165400X0.195400X-0.165400X0.195400X-0.165400X-0.195400X0.165400X-0.195400X0*%
%ADD14RoundRect,0.165400X-0.195400X0.165400X-0.195400X-0.165400X0.195400X-0.165400X0.195400X0.165400X0*%
%ADD15O,0.801600X0.301600*%
%ADD16RoundRect,0.050800X0.146720X0.153210X-0.153210X0.146720X-0.146720X-0.153210X0.153210X-0.146720X0*%
%ADD17RoundRect,0.050800X0.163088X0.135655X-0.135655X0.163088X-0.163088X-0.135655X0.135655X-0.163088X0*%
%ADD18RoundRect,0.050800X0.128473X0.168803X-0.168803X0.128473X-0.128473X-0.168803X0.168803X-0.128473X0*%
%ADD19RoundRect,0.050800X0.177369X0.116363X-0.116363X0.177369X-0.177369X-0.116363X0.116363X-0.177369X0*%
%ADD20RoundRect,0.050800X0.108582X0.182236X-0.182236X0.108582X-0.108582X-0.182236X0.182236X-0.108582X0*%
%ADD21RoundRect,0.050800X0.189378X0.095582X-0.095582X0.189378X-0.189378X-0.095582X0.095582X-0.189378X0*%
%ADD22RoundRect,0.050800X0.087300X0.193336X-0.193336X0.087300X-0.087300X-0.193336X0.193336X-0.087300X0*%
%ADD23RoundRect,0.050800X0.198964X0.073576X-0.073576X0.198964X-0.198964X-0.073576X0.073576X-0.198964X0*%
%ADD24RoundRect,0.050800X0.064901X0.201960X-0.201960X0.064901X-0.064901X-0.201960X0.201960X-0.064901X0*%
%ADD25RoundRect,0.050800X0.206002X0.050629X-0.050629X0.206002X-0.206002X-0.050629X0.050629X-0.206002X0*%
%ADD26RoundRect,0.050800X0.041671X0.207999X-0.207999X0.041671X-0.041671X-0.207999X0.207999X-0.041671X0*%
%ADD27RoundRect,0.050800X0.210402X0.027034X-0.027034X0.210402X-0.210402X-0.027034X0.027034X-0.210402X0*%
%ADD28RoundRect,0.050800X0.017908X0.211375X-0.211375X0.017908X-0.017908X-0.211375X0.211375X-0.017908X0*%
%ADD29RoundRect,0.050800X0.212109X0.003093X-0.003093X0.212109X-0.212109X-0.003093X0.003093X-0.212109X0*%
%ADD30RoundRect,0.050800X-0.006085X0.212045X-0.212045X-0.006085X0.006085X-0.212045X0.212045X0.006085X0*%
%ADD31RoundRect,0.050800X0.211101X-0.020888X0.020888X0.211101X-0.211101X0.020888X-0.020888X-0.211101X0*%
%ADD32RoundRect,0.050800X-0.030000X0.210000X-0.210000X-0.030000X0.030000X-0.210000X0.210000X0.030000X0*%
%ADD33RoundRect,0.050800X0.207390X-0.044602X0.044602X0.207390X-0.207390X0.044602X-0.044602X-0.207390X0*%
%ADD34RoundRect,0.050800X0.203246X-0.060754X0.060754X0.203246X-0.203246X0.060754X-0.060754X-0.203246X0*%
%ADD35O,1.289034X0.401600*%
%ADD36O,3.479009X0.401600*%
%ADD37O,4.069223X0.401600*%
%ADD38O,4.608059X0.401600*%
%ADD39O,4.535632X0.401600*%
%ADD40O,4.270727X0.401600*%
%ADD41O,3.039444X0.401600*%
%ADD42O,1.601600X0.401600*%
%ADD43RoundRect,0.050800X0.060754X-0.203246X0.203246X0.060754X-0.060754X0.203246X-0.203246X-0.060754X0*%
%ADD44RoundRect,0.050800X0.037405X-0.208808X0.208808X0.037405X-0.037405X0.208808X-0.208808X-0.037405X0*%
%ADD45RoundRect,0.050800X-0.210000X0.030000X-0.030000X-0.210000X0.210000X-0.030000X0.030000X0.210000X0*%
%ADD46RoundRect,0.050800X0.013578X-0.211697X0.211697X0.013578X-0.013578X0.211697X-0.211697X-0.013578X0*%
%ADD47RoundRect,0.050800X-0.211708X0.013412X-0.013412X-0.211708X0.211708X-0.013412X0.013412X0.211708X0*%
%ADD48RoundRect,0.050800X-0.010424X-0.211876X0.211876X-0.010424X0.010424X0.211876X-0.211876X0.010424X0*%
%ADD49RoundRect,0.050800X-0.211868X-0.010589X0.010589X-0.211868X0.211868X0.010589X-0.010589X0.211868X0*%
%ADD50RoundRect,0.050800X-0.034292X-0.209342X0.209342X-0.034292X0.034292X0.209342X-0.209342X0.034292X0*%
%ADD51RoundRect,0.050800X-0.209315X-0.034455X0.034455X-0.209315X0.209315X0.034455X-0.034455X0.209315X0*%
%ADD52RoundRect,0.050800X-0.057721X-0.204128X0.204128X-0.057721X0.057721X0.204128X-0.204128X0.057721X0*%
%ADD53RoundRect,0.050800X-0.204083X-0.057880X0.057880X-0.204083X0.204083X0.057880X-0.057880X0.204083X0*%
%ADD54RoundRect,0.050800X-0.080411X-0.196301X0.196301X-0.080411X0.080411X0.196301X-0.196301X0.080411X0*%
%ADD55RoundRect,0.050800X-0.196238X-0.080564X0.080564X-0.196238X0.196238X0.080564X-0.080564X0.196238X0*%
%ADD56RoundRect,0.050800X-0.102072X-0.185961X0.185961X-0.102072X0.102072X0.185961X-0.185961X0.102072X0*%
%ADD57RoundRect,0.050800X-0.185881X-0.102217X0.102217X-0.185881X0.185881X0.102217X-0.102217X0.185881X0*%
%ADD58RoundRect,0.050800X-0.122425X-0.173240X0.173240X-0.122425X0.122425X0.173240X-0.173240X0.122425X0*%
%ADD59RoundRect,0.050800X-0.173144X-0.122561X0.122561X-0.173144X0.173144X0.122561X-0.122561X0.173144X0*%
%ADD60RoundRect,0.050800X-0.141212X-0.158301X0.158301X-0.141212X0.141212X0.158301X-0.158301X0.141212X0*%
%ADD61RoundRect,0.050800X-0.158191X-0.141336X0.141336X-0.158191X0.158191X0.141336X-0.141336X0.158191X0*%
%ADD62RoundRect,0.160400X0.160400X0.210400X-0.160400X0.210400X-0.160400X-0.210400X0.160400X-0.210400X0*%
%ADD63RoundRect,0.160400X-0.160400X-0.210400X0.160400X-0.210400X0.160400X0.210400X-0.160400X0.210400X0*%
%ADD64RoundRect,0.160400X0.210400X-0.160400X0.210400X0.160400X-0.210400X0.160400X-0.210400X-0.160400X0*%
%ADD65O,0.851600X0.851600*%
%ADD66HorizOval,0.851600X0.000000X0.000000X0.000000X0.000000X0*%
%ADD67HorizOval,0.851600X0.000000X0.000000X0.000000X0.000000X0*%
%ADD68HorizOval,0.851600X0.000000X0.000000X0.000000X0.000000X0*%
%ADD69HorizOval,0.851600X0.000000X0.000000X0.000000X0.000000X0*%
%ADD70HorizOval,0.851600X0.000000X0.000000X0.000000X0.000000X0*%
%ADD71HorizOval,0.851600X0.000000X0.000000X0.000000X0.000000X0*%
%ADD72HorizOval,0.851600X0.000000X0.000000X0.000000X0.000000X0*%
%ADD73HorizOval,0.851600X0.000000X0.000000X0.000000X0.000000X0*%
%ADD74HorizOval,0.851600X0.000000X0.000000X0.000000X0.000000X0*%
%ADD75HorizOval,0.851600X0.000000X0.000000X0.000000X0.000000X0*%
%ADD76HorizOval,0.851600X0.000000X0.000000X0.000000X0.000000X0*%
%ADD77HorizOval,0.851600X0.000000X0.000000X0.000000X0.000000X0*%
%ADD78HorizOval,0.851600X0.000000X0.000000X0.000000X0.000000X0*%
%ADD79HorizOval,0.851600X0.000000X0.000000X0.000000X0.000000X0*%
%ADD80HorizOval,0.851600X0.000000X0.000000X0.000000X0.000000X0*%
%ADD81HorizOval,0.851600X0.000000X0.000000X0.000000X0.000000X0*%
%ADD82HorizOval,0.851600X0.000000X0.000000X0.000000X0.000000X0*%
%ADD83HorizOval,0.851600X0.000000X0.000000X0.000000X0.000000X0*%
%ADD84HorizOval,0.851600X0.000000X0.000000X0.000000X0.000000X0*%
%ADD85HorizOval,0.851600X0.000000X0.000000X0.000000X0.000000X0*%
%ADD86HorizOval,0.851600X0.000000X0.000000X0.000000X0.000000X0*%
%ADD87HorizOval,0.851600X0.000000X0.000000X0.000000X0.000000X0*%
%ADD88O,0.851600X5.101600*%
%ADD89O,0.851600X7.101600*%
%ADD90HorizOval,0.851600X0.000000X0.000000X0.000000X0.000000X0*%
%ADD91HorizOval,0.851600X0.000000X0.000000X0.000000X0.000000X0*%
%ADD92HorizOval,0.851600X0.000000X0.000000X0.000000X0.000000X0*%
%ADD93HorizOval,0.851600X0.000000X0.000000X0.000000X0.000000X0*%
%ADD94HorizOval,0.851600X0.000000X0.000000X0.000000X0.000000X0*%
%ADD95HorizOval,0.851600X0.000000X0.000000X0.000000X0.000000X0*%
%ADD96HorizOval,0.851600X0.000000X0.000000X0.000000X0.000000X0*%
%ADD97HorizOval,0.851600X0.000000X0.000000X0.000000X0.000000X0*%
%ADD98HorizOval,0.851600X0.000000X0.000000X0.000000X0.000000X0*%
%ADD99HorizOval,0.851600X0.000000X0.000000X0.000000X0.000000X0*%
%ADD100HorizOval,0.851600X0.000000X0.000000X0.000000X0.000000X0*%
%ADD101HorizOval,0.851600X0.000000X0.000000X0.000000X0.000000X0*%
%ADD102HorizOval,0.851600X0.000000X0.000000X0.000000X0.000000X0*%
%ADD103HorizOval,0.851600X0.000000X0.000000X0.000000X0.000000X0*%
%ADD104HorizOval,0.851600X0.000000X0.000000X0.000000X0.000000X0*%
%ADD105HorizOval,0.851600X0.000000X0.000000X0.000000X0.000000X0*%
%ADD106HorizOval,0.851600X0.000000X0.000000X0.000000X0.000000X0*%
%ADD107HorizOval,0.851600X0.000000X0.000000X0.000000X0.000000X0*%
%ADD108HorizOval,0.851600X0.000000X0.000000X0.000000X0.000000X0*%
%ADD109HorizOval,0.851600X0.000000X0.000000X0.000000X0.000000X0*%
%ADD110HorizOval,0.851600X0.000000X0.000000X0.000000X0.000000X0*%
%ADD111HorizOval,0.851600X0.000000X0.000000X0.000000X0.000000X0*%
%ADD112RoundRect,0.165400X-0.165400X-0.195400X0.165400X-0.195400X0.165400X0.195400X-0.165400X0.195400X0*%
%ADD113RoundRect,0.244150X0.281650X-0.244150X0.281650X0.244150X-0.281650X0.244150X-0.281650X-0.244150X0*%
%ADD114RoundRect,0.244150X-0.281650X0.244150X-0.281650X-0.244150X0.281650X-0.244150X0.281650X0.244150X0*%
%ADD115HorizOval,0.851600X0.000000X0.000000X0.000000X0.000000X0*%
%ADD116HorizOval,0.851600X0.000000X0.000000X0.000000X0.000000X0*%
%ADD117HorizOval,0.851600X0.000000X0.000000X0.000000X0.000000X0*%
%ADD118HorizOval,0.851600X0.000000X0.000000X0.000000X0.000000X0*%
%ADD119HorizOval,0.851600X0.000000X0.000000X0.000000X0.000000X0*%
%ADD120HorizOval,0.851600X0.000000X0.000000X0.000000X0.000000X0*%
%ADD121HorizOval,0.851600X0.000000X0.000000X0.000000X0.000000X0*%
%ADD122HorizOval,0.851600X0.000000X0.000000X0.000000X0.000000X0*%
%ADD123HorizOval,0.851600X0.000000X0.000000X0.000000X0.000000X0*%
%ADD124HorizOval,0.851600X0.000000X0.000000X0.000000X0.000000X0*%
%ADD125HorizOval,0.851600X0.000000X0.000000X0.000000X0.000000X0*%
%ADD126HorizOval,0.851600X0.000000X0.000000X0.000000X0.000000X0*%
%ADD127HorizOval,0.851600X0.000000X0.000000X0.000000X0.000000X0*%
%ADD128HorizOval,0.851600X0.000000X0.000000X0.000000X0.000000X0*%
%ADD129HorizOval,0.851600X0.000000X0.000000X0.000000X0.000000X0*%
%ADD130HorizOval,0.851600X0.000000X0.000000X0.000000X0.000000X0*%
%ADD131HorizOval,0.851600X0.000000X0.000000X0.000000X0.000000X0*%
%ADD132HorizOval,0.851600X0.000000X0.000000X0.000000X0.000000X0*%
%ADD133HorizOval,0.851600X0.000000X0.000000X0.000000X0.000000X0*%
%ADD134HorizOval,0.851600X0.000000X0.000000X0.000000X0.000000X0*%
%ADD135HorizOval,0.851600X0.000000X0.000000X0.000000X0.000000X0*%
%ADD136HorizOval,0.851600X0.000000X0.000000X0.000000X0.000000X0*%
%ADD137O,5.101600X0.851600*%
%ADD138O,7.101600X0.851600*%
%ADD139HorizOval,0.851600X0.000000X0.000000X0.000000X0.000000X0*%
%ADD140HorizOval,0.851600X0.000000X0.000000X0.000000X0.000000X0*%
%ADD141HorizOval,0.851600X0.000000X0.000000X0.000000X0.000000X0*%
%ADD142HorizOval,0.851600X0.000000X0.000000X0.000000X0.000000X0*%
%ADD143HorizOval,0.851600X0.000000X0.000000X0.000000X0.000000X0*%
%ADD144HorizOval,0.851600X0.000000X0.000000X0.000000X0.000000X0*%
%ADD145HorizOval,0.851600X0.000000X0.000000X0.000000X0.000000X0*%
%ADD146HorizOval,0.851600X0.000000X0.000000X0.000000X0.000000X0*%
%ADD147HorizOval,0.851600X0.000000X0.000000X0.000000X0.000000X0*%
%ADD148HorizOval,0.851600X0.000000X0.000000X0.000000X0.000000X0*%
%ADD149HorizOval,0.851600X0.000000X0.000000X0.000000X0.000000X0*%
%ADD150HorizOval,0.851600X0.000000X0.000000X0.000000X0.000000X0*%
%ADD151HorizOval,0.851600X0.000000X0.000000X0.000000X0.000000X0*%
%ADD152HorizOval,0.851600X0.000000X0.000000X0.000000X0.000000X0*%
%ADD153HorizOval,0.851600X0.000000X0.000000X0.000000X0.000000X0*%
%ADD154HorizOval,0.851600X0.000000X0.000000X0.000000X0.000000X0*%
%ADD155HorizOval,0.851600X0.000000X0.000000X0.000000X0.000000X0*%
%ADD156HorizOval,0.851600X0.000000X0.000000X0.000000X0.000000X0*%
%ADD157HorizOval,0.851600X0.000000X0.000000X0.000000X0.000000X0*%
%ADD158HorizOval,0.851600X0.000000X0.000000X0.000000X0.000000X0*%
%ADD159HorizOval,0.851600X0.000000X0.000000X0.000000X0.000000X0*%
%ADD160HorizOval,0.851600X0.000000X0.000000X0.000000X0.000000X0*%
%ADD161RoundRect,0.050800X-0.290000X0.805000X-0.290000X-0.805000X0.290000X-0.805000X0.290000X0.805000X0*%
%ADD162RoundRect,0.100400X-0.100400X0.250400X-0.100400X-0.250400X0.100400X-0.250400X0.100400X0.250400X0*%
%ADD163RoundRect,0.075400X-0.725400X0.075400X-0.725400X-0.075400X0.725400X-0.075400X0.725400X0.075400X0*%
%ADD164RoundRect,0.050800X-0.700000X-0.575000X0.700000X-0.575000X0.700000X0.575000X-0.700000X0.575000X0*%
%ADD165RoundRect,0.050800X0.900000X0.550000X-0.900000X0.550000X-0.900000X-0.550000X0.900000X-0.550000X0*%
%ADD166RoundRect,0.075400X0.412900X0.075400X-0.412900X0.075400X-0.412900X-0.075400X0.412900X-0.075400X0*%
%ADD167RoundRect,0.075400X0.075400X0.412900X-0.075400X0.412900X-0.075400X-0.412900X0.075400X-0.412900X0*%
%ADD168RoundRect,0.148572X1.502228X1.502228X-1.502228X1.502228X-1.502228X-1.502228X1.502228X-1.502228X0*%
%ADD169C,1.701600*%
%ADD170C,3.101600*%
%ADD171RoundRect,0.165400X0.195400X-0.165400X0.195400X0.165400X-0.195400X0.165400X-0.195400X-0.165400X0*%
%ADD172C,2.201600*%
%ADD173C,1.851600*%
%ADD174RoundRect,0.271167X-0.654633X0.379633X-0.654633X-0.379633X0.654633X-0.379633X0.654633X0.379633X0*%
%ADD175O,1.851600X1.301600*%
G04 APERTURE END LIST*
D10*
%TO.C,U3*%
X124770000Y-77320000D03*
X124770000Y-79620000D03*
D11*
X131070000Y-79620000D03*
D10*
X124770000Y-81920000D03*
%TD*%
D12*
%TO.C,SW14*%
X127600000Y-106560000D03*
X133800000Y-106560000D03*
X127600000Y-110260000D03*
X133800000Y-110260000D03*
%TD*%
D13*
%TO.C,C11*%
X135895505Y-97987053D03*
X134935505Y-97987053D03*
%TD*%
D14*
%TO.C,C5*%
X151780000Y-106940000D03*
X151780000Y-107900000D03*
%TD*%
D15*
%TO.C,U5*%
X135665505Y-96637053D03*
X135665505Y-96137053D03*
X135665505Y-95637053D03*
X135665505Y-95137053D03*
X135665505Y-94637053D03*
X134615505Y-94637053D03*
X134615505Y-95137053D03*
X134615505Y-95637053D03*
X134615505Y-96137053D03*
X134615505Y-96637053D03*
%TD*%
%TO.C,U2*%
X154570000Y-101870000D03*
X154570000Y-101370000D03*
X154570000Y-100870000D03*
X154570000Y-100370000D03*
X154570000Y-99870000D03*
X153520000Y-99870000D03*
X153520000Y-100370000D03*
X153520000Y-100870000D03*
X153520000Y-101370000D03*
X153520000Y-101870000D03*
%TD*%
D16*
%TO.C,SW4*%
X144600586Y-116554082D03*
D17*
X144610475Y-116271389D03*
D18*
X144622694Y-116836085D03*
D19*
X144652236Y-115991620D03*
D20*
X144676518Y-117113785D03*
D21*
X144725334Y-115718361D03*
D22*
X144761368Y-117383627D03*
D23*
X144828834Y-115455108D03*
D24*
X144876157Y-117642156D03*
D25*
X144961409Y-115205232D03*
D26*
X145019417Y-117886063D03*
D27*
X145121363Y-114971932D03*
D28*
X145189313Y-118112226D03*
D29*
X145306648Y-114758195D03*
D30*
X145383670Y-118317748D03*
D31*
X145514892Y-114566757D03*
D32*
X145600001Y-118500000D03*
D33*
X145743429Y-114400069D03*
D34*
X145912566Y-114300001D03*
D35*
X146506283Y-114300000D03*
D36*
X146717474Y-117900000D03*
D37*
X146792524Y-115500000D03*
D38*
X146861243Y-116700000D03*
D39*
X147350776Y-116100000D03*
D40*
X147383980Y-117300000D03*
D41*
X147552015Y-114900000D03*
D42*
X147850000Y-118500000D03*
D43*
X148287434Y-114300000D03*
D44*
X148528358Y-114448223D03*
D45*
X148599999Y-118500000D03*
D46*
X148750996Y-114622712D03*
D47*
X148752461Y-118375998D03*
D48*
X148952497Y-114821235D03*
D49*
X148953807Y-118177318D03*
D50*
X149130282Y-115041250D03*
D51*
X149131421Y-117957164D03*
D52*
X149282075Y-115279940D03*
D53*
X149283027Y-117718355D03*
D54*
X149405932Y-115534250D03*
D55*
X149406686Y-117463948D03*
D56*
X149500269Y-115800924D03*
D57*
X149500814Y-117197201D03*
D58*
X149563876Y-116076547D03*
D59*
X149564206Y-116921528D03*
D60*
X149595940Y-116357592D03*
D61*
X149596051Y-116640459D03*
%TD*%
D16*
%TO.C,SW6*%
X165000586Y-101054082D03*
D17*
X165010475Y-100771389D03*
D18*
X165022694Y-101336085D03*
D19*
X165052236Y-100491620D03*
D20*
X165076518Y-101613785D03*
D21*
X165125334Y-100218361D03*
D22*
X165161368Y-101883627D03*
D23*
X165228834Y-99955108D03*
D24*
X165276157Y-102142156D03*
D25*
X165361409Y-99705232D03*
D26*
X165419417Y-102386063D03*
D27*
X165521363Y-99471932D03*
D28*
X165589313Y-102612226D03*
D29*
X165706648Y-99258195D03*
D30*
X165783670Y-102817748D03*
D31*
X165914892Y-99066757D03*
D32*
X166000001Y-103000000D03*
D33*
X166143429Y-98900069D03*
D34*
X166312566Y-98800001D03*
D35*
X166906283Y-98800000D03*
D36*
X167117474Y-102400000D03*
D37*
X167192524Y-100000000D03*
D38*
X167261243Y-101200000D03*
D39*
X167750776Y-100600000D03*
D40*
X167783980Y-101800000D03*
D41*
X167952015Y-99400000D03*
D42*
X168250000Y-103000000D03*
D43*
X168687434Y-98800000D03*
D44*
X168928358Y-98948223D03*
D45*
X168999999Y-103000000D03*
D46*
X169150996Y-99122712D03*
D47*
X169152461Y-102875998D03*
D48*
X169352497Y-99321235D03*
D49*
X169353807Y-102677318D03*
D50*
X169530282Y-99541250D03*
D51*
X169531421Y-102457164D03*
D52*
X169682075Y-99779940D03*
D53*
X169683027Y-102218355D03*
D54*
X169805932Y-100034250D03*
D55*
X169806686Y-101963948D03*
D56*
X169900269Y-100300924D03*
D57*
X169900814Y-101697201D03*
D58*
X169963876Y-100576547D03*
D59*
X169964206Y-101421528D03*
D60*
X169995940Y-100857592D03*
D61*
X169996051Y-101140459D03*
%TD*%
D16*
%TO.C,SW9*%
X200000586Y-101554082D03*
D17*
X200010475Y-101271389D03*
D18*
X200022694Y-101836085D03*
D19*
X200052236Y-100991620D03*
D20*
X200076518Y-102113785D03*
D21*
X200125334Y-100718361D03*
D22*
X200161368Y-102383627D03*
D23*
X200228834Y-100455108D03*
D24*
X200276157Y-102642156D03*
D25*
X200361409Y-100205232D03*
D26*
X200419417Y-102886063D03*
D27*
X200521363Y-99971932D03*
D28*
X200589313Y-103112226D03*
D29*
X200706648Y-99758195D03*
D30*
X200783670Y-103317748D03*
D31*
X200914892Y-99566757D03*
D32*
X201000001Y-103500000D03*
D33*
X201143429Y-99400069D03*
D34*
X201312566Y-99300001D03*
D35*
X201906283Y-99300000D03*
D36*
X202117474Y-102900000D03*
D37*
X202192524Y-100500000D03*
D38*
X202261243Y-101700000D03*
D39*
X202750776Y-101100000D03*
D40*
X202783980Y-102300000D03*
D41*
X202952015Y-99900000D03*
D42*
X203250000Y-103500000D03*
D43*
X203687434Y-99300000D03*
D44*
X203928358Y-99448223D03*
D45*
X203999999Y-103500000D03*
D46*
X204150996Y-99622712D03*
D47*
X204152461Y-103375998D03*
D48*
X204352497Y-99821235D03*
D49*
X204353807Y-103177318D03*
D50*
X204530282Y-100041250D03*
D51*
X204531421Y-102957164D03*
D52*
X204682075Y-100279940D03*
D53*
X204683027Y-102718355D03*
D54*
X204805932Y-100534250D03*
D55*
X204806686Y-102463948D03*
D56*
X204900269Y-100800924D03*
D57*
X204900814Y-102197201D03*
D58*
X204963876Y-101076547D03*
D59*
X204964206Y-101921528D03*
D60*
X204995940Y-101357592D03*
D61*
X204996051Y-101640459D03*
%TD*%
D62*
%TO.C,R5*%
X136170000Y-93510000D03*
X135150000Y-93510000D03*
%TD*%
D16*
%TO.C,SW8*%
X190500586Y-87554082D03*
D17*
X190510475Y-87271389D03*
D18*
X190522694Y-87836085D03*
D19*
X190552236Y-86991620D03*
D20*
X190576518Y-88113785D03*
D21*
X190625334Y-86718361D03*
D22*
X190661368Y-88383627D03*
D23*
X190728834Y-86455108D03*
D24*
X190776157Y-88642156D03*
D25*
X190861409Y-86205232D03*
D26*
X190919417Y-88886063D03*
D27*
X191021363Y-85971932D03*
D28*
X191089313Y-89112226D03*
D29*
X191206648Y-85758195D03*
D30*
X191283670Y-89317748D03*
D31*
X191414892Y-85566757D03*
D32*
X191500001Y-89500000D03*
D33*
X191643429Y-85400069D03*
D34*
X191812566Y-85300001D03*
D35*
X192406283Y-85300000D03*
D36*
X192617474Y-88900000D03*
D37*
X192692524Y-86500000D03*
D38*
X192761243Y-87700000D03*
D39*
X193250776Y-87100000D03*
D40*
X193283980Y-88300000D03*
D41*
X193452015Y-85900000D03*
D42*
X193750000Y-89500000D03*
D43*
X194187434Y-85300000D03*
D44*
X194428358Y-85448223D03*
D45*
X194499999Y-89500000D03*
D46*
X194650996Y-85622712D03*
D47*
X194652461Y-89375998D03*
D48*
X194852497Y-85821235D03*
D49*
X194853807Y-89177318D03*
D50*
X195030282Y-86041250D03*
D51*
X195031421Y-88957164D03*
D52*
X195182075Y-86279940D03*
D53*
X195183027Y-88718355D03*
D54*
X195305932Y-86534250D03*
D55*
X195306686Y-88463948D03*
D56*
X195400269Y-86800924D03*
D57*
X195400814Y-88197201D03*
D58*
X195463876Y-87076547D03*
D59*
X195464206Y-87921528D03*
D60*
X195495940Y-87357592D03*
D61*
X195496051Y-87640459D03*
%TD*%
D63*
%TO.C,R8*%
X134915505Y-99327053D03*
X135935505Y-99327053D03*
%TD*%
D64*
%TO.C,R7*%
X139095505Y-105466548D03*
X139095505Y-104446548D03*
%TD*%
D13*
%TO.C,C9*%
X135905505Y-101337053D03*
X134945505Y-101337053D03*
%TD*%
D65*
%TO.C,SW3*%
X109000000Y-100320000D03*
D66*
X108864306Y-100317868D03*
D67*
X109135694Y-100317868D03*
D68*
X108728745Y-100311475D03*
D69*
X109271255Y-100311475D03*
D70*
X108593452Y-100300828D03*
D71*
X109406548Y-100300828D03*
D72*
X108458560Y-100285936D03*
D73*
X109541440Y-100285936D03*
D74*
X108324203Y-100266814D03*
D75*
X109675797Y-100266814D03*
D76*
X108190513Y-100243481D03*
D77*
X108057621Y-100215960D03*
D78*
X107925660Y-100184279D03*
D79*
X107794758Y-100148469D03*
D80*
X107665047Y-100108564D03*
D81*
X107536652Y-100064605D03*
D82*
X107409702Y-100016634D03*
D83*
X107284321Y-99964700D03*
D84*
X107160633Y-99908853D03*
D85*
X107038761Y-99849148D03*
D86*
X106918824Y-99785645D03*
D87*
X106800941Y-99718406D03*
D88*
X106750000Y-97500000D03*
D89*
X109750000Y-97100000D03*
X108250000Y-94960000D03*
D88*
X111250000Y-94500000D03*
D90*
X111199059Y-92281594D03*
D91*
X111081176Y-92214355D03*
D92*
X110961239Y-92150852D03*
D93*
X110839367Y-92091147D03*
D94*
X110715679Y-92035300D03*
D95*
X110590298Y-91983366D03*
D96*
X110463348Y-91935395D03*
D97*
X110334953Y-91891436D03*
D98*
X110205242Y-91851531D03*
D99*
X110074340Y-91815721D03*
D100*
X109942379Y-91784040D03*
D101*
X109809487Y-91756519D03*
D102*
X108324203Y-91733186D03*
D103*
X109675797Y-91733186D03*
D104*
X108458560Y-91714064D03*
D105*
X109541440Y-91714064D03*
D106*
X108593452Y-91699172D03*
D107*
X109406548Y-91699172D03*
D108*
X108728745Y-91688525D03*
D109*
X109271255Y-91688525D03*
D110*
X108864306Y-91682132D03*
D111*
X109135694Y-91682132D03*
D65*
X109000000Y-91680000D03*
%TD*%
D112*
%TO.C,C12*%
X145805505Y-97717053D03*
X146765505Y-97717053D03*
%TD*%
D14*
%TO.C,C2*%
X132940000Y-79630000D03*
X132940000Y-80590000D03*
%TD*%
%TO.C,C13*%
X141205505Y-104467053D03*
X141205505Y-105427053D03*
%TD*%
D15*
%TO.C,U6*%
X137085000Y-107010000D03*
X137085000Y-107510000D03*
X137085000Y-108010000D03*
X137085000Y-108510000D03*
X137085000Y-109010000D03*
X138135000Y-109010000D03*
X138135000Y-108510000D03*
X138135000Y-108010000D03*
X138135000Y-107510000D03*
X138135000Y-107010000D03*
%TD*%
D64*
%TO.C,R4*%
X151780000Y-105390000D03*
X151780000Y-104370000D03*
%TD*%
D16*
%TO.C,SW11*%
X184000586Y-107754082D03*
D17*
X184010475Y-107471389D03*
D18*
X184022694Y-108036085D03*
D19*
X184052236Y-107191620D03*
D20*
X184076518Y-108313785D03*
D21*
X184125334Y-106918361D03*
D22*
X184161368Y-108583627D03*
D23*
X184228834Y-106655108D03*
D24*
X184276157Y-108842156D03*
D25*
X184361409Y-106405232D03*
D26*
X184419417Y-109086063D03*
D27*
X184521363Y-106171932D03*
D28*
X184589313Y-109312226D03*
D29*
X184706648Y-105958195D03*
D30*
X184783670Y-109517748D03*
D31*
X184914892Y-105766757D03*
D32*
X185000001Y-109700000D03*
D33*
X185143429Y-105600069D03*
D34*
X185312566Y-105500001D03*
D35*
X185906283Y-105500000D03*
D36*
X186117474Y-109100000D03*
D37*
X186192524Y-106700000D03*
D38*
X186261243Y-107900000D03*
D39*
X186750776Y-107300000D03*
D40*
X186783980Y-108500000D03*
D41*
X186952015Y-106100000D03*
D42*
X187250000Y-109700000D03*
D43*
X187687434Y-105500000D03*
D44*
X187928358Y-105648223D03*
D45*
X187999999Y-109700000D03*
D46*
X188150996Y-105822712D03*
D47*
X188152461Y-109575998D03*
D48*
X188352497Y-106021235D03*
D49*
X188353807Y-109377318D03*
D50*
X188530282Y-106241250D03*
D51*
X188531421Y-109157164D03*
D52*
X188682075Y-106479940D03*
D53*
X188683027Y-108918355D03*
D54*
X188805932Y-106734250D03*
D55*
X188806686Y-108663948D03*
D56*
X188900269Y-107000924D03*
D57*
X188900814Y-108397201D03*
D58*
X188963876Y-107276547D03*
D59*
X188964206Y-108121528D03*
D60*
X188995940Y-107557592D03*
D61*
X188996051Y-107840459D03*
%TD*%
D15*
%TO.C,U1*%
X149310505Y-98557053D03*
X149310505Y-98057053D03*
X149310505Y-97557053D03*
X149310505Y-97057053D03*
X149310505Y-96557053D03*
X148260505Y-96557053D03*
X148260505Y-97057053D03*
X148260505Y-97557053D03*
X148260505Y-98057053D03*
X148260505Y-98557053D03*
%TD*%
D64*
%TO.C,R6*%
X140095505Y-105466548D03*
X140095505Y-104446548D03*
%TD*%
D14*
%TO.C,C10*%
X137125505Y-104447053D03*
X137125505Y-105407053D03*
%TD*%
D113*
%TO.C,D2*%
X133587288Y-101082053D03*
X133587288Y-99507053D03*
%TD*%
D65*
%TO.C,SW2*%
X109000000Y-118320000D03*
D66*
X108864306Y-118317868D03*
D67*
X109135694Y-118317868D03*
D68*
X108728745Y-118311475D03*
D69*
X109271255Y-118311475D03*
D70*
X108593452Y-118300828D03*
D71*
X109406548Y-118300828D03*
D72*
X108458560Y-118285936D03*
D73*
X109541440Y-118285936D03*
D74*
X108324203Y-118266814D03*
D75*
X109675797Y-118266814D03*
D76*
X108190513Y-118243481D03*
D77*
X108057621Y-118215960D03*
D78*
X107925660Y-118184279D03*
D79*
X107794758Y-118148469D03*
D80*
X107665047Y-118108564D03*
D81*
X107536652Y-118064605D03*
D82*
X107409702Y-118016634D03*
D83*
X107284321Y-117964700D03*
D84*
X107160633Y-117908853D03*
D85*
X107038761Y-117849148D03*
D86*
X106918824Y-117785645D03*
D87*
X106800941Y-117718406D03*
D88*
X106750000Y-115500000D03*
D89*
X109750000Y-115100000D03*
X108250000Y-112960000D03*
D88*
X111250000Y-112500000D03*
D90*
X111199059Y-110281594D03*
D91*
X111081176Y-110214355D03*
D92*
X110961239Y-110150852D03*
D93*
X110839367Y-110091147D03*
D94*
X110715679Y-110035300D03*
D95*
X110590298Y-109983366D03*
D96*
X110463348Y-109935395D03*
D97*
X110334953Y-109891436D03*
D98*
X110205242Y-109851531D03*
D99*
X110074340Y-109815721D03*
D100*
X109942379Y-109784040D03*
D101*
X109809487Y-109756519D03*
D102*
X108324203Y-109733186D03*
D103*
X109675797Y-109733186D03*
D104*
X108458560Y-109714064D03*
D105*
X109541440Y-109714064D03*
D106*
X108593452Y-109699172D03*
D107*
X109406548Y-109699172D03*
D108*
X108728745Y-109688525D03*
D109*
X109271255Y-109688525D03*
D110*
X108864306Y-109682132D03*
D111*
X109135694Y-109682132D03*
D65*
X109000000Y-109680000D03*
%TD*%
D114*
%TO.C,D1*%
X124730000Y-86274938D03*
X124730000Y-87849938D03*
%TD*%
D65*
%TO.C,SW1*%
X104320000Y-105000000D03*
D115*
X104317868Y-105135694D03*
D116*
X104317868Y-104864306D03*
D117*
X104311475Y-105271255D03*
D118*
X104311475Y-104728745D03*
D119*
X104300828Y-105406548D03*
D120*
X104300828Y-104593452D03*
D121*
X104285936Y-105541440D03*
D122*
X104285936Y-104458560D03*
D123*
X104266814Y-105675797D03*
D124*
X104266814Y-104324203D03*
D125*
X104243481Y-105809487D03*
D126*
X104215960Y-105942379D03*
D127*
X104184279Y-106074340D03*
D128*
X104148469Y-106205242D03*
D129*
X104108564Y-106334953D03*
D130*
X104064605Y-106463348D03*
D131*
X104016634Y-106590298D03*
D132*
X103964700Y-106715679D03*
D133*
X103908853Y-106839367D03*
D134*
X103849148Y-106961239D03*
D135*
X103785645Y-107081176D03*
D136*
X103718406Y-107199059D03*
D137*
X101500000Y-107250000D03*
D138*
X101100000Y-104250000D03*
X98960000Y-105750000D03*
D137*
X98500000Y-102750000D03*
D139*
X96281594Y-102800941D03*
D140*
X96214355Y-102918824D03*
D141*
X96150852Y-103038761D03*
D142*
X96091147Y-103160633D03*
D143*
X96035300Y-103284321D03*
D144*
X95983366Y-103409702D03*
D145*
X95935395Y-103536652D03*
D146*
X95891436Y-103665047D03*
D147*
X95851531Y-103794758D03*
D148*
X95815721Y-103925660D03*
D149*
X95784040Y-104057621D03*
D150*
X95756519Y-104190513D03*
D151*
X95733186Y-105675797D03*
D152*
X95733186Y-104324203D03*
D153*
X95714064Y-105541440D03*
D154*
X95714064Y-104458560D03*
D155*
X95699172Y-105406548D03*
D156*
X95699172Y-104593452D03*
D157*
X95688525Y-105271255D03*
D158*
X95688525Y-104728745D03*
D159*
X95682132Y-105135694D03*
D160*
X95682132Y-104864306D03*
D65*
X95680000Y-105000000D03*
%TD*%
D112*
%TO.C,C3*%
X132840000Y-93510000D03*
X133800000Y-93510000D03*
%TD*%
D16*
%TO.C,SW7*%
X170000586Y-117054082D03*
D17*
X170010475Y-116771389D03*
D18*
X170022694Y-117336085D03*
D19*
X170052236Y-116491620D03*
D20*
X170076518Y-117613785D03*
D21*
X170125334Y-116218361D03*
D22*
X170161368Y-117883627D03*
D23*
X170228834Y-115955108D03*
D24*
X170276157Y-118142156D03*
D25*
X170361409Y-115705232D03*
D26*
X170419417Y-118386063D03*
D27*
X170521363Y-115471932D03*
D28*
X170589313Y-118612226D03*
D29*
X170706648Y-115258195D03*
D30*
X170783670Y-118817748D03*
D31*
X170914892Y-115066757D03*
D32*
X171000001Y-119000000D03*
D33*
X171143429Y-114900069D03*
D34*
X171312566Y-114800001D03*
D35*
X171906283Y-114800000D03*
D36*
X172117474Y-118400000D03*
D37*
X172192524Y-116000000D03*
D38*
X172261243Y-117200000D03*
D39*
X172750776Y-116600000D03*
D40*
X172783980Y-117800000D03*
D41*
X172952015Y-115400000D03*
D42*
X173250000Y-119000000D03*
D43*
X173687434Y-114800000D03*
D44*
X173928358Y-114948223D03*
D45*
X173999999Y-119000000D03*
D46*
X174150996Y-115122712D03*
D47*
X174152461Y-118875998D03*
D48*
X174352497Y-115321235D03*
D49*
X174353807Y-118677318D03*
D50*
X174530282Y-115541250D03*
D51*
X174531421Y-118457164D03*
D52*
X174682075Y-115779940D03*
D53*
X174683027Y-118218355D03*
D54*
X174805932Y-116034250D03*
D55*
X174806686Y-117963948D03*
D56*
X174900269Y-116300924D03*
D57*
X174900814Y-117697201D03*
D58*
X174963876Y-116576547D03*
D59*
X174964206Y-117421528D03*
D60*
X174995940Y-116857592D03*
D61*
X174996051Y-117140459D03*
%TD*%
D161*
%TO.C,FLASH1*%
X150105000Y-102285000D03*
D162*
X148950000Y-104690000D03*
D161*
X148835000Y-102285000D03*
D162*
X148450000Y-104690000D03*
D161*
X147565000Y-102285000D03*
D162*
X147950000Y-104690000D03*
D161*
X146295000Y-102285000D03*
D162*
X147450000Y-104690000D03*
D163*
X148200000Y-105890000D03*
D162*
X147450000Y-107090000D03*
D161*
X146295000Y-109495000D03*
D162*
X147950000Y-107090000D03*
D161*
X147565000Y-109495000D03*
D162*
X148450000Y-107090000D03*
D161*
X148835000Y-109495000D03*
D162*
X148950000Y-107090000D03*
D161*
X150105000Y-109495000D03*
%TD*%
D164*
%TO.C,Y1*%
X133400000Y-92000000D03*
X135600000Y-92000000D03*
X135600000Y-90400000D03*
X133400000Y-90400000D03*
%TD*%
D13*
%TO.C,C14*%
X140080000Y-93800000D03*
X139120000Y-93800000D03*
%TD*%
D112*
%TO.C,C4*%
X134020000Y-88900000D03*
X134980000Y-88900000D03*
%TD*%
D165*
%TO.C,SW13*%
X135000000Y-118600000D03*
X128800000Y-118600000D03*
X135000000Y-114900000D03*
X128800000Y-114900000D03*
%TD*%
D65*
%TO.C,SW0*%
X122320000Y-105000000D03*
D115*
X122317868Y-105135694D03*
D116*
X122317868Y-104864306D03*
D117*
X122311475Y-105271255D03*
D118*
X122311475Y-104728745D03*
D119*
X122300828Y-105406548D03*
D120*
X122300828Y-104593452D03*
D121*
X122285936Y-105541440D03*
D122*
X122285936Y-104458560D03*
D123*
X122266814Y-105675797D03*
D124*
X122266814Y-104324203D03*
D125*
X122243481Y-105809487D03*
D126*
X122215960Y-105942379D03*
D127*
X122184279Y-106074340D03*
D128*
X122148469Y-106205242D03*
D129*
X122108564Y-106334953D03*
D130*
X122064605Y-106463348D03*
D131*
X122016634Y-106590298D03*
D132*
X121964700Y-106715679D03*
D133*
X121908853Y-106839367D03*
D134*
X121849148Y-106961239D03*
D135*
X121785645Y-107081176D03*
D136*
X121718406Y-107199059D03*
D137*
X119500000Y-107250000D03*
D138*
X119100000Y-104250000D03*
X116960000Y-105750000D03*
D137*
X116500000Y-102750000D03*
D139*
X114281594Y-102800941D03*
D140*
X114214355Y-102918824D03*
D141*
X114150852Y-103038761D03*
D142*
X114091147Y-103160633D03*
D143*
X114035300Y-103284321D03*
D144*
X113983366Y-103409702D03*
D145*
X113935395Y-103536652D03*
D146*
X113891436Y-103665047D03*
D147*
X113851531Y-103794758D03*
D148*
X113815721Y-103925660D03*
D149*
X113784040Y-104057621D03*
D150*
X113756519Y-104190513D03*
D151*
X113733186Y-105675797D03*
D152*
X113733186Y-104324203D03*
D153*
X113714064Y-105541440D03*
D154*
X113714064Y-104458560D03*
D155*
X113699172Y-105406548D03*
D156*
X113699172Y-104593452D03*
D157*
X113688525Y-105271255D03*
D158*
X113688525Y-104728745D03*
D159*
X113682132Y-105135694D03*
D160*
X113682132Y-104864306D03*
D65*
X113680000Y-105000000D03*
%TD*%
D166*
%TO.C,U4*%
X144328005Y-101321548D03*
X144328005Y-100921548D03*
X144328005Y-100521548D03*
X144328005Y-100121548D03*
X144328005Y-99721548D03*
X144328005Y-99321548D03*
X144328005Y-98921548D03*
X144328005Y-98521548D03*
X144328005Y-98121548D03*
X144328005Y-97721548D03*
X144328005Y-97321548D03*
X144328005Y-96921548D03*
X144328005Y-96521548D03*
X144328005Y-96121548D03*
D167*
X143490505Y-95284048D03*
X143090505Y-95284048D03*
X142690505Y-95284048D03*
X142290505Y-95284048D03*
X141890505Y-95284048D03*
X141490505Y-95284048D03*
X141090505Y-95284048D03*
X140690505Y-95284048D03*
X140290505Y-95284048D03*
X139890505Y-95284048D03*
X139490505Y-95284048D03*
X139090505Y-95284048D03*
X138690505Y-95284048D03*
X138290505Y-95284048D03*
D166*
X137453005Y-96121548D03*
X137453005Y-96521548D03*
X137453005Y-96921548D03*
X137453005Y-97321548D03*
X137453005Y-97721548D03*
X137453005Y-98121548D03*
X137453005Y-98521548D03*
X137453005Y-98921548D03*
X137453005Y-99321548D03*
X137453005Y-99721548D03*
X137453005Y-100121548D03*
X137453005Y-100521548D03*
X137453005Y-100921548D03*
X137453005Y-101321548D03*
D167*
X138290505Y-102159048D03*
X138690505Y-102159048D03*
X139090505Y-102159048D03*
X139490505Y-102159048D03*
X139890505Y-102159048D03*
X140290505Y-102159048D03*
X140690505Y-102159048D03*
X141090505Y-102159048D03*
X141490505Y-102159048D03*
X141890505Y-102159048D03*
X142290505Y-102159048D03*
X142690505Y-102159048D03*
X143090505Y-102159048D03*
X143490505Y-102159048D03*
D168*
X140890505Y-98721548D03*
%TD*%
D14*
%TO.C,C8*%
X138105505Y-104477053D03*
X138105505Y-105437053D03*
%TD*%
D169*
%TO.C,J2*%
X166910000Y-81900000D03*
X166910000Y-84400000D03*
X166910000Y-86400000D03*
X166910000Y-88900000D03*
D170*
X164200000Y-78400000D03*
X164200000Y-92400000D03*
%TD*%
D112*
%TO.C,C1*%
X124760000Y-83840000D03*
X125720000Y-83840000D03*
%TD*%
D15*
%TO.C,U7*%
X149310505Y-95357053D03*
X149310505Y-94857053D03*
X149310505Y-94357053D03*
X149310505Y-93857053D03*
X149310505Y-93357053D03*
X148260505Y-93357053D03*
X148260505Y-93857053D03*
X148260505Y-94357053D03*
X148260505Y-94857053D03*
X148260505Y-95357053D03*
%TD*%
D63*
%TO.C,R3*%
X151790000Y-103020000D03*
X152810000Y-103020000D03*
%TD*%
D14*
%TO.C,C7*%
X142315505Y-104477053D03*
X142315505Y-105437053D03*
%TD*%
D16*
%TO.C,SW10*%
X176500586Y-92554082D03*
D17*
X176510475Y-92271389D03*
D18*
X176522694Y-92836085D03*
D19*
X176552236Y-91991620D03*
D20*
X176576518Y-93113785D03*
D21*
X176625334Y-91718361D03*
D22*
X176661368Y-93383627D03*
D23*
X176728834Y-91455108D03*
D24*
X176776157Y-93642156D03*
D25*
X176861409Y-91205232D03*
D26*
X176919417Y-93886063D03*
D27*
X177021363Y-90971932D03*
D28*
X177089313Y-94112226D03*
D29*
X177206648Y-90758195D03*
D30*
X177283670Y-94317748D03*
D31*
X177414892Y-90566757D03*
D32*
X177500001Y-94500000D03*
D33*
X177643429Y-90400069D03*
D34*
X177812566Y-90300001D03*
D35*
X178406283Y-90300000D03*
D36*
X178617474Y-93900000D03*
D37*
X178692524Y-91500000D03*
D38*
X178761243Y-92700000D03*
D39*
X179250776Y-92100000D03*
D40*
X179283980Y-93300000D03*
D41*
X179452015Y-90900000D03*
D42*
X179750000Y-94500000D03*
D43*
X180187434Y-90300000D03*
D44*
X180428358Y-90448223D03*
D45*
X180499999Y-94500000D03*
D46*
X180650996Y-90622712D03*
D47*
X180652461Y-94375998D03*
D48*
X180852497Y-90821235D03*
D49*
X180853807Y-94177318D03*
D50*
X181030282Y-91041250D03*
D51*
X181031421Y-93957164D03*
D52*
X181182075Y-91279940D03*
D53*
X181183027Y-93718355D03*
D54*
X181305932Y-91534250D03*
D55*
X181306686Y-93463948D03*
D56*
X181400269Y-91800924D03*
D57*
X181400814Y-93197201D03*
D58*
X181463876Y-92076547D03*
D59*
X181464206Y-92921528D03*
D60*
X181495940Y-92357592D03*
D61*
X181496051Y-92640459D03*
%TD*%
D171*
%TO.C,C6*%
X137600000Y-94080000D03*
X137600000Y-93120000D03*
%TD*%
D172*
%TO.C,SW12*%
X185171075Y-80698859D03*
X178817858Y-77736305D03*
D173*
X185090510Y-77913880D03*
X181012125Y-76012098D03*
%TD*%
D174*
%TO.C,J1*%
X126801000Y-87800000D03*
D175*
X126801000Y-89800000D03*
X126801000Y-91800000D03*
X126801000Y-93800000D03*
X126801000Y-95800000D03*
%TD*%
D172*
%TO.C,SW5*%
X114268394Y-77759966D03*
X107915177Y-80722520D03*
D173*
X112083190Y-76031532D03*
X108004805Y-77933314D03*
%TD*%
M02*
