%TF.GenerationSoftware,KiCad,Pcbnew,8.0.0*%
%TF.CreationDate,2024-02-23T16:44:12-07:00*%
%TF.ProjectId,saturn_controller_pcb,73617475-726e-45f6-936f-6e74726f6c6c,4a*%
%TF.SameCoordinates,Original*%
%TF.FileFunction,Other,Comment*%
%FSLAX46Y46*%
G04 Gerber Fmt 4.6, Leading zero omitted, Abs format (unit mm)*
G04 Created by KiCad (PCBNEW 8.0.0) date 2024-02-23 16:44:12*
%MOMM*%
%LPD*%
G01*
G04 APERTURE LIST*
%ADD10C,0.030000*%
G04 APERTURE END LIST*
D10*
X132119047Y-108700963D02*
X132119047Y-108500963D01*
X132119047Y-108500963D02*
X132233332Y-108700963D01*
X132233332Y-108700963D02*
X132233332Y-108500963D01*
X132357142Y-108700963D02*
X132338094Y-108691440D01*
X132338094Y-108691440D02*
X132328571Y-108681916D01*
X132328571Y-108681916D02*
X132319047Y-108662868D01*
X132319047Y-108662868D02*
X132319047Y-108605725D01*
X132319047Y-108605725D02*
X132328571Y-108586678D01*
X132328571Y-108586678D02*
X132338094Y-108577154D01*
X132338094Y-108577154D02*
X132357142Y-108567630D01*
X132357142Y-108567630D02*
X132385713Y-108567630D01*
X132385713Y-108567630D02*
X132404761Y-108577154D01*
X132404761Y-108577154D02*
X132414285Y-108586678D01*
X132414285Y-108586678D02*
X132423809Y-108605725D01*
X132423809Y-108605725D02*
X132423809Y-108662868D01*
X132423809Y-108662868D02*
X132414285Y-108681916D01*
X132414285Y-108681916D02*
X132404761Y-108691440D01*
X132404761Y-108691440D02*
X132385713Y-108700963D01*
X132385713Y-108700963D02*
X132357142Y-108700963D01*
X132728570Y-108596201D02*
X132661904Y-108596201D01*
X132661904Y-108700963D02*
X132661904Y-108500963D01*
X132661904Y-108500963D02*
X132757142Y-108500963D01*
X132833333Y-108681916D02*
X132842856Y-108691440D01*
X132842856Y-108691440D02*
X132833333Y-108700963D01*
X132833333Y-108700963D02*
X132823809Y-108691440D01*
X132823809Y-108691440D02*
X132833333Y-108681916D01*
X132833333Y-108681916D02*
X132833333Y-108700963D01*
X133042856Y-108681916D02*
X133033332Y-108691440D01*
X133033332Y-108691440D02*
X133004761Y-108700963D01*
X133004761Y-108700963D02*
X132985713Y-108700963D01*
X132985713Y-108700963D02*
X132957142Y-108691440D01*
X132957142Y-108691440D02*
X132938094Y-108672392D01*
X132938094Y-108672392D02*
X132928571Y-108653344D01*
X132928571Y-108653344D02*
X132919047Y-108615249D01*
X132919047Y-108615249D02*
X132919047Y-108586678D01*
X132919047Y-108586678D02*
X132928571Y-108548582D01*
X132928571Y-108548582D02*
X132938094Y-108529535D01*
X132938094Y-108529535D02*
X132957142Y-108510487D01*
X132957142Y-108510487D02*
X132985713Y-108500963D01*
X132985713Y-108500963D02*
X133004761Y-108500963D01*
X133004761Y-108500963D02*
X133033332Y-108510487D01*
X133033332Y-108510487D02*
X133042856Y-108520011D01*
X133214285Y-108567630D02*
X133214285Y-108700963D01*
X133128571Y-108567630D02*
X133128571Y-108672392D01*
X133128571Y-108672392D02*
X133138094Y-108691440D01*
X133138094Y-108691440D02*
X133157142Y-108700963D01*
X133157142Y-108700963D02*
X133185713Y-108700963D01*
X133185713Y-108700963D02*
X133204761Y-108691440D01*
X133204761Y-108691440D02*
X133214285Y-108681916D01*
X133433332Y-108567630D02*
X133509523Y-108567630D01*
X133461904Y-108500963D02*
X133461904Y-108672392D01*
X133461904Y-108672392D02*
X133471427Y-108691440D01*
X133471427Y-108691440D02*
X133490475Y-108700963D01*
X133490475Y-108700963D02*
X133509523Y-108700963D01*
X133576190Y-108700963D02*
X133576190Y-108567630D01*
X133576190Y-108605725D02*
X133585713Y-108586678D01*
X133585713Y-108586678D02*
X133595237Y-108577154D01*
X133595237Y-108577154D02*
X133614285Y-108567630D01*
X133614285Y-108567630D02*
X133633332Y-108567630D01*
X133785714Y-108700963D02*
X133785714Y-108596201D01*
X133785714Y-108596201D02*
X133776190Y-108577154D01*
X133776190Y-108577154D02*
X133757142Y-108567630D01*
X133757142Y-108567630D02*
X133719047Y-108567630D01*
X133719047Y-108567630D02*
X133700000Y-108577154D01*
X133785714Y-108691440D02*
X133766666Y-108700963D01*
X133766666Y-108700963D02*
X133719047Y-108700963D01*
X133719047Y-108700963D02*
X133700000Y-108691440D01*
X133700000Y-108691440D02*
X133690476Y-108672392D01*
X133690476Y-108672392D02*
X133690476Y-108653344D01*
X133690476Y-108653344D02*
X133700000Y-108634297D01*
X133700000Y-108634297D02*
X133719047Y-108624773D01*
X133719047Y-108624773D02*
X133766666Y-108624773D01*
X133766666Y-108624773D02*
X133785714Y-108615249D01*
X133966666Y-108691440D02*
X133947618Y-108700963D01*
X133947618Y-108700963D02*
X133909523Y-108700963D01*
X133909523Y-108700963D02*
X133890475Y-108691440D01*
X133890475Y-108691440D02*
X133880952Y-108681916D01*
X133880952Y-108681916D02*
X133871428Y-108662868D01*
X133871428Y-108662868D02*
X133871428Y-108605725D01*
X133871428Y-108605725D02*
X133880952Y-108586678D01*
X133880952Y-108586678D02*
X133890475Y-108577154D01*
X133890475Y-108577154D02*
X133909523Y-108567630D01*
X133909523Y-108567630D02*
X133947618Y-108567630D01*
X133947618Y-108567630D02*
X133966666Y-108577154D01*
X134052381Y-108700963D02*
X134052381Y-108500963D01*
X134071428Y-108624773D02*
X134128571Y-108700963D01*
X134128571Y-108567630D02*
X134052381Y-108643820D01*
X134204762Y-108691440D02*
X134223809Y-108700963D01*
X134223809Y-108700963D02*
X134261905Y-108700963D01*
X134261905Y-108700963D02*
X134280952Y-108691440D01*
X134280952Y-108691440D02*
X134290476Y-108672392D01*
X134290476Y-108672392D02*
X134290476Y-108662868D01*
X134290476Y-108662868D02*
X134280952Y-108643820D01*
X134280952Y-108643820D02*
X134261905Y-108634297D01*
X134261905Y-108634297D02*
X134233333Y-108634297D01*
X134233333Y-108634297D02*
X134214286Y-108624773D01*
X134214286Y-108624773D02*
X134204762Y-108605725D01*
X134204762Y-108605725D02*
X134204762Y-108596201D01*
X134204762Y-108596201D02*
X134214286Y-108577154D01*
X134214286Y-108577154D02*
X134233333Y-108567630D01*
X134233333Y-108567630D02*
X134261905Y-108567630D01*
X134261905Y-108567630D02*
X134280952Y-108577154D01*
X131985715Y-108300963D02*
X131985715Y-108100963D01*
X132100000Y-108300963D02*
X132014286Y-108186678D01*
X132100000Y-108100963D02*
X131985715Y-108215249D01*
X132185715Y-108196201D02*
X132252381Y-108196201D01*
X132280953Y-108300963D02*
X132185715Y-108300963D01*
X132185715Y-108300963D02*
X132185715Y-108100963D01*
X132185715Y-108100963D02*
X132280953Y-108100963D01*
X132366667Y-108196201D02*
X132433333Y-108196201D01*
X132461905Y-108300963D02*
X132366667Y-108300963D01*
X132366667Y-108300963D02*
X132366667Y-108100963D01*
X132366667Y-108100963D02*
X132461905Y-108100963D01*
X132547619Y-108300963D02*
X132547619Y-108100963D01*
X132547619Y-108100963D02*
X132623809Y-108100963D01*
X132623809Y-108100963D02*
X132642857Y-108110487D01*
X132642857Y-108110487D02*
X132652380Y-108120011D01*
X132652380Y-108120011D02*
X132661904Y-108139059D01*
X132661904Y-108139059D02*
X132661904Y-108167630D01*
X132661904Y-108167630D02*
X132652380Y-108186678D01*
X132652380Y-108186678D02*
X132642857Y-108196201D01*
X132642857Y-108196201D02*
X132623809Y-108205725D01*
X132623809Y-108205725D02*
X132547619Y-108205725D01*
X132747619Y-108224773D02*
X132900000Y-108224773D01*
X133033333Y-108100963D02*
X133071428Y-108100963D01*
X133071428Y-108100963D02*
X133090476Y-108110487D01*
X133090476Y-108110487D02*
X133109523Y-108129535D01*
X133109523Y-108129535D02*
X133119047Y-108167630D01*
X133119047Y-108167630D02*
X133119047Y-108234297D01*
X133119047Y-108234297D02*
X133109523Y-108272392D01*
X133109523Y-108272392D02*
X133090476Y-108291440D01*
X133090476Y-108291440D02*
X133071428Y-108300963D01*
X133071428Y-108300963D02*
X133033333Y-108300963D01*
X133033333Y-108300963D02*
X133014285Y-108291440D01*
X133014285Y-108291440D02*
X132995238Y-108272392D01*
X132995238Y-108272392D02*
X132985714Y-108234297D01*
X132985714Y-108234297D02*
X132985714Y-108167630D01*
X132985714Y-108167630D02*
X132995238Y-108129535D01*
X132995238Y-108129535D02*
X133014285Y-108110487D01*
X133014285Y-108110487D02*
X133033333Y-108100963D01*
X133204762Y-108100963D02*
X133204762Y-108262868D01*
X133204762Y-108262868D02*
X133214285Y-108281916D01*
X133214285Y-108281916D02*
X133223809Y-108291440D01*
X133223809Y-108291440D02*
X133242857Y-108300963D01*
X133242857Y-108300963D02*
X133280952Y-108300963D01*
X133280952Y-108300963D02*
X133300000Y-108291440D01*
X133300000Y-108291440D02*
X133309523Y-108281916D01*
X133309523Y-108281916D02*
X133319047Y-108262868D01*
X133319047Y-108262868D02*
X133319047Y-108100963D01*
X133385714Y-108100963D02*
X133500000Y-108100963D01*
X133442857Y-108300963D02*
X133442857Y-108100963D01*
X133700000Y-108100963D02*
X133833333Y-108100963D01*
X133833333Y-108100963D02*
X133700000Y-108300963D01*
X133700000Y-108300963D02*
X133833333Y-108300963D01*
X133947619Y-108100963D02*
X133985714Y-108100963D01*
X133985714Y-108100963D02*
X134004762Y-108110487D01*
X134004762Y-108110487D02*
X134023809Y-108129535D01*
X134023809Y-108129535D02*
X134033333Y-108167630D01*
X134033333Y-108167630D02*
X134033333Y-108234297D01*
X134033333Y-108234297D02*
X134023809Y-108272392D01*
X134023809Y-108272392D02*
X134004762Y-108291440D01*
X134004762Y-108291440D02*
X133985714Y-108300963D01*
X133985714Y-108300963D02*
X133947619Y-108300963D01*
X133947619Y-108300963D02*
X133928571Y-108291440D01*
X133928571Y-108291440D02*
X133909524Y-108272392D01*
X133909524Y-108272392D02*
X133900000Y-108234297D01*
X133900000Y-108234297D02*
X133900000Y-108167630D01*
X133900000Y-108167630D02*
X133909524Y-108129535D01*
X133909524Y-108129535D02*
X133928571Y-108110487D01*
X133928571Y-108110487D02*
X133947619Y-108100963D01*
X134119048Y-108300963D02*
X134119048Y-108100963D01*
X134119048Y-108100963D02*
X134233333Y-108300963D01*
X134233333Y-108300963D02*
X134233333Y-108100963D01*
X134328572Y-108196201D02*
X134395238Y-108196201D01*
X134423810Y-108300963D02*
X134328572Y-108300963D01*
X134328572Y-108300963D02*
X134328572Y-108100963D01*
X134328572Y-108100963D02*
X134423810Y-108100963D01*
X127119047Y-108700963D02*
X127119047Y-108500963D01*
X127119047Y-108500963D02*
X127233332Y-108700963D01*
X127233332Y-108700963D02*
X127233332Y-108500963D01*
X127357142Y-108700963D02*
X127338094Y-108691440D01*
X127338094Y-108691440D02*
X127328571Y-108681916D01*
X127328571Y-108681916D02*
X127319047Y-108662868D01*
X127319047Y-108662868D02*
X127319047Y-108605725D01*
X127319047Y-108605725D02*
X127328571Y-108586678D01*
X127328571Y-108586678D02*
X127338094Y-108577154D01*
X127338094Y-108577154D02*
X127357142Y-108567630D01*
X127357142Y-108567630D02*
X127385713Y-108567630D01*
X127385713Y-108567630D02*
X127404761Y-108577154D01*
X127404761Y-108577154D02*
X127414285Y-108586678D01*
X127414285Y-108586678D02*
X127423809Y-108605725D01*
X127423809Y-108605725D02*
X127423809Y-108662868D01*
X127423809Y-108662868D02*
X127414285Y-108681916D01*
X127414285Y-108681916D02*
X127404761Y-108691440D01*
X127404761Y-108691440D02*
X127385713Y-108700963D01*
X127385713Y-108700963D02*
X127357142Y-108700963D01*
X127728570Y-108596201D02*
X127661904Y-108596201D01*
X127661904Y-108700963D02*
X127661904Y-108500963D01*
X127661904Y-108500963D02*
X127757142Y-108500963D01*
X127833333Y-108681916D02*
X127842856Y-108691440D01*
X127842856Y-108691440D02*
X127833333Y-108700963D01*
X127833333Y-108700963D02*
X127823809Y-108691440D01*
X127823809Y-108691440D02*
X127833333Y-108681916D01*
X127833333Y-108681916D02*
X127833333Y-108700963D01*
X128042856Y-108681916D02*
X128033332Y-108691440D01*
X128033332Y-108691440D02*
X128004761Y-108700963D01*
X128004761Y-108700963D02*
X127985713Y-108700963D01*
X127985713Y-108700963D02*
X127957142Y-108691440D01*
X127957142Y-108691440D02*
X127938094Y-108672392D01*
X127938094Y-108672392D02*
X127928571Y-108653344D01*
X127928571Y-108653344D02*
X127919047Y-108615249D01*
X127919047Y-108615249D02*
X127919047Y-108586678D01*
X127919047Y-108586678D02*
X127928571Y-108548582D01*
X127928571Y-108548582D02*
X127938094Y-108529535D01*
X127938094Y-108529535D02*
X127957142Y-108510487D01*
X127957142Y-108510487D02*
X127985713Y-108500963D01*
X127985713Y-108500963D02*
X128004761Y-108500963D01*
X128004761Y-108500963D02*
X128033332Y-108510487D01*
X128033332Y-108510487D02*
X128042856Y-108520011D01*
X128214285Y-108567630D02*
X128214285Y-108700963D01*
X128128571Y-108567630D02*
X128128571Y-108672392D01*
X128128571Y-108672392D02*
X128138094Y-108691440D01*
X128138094Y-108691440D02*
X128157142Y-108700963D01*
X128157142Y-108700963D02*
X128185713Y-108700963D01*
X128185713Y-108700963D02*
X128204761Y-108691440D01*
X128204761Y-108691440D02*
X128214285Y-108681916D01*
X128433332Y-108567630D02*
X128509523Y-108567630D01*
X128461904Y-108500963D02*
X128461904Y-108672392D01*
X128461904Y-108672392D02*
X128471427Y-108691440D01*
X128471427Y-108691440D02*
X128490475Y-108700963D01*
X128490475Y-108700963D02*
X128509523Y-108700963D01*
X128576190Y-108700963D02*
X128576190Y-108567630D01*
X128576190Y-108605725D02*
X128585713Y-108586678D01*
X128585713Y-108586678D02*
X128595237Y-108577154D01*
X128595237Y-108577154D02*
X128614285Y-108567630D01*
X128614285Y-108567630D02*
X128633332Y-108567630D01*
X128785714Y-108700963D02*
X128785714Y-108596201D01*
X128785714Y-108596201D02*
X128776190Y-108577154D01*
X128776190Y-108577154D02*
X128757142Y-108567630D01*
X128757142Y-108567630D02*
X128719047Y-108567630D01*
X128719047Y-108567630D02*
X128700000Y-108577154D01*
X128785714Y-108691440D02*
X128766666Y-108700963D01*
X128766666Y-108700963D02*
X128719047Y-108700963D01*
X128719047Y-108700963D02*
X128700000Y-108691440D01*
X128700000Y-108691440D02*
X128690476Y-108672392D01*
X128690476Y-108672392D02*
X128690476Y-108653344D01*
X128690476Y-108653344D02*
X128700000Y-108634297D01*
X128700000Y-108634297D02*
X128719047Y-108624773D01*
X128719047Y-108624773D02*
X128766666Y-108624773D01*
X128766666Y-108624773D02*
X128785714Y-108615249D01*
X128966666Y-108691440D02*
X128947618Y-108700963D01*
X128947618Y-108700963D02*
X128909523Y-108700963D01*
X128909523Y-108700963D02*
X128890475Y-108691440D01*
X128890475Y-108691440D02*
X128880952Y-108681916D01*
X128880952Y-108681916D02*
X128871428Y-108662868D01*
X128871428Y-108662868D02*
X128871428Y-108605725D01*
X128871428Y-108605725D02*
X128880952Y-108586678D01*
X128880952Y-108586678D02*
X128890475Y-108577154D01*
X128890475Y-108577154D02*
X128909523Y-108567630D01*
X128909523Y-108567630D02*
X128947618Y-108567630D01*
X128947618Y-108567630D02*
X128966666Y-108577154D01*
X129052381Y-108700963D02*
X129052381Y-108500963D01*
X129071428Y-108624773D02*
X129128571Y-108700963D01*
X129128571Y-108567630D02*
X129052381Y-108643820D01*
X129204762Y-108691440D02*
X129223809Y-108700963D01*
X129223809Y-108700963D02*
X129261905Y-108700963D01*
X129261905Y-108700963D02*
X129280952Y-108691440D01*
X129280952Y-108691440D02*
X129290476Y-108672392D01*
X129290476Y-108672392D02*
X129290476Y-108662868D01*
X129290476Y-108662868D02*
X129280952Y-108643820D01*
X129280952Y-108643820D02*
X129261905Y-108634297D01*
X129261905Y-108634297D02*
X129233333Y-108634297D01*
X129233333Y-108634297D02*
X129214286Y-108624773D01*
X129214286Y-108624773D02*
X129204762Y-108605725D01*
X129204762Y-108605725D02*
X129204762Y-108596201D01*
X129204762Y-108596201D02*
X129214286Y-108577154D01*
X129214286Y-108577154D02*
X129233333Y-108567630D01*
X129233333Y-108567630D02*
X129261905Y-108567630D01*
X129261905Y-108567630D02*
X129280952Y-108577154D01*
X126985715Y-108300963D02*
X126985715Y-108100963D01*
X127100000Y-108300963D02*
X127014286Y-108186678D01*
X127100000Y-108100963D02*
X126985715Y-108215249D01*
X127185715Y-108196201D02*
X127252381Y-108196201D01*
X127280953Y-108300963D02*
X127185715Y-108300963D01*
X127185715Y-108300963D02*
X127185715Y-108100963D01*
X127185715Y-108100963D02*
X127280953Y-108100963D01*
X127366667Y-108196201D02*
X127433333Y-108196201D01*
X127461905Y-108300963D02*
X127366667Y-108300963D01*
X127366667Y-108300963D02*
X127366667Y-108100963D01*
X127366667Y-108100963D02*
X127461905Y-108100963D01*
X127547619Y-108300963D02*
X127547619Y-108100963D01*
X127547619Y-108100963D02*
X127623809Y-108100963D01*
X127623809Y-108100963D02*
X127642857Y-108110487D01*
X127642857Y-108110487D02*
X127652380Y-108120011D01*
X127652380Y-108120011D02*
X127661904Y-108139059D01*
X127661904Y-108139059D02*
X127661904Y-108167630D01*
X127661904Y-108167630D02*
X127652380Y-108186678D01*
X127652380Y-108186678D02*
X127642857Y-108196201D01*
X127642857Y-108196201D02*
X127623809Y-108205725D01*
X127623809Y-108205725D02*
X127547619Y-108205725D01*
X127747619Y-108224773D02*
X127900000Y-108224773D01*
X128033333Y-108100963D02*
X128071428Y-108100963D01*
X128071428Y-108100963D02*
X128090476Y-108110487D01*
X128090476Y-108110487D02*
X128109523Y-108129535D01*
X128109523Y-108129535D02*
X128119047Y-108167630D01*
X128119047Y-108167630D02*
X128119047Y-108234297D01*
X128119047Y-108234297D02*
X128109523Y-108272392D01*
X128109523Y-108272392D02*
X128090476Y-108291440D01*
X128090476Y-108291440D02*
X128071428Y-108300963D01*
X128071428Y-108300963D02*
X128033333Y-108300963D01*
X128033333Y-108300963D02*
X128014285Y-108291440D01*
X128014285Y-108291440D02*
X127995238Y-108272392D01*
X127995238Y-108272392D02*
X127985714Y-108234297D01*
X127985714Y-108234297D02*
X127985714Y-108167630D01*
X127985714Y-108167630D02*
X127995238Y-108129535D01*
X127995238Y-108129535D02*
X128014285Y-108110487D01*
X128014285Y-108110487D02*
X128033333Y-108100963D01*
X128204762Y-108100963D02*
X128204762Y-108262868D01*
X128204762Y-108262868D02*
X128214285Y-108281916D01*
X128214285Y-108281916D02*
X128223809Y-108291440D01*
X128223809Y-108291440D02*
X128242857Y-108300963D01*
X128242857Y-108300963D02*
X128280952Y-108300963D01*
X128280952Y-108300963D02*
X128300000Y-108291440D01*
X128300000Y-108291440D02*
X128309523Y-108281916D01*
X128309523Y-108281916D02*
X128319047Y-108262868D01*
X128319047Y-108262868D02*
X128319047Y-108100963D01*
X128385714Y-108100963D02*
X128500000Y-108100963D01*
X128442857Y-108300963D02*
X128442857Y-108100963D01*
X128700000Y-108100963D02*
X128833333Y-108100963D01*
X128833333Y-108100963D02*
X128700000Y-108300963D01*
X128700000Y-108300963D02*
X128833333Y-108300963D01*
X128947619Y-108100963D02*
X128985714Y-108100963D01*
X128985714Y-108100963D02*
X129004762Y-108110487D01*
X129004762Y-108110487D02*
X129023809Y-108129535D01*
X129023809Y-108129535D02*
X129033333Y-108167630D01*
X129033333Y-108167630D02*
X129033333Y-108234297D01*
X129033333Y-108234297D02*
X129023809Y-108272392D01*
X129023809Y-108272392D02*
X129004762Y-108291440D01*
X129004762Y-108291440D02*
X128985714Y-108300963D01*
X128985714Y-108300963D02*
X128947619Y-108300963D01*
X128947619Y-108300963D02*
X128928571Y-108291440D01*
X128928571Y-108291440D02*
X128909524Y-108272392D01*
X128909524Y-108272392D02*
X128900000Y-108234297D01*
X128900000Y-108234297D02*
X128900000Y-108167630D01*
X128900000Y-108167630D02*
X128909524Y-108129535D01*
X128909524Y-108129535D02*
X128928571Y-108110487D01*
X128928571Y-108110487D02*
X128947619Y-108100963D01*
X129119048Y-108300963D02*
X129119048Y-108100963D01*
X129119048Y-108100963D02*
X129233333Y-108300963D01*
X129233333Y-108300963D02*
X129233333Y-108100963D01*
X129328572Y-108196201D02*
X129395238Y-108196201D01*
X129423810Y-108300963D02*
X129328572Y-108300963D01*
X129328572Y-108300963D02*
X129328572Y-108100963D01*
X129328572Y-108100963D02*
X129423810Y-108100963D01*
X128319047Y-116640963D02*
X128319047Y-116440963D01*
X128319047Y-116440963D02*
X128433332Y-116640963D01*
X128433332Y-116640963D02*
X128433332Y-116440963D01*
X128557142Y-116640963D02*
X128538094Y-116631440D01*
X128538094Y-116631440D02*
X128528571Y-116621916D01*
X128528571Y-116621916D02*
X128519047Y-116602868D01*
X128519047Y-116602868D02*
X128519047Y-116545725D01*
X128519047Y-116545725D02*
X128528571Y-116526678D01*
X128528571Y-116526678D02*
X128538094Y-116517154D01*
X128538094Y-116517154D02*
X128557142Y-116507630D01*
X128557142Y-116507630D02*
X128585713Y-116507630D01*
X128585713Y-116507630D02*
X128604761Y-116517154D01*
X128604761Y-116517154D02*
X128614285Y-116526678D01*
X128614285Y-116526678D02*
X128623809Y-116545725D01*
X128623809Y-116545725D02*
X128623809Y-116602868D01*
X128623809Y-116602868D02*
X128614285Y-116621916D01*
X128614285Y-116621916D02*
X128604761Y-116631440D01*
X128604761Y-116631440D02*
X128585713Y-116640963D01*
X128585713Y-116640963D02*
X128557142Y-116640963D01*
X128928570Y-116536201D02*
X128861904Y-116536201D01*
X128861904Y-116640963D02*
X128861904Y-116440963D01*
X128861904Y-116440963D02*
X128957142Y-116440963D01*
X129033333Y-116621916D02*
X129042856Y-116631440D01*
X129042856Y-116631440D02*
X129033333Y-116640963D01*
X129033333Y-116640963D02*
X129023809Y-116631440D01*
X129023809Y-116631440D02*
X129033333Y-116621916D01*
X129033333Y-116621916D02*
X129033333Y-116640963D01*
X129242856Y-116621916D02*
X129233332Y-116631440D01*
X129233332Y-116631440D02*
X129204761Y-116640963D01*
X129204761Y-116640963D02*
X129185713Y-116640963D01*
X129185713Y-116640963D02*
X129157142Y-116631440D01*
X129157142Y-116631440D02*
X129138094Y-116612392D01*
X129138094Y-116612392D02*
X129128571Y-116593344D01*
X129128571Y-116593344D02*
X129119047Y-116555249D01*
X129119047Y-116555249D02*
X129119047Y-116526678D01*
X129119047Y-116526678D02*
X129128571Y-116488582D01*
X129128571Y-116488582D02*
X129138094Y-116469535D01*
X129138094Y-116469535D02*
X129157142Y-116450487D01*
X129157142Y-116450487D02*
X129185713Y-116440963D01*
X129185713Y-116440963D02*
X129204761Y-116440963D01*
X129204761Y-116440963D02*
X129233332Y-116450487D01*
X129233332Y-116450487D02*
X129242856Y-116460011D01*
X129414285Y-116507630D02*
X129414285Y-116640963D01*
X129328571Y-116507630D02*
X129328571Y-116612392D01*
X129328571Y-116612392D02*
X129338094Y-116631440D01*
X129338094Y-116631440D02*
X129357142Y-116640963D01*
X129357142Y-116640963D02*
X129385713Y-116640963D01*
X129385713Y-116640963D02*
X129404761Y-116631440D01*
X129404761Y-116631440D02*
X129414285Y-116621916D01*
X129633332Y-116507630D02*
X129709523Y-116507630D01*
X129661904Y-116440963D02*
X129661904Y-116612392D01*
X129661904Y-116612392D02*
X129671427Y-116631440D01*
X129671427Y-116631440D02*
X129690475Y-116640963D01*
X129690475Y-116640963D02*
X129709523Y-116640963D01*
X129776190Y-116640963D02*
X129776190Y-116507630D01*
X129776190Y-116545725D02*
X129785713Y-116526678D01*
X129785713Y-116526678D02*
X129795237Y-116517154D01*
X129795237Y-116517154D02*
X129814285Y-116507630D01*
X129814285Y-116507630D02*
X129833332Y-116507630D01*
X129985714Y-116640963D02*
X129985714Y-116536201D01*
X129985714Y-116536201D02*
X129976190Y-116517154D01*
X129976190Y-116517154D02*
X129957142Y-116507630D01*
X129957142Y-116507630D02*
X129919047Y-116507630D01*
X129919047Y-116507630D02*
X129900000Y-116517154D01*
X129985714Y-116631440D02*
X129966666Y-116640963D01*
X129966666Y-116640963D02*
X129919047Y-116640963D01*
X129919047Y-116640963D02*
X129900000Y-116631440D01*
X129900000Y-116631440D02*
X129890476Y-116612392D01*
X129890476Y-116612392D02*
X129890476Y-116593344D01*
X129890476Y-116593344D02*
X129900000Y-116574297D01*
X129900000Y-116574297D02*
X129919047Y-116564773D01*
X129919047Y-116564773D02*
X129966666Y-116564773D01*
X129966666Y-116564773D02*
X129985714Y-116555249D01*
X130166666Y-116631440D02*
X130147618Y-116640963D01*
X130147618Y-116640963D02*
X130109523Y-116640963D01*
X130109523Y-116640963D02*
X130090475Y-116631440D01*
X130090475Y-116631440D02*
X130080952Y-116621916D01*
X130080952Y-116621916D02*
X130071428Y-116602868D01*
X130071428Y-116602868D02*
X130071428Y-116545725D01*
X130071428Y-116545725D02*
X130080952Y-116526678D01*
X130080952Y-116526678D02*
X130090475Y-116517154D01*
X130090475Y-116517154D02*
X130109523Y-116507630D01*
X130109523Y-116507630D02*
X130147618Y-116507630D01*
X130147618Y-116507630D02*
X130166666Y-116517154D01*
X130252381Y-116640963D02*
X130252381Y-116440963D01*
X130271428Y-116564773D02*
X130328571Y-116640963D01*
X130328571Y-116507630D02*
X130252381Y-116583820D01*
X130404762Y-116631440D02*
X130423809Y-116640963D01*
X130423809Y-116640963D02*
X130461905Y-116640963D01*
X130461905Y-116640963D02*
X130480952Y-116631440D01*
X130480952Y-116631440D02*
X130490476Y-116612392D01*
X130490476Y-116612392D02*
X130490476Y-116602868D01*
X130490476Y-116602868D02*
X130480952Y-116583820D01*
X130480952Y-116583820D02*
X130461905Y-116574297D01*
X130461905Y-116574297D02*
X130433333Y-116574297D01*
X130433333Y-116574297D02*
X130414286Y-116564773D01*
X130414286Y-116564773D02*
X130404762Y-116545725D01*
X130404762Y-116545725D02*
X130404762Y-116536201D01*
X130404762Y-116536201D02*
X130414286Y-116517154D01*
X130414286Y-116517154D02*
X130433333Y-116507630D01*
X130433333Y-116507630D02*
X130461905Y-116507630D01*
X130461905Y-116507630D02*
X130480952Y-116517154D01*
X133185715Y-117040963D02*
X133185715Y-116840963D01*
X133300000Y-117040963D02*
X133214286Y-116926678D01*
X133300000Y-116840963D02*
X133185715Y-116955249D01*
X133385715Y-116936201D02*
X133452381Y-116936201D01*
X133480953Y-117040963D02*
X133385715Y-117040963D01*
X133385715Y-117040963D02*
X133385715Y-116840963D01*
X133385715Y-116840963D02*
X133480953Y-116840963D01*
X133566667Y-116936201D02*
X133633333Y-116936201D01*
X133661905Y-117040963D02*
X133566667Y-117040963D01*
X133566667Y-117040963D02*
X133566667Y-116840963D01*
X133566667Y-116840963D02*
X133661905Y-116840963D01*
X133747619Y-117040963D02*
X133747619Y-116840963D01*
X133747619Y-116840963D02*
X133823809Y-116840963D01*
X133823809Y-116840963D02*
X133842857Y-116850487D01*
X133842857Y-116850487D02*
X133852380Y-116860011D01*
X133852380Y-116860011D02*
X133861904Y-116879059D01*
X133861904Y-116879059D02*
X133861904Y-116907630D01*
X133861904Y-116907630D02*
X133852380Y-116926678D01*
X133852380Y-116926678D02*
X133842857Y-116936201D01*
X133842857Y-116936201D02*
X133823809Y-116945725D01*
X133823809Y-116945725D02*
X133747619Y-116945725D01*
X133947619Y-116964773D02*
X134100000Y-116964773D01*
X134233333Y-116840963D02*
X134271428Y-116840963D01*
X134271428Y-116840963D02*
X134290476Y-116850487D01*
X134290476Y-116850487D02*
X134309523Y-116869535D01*
X134309523Y-116869535D02*
X134319047Y-116907630D01*
X134319047Y-116907630D02*
X134319047Y-116974297D01*
X134319047Y-116974297D02*
X134309523Y-117012392D01*
X134309523Y-117012392D02*
X134290476Y-117031440D01*
X134290476Y-117031440D02*
X134271428Y-117040963D01*
X134271428Y-117040963D02*
X134233333Y-117040963D01*
X134233333Y-117040963D02*
X134214285Y-117031440D01*
X134214285Y-117031440D02*
X134195238Y-117012392D01*
X134195238Y-117012392D02*
X134185714Y-116974297D01*
X134185714Y-116974297D02*
X134185714Y-116907630D01*
X134185714Y-116907630D02*
X134195238Y-116869535D01*
X134195238Y-116869535D02*
X134214285Y-116850487D01*
X134214285Y-116850487D02*
X134233333Y-116840963D01*
X134404762Y-116840963D02*
X134404762Y-117002868D01*
X134404762Y-117002868D02*
X134414285Y-117021916D01*
X134414285Y-117021916D02*
X134423809Y-117031440D01*
X134423809Y-117031440D02*
X134442857Y-117040963D01*
X134442857Y-117040963D02*
X134480952Y-117040963D01*
X134480952Y-117040963D02*
X134500000Y-117031440D01*
X134500000Y-117031440D02*
X134509523Y-117021916D01*
X134509523Y-117021916D02*
X134519047Y-117002868D01*
X134519047Y-117002868D02*
X134519047Y-116840963D01*
X134585714Y-116840963D02*
X134700000Y-116840963D01*
X134642857Y-117040963D02*
X134642857Y-116840963D01*
X134900000Y-116840963D02*
X135033333Y-116840963D01*
X135033333Y-116840963D02*
X134900000Y-117040963D01*
X134900000Y-117040963D02*
X135033333Y-117040963D01*
X135147619Y-116840963D02*
X135185714Y-116840963D01*
X135185714Y-116840963D02*
X135204762Y-116850487D01*
X135204762Y-116850487D02*
X135223809Y-116869535D01*
X135223809Y-116869535D02*
X135233333Y-116907630D01*
X135233333Y-116907630D02*
X135233333Y-116974297D01*
X135233333Y-116974297D02*
X135223809Y-117012392D01*
X135223809Y-117012392D02*
X135204762Y-117031440D01*
X135204762Y-117031440D02*
X135185714Y-117040963D01*
X135185714Y-117040963D02*
X135147619Y-117040963D01*
X135147619Y-117040963D02*
X135128571Y-117031440D01*
X135128571Y-117031440D02*
X135109524Y-117012392D01*
X135109524Y-117012392D02*
X135100000Y-116974297D01*
X135100000Y-116974297D02*
X135100000Y-116907630D01*
X135100000Y-116907630D02*
X135109524Y-116869535D01*
X135109524Y-116869535D02*
X135128571Y-116850487D01*
X135128571Y-116850487D02*
X135147619Y-116840963D01*
X135319048Y-117040963D02*
X135319048Y-116840963D01*
X135319048Y-116840963D02*
X135433333Y-117040963D01*
X135433333Y-117040963D02*
X135433333Y-116840963D01*
X135528572Y-116936201D02*
X135595238Y-116936201D01*
X135623810Y-117040963D02*
X135528572Y-117040963D01*
X135528572Y-117040963D02*
X135528572Y-116840963D01*
X135528572Y-116840963D02*
X135623810Y-116840963D01*
X133319047Y-116640963D02*
X133319047Y-116440963D01*
X133319047Y-116440963D02*
X133433332Y-116640963D01*
X133433332Y-116640963D02*
X133433332Y-116440963D01*
X133557142Y-116640963D02*
X133538094Y-116631440D01*
X133538094Y-116631440D02*
X133528571Y-116621916D01*
X133528571Y-116621916D02*
X133519047Y-116602868D01*
X133519047Y-116602868D02*
X133519047Y-116545725D01*
X133519047Y-116545725D02*
X133528571Y-116526678D01*
X133528571Y-116526678D02*
X133538094Y-116517154D01*
X133538094Y-116517154D02*
X133557142Y-116507630D01*
X133557142Y-116507630D02*
X133585713Y-116507630D01*
X133585713Y-116507630D02*
X133604761Y-116517154D01*
X133604761Y-116517154D02*
X133614285Y-116526678D01*
X133614285Y-116526678D02*
X133623809Y-116545725D01*
X133623809Y-116545725D02*
X133623809Y-116602868D01*
X133623809Y-116602868D02*
X133614285Y-116621916D01*
X133614285Y-116621916D02*
X133604761Y-116631440D01*
X133604761Y-116631440D02*
X133585713Y-116640963D01*
X133585713Y-116640963D02*
X133557142Y-116640963D01*
X133928570Y-116536201D02*
X133861904Y-116536201D01*
X133861904Y-116640963D02*
X133861904Y-116440963D01*
X133861904Y-116440963D02*
X133957142Y-116440963D01*
X134033333Y-116621916D02*
X134042856Y-116631440D01*
X134042856Y-116631440D02*
X134033333Y-116640963D01*
X134033333Y-116640963D02*
X134023809Y-116631440D01*
X134023809Y-116631440D02*
X134033333Y-116621916D01*
X134033333Y-116621916D02*
X134033333Y-116640963D01*
X134242856Y-116621916D02*
X134233332Y-116631440D01*
X134233332Y-116631440D02*
X134204761Y-116640963D01*
X134204761Y-116640963D02*
X134185713Y-116640963D01*
X134185713Y-116640963D02*
X134157142Y-116631440D01*
X134157142Y-116631440D02*
X134138094Y-116612392D01*
X134138094Y-116612392D02*
X134128571Y-116593344D01*
X134128571Y-116593344D02*
X134119047Y-116555249D01*
X134119047Y-116555249D02*
X134119047Y-116526678D01*
X134119047Y-116526678D02*
X134128571Y-116488582D01*
X134128571Y-116488582D02*
X134138094Y-116469535D01*
X134138094Y-116469535D02*
X134157142Y-116450487D01*
X134157142Y-116450487D02*
X134185713Y-116440963D01*
X134185713Y-116440963D02*
X134204761Y-116440963D01*
X134204761Y-116440963D02*
X134233332Y-116450487D01*
X134233332Y-116450487D02*
X134242856Y-116460011D01*
X134414285Y-116507630D02*
X134414285Y-116640963D01*
X134328571Y-116507630D02*
X134328571Y-116612392D01*
X134328571Y-116612392D02*
X134338094Y-116631440D01*
X134338094Y-116631440D02*
X134357142Y-116640963D01*
X134357142Y-116640963D02*
X134385713Y-116640963D01*
X134385713Y-116640963D02*
X134404761Y-116631440D01*
X134404761Y-116631440D02*
X134414285Y-116621916D01*
X134633332Y-116507630D02*
X134709523Y-116507630D01*
X134661904Y-116440963D02*
X134661904Y-116612392D01*
X134661904Y-116612392D02*
X134671427Y-116631440D01*
X134671427Y-116631440D02*
X134690475Y-116640963D01*
X134690475Y-116640963D02*
X134709523Y-116640963D01*
X134776190Y-116640963D02*
X134776190Y-116507630D01*
X134776190Y-116545725D02*
X134785713Y-116526678D01*
X134785713Y-116526678D02*
X134795237Y-116517154D01*
X134795237Y-116517154D02*
X134814285Y-116507630D01*
X134814285Y-116507630D02*
X134833332Y-116507630D01*
X134985714Y-116640963D02*
X134985714Y-116536201D01*
X134985714Y-116536201D02*
X134976190Y-116517154D01*
X134976190Y-116517154D02*
X134957142Y-116507630D01*
X134957142Y-116507630D02*
X134919047Y-116507630D01*
X134919047Y-116507630D02*
X134900000Y-116517154D01*
X134985714Y-116631440D02*
X134966666Y-116640963D01*
X134966666Y-116640963D02*
X134919047Y-116640963D01*
X134919047Y-116640963D02*
X134900000Y-116631440D01*
X134900000Y-116631440D02*
X134890476Y-116612392D01*
X134890476Y-116612392D02*
X134890476Y-116593344D01*
X134890476Y-116593344D02*
X134900000Y-116574297D01*
X134900000Y-116574297D02*
X134919047Y-116564773D01*
X134919047Y-116564773D02*
X134966666Y-116564773D01*
X134966666Y-116564773D02*
X134985714Y-116555249D01*
X135166666Y-116631440D02*
X135147618Y-116640963D01*
X135147618Y-116640963D02*
X135109523Y-116640963D01*
X135109523Y-116640963D02*
X135090475Y-116631440D01*
X135090475Y-116631440D02*
X135080952Y-116621916D01*
X135080952Y-116621916D02*
X135071428Y-116602868D01*
X135071428Y-116602868D02*
X135071428Y-116545725D01*
X135071428Y-116545725D02*
X135080952Y-116526678D01*
X135080952Y-116526678D02*
X135090475Y-116517154D01*
X135090475Y-116517154D02*
X135109523Y-116507630D01*
X135109523Y-116507630D02*
X135147618Y-116507630D01*
X135147618Y-116507630D02*
X135166666Y-116517154D01*
X135252381Y-116640963D02*
X135252381Y-116440963D01*
X135271428Y-116564773D02*
X135328571Y-116640963D01*
X135328571Y-116507630D02*
X135252381Y-116583820D01*
X135404762Y-116631440D02*
X135423809Y-116640963D01*
X135423809Y-116640963D02*
X135461905Y-116640963D01*
X135461905Y-116640963D02*
X135480952Y-116631440D01*
X135480952Y-116631440D02*
X135490476Y-116612392D01*
X135490476Y-116612392D02*
X135490476Y-116602868D01*
X135490476Y-116602868D02*
X135480952Y-116583820D01*
X135480952Y-116583820D02*
X135461905Y-116574297D01*
X135461905Y-116574297D02*
X135433333Y-116574297D01*
X135433333Y-116574297D02*
X135414286Y-116564773D01*
X135414286Y-116564773D02*
X135404762Y-116545725D01*
X135404762Y-116545725D02*
X135404762Y-116536201D01*
X135404762Y-116536201D02*
X135414286Y-116517154D01*
X135414286Y-116517154D02*
X135433333Y-116507630D01*
X135433333Y-116507630D02*
X135461905Y-116507630D01*
X135461905Y-116507630D02*
X135480952Y-116517154D01*
X128185715Y-117040963D02*
X128185715Y-116840963D01*
X128300000Y-117040963D02*
X128214286Y-116926678D01*
X128300000Y-116840963D02*
X128185715Y-116955249D01*
X128385715Y-116936201D02*
X128452381Y-116936201D01*
X128480953Y-117040963D02*
X128385715Y-117040963D01*
X128385715Y-117040963D02*
X128385715Y-116840963D01*
X128385715Y-116840963D02*
X128480953Y-116840963D01*
X128566667Y-116936201D02*
X128633333Y-116936201D01*
X128661905Y-117040963D02*
X128566667Y-117040963D01*
X128566667Y-117040963D02*
X128566667Y-116840963D01*
X128566667Y-116840963D02*
X128661905Y-116840963D01*
X128747619Y-117040963D02*
X128747619Y-116840963D01*
X128747619Y-116840963D02*
X128823809Y-116840963D01*
X128823809Y-116840963D02*
X128842857Y-116850487D01*
X128842857Y-116850487D02*
X128852380Y-116860011D01*
X128852380Y-116860011D02*
X128861904Y-116879059D01*
X128861904Y-116879059D02*
X128861904Y-116907630D01*
X128861904Y-116907630D02*
X128852380Y-116926678D01*
X128852380Y-116926678D02*
X128842857Y-116936201D01*
X128842857Y-116936201D02*
X128823809Y-116945725D01*
X128823809Y-116945725D02*
X128747619Y-116945725D01*
X128947619Y-116964773D02*
X129100000Y-116964773D01*
X129233333Y-116840963D02*
X129271428Y-116840963D01*
X129271428Y-116840963D02*
X129290476Y-116850487D01*
X129290476Y-116850487D02*
X129309523Y-116869535D01*
X129309523Y-116869535D02*
X129319047Y-116907630D01*
X129319047Y-116907630D02*
X129319047Y-116974297D01*
X129319047Y-116974297D02*
X129309523Y-117012392D01*
X129309523Y-117012392D02*
X129290476Y-117031440D01*
X129290476Y-117031440D02*
X129271428Y-117040963D01*
X129271428Y-117040963D02*
X129233333Y-117040963D01*
X129233333Y-117040963D02*
X129214285Y-117031440D01*
X129214285Y-117031440D02*
X129195238Y-117012392D01*
X129195238Y-117012392D02*
X129185714Y-116974297D01*
X129185714Y-116974297D02*
X129185714Y-116907630D01*
X129185714Y-116907630D02*
X129195238Y-116869535D01*
X129195238Y-116869535D02*
X129214285Y-116850487D01*
X129214285Y-116850487D02*
X129233333Y-116840963D01*
X129404762Y-116840963D02*
X129404762Y-117002868D01*
X129404762Y-117002868D02*
X129414285Y-117021916D01*
X129414285Y-117021916D02*
X129423809Y-117031440D01*
X129423809Y-117031440D02*
X129442857Y-117040963D01*
X129442857Y-117040963D02*
X129480952Y-117040963D01*
X129480952Y-117040963D02*
X129500000Y-117031440D01*
X129500000Y-117031440D02*
X129509523Y-117021916D01*
X129509523Y-117021916D02*
X129519047Y-117002868D01*
X129519047Y-117002868D02*
X129519047Y-116840963D01*
X129585714Y-116840963D02*
X129700000Y-116840963D01*
X129642857Y-117040963D02*
X129642857Y-116840963D01*
X129900000Y-116840963D02*
X130033333Y-116840963D01*
X130033333Y-116840963D02*
X129900000Y-117040963D01*
X129900000Y-117040963D02*
X130033333Y-117040963D01*
X130147619Y-116840963D02*
X130185714Y-116840963D01*
X130185714Y-116840963D02*
X130204762Y-116850487D01*
X130204762Y-116850487D02*
X130223809Y-116869535D01*
X130223809Y-116869535D02*
X130233333Y-116907630D01*
X130233333Y-116907630D02*
X130233333Y-116974297D01*
X130233333Y-116974297D02*
X130223809Y-117012392D01*
X130223809Y-117012392D02*
X130204762Y-117031440D01*
X130204762Y-117031440D02*
X130185714Y-117040963D01*
X130185714Y-117040963D02*
X130147619Y-117040963D01*
X130147619Y-117040963D02*
X130128571Y-117031440D01*
X130128571Y-117031440D02*
X130109524Y-117012392D01*
X130109524Y-117012392D02*
X130100000Y-116974297D01*
X130100000Y-116974297D02*
X130100000Y-116907630D01*
X130100000Y-116907630D02*
X130109524Y-116869535D01*
X130109524Y-116869535D02*
X130128571Y-116850487D01*
X130128571Y-116850487D02*
X130147619Y-116840963D01*
X130319048Y-117040963D02*
X130319048Y-116840963D01*
X130319048Y-116840963D02*
X130433333Y-117040963D01*
X130433333Y-117040963D02*
X130433333Y-116840963D01*
X130528572Y-116936201D02*
X130595238Y-116936201D01*
X130623810Y-117040963D02*
X130528572Y-117040963D01*
X130528572Y-117040963D02*
X130528572Y-116840963D01*
X130528572Y-116840963D02*
X130623810Y-116840963D01*
M02*
