%TF.GenerationSoftware,KiCad,Pcbnew,8.0.0*%
%TF.CreationDate,2024-02-23T16:44:12-07:00*%
%TF.ProjectId,saturn_controller_pcb,73617475-726e-45f6-936f-6e74726f6c6c,4a*%
%TF.SameCoordinates,Original*%
%TF.FileFunction,Legend,Top*%
%TF.FilePolarity,Positive*%
%FSLAX46Y46*%
G04 Gerber Fmt 4.6, Leading zero omitted, Abs format (unit mm)*
G04 Created by KiCad (PCBNEW 8.0.0) date 2024-02-23 16:44:12*
%MOMM*%
%LPD*%
G01*
G04 APERTURE LIST*
G04 Aperture macros list*
%AMRoundRect*
0 Rectangle with rounded corners*
0 $1 Rounding radius*
0 $2 $3 $4 $5 $6 $7 $8 $9 X,Y pos of 4 corners*
0 Add a 4 corners polygon primitive as box body*
4,1,4,$2,$3,$4,$5,$6,$7,$8,$9,$2,$3,0*
0 Add four circle primitives for the rounded corners*
1,1,$1+$1,$2,$3*
1,1,$1+$1,$4,$5*
1,1,$1+$1,$6,$7*
1,1,$1+$1,$8,$9*
0 Add four rect primitives between the rounded corners*
20,1,$1+$1,$2,$3,$4,$5,0*
20,1,$1+$1,$4,$5,$6,$7,0*
20,1,$1+$1,$6,$7,$8,$9,0*
20,1,$1+$1,$8,$9,$2,$3,0*%
%AMHorizOval*
0 Thick line with rounded ends*
0 $1 width*
0 $2 $3 position (X,Y) of the first rounded end (center of the circle)*
0 $4 $5 position (X,Y) of the second rounded end (center of the circle)*
0 Add line between two ends*
20,1,$1,$2,$3,$4,$5,0*
0 Add two circle primitives to create the rounded ends*
1,1,$1,$2,$3*
1,1,$1,$4,$5*%
G04 Aperture macros list end*
%ADD10C,0.150000*%
%ADD11C,0.120000*%
%ADD12C,0.127000*%
%ADD13C,0.200000*%
%ADD14RoundRect,0.050800X-1.000000X-0.750000X1.000000X-0.750000X1.000000X0.750000X-1.000000X0.750000X0*%
%ADD15RoundRect,0.050800X-1.000000X-1.900000X1.000000X-1.900000X1.000000X1.900000X-1.000000X1.900000X0*%
%ADD16RoundRect,0.050800X-0.900000X-0.550000X0.900000X-0.550000X0.900000X0.550000X-0.900000X0.550000X0*%
%ADD17RoundRect,0.165400X0.165400X0.195400X-0.165400X0.195400X-0.165400X-0.195400X0.165400X-0.195400X0*%
%ADD18RoundRect,0.165400X-0.195400X0.165400X-0.195400X-0.165400X0.195400X-0.165400X0.195400X0.165400X0*%
%ADD19O,0.801600X0.301600*%
%ADD20RoundRect,0.050800X0.146720X0.153210X-0.153210X0.146720X-0.146720X-0.153210X0.153210X-0.146720X0*%
%ADD21RoundRect,0.050800X0.163088X0.135655X-0.135655X0.163088X-0.163088X-0.135655X0.135655X-0.163088X0*%
%ADD22RoundRect,0.050800X0.128473X0.168803X-0.168803X0.128473X-0.128473X-0.168803X0.168803X-0.128473X0*%
%ADD23RoundRect,0.050800X0.177369X0.116363X-0.116363X0.177369X-0.177369X-0.116363X0.116363X-0.177369X0*%
%ADD24RoundRect,0.050800X0.108582X0.182236X-0.182236X0.108582X-0.108582X-0.182236X0.182236X-0.108582X0*%
%ADD25RoundRect,0.050800X0.189378X0.095582X-0.095582X0.189378X-0.189378X-0.095582X0.095582X-0.189378X0*%
%ADD26RoundRect,0.050800X0.087300X0.193336X-0.193336X0.087300X-0.087300X-0.193336X0.193336X-0.087300X0*%
%ADD27RoundRect,0.050800X0.198964X0.073576X-0.073576X0.198964X-0.198964X-0.073576X0.073576X-0.198964X0*%
%ADD28RoundRect,0.050800X0.064901X0.201960X-0.201960X0.064901X-0.064901X-0.201960X0.201960X-0.064901X0*%
%ADD29RoundRect,0.050800X0.206002X0.050629X-0.050629X0.206002X-0.206002X-0.050629X0.050629X-0.206002X0*%
%ADD30RoundRect,0.050800X0.041671X0.207999X-0.207999X0.041671X-0.041671X-0.207999X0.207999X-0.041671X0*%
%ADD31RoundRect,0.050800X0.210402X0.027034X-0.027034X0.210402X-0.210402X-0.027034X0.027034X-0.210402X0*%
%ADD32RoundRect,0.050800X0.017908X0.211375X-0.211375X0.017908X-0.017908X-0.211375X0.211375X-0.017908X0*%
%ADD33RoundRect,0.050800X0.212109X0.003093X-0.003093X0.212109X-0.212109X-0.003093X0.003093X-0.212109X0*%
%ADD34RoundRect,0.050800X-0.006085X0.212045X-0.212045X-0.006085X0.006085X-0.212045X0.212045X0.006085X0*%
%ADD35RoundRect,0.050800X0.211101X-0.020888X0.020888X0.211101X-0.211101X0.020888X-0.020888X-0.211101X0*%
%ADD36RoundRect,0.050800X-0.030000X0.210000X-0.210000X-0.030000X0.030000X-0.210000X0.210000X0.030000X0*%
%ADD37RoundRect,0.050800X0.207390X-0.044602X0.044602X0.207390X-0.207390X0.044602X-0.044602X-0.207390X0*%
%ADD38RoundRect,0.050800X0.203246X-0.060754X0.060754X0.203246X-0.203246X0.060754X-0.060754X-0.203246X0*%
%ADD39O,1.289034X0.401600*%
%ADD40O,3.479009X0.401600*%
%ADD41O,4.069223X0.401600*%
%ADD42O,4.608059X0.401600*%
%ADD43O,4.535632X0.401600*%
%ADD44O,4.270727X0.401600*%
%ADD45O,3.039444X0.401600*%
%ADD46O,1.601600X0.401600*%
%ADD47RoundRect,0.050800X0.060754X-0.203246X0.203246X0.060754X-0.060754X0.203246X-0.203246X-0.060754X0*%
%ADD48RoundRect,0.050800X0.037405X-0.208808X0.208808X0.037405X-0.037405X0.208808X-0.208808X-0.037405X0*%
%ADD49RoundRect,0.050800X-0.210000X0.030000X-0.030000X-0.210000X0.210000X-0.030000X0.030000X0.210000X0*%
%ADD50RoundRect,0.050800X0.013578X-0.211697X0.211697X0.013578X-0.013578X0.211697X-0.211697X-0.013578X0*%
%ADD51RoundRect,0.050800X-0.211708X0.013412X-0.013412X-0.211708X0.211708X-0.013412X0.013412X0.211708X0*%
%ADD52RoundRect,0.050800X-0.010424X-0.211876X0.211876X-0.010424X0.010424X0.211876X-0.211876X0.010424X0*%
%ADD53RoundRect,0.050800X-0.211868X-0.010589X0.010589X-0.211868X0.211868X0.010589X-0.010589X0.211868X0*%
%ADD54RoundRect,0.050800X-0.034292X-0.209342X0.209342X-0.034292X0.034292X0.209342X-0.209342X0.034292X0*%
%ADD55RoundRect,0.050800X-0.209315X-0.034455X0.034455X-0.209315X0.209315X0.034455X-0.034455X0.209315X0*%
%ADD56RoundRect,0.050800X-0.057721X-0.204128X0.204128X-0.057721X0.057721X0.204128X-0.204128X0.057721X0*%
%ADD57RoundRect,0.050800X-0.204083X-0.057880X0.057880X-0.204083X0.204083X0.057880X-0.057880X0.204083X0*%
%ADD58RoundRect,0.050800X-0.080411X-0.196301X0.196301X-0.080411X0.080411X0.196301X-0.196301X0.080411X0*%
%ADD59RoundRect,0.050800X-0.196238X-0.080564X0.080564X-0.196238X0.196238X0.080564X-0.080564X0.196238X0*%
%ADD60RoundRect,0.050800X-0.102072X-0.185961X0.185961X-0.102072X0.102072X0.185961X-0.185961X0.102072X0*%
%ADD61RoundRect,0.050800X-0.185881X-0.102217X0.102217X-0.185881X0.185881X0.102217X-0.102217X0.185881X0*%
%ADD62RoundRect,0.050800X-0.122425X-0.173240X0.173240X-0.122425X0.122425X0.173240X-0.173240X0.122425X0*%
%ADD63RoundRect,0.050800X-0.173144X-0.122561X0.122561X-0.173144X0.173144X0.122561X-0.122561X0.173144X0*%
%ADD64RoundRect,0.050800X-0.141212X-0.158301X0.158301X-0.141212X0.141212X0.158301X-0.158301X0.141212X0*%
%ADD65RoundRect,0.050800X-0.158191X-0.141336X0.141336X-0.158191X0.158191X0.141336X-0.141336X0.158191X0*%
%ADD66RoundRect,0.160400X0.160400X0.210400X-0.160400X0.210400X-0.160400X-0.210400X0.160400X-0.210400X0*%
%ADD67RoundRect,0.160400X-0.160400X-0.210400X0.160400X-0.210400X0.160400X0.210400X-0.160400X0.210400X0*%
%ADD68RoundRect,0.160400X0.210400X-0.160400X0.210400X0.160400X-0.210400X0.160400X-0.210400X-0.160400X0*%
%ADD69O,0.851600X0.851600*%
%ADD70HorizOval,0.851600X0.000000X0.000000X0.000000X0.000000X0*%
%ADD71HorizOval,0.851600X0.000000X0.000000X0.000000X0.000000X0*%
%ADD72HorizOval,0.851600X0.000000X0.000000X0.000000X0.000000X0*%
%ADD73HorizOval,0.851600X0.000000X0.000000X0.000000X0.000000X0*%
%ADD74HorizOval,0.851600X0.000000X0.000000X0.000000X0.000000X0*%
%ADD75HorizOval,0.851600X0.000000X0.000000X0.000000X0.000000X0*%
%ADD76HorizOval,0.851600X0.000000X0.000000X0.000000X0.000000X0*%
%ADD77HorizOval,0.851600X0.000000X0.000000X0.000000X0.000000X0*%
%ADD78HorizOval,0.851600X0.000000X0.000000X0.000000X0.000000X0*%
%ADD79HorizOval,0.851600X0.000000X0.000000X0.000000X0.000000X0*%
%ADD80HorizOval,0.851600X0.000000X0.000000X0.000000X0.000000X0*%
%ADD81HorizOval,0.851600X0.000000X0.000000X0.000000X0.000000X0*%
%ADD82HorizOval,0.851600X0.000000X0.000000X0.000000X0.000000X0*%
%ADD83HorizOval,0.851600X0.000000X0.000000X0.000000X0.000000X0*%
%ADD84HorizOval,0.851600X0.000000X0.000000X0.000000X0.000000X0*%
%ADD85HorizOval,0.851600X0.000000X0.000000X0.000000X0.000000X0*%
%ADD86HorizOval,0.851600X0.000000X0.000000X0.000000X0.000000X0*%
%ADD87HorizOval,0.851600X0.000000X0.000000X0.000000X0.000000X0*%
%ADD88HorizOval,0.851600X0.000000X0.000000X0.000000X0.000000X0*%
%ADD89HorizOval,0.851600X0.000000X0.000000X0.000000X0.000000X0*%
%ADD90HorizOval,0.851600X0.000000X0.000000X0.000000X0.000000X0*%
%ADD91HorizOval,0.851600X0.000000X0.000000X0.000000X0.000000X0*%
%ADD92O,0.851600X5.101600*%
%ADD93O,0.851600X7.101600*%
%ADD94HorizOval,0.851600X0.000000X0.000000X0.000000X0.000000X0*%
%ADD95HorizOval,0.851600X0.000000X0.000000X0.000000X0.000000X0*%
%ADD96HorizOval,0.851600X0.000000X0.000000X0.000000X0.000000X0*%
%ADD97HorizOval,0.851600X0.000000X0.000000X0.000000X0.000000X0*%
%ADD98HorizOval,0.851600X0.000000X0.000000X0.000000X0.000000X0*%
%ADD99HorizOval,0.851600X0.000000X0.000000X0.000000X0.000000X0*%
%ADD100HorizOval,0.851600X0.000000X0.000000X0.000000X0.000000X0*%
%ADD101HorizOval,0.851600X0.000000X0.000000X0.000000X0.000000X0*%
%ADD102HorizOval,0.851600X0.000000X0.000000X0.000000X0.000000X0*%
%ADD103HorizOval,0.851600X0.000000X0.000000X0.000000X0.000000X0*%
%ADD104HorizOval,0.851600X0.000000X0.000000X0.000000X0.000000X0*%
%ADD105HorizOval,0.851600X0.000000X0.000000X0.000000X0.000000X0*%
%ADD106HorizOval,0.851600X0.000000X0.000000X0.000000X0.000000X0*%
%ADD107HorizOval,0.851600X0.000000X0.000000X0.000000X0.000000X0*%
%ADD108HorizOval,0.851600X0.000000X0.000000X0.000000X0.000000X0*%
%ADD109HorizOval,0.851600X0.000000X0.000000X0.000000X0.000000X0*%
%ADD110HorizOval,0.851600X0.000000X0.000000X0.000000X0.000000X0*%
%ADD111HorizOval,0.851600X0.000000X0.000000X0.000000X0.000000X0*%
%ADD112HorizOval,0.851600X0.000000X0.000000X0.000000X0.000000X0*%
%ADD113HorizOval,0.851600X0.000000X0.000000X0.000000X0.000000X0*%
%ADD114HorizOval,0.851600X0.000000X0.000000X0.000000X0.000000X0*%
%ADD115HorizOval,0.851600X0.000000X0.000000X0.000000X0.000000X0*%
%ADD116RoundRect,0.165400X-0.165400X-0.195400X0.165400X-0.195400X0.165400X0.195400X-0.165400X0.195400X0*%
%ADD117RoundRect,0.244150X0.281650X-0.244150X0.281650X0.244150X-0.281650X0.244150X-0.281650X-0.244150X0*%
%ADD118RoundRect,0.244150X-0.281650X0.244150X-0.281650X-0.244150X0.281650X-0.244150X0.281650X0.244150X0*%
%ADD119HorizOval,0.851600X0.000000X0.000000X0.000000X0.000000X0*%
%ADD120HorizOval,0.851600X0.000000X0.000000X0.000000X0.000000X0*%
%ADD121HorizOval,0.851600X0.000000X0.000000X0.000000X0.000000X0*%
%ADD122HorizOval,0.851600X0.000000X0.000000X0.000000X0.000000X0*%
%ADD123HorizOval,0.851600X0.000000X0.000000X0.000000X0.000000X0*%
%ADD124HorizOval,0.851600X0.000000X0.000000X0.000000X0.000000X0*%
%ADD125HorizOval,0.851600X0.000000X0.000000X0.000000X0.000000X0*%
%ADD126HorizOval,0.851600X0.000000X0.000000X0.000000X0.000000X0*%
%ADD127HorizOval,0.851600X0.000000X0.000000X0.000000X0.000000X0*%
%ADD128HorizOval,0.851600X0.000000X0.000000X0.000000X0.000000X0*%
%ADD129HorizOval,0.851600X0.000000X0.000000X0.000000X0.000000X0*%
%ADD130HorizOval,0.851600X0.000000X0.000000X0.000000X0.000000X0*%
%ADD131HorizOval,0.851600X0.000000X0.000000X0.000000X0.000000X0*%
%ADD132HorizOval,0.851600X0.000000X0.000000X0.000000X0.000000X0*%
%ADD133HorizOval,0.851600X0.000000X0.000000X0.000000X0.000000X0*%
%ADD134HorizOval,0.851600X0.000000X0.000000X0.000000X0.000000X0*%
%ADD135HorizOval,0.851600X0.000000X0.000000X0.000000X0.000000X0*%
%ADD136HorizOval,0.851600X0.000000X0.000000X0.000000X0.000000X0*%
%ADD137HorizOval,0.851600X0.000000X0.000000X0.000000X0.000000X0*%
%ADD138HorizOval,0.851600X0.000000X0.000000X0.000000X0.000000X0*%
%ADD139HorizOval,0.851600X0.000000X0.000000X0.000000X0.000000X0*%
%ADD140HorizOval,0.851600X0.000000X0.000000X0.000000X0.000000X0*%
%ADD141O,5.101600X0.851600*%
%ADD142O,7.101600X0.851600*%
%ADD143HorizOval,0.851600X0.000000X0.000000X0.000000X0.000000X0*%
%ADD144HorizOval,0.851600X0.000000X0.000000X0.000000X0.000000X0*%
%ADD145HorizOval,0.851600X0.000000X0.000000X0.000000X0.000000X0*%
%ADD146HorizOval,0.851600X0.000000X0.000000X0.000000X0.000000X0*%
%ADD147HorizOval,0.851600X0.000000X0.000000X0.000000X0.000000X0*%
%ADD148HorizOval,0.851600X0.000000X0.000000X0.000000X0.000000X0*%
%ADD149HorizOval,0.851600X0.000000X0.000000X0.000000X0.000000X0*%
%ADD150HorizOval,0.851600X0.000000X0.000000X0.000000X0.000000X0*%
%ADD151HorizOval,0.851600X0.000000X0.000000X0.000000X0.000000X0*%
%ADD152HorizOval,0.851600X0.000000X0.000000X0.000000X0.000000X0*%
%ADD153HorizOval,0.851600X0.000000X0.000000X0.000000X0.000000X0*%
%ADD154HorizOval,0.851600X0.000000X0.000000X0.000000X0.000000X0*%
%ADD155HorizOval,0.851600X0.000000X0.000000X0.000000X0.000000X0*%
%ADD156HorizOval,0.851600X0.000000X0.000000X0.000000X0.000000X0*%
%ADD157HorizOval,0.851600X0.000000X0.000000X0.000000X0.000000X0*%
%ADD158HorizOval,0.851600X0.000000X0.000000X0.000000X0.000000X0*%
%ADD159HorizOval,0.851600X0.000000X0.000000X0.000000X0.000000X0*%
%ADD160HorizOval,0.851600X0.000000X0.000000X0.000000X0.000000X0*%
%ADD161HorizOval,0.851600X0.000000X0.000000X0.000000X0.000000X0*%
%ADD162HorizOval,0.851600X0.000000X0.000000X0.000000X0.000000X0*%
%ADD163HorizOval,0.851600X0.000000X0.000000X0.000000X0.000000X0*%
%ADD164HorizOval,0.851600X0.000000X0.000000X0.000000X0.000000X0*%
%ADD165RoundRect,0.050800X-0.290000X0.805000X-0.290000X-0.805000X0.290000X-0.805000X0.290000X0.805000X0*%
%ADD166RoundRect,0.100400X-0.100400X0.250400X-0.100400X-0.250400X0.100400X-0.250400X0.100400X0.250400X0*%
%ADD167RoundRect,0.075400X-0.725400X0.075400X-0.725400X-0.075400X0.725400X-0.075400X0.725400X0.075400X0*%
%ADD168RoundRect,0.050800X-0.700000X-0.575000X0.700000X-0.575000X0.700000X0.575000X-0.700000X0.575000X0*%
%ADD169RoundRect,0.050800X0.900000X0.550000X-0.900000X0.550000X-0.900000X-0.550000X0.900000X-0.550000X0*%
%ADD170RoundRect,0.075400X0.412900X0.075400X-0.412900X0.075400X-0.412900X-0.075400X0.412900X-0.075400X0*%
%ADD171RoundRect,0.075400X0.075400X0.412900X-0.075400X0.412900X-0.075400X-0.412900X0.075400X-0.412900X0*%
%ADD172RoundRect,0.148572X1.502228X1.502228X-1.502228X1.502228X-1.502228X-1.502228X1.502228X-1.502228X0*%
%ADD173C,1.701600*%
%ADD174C,3.101600*%
%ADD175RoundRect,0.165400X0.195400X-0.165400X0.195400X0.165400X-0.195400X0.165400X-0.195400X-0.165400X0*%
%ADD176C,2.201600*%
%ADD177C,1.851600*%
%ADD178RoundRect,0.271167X-0.654633X0.379633X-0.654633X-0.379633X0.654633X-0.379633X0.654633X0.379633X0*%
%ADD179O,1.851600X1.301600*%
G04 APERTURE END LIST*
D10*
X173500000Y-101000000D02*
G75*
G02*
X161500000Y-101000000I-6000000J0D01*
G01*
X161500000Y-101000000D02*
G75*
G02*
X173500000Y-101000000I6000000J0D01*
G01*
X125250000Y-105000000D02*
G75*
G02*
X92750000Y-105000000I-16250000J0D01*
G01*
X92750000Y-105000000D02*
G75*
G02*
X125250000Y-105000000I16250000J0D01*
G01*
X112000000Y-105000000D02*
G75*
G02*
X106000000Y-105000000I-3000000J0D01*
G01*
X106000000Y-105000000D02*
G75*
G02*
X112000000Y-105000000I3000000J0D01*
G01*
X112000000Y-96000000D02*
G75*
G02*
X106000000Y-96000000I-3000000J0D01*
G01*
X106000000Y-96000000D02*
G75*
G02*
X112000000Y-96000000I3000000J0D01*
G01*
X180500000Y-117000000D02*
G75*
G02*
X164500000Y-117000000I-8000000J0D01*
G01*
X164500000Y-117000000D02*
G75*
G02*
X180500000Y-117000000I8000000J0D01*
G01*
X112000000Y-114000000D02*
G75*
G02*
X106000000Y-114000000I-3000000J0D01*
G01*
X106000000Y-114000000D02*
G75*
G02*
X112000000Y-114000000I3000000J0D01*
G01*
X194500000Y-107750000D02*
G75*
G02*
X178500000Y-107750000I-8000000J0D01*
G01*
X178500000Y-107750000D02*
G75*
G02*
X194500000Y-107750000I8000000J0D01*
G01*
X138500000Y-110500000D02*
X155500000Y-110500000D01*
X155500000Y-122500000D01*
X138500000Y-122500000D01*
X138500000Y-110500000D01*
X199000000Y-87500000D02*
G75*
G02*
X187000000Y-87500000I-6000000J0D01*
G01*
X187000000Y-87500000D02*
G75*
G02*
X199000000Y-87500000I6000000J0D01*
G01*
X103000000Y-105000000D02*
G75*
G02*
X97000000Y-105000000I-3000000J0D01*
G01*
X97000000Y-105000000D02*
G75*
G02*
X103000000Y-105000000I3000000J0D01*
G01*
X210500000Y-101500000D02*
G75*
G02*
X194500000Y-101500000I-8000000J0D01*
G01*
X194500000Y-101500000D02*
G75*
G02*
X210500000Y-101500000I8000000J0D01*
G01*
X185000000Y-92500000D02*
G75*
G02*
X173000000Y-92500000I-6000000J0D01*
G01*
X173000000Y-92500000D02*
G75*
G02*
X185000000Y-92500000I6000000J0D01*
G01*
X121000000Y-105000000D02*
G75*
G02*
X115000000Y-105000000I-3000000J0D01*
G01*
X115000000Y-105000000D02*
G75*
G02*
X121000000Y-105000000I3000000J0D01*
G01*
X148835225Y-85084160D02*
X149311415Y-85084160D01*
X148739987Y-85369875D02*
X149073320Y-84369875D01*
X149073320Y-84369875D02*
X149406653Y-85369875D01*
X149739987Y-84369875D02*
X149739987Y-85179398D01*
X149739987Y-85179398D02*
X149787606Y-85274636D01*
X149787606Y-85274636D02*
X149835225Y-85322256D01*
X149835225Y-85322256D02*
X149930463Y-85369875D01*
X149930463Y-85369875D02*
X150120939Y-85369875D01*
X150120939Y-85369875D02*
X150216177Y-85322256D01*
X150216177Y-85322256D02*
X150263796Y-85274636D01*
X150263796Y-85274636D02*
X150311415Y-85179398D01*
X150311415Y-85179398D02*
X150311415Y-84369875D01*
X150644749Y-84369875D02*
X151216177Y-84369875D01*
X150930463Y-85369875D02*
X150930463Y-84369875D01*
X151549511Y-85369875D02*
X151549511Y-84369875D01*
X151549511Y-84846065D02*
X152120939Y-84846065D01*
X152120939Y-85369875D02*
X152120939Y-84369875D01*
X147835225Y-86979819D02*
X147835225Y-85979819D01*
X147835225Y-85979819D02*
X148073320Y-85979819D01*
X148073320Y-85979819D02*
X148216177Y-86027438D01*
X148216177Y-86027438D02*
X148311415Y-86122676D01*
X148311415Y-86122676D02*
X148359034Y-86217914D01*
X148359034Y-86217914D02*
X148406653Y-86408390D01*
X148406653Y-86408390D02*
X148406653Y-86551247D01*
X148406653Y-86551247D02*
X148359034Y-86741723D01*
X148359034Y-86741723D02*
X148311415Y-86836961D01*
X148311415Y-86836961D02*
X148216177Y-86932200D01*
X148216177Y-86932200D02*
X148073320Y-86979819D01*
X148073320Y-86979819D02*
X147835225Y-86979819D01*
X149025701Y-85979819D02*
X149216177Y-85979819D01*
X149216177Y-85979819D02*
X149311415Y-86027438D01*
X149311415Y-86027438D02*
X149406653Y-86122676D01*
X149406653Y-86122676D02*
X149454272Y-86313152D01*
X149454272Y-86313152D02*
X149454272Y-86646485D01*
X149454272Y-86646485D02*
X149406653Y-86836961D01*
X149406653Y-86836961D02*
X149311415Y-86932200D01*
X149311415Y-86932200D02*
X149216177Y-86979819D01*
X149216177Y-86979819D02*
X149025701Y-86979819D01*
X149025701Y-86979819D02*
X148930463Y-86932200D01*
X148930463Y-86932200D02*
X148835225Y-86836961D01*
X148835225Y-86836961D02*
X148787606Y-86646485D01*
X148787606Y-86646485D02*
X148787606Y-86313152D01*
X148787606Y-86313152D02*
X148835225Y-86122676D01*
X148835225Y-86122676D02*
X148930463Y-86027438D01*
X148930463Y-86027438D02*
X149025701Y-85979819D01*
X149882844Y-86979819D02*
X149882844Y-85979819D01*
X149882844Y-85979819D02*
X150454272Y-86979819D01*
X150454272Y-86979819D02*
X150454272Y-85979819D01*
X151454272Y-86027438D02*
X151359034Y-85979819D01*
X151359034Y-85979819D02*
X151216177Y-85979819D01*
X151216177Y-85979819D02*
X151073320Y-86027438D01*
X151073320Y-86027438D02*
X150978082Y-86122676D01*
X150978082Y-86122676D02*
X150930463Y-86217914D01*
X150930463Y-86217914D02*
X150882844Y-86408390D01*
X150882844Y-86408390D02*
X150882844Y-86551247D01*
X150882844Y-86551247D02*
X150930463Y-86741723D01*
X150930463Y-86741723D02*
X150978082Y-86836961D01*
X150978082Y-86836961D02*
X151073320Y-86932200D01*
X151073320Y-86932200D02*
X151216177Y-86979819D01*
X151216177Y-86979819D02*
X151311415Y-86979819D01*
X151311415Y-86979819D02*
X151454272Y-86932200D01*
X151454272Y-86932200D02*
X151501891Y-86884580D01*
X151501891Y-86884580D02*
X151501891Y-86551247D01*
X151501891Y-86551247D02*
X151311415Y-86551247D01*
X152406653Y-86979819D02*
X151930463Y-86979819D01*
X151930463Y-86979819D02*
X151930463Y-85979819D01*
X152739987Y-86456009D02*
X153073320Y-86456009D01*
X153216177Y-86979819D02*
X152739987Y-86979819D01*
X152739987Y-86979819D02*
X152739987Y-85979819D01*
X152739987Y-85979819D02*
X153216177Y-85979819D01*
X127441541Y-112469819D02*
X127679636Y-113469819D01*
X127679636Y-113469819D02*
X127870112Y-112755533D01*
X127870112Y-112755533D02*
X128060588Y-113469819D01*
X128060588Y-113469819D02*
X128298684Y-112469819D01*
X128679636Y-112946009D02*
X129012969Y-112946009D01*
X129155826Y-113469819D02*
X128679636Y-113469819D01*
X128679636Y-113469819D02*
X128679636Y-112469819D01*
X128679636Y-112469819D02*
X129155826Y-112469819D01*
X129917731Y-112946009D02*
X130060588Y-112993628D01*
X130060588Y-112993628D02*
X130108207Y-113041247D01*
X130108207Y-113041247D02*
X130155826Y-113136485D01*
X130155826Y-113136485D02*
X130155826Y-113279342D01*
X130155826Y-113279342D02*
X130108207Y-113374580D01*
X130108207Y-113374580D02*
X130060588Y-113422200D01*
X130060588Y-113422200D02*
X129965350Y-113469819D01*
X129965350Y-113469819D02*
X129584398Y-113469819D01*
X129584398Y-113469819D02*
X129584398Y-112469819D01*
X129584398Y-112469819D02*
X129917731Y-112469819D01*
X129917731Y-112469819D02*
X130012969Y-112517438D01*
X130012969Y-112517438D02*
X130060588Y-112565057D01*
X130060588Y-112565057D02*
X130108207Y-112660295D01*
X130108207Y-112660295D02*
X130108207Y-112755533D01*
X130108207Y-112755533D02*
X130060588Y-112850771D01*
X130060588Y-112850771D02*
X130012969Y-112898390D01*
X130012969Y-112898390D02*
X129917731Y-112946009D01*
X129917731Y-112946009D02*
X129584398Y-112946009D01*
X131917731Y-113374580D02*
X131870112Y-113422200D01*
X131870112Y-113422200D02*
X131727255Y-113469819D01*
X131727255Y-113469819D02*
X131632017Y-113469819D01*
X131632017Y-113469819D02*
X131489160Y-113422200D01*
X131489160Y-113422200D02*
X131393922Y-113326961D01*
X131393922Y-113326961D02*
X131346303Y-113231723D01*
X131346303Y-113231723D02*
X131298684Y-113041247D01*
X131298684Y-113041247D02*
X131298684Y-112898390D01*
X131298684Y-112898390D02*
X131346303Y-112707914D01*
X131346303Y-112707914D02*
X131393922Y-112612676D01*
X131393922Y-112612676D02*
X131489160Y-112517438D01*
X131489160Y-112517438D02*
X131632017Y-112469819D01*
X131632017Y-112469819D02*
X131727255Y-112469819D01*
X131727255Y-112469819D02*
X131870112Y-112517438D01*
X131870112Y-112517438D02*
X131917731Y-112565057D01*
X132536779Y-112469819D02*
X132727255Y-112469819D01*
X132727255Y-112469819D02*
X132822493Y-112517438D01*
X132822493Y-112517438D02*
X132917731Y-112612676D01*
X132917731Y-112612676D02*
X132965350Y-112803152D01*
X132965350Y-112803152D02*
X132965350Y-113136485D01*
X132965350Y-113136485D02*
X132917731Y-113326961D01*
X132917731Y-113326961D02*
X132822493Y-113422200D01*
X132822493Y-113422200D02*
X132727255Y-113469819D01*
X132727255Y-113469819D02*
X132536779Y-113469819D01*
X132536779Y-113469819D02*
X132441541Y-113422200D01*
X132441541Y-113422200D02*
X132346303Y-113326961D01*
X132346303Y-113326961D02*
X132298684Y-113136485D01*
X132298684Y-113136485D02*
X132298684Y-112803152D01*
X132298684Y-112803152D02*
X132346303Y-112612676D01*
X132346303Y-112612676D02*
X132441541Y-112517438D01*
X132441541Y-112517438D02*
X132536779Y-112469819D01*
X133393922Y-113469819D02*
X133393922Y-112469819D01*
X133393922Y-112469819D02*
X133965350Y-113469819D01*
X133965350Y-113469819D02*
X133965350Y-112469819D01*
X134774874Y-112946009D02*
X134441541Y-112946009D01*
X134441541Y-113469819D02*
X134441541Y-112469819D01*
X134441541Y-112469819D02*
X134917731Y-112469819D01*
X135298684Y-113469819D02*
X135298684Y-112469819D01*
X136298683Y-112517438D02*
X136203445Y-112469819D01*
X136203445Y-112469819D02*
X136060588Y-112469819D01*
X136060588Y-112469819D02*
X135917731Y-112517438D01*
X135917731Y-112517438D02*
X135822493Y-112612676D01*
X135822493Y-112612676D02*
X135774874Y-112707914D01*
X135774874Y-112707914D02*
X135727255Y-112898390D01*
X135727255Y-112898390D02*
X135727255Y-113041247D01*
X135727255Y-113041247D02*
X135774874Y-113231723D01*
X135774874Y-113231723D02*
X135822493Y-113326961D01*
X135822493Y-113326961D02*
X135917731Y-113422200D01*
X135917731Y-113422200D02*
X136060588Y-113469819D01*
X136060588Y-113469819D02*
X136155826Y-113469819D01*
X136155826Y-113469819D02*
X136298683Y-113422200D01*
X136298683Y-113422200D02*
X136346302Y-113374580D01*
X136346302Y-113374580D02*
X136346302Y-113041247D01*
X136346302Y-113041247D02*
X136155826Y-113041247D01*
X128990112Y-104676009D02*
X128656779Y-104676009D01*
X128656779Y-105199819D02*
X128656779Y-104199819D01*
X128656779Y-104199819D02*
X129132969Y-104199819D01*
X129990112Y-105199819D02*
X129513922Y-105199819D01*
X129513922Y-105199819D02*
X129513922Y-104199819D01*
X130275827Y-104914104D02*
X130752017Y-104914104D01*
X130180589Y-105199819D02*
X130513922Y-104199819D01*
X130513922Y-104199819D02*
X130847255Y-105199819D01*
X131132970Y-105152200D02*
X131275827Y-105199819D01*
X131275827Y-105199819D02*
X131513922Y-105199819D01*
X131513922Y-105199819D02*
X131609160Y-105152200D01*
X131609160Y-105152200D02*
X131656779Y-105104580D01*
X131656779Y-105104580D02*
X131704398Y-105009342D01*
X131704398Y-105009342D02*
X131704398Y-104914104D01*
X131704398Y-104914104D02*
X131656779Y-104818866D01*
X131656779Y-104818866D02*
X131609160Y-104771247D01*
X131609160Y-104771247D02*
X131513922Y-104723628D01*
X131513922Y-104723628D02*
X131323446Y-104676009D01*
X131323446Y-104676009D02*
X131228208Y-104628390D01*
X131228208Y-104628390D02*
X131180589Y-104580771D01*
X131180589Y-104580771D02*
X131132970Y-104485533D01*
X131132970Y-104485533D02*
X131132970Y-104390295D01*
X131132970Y-104390295D02*
X131180589Y-104295057D01*
X131180589Y-104295057D02*
X131228208Y-104247438D01*
X131228208Y-104247438D02*
X131323446Y-104199819D01*
X131323446Y-104199819D02*
X131561541Y-104199819D01*
X131561541Y-104199819D02*
X131704398Y-104247438D01*
X132132970Y-105199819D02*
X132132970Y-104199819D01*
X132132970Y-104676009D02*
X132704398Y-104676009D01*
X132704398Y-105199819D02*
X132704398Y-104199819D01*
D11*
%TO.C,U3*%
X123820000Y-76210000D02*
X129830000Y-76210000D01*
X126070000Y-83030000D02*
X129830000Y-83030000D01*
X129830000Y-76210000D02*
X129830000Y-77470000D01*
X129830000Y-83030000D02*
X129830000Y-81770000D01*
%TO.C,SW14*%
X127980000Y-109450000D02*
X127980000Y-107370000D01*
X129250000Y-105690000D02*
X128760000Y-106180000D01*
X129250000Y-105690000D02*
X132150000Y-105690000D01*
X129250000Y-111130000D02*
X128760000Y-110640000D01*
X129250000Y-111130000D02*
X132150000Y-111130000D01*
X132150000Y-105690000D02*
X132640000Y-106180000D01*
X132150000Y-111130000D02*
X132640000Y-110640000D01*
X133420000Y-109450000D02*
X133420000Y-107370000D01*
%TO.C,C11*%
X135523341Y-97627053D02*
X135307669Y-97627053D01*
X135523341Y-98347053D02*
X135307669Y-98347053D01*
%TO.C,C5*%
X151420000Y-107312164D02*
X151420000Y-107527836D01*
X152140000Y-107312164D02*
X152140000Y-107527836D01*
%TO.C,U5*%
X135140505Y-97037053D02*
X134490505Y-97037053D01*
X135790505Y-94237053D02*
X134490505Y-94237053D01*
%TO.C,U2*%
X154045000Y-102270000D02*
X153395000Y-102270000D01*
X154695000Y-99470000D02*
X153395000Y-99470000D01*
D10*
%TO.C,SW4*%
X149900000Y-116500000D02*
G75*
G02*
X144300000Y-116500000I-2800000J0D01*
G01*
X144300000Y-116500000D02*
G75*
G02*
X149900000Y-116500000I2800000J0D01*
G01*
%TO.C,SW6*%
X170300000Y-101000000D02*
G75*
G02*
X164700000Y-101000000I-2800000J0D01*
G01*
X164700000Y-101000000D02*
G75*
G02*
X170300000Y-101000000I2800000J0D01*
G01*
%TO.C,SW9*%
X205300000Y-101500000D02*
G75*
G02*
X199700000Y-101500000I-2800000J0D01*
G01*
X199700000Y-101500000D02*
G75*
G02*
X205300000Y-101500000I2800000J0D01*
G01*
D11*
%TO.C,R5*%
X135813641Y-93130000D02*
X135506359Y-93130000D01*
X135813641Y-93890000D02*
X135506359Y-93890000D01*
D10*
%TO.C,SW8*%
X195800000Y-87500000D02*
G75*
G02*
X190200000Y-87500000I-2800000J0D01*
G01*
X190200000Y-87500000D02*
G75*
G02*
X195800000Y-87500000I2800000J0D01*
G01*
D11*
%TO.C,R8*%
X135271864Y-98947053D02*
X135579146Y-98947053D01*
X135271864Y-99707053D02*
X135579146Y-99707053D01*
%TO.C,R7*%
X138715505Y-105110189D02*
X138715505Y-104802907D01*
X139475505Y-105110189D02*
X139475505Y-104802907D01*
%TO.C,C9*%
X135533341Y-100977053D02*
X135317669Y-100977053D01*
X135533341Y-101697053D02*
X135317669Y-101697053D01*
%TO.C,SW3*%
X106300000Y-99900000D02*
X106300000Y-92068426D01*
X111700000Y-99900000D02*
X111700000Y-92100000D01*
X106300000Y-92068427D02*
G75*
G02*
X111700000Y-92100000I2676907J-3965355D01*
G01*
X111700000Y-99900000D02*
G75*
G02*
X106300000Y-99900000I-2700000J3900000D01*
G01*
%TO.C,C12*%
X146177669Y-97357053D02*
X146393341Y-97357053D01*
X146177669Y-98077053D02*
X146393341Y-98077053D01*
%TO.C,C2*%
X132580000Y-80002164D02*
X132580000Y-80217836D01*
X133300000Y-80002164D02*
X133300000Y-80217836D01*
%TO.C,C13*%
X140845505Y-104839217D02*
X140845505Y-105054889D01*
X141565505Y-104839217D02*
X141565505Y-105054889D01*
%TO.C,U6*%
X136960000Y-109410000D02*
X138260000Y-109410000D01*
X137610000Y-106610000D02*
X138260000Y-106610000D01*
%TO.C,R4*%
X151400000Y-105033641D02*
X151400000Y-104726359D01*
X152160000Y-105033641D02*
X152160000Y-104726359D01*
D10*
%TO.C,SW11*%
X189300000Y-107700000D02*
G75*
G02*
X183700000Y-107700000I-2800000J0D01*
G01*
X183700000Y-107700000D02*
G75*
G02*
X189300000Y-107700000I2800000J0D01*
G01*
D11*
%TO.C,U1*%
X148785505Y-98957053D02*
X148135505Y-98957053D01*
X149435505Y-96157053D02*
X148135505Y-96157053D01*
%TO.C,R6*%
X139715505Y-105110189D02*
X139715505Y-104802907D01*
X140475505Y-105110189D02*
X140475505Y-104802907D01*
%TO.C,C10*%
X136765505Y-104819217D02*
X136765505Y-105034889D01*
X137485505Y-104819217D02*
X137485505Y-105034889D01*
%TO.C,D2*%
X132852288Y-99494553D02*
X132852288Y-101779553D01*
X132852288Y-101779553D02*
X134322288Y-101779553D01*
X133187288Y-100094553D02*
X133987288Y-100094553D01*
X133587288Y-100494553D02*
X133187288Y-100094553D01*
X133987288Y-100094553D02*
X133587288Y-100494553D01*
X133987288Y-100494553D02*
X133187288Y-100494553D01*
X134322288Y-101779553D02*
X134322288Y-99494553D01*
%TO.C,SW2*%
X106300000Y-117900000D02*
X106300000Y-110068426D01*
X111700000Y-117900000D02*
X111700000Y-110100000D01*
X106300000Y-110068427D02*
G75*
G02*
X111700000Y-110100000I2676907J-3965355D01*
G01*
X111700000Y-117900000D02*
G75*
G02*
X106300000Y-117900000I-2700000J3900000D01*
G01*
%TO.C,D1*%
X123995000Y-85577438D02*
X123995000Y-87862438D01*
X125465000Y-85577438D02*
X123995000Y-85577438D01*
X125465000Y-87862438D02*
X125465000Y-85577438D01*
%TO.C,SW1*%
X103900000Y-102300000D02*
X96100000Y-102300000D01*
X103900000Y-107700000D02*
X96068426Y-107700000D01*
X96068427Y-107700000D02*
G75*
G02*
X96100000Y-102300000I3965355J2676907D01*
G01*
X103900000Y-102300000D02*
G75*
G02*
X103900000Y-107700000I-3900000J-2700000D01*
G01*
%TO.C,C3*%
X133212164Y-93150000D02*
X133427836Y-93150000D01*
X133212164Y-93870000D02*
X133427836Y-93870000D01*
D10*
%TO.C,SW7*%
X175300000Y-117000000D02*
G75*
G02*
X169700000Y-117000000I-2800000J0D01*
G01*
X169700000Y-117000000D02*
G75*
G02*
X175300000Y-117000000I2800000J0D01*
G01*
D12*
%TO.C,FLASH1*%
X145510000Y-103200000D02*
X145510000Y-108580000D01*
X145690000Y-103200000D02*
X145510000Y-103200000D01*
X145690000Y-108580000D02*
X145510000Y-108580000D01*
X150890000Y-103200000D02*
X150710000Y-103200000D01*
X150890000Y-103200000D02*
X150890000Y-108580000D01*
X150890000Y-108580000D02*
X150710000Y-108580000D01*
D11*
X149200000Y-104390000D02*
X147200000Y-104390000D01*
X147200000Y-107390000D01*
X149200000Y-107390000D01*
X149200000Y-104390000D01*
X149061803Y-103940000D02*
G75*
G02*
X148838197Y-103940000I-111803J0D01*
G01*
X148838197Y-103940000D02*
G75*
G02*
X149061803Y-103940000I111803J0D01*
G01*
D13*
X150300000Y-100890000D02*
G75*
G02*
X150100000Y-100890000I-100000J0D01*
G01*
X150100000Y-100890000D02*
G75*
G02*
X150300000Y-100890000I100000J0D01*
G01*
D11*
%TO.C,Y1*%
X132500000Y-89625000D02*
X132500000Y-92775000D01*
X132500000Y-92775000D02*
X136500000Y-92775000D01*
%TO.C,C14*%
X139707836Y-93440000D02*
X139492164Y-93440000D01*
X139707836Y-94160000D02*
X139492164Y-94160000D01*
%TO.C,C4*%
X134392164Y-88540000D02*
X134607836Y-88540000D01*
X134392164Y-89260000D02*
X134607836Y-89260000D01*
%TO.C,SW13*%
X129180000Y-115710000D02*
X129180000Y-117790000D01*
X130450000Y-114030000D02*
X129960000Y-114520000D01*
X130450000Y-119470000D02*
X129960000Y-118980000D01*
X133350000Y-114030000D02*
X130450000Y-114030000D01*
X133350000Y-114030000D02*
X133840000Y-114520000D01*
X133350000Y-119470000D02*
X130450000Y-119470000D01*
X133350000Y-119470000D02*
X133840000Y-118980000D01*
X134620000Y-115710000D02*
X134620000Y-117790000D01*
%TO.C,SW0*%
X121900000Y-102300000D02*
X114100000Y-102300000D01*
X121900000Y-107700000D02*
X114068426Y-107700000D01*
X114068427Y-107700000D02*
G75*
G02*
X114100000Y-102300000I3965355J2676907D01*
G01*
X121900000Y-102300000D02*
G75*
G02*
X121900000Y-107700000I-3900000J-2700000D01*
G01*
%TO.C,U4*%
X137280505Y-95111548D02*
X137280505Y-95761548D01*
X137280505Y-102331548D02*
X137280505Y-101681548D01*
X137930505Y-95111548D02*
X137280505Y-95111548D01*
X137930505Y-102331548D02*
X137280505Y-102331548D01*
X143850505Y-95111548D02*
X144500505Y-95111548D01*
X143850505Y-102331548D02*
X144500505Y-102331548D01*
X144500505Y-95111548D02*
X144500505Y-95761548D01*
%TO.C,C8*%
X137745505Y-104849217D02*
X137745505Y-105064889D01*
X138465505Y-104849217D02*
X138465505Y-105064889D01*
%TO.C,C1*%
X125132164Y-83480000D02*
X125347836Y-83480000D01*
X125132164Y-84200000D02*
X125347836Y-84200000D01*
%TO.C,U7*%
X148785505Y-95757053D02*
X148135505Y-95757053D01*
X149435505Y-92957053D02*
X148135505Y-92957053D01*
%TO.C,R3*%
X152146359Y-102640000D02*
X152453641Y-102640000D01*
X152146359Y-103400000D02*
X152453641Y-103400000D01*
%TO.C,C7*%
X141955505Y-104849217D02*
X141955505Y-105064889D01*
X142675505Y-104849217D02*
X142675505Y-105064889D01*
D10*
%TO.C,SW10*%
X181800000Y-92500000D02*
G75*
G02*
X176200000Y-92500000I-2800000J0D01*
G01*
X176200000Y-92500000D02*
G75*
G02*
X181800000Y-92500000I2800000J0D01*
G01*
D11*
%TO.C,C6*%
X137240000Y-93707836D02*
X137240000Y-93492164D01*
X137960000Y-93707836D02*
X137960000Y-93492164D01*
%TD*%
%LPC*%
D14*
%TO.C,U3*%
X124770000Y-77320000D03*
X124770000Y-79620000D03*
D15*
X131070000Y-79620000D03*
D14*
X124770000Y-81920000D03*
%TD*%
D16*
%TO.C,SW14*%
X127600000Y-106560000D03*
X133800000Y-106560000D03*
X127600000Y-110260000D03*
X133800000Y-110260000D03*
%TD*%
D17*
%TO.C,C11*%
X135895505Y-97987053D03*
X134935505Y-97987053D03*
%TD*%
D18*
%TO.C,C5*%
X151780000Y-106940000D03*
X151780000Y-107900000D03*
%TD*%
D19*
%TO.C,U5*%
X135665505Y-96637053D03*
X135665505Y-96137053D03*
X135665505Y-95637053D03*
X135665505Y-95137053D03*
X135665505Y-94637053D03*
X134615505Y-94637053D03*
X134615505Y-95137053D03*
X134615505Y-95637053D03*
X134615505Y-96137053D03*
X134615505Y-96637053D03*
%TD*%
%TO.C,U2*%
X154570000Y-101870000D03*
X154570000Y-101370000D03*
X154570000Y-100870000D03*
X154570000Y-100370000D03*
X154570000Y-99870000D03*
X153520000Y-99870000D03*
X153520000Y-100370000D03*
X153520000Y-100870000D03*
X153520000Y-101370000D03*
X153520000Y-101870000D03*
%TD*%
D20*
%TO.C,SW4*%
X144600586Y-116554082D03*
D21*
X144610475Y-116271389D03*
D22*
X144622694Y-116836085D03*
D23*
X144652236Y-115991620D03*
D24*
X144676518Y-117113785D03*
D25*
X144725334Y-115718361D03*
D26*
X144761368Y-117383627D03*
D27*
X144828834Y-115455108D03*
D28*
X144876157Y-117642156D03*
D29*
X144961409Y-115205232D03*
D30*
X145019417Y-117886063D03*
D31*
X145121363Y-114971932D03*
D32*
X145189313Y-118112226D03*
D33*
X145306648Y-114758195D03*
D34*
X145383670Y-118317748D03*
D35*
X145514892Y-114566757D03*
D36*
X145600001Y-118500000D03*
D37*
X145743429Y-114400069D03*
D38*
X145912566Y-114300001D03*
D39*
X146506283Y-114300000D03*
D40*
X146717474Y-117900000D03*
D41*
X146792524Y-115500000D03*
D42*
X146861243Y-116700000D03*
D43*
X147350776Y-116100000D03*
D44*
X147383980Y-117300000D03*
D45*
X147552015Y-114900000D03*
D46*
X147850000Y-118500000D03*
D47*
X148287434Y-114300000D03*
D48*
X148528358Y-114448223D03*
D49*
X148599999Y-118500000D03*
D50*
X148750996Y-114622712D03*
D51*
X148752461Y-118375998D03*
D52*
X148952497Y-114821235D03*
D53*
X148953807Y-118177318D03*
D54*
X149130282Y-115041250D03*
D55*
X149131421Y-117957164D03*
D56*
X149282075Y-115279940D03*
D57*
X149283027Y-117718355D03*
D58*
X149405932Y-115534250D03*
D59*
X149406686Y-117463948D03*
D60*
X149500269Y-115800924D03*
D61*
X149500814Y-117197201D03*
D62*
X149563876Y-116076547D03*
D63*
X149564206Y-116921528D03*
D64*
X149595940Y-116357592D03*
D65*
X149596051Y-116640459D03*
%TD*%
D20*
%TO.C,SW6*%
X165000586Y-101054082D03*
D21*
X165010475Y-100771389D03*
D22*
X165022694Y-101336085D03*
D23*
X165052236Y-100491620D03*
D24*
X165076518Y-101613785D03*
D25*
X165125334Y-100218361D03*
D26*
X165161368Y-101883627D03*
D27*
X165228834Y-99955108D03*
D28*
X165276157Y-102142156D03*
D29*
X165361409Y-99705232D03*
D30*
X165419417Y-102386063D03*
D31*
X165521363Y-99471932D03*
D32*
X165589313Y-102612226D03*
D33*
X165706648Y-99258195D03*
D34*
X165783670Y-102817748D03*
D35*
X165914892Y-99066757D03*
D36*
X166000001Y-103000000D03*
D37*
X166143429Y-98900069D03*
D38*
X166312566Y-98800001D03*
D39*
X166906283Y-98800000D03*
D40*
X167117474Y-102400000D03*
D41*
X167192524Y-100000000D03*
D42*
X167261243Y-101200000D03*
D43*
X167750776Y-100600000D03*
D44*
X167783980Y-101800000D03*
D45*
X167952015Y-99400000D03*
D46*
X168250000Y-103000000D03*
D47*
X168687434Y-98800000D03*
D48*
X168928358Y-98948223D03*
D49*
X168999999Y-103000000D03*
D50*
X169150996Y-99122712D03*
D51*
X169152461Y-102875998D03*
D52*
X169352497Y-99321235D03*
D53*
X169353807Y-102677318D03*
D54*
X169530282Y-99541250D03*
D55*
X169531421Y-102457164D03*
D56*
X169682075Y-99779940D03*
D57*
X169683027Y-102218355D03*
D58*
X169805932Y-100034250D03*
D59*
X169806686Y-101963948D03*
D60*
X169900269Y-100300924D03*
D61*
X169900814Y-101697201D03*
D62*
X169963876Y-100576547D03*
D63*
X169964206Y-101421528D03*
D64*
X169995940Y-100857592D03*
D65*
X169996051Y-101140459D03*
%TD*%
D20*
%TO.C,SW9*%
X200000586Y-101554082D03*
D21*
X200010475Y-101271389D03*
D22*
X200022694Y-101836085D03*
D23*
X200052236Y-100991620D03*
D24*
X200076518Y-102113785D03*
D25*
X200125334Y-100718361D03*
D26*
X200161368Y-102383627D03*
D27*
X200228834Y-100455108D03*
D28*
X200276157Y-102642156D03*
D29*
X200361409Y-100205232D03*
D30*
X200419417Y-102886063D03*
D31*
X200521363Y-99971932D03*
D32*
X200589313Y-103112226D03*
D33*
X200706648Y-99758195D03*
D34*
X200783670Y-103317748D03*
D35*
X200914892Y-99566757D03*
D36*
X201000001Y-103500000D03*
D37*
X201143429Y-99400069D03*
D38*
X201312566Y-99300001D03*
D39*
X201906283Y-99300000D03*
D40*
X202117474Y-102900000D03*
D41*
X202192524Y-100500000D03*
D42*
X202261243Y-101700000D03*
D43*
X202750776Y-101100000D03*
D44*
X202783980Y-102300000D03*
D45*
X202952015Y-99900000D03*
D46*
X203250000Y-103500000D03*
D47*
X203687434Y-99300000D03*
D48*
X203928358Y-99448223D03*
D49*
X203999999Y-103500000D03*
D50*
X204150996Y-99622712D03*
D51*
X204152461Y-103375998D03*
D52*
X204352497Y-99821235D03*
D53*
X204353807Y-103177318D03*
D54*
X204530282Y-100041250D03*
D55*
X204531421Y-102957164D03*
D56*
X204682075Y-100279940D03*
D57*
X204683027Y-102718355D03*
D58*
X204805932Y-100534250D03*
D59*
X204806686Y-102463948D03*
D60*
X204900269Y-100800924D03*
D61*
X204900814Y-102197201D03*
D62*
X204963876Y-101076547D03*
D63*
X204964206Y-101921528D03*
D64*
X204995940Y-101357592D03*
D65*
X204996051Y-101640459D03*
%TD*%
D66*
%TO.C,R5*%
X136170000Y-93510000D03*
X135150000Y-93510000D03*
%TD*%
D20*
%TO.C,SW8*%
X190500586Y-87554082D03*
D21*
X190510475Y-87271389D03*
D22*
X190522694Y-87836085D03*
D23*
X190552236Y-86991620D03*
D24*
X190576518Y-88113785D03*
D25*
X190625334Y-86718361D03*
D26*
X190661368Y-88383627D03*
D27*
X190728834Y-86455108D03*
D28*
X190776157Y-88642156D03*
D29*
X190861409Y-86205232D03*
D30*
X190919417Y-88886063D03*
D31*
X191021363Y-85971932D03*
D32*
X191089313Y-89112226D03*
D33*
X191206648Y-85758195D03*
D34*
X191283670Y-89317748D03*
D35*
X191414892Y-85566757D03*
D36*
X191500001Y-89500000D03*
D37*
X191643429Y-85400069D03*
D38*
X191812566Y-85300001D03*
D39*
X192406283Y-85300000D03*
D40*
X192617474Y-88900000D03*
D41*
X192692524Y-86500000D03*
D42*
X192761243Y-87700000D03*
D43*
X193250776Y-87100000D03*
D44*
X193283980Y-88300000D03*
D45*
X193452015Y-85900000D03*
D46*
X193750000Y-89500000D03*
D47*
X194187434Y-85300000D03*
D48*
X194428358Y-85448223D03*
D49*
X194499999Y-89500000D03*
D50*
X194650996Y-85622712D03*
D51*
X194652461Y-89375998D03*
D52*
X194852497Y-85821235D03*
D53*
X194853807Y-89177318D03*
D54*
X195030282Y-86041250D03*
D55*
X195031421Y-88957164D03*
D56*
X195182075Y-86279940D03*
D57*
X195183027Y-88718355D03*
D58*
X195305932Y-86534250D03*
D59*
X195306686Y-88463948D03*
D60*
X195400269Y-86800924D03*
D61*
X195400814Y-88197201D03*
D62*
X195463876Y-87076547D03*
D63*
X195464206Y-87921528D03*
D64*
X195495940Y-87357592D03*
D65*
X195496051Y-87640459D03*
%TD*%
D67*
%TO.C,R8*%
X134915505Y-99327053D03*
X135935505Y-99327053D03*
%TD*%
D68*
%TO.C,R7*%
X139095505Y-105466548D03*
X139095505Y-104446548D03*
%TD*%
D17*
%TO.C,C9*%
X135905505Y-101337053D03*
X134945505Y-101337053D03*
%TD*%
D69*
%TO.C,SW3*%
X109000000Y-100320000D03*
D70*
X108864306Y-100317868D03*
D71*
X109135694Y-100317868D03*
D72*
X108728745Y-100311475D03*
D73*
X109271255Y-100311475D03*
D74*
X108593452Y-100300828D03*
D75*
X109406548Y-100300828D03*
D76*
X108458560Y-100285936D03*
D77*
X109541440Y-100285936D03*
D78*
X108324203Y-100266814D03*
D79*
X109675797Y-100266814D03*
D80*
X108190513Y-100243481D03*
D81*
X108057621Y-100215960D03*
D82*
X107925660Y-100184279D03*
D83*
X107794758Y-100148469D03*
D84*
X107665047Y-100108564D03*
D85*
X107536652Y-100064605D03*
D86*
X107409702Y-100016634D03*
D87*
X107284321Y-99964700D03*
D88*
X107160633Y-99908853D03*
D89*
X107038761Y-99849148D03*
D90*
X106918824Y-99785645D03*
D91*
X106800941Y-99718406D03*
D92*
X106750000Y-97500000D03*
D93*
X109750000Y-97100000D03*
X108250000Y-94960000D03*
D92*
X111250000Y-94500000D03*
D94*
X111199059Y-92281594D03*
D95*
X111081176Y-92214355D03*
D96*
X110961239Y-92150852D03*
D97*
X110839367Y-92091147D03*
D98*
X110715679Y-92035300D03*
D99*
X110590298Y-91983366D03*
D100*
X110463348Y-91935395D03*
D101*
X110334953Y-91891436D03*
D102*
X110205242Y-91851531D03*
D103*
X110074340Y-91815721D03*
D104*
X109942379Y-91784040D03*
D105*
X109809487Y-91756519D03*
D106*
X108324203Y-91733186D03*
D107*
X109675797Y-91733186D03*
D108*
X108458560Y-91714064D03*
D109*
X109541440Y-91714064D03*
D110*
X108593452Y-91699172D03*
D111*
X109406548Y-91699172D03*
D112*
X108728745Y-91688525D03*
D113*
X109271255Y-91688525D03*
D114*
X108864306Y-91682132D03*
D115*
X109135694Y-91682132D03*
D69*
X109000000Y-91680000D03*
%TD*%
D116*
%TO.C,C12*%
X145805505Y-97717053D03*
X146765505Y-97717053D03*
%TD*%
D18*
%TO.C,C2*%
X132940000Y-79630000D03*
X132940000Y-80590000D03*
%TD*%
%TO.C,C13*%
X141205505Y-104467053D03*
X141205505Y-105427053D03*
%TD*%
D19*
%TO.C,U6*%
X137085000Y-107010000D03*
X137085000Y-107510000D03*
X137085000Y-108010000D03*
X137085000Y-108510000D03*
X137085000Y-109010000D03*
X138135000Y-109010000D03*
X138135000Y-108510000D03*
X138135000Y-108010000D03*
X138135000Y-107510000D03*
X138135000Y-107010000D03*
%TD*%
D68*
%TO.C,R4*%
X151780000Y-105390000D03*
X151780000Y-104370000D03*
%TD*%
D20*
%TO.C,SW11*%
X184000586Y-107754082D03*
D21*
X184010475Y-107471389D03*
D22*
X184022694Y-108036085D03*
D23*
X184052236Y-107191620D03*
D24*
X184076518Y-108313785D03*
D25*
X184125334Y-106918361D03*
D26*
X184161368Y-108583627D03*
D27*
X184228834Y-106655108D03*
D28*
X184276157Y-108842156D03*
D29*
X184361409Y-106405232D03*
D30*
X184419417Y-109086063D03*
D31*
X184521363Y-106171932D03*
D32*
X184589313Y-109312226D03*
D33*
X184706648Y-105958195D03*
D34*
X184783670Y-109517748D03*
D35*
X184914892Y-105766757D03*
D36*
X185000001Y-109700000D03*
D37*
X185143429Y-105600069D03*
D38*
X185312566Y-105500001D03*
D39*
X185906283Y-105500000D03*
D40*
X186117474Y-109100000D03*
D41*
X186192524Y-106700000D03*
D42*
X186261243Y-107900000D03*
D43*
X186750776Y-107300000D03*
D44*
X186783980Y-108500000D03*
D45*
X186952015Y-106100000D03*
D46*
X187250000Y-109700000D03*
D47*
X187687434Y-105500000D03*
D48*
X187928358Y-105648223D03*
D49*
X187999999Y-109700000D03*
D50*
X188150996Y-105822712D03*
D51*
X188152461Y-109575998D03*
D52*
X188352497Y-106021235D03*
D53*
X188353807Y-109377318D03*
D54*
X188530282Y-106241250D03*
D55*
X188531421Y-109157164D03*
D56*
X188682075Y-106479940D03*
D57*
X188683027Y-108918355D03*
D58*
X188805932Y-106734250D03*
D59*
X188806686Y-108663948D03*
D60*
X188900269Y-107000924D03*
D61*
X188900814Y-108397201D03*
D62*
X188963876Y-107276547D03*
D63*
X188964206Y-108121528D03*
D64*
X188995940Y-107557592D03*
D65*
X188996051Y-107840459D03*
%TD*%
D19*
%TO.C,U1*%
X149310505Y-98557053D03*
X149310505Y-98057053D03*
X149310505Y-97557053D03*
X149310505Y-97057053D03*
X149310505Y-96557053D03*
X148260505Y-96557053D03*
X148260505Y-97057053D03*
X148260505Y-97557053D03*
X148260505Y-98057053D03*
X148260505Y-98557053D03*
%TD*%
D68*
%TO.C,R6*%
X140095505Y-105466548D03*
X140095505Y-104446548D03*
%TD*%
D18*
%TO.C,C10*%
X137125505Y-104447053D03*
X137125505Y-105407053D03*
%TD*%
D117*
%TO.C,D2*%
X133587288Y-101082053D03*
X133587288Y-99507053D03*
%TD*%
D69*
%TO.C,SW2*%
X109000000Y-118320000D03*
D70*
X108864306Y-118317868D03*
D71*
X109135694Y-118317868D03*
D72*
X108728745Y-118311475D03*
D73*
X109271255Y-118311475D03*
D74*
X108593452Y-118300828D03*
D75*
X109406548Y-118300828D03*
D76*
X108458560Y-118285936D03*
D77*
X109541440Y-118285936D03*
D78*
X108324203Y-118266814D03*
D79*
X109675797Y-118266814D03*
D80*
X108190513Y-118243481D03*
D81*
X108057621Y-118215960D03*
D82*
X107925660Y-118184279D03*
D83*
X107794758Y-118148469D03*
D84*
X107665047Y-118108564D03*
D85*
X107536652Y-118064605D03*
D86*
X107409702Y-118016634D03*
D87*
X107284321Y-117964700D03*
D88*
X107160633Y-117908853D03*
D89*
X107038761Y-117849148D03*
D90*
X106918824Y-117785645D03*
D91*
X106800941Y-117718406D03*
D92*
X106750000Y-115500000D03*
D93*
X109750000Y-115100000D03*
X108250000Y-112960000D03*
D92*
X111250000Y-112500000D03*
D94*
X111199059Y-110281594D03*
D95*
X111081176Y-110214355D03*
D96*
X110961239Y-110150852D03*
D97*
X110839367Y-110091147D03*
D98*
X110715679Y-110035300D03*
D99*
X110590298Y-109983366D03*
D100*
X110463348Y-109935395D03*
D101*
X110334953Y-109891436D03*
D102*
X110205242Y-109851531D03*
D103*
X110074340Y-109815721D03*
D104*
X109942379Y-109784040D03*
D105*
X109809487Y-109756519D03*
D106*
X108324203Y-109733186D03*
D107*
X109675797Y-109733186D03*
D108*
X108458560Y-109714064D03*
D109*
X109541440Y-109714064D03*
D110*
X108593452Y-109699172D03*
D111*
X109406548Y-109699172D03*
D112*
X108728745Y-109688525D03*
D113*
X109271255Y-109688525D03*
D114*
X108864306Y-109682132D03*
D115*
X109135694Y-109682132D03*
D69*
X109000000Y-109680000D03*
%TD*%
D118*
%TO.C,D1*%
X124730000Y-86274938D03*
X124730000Y-87849938D03*
%TD*%
D69*
%TO.C,SW1*%
X104320000Y-105000000D03*
D119*
X104317868Y-105135694D03*
D120*
X104317868Y-104864306D03*
D121*
X104311475Y-105271255D03*
D122*
X104311475Y-104728745D03*
D123*
X104300828Y-105406548D03*
D124*
X104300828Y-104593452D03*
D125*
X104285936Y-105541440D03*
D126*
X104285936Y-104458560D03*
D127*
X104266814Y-105675797D03*
D128*
X104266814Y-104324203D03*
D129*
X104243481Y-105809487D03*
D130*
X104215960Y-105942379D03*
D131*
X104184279Y-106074340D03*
D132*
X104148469Y-106205242D03*
D133*
X104108564Y-106334953D03*
D134*
X104064605Y-106463348D03*
D135*
X104016634Y-106590298D03*
D136*
X103964700Y-106715679D03*
D137*
X103908853Y-106839367D03*
D138*
X103849148Y-106961239D03*
D139*
X103785645Y-107081176D03*
D140*
X103718406Y-107199059D03*
D141*
X101500000Y-107250000D03*
D142*
X101100000Y-104250000D03*
X98960000Y-105750000D03*
D141*
X98500000Y-102750000D03*
D143*
X96281594Y-102800941D03*
D144*
X96214355Y-102918824D03*
D145*
X96150852Y-103038761D03*
D146*
X96091147Y-103160633D03*
D147*
X96035300Y-103284321D03*
D148*
X95983366Y-103409702D03*
D149*
X95935395Y-103536652D03*
D150*
X95891436Y-103665047D03*
D151*
X95851531Y-103794758D03*
D152*
X95815721Y-103925660D03*
D153*
X95784040Y-104057621D03*
D154*
X95756519Y-104190513D03*
D155*
X95733186Y-105675797D03*
D156*
X95733186Y-104324203D03*
D157*
X95714064Y-105541440D03*
D158*
X95714064Y-104458560D03*
D159*
X95699172Y-105406548D03*
D160*
X95699172Y-104593452D03*
D161*
X95688525Y-105271255D03*
D162*
X95688525Y-104728745D03*
D163*
X95682132Y-105135694D03*
D164*
X95682132Y-104864306D03*
D69*
X95680000Y-105000000D03*
%TD*%
D116*
%TO.C,C3*%
X132840000Y-93510000D03*
X133800000Y-93510000D03*
%TD*%
D20*
%TO.C,SW7*%
X170000586Y-117054082D03*
D21*
X170010475Y-116771389D03*
D22*
X170022694Y-117336085D03*
D23*
X170052236Y-116491620D03*
D24*
X170076518Y-117613785D03*
D25*
X170125334Y-116218361D03*
D26*
X170161368Y-117883627D03*
D27*
X170228834Y-115955108D03*
D28*
X170276157Y-118142156D03*
D29*
X170361409Y-115705232D03*
D30*
X170419417Y-118386063D03*
D31*
X170521363Y-115471932D03*
D32*
X170589313Y-118612226D03*
D33*
X170706648Y-115258195D03*
D34*
X170783670Y-118817748D03*
D35*
X170914892Y-115066757D03*
D36*
X171000001Y-119000000D03*
D37*
X171143429Y-114900069D03*
D38*
X171312566Y-114800001D03*
D39*
X171906283Y-114800000D03*
D40*
X172117474Y-118400000D03*
D41*
X172192524Y-116000000D03*
D42*
X172261243Y-117200000D03*
D43*
X172750776Y-116600000D03*
D44*
X172783980Y-117800000D03*
D45*
X172952015Y-115400000D03*
D46*
X173250000Y-119000000D03*
D47*
X173687434Y-114800000D03*
D48*
X173928358Y-114948223D03*
D49*
X173999999Y-119000000D03*
D50*
X174150996Y-115122712D03*
D51*
X174152461Y-118875998D03*
D52*
X174352497Y-115321235D03*
D53*
X174353807Y-118677318D03*
D54*
X174530282Y-115541250D03*
D55*
X174531421Y-118457164D03*
D56*
X174682075Y-115779940D03*
D57*
X174683027Y-118218355D03*
D58*
X174805932Y-116034250D03*
D59*
X174806686Y-117963948D03*
D60*
X174900269Y-116300924D03*
D61*
X174900814Y-117697201D03*
D62*
X174963876Y-116576547D03*
D63*
X174964206Y-117421528D03*
D64*
X174995940Y-116857592D03*
D65*
X174996051Y-117140459D03*
%TD*%
D165*
%TO.C,FLASH1*%
X150105000Y-102285000D03*
D166*
X148950000Y-104690000D03*
D165*
X148835000Y-102285000D03*
D166*
X148450000Y-104690000D03*
D165*
X147565000Y-102285000D03*
D166*
X147950000Y-104690000D03*
D165*
X146295000Y-102285000D03*
D166*
X147450000Y-104690000D03*
D167*
X148200000Y-105890000D03*
D166*
X147450000Y-107090000D03*
D165*
X146295000Y-109495000D03*
D166*
X147950000Y-107090000D03*
D165*
X147565000Y-109495000D03*
D166*
X148450000Y-107090000D03*
D165*
X148835000Y-109495000D03*
D166*
X148950000Y-107090000D03*
D165*
X150105000Y-109495000D03*
%TD*%
D168*
%TO.C,Y1*%
X133400000Y-92000000D03*
X135600000Y-92000000D03*
X135600000Y-90400000D03*
X133400000Y-90400000D03*
%TD*%
D17*
%TO.C,C14*%
X140080000Y-93800000D03*
X139120000Y-93800000D03*
%TD*%
D116*
%TO.C,C4*%
X134020000Y-88900000D03*
X134980000Y-88900000D03*
%TD*%
D169*
%TO.C,SW13*%
X135000000Y-118600000D03*
X128800000Y-118600000D03*
X135000000Y-114900000D03*
X128800000Y-114900000D03*
%TD*%
D69*
%TO.C,SW0*%
X122320000Y-105000000D03*
D119*
X122317868Y-105135694D03*
D120*
X122317868Y-104864306D03*
D121*
X122311475Y-105271255D03*
D122*
X122311475Y-104728745D03*
D123*
X122300828Y-105406548D03*
D124*
X122300828Y-104593452D03*
D125*
X122285936Y-105541440D03*
D126*
X122285936Y-104458560D03*
D127*
X122266814Y-105675797D03*
D128*
X122266814Y-104324203D03*
D129*
X122243481Y-105809487D03*
D130*
X122215960Y-105942379D03*
D131*
X122184279Y-106074340D03*
D132*
X122148469Y-106205242D03*
D133*
X122108564Y-106334953D03*
D134*
X122064605Y-106463348D03*
D135*
X122016634Y-106590298D03*
D136*
X121964700Y-106715679D03*
D137*
X121908853Y-106839367D03*
D138*
X121849148Y-106961239D03*
D139*
X121785645Y-107081176D03*
D140*
X121718406Y-107199059D03*
D141*
X119500000Y-107250000D03*
D142*
X119100000Y-104250000D03*
X116960000Y-105750000D03*
D141*
X116500000Y-102750000D03*
D143*
X114281594Y-102800941D03*
D144*
X114214355Y-102918824D03*
D145*
X114150852Y-103038761D03*
D146*
X114091147Y-103160633D03*
D147*
X114035300Y-103284321D03*
D148*
X113983366Y-103409702D03*
D149*
X113935395Y-103536652D03*
D150*
X113891436Y-103665047D03*
D151*
X113851531Y-103794758D03*
D152*
X113815721Y-103925660D03*
D153*
X113784040Y-104057621D03*
D154*
X113756519Y-104190513D03*
D155*
X113733186Y-105675797D03*
D156*
X113733186Y-104324203D03*
D157*
X113714064Y-105541440D03*
D158*
X113714064Y-104458560D03*
D159*
X113699172Y-105406548D03*
D160*
X113699172Y-104593452D03*
D161*
X113688525Y-105271255D03*
D162*
X113688525Y-104728745D03*
D163*
X113682132Y-105135694D03*
D164*
X113682132Y-104864306D03*
D69*
X113680000Y-105000000D03*
%TD*%
D170*
%TO.C,U4*%
X144328005Y-101321548D03*
X144328005Y-100921548D03*
X144328005Y-100521548D03*
X144328005Y-100121548D03*
X144328005Y-99721548D03*
X144328005Y-99321548D03*
X144328005Y-98921548D03*
X144328005Y-98521548D03*
X144328005Y-98121548D03*
X144328005Y-97721548D03*
X144328005Y-97321548D03*
X144328005Y-96921548D03*
X144328005Y-96521548D03*
X144328005Y-96121548D03*
D171*
X143490505Y-95284048D03*
X143090505Y-95284048D03*
X142690505Y-95284048D03*
X142290505Y-95284048D03*
X141890505Y-95284048D03*
X141490505Y-95284048D03*
X141090505Y-95284048D03*
X140690505Y-95284048D03*
X140290505Y-95284048D03*
X139890505Y-95284048D03*
X139490505Y-95284048D03*
X139090505Y-95284048D03*
X138690505Y-95284048D03*
X138290505Y-95284048D03*
D170*
X137453005Y-96121548D03*
X137453005Y-96521548D03*
X137453005Y-96921548D03*
X137453005Y-97321548D03*
X137453005Y-97721548D03*
X137453005Y-98121548D03*
X137453005Y-98521548D03*
X137453005Y-98921548D03*
X137453005Y-99321548D03*
X137453005Y-99721548D03*
X137453005Y-100121548D03*
X137453005Y-100521548D03*
X137453005Y-100921548D03*
X137453005Y-101321548D03*
D171*
X138290505Y-102159048D03*
X138690505Y-102159048D03*
X139090505Y-102159048D03*
X139490505Y-102159048D03*
X139890505Y-102159048D03*
X140290505Y-102159048D03*
X140690505Y-102159048D03*
X141090505Y-102159048D03*
X141490505Y-102159048D03*
X141890505Y-102159048D03*
X142290505Y-102159048D03*
X142690505Y-102159048D03*
X143090505Y-102159048D03*
X143490505Y-102159048D03*
D172*
X140890505Y-98721548D03*
%TD*%
D18*
%TO.C,C8*%
X138105505Y-104477053D03*
X138105505Y-105437053D03*
%TD*%
D173*
%TO.C,J2*%
X166910000Y-81900000D03*
X166910000Y-84400000D03*
X166910000Y-86400000D03*
X166910000Y-88900000D03*
D174*
X164200000Y-78400000D03*
X164200000Y-92400000D03*
%TD*%
D116*
%TO.C,C1*%
X124760000Y-83840000D03*
X125720000Y-83840000D03*
%TD*%
D19*
%TO.C,U7*%
X149310505Y-95357053D03*
X149310505Y-94857053D03*
X149310505Y-94357053D03*
X149310505Y-93857053D03*
X149310505Y-93357053D03*
X148260505Y-93357053D03*
X148260505Y-93857053D03*
X148260505Y-94357053D03*
X148260505Y-94857053D03*
X148260505Y-95357053D03*
%TD*%
D67*
%TO.C,R3*%
X151790000Y-103020000D03*
X152810000Y-103020000D03*
%TD*%
D18*
%TO.C,C7*%
X142315505Y-104477053D03*
X142315505Y-105437053D03*
%TD*%
D20*
%TO.C,SW10*%
X176500586Y-92554082D03*
D21*
X176510475Y-92271389D03*
D22*
X176522694Y-92836085D03*
D23*
X176552236Y-91991620D03*
D24*
X176576518Y-93113785D03*
D25*
X176625334Y-91718361D03*
D26*
X176661368Y-93383627D03*
D27*
X176728834Y-91455108D03*
D28*
X176776157Y-93642156D03*
D29*
X176861409Y-91205232D03*
D30*
X176919417Y-93886063D03*
D31*
X177021363Y-90971932D03*
D32*
X177089313Y-94112226D03*
D33*
X177206648Y-90758195D03*
D34*
X177283670Y-94317748D03*
D35*
X177414892Y-90566757D03*
D36*
X177500001Y-94500000D03*
D37*
X177643429Y-90400069D03*
D38*
X177812566Y-90300001D03*
D39*
X178406283Y-90300000D03*
D40*
X178617474Y-93900000D03*
D41*
X178692524Y-91500000D03*
D42*
X178761243Y-92700000D03*
D43*
X179250776Y-92100000D03*
D44*
X179283980Y-93300000D03*
D45*
X179452015Y-90900000D03*
D46*
X179750000Y-94500000D03*
D47*
X180187434Y-90300000D03*
D48*
X180428358Y-90448223D03*
D49*
X180499999Y-94500000D03*
D50*
X180650996Y-90622712D03*
D51*
X180652461Y-94375998D03*
D52*
X180852497Y-90821235D03*
D53*
X180853807Y-94177318D03*
D54*
X181030282Y-91041250D03*
D55*
X181031421Y-93957164D03*
D56*
X181182075Y-91279940D03*
D57*
X181183027Y-93718355D03*
D58*
X181305932Y-91534250D03*
D59*
X181306686Y-93463948D03*
D60*
X181400269Y-91800924D03*
D61*
X181400814Y-93197201D03*
D62*
X181463876Y-92076547D03*
D63*
X181464206Y-92921528D03*
D64*
X181495940Y-92357592D03*
D65*
X181496051Y-92640459D03*
%TD*%
D175*
%TO.C,C6*%
X137600000Y-94080000D03*
X137600000Y-93120000D03*
%TD*%
D176*
%TO.C,SW12*%
X185171075Y-80698859D03*
X178817858Y-77736305D03*
D177*
X185090510Y-77913880D03*
X181012125Y-76012098D03*
%TD*%
D178*
%TO.C,J1*%
X126801000Y-87800000D03*
D179*
X126801000Y-89800000D03*
X126801000Y-91800000D03*
X126801000Y-93800000D03*
X126801000Y-95800000D03*
%TD*%
D176*
%TO.C,SW5*%
X114268394Y-77759966D03*
X107915177Y-80722520D03*
D177*
X112083190Y-76031532D03*
X108004805Y-77933314D03*
%TD*%
%LPD*%
M02*
