M48
; DRILL file {KiCad 8.0.0} date 2024-02-23T16:44:12-0700
; FORMAT={-:-/ absolute / inch / decimal}
; #@! TF.CreationDate,2024-02-23T16:44:12-07:00
; #@! TF.GenerationSoftware,Kicad,Pcbnew,8.0.0
; #@! TF.FileFunction,Plated,1,2,PTH
FMAT,2
INCH
; #@! TA.AperFunction,Plated,PTH,ViaDrill
T1C0.0100
; #@! TA.AperFunction,Plated,PTH,ViaDrill
T2C0.0118
; #@! TA.AperFunction,Plated,PTH,ComponentDrill
T3C0.0138
; #@! TA.AperFunction,Plated,PTH,ComponentDrill
T4C0.0295
; #@! TA.AperFunction,Plated,PTH,ComponentDrill
T5C0.0390
; #@! TA.AperFunction,Plated,PTH,ComponentDrill
T6C0.0394
; #@! TA.AperFunction,Plated,PTH,ComponentDrill
T7C0.0512
; #@! TA.AperFunction,Plated,PTH,ComponentDrill
T8C0.0866
%
G90
G05
T1
X5.252Y-4.6693
X5.5985Y-3.7048
X5.6492Y-3.6604
X5.6653Y-3.7103
X5.7165Y-3.6603
X5.7165Y-3.7103
X5.7756Y-3.7103
X5.7874Y-3.6603
X5.8583Y-3.6535
X5.9173Y-3.7103
X5.9409Y-3.6603
X5.9764Y-3.7103
X5.9986Y-3.659
X6.0393Y-3.6889
X6.0441Y-4.3787
X6.0473Y-3.6103
X6.0528Y-4.0583
X6.0925Y-3.6358
X6.0945Y-3.563
X6.1339Y-4.4724
X6.1497Y-3.5079
X6.1515Y-3.5767
X6.1989Y-3.4587
X6.2007Y-3.5275
X6.244Y-3.4842
X6.2461Y-3.4115
X6.2953Y-3.3623
X6.2972Y-3.431
X6.3425Y-3.3872
X6.3622Y-3.3372
X6.4173Y-3.3372
X6.4173Y-3.3872
X6.4685Y-3.3372
X6.4685Y-3.3872
X6.5151Y-3.3163
X6.5161Y-3.4091
X6.5229Y-3.3622
T2
X3.6252Y-3.4079
X3.6252Y-3.5079
X3.6252Y-3.6079
X3.6252Y-3.7079
X3.6252Y-3.8079
X3.6252Y-3.9079
X3.6252Y-4.0079
X3.6252Y-4.2079
X3.6252Y-4.3079
X3.6252Y-4.4079
X3.6252Y-4.6079
X3.6252Y-4.7079
X3.6252Y-4.8079
X3.7252Y-3.3079
X3.7252Y-3.4079
X3.7252Y-3.5079
X3.7252Y-3.6079
X3.7252Y-3.7079
X3.7252Y-3.8079
X3.7252Y-3.9079
X3.7252Y-4.0079
X3.7252Y-4.8079
X3.8252Y-3.3079
X3.8252Y-3.4079
X3.8252Y-3.5079
X3.8252Y-3.6079
X3.8252Y-3.7079
X3.8252Y-3.9079
X3.8252Y-4.0079
X3.8252Y-4.6079
X3.8252Y-4.7079
X3.8252Y-4.8079
X3.9252Y-3.2079
X3.9252Y-3.3079
X3.9252Y-3.4079
X3.9252Y-3.5079
X3.9252Y-3.9079
X3.9252Y-4.0079
X3.9252Y-4.3079
X3.9252Y-4.4079
X3.9252Y-4.6079
X3.9252Y-4.7079
X3.9252Y-4.8079
X4.0252Y-3.2079
X4.0252Y-3.3079
X4.0252Y-3.4079
X4.0252Y-3.9079
X4.0252Y-4.0079
X4.0252Y-4.7079
X4.0252Y-4.8079
X4.1252Y-3.2079
X4.1252Y-3.3079
X4.1252Y-3.4079
X4.1252Y-3.9079
X4.1252Y-4.0079
X4.1252Y-4.6079
X4.1252Y-4.8079
X4.2252Y-3.3079
X4.2252Y-3.4079
X4.2252Y-4.0079
X4.2252Y-4.8079
X4.3252Y-3.2079
X4.3252Y-3.3079
X4.3252Y-3.4079
X4.3252Y-4.8079
X4.4252Y-3.1079
X4.4252Y-3.3079
X4.4252Y-3.4079
X4.4252Y-3.9079
X4.4252Y-4.0079
X4.4252Y-4.4079
X4.4252Y-4.8079
X4.5252Y-3.2079
X4.5252Y-3.4079
X4.5252Y-3.9079
X4.5252Y-4.0079
X4.5252Y-4.7079
X4.5252Y-4.8079
X4.6252Y-3.0079
X4.6252Y-3.1079
X4.6252Y-3.2079
X4.6252Y-3.3079
X4.6252Y-3.4079
X4.6252Y-3.5079
X4.6252Y-3.9079
X4.6252Y-4.0079
X4.6252Y-4.6079
X4.6252Y-4.7079
X4.6252Y-4.8079
X4.7252Y-3.0079
X4.7252Y-3.1079
X4.7252Y-3.2079
X4.7252Y-3.3079
X4.7252Y-3.4079
X4.7252Y-3.5079
X4.7252Y-3.6079
X4.7252Y-3.9079
X4.7252Y-4.0079
X4.7252Y-4.6079
X4.7252Y-4.7079
X4.7252Y-4.8079
X4.8252Y-3.0079
X4.8252Y-3.1079
X4.8252Y-3.3079
X4.8252Y-3.4079
X4.8252Y-3.5079
X4.8252Y-3.6079
X4.8252Y-3.7079
X4.8252Y-3.8079
X4.8252Y-3.9079
X4.8252Y-4.0079
X4.8252Y-4.6079
X4.8606Y-3.2283
X4.8787Y-3.3965
X4.9252Y-3.5079
X4.9252Y-3.6079
X4.9252Y-3.7079
X4.9252Y-3.8079
X4.9252Y-3.9079
X4.9252Y-4.0079
X4.9252Y-4.5079
X4.9252Y-4.6079
X4.9795Y-3.3016
X5.0252Y-3.0079
X5.0252Y-3.3079
X5.0252Y-3.4079
X5.0252Y-4.0079
X5.0531Y-3.6115
X5.0555Y-3.548
X5.1046Y-3.5872
X5.1047Y-3.663
X5.1114Y-3.7295
X5.1114Y-3.789
X5.1114Y-3.8858
X5.1114Y-3.9724
X5.1252Y-3.0079
X5.1252Y-3.3079
X5.1252Y-3.5079
X5.1252Y-4.1079
X5.1252Y-4.2079
X5.1252Y-4.3079
X5.1252Y-4.8079
X5.1475Y-4.0336
X5.1475Y-3.6301
X5.165Y-3.7051
X5.165Y-3.7598
X5.165Y-3.8346
X5.165Y-3.9055
X5.165Y-3.9721
X5.1983Y-4.0844
X5.2082Y-4.0186
X5.2126Y-3.6815
X5.2252Y-3.0079
X5.2252Y-4.5079
X5.2252Y-4.8079
X5.2423Y-4.0526
X5.2432Y-4.1293
X5.2459Y-3.8051
X5.252Y-3.2795
X5.2676Y-3.7352
X5.276Y-3.5248
X5.2965Y-4.1826
X5.3037Y-4.114
X5.3252Y-3.0079
X5.3252Y-3.3079
X5.3252Y-3.4079
X5.3252Y-4.3079
X5.3461Y-4.2322
X5.3627Y-4.1731
X5.3778Y-3.7597
X5.3986Y-4.1786
X5.4173Y-3.6496
X5.4252Y-3.0079
X5.4252Y-3.3079
X5.4252Y-3.4079
X5.4252Y-3.5079
X5.4252Y-4.5079
X5.4252Y-4.6079
X5.4252Y-4.7079
X5.4376Y-4.1794
X5.4488Y-3.6869
X5.4488Y-3.7165
X5.4522Y-4.0786
X5.4642Y-4.2524
X5.4691Y-4.1811
X5.5227Y-4.184
X5.5252Y-4.3079
X5.5252Y-4.5079
X5.5252Y-4.6079
X5.5252Y-4.7079
X5.5315Y-3.1346
X5.534Y-3.7052
X5.5652Y-4.0786
X5.5823Y-4.1717
X5.5862Y-3.7808
X5.6252Y-3.3079
X5.6252Y-3.4079
X5.6252Y-3.5079
X5.6252Y-3.6079
X5.6252Y-4.3079
X5.6252Y-4.7079
X5.7252Y-3.3079
X5.7252Y-3.4079
X5.7252Y-3.5079
X5.7252Y-3.6079
X5.7252Y-4.7079
X5.7394Y-4.0378
X5.8051Y-4.1504
X5.8059Y-3.8449
X5.8105Y-3.716
X5.8252Y-3.3079
X5.8252Y-3.4079
X5.8252Y-3.5079
X5.8252Y-3.6079
X5.8665Y-4.1713
X5.9252Y-3.3079
X5.9252Y-3.4079
X5.9252Y-3.5079
X5.9252Y-3.6079
X5.9744Y-4.0146
X5.9756Y-4.1752
X5.9764Y-4.2677
X6.0197Y-3.972
X6.0252Y-3.3079
X6.0252Y-3.4079
X6.0252Y-3.5079
X6.0252Y-4.3079
X6.0252Y-4.6079
X6.0252Y-4.7079
X6.1102Y-4.5009
X6.1111Y-4.0236
X6.1252Y-3.0079
X6.1252Y-3.1079
X6.1252Y-3.3079
X6.1252Y-3.4079
X6.1252Y-4.6079
X6.1252Y-4.7079
X6.1287Y-3.9583
X6.1575Y-4.5472
X6.1602Y-3.9307
X6.1839Y-3.9866
X6.185Y-4.5236
X6.2008Y-3.8937
X6.2252Y-3.0079
X6.2252Y-3.1079
X6.2252Y-3.3079
X6.2323Y-3.874
X6.2425Y-4.6787
X6.2638Y-3.8583
X6.2646Y-4.3094
X6.2795Y-4.126
X6.2953Y-3.8268
X6.3228Y-4.0591
X6.3252Y-3.0079
X6.3252Y-3.1079
X6.3252Y-3.5079
X6.3252Y-3.6079
X6.3252Y-4.1079
X6.3252Y-4.2079
X6.3252Y-4.4079
X6.3252Y-4.5079
X6.3252Y-4.6079
X6.3252Y-4.8079
X6.4252Y-3.0079
X6.4252Y-3.5079
X6.4252Y-3.8079
X6.4252Y-4.1079
X6.4252Y-4.2079
X6.4252Y-4.4079
X6.4252Y-4.5079
X6.4252Y-4.6079
X6.4252Y-4.8079
X6.5252Y-3.0079
X6.5252Y-3.8079
X6.5252Y-4.1079
X6.5252Y-4.2079
X6.5252Y-4.4079
X6.5252Y-4.5079
X6.5252Y-4.6079
X6.5252Y-4.8079
X6.6252Y-3.0079
X6.6252Y-3.1079
X6.6252Y-3.2079
X6.6252Y-3.3079
X6.6252Y-3.4079
X6.6252Y-3.5079
X6.6252Y-3.6079
X6.6252Y-3.8079
X6.6252Y-4.1079
X6.6252Y-4.2079
X6.6252Y-4.4079
X6.6252Y-4.8079
X6.7252Y-3.0079
X6.7252Y-3.1079
X6.7252Y-3.3079
X6.7252Y-3.4079
X6.7252Y-3.5079
X6.7252Y-3.6079
X6.7252Y-3.8079
X6.7252Y-3.9079
X6.7252Y-4.1079
X6.7252Y-4.2079
X6.7252Y-4.4079
X6.7252Y-4.8079
X6.8252Y-3.0079
X6.8252Y-3.2079
X6.8252Y-3.3079
X6.8252Y-3.4079
X6.8252Y-3.6079
X6.8252Y-3.8079
X6.8252Y-3.9079
X6.8252Y-4.0079
X6.8252Y-4.1079
X6.8252Y-4.2079
X6.8252Y-4.4079
X6.8252Y-4.8079
X6.9252Y-3.1079
X6.9252Y-3.2079
X6.9252Y-3.3079
X6.9252Y-3.4079
X6.9252Y-3.6079
X6.9252Y-3.8079
X6.9252Y-3.9079
X6.9252Y-4.0079
X6.9252Y-4.1079
X6.9252Y-4.2079
X6.9252Y-4.4079
X6.9252Y-4.5079
X6.9252Y-4.8079
X7.0252Y-3.2079
X7.0252Y-3.3079
X7.0252Y-3.4079
X7.0252Y-3.8079
X7.0252Y-3.9079
X7.0252Y-4.0079
X7.0252Y-4.1079
X7.0252Y-4.2079
X7.0252Y-4.4079
X7.0252Y-4.5079
X7.0252Y-4.6079
X7.0252Y-4.7079
X7.0252Y-4.8079
X7.1252Y-3.1079
X7.1252Y-3.2079
X7.1252Y-3.3079
X7.1252Y-3.4079
X7.1252Y-3.8079
X7.1252Y-3.9079
X7.1252Y-4.0079
X7.1252Y-4.2079
X7.1252Y-4.4079
X7.1252Y-4.5079
X7.1252Y-4.6079
X7.1252Y-4.7079
X7.1252Y-4.8079
X7.2252Y-3.1079
X7.2252Y-3.2079
X7.2252Y-3.3079
X7.2252Y-3.4079
X7.2252Y-3.8079
X7.2252Y-3.9079
X7.2252Y-4.0079
X7.2252Y-4.4079
X7.2252Y-4.5079
X7.2252Y-4.6079
X7.2252Y-4.7079
X7.2252Y-4.8079
X7.3252Y-3.3079
X7.3252Y-3.4079
X7.3252Y-3.6079
X7.3252Y-3.7079
X7.3252Y-3.8079
X7.3252Y-3.9079
X7.3252Y-4.0079
X7.3252Y-4.4079
X7.3252Y-4.5079
X7.3252Y-4.6079
X7.3252Y-4.7079
X7.3252Y-4.8079
X7.4252Y-3.2079
X7.4252Y-3.3079
X7.4252Y-3.6079
X7.4252Y-3.7079
X7.4252Y-3.8079
X7.4252Y-3.9079
X7.4252Y-4.0079
X7.4252Y-4.4079
X7.4252Y-4.5079
X7.4252Y-4.6079
X7.4252Y-4.7079
X7.4252Y-4.8079
X7.5252Y-3.2079
X7.5252Y-3.3079
X7.5252Y-3.6079
X7.5252Y-3.7079
X7.5252Y-3.8079
X7.5252Y-3.9079
X7.5252Y-4.0079
X7.5252Y-4.4079
X7.5252Y-4.5079
X7.5252Y-4.8079
X7.6252Y-3.3079
X7.6252Y-3.6079
X7.6252Y-3.7079
X7.6252Y-3.8079
X7.6252Y-3.9079
X7.6252Y-4.0079
X7.6252Y-4.2079
X7.6252Y-4.3079
X7.6252Y-4.4079
X7.6252Y-4.5079
X7.6252Y-4.6079
X7.6252Y-4.8079
X7.7252Y-3.3079
X7.7252Y-3.6079
X7.7252Y-3.7079
X7.7252Y-3.8079
X7.7252Y-3.9079
X7.7252Y-4.0079
X7.7252Y-4.2079
X7.7252Y-4.3079
X7.7252Y-4.4079
X7.7252Y-4.5079
X7.7252Y-4.6079
X7.7252Y-4.7079
X7.7252Y-4.8079
X7.8252Y-3.4079
X7.8252Y-3.5079
X7.8252Y-3.6079
X7.8252Y-3.7079
X7.8252Y-3.8079
X7.8252Y-4.2079
X7.8252Y-4.3079
X7.8252Y-4.4079
X7.8252Y-4.5079
X7.8252Y-4.6079
X7.8252Y-4.7079
X7.8252Y-4.8079
X7.9252Y-3.4079
X7.9252Y-3.5079
X7.9252Y-3.6079
X7.9252Y-3.7079
X7.9252Y-3.8079
X7.9252Y-4.2079
X7.9252Y-4.3079
X7.9252Y-4.4079
X7.9252Y-4.5079
X7.9252Y-4.6079
X7.9252Y-4.7079
X7.9252Y-4.8079
X8.0252Y-3.4079
X8.0252Y-3.5079
X8.0252Y-3.6079
X8.0252Y-3.7079
X8.0252Y-3.8079
X8.0252Y-4.2079
X8.0252Y-4.3079
X8.0252Y-4.4079
X8.0252Y-4.5079
X8.0252Y-4.6079
X8.0252Y-4.7079
X8.0252Y-4.8079
X8.1252Y-3.5079
X8.1252Y-3.6079
X8.1252Y-3.7079
X8.1252Y-3.8079
X8.1252Y-3.9079
X8.1252Y-4.2079
X8.1252Y-4.3079
X8.1252Y-4.4079
X8.1252Y-4.5079
X8.1252Y-4.6079
X8.1252Y-4.7079
X8.2252Y-3.8079
X8.2252Y-3.9079
X8.2252Y-4.0079
X8.2252Y-4.1079
X8.2252Y-4.2079
X8.2252Y-4.3079
X8.2252Y-4.4079
X8.2252Y-4.5079
X8.2252Y-4.6079
T3
X5.4967Y-3.8365
X5.4967Y-3.8867
X5.4967Y-3.9369
X5.5469Y-3.8365
X5.5469Y-3.8867
X5.5469Y-3.9369
X5.5971Y-3.8365
X5.5971Y-3.8867
X5.5971Y-3.9369
T4
X4.9922Y-3.4567
X4.9922Y-3.5354
X4.9922Y-3.6142
X4.9922Y-3.6929
X4.9922Y-3.7717
T5
X4.2522Y-3.0682
X4.4127Y-2.9934
X7.1265Y-2.9926
X7.287Y-3.0675
T6
X6.5713Y-3.2244
X6.5713Y-3.3228
X6.5713Y-3.4016
X6.5713Y-3.5
T7
X4.2486Y-3.1781
X4.4988Y-3.0614
X7.0401Y-3.0605
X7.2902Y-3.1771
T8
X6.4646Y-3.0866
X6.4646Y-3.6378
M30
