G04 #@! TF.GenerationSoftware,KiCad,Pcbnew,(7.0.0-0)*
G04 #@! TF.CreationDate,2023-05-07T01:27:25-06:00*
G04 #@! TF.ProjectId,snes_controller_pcb,736e6573-5f63-46f6-9e74-726f6c6c6572,4a*
G04 #@! TF.SameCoordinates,Original*
G04 #@! TF.FileFunction,Soldermask,Top*
G04 #@! TF.FilePolarity,Negative*
%FSLAX46Y46*%
G04 Gerber Fmt 4.6, Leading zero omitted, Abs format (unit mm)*
G04 Created by KiCad (PCBNEW (7.0.0-0)) date 2023-05-07 01:27:25*
%MOMM*%
%LPD*%
G01*
G04 APERTURE LIST*
G04 Aperture macros list*
%AMRoundRect*
0 Rectangle with rounded corners*
0 $1 Rounding radius*
0 $2 $3 $4 $5 $6 $7 $8 $9 X,Y pos of 4 corners*
0 Add a 4 corners polygon primitive as box body*
4,1,4,$2,$3,$4,$5,$6,$7,$8,$9,$2,$3,0*
0 Add four circle primitives for the rounded corners*
1,1,$1+$1,$2,$3*
1,1,$1+$1,$4,$5*
1,1,$1+$1,$6,$7*
1,1,$1+$1,$8,$9*
0 Add four rect primitives between the rounded corners*
20,1,$1+$1,$2,$3,$4,$5,0*
20,1,$1+$1,$4,$5,$6,$7,0*
20,1,$1+$1,$6,$7,$8,$9,0*
20,1,$1+$1,$8,$9,$2,$3,0*%
%AMFreePoly0*
4,1,142,1.313367,2.648542,1.321935,2.645906,1.330902,2.645906,1.360764,2.636202,1.366113,2.632314,1.372436,2.630370,1.398126,2.612315,1.403507,2.605146,1.410760,2.599878,1.429217,2.574474,1.431260,2.568181,1.435231,2.562895,1.445403,2.533187,1.445543,2.524222,1.448313,2.515699,1.450800,2.500000,1.450800,-2.500000,1.448313,-2.515699,1.445543,-2.524222,1.445403,-2.533187,
1.435231,-2.562895,1.431260,-2.568181,1.429217,-2.574474,1.410760,-2.599878,1.403507,-2.605146,1.398126,-2.612315,1.372436,-2.630370,1.366113,-2.632314,1.360764,-2.636202,1.330902,-2.645906,1.321935,-2.645906,1.313367,-2.648542,1.297633,-2.650782,1.140502,-2.648314,1.132289,-2.646881,1.123969,-2.647143,0.812183,-2.607756,0.803050,-2.605102,0.793582,-2.604208,0.489192,-2.526054,
0.480466,-2.522278,0.471181,-2.520202,0.178986,-2.404515,0.170798,-2.399672,0.161850,-2.396451,-0.113539,-2.245054,-0.121053,-2.239224,-0.129529,-2.234906,-0.383773,-2.050187,-0.390501,-2.043458,-0.398364,-2.038116,-0.627453,-1.822989,-0.633284,-1.815470,-0.640417,-1.809183,-0.771443,-1.650800,-2.400000,-1.650800,-2.401553,-1.650553,-2.403114,-1.650768,-2.527194,-1.648206,-2.537963,-1.646271,
-2.548901,-1.646181,-2.793679,-1.605335,-2.805516,-1.601379,-2.817824,-1.599221,-3.052541,-1.518645,-3.063573,-1.512789,-3.075349,-1.508638,-3.293601,-1.390526,-3.303516,-1.382939,-3.314451,-1.376904,-3.510286,-1.224479,-3.518813,-1.215367,-3.528611,-1.207612,-3.696685,-1.025032,-3.703600,-1.014637,-3.711984,-1.005378,-3.847716,-0.797625,-3.852828,-0.786226,-3.859569,-0.775721,-3.959256,-0.548460,
-3.962418,-0.536385,-3.967343,-0.524904,-4.028263,-0.284334,-4.029396,-0.271893,-4.032360,-0.259769,-4.052855,-0.012454,-4.051926,0.000000,-4.052855,0.012453,-4.032361,0.259769,-4.029396,0.271894,-4.028263,0.284334,-3.967343,0.524904,-3.962418,0.536385,-3.959255,0.548460,-3.859569,0.775721,-3.852828,0.786226,-3.847716,0.797625,-3.711984,1.005378,-3.703600,1.014637,-3.696687,1.025032,
-3.528610,1.207612,-3.518813,1.215367,-3.510286,1.224479,-3.314451,1.376904,-3.303516,1.382939,-3.293601,1.390526,-3.075349,1.508638,-3.063573,1.512789,-3.052541,1.518644,-2.817824,1.599222,-2.805515,1.601379,-2.793679,1.605335,-2.548901,1.646181,-2.537963,1.646271,-2.527194,1.648205,-2.403114,1.650768,-2.401553,1.650553,-2.400000,1.650801,-0.771443,1.650800,-0.640417,1.809183,
-0.633284,1.815470,-0.627453,1.822989,-0.398364,2.038116,-0.390501,2.043458,-0.383773,2.050187,-0.129529,2.234906,-0.121053,2.239224,-0.113539,2.245054,0.161850,2.396451,0.170798,2.399672,0.178986,2.404515,0.471181,2.520203,0.480466,2.522278,0.489192,2.526054,0.793582,2.604208,0.803050,2.605102,0.812184,2.607756,1.123969,2.647143,1.132289,2.646881,1.140502,2.648315,
1.297633,2.650782,1.313367,2.648542,1.313367,2.648542,$1*%
%AMFreePoly1*
4,1,142,-1.140503,2.648315,-1.132291,2.646881,-1.123969,2.647143,-0.812183,2.607756,-0.803050,2.605102,-0.793582,2.604208,-0.489192,2.526054,-0.480466,2.522278,-0.471181,2.520202,-0.178985,2.404515,-0.170795,2.399671,-0.161851,2.396450,0.113539,2.245054,0.121053,2.239225,0.129530,2.234907,0.383773,2.050187,0.390497,2.043461,0.398365,2.038116,0.627453,1.822989,0.633286,1.815467,
0.640416,1.809183,0.771442,1.650800,2.400000,1.650800,2.401553,1.650553,2.403113,1.650768,2.527194,1.648206,2.537963,1.646271,2.548901,1.646181,2.793680,1.605335,2.805518,1.601379,2.817824,1.599221,3.052541,1.518645,3.063573,1.512789,3.075349,1.508638,3.293601,1.390526,3.303516,1.382939,3.314451,1.376904,3.510287,1.224479,3.518822,1.215360,3.528610,1.207611,
3.696687,1.025032,3.703604,1.014631,3.711984,1.005378,3.847715,0.797625,3.852824,0.786232,3.859569,0.775721,3.959256,0.548460,3.962419,0.536380,3.967343,0.524903,4.028263,0.284334,4.029396,0.271893,4.032361,0.259768,4.052855,0.012454,4.051926,0.000000,4.052855,-0.012453,4.032361,-0.259768,4.029396,-0.271894,4.028263,-0.284334,3.967343,-0.524903,3.962419,-0.536380,
3.959255,-0.548460,3.859569,-0.775721,3.852824,-0.786232,3.847715,-0.797625,3.711984,-1.005378,3.703604,-1.014632,3.696687,-1.025032,3.528610,-1.207611,3.518822,-1.215358,3.510287,-1.224479,3.314451,-1.376904,3.303516,-1.382939,3.293601,-1.390526,3.075349,-1.508638,3.063573,-1.512789,3.052541,-1.518644,2.817824,-1.599222,2.805518,-1.601379,2.793680,-1.605335,2.548901,-1.646181,
2.537963,-1.646271,2.527194,-1.648205,2.403113,-1.650768,2.401553,-1.650553,2.400000,-1.650801,0.771442,-1.650800,0.640416,-1.809183,0.633286,-1.815467,0.627453,-1.822989,0.398365,-2.038116,0.390497,-2.043461,0.383773,-2.050187,0.129530,-2.234907,0.121053,-2.239225,0.113539,-2.245054,-0.161852,-2.396451,-0.170795,-2.399671,-0.178985,-2.404515,-0.471181,-2.520203,-0.480466,-2.522278,
-0.489192,-2.526054,-0.793582,-2.604208,-0.803050,-2.605102,-0.812184,-2.607756,-1.123969,-2.647143,-1.132291,-2.646881,-1.140503,-2.648315,-1.297633,-2.650782,-1.313367,-2.648542,-1.321935,-2.645906,-1.330902,-2.645906,-1.360762,-2.636203,-1.366115,-2.632314,-1.372439,-2.630369,-1.398128,-2.612314,-1.403509,-2.605145,-1.410760,-2.599878,-1.429216,-2.574475,-1.431260,-2.568182,-1.435232,-2.562893,
-1.445403,-2.533187,-1.445543,-2.524222,-1.448313,-2.515699,-1.450800,-2.500000,-1.450800,2.500000,-1.448313,2.515699,-1.445543,2.524222,-1.445403,2.533187,-1.435232,2.562893,-1.431260,2.568182,-1.429216,2.574475,-1.410760,2.599878,-1.403509,2.605145,-1.398128,2.612314,-1.372439,2.630369,-1.366115,2.632314,-1.360762,2.636204,-1.330902,2.645906,-1.321935,2.645906,-1.313367,2.648542,
-1.297633,2.650782,-1.140503,2.648315,-1.140503,2.648315,$1*%
G04 Aperture macros list end*
%ADD10FreePoly0,288.700000*%
%ADD11FreePoly1,288.700000*%
%ADD12FreePoly0,225.000000*%
%ADD13FreePoly1,225.000000*%
%ADD14RoundRect,0.050800X0.146720X0.153210X-0.153210X0.146720X-0.146720X-0.153210X0.153210X-0.146720X0*%
%ADD15RoundRect,0.050800X0.163088X0.135655X-0.135655X0.163088X-0.163088X-0.135655X0.135655X-0.163088X0*%
%ADD16RoundRect,0.050800X0.128473X0.168803X-0.168803X0.128473X-0.128473X-0.168803X0.168803X-0.128473X0*%
%ADD17RoundRect,0.050800X0.177369X0.116363X-0.116363X0.177369X-0.177369X-0.116363X0.116363X-0.177369X0*%
%ADD18RoundRect,0.050800X0.108582X0.182236X-0.182236X0.108582X-0.108582X-0.182236X0.182236X-0.108582X0*%
%ADD19RoundRect,0.050800X0.189378X0.095582X-0.095582X0.189378X-0.189378X-0.095582X0.095582X-0.189378X0*%
%ADD20RoundRect,0.050800X0.087300X0.193336X-0.193336X0.087300X-0.087300X-0.193336X0.193336X-0.087300X0*%
%ADD21RoundRect,0.050800X0.198964X0.073576X-0.073576X0.198964X-0.198964X-0.073576X0.073576X-0.198964X0*%
%ADD22RoundRect,0.050800X0.064901X0.201960X-0.201960X0.064901X-0.064901X-0.201960X0.201960X-0.064901X0*%
%ADD23RoundRect,0.050800X0.206002X0.050629X-0.050629X0.206002X-0.206002X-0.050629X0.050629X-0.206002X0*%
%ADD24RoundRect,0.050800X0.041671X0.207999X-0.207999X0.041671X-0.041671X-0.207999X0.207999X-0.041671X0*%
%ADD25RoundRect,0.050800X0.210402X0.027034X-0.027034X0.210402X-0.210402X-0.027034X0.027034X-0.210402X0*%
%ADD26RoundRect,0.050800X0.017908X0.211375X-0.211375X0.017908X-0.017908X-0.211375X0.211375X-0.017908X0*%
%ADD27RoundRect,0.050800X0.212109X0.003093X-0.003093X0.212109X-0.212109X-0.003093X0.003093X-0.212109X0*%
%ADD28RoundRect,0.050800X-0.006085X0.212045X-0.212045X-0.006085X0.006085X-0.212045X0.212045X0.006085X0*%
%ADD29RoundRect,0.050800X0.211101X-0.020888X0.020888X0.211101X-0.211101X0.020888X-0.020888X-0.211101X0*%
%ADD30RoundRect,0.050800X-0.030000X0.210000X-0.210000X-0.030000X0.030000X-0.210000X0.210000X0.030000X0*%
%ADD31RoundRect,0.050800X0.207390X-0.044602X0.044602X0.207390X-0.207390X0.044602X-0.044602X-0.207390X0*%
%ADD32RoundRect,0.050800X0.203246X-0.060754X0.060754X0.203246X-0.203246X0.060754X-0.060754X-0.203246X0*%
%ADD33O,1.289034X0.401600*%
%ADD34O,3.479009X0.401600*%
%ADD35O,4.069223X0.401600*%
%ADD36O,4.608059X0.401600*%
%ADD37O,4.535632X0.401600*%
%ADD38O,4.270727X0.401600*%
%ADD39O,3.039444X0.401600*%
%ADD40O,1.601600X0.401600*%
%ADD41RoundRect,0.050800X0.060754X-0.203246X0.203246X0.060754X-0.060754X0.203246X-0.203246X-0.060754X0*%
%ADD42RoundRect,0.050800X0.037405X-0.208808X0.208808X0.037405X-0.037405X0.208808X-0.208808X-0.037405X0*%
%ADD43RoundRect,0.050800X-0.210000X0.030000X-0.030000X-0.210000X0.210000X-0.030000X0.030000X0.210000X0*%
%ADD44RoundRect,0.050800X0.013578X-0.211697X0.211697X0.013578X-0.013578X0.211697X-0.211697X-0.013578X0*%
%ADD45RoundRect,0.050800X-0.211708X0.013412X-0.013412X-0.211708X0.211708X-0.013412X0.013412X0.211708X0*%
%ADD46RoundRect,0.050800X-0.010424X-0.211876X0.211876X-0.010424X0.010424X0.211876X-0.211876X0.010424X0*%
%ADD47RoundRect,0.050800X-0.211868X-0.010589X0.010589X-0.211868X0.211868X0.010589X-0.010589X0.211868X0*%
%ADD48RoundRect,0.050800X-0.034292X-0.209342X0.209342X-0.034292X0.034292X0.209342X-0.209342X0.034292X0*%
%ADD49RoundRect,0.050800X-0.209315X-0.034455X0.034455X-0.209315X0.209315X0.034455X-0.034455X0.209315X0*%
%ADD50RoundRect,0.050800X-0.057721X-0.204128X0.204128X-0.057721X0.057721X0.204128X-0.204128X0.057721X0*%
%ADD51RoundRect,0.050800X-0.204083X-0.057880X0.057880X-0.204083X0.204083X0.057880X-0.057880X0.204083X0*%
%ADD52RoundRect,0.050800X-0.080411X-0.196301X0.196301X-0.080411X0.080411X0.196301X-0.196301X0.080411X0*%
%ADD53RoundRect,0.050800X-0.196238X-0.080564X0.080564X-0.196238X0.196238X0.080564X-0.080564X0.196238X0*%
%ADD54RoundRect,0.050800X-0.102072X-0.185961X0.185961X-0.102072X0.102072X0.185961X-0.185961X0.102072X0*%
%ADD55RoundRect,0.050800X-0.185881X-0.102217X0.102217X-0.185881X0.185881X0.102217X-0.102217X0.185881X0*%
%ADD56RoundRect,0.050800X-0.122425X-0.173240X0.173240X-0.122425X0.122425X0.173240X-0.173240X0.122425X0*%
%ADD57RoundRect,0.050800X-0.173144X-0.122561X0.122561X-0.173144X0.173144X0.122561X-0.122561X0.173144X0*%
%ADD58RoundRect,0.050800X-0.141212X-0.158301X0.158301X-0.141212X0.141212X0.158301X-0.158301X0.141212X0*%
%ADD59RoundRect,0.050800X-0.158191X-0.141336X0.141336X-0.158191X0.158191X0.141336X-0.141336X0.158191X0*%
%ADD60C,2.301600*%
%ADD61C,4.601600*%
%ADD62FreePoly0,0.000000*%
%ADD63FreePoly1,0.000000*%
%ADD64C,2.201600*%
%ADD65C,1.901600*%
%ADD66FreePoly0,251.301000*%
%ADD67FreePoly1,251.301000*%
%ADD68FreePoly0,90.000000*%
%ADD69FreePoly1,90.000000*%
%ADD70RoundRect,0.300800X-0.350000X-0.625000X0.350000X-0.625000X0.350000X0.625000X-0.350000X0.625000X0*%
%ADD71O,1.301600X1.851600*%
%ADD72RoundRect,0.050800X-0.850000X-0.850000X0.850000X-0.850000X0.850000X0.850000X-0.850000X0.850000X0*%
%ADD73O,1.801600X1.801600*%
G04 APERTURE END LIST*
D10*
X87987019Y-79994464D03*
D11*
X89012981Y-83025536D03*
D12*
X140465171Y-108590629D03*
D13*
X138202429Y-110853371D03*
D14*
X161568386Y-105276082D03*
D15*
X161578275Y-104993389D03*
D16*
X161590494Y-105558085D03*
D17*
X161620036Y-104713620D03*
D18*
X161644318Y-105835785D03*
D19*
X161693134Y-104440361D03*
D20*
X161729168Y-106105627D03*
D21*
X161796634Y-104177108D03*
D22*
X161843957Y-106364156D03*
D23*
X161929209Y-103927232D03*
D24*
X161987217Y-106608063D03*
D25*
X162089163Y-103693932D03*
D26*
X162157113Y-106834226D03*
D27*
X162274448Y-103480195D03*
D28*
X162351470Y-107039748D03*
D29*
X162482692Y-103288757D03*
D30*
X162567801Y-107222000D03*
D31*
X162711229Y-103122069D03*
D32*
X162880366Y-103022001D03*
D33*
X163474082Y-103021999D03*
D34*
X163685273Y-106621999D03*
D35*
X163760323Y-104221999D03*
D36*
X163829042Y-105421999D03*
D37*
X164318575Y-104821999D03*
D38*
X164351779Y-106021999D03*
D39*
X164519814Y-103621999D03*
D40*
X164817799Y-107221999D03*
D41*
X165255234Y-103022000D03*
D42*
X165496158Y-103170223D03*
D43*
X165567799Y-107222000D03*
D44*
X165718796Y-103344712D03*
D45*
X165720261Y-107097998D03*
D46*
X165920297Y-103543235D03*
D47*
X165921607Y-106899318D03*
D48*
X166098082Y-103763250D03*
D49*
X166099221Y-106679164D03*
D50*
X166249875Y-104001940D03*
D51*
X166250827Y-106440355D03*
D52*
X166373732Y-104256250D03*
D53*
X166374486Y-106185948D03*
D54*
X166468069Y-104522924D03*
D55*
X166468614Y-105919201D03*
D56*
X166531676Y-104798547D03*
D57*
X166532006Y-105643528D03*
D58*
X166563740Y-105079592D03*
D59*
X166563851Y-105362459D03*
D12*
X124965171Y-108590629D03*
D13*
X122702429Y-110853371D03*
D60*
X98602800Y-88011000D03*
X196050000Y-80030000D03*
D61*
X167567800Y-87472000D03*
D62*
X93983800Y-96222000D03*
D63*
X97183800Y-96222000D03*
D64*
X195567800Y-94972000D03*
D60*
X175260000Y-88011000D03*
D65*
X131083800Y-109722000D03*
D60*
X189865000Y-92456000D03*
D14*
X188568386Y-105276082D03*
D15*
X188578275Y-104993389D03*
D16*
X188590494Y-105558085D03*
D17*
X188620036Y-104713620D03*
D18*
X188644318Y-105835785D03*
D19*
X188693134Y-104440361D03*
D20*
X188729168Y-106105627D03*
D21*
X188796634Y-104177108D03*
D22*
X188843957Y-106364156D03*
D23*
X188929209Y-103927232D03*
D24*
X188987217Y-106608063D03*
D25*
X189089163Y-103693932D03*
D26*
X189157113Y-106834226D03*
D27*
X189274448Y-103480195D03*
D28*
X189351470Y-107039748D03*
D29*
X189482692Y-103288757D03*
D30*
X189567801Y-107222000D03*
D31*
X189711229Y-103122069D03*
D32*
X189880366Y-103022001D03*
D33*
X190474082Y-103021999D03*
D34*
X190685273Y-106621999D03*
D35*
X190760323Y-104221999D03*
D36*
X190829042Y-105421999D03*
D37*
X191318575Y-104821999D03*
D38*
X191351779Y-106021999D03*
D39*
X191519814Y-103621999D03*
D40*
X191817799Y-107221999D03*
D41*
X192255234Y-103022000D03*
D42*
X192496158Y-103170223D03*
D43*
X192567799Y-107222000D03*
D44*
X192718796Y-103344712D03*
D45*
X192720261Y-107097998D03*
D46*
X192920297Y-103543235D03*
D47*
X192921607Y-106899318D03*
D48*
X193098082Y-103763250D03*
D49*
X193099221Y-106679164D03*
D50*
X193249875Y-104001940D03*
D51*
X193250827Y-106440355D03*
D52*
X193373732Y-104256250D03*
D53*
X193374486Y-106185948D03*
D54*
X193468069Y-104522924D03*
D55*
X193468614Y-105919201D03*
D56*
X193531676Y-104798547D03*
D57*
X193532006Y-105643528D03*
D58*
X193563740Y-105079592D03*
D59*
X193563851Y-105362459D03*
D60*
X177700000Y-73920000D03*
X77740000Y-80000000D03*
D62*
X93983800Y-113972000D03*
D63*
X97183800Y-113972000D03*
D60*
X96890000Y-74070000D03*
D66*
X185932954Y-80044455D03*
D67*
X184907046Y-83075545D03*
D68*
X86833800Y-106822000D03*
D69*
X86833800Y-103622000D03*
D61*
X105583800Y-87472000D03*
D14*
X175068386Y-115776082D03*
D15*
X175078275Y-115493389D03*
D16*
X175090494Y-116058085D03*
D17*
X175120036Y-115213620D03*
D18*
X175144318Y-116335785D03*
D19*
X175193134Y-114940361D03*
D20*
X175229168Y-116605627D03*
D21*
X175296634Y-114677108D03*
D22*
X175343957Y-116864156D03*
D23*
X175429209Y-114427232D03*
D24*
X175487217Y-117108063D03*
D25*
X175589163Y-114193932D03*
D26*
X175657113Y-117334226D03*
D27*
X175774448Y-113980195D03*
D28*
X175851470Y-117539748D03*
D29*
X175982692Y-113788757D03*
D30*
X176067801Y-117722000D03*
D31*
X176211229Y-113622069D03*
D32*
X176380366Y-113522001D03*
D33*
X176974082Y-113521999D03*
D34*
X177185273Y-117121999D03*
D35*
X177260323Y-114721999D03*
D36*
X177329042Y-115921999D03*
D37*
X177818575Y-115321999D03*
D38*
X177851779Y-116521999D03*
D39*
X178019814Y-114121999D03*
D40*
X178317799Y-117721999D03*
D41*
X178755234Y-113522000D03*
D42*
X178996158Y-113670223D03*
D43*
X179067799Y-117722000D03*
D44*
X179218796Y-113844712D03*
D45*
X179220261Y-117597998D03*
D46*
X179420297Y-114043235D03*
D47*
X179421607Y-117399318D03*
D48*
X179598082Y-114263250D03*
D49*
X179599221Y-117179164D03*
D50*
X179749875Y-114501940D03*
D51*
X179750827Y-116940355D03*
D52*
X179873732Y-114756250D03*
D53*
X179874486Y-116685948D03*
D54*
X179968069Y-115022924D03*
D55*
X179968614Y-116419201D03*
D56*
X180031676Y-115298547D03*
D57*
X180032006Y-116143528D03*
D58*
X180063740Y-115579592D03*
D59*
X180063851Y-115862459D03*
D68*
X104583800Y-106822000D03*
D69*
X104583800Y-103622000D03*
D60*
X83667600Y-92633800D03*
D64*
X77583800Y-94972000D03*
D14*
X175068386Y-94776082D03*
D15*
X175078275Y-94493389D03*
D16*
X175090494Y-95058085D03*
D17*
X175120036Y-94213620D03*
D18*
X175144318Y-95335785D03*
D19*
X175193134Y-93940361D03*
D20*
X175229168Y-95605627D03*
D21*
X175296634Y-93677108D03*
D22*
X175343957Y-95864156D03*
D23*
X175429209Y-93427232D03*
D24*
X175487217Y-96108063D03*
D25*
X175589163Y-93193932D03*
D26*
X175657113Y-96334226D03*
D27*
X175774448Y-92980195D03*
D28*
X175851470Y-96539748D03*
D29*
X175982692Y-92788757D03*
D30*
X176067801Y-96722000D03*
D31*
X176211229Y-92622069D03*
D32*
X176380366Y-92522001D03*
D33*
X176974082Y-92521999D03*
D34*
X177185273Y-96121999D03*
D35*
X177260323Y-93721999D03*
D36*
X177329042Y-94921999D03*
D37*
X177818575Y-94321999D03*
D38*
X177851779Y-95521999D03*
D39*
X178019814Y-93121999D03*
D40*
X178317799Y-96721999D03*
D41*
X178755234Y-92522000D03*
D42*
X178996158Y-92670223D03*
D43*
X179067799Y-96722000D03*
D44*
X179218796Y-92844712D03*
D45*
X179220261Y-96597998D03*
D46*
X179420297Y-93043235D03*
D47*
X179421607Y-96399318D03*
D48*
X179598082Y-93263250D03*
D49*
X179599221Y-96179164D03*
D50*
X179749875Y-93501940D03*
D51*
X179750827Y-95940355D03*
D52*
X179873732Y-93756250D03*
D53*
X179874486Y-95685948D03*
D54*
X179968069Y-94022924D03*
D55*
X179968614Y-95419201D03*
D56*
X180031676Y-94298547D03*
D57*
X180032006Y-95143528D03*
D58*
X180063740Y-94579592D03*
D59*
X180063851Y-94862459D03*
D70*
X147020000Y-105150000D03*
D71*
X149019999Y-105149999D03*
X151019999Y-105149999D03*
X153019999Y-105149999D03*
X155019999Y-105149999D03*
D72*
X127660000Y-119110000D03*
D73*
X127659999Y-116569999D03*
M02*
