%TF.GenerationSoftware,KiCad,Pcbnew,7.0.9*%
%TF.CreationDate,2024-02-22T06:25:05-07:00*%
%TF.ProjectId,genesis-6_controller_pcb,67656e65-7369-4732-9d36-5f636f6e7472,4a*%
%TF.SameCoordinates,Original*%
%TF.FileFunction,Soldermask,Bot*%
%TF.FilePolarity,Negative*%
%FSLAX46Y46*%
G04 Gerber Fmt 4.6, Leading zero omitted, Abs format (unit mm)*
G04 Created by KiCad (PCBNEW 7.0.9) date 2024-02-22 06:25:05*
%MOMM*%
%LPD*%
G01*
G04 APERTURE LIST*
G04 Aperture macros list*
%AMRoundRect*
0 Rectangle with rounded corners*
0 $1 Rounding radius*
0 $2 $3 $4 $5 $6 $7 $8 $9 X,Y pos of 4 corners*
0 Add a 4 corners polygon primitive as box body*
4,1,4,$2,$3,$4,$5,$6,$7,$8,$9,$2,$3,0*
0 Add four circle primitives for the rounded corners*
1,1,$1+$1,$2,$3*
1,1,$1+$1,$4,$5*
1,1,$1+$1,$6,$7*
1,1,$1+$1,$8,$9*
0 Add four rect primitives between the rounded corners*
20,1,$1+$1,$2,$3,$4,$5,0*
20,1,$1+$1,$4,$5,$6,$7,0*
20,1,$1+$1,$6,$7,$8,$9,0*
20,1,$1+$1,$8,$9,$2,$3,0*%
G04 Aperture macros list end*
%ADD10C,0.010000*%
%ADD11C,2.201600*%
%ADD12C,1.851600*%
%ADD13RoundRect,0.300800X-0.625000X0.350000X-0.625000X-0.350000X0.625000X-0.350000X0.625000X0.350000X0*%
%ADD14O,1.851600X1.301600*%
G04 APERTURE END LIST*
%TO.C,Ref\u002A\u002A*%
D10*
X116859838Y-120852138D02*
X116877100Y-120869345D01*
X116905162Y-120905153D01*
X116944879Y-120960979D01*
X116997185Y-121038294D01*
X117063016Y-121138570D01*
X117143305Y-121263278D01*
X117238989Y-121413890D01*
X117351001Y-121591878D01*
X117480278Y-121798714D01*
X117627753Y-122035868D01*
X117794362Y-122304813D01*
X117981039Y-122607020D01*
X118188720Y-122943961D01*
X118243050Y-123032222D01*
X118407137Y-123299232D01*
X118564761Y-123556390D01*
X118714486Y-123801320D01*
X118854875Y-124031643D01*
X118984492Y-124244982D01*
X119101898Y-124438960D01*
X119205658Y-124611199D01*
X119294334Y-124759322D01*
X119366490Y-124880951D01*
X119420688Y-124973708D01*
X119455493Y-125035218D01*
X119469467Y-125063101D01*
X119473906Y-125079945D01*
X119474920Y-125167787D01*
X119436568Y-125241980D01*
X119360430Y-125299108D01*
X119348237Y-125304406D01*
X119331677Y-125309383D01*
X119309015Y-125313797D01*
X119277986Y-125317675D01*
X119236326Y-125321045D01*
X119181771Y-125323933D01*
X119112055Y-125326367D01*
X119024916Y-125328373D01*
X118918088Y-125329978D01*
X118789306Y-125331211D01*
X118636307Y-125332096D01*
X118456826Y-125332662D01*
X118248598Y-125332935D01*
X118009359Y-125332943D01*
X117736845Y-125332712D01*
X117428791Y-125332270D01*
X117082933Y-125331643D01*
X116697006Y-125330858D01*
X114107642Y-125325419D01*
X114045881Y-125256293D01*
X114017103Y-125219381D01*
X113988357Y-125148725D01*
X113993663Y-125070146D01*
X114032590Y-124974464D01*
X114033437Y-124972845D01*
X114057717Y-124929905D01*
X114101817Y-124855261D01*
X114163989Y-124751739D01*
X114242484Y-124622161D01*
X114335555Y-124469352D01*
X114441452Y-124296137D01*
X114558426Y-124105340D01*
X114684731Y-123899785D01*
X114818615Y-123682296D01*
X114958333Y-123455698D01*
X115102133Y-123222815D01*
X115248269Y-122986472D01*
X115394992Y-122749492D01*
X115540552Y-122514700D01*
X115683203Y-122284920D01*
X115821194Y-122062977D01*
X115952777Y-121851695D01*
X116076204Y-121653897D01*
X116189727Y-121472409D01*
X116291596Y-121310055D01*
X116380064Y-121169659D01*
X116453381Y-121054045D01*
X116509799Y-120966038D01*
X116547570Y-120908462D01*
X116564945Y-120884141D01*
X116595948Y-120856938D01*
X116681280Y-120816573D01*
X116772288Y-120814642D01*
X116859838Y-120852138D01*
G36*
X116859838Y-120852138D02*
G01*
X116877100Y-120869345D01*
X116905162Y-120905153D01*
X116944879Y-120960979D01*
X116997185Y-121038294D01*
X117063016Y-121138570D01*
X117143305Y-121263278D01*
X117238989Y-121413890D01*
X117351001Y-121591878D01*
X117480278Y-121798714D01*
X117627753Y-122035868D01*
X117794362Y-122304813D01*
X117981039Y-122607020D01*
X118188720Y-122943961D01*
X118243050Y-123032222D01*
X118407137Y-123299232D01*
X118564761Y-123556390D01*
X118714486Y-123801320D01*
X118854875Y-124031643D01*
X118984492Y-124244982D01*
X119101898Y-124438960D01*
X119205658Y-124611199D01*
X119294334Y-124759322D01*
X119366490Y-124880951D01*
X119420688Y-124973708D01*
X119455493Y-125035218D01*
X119469467Y-125063101D01*
X119473906Y-125079945D01*
X119474920Y-125167787D01*
X119436568Y-125241980D01*
X119360430Y-125299108D01*
X119348237Y-125304406D01*
X119331677Y-125309383D01*
X119309015Y-125313797D01*
X119277986Y-125317675D01*
X119236326Y-125321045D01*
X119181771Y-125323933D01*
X119112055Y-125326367D01*
X119024916Y-125328373D01*
X118918088Y-125329978D01*
X118789306Y-125331211D01*
X118636307Y-125332096D01*
X118456826Y-125332662D01*
X118248598Y-125332935D01*
X118009359Y-125332943D01*
X117736845Y-125332712D01*
X117428791Y-125332270D01*
X117082933Y-125331643D01*
X116697006Y-125330858D01*
X114107642Y-125325419D01*
X114045881Y-125256293D01*
X114017103Y-125219381D01*
X113988357Y-125148725D01*
X113993663Y-125070146D01*
X114032590Y-124974464D01*
X114033437Y-124972845D01*
X114057717Y-124929905D01*
X114101817Y-124855261D01*
X114163989Y-124751739D01*
X114242484Y-124622161D01*
X114335555Y-124469352D01*
X114441452Y-124296137D01*
X114558426Y-124105340D01*
X114684731Y-123899785D01*
X114818615Y-123682296D01*
X114958333Y-123455698D01*
X115102133Y-123222815D01*
X115248269Y-122986472D01*
X115394992Y-122749492D01*
X115540552Y-122514700D01*
X115683203Y-122284920D01*
X115821194Y-122062977D01*
X115952777Y-121851695D01*
X116076204Y-121653897D01*
X116189727Y-121472409D01*
X116291596Y-121310055D01*
X116380064Y-121169659D01*
X116453381Y-121054045D01*
X116509799Y-120966038D01*
X116547570Y-120908462D01*
X116564945Y-120884141D01*
X116595948Y-120856938D01*
X116681280Y-120816573D01*
X116772288Y-120814642D01*
X116859838Y-120852138D01*
G37*
X129423946Y-120832460D02*
X129506106Y-120897801D01*
X129513494Y-120907146D01*
X129544598Y-120952286D01*
X129594909Y-121029145D01*
X129662694Y-121134902D01*
X129746222Y-121266741D01*
X129843760Y-121421840D01*
X129953576Y-121597382D01*
X130073936Y-121790547D01*
X130203108Y-121998516D01*
X130339361Y-122218470D01*
X130480961Y-122447591D01*
X130626176Y-122683058D01*
X130773273Y-122922053D01*
X130920521Y-123161757D01*
X131066186Y-123399351D01*
X131208536Y-123632016D01*
X131345838Y-123856933D01*
X131476361Y-124071282D01*
X131598371Y-124272245D01*
X131710136Y-124457003D01*
X131809924Y-124622736D01*
X131896002Y-124766626D01*
X131966638Y-124885853D01*
X132020099Y-124977599D01*
X132054653Y-125039044D01*
X132068566Y-125067369D01*
X132072719Y-125084265D01*
X132072843Y-125170522D01*
X132033383Y-125241977D01*
X131954192Y-125298927D01*
X131945306Y-125302930D01*
X131929555Y-125308074D01*
X131907988Y-125312658D01*
X131878323Y-125316711D01*
X131838277Y-125320268D01*
X131785567Y-125323361D01*
X131717913Y-125326021D01*
X131633030Y-125328280D01*
X131528637Y-125330172D01*
X131402452Y-125331728D01*
X131252192Y-125332981D01*
X131075575Y-125333963D01*
X130870319Y-125334706D01*
X130634141Y-125335243D01*
X130364759Y-125335605D01*
X130059891Y-125335825D01*
X129717254Y-125335936D01*
X129334566Y-125335969D01*
X129251366Y-125335971D01*
X128870214Y-125336000D01*
X128528699Y-125335987D01*
X128224585Y-125335837D01*
X127955634Y-125335456D01*
X127719609Y-125334751D01*
X127514272Y-125333626D01*
X127337387Y-125331987D01*
X127186715Y-125329739D01*
X127060020Y-125326789D01*
X126955065Y-125323041D01*
X126869611Y-125318401D01*
X126801423Y-125312776D01*
X126748262Y-125306070D01*
X126707892Y-125298189D01*
X126678075Y-125289039D01*
X126656573Y-125278525D01*
X126641150Y-125266553D01*
X126629569Y-125253028D01*
X126619591Y-125237856D01*
X126608981Y-125220943D01*
X126587503Y-125174070D01*
X126585029Y-125090991D01*
X126590684Y-125076979D01*
X126616791Y-125027450D01*
X126662462Y-124946600D01*
X126725981Y-124837230D01*
X126805630Y-124702142D01*
X126899692Y-124544138D01*
X127006448Y-124366019D01*
X127124183Y-124170587D01*
X127251177Y-123960643D01*
X127385714Y-123738989D01*
X127526076Y-123508428D01*
X127670546Y-123271760D01*
X127817407Y-123031787D01*
X127964940Y-122791310D01*
X128111428Y-122553133D01*
X128255155Y-122320055D01*
X128394402Y-122094880D01*
X128527451Y-121880407D01*
X128652587Y-121679440D01*
X128768090Y-121494780D01*
X128872244Y-121329228D01*
X128963331Y-121185587D01*
X129039634Y-121066657D01*
X129099435Y-120975240D01*
X129141017Y-120914139D01*
X129162662Y-120886154D01*
X129248612Y-120827033D01*
X129337086Y-120808836D01*
X129423946Y-120832460D01*
G36*
X129423946Y-120832460D02*
G01*
X129506106Y-120897801D01*
X129513494Y-120907146D01*
X129544598Y-120952286D01*
X129594909Y-121029145D01*
X129662694Y-121134902D01*
X129746222Y-121266741D01*
X129843760Y-121421840D01*
X129953576Y-121597382D01*
X130073936Y-121790547D01*
X130203108Y-121998516D01*
X130339361Y-122218470D01*
X130480961Y-122447591D01*
X130626176Y-122683058D01*
X130773273Y-122922053D01*
X130920521Y-123161757D01*
X131066186Y-123399351D01*
X131208536Y-123632016D01*
X131345838Y-123856933D01*
X131476361Y-124071282D01*
X131598371Y-124272245D01*
X131710136Y-124457003D01*
X131809924Y-124622736D01*
X131896002Y-124766626D01*
X131966638Y-124885853D01*
X132020099Y-124977599D01*
X132054653Y-125039044D01*
X132068566Y-125067369D01*
X132072719Y-125084265D01*
X132072843Y-125170522D01*
X132033383Y-125241977D01*
X131954192Y-125298927D01*
X131945306Y-125302930D01*
X131929555Y-125308074D01*
X131907988Y-125312658D01*
X131878323Y-125316711D01*
X131838277Y-125320268D01*
X131785567Y-125323361D01*
X131717913Y-125326021D01*
X131633030Y-125328280D01*
X131528637Y-125330172D01*
X131402452Y-125331728D01*
X131252192Y-125332981D01*
X131075575Y-125333963D01*
X130870319Y-125334706D01*
X130634141Y-125335243D01*
X130364759Y-125335605D01*
X130059891Y-125335825D01*
X129717254Y-125335936D01*
X129334566Y-125335969D01*
X129251366Y-125335971D01*
X128870214Y-125336000D01*
X128528699Y-125335987D01*
X128224585Y-125335837D01*
X127955634Y-125335456D01*
X127719609Y-125334751D01*
X127514272Y-125333626D01*
X127337387Y-125331987D01*
X127186715Y-125329739D01*
X127060020Y-125326789D01*
X126955065Y-125323041D01*
X126869611Y-125318401D01*
X126801423Y-125312776D01*
X126748262Y-125306070D01*
X126707892Y-125298189D01*
X126678075Y-125289039D01*
X126656573Y-125278525D01*
X126641150Y-125266553D01*
X126629569Y-125253028D01*
X126619591Y-125237856D01*
X126608981Y-125220943D01*
X126587503Y-125174070D01*
X126585029Y-125090991D01*
X126590684Y-125076979D01*
X126616791Y-125027450D01*
X126662462Y-124946600D01*
X126725981Y-124837230D01*
X126805630Y-124702142D01*
X126899692Y-124544138D01*
X127006448Y-124366019D01*
X127124183Y-124170587D01*
X127251177Y-123960643D01*
X127385714Y-123738989D01*
X127526076Y-123508428D01*
X127670546Y-123271760D01*
X127817407Y-123031787D01*
X127964940Y-122791310D01*
X128111428Y-122553133D01*
X128255155Y-122320055D01*
X128394402Y-122094880D01*
X128527451Y-121880407D01*
X128652587Y-121679440D01*
X128768090Y-121494780D01*
X128872244Y-121329228D01*
X128963331Y-121185587D01*
X129039634Y-121066657D01*
X129099435Y-120975240D01*
X129141017Y-120914139D01*
X129162662Y-120886154D01*
X129248612Y-120827033D01*
X129337086Y-120808836D01*
X129423946Y-120832460D01*
G37*
X114897748Y-116870486D02*
X115246023Y-116870694D01*
X115634276Y-116870962D01*
X115710863Y-116871015D01*
X116109931Y-116871427D01*
X116468634Y-116872051D01*
X116788639Y-116872904D01*
X117071615Y-116874003D01*
X117319227Y-116875366D01*
X117533143Y-116877010D01*
X117715029Y-116878952D01*
X117866554Y-116881210D01*
X117989383Y-116883800D01*
X118085185Y-116886740D01*
X118155625Y-116890047D01*
X118202372Y-116893739D01*
X118227092Y-116897833D01*
X118274111Y-116917094D01*
X118341571Y-116973688D01*
X118375288Y-117050247D01*
X118371204Y-117139958D01*
X118367281Y-117148129D01*
X118343530Y-117190025D01*
X118299442Y-117264863D01*
X118236254Y-117370629D01*
X118155200Y-117505310D01*
X118057518Y-117666892D01*
X117944443Y-117853361D01*
X117817211Y-118062704D01*
X117677058Y-118292906D01*
X117525221Y-118541955D01*
X117362934Y-118807836D01*
X117191434Y-119088536D01*
X117011958Y-119382041D01*
X116825740Y-119686338D01*
X116634018Y-119999412D01*
X116438026Y-120319250D01*
X116239001Y-120643839D01*
X116038179Y-120971164D01*
X115836796Y-121299213D01*
X115636088Y-121625970D01*
X115437290Y-121949424D01*
X115241640Y-122267559D01*
X115050372Y-122578362D01*
X114864723Y-122879820D01*
X114685928Y-123169919D01*
X114515225Y-123446645D01*
X114353848Y-123707984D01*
X114203033Y-123951924D01*
X114064017Y-124176449D01*
X113938036Y-124379547D01*
X113826326Y-124559203D01*
X113730122Y-124713405D01*
X113650660Y-124840138D01*
X113589177Y-124937388D01*
X113546909Y-125003143D01*
X113525090Y-125035388D01*
X113455872Y-125106840D01*
X113355906Y-125180975D01*
X113240673Y-125246352D01*
X113123571Y-125294333D01*
X113117878Y-125296128D01*
X113097675Y-125301846D01*
X113074535Y-125306950D01*
X113046139Y-125311470D01*
X113010172Y-125315435D01*
X112964315Y-125318877D01*
X112906250Y-125321825D01*
X112833661Y-125324309D01*
X112744231Y-125326360D01*
X112635641Y-125328008D01*
X112505574Y-125329284D01*
X112351713Y-125330217D01*
X112171741Y-125330838D01*
X111963340Y-125331177D01*
X111724193Y-125331264D01*
X111451982Y-125331130D01*
X111144390Y-125330804D01*
X110799100Y-125330318D01*
X110413794Y-125329701D01*
X107827717Y-125325419D01*
X107767960Y-125280955D01*
X107717733Y-125219295D01*
X107698013Y-125136012D01*
X107709715Y-125039510D01*
X107753181Y-124937768D01*
X107765816Y-124916843D01*
X107800376Y-124860259D01*
X107855194Y-124770804D01*
X107929212Y-124650194D01*
X108021374Y-124500147D01*
X108130624Y-124322380D01*
X108255906Y-124118610D01*
X108396162Y-123890555D01*
X108550337Y-123639933D01*
X108717373Y-123368459D01*
X108896215Y-123077853D01*
X109085807Y-122769830D01*
X109285091Y-122446109D01*
X109493011Y-122108407D01*
X109708510Y-121758441D01*
X109930533Y-121397928D01*
X110158023Y-121028585D01*
X110403907Y-120629628D01*
X110651081Y-120229051D01*
X110887186Y-119846906D01*
X111111433Y-119484454D01*
X111323035Y-119142959D01*
X111521203Y-118823682D01*
X111705150Y-118527887D01*
X111874088Y-118256835D01*
X112027228Y-118011790D01*
X112163784Y-117794013D01*
X112282966Y-117604768D01*
X112383987Y-117445317D01*
X112466060Y-117316921D01*
X112528395Y-117220845D01*
X112570206Y-117158350D01*
X112590704Y-117130699D01*
X112623592Y-117099572D01*
X112701269Y-117037245D01*
X112776287Y-116988521D01*
X112778283Y-116987433D01*
X112809956Y-116969993D01*
X112839186Y-116954357D01*
X112868332Y-116940429D01*
X112899748Y-116928111D01*
X112935793Y-116917307D01*
X112978822Y-116907920D01*
X113031191Y-116899852D01*
X113095258Y-116893007D01*
X113173380Y-116887288D01*
X113267912Y-116882598D01*
X113381211Y-116878840D01*
X113515635Y-116875917D01*
X113673539Y-116873732D01*
X113857280Y-116872188D01*
X114069215Y-116871188D01*
X114311700Y-116870636D01*
X114587092Y-116870434D01*
X114897748Y-116870486D01*
G36*
X114897748Y-116870486D02*
G01*
X115246023Y-116870694D01*
X115634276Y-116870962D01*
X115710863Y-116871015D01*
X116109931Y-116871427D01*
X116468634Y-116872051D01*
X116788639Y-116872904D01*
X117071615Y-116874003D01*
X117319227Y-116875366D01*
X117533143Y-116877010D01*
X117715029Y-116878952D01*
X117866554Y-116881210D01*
X117989383Y-116883800D01*
X118085185Y-116886740D01*
X118155625Y-116890047D01*
X118202372Y-116893739D01*
X118227092Y-116897833D01*
X118274111Y-116917094D01*
X118341571Y-116973688D01*
X118375288Y-117050247D01*
X118371204Y-117139958D01*
X118367281Y-117148129D01*
X118343530Y-117190025D01*
X118299442Y-117264863D01*
X118236254Y-117370629D01*
X118155200Y-117505310D01*
X118057518Y-117666892D01*
X117944443Y-117853361D01*
X117817211Y-118062704D01*
X117677058Y-118292906D01*
X117525221Y-118541955D01*
X117362934Y-118807836D01*
X117191434Y-119088536D01*
X117011958Y-119382041D01*
X116825740Y-119686338D01*
X116634018Y-119999412D01*
X116438026Y-120319250D01*
X116239001Y-120643839D01*
X116038179Y-120971164D01*
X115836796Y-121299213D01*
X115636088Y-121625970D01*
X115437290Y-121949424D01*
X115241640Y-122267559D01*
X115050372Y-122578362D01*
X114864723Y-122879820D01*
X114685928Y-123169919D01*
X114515225Y-123446645D01*
X114353848Y-123707984D01*
X114203033Y-123951924D01*
X114064017Y-124176449D01*
X113938036Y-124379547D01*
X113826326Y-124559203D01*
X113730122Y-124713405D01*
X113650660Y-124840138D01*
X113589177Y-124937388D01*
X113546909Y-125003143D01*
X113525090Y-125035388D01*
X113455872Y-125106840D01*
X113355906Y-125180975D01*
X113240673Y-125246352D01*
X113123571Y-125294333D01*
X113117878Y-125296128D01*
X113097675Y-125301846D01*
X113074535Y-125306950D01*
X113046139Y-125311470D01*
X113010172Y-125315435D01*
X112964315Y-125318877D01*
X112906250Y-125321825D01*
X112833661Y-125324309D01*
X112744231Y-125326360D01*
X112635641Y-125328008D01*
X112505574Y-125329284D01*
X112351713Y-125330217D01*
X112171741Y-125330838D01*
X111963340Y-125331177D01*
X111724193Y-125331264D01*
X111451982Y-125331130D01*
X111144390Y-125330804D01*
X110799100Y-125330318D01*
X110413794Y-125329701D01*
X107827717Y-125325419D01*
X107767960Y-125280955D01*
X107717733Y-125219295D01*
X107698013Y-125136012D01*
X107709715Y-125039510D01*
X107753181Y-124937768D01*
X107765816Y-124916843D01*
X107800376Y-124860259D01*
X107855194Y-124770804D01*
X107929212Y-124650194D01*
X108021374Y-124500147D01*
X108130624Y-124322380D01*
X108255906Y-124118610D01*
X108396162Y-123890555D01*
X108550337Y-123639933D01*
X108717373Y-123368459D01*
X108896215Y-123077853D01*
X109085807Y-122769830D01*
X109285091Y-122446109D01*
X109493011Y-122108407D01*
X109708510Y-121758441D01*
X109930533Y-121397928D01*
X110158023Y-121028585D01*
X110403907Y-120629628D01*
X110651081Y-120229051D01*
X110887186Y-119846906D01*
X111111433Y-119484454D01*
X111323035Y-119142959D01*
X111521203Y-118823682D01*
X111705150Y-118527887D01*
X111874088Y-118256835D01*
X112027228Y-118011790D01*
X112163784Y-117794013D01*
X112282966Y-117604768D01*
X112383987Y-117445317D01*
X112466060Y-117316921D01*
X112528395Y-117220845D01*
X112570206Y-117158350D01*
X112590704Y-117130699D01*
X112623592Y-117099572D01*
X112701269Y-117037245D01*
X112776287Y-116988521D01*
X112778283Y-116987433D01*
X112809956Y-116969993D01*
X112839186Y-116954357D01*
X112868332Y-116940429D01*
X112899748Y-116928111D01*
X112935793Y-116917307D01*
X112978822Y-116907920D01*
X113031191Y-116899852D01*
X113095258Y-116893007D01*
X113173380Y-116887288D01*
X113267912Y-116882598D01*
X113381211Y-116878840D01*
X113515635Y-116875917D01*
X113673539Y-116873732D01*
X113857280Y-116872188D01*
X114069215Y-116871188D01*
X114311700Y-116870636D01*
X114587092Y-116870434D01*
X114897748Y-116870486D01*
G37*
X120216634Y-116874701D02*
X120331517Y-116881962D01*
X120426051Y-116894239D01*
X120506454Y-116912217D01*
X120578948Y-116936578D01*
X120649752Y-116968006D01*
X120677630Y-116981977D01*
X120717723Y-117004220D01*
X120756235Y-117029705D01*
X120794980Y-117060963D01*
X120835777Y-117100524D01*
X120880441Y-117150922D01*
X120930788Y-117214686D01*
X120988636Y-117294348D01*
X121055801Y-117392440D01*
X121134100Y-117511492D01*
X121225349Y-117654035D01*
X121331364Y-117822602D01*
X121453962Y-118019723D01*
X121594960Y-118247929D01*
X121756173Y-118509752D01*
X121856445Y-118672849D01*
X121984732Y-118881818D01*
X122106095Y-119079845D01*
X122218622Y-119263792D01*
X122320401Y-119430524D01*
X122409520Y-119576903D01*
X122484069Y-119699794D01*
X122542135Y-119796059D01*
X122581806Y-119862563D01*
X122601172Y-119896169D01*
X122617837Y-119929595D01*
X122635502Y-119977720D01*
X122645829Y-120033383D01*
X122650668Y-120108171D01*
X122651870Y-120213669D01*
X122651565Y-120272647D01*
X122648538Y-120362105D01*
X122640863Y-120426315D01*
X122626825Y-120476559D01*
X122604711Y-120524120D01*
X122603569Y-120526244D01*
X122574919Y-120576615D01*
X122526803Y-120658015D01*
X122460957Y-120767650D01*
X122379115Y-120902722D01*
X122283010Y-121060437D01*
X122174378Y-121237998D01*
X122054953Y-121432609D01*
X121926468Y-121641476D01*
X121790659Y-121861800D01*
X121649259Y-122090788D01*
X121504003Y-122325643D01*
X121356625Y-122563569D01*
X121208859Y-122801770D01*
X121062441Y-123037451D01*
X120919103Y-123267815D01*
X120780581Y-123490067D01*
X120648608Y-123701410D01*
X120524919Y-123899050D01*
X120411248Y-124080190D01*
X120309330Y-124242033D01*
X120220899Y-124381786D01*
X120147689Y-124496650D01*
X120091435Y-124583831D01*
X120053870Y-124640533D01*
X120036729Y-124663960D01*
X120034374Y-124666103D01*
X119953185Y-124712443D01*
X119859964Y-124720812D01*
X119762669Y-124690443D01*
X119755334Y-124686683D01*
X119746219Y-124681476D01*
X119736435Y-124674208D01*
X119724850Y-124663091D01*
X119710330Y-124646336D01*
X119691740Y-124622155D01*
X119667947Y-124588759D01*
X119637818Y-124544360D01*
X119600219Y-124487169D01*
X119554017Y-124415399D01*
X119498077Y-124327260D01*
X119431266Y-124220964D01*
X119352451Y-124094723D01*
X119260498Y-123946749D01*
X119154273Y-123775252D01*
X119032643Y-123578445D01*
X118894474Y-123354539D01*
X118738632Y-123101745D01*
X118563984Y-122818276D01*
X118369397Y-122502343D01*
X118153735Y-122152157D01*
X118069011Y-122014567D01*
X117901784Y-121742771D01*
X117754884Y-121503459D01*
X117626996Y-121294221D01*
X117516802Y-121112645D01*
X117422988Y-120956319D01*
X117344236Y-120822833D01*
X117279231Y-120709774D01*
X117226656Y-120614733D01*
X117185196Y-120535298D01*
X117153534Y-120469057D01*
X117130355Y-120413599D01*
X117114341Y-120366514D01*
X117104176Y-120325389D01*
X117098546Y-120287814D01*
X117096132Y-120251378D01*
X117095620Y-120213669D01*
X117095621Y-120212785D01*
X117096304Y-120171685D01*
X117099274Y-120132009D01*
X117105958Y-120091083D01*
X117117785Y-120046237D01*
X117136186Y-119994797D01*
X117162588Y-119934092D01*
X117198422Y-119861448D01*
X117245115Y-119774195D01*
X117304098Y-119669659D01*
X117376799Y-119545169D01*
X117464647Y-119398052D01*
X117569072Y-119225636D01*
X117691502Y-119025249D01*
X117833366Y-118794217D01*
X117996095Y-118529870D01*
X118106131Y-118351300D01*
X118250492Y-118117370D01*
X118375571Y-117915293D01*
X118483033Y-117742532D01*
X118574546Y-117596547D01*
X118651775Y-117474802D01*
X118716387Y-117374759D01*
X118770048Y-117293878D01*
X118814426Y-117229623D01*
X118851186Y-117179454D01*
X118881996Y-117140834D01*
X118908521Y-117111226D01*
X118932428Y-117088090D01*
X118955383Y-117068889D01*
X118978870Y-117050631D01*
X119048773Y-116999786D01*
X119114593Y-116960239D01*
X119182960Y-116930453D01*
X119260505Y-116908889D01*
X119353859Y-116894008D01*
X119469651Y-116884274D01*
X119614513Y-116878146D01*
X119795074Y-116874088D01*
X119900933Y-116872493D01*
X120075179Y-116871772D01*
X120216634Y-116874701D01*
G36*
X120216634Y-116874701D02*
G01*
X120331517Y-116881962D01*
X120426051Y-116894239D01*
X120506454Y-116912217D01*
X120578948Y-116936578D01*
X120649752Y-116968006D01*
X120677630Y-116981977D01*
X120717723Y-117004220D01*
X120756235Y-117029705D01*
X120794980Y-117060963D01*
X120835777Y-117100524D01*
X120880441Y-117150922D01*
X120930788Y-117214686D01*
X120988636Y-117294348D01*
X121055801Y-117392440D01*
X121134100Y-117511492D01*
X121225349Y-117654035D01*
X121331364Y-117822602D01*
X121453962Y-118019723D01*
X121594960Y-118247929D01*
X121756173Y-118509752D01*
X121856445Y-118672849D01*
X121984732Y-118881818D01*
X122106095Y-119079845D01*
X122218622Y-119263792D01*
X122320401Y-119430524D01*
X122409520Y-119576903D01*
X122484069Y-119699794D01*
X122542135Y-119796059D01*
X122581806Y-119862563D01*
X122601172Y-119896169D01*
X122617837Y-119929595D01*
X122635502Y-119977720D01*
X122645829Y-120033383D01*
X122650668Y-120108171D01*
X122651870Y-120213669D01*
X122651565Y-120272647D01*
X122648538Y-120362105D01*
X122640863Y-120426315D01*
X122626825Y-120476559D01*
X122604711Y-120524120D01*
X122603569Y-120526244D01*
X122574919Y-120576615D01*
X122526803Y-120658015D01*
X122460957Y-120767650D01*
X122379115Y-120902722D01*
X122283010Y-121060437D01*
X122174378Y-121237998D01*
X122054953Y-121432609D01*
X121926468Y-121641476D01*
X121790659Y-121861800D01*
X121649259Y-122090788D01*
X121504003Y-122325643D01*
X121356625Y-122563569D01*
X121208859Y-122801770D01*
X121062441Y-123037451D01*
X120919103Y-123267815D01*
X120780581Y-123490067D01*
X120648608Y-123701410D01*
X120524919Y-123899050D01*
X120411248Y-124080190D01*
X120309330Y-124242033D01*
X120220899Y-124381786D01*
X120147689Y-124496650D01*
X120091435Y-124583831D01*
X120053870Y-124640533D01*
X120036729Y-124663960D01*
X120034374Y-124666103D01*
X119953185Y-124712443D01*
X119859964Y-124720812D01*
X119762669Y-124690443D01*
X119755334Y-124686683D01*
X119746219Y-124681476D01*
X119736435Y-124674208D01*
X119724850Y-124663091D01*
X119710330Y-124646336D01*
X119691740Y-124622155D01*
X119667947Y-124588759D01*
X119637818Y-124544360D01*
X119600219Y-124487169D01*
X119554017Y-124415399D01*
X119498077Y-124327260D01*
X119431266Y-124220964D01*
X119352451Y-124094723D01*
X119260498Y-123946749D01*
X119154273Y-123775252D01*
X119032643Y-123578445D01*
X118894474Y-123354539D01*
X118738632Y-123101745D01*
X118563984Y-122818276D01*
X118369397Y-122502343D01*
X118153735Y-122152157D01*
X118069011Y-122014567D01*
X117901784Y-121742771D01*
X117754884Y-121503459D01*
X117626996Y-121294221D01*
X117516802Y-121112645D01*
X117422988Y-120956319D01*
X117344236Y-120822833D01*
X117279231Y-120709774D01*
X117226656Y-120614733D01*
X117185196Y-120535298D01*
X117153534Y-120469057D01*
X117130355Y-120413599D01*
X117114341Y-120366514D01*
X117104176Y-120325389D01*
X117098546Y-120287814D01*
X117096132Y-120251378D01*
X117095620Y-120213669D01*
X117095621Y-120212785D01*
X117096304Y-120171685D01*
X117099274Y-120132009D01*
X117105958Y-120091083D01*
X117117785Y-120046237D01*
X117136186Y-119994797D01*
X117162588Y-119934092D01*
X117198422Y-119861448D01*
X117245115Y-119774195D01*
X117304098Y-119669659D01*
X117376799Y-119545169D01*
X117464647Y-119398052D01*
X117569072Y-119225636D01*
X117691502Y-119025249D01*
X117833366Y-118794217D01*
X117996095Y-118529870D01*
X118106131Y-118351300D01*
X118250492Y-118117370D01*
X118375571Y-117915293D01*
X118483033Y-117742532D01*
X118574546Y-117596547D01*
X118651775Y-117474802D01*
X118716387Y-117374759D01*
X118770048Y-117293878D01*
X118814426Y-117229623D01*
X118851186Y-117179454D01*
X118881996Y-117140834D01*
X118908521Y-117111226D01*
X118932428Y-117088090D01*
X118955383Y-117068889D01*
X118978870Y-117050631D01*
X119048773Y-116999786D01*
X119114593Y-116960239D01*
X119182960Y-116930453D01*
X119260505Y-116908889D01*
X119353859Y-116894008D01*
X119469651Y-116884274D01*
X119614513Y-116878146D01*
X119795074Y-116874088D01*
X119900933Y-116872493D01*
X120075179Y-116871772D01*
X120216634Y-116874701D01*
G37*
X126311192Y-116870845D02*
X126449107Y-116873654D01*
X126570789Y-116878322D01*
X126667550Y-116884828D01*
X126730704Y-116893153D01*
X126792091Y-116909067D01*
X126930331Y-116962767D01*
X127060644Y-117035282D01*
X127165833Y-117117734D01*
X127174472Y-117127506D01*
X127209540Y-117175106D01*
X127264373Y-117255633D01*
X127337493Y-117366770D01*
X127427421Y-117506200D01*
X127532679Y-117671605D01*
X127651789Y-117860669D01*
X127783272Y-118071074D01*
X127925650Y-118300504D01*
X128077445Y-118546641D01*
X128201973Y-118749263D01*
X128348156Y-118987634D01*
X128474558Y-119194719D01*
X128582612Y-119373196D01*
X128673751Y-119525740D01*
X128749408Y-119655027D01*
X128811018Y-119763734D01*
X128860011Y-119854538D01*
X128897823Y-119930114D01*
X128925885Y-119993139D01*
X128945632Y-120046289D01*
X128958495Y-120092241D01*
X128965909Y-120133671D01*
X128969307Y-120173254D01*
X128970120Y-120213669D01*
X128970075Y-120227091D01*
X128969227Y-120257867D01*
X128966428Y-120288771D01*
X128960554Y-120321799D01*
X128950480Y-120358947D01*
X128935081Y-120402211D01*
X128913231Y-120453584D01*
X128883806Y-120515064D01*
X128845680Y-120588644D01*
X128797730Y-120676321D01*
X128738829Y-120780090D01*
X128667853Y-120901946D01*
X128583677Y-121043885D01*
X128485175Y-121207902D01*
X128371224Y-121395992D01*
X128240697Y-121610150D01*
X128092471Y-121852373D01*
X127925419Y-122124654D01*
X127738417Y-122428991D01*
X127530340Y-122767377D01*
X127508526Y-122802844D01*
X127288940Y-123159526D01*
X127090362Y-123481406D01*
X126911972Y-123769783D01*
X126752948Y-124025956D01*
X126612470Y-124251223D01*
X126489715Y-124446885D01*
X126383863Y-124614240D01*
X126294092Y-124754586D01*
X126219581Y-124869224D01*
X126159508Y-124959453D01*
X126113053Y-125026570D01*
X126079394Y-125071876D01*
X126057709Y-125096670D01*
X126001315Y-125143811D01*
X125890622Y-125216965D01*
X125771638Y-125277470D01*
X125662164Y-125315478D01*
X125644554Y-125317005D01*
X125585729Y-125319059D01*
X125489196Y-125321057D01*
X125357625Y-125322980D01*
X125193686Y-125324809D01*
X125000052Y-125326527D01*
X124779393Y-125328113D01*
X124534379Y-125329549D01*
X124267683Y-125330818D01*
X123981974Y-125331899D01*
X123679923Y-125332775D01*
X123364203Y-125333427D01*
X123037482Y-125333835D01*
X123017172Y-125333852D01*
X122628354Y-125334193D01*
X122279541Y-125334457D01*
X121968515Y-125334562D01*
X121693057Y-125334422D01*
X121450948Y-125333953D01*
X121239971Y-125333069D01*
X121057906Y-125331685D01*
X120902535Y-125329718D01*
X120771641Y-125327082D01*
X120663003Y-125323693D01*
X120574404Y-125319465D01*
X120503625Y-125314315D01*
X120448449Y-125308156D01*
X120406655Y-125300905D01*
X120376026Y-125292476D01*
X120354343Y-125282786D01*
X120339388Y-125271748D01*
X120328943Y-125259278D01*
X120320788Y-125245292D01*
X120312706Y-125229705D01*
X120307961Y-125221157D01*
X120300494Y-125207866D01*
X120294302Y-125194522D01*
X120290222Y-125179683D01*
X120289090Y-125161910D01*
X120291740Y-125139763D01*
X120299010Y-125111800D01*
X120311735Y-125076581D01*
X120330751Y-125032667D01*
X120356893Y-124978616D01*
X120390998Y-124912989D01*
X120433902Y-124834346D01*
X120486440Y-124741245D01*
X120549449Y-124632246D01*
X120623764Y-124505910D01*
X120710222Y-124360796D01*
X120809657Y-124195463D01*
X120922907Y-124008472D01*
X121050806Y-123798382D01*
X121194191Y-123563752D01*
X121353898Y-123303142D01*
X121530762Y-123015112D01*
X121725621Y-122698222D01*
X121939308Y-122351032D01*
X122172661Y-121972100D01*
X122426515Y-121559987D01*
X122701706Y-121113252D01*
X122725445Y-121074715D01*
X122985908Y-120652153D01*
X123235736Y-120247322D01*
X123474165Y-119861447D01*
X123700431Y-119495754D01*
X123913769Y-119151467D01*
X124113414Y-118829812D01*
X124298603Y-118532013D01*
X124468571Y-118259295D01*
X124622554Y-118012884D01*
X124759787Y-117794005D01*
X124879506Y-117603882D01*
X124980947Y-117443740D01*
X125063345Y-117314806D01*
X125125935Y-117218302D01*
X125167955Y-117155456D01*
X125188638Y-117127491D01*
X125243317Y-117077913D01*
X125365354Y-116996262D01*
X125504473Y-116931036D01*
X125644551Y-116890614D01*
X125682182Y-116885397D01*
X125770951Y-116878606D01*
X125886924Y-116873776D01*
X126021413Y-116870886D01*
X126165732Y-116869916D01*
X126311192Y-116870845D01*
G36*
X126311192Y-116870845D02*
G01*
X126449107Y-116873654D01*
X126570789Y-116878322D01*
X126667550Y-116884828D01*
X126730704Y-116893153D01*
X126792091Y-116909067D01*
X126930331Y-116962767D01*
X127060644Y-117035282D01*
X127165833Y-117117734D01*
X127174472Y-117127506D01*
X127209540Y-117175106D01*
X127264373Y-117255633D01*
X127337493Y-117366770D01*
X127427421Y-117506200D01*
X127532679Y-117671605D01*
X127651789Y-117860669D01*
X127783272Y-118071074D01*
X127925650Y-118300504D01*
X128077445Y-118546641D01*
X128201973Y-118749263D01*
X128348156Y-118987634D01*
X128474558Y-119194719D01*
X128582612Y-119373196D01*
X128673751Y-119525740D01*
X128749408Y-119655027D01*
X128811018Y-119763734D01*
X128860011Y-119854538D01*
X128897823Y-119930114D01*
X128925885Y-119993139D01*
X128945632Y-120046289D01*
X128958495Y-120092241D01*
X128965909Y-120133671D01*
X128969307Y-120173254D01*
X128970120Y-120213669D01*
X128970075Y-120227091D01*
X128969227Y-120257867D01*
X128966428Y-120288771D01*
X128960554Y-120321799D01*
X128950480Y-120358947D01*
X128935081Y-120402211D01*
X128913231Y-120453584D01*
X128883806Y-120515064D01*
X128845680Y-120588644D01*
X128797730Y-120676321D01*
X128738829Y-120780090D01*
X128667853Y-120901946D01*
X128583677Y-121043885D01*
X128485175Y-121207902D01*
X128371224Y-121395992D01*
X128240697Y-121610150D01*
X128092471Y-121852373D01*
X127925419Y-122124654D01*
X127738417Y-122428991D01*
X127530340Y-122767377D01*
X127508526Y-122802844D01*
X127288940Y-123159526D01*
X127090362Y-123481406D01*
X126911972Y-123769783D01*
X126752948Y-124025956D01*
X126612470Y-124251223D01*
X126489715Y-124446885D01*
X126383863Y-124614240D01*
X126294092Y-124754586D01*
X126219581Y-124869224D01*
X126159508Y-124959453D01*
X126113053Y-125026570D01*
X126079394Y-125071876D01*
X126057709Y-125096670D01*
X126001315Y-125143811D01*
X125890622Y-125216965D01*
X125771638Y-125277470D01*
X125662164Y-125315478D01*
X125644554Y-125317005D01*
X125585729Y-125319059D01*
X125489196Y-125321057D01*
X125357625Y-125322980D01*
X125193686Y-125324809D01*
X125000052Y-125326527D01*
X124779393Y-125328113D01*
X124534379Y-125329549D01*
X124267683Y-125330818D01*
X123981974Y-125331899D01*
X123679923Y-125332775D01*
X123364203Y-125333427D01*
X123037482Y-125333835D01*
X123017172Y-125333852D01*
X122628354Y-125334193D01*
X122279541Y-125334457D01*
X121968515Y-125334562D01*
X121693057Y-125334422D01*
X121450948Y-125333953D01*
X121239971Y-125333069D01*
X121057906Y-125331685D01*
X120902535Y-125329718D01*
X120771641Y-125327082D01*
X120663003Y-125323693D01*
X120574404Y-125319465D01*
X120503625Y-125314315D01*
X120448449Y-125308156D01*
X120406655Y-125300905D01*
X120376026Y-125292476D01*
X120354343Y-125282786D01*
X120339388Y-125271748D01*
X120328943Y-125259278D01*
X120320788Y-125245292D01*
X120312706Y-125229705D01*
X120307961Y-125221157D01*
X120300494Y-125207866D01*
X120294302Y-125194522D01*
X120290222Y-125179683D01*
X120289090Y-125161910D01*
X120291740Y-125139763D01*
X120299010Y-125111800D01*
X120311735Y-125076581D01*
X120330751Y-125032667D01*
X120356893Y-124978616D01*
X120390998Y-124912989D01*
X120433902Y-124834346D01*
X120486440Y-124741245D01*
X120549449Y-124632246D01*
X120623764Y-124505910D01*
X120710222Y-124360796D01*
X120809657Y-124195463D01*
X120922907Y-124008472D01*
X121050806Y-123798382D01*
X121194191Y-123563752D01*
X121353898Y-123303142D01*
X121530762Y-123015112D01*
X121725621Y-122698222D01*
X121939308Y-122351032D01*
X122172661Y-121972100D01*
X122426515Y-121559987D01*
X122701706Y-121113252D01*
X122725445Y-121074715D01*
X122985908Y-120652153D01*
X123235736Y-120247322D01*
X123474165Y-119861447D01*
X123700431Y-119495754D01*
X123913769Y-119151467D01*
X124113414Y-118829812D01*
X124298603Y-118532013D01*
X124468571Y-118259295D01*
X124622554Y-118012884D01*
X124759787Y-117794005D01*
X124879506Y-117603882D01*
X124980947Y-117443740D01*
X125063345Y-117314806D01*
X125125935Y-117218302D01*
X125167955Y-117155456D01*
X125188638Y-117127491D01*
X125243317Y-117077913D01*
X125365354Y-116996262D01*
X125504473Y-116931036D01*
X125644551Y-116890614D01*
X125682182Y-116885397D01*
X125770951Y-116878606D01*
X125886924Y-116873776D01*
X126021413Y-116870886D01*
X126165732Y-116869916D01*
X126311192Y-116870845D01*
G37*
X127197520Y-141365001D02*
X126419645Y-141359449D01*
X125641770Y-141353896D01*
X125631187Y-139776980D01*
X125620604Y-138200063D01*
X124334729Y-138194607D01*
X123048854Y-138189152D01*
X123048854Y-136623146D01*
X124313562Y-136622822D01*
X124532674Y-136622510D01*
X124748904Y-136621677D01*
X124949192Y-136620374D01*
X125129767Y-136618653D01*
X125286859Y-136616564D01*
X125416698Y-136614156D01*
X125515514Y-136611482D01*
X125579537Y-136608590D01*
X125604997Y-136605532D01*
X125611014Y-136595886D01*
X125617015Y-136567181D01*
X125621583Y-136516674D01*
X125624812Y-136440945D01*
X125626792Y-136336573D01*
X125627617Y-136200138D01*
X125627376Y-136028220D01*
X125626164Y-135817398D01*
X125620604Y-135046230D01*
X124097766Y-135040797D01*
X123808649Y-135039629D01*
X123542293Y-135038214D01*
X123313658Y-135036564D01*
X123120374Y-135034631D01*
X122960072Y-135032364D01*
X122830383Y-135029717D01*
X122728938Y-135026639D01*
X122653368Y-135023082D01*
X122601304Y-135018996D01*
X122570376Y-135014334D01*
X122558215Y-135009047D01*
X122557528Y-135007357D01*
X122553726Y-134974153D01*
X122550396Y-134905554D01*
X122547557Y-134807493D01*
X122545226Y-134685906D01*
X122543420Y-134546727D01*
X122542157Y-134395890D01*
X122541454Y-134239329D01*
X122541330Y-134082979D01*
X122541800Y-133932774D01*
X122542884Y-133794648D01*
X122544599Y-133674536D01*
X122546962Y-133578373D01*
X122549990Y-133512092D01*
X122553702Y-133481627D01*
X122554454Y-133480158D01*
X122561078Y-133475039D01*
X122575459Y-133470490D01*
X122599900Y-133466478D01*
X122636707Y-133462971D01*
X122688186Y-133459934D01*
X122756641Y-133457336D01*
X122844378Y-133455143D01*
X122953702Y-133453321D01*
X123086917Y-133451837D01*
X123246330Y-133450659D01*
X123434245Y-133449753D01*
X123652967Y-133449086D01*
X123904803Y-133448625D01*
X124192055Y-133448337D01*
X124517031Y-133448188D01*
X124882035Y-133448146D01*
X127197520Y-133448146D01*
X127197520Y-141365001D01*
G36*
X127197520Y-141365001D02*
G01*
X126419645Y-141359449D01*
X125641770Y-141353896D01*
X125631187Y-139776980D01*
X125620604Y-138200063D01*
X124334729Y-138194607D01*
X123048854Y-138189152D01*
X123048854Y-136623146D01*
X124313562Y-136622822D01*
X124532674Y-136622510D01*
X124748904Y-136621677D01*
X124949192Y-136620374D01*
X125129767Y-136618653D01*
X125286859Y-136616564D01*
X125416698Y-136614156D01*
X125515514Y-136611482D01*
X125579537Y-136608590D01*
X125604997Y-136605532D01*
X125611014Y-136595886D01*
X125617015Y-136567181D01*
X125621583Y-136516674D01*
X125624812Y-136440945D01*
X125626792Y-136336573D01*
X125627617Y-136200138D01*
X125627376Y-136028220D01*
X125626164Y-135817398D01*
X125620604Y-135046230D01*
X124097766Y-135040797D01*
X123808649Y-135039629D01*
X123542293Y-135038214D01*
X123313658Y-135036564D01*
X123120374Y-135034631D01*
X122960072Y-135032364D01*
X122830383Y-135029717D01*
X122728938Y-135026639D01*
X122653368Y-135023082D01*
X122601304Y-135018996D01*
X122570376Y-135014334D01*
X122558215Y-135009047D01*
X122557528Y-135007357D01*
X122553726Y-134974153D01*
X122550396Y-134905554D01*
X122547557Y-134807493D01*
X122545226Y-134685906D01*
X122543420Y-134546727D01*
X122542157Y-134395890D01*
X122541454Y-134239329D01*
X122541330Y-134082979D01*
X122541800Y-133932774D01*
X122542884Y-133794648D01*
X122544599Y-133674536D01*
X122546962Y-133578373D01*
X122549990Y-133512092D01*
X122553702Y-133481627D01*
X122554454Y-133480158D01*
X122561078Y-133475039D01*
X122575459Y-133470490D01*
X122599900Y-133466478D01*
X122636707Y-133462971D01*
X122688186Y-133459934D01*
X122756641Y-133457336D01*
X122844378Y-133455143D01*
X122953702Y-133453321D01*
X123086917Y-133451837D01*
X123246330Y-133450659D01*
X123434245Y-133449753D01*
X123652967Y-133449086D01*
X123904803Y-133448625D01*
X124192055Y-133448337D01*
X124517031Y-133448188D01*
X124882035Y-133448146D01*
X127197520Y-133448146D01*
X127197520Y-141365001D01*
G37*
X121075062Y-133453177D02*
X121852937Y-133458730D01*
X121858368Y-137385146D01*
X121858789Y-137715019D01*
X121859198Y-138110827D01*
X121859490Y-138493694D01*
X121859667Y-138861519D01*
X121859732Y-139212203D01*
X121859687Y-139543647D01*
X121859535Y-139853752D01*
X121859278Y-140140418D01*
X121858919Y-140401545D01*
X121858459Y-140635036D01*
X121857902Y-140838789D01*
X121857250Y-141010705D01*
X121856505Y-141148686D01*
X121855671Y-141250632D01*
X121854748Y-141314444D01*
X121853740Y-141338021D01*
X121844453Y-141342230D01*
X121818263Y-141346044D01*
X121773235Y-141349428D01*
X121707410Y-141352403D01*
X121618831Y-141354992D01*
X121505539Y-141357215D01*
X121365577Y-141359095D01*
X121196987Y-141360655D01*
X120997811Y-141361914D01*
X120766091Y-141362896D01*
X120499869Y-141363621D01*
X120197188Y-141364113D01*
X119856090Y-141364391D01*
X119474616Y-141364480D01*
X119300151Y-141364471D01*
X118949371Y-141364387D01*
X118637600Y-141364184D01*
X118362561Y-141363831D01*
X118121973Y-141363296D01*
X117913559Y-141362547D01*
X117735040Y-141361551D01*
X117584136Y-141360277D01*
X117458569Y-141358692D01*
X117356060Y-141356765D01*
X117274331Y-141354464D01*
X117211101Y-141351756D01*
X117164094Y-141348610D01*
X117131029Y-141344993D01*
X117109627Y-141340873D01*
X117097611Y-141336219D01*
X117092702Y-141330998D01*
X117092582Y-141330662D01*
X117089269Y-141299847D01*
X117086467Y-141232936D01*
X117084176Y-141135962D01*
X117082395Y-141014958D01*
X117081126Y-140875956D01*
X117080368Y-140724989D01*
X117080121Y-140568091D01*
X117080385Y-140411293D01*
X117081160Y-140260629D01*
X117082447Y-140122132D01*
X117084244Y-140001833D01*
X117086552Y-139905767D01*
X117089371Y-139839965D01*
X117092702Y-139810461D01*
X117093905Y-139808191D01*
X117101819Y-139802156D01*
X117118478Y-139796944D01*
X117146683Y-139792495D01*
X117189231Y-139788749D01*
X117248921Y-139785649D01*
X117328554Y-139783135D01*
X117430927Y-139781148D01*
X117558839Y-139779628D01*
X117715090Y-139778517D01*
X117902478Y-139777756D01*
X118123803Y-139777285D01*
X118381863Y-139777046D01*
X118679457Y-139776980D01*
X118848085Y-139776973D01*
X119121507Y-139776898D01*
X119357057Y-139776680D01*
X119557609Y-139776245D01*
X119726034Y-139775518D01*
X119865205Y-139774427D01*
X119977995Y-139772898D01*
X120067276Y-139770856D01*
X120135920Y-139768229D01*
X120186800Y-139764942D01*
X120222788Y-139760922D01*
X120246758Y-139756096D01*
X120261580Y-139750388D01*
X120270129Y-139743727D01*
X120275276Y-139736038D01*
X120276758Y-139729774D01*
X120280061Y-139687243D01*
X120283067Y-139605552D01*
X120285776Y-139484412D01*
X120288193Y-139323534D01*
X120290317Y-139122630D01*
X120292152Y-138881412D01*
X120293699Y-138599592D01*
X120294960Y-138276880D01*
X120295937Y-137912990D01*
X120296633Y-137507632D01*
X120297049Y-137060518D01*
X120297187Y-136571360D01*
X120297187Y-133447625D01*
X121075062Y-133453177D01*
G36*
X121075062Y-133453177D02*
G01*
X121852937Y-133458730D01*
X121858368Y-137385146D01*
X121858789Y-137715019D01*
X121859198Y-138110827D01*
X121859490Y-138493694D01*
X121859667Y-138861519D01*
X121859732Y-139212203D01*
X121859687Y-139543647D01*
X121859535Y-139853752D01*
X121859278Y-140140418D01*
X121858919Y-140401545D01*
X121858459Y-140635036D01*
X121857902Y-140838789D01*
X121857250Y-141010705D01*
X121856505Y-141148686D01*
X121855671Y-141250632D01*
X121854748Y-141314444D01*
X121853740Y-141338021D01*
X121844453Y-141342230D01*
X121818263Y-141346044D01*
X121773235Y-141349428D01*
X121707410Y-141352403D01*
X121618831Y-141354992D01*
X121505539Y-141357215D01*
X121365577Y-141359095D01*
X121196987Y-141360655D01*
X120997811Y-141361914D01*
X120766091Y-141362896D01*
X120499869Y-141363621D01*
X120197188Y-141364113D01*
X119856090Y-141364391D01*
X119474616Y-141364480D01*
X119300151Y-141364471D01*
X118949371Y-141364387D01*
X118637600Y-141364184D01*
X118362561Y-141363831D01*
X118121973Y-141363296D01*
X117913559Y-141362547D01*
X117735040Y-141361551D01*
X117584136Y-141360277D01*
X117458569Y-141358692D01*
X117356060Y-141356765D01*
X117274331Y-141354464D01*
X117211101Y-141351756D01*
X117164094Y-141348610D01*
X117131029Y-141344993D01*
X117109627Y-141340873D01*
X117097611Y-141336219D01*
X117092702Y-141330998D01*
X117092582Y-141330662D01*
X117089269Y-141299847D01*
X117086467Y-141232936D01*
X117084176Y-141135962D01*
X117082395Y-141014958D01*
X117081126Y-140875956D01*
X117080368Y-140724989D01*
X117080121Y-140568091D01*
X117080385Y-140411293D01*
X117081160Y-140260629D01*
X117082447Y-140122132D01*
X117084244Y-140001833D01*
X117086552Y-139905767D01*
X117089371Y-139839965D01*
X117092702Y-139810461D01*
X117093905Y-139808191D01*
X117101819Y-139802156D01*
X117118478Y-139796944D01*
X117146683Y-139792495D01*
X117189231Y-139788749D01*
X117248921Y-139785649D01*
X117328554Y-139783135D01*
X117430927Y-139781148D01*
X117558839Y-139779628D01*
X117715090Y-139778517D01*
X117902478Y-139777756D01*
X118123803Y-139777285D01*
X118381863Y-139777046D01*
X118679457Y-139776980D01*
X118848085Y-139776973D01*
X119121507Y-139776898D01*
X119357057Y-139776680D01*
X119557609Y-139776245D01*
X119726034Y-139775518D01*
X119865205Y-139774427D01*
X119977995Y-139772898D01*
X120067276Y-139770856D01*
X120135920Y-139768229D01*
X120186800Y-139764942D01*
X120222788Y-139760922D01*
X120246758Y-139756096D01*
X120261580Y-139750388D01*
X120270129Y-139743727D01*
X120275276Y-139736038D01*
X120276758Y-139729774D01*
X120280061Y-139687243D01*
X120283067Y-139605552D01*
X120285776Y-139484412D01*
X120288193Y-139323534D01*
X120290317Y-139122630D01*
X120292152Y-138881412D01*
X120293699Y-138599592D01*
X120294960Y-138276880D01*
X120295937Y-137912990D01*
X120296633Y-137507632D01*
X120297049Y-137060518D01*
X120297187Y-136571360D01*
X120297187Y-133447625D01*
X121075062Y-133453177D01*
G37*
X116413104Y-133458730D02*
X116418452Y-137382910D01*
X116418540Y-137448455D01*
X116419143Y-137958792D01*
X116419536Y-138428092D01*
X116419713Y-138857510D01*
X116419671Y-139248199D01*
X116419402Y-139601314D01*
X116418901Y-139918009D01*
X116418164Y-140199438D01*
X116417185Y-140446756D01*
X116415958Y-140661116D01*
X116414478Y-140843673D01*
X116412740Y-140995581D01*
X116410738Y-141117994D01*
X116408467Y-141212067D01*
X116405921Y-141278954D01*
X116403096Y-141319808D01*
X116399985Y-141335785D01*
X116395573Y-141338632D01*
X116378572Y-141342957D01*
X116347612Y-141346792D01*
X116300509Y-141350165D01*
X116235081Y-141353102D01*
X116149146Y-141355630D01*
X116040520Y-141357777D01*
X115907021Y-141359569D01*
X115746468Y-141361035D01*
X115556676Y-141362201D01*
X115335464Y-141363093D01*
X115080650Y-141363740D01*
X114790049Y-141364169D01*
X114461481Y-141364406D01*
X114092762Y-141364480D01*
X111809354Y-141364480D01*
X111809354Y-139776980D01*
X113281829Y-139776980D01*
X113381986Y-139776953D01*
X113702750Y-139776443D01*
X113982803Y-139775291D01*
X114221914Y-139773500D01*
X114419851Y-139771072D01*
X114576384Y-139768012D01*
X114691281Y-139764322D01*
X114764312Y-139760007D01*
X114795245Y-139755068D01*
X114803963Y-139749497D01*
X114813183Y-139738574D01*
X114820456Y-139719433D01*
X114826011Y-139687808D01*
X114830080Y-139639436D01*
X114832893Y-139570052D01*
X114834680Y-139475392D01*
X114835671Y-139351192D01*
X114836096Y-139193187D01*
X114836187Y-138997114D01*
X114836171Y-138949981D01*
X114835608Y-138747708D01*
X114834161Y-138583808D01*
X114831717Y-138455007D01*
X114828164Y-138358030D01*
X114823390Y-138289603D01*
X114817282Y-138246453D01*
X114809729Y-138225305D01*
X114801852Y-138217969D01*
X114787220Y-138211429D01*
X114762817Y-138205906D01*
X114725385Y-138201293D01*
X114671669Y-138197482D01*
X114598413Y-138194365D01*
X114502361Y-138191834D01*
X114380256Y-138189783D01*
X114228842Y-138188104D01*
X114044863Y-138186688D01*
X113825064Y-138185428D01*
X113566187Y-138184218D01*
X112349104Y-138178896D01*
X112343551Y-137401021D01*
X112337999Y-136623146D01*
X113553831Y-136623146D01*
X113691295Y-136623122D01*
X113931127Y-136622901D01*
X114133504Y-136622378D01*
X114301660Y-136621468D01*
X114438827Y-136620083D01*
X114548240Y-136618138D01*
X114633132Y-136615547D01*
X114696735Y-136612223D01*
X114742282Y-136608082D01*
X114773008Y-136603035D01*
X114792144Y-136596998D01*
X114802925Y-136589884D01*
X114809874Y-136580531D01*
X114817528Y-136560211D01*
X114823571Y-136527003D01*
X114828185Y-136476698D01*
X114831551Y-136405093D01*
X114833853Y-136307980D01*
X114835271Y-136181153D01*
X114835988Y-136020407D01*
X114836187Y-135821534D01*
X114835768Y-135609827D01*
X114834441Y-135436744D01*
X114832109Y-135300185D01*
X114828675Y-135197242D01*
X114824041Y-135125008D01*
X114818111Y-135080579D01*
X114810787Y-135061046D01*
X114806917Y-135058846D01*
X114782983Y-135053933D01*
X114736761Y-135049696D01*
X114666024Y-135046098D01*
X114568545Y-135043101D01*
X114442097Y-135040667D01*
X114284453Y-135038760D01*
X114093385Y-135037342D01*
X113866667Y-135036375D01*
X113602071Y-135035822D01*
X113297370Y-135035646D01*
X111809354Y-135035646D01*
X111809354Y-133447958D01*
X116413104Y-133458730D01*
G36*
X116413104Y-133458730D02*
G01*
X116418452Y-137382910D01*
X116418540Y-137448455D01*
X116419143Y-137958792D01*
X116419536Y-138428092D01*
X116419713Y-138857510D01*
X116419671Y-139248199D01*
X116419402Y-139601314D01*
X116418901Y-139918009D01*
X116418164Y-140199438D01*
X116417185Y-140446756D01*
X116415958Y-140661116D01*
X116414478Y-140843673D01*
X116412740Y-140995581D01*
X116410738Y-141117994D01*
X116408467Y-141212067D01*
X116405921Y-141278954D01*
X116403096Y-141319808D01*
X116399985Y-141335785D01*
X116395573Y-141338632D01*
X116378572Y-141342957D01*
X116347612Y-141346792D01*
X116300509Y-141350165D01*
X116235081Y-141353102D01*
X116149146Y-141355630D01*
X116040520Y-141357777D01*
X115907021Y-141359569D01*
X115746468Y-141361035D01*
X115556676Y-141362201D01*
X115335464Y-141363093D01*
X115080650Y-141363740D01*
X114790049Y-141364169D01*
X114461481Y-141364406D01*
X114092762Y-141364480D01*
X111809354Y-141364480D01*
X111809354Y-139776980D01*
X113281829Y-139776980D01*
X113381986Y-139776953D01*
X113702750Y-139776443D01*
X113982803Y-139775291D01*
X114221914Y-139773500D01*
X114419851Y-139771072D01*
X114576384Y-139768012D01*
X114691281Y-139764322D01*
X114764312Y-139760007D01*
X114795245Y-139755068D01*
X114803963Y-139749497D01*
X114813183Y-139738574D01*
X114820456Y-139719433D01*
X114826011Y-139687808D01*
X114830080Y-139639436D01*
X114832893Y-139570052D01*
X114834680Y-139475392D01*
X114835671Y-139351192D01*
X114836096Y-139193187D01*
X114836187Y-138997114D01*
X114836171Y-138949981D01*
X114835608Y-138747708D01*
X114834161Y-138583808D01*
X114831717Y-138455007D01*
X114828164Y-138358030D01*
X114823390Y-138289603D01*
X114817282Y-138246453D01*
X114809729Y-138225305D01*
X114801852Y-138217969D01*
X114787220Y-138211429D01*
X114762817Y-138205906D01*
X114725385Y-138201293D01*
X114671669Y-138197482D01*
X114598413Y-138194365D01*
X114502361Y-138191834D01*
X114380256Y-138189783D01*
X114228842Y-138188104D01*
X114044863Y-138186688D01*
X113825064Y-138185428D01*
X113566187Y-138184218D01*
X112349104Y-138178896D01*
X112343551Y-137401021D01*
X112337999Y-136623146D01*
X113553831Y-136623146D01*
X113691295Y-136623122D01*
X113931127Y-136622901D01*
X114133504Y-136622378D01*
X114301660Y-136621468D01*
X114438827Y-136620083D01*
X114548240Y-136618138D01*
X114633132Y-136615547D01*
X114696735Y-136612223D01*
X114742282Y-136608082D01*
X114773008Y-136603035D01*
X114792144Y-136596998D01*
X114802925Y-136589884D01*
X114809874Y-136580531D01*
X114817528Y-136560211D01*
X114823571Y-136527003D01*
X114828185Y-136476698D01*
X114831551Y-136405093D01*
X114833853Y-136307980D01*
X114835271Y-136181153D01*
X114835988Y-136020407D01*
X114836187Y-135821534D01*
X114835768Y-135609827D01*
X114834441Y-135436744D01*
X114832109Y-135300185D01*
X114828675Y-135197242D01*
X114824041Y-135125008D01*
X114818111Y-135080579D01*
X114810787Y-135061046D01*
X114806917Y-135058846D01*
X114782983Y-135053933D01*
X114736761Y-135049696D01*
X114666024Y-135046098D01*
X114568545Y-135043101D01*
X114442097Y-135040667D01*
X114284453Y-135038760D01*
X114093385Y-135037342D01*
X113866667Y-135036375D01*
X113602071Y-135035822D01*
X113297370Y-135035646D01*
X111809354Y-135035646D01*
X111809354Y-133447958D01*
X116413104Y-133458730D01*
G37*
X132489187Y-137392202D02*
X132489133Y-137739163D01*
X132488935Y-138135097D01*
X132488599Y-138517900D01*
X132488132Y-138885487D01*
X132487543Y-139235771D01*
X132486838Y-139566667D01*
X132486026Y-139876089D01*
X132485112Y-140161951D01*
X132484106Y-140422166D01*
X132483014Y-140654650D01*
X132481843Y-140857315D01*
X132480602Y-141028077D01*
X132479297Y-141164849D01*
X132477936Y-141265546D01*
X132476527Y-141328081D01*
X132475076Y-141350368D01*
X132475014Y-141350417D01*
X132451343Y-141352319D01*
X132388166Y-141354146D01*
X132288244Y-141355879D01*
X132154334Y-141357502D01*
X131989196Y-141358998D01*
X131795589Y-141360350D01*
X131576271Y-141361541D01*
X131334002Y-141362553D01*
X131071540Y-141363371D01*
X130791645Y-141363975D01*
X130497074Y-141364351D01*
X130190588Y-141364480D01*
X129841684Y-141364437D01*
X129518372Y-141364281D01*
X129232793Y-141363978D01*
X128982600Y-141363493D01*
X128765450Y-141362793D01*
X128578997Y-141361845D01*
X128420897Y-141360613D01*
X128288804Y-141359065D01*
X128180374Y-141357167D01*
X128093262Y-141354884D01*
X128025123Y-141352182D01*
X127973611Y-141349029D01*
X127936383Y-141345390D01*
X127911093Y-141341231D01*
X127895397Y-141336518D01*
X127886949Y-141331218D01*
X127880000Y-141321865D01*
X127872346Y-141301545D01*
X127866303Y-141268336D01*
X127861690Y-141218032D01*
X127858323Y-141146426D01*
X127856022Y-141049313D01*
X127854603Y-140922486D01*
X127853886Y-140761740D01*
X127853687Y-140562868D01*
X127854106Y-140351160D01*
X127855433Y-140178078D01*
X127857765Y-140041518D01*
X127861200Y-139938575D01*
X127865833Y-139866342D01*
X127871764Y-139821912D01*
X127879087Y-139802380D01*
X127881547Y-139800775D01*
X127903156Y-139795735D01*
X127946874Y-139791388D01*
X128014946Y-139787697D01*
X128109620Y-139784622D01*
X128233143Y-139782127D01*
X128387763Y-139780171D01*
X128575725Y-139778717D01*
X128799279Y-139777726D01*
X129060670Y-139777160D01*
X129362145Y-139776980D01*
X129448381Y-139776959D01*
X129768780Y-139776470D01*
X130048569Y-139775332D01*
X130287503Y-139773548D01*
X130485335Y-139771122D01*
X130641822Y-139768057D01*
X130756716Y-139764358D01*
X130829772Y-139760027D01*
X130860745Y-139755068D01*
X130870150Y-139748925D01*
X130879175Y-139737624D01*
X130886293Y-139717852D01*
X130891731Y-139685377D01*
X130895713Y-139635966D01*
X130898465Y-139565386D01*
X130900213Y-139469404D01*
X130901182Y-139343787D01*
X130901599Y-139184303D01*
X130901687Y-138986718D01*
X130901686Y-138972650D01*
X130901221Y-138761092D01*
X130899861Y-138588792D01*
X130897510Y-138452856D01*
X130894072Y-138350391D01*
X130889452Y-138278502D01*
X130883556Y-138234296D01*
X130876287Y-138214880D01*
X130872888Y-138212771D01*
X130848980Y-138207358D01*
X130802100Y-138202766D01*
X130729828Y-138198945D01*
X130629745Y-138195848D01*
X130499430Y-138193424D01*
X130336463Y-138191624D01*
X130138425Y-138190400D01*
X129902895Y-138189701D01*
X129627454Y-138189480D01*
X128404020Y-138189480D01*
X128404020Y-136623146D01*
X129598559Y-136623146D01*
X129613957Y-136623145D01*
X129871320Y-136622735D01*
X130104342Y-136621621D01*
X130310453Y-136619843D01*
X130487083Y-136617446D01*
X130631662Y-136614471D01*
X130741620Y-136610960D01*
X130814387Y-136606957D01*
X130847393Y-136602503D01*
X130901687Y-136581861D01*
X130901687Y-135834153D01*
X130901685Y-135818429D01*
X130901216Y-135606977D01*
X130899852Y-135434763D01*
X130897499Y-135298895D01*
X130894060Y-135196482D01*
X130889442Y-135124631D01*
X130883550Y-135080450D01*
X130876287Y-135061046D01*
X130873732Y-135059397D01*
X130851951Y-135054366D01*
X130808049Y-135050028D01*
X130739780Y-135046343D01*
X130644899Y-135043275D01*
X130521159Y-135040784D01*
X130366317Y-135038832D01*
X130178124Y-135037381D01*
X129954337Y-135036391D01*
X129692710Y-135035826D01*
X129390996Y-135035646D01*
X129388112Y-135035646D01*
X129102755Y-135035577D01*
X128856721Y-135035327D01*
X128647025Y-135034824D01*
X128470684Y-135034000D01*
X128324716Y-135032785D01*
X128206137Y-135031109D01*
X128111964Y-135028903D01*
X128039214Y-135026096D01*
X127984904Y-135022619D01*
X127946050Y-135018402D01*
X127919669Y-135013376D01*
X127902779Y-135007470D01*
X127892396Y-135000616D01*
X127887367Y-134995645D01*
X127877968Y-134981856D01*
X127870493Y-134960429D01*
X127864723Y-134927026D01*
X127860441Y-134877311D01*
X127857427Y-134806947D01*
X127855463Y-134711597D01*
X127854331Y-134586925D01*
X127853812Y-134428593D01*
X127853687Y-134232266D01*
X127854099Y-134022733D01*
X127855421Y-133849527D01*
X127857750Y-133712869D01*
X127861183Y-133609850D01*
X127865819Y-133537562D01*
X127871755Y-133493097D01*
X127879087Y-133473546D01*
X127879636Y-133473095D01*
X127895522Y-133468923D01*
X127931748Y-133465199D01*
X127990147Y-133461905D01*
X128072551Y-133459019D01*
X128180793Y-133456523D01*
X128316707Y-133454396D01*
X128482124Y-133452617D01*
X128678877Y-133451167D01*
X128908800Y-133450026D01*
X129173725Y-133449174D01*
X129475484Y-133448589D01*
X129815911Y-133448254D01*
X130196837Y-133448146D01*
X132489187Y-133448146D01*
X132489187Y-137392202D01*
G36*
X132489187Y-137392202D02*
G01*
X132489133Y-137739163D01*
X132488935Y-138135097D01*
X132488599Y-138517900D01*
X132488132Y-138885487D01*
X132487543Y-139235771D01*
X132486838Y-139566667D01*
X132486026Y-139876089D01*
X132485112Y-140161951D01*
X132484106Y-140422166D01*
X132483014Y-140654650D01*
X132481843Y-140857315D01*
X132480602Y-141028077D01*
X132479297Y-141164849D01*
X132477936Y-141265546D01*
X132476527Y-141328081D01*
X132475076Y-141350368D01*
X132475014Y-141350417D01*
X132451343Y-141352319D01*
X132388166Y-141354146D01*
X132288244Y-141355879D01*
X132154334Y-141357502D01*
X131989196Y-141358998D01*
X131795589Y-141360350D01*
X131576271Y-141361541D01*
X131334002Y-141362553D01*
X131071540Y-141363371D01*
X130791645Y-141363975D01*
X130497074Y-141364351D01*
X130190588Y-141364480D01*
X129841684Y-141364437D01*
X129518372Y-141364281D01*
X129232793Y-141363978D01*
X128982600Y-141363493D01*
X128765450Y-141362793D01*
X128578997Y-141361845D01*
X128420897Y-141360613D01*
X128288804Y-141359065D01*
X128180374Y-141357167D01*
X128093262Y-141354884D01*
X128025123Y-141352182D01*
X127973611Y-141349029D01*
X127936383Y-141345390D01*
X127911093Y-141341231D01*
X127895397Y-141336518D01*
X127886949Y-141331218D01*
X127880000Y-141321865D01*
X127872346Y-141301545D01*
X127866303Y-141268336D01*
X127861690Y-141218032D01*
X127858323Y-141146426D01*
X127856022Y-141049313D01*
X127854603Y-140922486D01*
X127853886Y-140761740D01*
X127853687Y-140562868D01*
X127854106Y-140351160D01*
X127855433Y-140178078D01*
X127857765Y-140041518D01*
X127861200Y-139938575D01*
X127865833Y-139866342D01*
X127871764Y-139821912D01*
X127879087Y-139802380D01*
X127881547Y-139800775D01*
X127903156Y-139795735D01*
X127946874Y-139791388D01*
X128014946Y-139787697D01*
X128109620Y-139784622D01*
X128233143Y-139782127D01*
X128387763Y-139780171D01*
X128575725Y-139778717D01*
X128799279Y-139777726D01*
X129060670Y-139777160D01*
X129362145Y-139776980D01*
X129448381Y-139776959D01*
X129768780Y-139776470D01*
X130048569Y-139775332D01*
X130287503Y-139773548D01*
X130485335Y-139771122D01*
X130641822Y-139768057D01*
X130756716Y-139764358D01*
X130829772Y-139760027D01*
X130860745Y-139755068D01*
X130870150Y-139748925D01*
X130879175Y-139737624D01*
X130886293Y-139717852D01*
X130891731Y-139685377D01*
X130895713Y-139635966D01*
X130898465Y-139565386D01*
X130900213Y-139469404D01*
X130901182Y-139343787D01*
X130901599Y-139184303D01*
X130901687Y-138986718D01*
X130901686Y-138972650D01*
X130901221Y-138761092D01*
X130899861Y-138588792D01*
X130897510Y-138452856D01*
X130894072Y-138350391D01*
X130889452Y-138278502D01*
X130883556Y-138234296D01*
X130876287Y-138214880D01*
X130872888Y-138212771D01*
X130848980Y-138207358D01*
X130802100Y-138202766D01*
X130729828Y-138198945D01*
X130629745Y-138195848D01*
X130499430Y-138193424D01*
X130336463Y-138191624D01*
X130138425Y-138190400D01*
X129902895Y-138189701D01*
X129627454Y-138189480D01*
X128404020Y-138189480D01*
X128404020Y-136623146D01*
X129598559Y-136623146D01*
X129613957Y-136623145D01*
X129871320Y-136622735D01*
X130104342Y-136621621D01*
X130310453Y-136619843D01*
X130487083Y-136617446D01*
X130631662Y-136614471D01*
X130741620Y-136610960D01*
X130814387Y-136606957D01*
X130847393Y-136602503D01*
X130901687Y-136581861D01*
X130901687Y-135834153D01*
X130901685Y-135818429D01*
X130901216Y-135606977D01*
X130899852Y-135434763D01*
X130897499Y-135298895D01*
X130894060Y-135196482D01*
X130889442Y-135124631D01*
X130883550Y-135080450D01*
X130876287Y-135061046D01*
X130873732Y-135059397D01*
X130851951Y-135054366D01*
X130808049Y-135050028D01*
X130739780Y-135046343D01*
X130644899Y-135043275D01*
X130521159Y-135040784D01*
X130366317Y-135038832D01*
X130178124Y-135037381D01*
X129954337Y-135036391D01*
X129692710Y-135035826D01*
X129390996Y-135035646D01*
X129388112Y-135035646D01*
X129102755Y-135035577D01*
X128856721Y-135035327D01*
X128647025Y-135034824D01*
X128470684Y-135034000D01*
X128324716Y-135032785D01*
X128206137Y-135031109D01*
X128111964Y-135028903D01*
X128039214Y-135026096D01*
X127984904Y-135022619D01*
X127946050Y-135018402D01*
X127919669Y-135013376D01*
X127902779Y-135007470D01*
X127892396Y-135000616D01*
X127887367Y-134995645D01*
X127877968Y-134981856D01*
X127870493Y-134960429D01*
X127864723Y-134927026D01*
X127860441Y-134877311D01*
X127857427Y-134806947D01*
X127855463Y-134711597D01*
X127854331Y-134586925D01*
X127853812Y-134428593D01*
X127853687Y-134232266D01*
X127854099Y-134022733D01*
X127855421Y-133849527D01*
X127857750Y-133712869D01*
X127861183Y-133609850D01*
X127865819Y-133537562D01*
X127871755Y-133493097D01*
X127879087Y-133473546D01*
X127879636Y-133473095D01*
X127895522Y-133468923D01*
X127931748Y-133465199D01*
X127990147Y-133461905D01*
X128072551Y-133459019D01*
X128180793Y-133456523D01*
X128316707Y-133454396D01*
X128482124Y-133452617D01*
X128678877Y-133451167D01*
X128908800Y-133450026D01*
X129173725Y-133449174D01*
X129475484Y-133448589D01*
X129815911Y-133448254D01*
X130196837Y-133448146D01*
X132489187Y-133448146D01*
X132489187Y-137392202D01*
G37*
X139368354Y-133489253D02*
X139364631Y-133515015D01*
X139349258Y-133532813D01*
X139329527Y-133549462D01*
X139307807Y-133591021D01*
X139292671Y-133625554D01*
X139258171Y-133694064D01*
X139214846Y-133773835D01*
X139169619Y-133852575D01*
X139129415Y-133917997D01*
X139101155Y-133957813D01*
X139085252Y-133981622D01*
X139072020Y-134025355D01*
X139069601Y-134042207D01*
X139049548Y-134073370D01*
X139031895Y-134091005D01*
X139006861Y-134132827D01*
X138998923Y-134149536D01*
X138969838Y-134204934D01*
X138934083Y-134268355D01*
X138914224Y-134302381D01*
X138850321Y-134412692D01*
X138801669Y-134498450D01*
X138763056Y-134568949D01*
X138729267Y-134633480D01*
X138711458Y-134667188D01*
X138683426Y-134715784D01*
X138666259Y-134739525D01*
X138655734Y-134753323D01*
X138630204Y-134796694D01*
X138598427Y-134857067D01*
X138589149Y-134876349D01*
X138574882Y-134908235D01*
X138561756Y-134935501D01*
X138546667Y-134958520D01*
X138526510Y-134977666D01*
X138498179Y-134993314D01*
X138458570Y-135005835D01*
X138404577Y-135015605D01*
X138333096Y-135022997D01*
X138241021Y-135028385D01*
X138125247Y-135032142D01*
X137982670Y-135034642D01*
X137810184Y-135036259D01*
X137604684Y-135037367D01*
X137363065Y-135038339D01*
X137082223Y-135039548D01*
X135695937Y-135046230D01*
X135547770Y-135120139D01*
X135534707Y-135126703D01*
X135461638Y-135165173D01*
X135403576Y-135198542D01*
X135372105Y-135220209D01*
X135351758Y-135238258D01*
X135307369Y-135273300D01*
X135290267Y-135287912D01*
X135242141Y-135340862D01*
X135185857Y-135413154D01*
X135130029Y-135492785D01*
X135083272Y-135567750D01*
X135054202Y-135626046D01*
X135006499Y-135804767D01*
X134993896Y-135990865D01*
X135015779Y-136174527D01*
X135070576Y-136348467D01*
X135156714Y-136505401D01*
X135272622Y-136638045D01*
X135334025Y-136693283D01*
X135386607Y-136738367D01*
X135427556Y-136768944D01*
X135467383Y-136792747D01*
X135516599Y-136817507D01*
X135531274Y-136824550D01*
X135584915Y-136848560D01*
X135638004Y-136868164D01*
X135695308Y-136883805D01*
X135761590Y-136895924D01*
X135841615Y-136904965D01*
X135940149Y-136911370D01*
X136061954Y-136915582D01*
X136211797Y-136918042D01*
X136394442Y-136919194D01*
X136614653Y-136919480D01*
X136619464Y-136919480D01*
X136824106Y-136919669D01*
X136990328Y-136920325D01*
X137121959Y-136921602D01*
X137222831Y-136923652D01*
X137296773Y-136926628D01*
X137347616Y-136930683D01*
X137379191Y-136935971D01*
X137395326Y-136942645D01*
X137399854Y-136950857D01*
X137390081Y-136980762D01*
X137361696Y-137039209D01*
X137319108Y-137117395D01*
X137266753Y-137207195D01*
X137209067Y-137300480D01*
X137185703Y-137341424D01*
X137157723Y-137395730D01*
X137141750Y-137426687D01*
X137104710Y-137493854D01*
X137063356Y-137565063D01*
X137040153Y-137604612D01*
X136991918Y-137690185D01*
X136951261Y-137766146D01*
X136934219Y-137798141D01*
X136900897Y-137854646D01*
X136875979Y-137889366D01*
X136862556Y-137906187D01*
X136849520Y-137936241D01*
X136847885Y-137942422D01*
X136830232Y-137979382D01*
X136797313Y-138039084D01*
X136754270Y-138112034D01*
X136737039Y-138140809D01*
X136697151Y-138210899D01*
X136669417Y-138264807D01*
X136659020Y-138292702D01*
X136658233Y-138299939D01*
X136642494Y-138316480D01*
X136623782Y-138333352D01*
X136601455Y-138374688D01*
X136587218Y-138404912D01*
X136552925Y-138469230D01*
X136512508Y-138538730D01*
X136485114Y-138584253D01*
X136449191Y-138645578D01*
X136426193Y-138686896D01*
X136419488Y-138699598D01*
X136390608Y-138752265D01*
X136355825Y-138813896D01*
X136327169Y-138864358D01*
X136282080Y-138944582D01*
X136236960Y-139025563D01*
X136199795Y-139091672D01*
X136168596Y-139145402D01*
X136150894Y-139173730D01*
X136148640Y-139177021D01*
X136128027Y-139211575D01*
X136094812Y-139270469D01*
X136055016Y-139343063D01*
X136039927Y-139370932D01*
X135988752Y-139465087D01*
X135951550Y-139532568D01*
X135923477Y-139581935D01*
X135899689Y-139621746D01*
X135875341Y-139660563D01*
X135838506Y-139722321D01*
X135803415Y-139787563D01*
X135787322Y-139818498D01*
X135750115Y-139885673D01*
X135708689Y-139956896D01*
X135685487Y-139996446D01*
X135637251Y-140082018D01*
X135596594Y-140157980D01*
X135579552Y-140189975D01*
X135546230Y-140246479D01*
X135521312Y-140281200D01*
X135507889Y-140298021D01*
X135494854Y-140328074D01*
X135493473Y-140333597D01*
X135476447Y-140369754D01*
X135444094Y-140428822D01*
X135401596Y-140501187D01*
X135321172Y-140635748D01*
X135246168Y-140764619D01*
X135185684Y-140872368D01*
X135143874Y-140951730D01*
X135127729Y-140982728D01*
X135090451Y-141049879D01*
X135048919Y-141121063D01*
X135022640Y-141165665D01*
X134985198Y-141231853D01*
X134959928Y-141279813D01*
X134937275Y-141320373D01*
X134907726Y-141360700D01*
X134894135Y-141377636D01*
X134881020Y-141407952D01*
X134870896Y-141433400D01*
X134842558Y-141487525D01*
X134800259Y-141562613D01*
X134748253Y-141651115D01*
X134690796Y-141745480D01*
X134678994Y-141765897D01*
X134650483Y-141818361D01*
X134616562Y-141883063D01*
X134595516Y-141922952D01*
X134554951Y-141995981D01*
X134521187Y-142052396D01*
X134503917Y-142080493D01*
X134464791Y-142148733D01*
X134425464Y-142221730D01*
X134404236Y-142261727D01*
X134363520Y-142334698D01*
X134329693Y-142391063D01*
X134327095Y-142395117D01*
X134295348Y-142447214D01*
X134274092Y-142486313D01*
X134251552Y-142529593D01*
X134212723Y-142596220D01*
X134168700Y-142666874D01*
X134128049Y-142727868D01*
X134099339Y-142765513D01*
X134095659Y-142767725D01*
X134088116Y-142769871D01*
X134075842Y-142771924D01*
X134057942Y-142773886D01*
X134033521Y-142775761D01*
X134001682Y-142777549D01*
X133961532Y-142779253D01*
X133912174Y-142780875D01*
X133852713Y-142782417D01*
X133782253Y-142783882D01*
X133699901Y-142785270D01*
X133604760Y-142786586D01*
X133495935Y-142787830D01*
X133372531Y-142789005D01*
X133233652Y-142790112D01*
X133078403Y-142791155D01*
X132905889Y-142792134D01*
X132715215Y-142793053D01*
X132505485Y-142793914D01*
X132275804Y-142794717D01*
X132025277Y-142795467D01*
X131753008Y-142796164D01*
X131458102Y-142796810D01*
X131139664Y-142797409D01*
X130796799Y-142797962D01*
X130428610Y-142798471D01*
X130034204Y-142798938D01*
X129612684Y-142799366D01*
X129163156Y-142799756D01*
X128684724Y-142800111D01*
X128176493Y-142800433D01*
X127637567Y-142800723D01*
X127067051Y-142800985D01*
X126464050Y-142801220D01*
X125827669Y-142801430D01*
X125157012Y-142801617D01*
X124451184Y-142801784D01*
X123709289Y-142801932D01*
X122930434Y-142802064D01*
X122113721Y-142802182D01*
X121258256Y-142802288D01*
X120363144Y-142802384D01*
X119427489Y-142802472D01*
X118450395Y-142802555D01*
X117839810Y-142802602D01*
X116883211Y-142802664D01*
X115967530Y-142802708D01*
X115091891Y-142802732D01*
X114255417Y-142802735D01*
X113457233Y-142802714D01*
X112696463Y-142802668D01*
X111972230Y-142802595D01*
X111283660Y-142802494D01*
X110629877Y-142802362D01*
X110010003Y-142802198D01*
X109423164Y-142802000D01*
X108868484Y-142801767D01*
X108345087Y-142801497D01*
X107852096Y-142801188D01*
X107388637Y-142800838D01*
X106953832Y-142800446D01*
X106546807Y-142800010D01*
X106166685Y-142799528D01*
X105812590Y-142798998D01*
X105483648Y-142798419D01*
X105178980Y-142797789D01*
X104897713Y-142797106D01*
X104638970Y-142796369D01*
X104401875Y-142795576D01*
X104185552Y-142794725D01*
X103989125Y-142793814D01*
X103811719Y-142792842D01*
X103652457Y-142791807D01*
X103510464Y-142790707D01*
X103384864Y-142789541D01*
X103274781Y-142788306D01*
X103179339Y-142787002D01*
X103097662Y-142785626D01*
X103028874Y-142784176D01*
X102972100Y-142782651D01*
X102926463Y-142781050D01*
X102891088Y-142779370D01*
X102865099Y-142777609D01*
X102847620Y-142775767D01*
X102837774Y-142773841D01*
X102834687Y-142771829D01*
X102844116Y-142747554D01*
X102874440Y-142695435D01*
X102920704Y-142624963D01*
X102977782Y-142544288D01*
X103024938Y-142479332D01*
X103088143Y-142390811D01*
X103142461Y-142313148D01*
X103179730Y-142257919D01*
X103201138Y-142228100D01*
X103249181Y-142176294D01*
X103292013Y-142146794D01*
X103297699Y-142146179D01*
X103340936Y-142144810D01*
X103425928Y-142143485D01*
X103552272Y-142142205D01*
X103719568Y-142140971D01*
X103927412Y-142139784D01*
X104175404Y-142138643D01*
X104463140Y-142137549D01*
X104790218Y-142136503D01*
X105156238Y-142135506D01*
X105560796Y-142134558D01*
X106003490Y-142133659D01*
X106483919Y-142132811D01*
X107001680Y-142132013D01*
X107556372Y-142131266D01*
X108147591Y-142130572D01*
X108774937Y-142129929D01*
X109438008Y-142129340D01*
X110136400Y-142128804D01*
X110869712Y-142128322D01*
X111637543Y-142127895D01*
X112439489Y-142127523D01*
X113275149Y-142127206D01*
X114144121Y-142126946D01*
X115046002Y-142126743D01*
X115980391Y-142126597D01*
X116946886Y-142126509D01*
X117945085Y-142126480D01*
X132544726Y-142126480D01*
X132585748Y-142068271D01*
X132587869Y-142065209D01*
X132618850Y-142014707D01*
X132659234Y-141942056D01*
X132700854Y-141861896D01*
X132709090Y-141845509D01*
X132744668Y-141776708D01*
X132772528Y-141725918D01*
X132787225Y-141703146D01*
X132796487Y-141689948D01*
X132820377Y-141646948D01*
X132850706Y-141586730D01*
X132872190Y-141543276D01*
X132898088Y-141493852D01*
X132912501Y-141470313D01*
X132926570Y-141447970D01*
X132953913Y-141398457D01*
X132988443Y-141332730D01*
X133015381Y-141280716D01*
X133081084Y-141156306D01*
X133145773Y-141036813D01*
X133203463Y-140933212D01*
X133248168Y-140856480D01*
X133256826Y-140842066D01*
X133286546Y-140790138D01*
X133303922Y-140755938D01*
X133321584Y-140714163D01*
X133340704Y-140674318D01*
X133367774Y-140623775D01*
X133409425Y-140549563D01*
X133445662Y-140484661D01*
X133492702Y-140398380D01*
X133530270Y-140327313D01*
X133548051Y-140293359D01*
X133574769Y-140245011D01*
X133589834Y-140221480D01*
X133598707Y-140208042D01*
X133622468Y-140165069D01*
X133653354Y-140105063D01*
X133675727Y-140061230D01*
X133702234Y-140012060D01*
X133716854Y-139988646D01*
X133719848Y-139984563D01*
X133739507Y-139951161D01*
X133771545Y-139892929D01*
X133810725Y-139819313D01*
X133819432Y-139802723D01*
X133902236Y-139645529D01*
X133971293Y-139515737D01*
X134031640Y-139403940D01*
X134088313Y-139300730D01*
X134123550Y-139236342D01*
X134169945Y-139149790D01*
X134207160Y-139078480D01*
X134220376Y-139052974D01*
X134262682Y-138975040D01*
X134301465Y-138907919D01*
X134318207Y-138879388D01*
X134356665Y-138810973D01*
X134403885Y-138724736D01*
X134453208Y-138632753D01*
X134481718Y-138579045D01*
X134534076Y-138480710D01*
X134581936Y-138391161D01*
X134617653Y-138324717D01*
X134639095Y-138281730D01*
X134661369Y-138210124D01*
X134652252Y-138161569D01*
X134611626Y-138132300D01*
X134603460Y-138128988D01*
X134539587Y-138092077D01*
X134455605Y-138030607D01*
X134358281Y-137950745D01*
X134254386Y-137858660D01*
X134150687Y-137760521D01*
X134053955Y-137662498D01*
X133970957Y-137570758D01*
X133908463Y-137491472D01*
X133895462Y-137472912D01*
X133795688Y-137323635D01*
X133714466Y-137189355D01*
X133656766Y-137078230D01*
X133637646Y-137036884D01*
X133608405Y-136975348D01*
X133588526Y-136935642D01*
X133577919Y-136912860D01*
X133568687Y-136878811D01*
X133561625Y-136847920D01*
X133543809Y-136799149D01*
X133523146Y-136743191D01*
X133488248Y-136612433D01*
X133457606Y-136444958D01*
X133430665Y-136238017D01*
X133420047Y-136135088D01*
X133412617Y-136028678D01*
X133411969Y-135933547D01*
X133418114Y-135832627D01*
X133431067Y-135708850D01*
X133443029Y-135612449D01*
X133472885Y-135420901D01*
X133506369Y-135269275D01*
X133543809Y-135155977D01*
X133561130Y-135108793D01*
X133568687Y-135076314D01*
X133571917Y-135059700D01*
X133589111Y-135019484D01*
X133599539Y-134999109D01*
X133625421Y-134943884D01*
X133655074Y-134876896D01*
X133657834Y-134870622D01*
X133695477Y-134796644D01*
X133749354Y-134703000D01*
X133811445Y-134602693D01*
X133873730Y-134508728D01*
X133928188Y-134434106D01*
X133988191Y-134362041D01*
X134063640Y-134277441D01*
X134144965Y-134190580D01*
X134223873Y-134110113D01*
X134292073Y-134044696D01*
X134341270Y-134002982D01*
X134353164Y-133994109D01*
X134393827Y-133963238D01*
X134447104Y-133922434D01*
X134476150Y-133900647D01*
X134528711Y-133863866D01*
X134563520Y-133843013D01*
X134565871Y-133841920D01*
X134606800Y-133819314D01*
X134658770Y-133786894D01*
X134661307Y-133785232D01*
X134717431Y-133750968D01*
X134764604Y-133725967D01*
X134795123Y-133712084D01*
X134856048Y-133684232D01*
X134927289Y-133651570D01*
X134985011Y-133626518D01*
X135042981Y-133604707D01*
X135076514Y-133596313D01*
X135086873Y-133595302D01*
X135125496Y-133577376D01*
X135139063Y-133569266D01*
X135186748Y-133551421D01*
X135251437Y-133533652D01*
X135279710Y-133527023D01*
X135370558Y-133505657D01*
X135452520Y-133486306D01*
X135466920Y-133484088D01*
X135527863Y-133479681D01*
X135630261Y-133475538D01*
X135773521Y-133471669D01*
X135957054Y-133468082D01*
X136180265Y-133464788D01*
X136442563Y-133461795D01*
X136743357Y-133459114D01*
X137082054Y-133456752D01*
X137458062Y-133454721D01*
X139368354Y-133445694D01*
X139368354Y-133489253D01*
G36*
X139368354Y-133489253D02*
G01*
X139364631Y-133515015D01*
X139349258Y-133532813D01*
X139329527Y-133549462D01*
X139307807Y-133591021D01*
X139292671Y-133625554D01*
X139258171Y-133694064D01*
X139214846Y-133773835D01*
X139169619Y-133852575D01*
X139129415Y-133917997D01*
X139101155Y-133957813D01*
X139085252Y-133981622D01*
X139072020Y-134025355D01*
X139069601Y-134042207D01*
X139049548Y-134073370D01*
X139031895Y-134091005D01*
X139006861Y-134132827D01*
X138998923Y-134149536D01*
X138969838Y-134204934D01*
X138934083Y-134268355D01*
X138914224Y-134302381D01*
X138850321Y-134412692D01*
X138801669Y-134498450D01*
X138763056Y-134568949D01*
X138729267Y-134633480D01*
X138711458Y-134667188D01*
X138683426Y-134715784D01*
X138666259Y-134739525D01*
X138655734Y-134753323D01*
X138630204Y-134796694D01*
X138598427Y-134857067D01*
X138589149Y-134876349D01*
X138574882Y-134908235D01*
X138561756Y-134935501D01*
X138546667Y-134958520D01*
X138526510Y-134977666D01*
X138498179Y-134993314D01*
X138458570Y-135005835D01*
X138404577Y-135015605D01*
X138333096Y-135022997D01*
X138241021Y-135028385D01*
X138125247Y-135032142D01*
X137982670Y-135034642D01*
X137810184Y-135036259D01*
X137604684Y-135037367D01*
X137363065Y-135038339D01*
X137082223Y-135039548D01*
X135695937Y-135046230D01*
X135547770Y-135120139D01*
X135534707Y-135126703D01*
X135461638Y-135165173D01*
X135403576Y-135198542D01*
X135372105Y-135220209D01*
X135351758Y-135238258D01*
X135307369Y-135273300D01*
X135290267Y-135287912D01*
X135242141Y-135340862D01*
X135185857Y-135413154D01*
X135130029Y-135492785D01*
X135083272Y-135567750D01*
X135054202Y-135626046D01*
X135006499Y-135804767D01*
X134993896Y-135990865D01*
X135015779Y-136174527D01*
X135070576Y-136348467D01*
X135156714Y-136505401D01*
X135272622Y-136638045D01*
X135334025Y-136693283D01*
X135386607Y-136738367D01*
X135427556Y-136768944D01*
X135467383Y-136792747D01*
X135516599Y-136817507D01*
X135531274Y-136824550D01*
X135584915Y-136848560D01*
X135638004Y-136868164D01*
X135695308Y-136883805D01*
X135761590Y-136895924D01*
X135841615Y-136904965D01*
X135940149Y-136911370D01*
X136061954Y-136915582D01*
X136211797Y-136918042D01*
X136394442Y-136919194D01*
X136614653Y-136919480D01*
X136619464Y-136919480D01*
X136824106Y-136919669D01*
X136990328Y-136920325D01*
X137121959Y-136921602D01*
X137222831Y-136923652D01*
X137296773Y-136926628D01*
X137347616Y-136930683D01*
X137379191Y-136935971D01*
X137395326Y-136942645D01*
X137399854Y-136950857D01*
X137390081Y-136980762D01*
X137361696Y-137039209D01*
X137319108Y-137117395D01*
X137266753Y-137207195D01*
X137209067Y-137300480D01*
X137185703Y-137341424D01*
X137157723Y-137395730D01*
X137141750Y-137426687D01*
X137104710Y-137493854D01*
X137063356Y-137565063D01*
X137040153Y-137604612D01*
X136991918Y-137690185D01*
X136951261Y-137766146D01*
X136934219Y-137798141D01*
X136900897Y-137854646D01*
X136875979Y-137889366D01*
X136862556Y-137906187D01*
X136849520Y-137936241D01*
X136847885Y-137942422D01*
X136830232Y-137979382D01*
X136797313Y-138039084D01*
X136754270Y-138112034D01*
X136737039Y-138140809D01*
X136697151Y-138210899D01*
X136669417Y-138264807D01*
X136659020Y-138292702D01*
X136658233Y-138299939D01*
X136642494Y-138316480D01*
X136623782Y-138333352D01*
X136601455Y-138374688D01*
X136587218Y-138404912D01*
X136552925Y-138469230D01*
X136512508Y-138538730D01*
X136485114Y-138584253D01*
X136449191Y-138645578D01*
X136426193Y-138686896D01*
X136419488Y-138699598D01*
X136390608Y-138752265D01*
X136355825Y-138813896D01*
X136327169Y-138864358D01*
X136282080Y-138944582D01*
X136236960Y-139025563D01*
X136199795Y-139091672D01*
X136168596Y-139145402D01*
X136150894Y-139173730D01*
X136148640Y-139177021D01*
X136128027Y-139211575D01*
X136094812Y-139270469D01*
X136055016Y-139343063D01*
X136039927Y-139370932D01*
X135988752Y-139465087D01*
X135951550Y-139532568D01*
X135923477Y-139581935D01*
X135899689Y-139621746D01*
X135875341Y-139660563D01*
X135838506Y-139722321D01*
X135803415Y-139787563D01*
X135787322Y-139818498D01*
X135750115Y-139885673D01*
X135708689Y-139956896D01*
X135685487Y-139996446D01*
X135637251Y-140082018D01*
X135596594Y-140157980D01*
X135579552Y-140189975D01*
X135546230Y-140246479D01*
X135521312Y-140281200D01*
X135507889Y-140298021D01*
X135494854Y-140328074D01*
X135493473Y-140333597D01*
X135476447Y-140369754D01*
X135444094Y-140428822D01*
X135401596Y-140501187D01*
X135321172Y-140635748D01*
X135246168Y-140764619D01*
X135185684Y-140872368D01*
X135143874Y-140951730D01*
X135127729Y-140982728D01*
X135090451Y-141049879D01*
X135048919Y-141121063D01*
X135022640Y-141165665D01*
X134985198Y-141231853D01*
X134959928Y-141279813D01*
X134937275Y-141320373D01*
X134907726Y-141360700D01*
X134894135Y-141377636D01*
X134881020Y-141407952D01*
X134870896Y-141433400D01*
X134842558Y-141487525D01*
X134800259Y-141562613D01*
X134748253Y-141651115D01*
X134690796Y-141745480D01*
X134678994Y-141765897D01*
X134650483Y-141818361D01*
X134616562Y-141883063D01*
X134595516Y-141922952D01*
X134554951Y-141995981D01*
X134521187Y-142052396D01*
X134503917Y-142080493D01*
X134464791Y-142148733D01*
X134425464Y-142221730D01*
X134404236Y-142261727D01*
X134363520Y-142334698D01*
X134329693Y-142391063D01*
X134327095Y-142395117D01*
X134295348Y-142447214D01*
X134274092Y-142486313D01*
X134251552Y-142529593D01*
X134212723Y-142596220D01*
X134168700Y-142666874D01*
X134128049Y-142727868D01*
X134099339Y-142765513D01*
X134095659Y-142767725D01*
X134088116Y-142769871D01*
X134075842Y-142771924D01*
X134057942Y-142773886D01*
X134033521Y-142775761D01*
X134001682Y-142777549D01*
X133961532Y-142779253D01*
X133912174Y-142780875D01*
X133852713Y-142782417D01*
X133782253Y-142783882D01*
X133699901Y-142785270D01*
X133604760Y-142786586D01*
X133495935Y-142787830D01*
X133372531Y-142789005D01*
X133233652Y-142790112D01*
X133078403Y-142791155D01*
X132905889Y-142792134D01*
X132715215Y-142793053D01*
X132505485Y-142793914D01*
X132275804Y-142794717D01*
X132025277Y-142795467D01*
X131753008Y-142796164D01*
X131458102Y-142796810D01*
X131139664Y-142797409D01*
X130796799Y-142797962D01*
X130428610Y-142798471D01*
X130034204Y-142798938D01*
X129612684Y-142799366D01*
X129163156Y-142799756D01*
X128684724Y-142800111D01*
X128176493Y-142800433D01*
X127637567Y-142800723D01*
X127067051Y-142800985D01*
X126464050Y-142801220D01*
X125827669Y-142801430D01*
X125157012Y-142801617D01*
X124451184Y-142801784D01*
X123709289Y-142801932D01*
X122930434Y-142802064D01*
X122113721Y-142802182D01*
X121258256Y-142802288D01*
X120363144Y-142802384D01*
X119427489Y-142802472D01*
X118450395Y-142802555D01*
X117839810Y-142802602D01*
X116883211Y-142802664D01*
X115967530Y-142802708D01*
X115091891Y-142802732D01*
X114255417Y-142802735D01*
X113457233Y-142802714D01*
X112696463Y-142802668D01*
X111972230Y-142802595D01*
X111283660Y-142802494D01*
X110629877Y-142802362D01*
X110010003Y-142802198D01*
X109423164Y-142802000D01*
X108868484Y-142801767D01*
X108345087Y-142801497D01*
X107852096Y-142801188D01*
X107388637Y-142800838D01*
X106953832Y-142800446D01*
X106546807Y-142800010D01*
X106166685Y-142799528D01*
X105812590Y-142798998D01*
X105483648Y-142798419D01*
X105178980Y-142797789D01*
X104897713Y-142797106D01*
X104638970Y-142796369D01*
X104401875Y-142795576D01*
X104185552Y-142794725D01*
X103989125Y-142793814D01*
X103811719Y-142792842D01*
X103652457Y-142791807D01*
X103510464Y-142790707D01*
X103384864Y-142789541D01*
X103274781Y-142788306D01*
X103179339Y-142787002D01*
X103097662Y-142785626D01*
X103028874Y-142784176D01*
X102972100Y-142782651D01*
X102926463Y-142781050D01*
X102891088Y-142779370D01*
X102865099Y-142777609D01*
X102847620Y-142775767D01*
X102837774Y-142773841D01*
X102834687Y-142771829D01*
X102844116Y-142747554D01*
X102874440Y-142695435D01*
X102920704Y-142624963D01*
X102977782Y-142544288D01*
X103024938Y-142479332D01*
X103088143Y-142390811D01*
X103142461Y-142313148D01*
X103179730Y-142257919D01*
X103201138Y-142228100D01*
X103249181Y-142176294D01*
X103292013Y-142146794D01*
X103297699Y-142146179D01*
X103340936Y-142144810D01*
X103425928Y-142143485D01*
X103552272Y-142142205D01*
X103719568Y-142140971D01*
X103927412Y-142139784D01*
X104175404Y-142138643D01*
X104463140Y-142137549D01*
X104790218Y-142136503D01*
X105156238Y-142135506D01*
X105560796Y-142134558D01*
X106003490Y-142133659D01*
X106483919Y-142132811D01*
X107001680Y-142132013D01*
X107556372Y-142131266D01*
X108147591Y-142130572D01*
X108774937Y-142129929D01*
X109438008Y-142129340D01*
X110136400Y-142128804D01*
X110869712Y-142128322D01*
X111637543Y-142127895D01*
X112439489Y-142127523D01*
X113275149Y-142127206D01*
X114144121Y-142126946D01*
X115046002Y-142126743D01*
X115980391Y-142126597D01*
X116946886Y-142126509D01*
X117945085Y-142126480D01*
X132544726Y-142126480D01*
X132585748Y-142068271D01*
X132587869Y-142065209D01*
X132618850Y-142014707D01*
X132659234Y-141942056D01*
X132700854Y-141861896D01*
X132709090Y-141845509D01*
X132744668Y-141776708D01*
X132772528Y-141725918D01*
X132787225Y-141703146D01*
X132796487Y-141689948D01*
X132820377Y-141646948D01*
X132850706Y-141586730D01*
X132872190Y-141543276D01*
X132898088Y-141493852D01*
X132912501Y-141470313D01*
X132926570Y-141447970D01*
X132953913Y-141398457D01*
X132988443Y-141332730D01*
X133015381Y-141280716D01*
X133081084Y-141156306D01*
X133145773Y-141036813D01*
X133203463Y-140933212D01*
X133248168Y-140856480D01*
X133256826Y-140842066D01*
X133286546Y-140790138D01*
X133303922Y-140755938D01*
X133321584Y-140714163D01*
X133340704Y-140674318D01*
X133367774Y-140623775D01*
X133409425Y-140549563D01*
X133445662Y-140484661D01*
X133492702Y-140398380D01*
X133530270Y-140327313D01*
X133548051Y-140293359D01*
X133574769Y-140245011D01*
X133589834Y-140221480D01*
X133598707Y-140208042D01*
X133622468Y-140165069D01*
X133653354Y-140105063D01*
X133675727Y-140061230D01*
X133702234Y-140012060D01*
X133716854Y-139988646D01*
X133719848Y-139984563D01*
X133739507Y-139951161D01*
X133771545Y-139892929D01*
X133810725Y-139819313D01*
X133819432Y-139802723D01*
X133902236Y-139645529D01*
X133971293Y-139515737D01*
X134031640Y-139403940D01*
X134088313Y-139300730D01*
X134123550Y-139236342D01*
X134169945Y-139149790D01*
X134207160Y-139078480D01*
X134220376Y-139052974D01*
X134262682Y-138975040D01*
X134301465Y-138907919D01*
X134318207Y-138879388D01*
X134356665Y-138810973D01*
X134403885Y-138724736D01*
X134453208Y-138632753D01*
X134481718Y-138579045D01*
X134534076Y-138480710D01*
X134581936Y-138391161D01*
X134617653Y-138324717D01*
X134639095Y-138281730D01*
X134661369Y-138210124D01*
X134652252Y-138161569D01*
X134611626Y-138132300D01*
X134603460Y-138128988D01*
X134539587Y-138092077D01*
X134455605Y-138030607D01*
X134358281Y-137950745D01*
X134254386Y-137858660D01*
X134150687Y-137760521D01*
X134053955Y-137662498D01*
X133970957Y-137570758D01*
X133908463Y-137491472D01*
X133895462Y-137472912D01*
X133795688Y-137323635D01*
X133714466Y-137189355D01*
X133656766Y-137078230D01*
X133637646Y-137036884D01*
X133608405Y-136975348D01*
X133588526Y-136935642D01*
X133577919Y-136912860D01*
X133568687Y-136878811D01*
X133561625Y-136847920D01*
X133543809Y-136799149D01*
X133523146Y-136743191D01*
X133488248Y-136612433D01*
X133457606Y-136444958D01*
X133430665Y-136238017D01*
X133420047Y-136135088D01*
X133412617Y-136028678D01*
X133411969Y-135933547D01*
X133418114Y-135832627D01*
X133431067Y-135708850D01*
X133443029Y-135612449D01*
X133472885Y-135420901D01*
X133506369Y-135269275D01*
X133543809Y-135155977D01*
X133561130Y-135108793D01*
X133568687Y-135076314D01*
X133571917Y-135059700D01*
X133589111Y-135019484D01*
X133599539Y-134999109D01*
X133625421Y-134943884D01*
X133655074Y-134876896D01*
X133657834Y-134870622D01*
X133695477Y-134796644D01*
X133749354Y-134703000D01*
X133811445Y-134602693D01*
X133873730Y-134508728D01*
X133928188Y-134434106D01*
X133988191Y-134362041D01*
X134063640Y-134277441D01*
X134144965Y-134190580D01*
X134223873Y-134110113D01*
X134292073Y-134044696D01*
X134341270Y-134002982D01*
X134353164Y-133994109D01*
X134393827Y-133963238D01*
X134447104Y-133922434D01*
X134476150Y-133900647D01*
X134528711Y-133863866D01*
X134563520Y-133843013D01*
X134565871Y-133841920D01*
X134606800Y-133819314D01*
X134658770Y-133786894D01*
X134661307Y-133785232D01*
X134717431Y-133750968D01*
X134764604Y-133725967D01*
X134795123Y-133712084D01*
X134856048Y-133684232D01*
X134927289Y-133651570D01*
X134985011Y-133626518D01*
X135042981Y-133604707D01*
X135076514Y-133596313D01*
X135086873Y-133595302D01*
X135125496Y-133577376D01*
X135139063Y-133569266D01*
X135186748Y-133551421D01*
X135251437Y-133533652D01*
X135279710Y-133527023D01*
X135370558Y-133505657D01*
X135452520Y-133486306D01*
X135466920Y-133484088D01*
X135527863Y-133479681D01*
X135630261Y-133475538D01*
X135773521Y-133471669D01*
X135957054Y-133468082D01*
X136180265Y-133464788D01*
X136442563Y-133461795D01*
X136743357Y-133459114D01*
X137082054Y-133456752D01*
X137458062Y-133454721D01*
X139368354Y-133445694D01*
X139368354Y-133489253D01*
G37*
X117191426Y-132049904D02*
X117945124Y-132049957D01*
X118704278Y-132050039D01*
X119467721Y-132050150D01*
X120234288Y-132050289D01*
X121002814Y-132050456D01*
X121772132Y-132050651D01*
X122541078Y-132050874D01*
X123308486Y-132051124D01*
X124073191Y-132051400D01*
X124834025Y-132051704D01*
X125589825Y-132052033D01*
X126339425Y-132052389D01*
X127081658Y-132052771D01*
X127815360Y-132053177D01*
X128539364Y-132053609D01*
X129252506Y-132054066D01*
X129953620Y-132054547D01*
X130641539Y-132055052D01*
X131315099Y-132055582D01*
X131973134Y-132056135D01*
X132614478Y-132056711D01*
X133237966Y-132057310D01*
X133842432Y-132057932D01*
X134426711Y-132058576D01*
X134989637Y-132059242D01*
X135530044Y-132059930D01*
X136046767Y-132060639D01*
X136538640Y-132061370D01*
X137004499Y-132062121D01*
X137443176Y-132062893D01*
X137853507Y-132063685D01*
X138234326Y-132064497D01*
X138584467Y-132065329D01*
X138902765Y-132066180D01*
X139188055Y-132067050D01*
X139439170Y-132067938D01*
X139654945Y-132068845D01*
X139834215Y-132069771D01*
X139975814Y-132070714D01*
X140078576Y-132071674D01*
X140141336Y-132072652D01*
X140162928Y-132073647D01*
X140165314Y-132094351D01*
X140147254Y-132131855D01*
X140139840Y-132141631D01*
X140108976Y-132190868D01*
X140076389Y-132251907D01*
X140066123Y-132272180D01*
X140034206Y-132328385D01*
X140008645Y-132364544D01*
X139995173Y-132381663D01*
X139982187Y-132412173D01*
X139977699Y-132427991D01*
X139954828Y-132473847D01*
X139919341Y-132534162D01*
X139878887Y-132596769D01*
X139841118Y-132649498D01*
X139813684Y-132680181D01*
X139812694Y-132680579D01*
X139798475Y-132682162D01*
X139767368Y-132683682D01*
X139718666Y-132685143D01*
X139651664Y-132686544D01*
X139565653Y-132687887D01*
X139459928Y-132689173D01*
X139333780Y-132690403D01*
X139186504Y-132691578D01*
X139017393Y-132692700D01*
X138825739Y-132693768D01*
X138610837Y-132694785D01*
X138371978Y-132695751D01*
X138108457Y-132696668D01*
X137819567Y-132697537D01*
X137504600Y-132698358D01*
X137162849Y-132699132D01*
X136793609Y-132699862D01*
X136396172Y-132700548D01*
X135969831Y-132701190D01*
X135513880Y-132701791D01*
X135027612Y-132702351D01*
X134510319Y-132702871D01*
X133961296Y-132703352D01*
X133379834Y-132703796D01*
X132765229Y-132704204D01*
X132116771Y-132704576D01*
X131433756Y-132704913D01*
X130715475Y-132705218D01*
X129961223Y-132705490D01*
X129170291Y-132705731D01*
X128341974Y-132705942D01*
X127475565Y-132706124D01*
X126570357Y-132706279D01*
X125625642Y-132706406D01*
X124640715Y-132706508D01*
X123614868Y-132706586D01*
X122547395Y-132706640D01*
X122342748Y-132706648D01*
X121213745Y-132706727D01*
X120121675Y-132706855D01*
X119066729Y-132707032D01*
X118049101Y-132707257D01*
X117068983Y-132707531D01*
X116126569Y-132707854D01*
X115222051Y-132708224D01*
X114355622Y-132708642D01*
X113527475Y-132709108D01*
X112737803Y-132709621D01*
X111986800Y-132710181D01*
X111274657Y-132710788D01*
X110601568Y-132711442D01*
X109967725Y-132712142D01*
X109373323Y-132712888D01*
X108818552Y-132713680D01*
X108303607Y-132714517D01*
X107828681Y-132715401D01*
X107393966Y-132716329D01*
X106999655Y-132717302D01*
X106645941Y-132718320D01*
X106333017Y-132719382D01*
X106061076Y-132720488D01*
X105830311Y-132721639D01*
X105640914Y-132722833D01*
X105493079Y-132724071D01*
X105386999Y-132725351D01*
X105322867Y-132726675D01*
X105300874Y-132728042D01*
X105300990Y-132762065D01*
X105323187Y-132814278D01*
X105361675Y-132870756D01*
X105386259Y-132900753D01*
X105422619Y-132947591D01*
X105448770Y-132986377D01*
X105451570Y-132990850D01*
X105511600Y-133084143D01*
X105568700Y-133168450D01*
X105618025Y-133237023D01*
X105654729Y-133283116D01*
X105673968Y-133299980D01*
X105678720Y-133300746D01*
X105692187Y-133322040D01*
X105694370Y-133334079D01*
X105714338Y-133369665D01*
X105717722Y-133373793D01*
X105743850Y-133408533D01*
X105785603Y-133465958D01*
X105836160Y-133536508D01*
X105888698Y-133610622D01*
X105936394Y-133678740D01*
X105972426Y-133731303D01*
X105975120Y-133735305D01*
X106011754Y-133788448D01*
X106059522Y-133856276D01*
X106111343Y-133928916D01*
X106160136Y-133996492D01*
X106198820Y-134049132D01*
X106220314Y-134076961D01*
X106230405Y-134090016D01*
X106242520Y-134115611D01*
X106242609Y-134116302D01*
X106256446Y-134140688D01*
X106289283Y-134188035D01*
X106334525Y-134248796D01*
X106383116Y-134314006D01*
X106438585Y-134392100D01*
X106480824Y-134455474D01*
X106497475Y-134481314D01*
X106535823Y-134536330D01*
X106564628Y-134571891D01*
X106581241Y-134590973D01*
X106608606Y-134633480D01*
X106619815Y-134652724D01*
X106652374Y-134702196D01*
X106699593Y-134770786D01*
X106755588Y-134849829D01*
X106789270Y-134896860D01*
X106857784Y-134993069D01*
X106922437Y-135084466D01*
X106972770Y-135156294D01*
X106984778Y-135173532D01*
X107042440Y-135255620D01*
X107109523Y-135350334D01*
X107173854Y-135440472D01*
X107199162Y-135475820D01*
X107252277Y-135550400D01*
X107295745Y-135611948D01*
X107322020Y-135649804D01*
X107338864Y-135674610D01*
X107406287Y-135771265D01*
X107468801Y-135857028D01*
X107521762Y-135925817D01*
X107560525Y-135971550D01*
X107580444Y-135988146D01*
X107606142Y-135975703D01*
X107652669Y-135930017D01*
X107713027Y-135854797D01*
X107783850Y-135754294D01*
X107861770Y-135632763D01*
X107874448Y-135613330D01*
X107904104Y-135573592D01*
X107920666Y-135552748D01*
X107951949Y-135509198D01*
X107971402Y-135481047D01*
X108010814Y-135424887D01*
X108062115Y-135352231D01*
X108118538Y-135272640D01*
X108173317Y-135195675D01*
X108219685Y-135130896D01*
X108295229Y-135025555D01*
X108379377Y-134907178D01*
X108438985Y-134821799D01*
X108474454Y-134768838D01*
X108486187Y-134747717D01*
X108488708Y-134740113D01*
X108508393Y-134711961D01*
X108513305Y-134705948D01*
X108541665Y-134668299D01*
X108584698Y-134609099D01*
X108635193Y-134538230D01*
X108652282Y-134514082D01*
X108700940Y-134446002D01*
X108739615Y-134392850D01*
X108761153Y-134364498D01*
X108770791Y-134351793D01*
X108782520Y-134328079D01*
X108786917Y-134319287D01*
X108811407Y-134282235D01*
X108852579Y-134224027D01*
X108904923Y-134152561D01*
X108932391Y-134115390D01*
X108989211Y-134037185D01*
X109036892Y-133969886D01*
X109067268Y-133924946D01*
X109070028Y-133920613D01*
X109102242Y-133872210D01*
X109125766Y-133840280D01*
X109130167Y-133834771D01*
X109156818Y-133798716D01*
X109198374Y-133740721D01*
X109247924Y-133670396D01*
X109251875Y-133664717D01*
X109286098Y-133613521D01*
X109314173Y-133571008D01*
X109340139Y-133536379D01*
X109368036Y-133508838D01*
X109401902Y-133487585D01*
X109445779Y-133471822D01*
X109503703Y-133460751D01*
X109579716Y-133453573D01*
X109677856Y-133449491D01*
X109802163Y-133447705D01*
X109956675Y-133447418D01*
X110145433Y-133447831D01*
X110372475Y-133448146D01*
X110585888Y-133448484D01*
X110806830Y-133449753D01*
X110990587Y-133451945D01*
X111136131Y-133455036D01*
X111242434Y-133459003D01*
X111308468Y-133463824D01*
X111333204Y-133469475D01*
X111335849Y-133485941D01*
X111318578Y-133519798D01*
X111299011Y-133542135D01*
X111264092Y-133588428D01*
X111244639Y-133616579D01*
X111205227Y-133672739D01*
X111153926Y-133745394D01*
X111097503Y-133824985D01*
X111042724Y-133901951D01*
X110996356Y-133966730D01*
X110932058Y-134056380D01*
X110853229Y-134167336D01*
X110795857Y-134249800D01*
X110757680Y-134307107D01*
X110736433Y-134342595D01*
X110729854Y-134359599D01*
X110729563Y-134363386D01*
X110713979Y-134379585D01*
X110701456Y-134390230D01*
X110669754Y-134428557D01*
X110626094Y-134486594D01*
X110576782Y-134555673D01*
X110528127Y-134627126D01*
X110486437Y-134692283D01*
X110473383Y-134711884D01*
X110437354Y-134757264D01*
X110409047Y-134792474D01*
X110374044Y-134842824D01*
X110371507Y-134846733D01*
X110342757Y-134889157D01*
X110296179Y-134956265D01*
X110237641Y-135039648D01*
X110173013Y-135130896D01*
X110106172Y-135225006D01*
X110022897Y-135342565D01*
X109942763Y-135455975D01*
X109876490Y-135550080D01*
X109764782Y-135708927D01*
X109628142Y-135902564D01*
X109511666Y-136066777D01*
X109416639Y-136199757D01*
X109344348Y-136299691D01*
X109335204Y-136312306D01*
X109291025Y-136376369D01*
X109259938Y-136426640D01*
X109248187Y-136453149D01*
X109247678Y-136458630D01*
X109232312Y-136475124D01*
X109225659Y-136478427D01*
X109198889Y-136506720D01*
X109164147Y-136554499D01*
X109139982Y-136589984D01*
X109091764Y-136658563D01*
X109031978Y-136742048D01*
X108968355Y-136829579D01*
X108915851Y-136902017D01*
X108868635Y-136968840D01*
X108836634Y-137016116D01*
X108824854Y-137036623D01*
X108821809Y-137043210D01*
X108799272Y-137077594D01*
X108759574Y-137133405D01*
X108708437Y-137202491D01*
X108661982Y-137268846D01*
X108616585Y-137348226D01*
X108591968Y-137411977D01*
X108590159Y-137454405D01*
X108613187Y-137469813D01*
X108619189Y-137470751D01*
X108634354Y-137492587D01*
X108634530Y-137494202D01*
X108649312Y-137524241D01*
X108683208Y-137575948D01*
X108729604Y-137639146D01*
X108736302Y-137647881D01*
X108781169Y-137708097D01*
X108812850Y-137753565D01*
X108824854Y-137775023D01*
X108824901Y-137775390D01*
X108838048Y-137798046D01*
X108871205Y-137847361D01*
X108919563Y-137916345D01*
X108978312Y-137998009D01*
X109033005Y-138073604D01*
X109106560Y-138176361D01*
X109174469Y-138272324D01*
X109227020Y-138347832D01*
X109234413Y-138358600D01*
X109284715Y-138431160D01*
X109328880Y-138493775D01*
X109358080Y-138533912D01*
X109404328Y-138596875D01*
X109475457Y-138697179D01*
X109568964Y-138831484D01*
X109684369Y-138999105D01*
X109739805Y-139077945D01*
X109789109Y-139144204D01*
X109825599Y-139189012D01*
X109843945Y-139205480D01*
X109851394Y-139208062D01*
X109862020Y-139234361D01*
X109864348Y-139244757D01*
X109886735Y-139285276D01*
X109925182Y-139334903D01*
X109942926Y-139355724D01*
X109975580Y-139398856D01*
X109988682Y-139424046D01*
X109988762Y-139424800D01*
X110002541Y-139451155D01*
X110035370Y-139500089D01*
X110080587Y-139561629D01*
X110081414Y-139562715D01*
X110129058Y-139627890D01*
X110166520Y-139683917D01*
X110185756Y-139718771D01*
X110196482Y-139738641D01*
X110221190Y-139755813D01*
X110226981Y-139756606D01*
X110243020Y-139777873D01*
X110245203Y-139789913D01*
X110265171Y-139825498D01*
X110268555Y-139829626D01*
X110294683Y-139864367D01*
X110336436Y-139921792D01*
X110386993Y-139992341D01*
X110439531Y-140066455D01*
X110487227Y-140134574D01*
X110523259Y-140187137D01*
X110529505Y-140196370D01*
X110565284Y-140248040D01*
X110612022Y-140314368D01*
X110662668Y-140385488D01*
X110710173Y-140451534D01*
X110747484Y-140502642D01*
X110767553Y-140528946D01*
X110768957Y-140530624D01*
X110793917Y-140564763D01*
X110826467Y-140613613D01*
X110854951Y-140656500D01*
X110901318Y-140723875D01*
X110951770Y-140795384D01*
X110996284Y-140858030D01*
X111039832Y-140920145D01*
X111068520Y-140962020D01*
X111094564Y-140998479D01*
X111126729Y-141037478D01*
X111140367Y-141053600D01*
X111153187Y-141078126D01*
X111164333Y-141099318D01*
X111194816Y-141144448D01*
X111237854Y-141203269D01*
X111279148Y-141261101D01*
X111310520Y-141311498D01*
X111322520Y-141339945D01*
X111322433Y-141340539D01*
X111308759Y-141346673D01*
X111270066Y-141351781D01*
X111203880Y-141355927D01*
X111107728Y-141359177D01*
X110979138Y-141361593D01*
X110815638Y-141363239D01*
X110614753Y-141364180D01*
X110374012Y-141364480D01*
X110349980Y-141364483D01*
X110125926Y-141364825D01*
X109939794Y-141365163D01*
X109787574Y-141364709D01*
X109665256Y-141362674D01*
X109568828Y-141358268D01*
X109494280Y-141350703D01*
X109437601Y-141339190D01*
X109394781Y-141322940D01*
X109361809Y-141301165D01*
X109334675Y-141273074D01*
X109309366Y-141237880D01*
X109281874Y-141194793D01*
X109248187Y-141143024D01*
X109243203Y-141135678D01*
X109188673Y-141057789D01*
X109135686Y-140985860D01*
X109095067Y-140934618D01*
X109081430Y-140918264D01*
X109049699Y-140875825D01*
X109036859Y-140851247D01*
X109036721Y-140850263D01*
X109022829Y-140823725D01*
X108990650Y-140774094D01*
X108946562Y-140711259D01*
X108897015Y-140642461D01*
X108853219Y-140580936D01*
X108824854Y-140540278D01*
X108799582Y-140503976D01*
X108766005Y-140458016D01*
X108760790Y-140451062D01*
X108730518Y-140409355D01*
X108685940Y-140346905D01*
X108634697Y-140274396D01*
X108617257Y-140249633D01*
X108569779Y-140182564D01*
X108532965Y-140131059D01*
X108513630Y-140104672D01*
X108498573Y-140083720D01*
X108463943Y-140033988D01*
X108415895Y-139964239D01*
X108359926Y-139882422D01*
X108309969Y-139809462D01*
X108260586Y-139738023D01*
X108223916Y-139685744D01*
X108205484Y-139660563D01*
X108198922Y-139652075D01*
X108170476Y-139613205D01*
X108127839Y-139553816D01*
X108077841Y-139483527D01*
X108027308Y-139411954D01*
X107983068Y-139348715D01*
X107951949Y-139303428D01*
X107933247Y-139276810D01*
X107904104Y-139239034D01*
X107891649Y-139223390D01*
X107861770Y-139180416D01*
X107772539Y-139042978D01*
X107693815Y-138934370D01*
X107631564Y-138864236D01*
X107585611Y-138832383D01*
X107555783Y-138838617D01*
X107552372Y-138842606D01*
X107517859Y-138885690D01*
X107473797Y-138943741D01*
X107427241Y-139007043D01*
X107385249Y-139065881D01*
X107354879Y-139110539D01*
X107343187Y-139131300D01*
X107339396Y-139142307D01*
X107316729Y-139172648D01*
X107292759Y-139201075D01*
X107258520Y-139248342D01*
X107247774Y-139264113D01*
X107211579Y-139315413D01*
X107161527Y-139385082D01*
X107105062Y-139462720D01*
X107072474Y-139507672D01*
X107026592Y-139572653D01*
X106995070Y-139619548D01*
X106983354Y-139640408D01*
X106981020Y-139648307D01*
X106961826Y-139677331D01*
X106949377Y-139692532D01*
X106909897Y-139743457D01*
X106862661Y-139806815D01*
X106814329Y-139873366D01*
X106771561Y-139933874D01*
X106741015Y-139979099D01*
X106729354Y-139999804D01*
X106725543Y-140010502D01*
X106702895Y-140040481D01*
X106679285Y-140068190D01*
X106644687Y-140115007D01*
X106644672Y-140115030D01*
X106616345Y-140155743D01*
X106572628Y-140217378D01*
X106522979Y-140286601D01*
X106518487Y-140292853D01*
X106475257Y-140355894D01*
X106444643Y-140405627D01*
X106433020Y-140431761D01*
X106430060Y-140442584D01*
X106404602Y-140469136D01*
X106402550Y-140470453D01*
X106371359Y-140501602D01*
X106336652Y-140549563D01*
X106306433Y-140594916D01*
X106258796Y-140662139D01*
X106206320Y-140733163D01*
X106202684Y-140737983D01*
X106158632Y-140798204D01*
X106127391Y-140844199D01*
X106115520Y-140866348D01*
X106113180Y-140874981D01*
X106093751Y-140904998D01*
X106081544Y-140920649D01*
X106047385Y-140966758D01*
X105999351Y-141032896D01*
X105943713Y-141110480D01*
X105938719Y-141117516D01*
X105898729Y-141175778D01*
X105865755Y-141224177D01*
X105835687Y-141263617D01*
X105804413Y-141295003D01*
X105767821Y-141319242D01*
X105721799Y-141337239D01*
X105662237Y-141349898D01*
X105585022Y-141358126D01*
X105486043Y-141362828D01*
X105361189Y-141364908D01*
X105206348Y-141365274D01*
X105017408Y-141364829D01*
X104790259Y-141364480D01*
X104741909Y-141364469D01*
X104511619Y-141364069D01*
X104320541Y-141363032D01*
X104166051Y-141361290D01*
X104045530Y-141358774D01*
X103956354Y-141355413D01*
X103895902Y-141351138D01*
X103861554Y-141345881D01*
X103850687Y-141339570D01*
X103850695Y-141339150D01*
X103863633Y-141306371D01*
X103898544Y-141246304D01*
X103951527Y-141164943D01*
X104018685Y-141068282D01*
X104096118Y-140962313D01*
X104105343Y-140949916D01*
X104163167Y-140870388D01*
X104229541Y-140776895D01*
X104291867Y-140687146D01*
X104298479Y-140677497D01*
X104366647Y-140578967D01*
X104441030Y-140472752D01*
X104506665Y-140380230D01*
X104523105Y-140357261D01*
X104573724Y-140286285D01*
X104614982Y-140228073D01*
X104639208Y-140193433D01*
X104657050Y-140167948D01*
X104692703Y-140119350D01*
X104698040Y-140112238D01*
X104728697Y-140070112D01*
X104774092Y-140006827D01*
X104826893Y-139932694D01*
X104879769Y-139858027D01*
X104925390Y-139793138D01*
X104956426Y-139748340D01*
X104966591Y-139733742D01*
X105000877Y-139685591D01*
X105049293Y-139618306D01*
X105104812Y-139541669D01*
X105137708Y-139495970D01*
X105183441Y-139430679D01*
X105214849Y-139383506D01*
X105226520Y-139362421D01*
X105230367Y-139352295D01*
X105252979Y-139322978D01*
X105271998Y-139301148D01*
X105306115Y-139255698D01*
X105311276Y-139248125D01*
X105341575Y-139204605D01*
X105386441Y-139140886D01*
X105438187Y-139067896D01*
X105454225Y-139045327D01*
X105504686Y-138974032D01*
X105545925Y-138915359D01*
X105570259Y-138880225D01*
X105579221Y-138867159D01*
X105612319Y-138819689D01*
X105659388Y-138752713D01*
X105713354Y-138676313D01*
X105739459Y-138639407D01*
X105792252Y-138564543D01*
X105835419Y-138503034D01*
X105861520Y-138465464D01*
X105863450Y-138462650D01*
X105893271Y-138419967D01*
X105937928Y-138356814D01*
X105988520Y-138285783D01*
X105993804Y-138278387D01*
X106044228Y-138207359D01*
X106087773Y-138145303D01*
X106115520Y-138104918D01*
X106141028Y-138068975D01*
X106169847Y-138033428D01*
X106171380Y-138031763D01*
X106198908Y-137996043D01*
X106232506Y-137946063D01*
X106262965Y-137900743D01*
X106310818Y-137833506D01*
X106363388Y-137762462D01*
X106366384Y-137758488D01*
X106410733Y-137696809D01*
X106442216Y-137647833D01*
X106454187Y-137621852D01*
X106457907Y-137610821D01*
X106485937Y-137589158D01*
X106500607Y-137580133D01*
X106517687Y-137547152D01*
X106522522Y-137527370D01*
X106549437Y-137490980D01*
X106564558Y-137477489D01*
X106579380Y-137458086D01*
X106585216Y-137434506D01*
X106580108Y-137402967D01*
X106562103Y-137359687D01*
X106529245Y-137300884D01*
X106479579Y-137222777D01*
X106411149Y-137121584D01*
X106322001Y-136993523D01*
X106210178Y-136834813D01*
X106146776Y-136744781D01*
X106079426Y-136648631D01*
X106020547Y-136564070D01*
X105978148Y-136502569D01*
X105941940Y-136450533D01*
X105902454Y-136396197D01*
X105877015Y-136364092D01*
X105862580Y-136347020D01*
X105829770Y-136300998D01*
X105824077Y-136292040D01*
X105795350Y-136248901D01*
X105752048Y-136185262D01*
X105701139Y-136111392D01*
X105690007Y-136095333D01*
X105628883Y-136007037D01*
X105568766Y-135920039D01*
X105521223Y-135851077D01*
X105488054Y-135803874D01*
X105447532Y-135748901D01*
X105420444Y-135715405D01*
X105411459Y-135704883D01*
X105377914Y-135659476D01*
X105339786Y-135602154D01*
X105327157Y-135582638D01*
X105283019Y-135517423D01*
X105226613Y-135436699D01*
X105167029Y-135353545D01*
X105144534Y-135322480D01*
X105070365Y-135219061D01*
X104990806Y-135107001D01*
X104919604Y-135005631D01*
X104878366Y-134946575D01*
X104801198Y-134836405D01*
X104719222Y-134719694D01*
X104644437Y-134613536D01*
X104593428Y-134541028D01*
X104521063Y-134437489D01*
X104453670Y-134340382D01*
X104401020Y-134263748D01*
X104390684Y-134248612D01*
X104343657Y-134180829D01*
X104305283Y-134127179D01*
X104283045Y-134098161D01*
X104278214Y-134092312D01*
X104249922Y-134054694D01*
X104207141Y-133995386D01*
X104157088Y-133924349D01*
X104153143Y-133918691D01*
X104090214Y-133828863D01*
X104023979Y-133734944D01*
X103968147Y-133656378D01*
X103914187Y-133580121D01*
X103848078Y-133485416D01*
X103787187Y-133397058D01*
X103778746Y-133384722D01*
X103729483Y-133313589D01*
X103687171Y-133253815D01*
X103660187Y-133217259D01*
X103634496Y-133183257D01*
X103596687Y-133129922D01*
X103595705Y-133128469D01*
X103556633Y-133071777D01*
X103507150Y-133001436D01*
X103454186Y-132927118D01*
X103404674Y-132858492D01*
X103365543Y-132805228D01*
X103343727Y-132776998D01*
X103333481Y-132764046D01*
X103321520Y-132741242D01*
X103310397Y-132721892D01*
X103280497Y-132676735D01*
X103237869Y-132614488D01*
X103188567Y-132543826D01*
X103138643Y-132473422D01*
X103094148Y-132411949D01*
X103061135Y-132368081D01*
X103060011Y-132366636D01*
X103034290Y-132331598D01*
X102993520Y-132274243D01*
X102945999Y-132206232D01*
X102907407Y-132148790D01*
X102881276Y-132102418D01*
X102876250Y-132076489D01*
X102889521Y-132063923D01*
X102898443Y-132063336D01*
X102946490Y-132062376D01*
X103034960Y-132061454D01*
X103162686Y-132060570D01*
X103328504Y-132059723D01*
X103531248Y-132058914D01*
X103769752Y-132058142D01*
X104042851Y-132057406D01*
X104349379Y-132056707D01*
X104688170Y-132056044D01*
X105058059Y-132055416D01*
X105457881Y-132054824D01*
X105886469Y-132054267D01*
X106342659Y-132053745D01*
X106825284Y-132053258D01*
X107333180Y-132052804D01*
X107865180Y-132052385D01*
X108420118Y-132051999D01*
X108996831Y-132051647D01*
X109594150Y-132051327D01*
X110210912Y-132051041D01*
X110845951Y-132050786D01*
X111498101Y-132050564D01*
X112166196Y-132050373D01*
X112849071Y-132050214D01*
X113545560Y-132050087D01*
X114254498Y-132049990D01*
X114974719Y-132049923D01*
X115705058Y-132049887D01*
X116444349Y-132049881D01*
X117191426Y-132049904D01*
G36*
X117191426Y-132049904D02*
G01*
X117945124Y-132049957D01*
X118704278Y-132050039D01*
X119467721Y-132050150D01*
X120234288Y-132050289D01*
X121002814Y-132050456D01*
X121772132Y-132050651D01*
X122541078Y-132050874D01*
X123308486Y-132051124D01*
X124073191Y-132051400D01*
X124834025Y-132051704D01*
X125589825Y-132052033D01*
X126339425Y-132052389D01*
X127081658Y-132052771D01*
X127815360Y-132053177D01*
X128539364Y-132053609D01*
X129252506Y-132054066D01*
X129953620Y-132054547D01*
X130641539Y-132055052D01*
X131315099Y-132055582D01*
X131973134Y-132056135D01*
X132614478Y-132056711D01*
X133237966Y-132057310D01*
X133842432Y-132057932D01*
X134426711Y-132058576D01*
X134989637Y-132059242D01*
X135530044Y-132059930D01*
X136046767Y-132060639D01*
X136538640Y-132061370D01*
X137004499Y-132062121D01*
X137443176Y-132062893D01*
X137853507Y-132063685D01*
X138234326Y-132064497D01*
X138584467Y-132065329D01*
X138902765Y-132066180D01*
X139188055Y-132067050D01*
X139439170Y-132067938D01*
X139654945Y-132068845D01*
X139834215Y-132069771D01*
X139975814Y-132070714D01*
X140078576Y-132071674D01*
X140141336Y-132072652D01*
X140162928Y-132073647D01*
X140165314Y-132094351D01*
X140147254Y-132131855D01*
X140139840Y-132141631D01*
X140108976Y-132190868D01*
X140076389Y-132251907D01*
X140066123Y-132272180D01*
X140034206Y-132328385D01*
X140008645Y-132364544D01*
X139995173Y-132381663D01*
X139982187Y-132412173D01*
X139977699Y-132427991D01*
X139954828Y-132473847D01*
X139919341Y-132534162D01*
X139878887Y-132596769D01*
X139841118Y-132649498D01*
X139813684Y-132680181D01*
X139812694Y-132680579D01*
X139798475Y-132682162D01*
X139767368Y-132683682D01*
X139718666Y-132685143D01*
X139651664Y-132686544D01*
X139565653Y-132687887D01*
X139459928Y-132689173D01*
X139333780Y-132690403D01*
X139186504Y-132691578D01*
X139017393Y-132692700D01*
X138825739Y-132693768D01*
X138610837Y-132694785D01*
X138371978Y-132695751D01*
X138108457Y-132696668D01*
X137819567Y-132697537D01*
X137504600Y-132698358D01*
X137162849Y-132699132D01*
X136793609Y-132699862D01*
X136396172Y-132700548D01*
X135969831Y-132701190D01*
X135513880Y-132701791D01*
X135027612Y-132702351D01*
X134510319Y-132702871D01*
X133961296Y-132703352D01*
X133379834Y-132703796D01*
X132765229Y-132704204D01*
X132116771Y-132704576D01*
X131433756Y-132704913D01*
X130715475Y-132705218D01*
X129961223Y-132705490D01*
X129170291Y-132705731D01*
X128341974Y-132705942D01*
X127475565Y-132706124D01*
X126570357Y-132706279D01*
X125625642Y-132706406D01*
X124640715Y-132706508D01*
X123614868Y-132706586D01*
X122547395Y-132706640D01*
X122342748Y-132706648D01*
X121213745Y-132706727D01*
X120121675Y-132706855D01*
X119066729Y-132707032D01*
X118049101Y-132707257D01*
X117068983Y-132707531D01*
X116126569Y-132707854D01*
X115222051Y-132708224D01*
X114355622Y-132708642D01*
X113527475Y-132709108D01*
X112737803Y-132709621D01*
X111986800Y-132710181D01*
X111274657Y-132710788D01*
X110601568Y-132711442D01*
X109967725Y-132712142D01*
X109373323Y-132712888D01*
X108818552Y-132713680D01*
X108303607Y-132714517D01*
X107828681Y-132715401D01*
X107393966Y-132716329D01*
X106999655Y-132717302D01*
X106645941Y-132718320D01*
X106333017Y-132719382D01*
X106061076Y-132720488D01*
X105830311Y-132721639D01*
X105640914Y-132722833D01*
X105493079Y-132724071D01*
X105386999Y-132725351D01*
X105322867Y-132726675D01*
X105300874Y-132728042D01*
X105300990Y-132762065D01*
X105323187Y-132814278D01*
X105361675Y-132870756D01*
X105386259Y-132900753D01*
X105422619Y-132947591D01*
X105448770Y-132986377D01*
X105451570Y-132990850D01*
X105511600Y-133084143D01*
X105568700Y-133168450D01*
X105618025Y-133237023D01*
X105654729Y-133283116D01*
X105673968Y-133299980D01*
X105678720Y-133300746D01*
X105692187Y-133322040D01*
X105694370Y-133334079D01*
X105714338Y-133369665D01*
X105717722Y-133373793D01*
X105743850Y-133408533D01*
X105785603Y-133465958D01*
X105836160Y-133536508D01*
X105888698Y-133610622D01*
X105936394Y-133678740D01*
X105972426Y-133731303D01*
X105975120Y-133735305D01*
X106011754Y-133788448D01*
X106059522Y-133856276D01*
X106111343Y-133928916D01*
X106160136Y-133996492D01*
X106198820Y-134049132D01*
X106220314Y-134076961D01*
X106230405Y-134090016D01*
X106242520Y-134115611D01*
X106242609Y-134116302D01*
X106256446Y-134140688D01*
X106289283Y-134188035D01*
X106334525Y-134248796D01*
X106383116Y-134314006D01*
X106438585Y-134392100D01*
X106480824Y-134455474D01*
X106497475Y-134481314D01*
X106535823Y-134536330D01*
X106564628Y-134571891D01*
X106581241Y-134590973D01*
X106608606Y-134633480D01*
X106619815Y-134652724D01*
X106652374Y-134702196D01*
X106699593Y-134770786D01*
X106755588Y-134849829D01*
X106789270Y-134896860D01*
X106857784Y-134993069D01*
X106922437Y-135084466D01*
X106972770Y-135156294D01*
X106984778Y-135173532D01*
X107042440Y-135255620D01*
X107109523Y-135350334D01*
X107173854Y-135440472D01*
X107199162Y-135475820D01*
X107252277Y-135550400D01*
X107295745Y-135611948D01*
X107322020Y-135649804D01*
X107338864Y-135674610D01*
X107406287Y-135771265D01*
X107468801Y-135857028D01*
X107521762Y-135925817D01*
X107560525Y-135971550D01*
X107580444Y-135988146D01*
X107606142Y-135975703D01*
X107652669Y-135930017D01*
X107713027Y-135854797D01*
X107783850Y-135754294D01*
X107861770Y-135632763D01*
X107874448Y-135613330D01*
X107904104Y-135573592D01*
X107920666Y-135552748D01*
X107951949Y-135509198D01*
X107971402Y-135481047D01*
X108010814Y-135424887D01*
X108062115Y-135352231D01*
X108118538Y-135272640D01*
X108173317Y-135195675D01*
X108219685Y-135130896D01*
X108295229Y-135025555D01*
X108379377Y-134907178D01*
X108438985Y-134821799D01*
X108474454Y-134768838D01*
X108486187Y-134747717D01*
X108488708Y-134740113D01*
X108508393Y-134711961D01*
X108513305Y-134705948D01*
X108541665Y-134668299D01*
X108584698Y-134609099D01*
X108635193Y-134538230D01*
X108652282Y-134514082D01*
X108700940Y-134446002D01*
X108739615Y-134392850D01*
X108761153Y-134364498D01*
X108770791Y-134351793D01*
X108782520Y-134328079D01*
X108786917Y-134319287D01*
X108811407Y-134282235D01*
X108852579Y-134224027D01*
X108904923Y-134152561D01*
X108932391Y-134115390D01*
X108989211Y-134037185D01*
X109036892Y-133969886D01*
X109067268Y-133924946D01*
X109070028Y-133920613D01*
X109102242Y-133872210D01*
X109125766Y-133840280D01*
X109130167Y-133834771D01*
X109156818Y-133798716D01*
X109198374Y-133740721D01*
X109247924Y-133670396D01*
X109251875Y-133664717D01*
X109286098Y-133613521D01*
X109314173Y-133571008D01*
X109340139Y-133536379D01*
X109368036Y-133508838D01*
X109401902Y-133487585D01*
X109445779Y-133471822D01*
X109503703Y-133460751D01*
X109579716Y-133453573D01*
X109677856Y-133449491D01*
X109802163Y-133447705D01*
X109956675Y-133447418D01*
X110145433Y-133447831D01*
X110372475Y-133448146D01*
X110585888Y-133448484D01*
X110806830Y-133449753D01*
X110990587Y-133451945D01*
X111136131Y-133455036D01*
X111242434Y-133459003D01*
X111308468Y-133463824D01*
X111333204Y-133469475D01*
X111335849Y-133485941D01*
X111318578Y-133519798D01*
X111299011Y-133542135D01*
X111264092Y-133588428D01*
X111244639Y-133616579D01*
X111205227Y-133672739D01*
X111153926Y-133745394D01*
X111097503Y-133824985D01*
X111042724Y-133901951D01*
X110996356Y-133966730D01*
X110932058Y-134056380D01*
X110853229Y-134167336D01*
X110795857Y-134249800D01*
X110757680Y-134307107D01*
X110736433Y-134342595D01*
X110729854Y-134359599D01*
X110729563Y-134363386D01*
X110713979Y-134379585D01*
X110701456Y-134390230D01*
X110669754Y-134428557D01*
X110626094Y-134486594D01*
X110576782Y-134555673D01*
X110528127Y-134627126D01*
X110486437Y-134692283D01*
X110473383Y-134711884D01*
X110437354Y-134757264D01*
X110409047Y-134792474D01*
X110374044Y-134842824D01*
X110371507Y-134846733D01*
X110342757Y-134889157D01*
X110296179Y-134956265D01*
X110237641Y-135039648D01*
X110173013Y-135130896D01*
X110106172Y-135225006D01*
X110022897Y-135342565D01*
X109942763Y-135455975D01*
X109876490Y-135550080D01*
X109764782Y-135708927D01*
X109628142Y-135902564D01*
X109511666Y-136066777D01*
X109416639Y-136199757D01*
X109344348Y-136299691D01*
X109335204Y-136312306D01*
X109291025Y-136376369D01*
X109259938Y-136426640D01*
X109248187Y-136453149D01*
X109247678Y-136458630D01*
X109232312Y-136475124D01*
X109225659Y-136478427D01*
X109198889Y-136506720D01*
X109164147Y-136554499D01*
X109139982Y-136589984D01*
X109091764Y-136658563D01*
X109031978Y-136742048D01*
X108968355Y-136829579D01*
X108915851Y-136902017D01*
X108868635Y-136968840D01*
X108836634Y-137016116D01*
X108824854Y-137036623D01*
X108821809Y-137043210D01*
X108799272Y-137077594D01*
X108759574Y-137133405D01*
X108708437Y-137202491D01*
X108661982Y-137268846D01*
X108616585Y-137348226D01*
X108591968Y-137411977D01*
X108590159Y-137454405D01*
X108613187Y-137469813D01*
X108619189Y-137470751D01*
X108634354Y-137492587D01*
X108634530Y-137494202D01*
X108649312Y-137524241D01*
X108683208Y-137575948D01*
X108729604Y-137639146D01*
X108736302Y-137647881D01*
X108781169Y-137708097D01*
X108812850Y-137753565D01*
X108824854Y-137775023D01*
X108824901Y-137775390D01*
X108838048Y-137798046D01*
X108871205Y-137847361D01*
X108919563Y-137916345D01*
X108978312Y-137998009D01*
X109033005Y-138073604D01*
X109106560Y-138176361D01*
X109174469Y-138272324D01*
X109227020Y-138347832D01*
X109234413Y-138358600D01*
X109284715Y-138431160D01*
X109328880Y-138493775D01*
X109358080Y-138533912D01*
X109404328Y-138596875D01*
X109475457Y-138697179D01*
X109568964Y-138831484D01*
X109684369Y-138999105D01*
X109739805Y-139077945D01*
X109789109Y-139144204D01*
X109825599Y-139189012D01*
X109843945Y-139205480D01*
X109851394Y-139208062D01*
X109862020Y-139234361D01*
X109864348Y-139244757D01*
X109886735Y-139285276D01*
X109925182Y-139334903D01*
X109942926Y-139355724D01*
X109975580Y-139398856D01*
X109988682Y-139424046D01*
X109988762Y-139424800D01*
X110002541Y-139451155D01*
X110035370Y-139500089D01*
X110080587Y-139561629D01*
X110081414Y-139562715D01*
X110129058Y-139627890D01*
X110166520Y-139683917D01*
X110185756Y-139718771D01*
X110196482Y-139738641D01*
X110221190Y-139755813D01*
X110226981Y-139756606D01*
X110243020Y-139777873D01*
X110245203Y-139789913D01*
X110265171Y-139825498D01*
X110268555Y-139829626D01*
X110294683Y-139864367D01*
X110336436Y-139921792D01*
X110386993Y-139992341D01*
X110439531Y-140066455D01*
X110487227Y-140134574D01*
X110523259Y-140187137D01*
X110529505Y-140196370D01*
X110565284Y-140248040D01*
X110612022Y-140314368D01*
X110662668Y-140385488D01*
X110710173Y-140451534D01*
X110747484Y-140502642D01*
X110767553Y-140528946D01*
X110768957Y-140530624D01*
X110793917Y-140564763D01*
X110826467Y-140613613D01*
X110854951Y-140656500D01*
X110901318Y-140723875D01*
X110951770Y-140795384D01*
X110996284Y-140858030D01*
X111039832Y-140920145D01*
X111068520Y-140962020D01*
X111094564Y-140998479D01*
X111126729Y-141037478D01*
X111140367Y-141053600D01*
X111153187Y-141078126D01*
X111164333Y-141099318D01*
X111194816Y-141144448D01*
X111237854Y-141203269D01*
X111279148Y-141261101D01*
X111310520Y-141311498D01*
X111322520Y-141339945D01*
X111322433Y-141340539D01*
X111308759Y-141346673D01*
X111270066Y-141351781D01*
X111203880Y-141355927D01*
X111107728Y-141359177D01*
X110979138Y-141361593D01*
X110815638Y-141363239D01*
X110614753Y-141364180D01*
X110374012Y-141364480D01*
X110349980Y-141364483D01*
X110125926Y-141364825D01*
X109939794Y-141365163D01*
X109787574Y-141364709D01*
X109665256Y-141362674D01*
X109568828Y-141358268D01*
X109494280Y-141350703D01*
X109437601Y-141339190D01*
X109394781Y-141322940D01*
X109361809Y-141301165D01*
X109334675Y-141273074D01*
X109309366Y-141237880D01*
X109281874Y-141194793D01*
X109248187Y-141143024D01*
X109243203Y-141135678D01*
X109188673Y-141057789D01*
X109135686Y-140985860D01*
X109095067Y-140934618D01*
X109081430Y-140918264D01*
X109049699Y-140875825D01*
X109036859Y-140851247D01*
X109036721Y-140850263D01*
X109022829Y-140823725D01*
X108990650Y-140774094D01*
X108946562Y-140711259D01*
X108897015Y-140642461D01*
X108853219Y-140580936D01*
X108824854Y-140540278D01*
X108799582Y-140503976D01*
X108766005Y-140458016D01*
X108760790Y-140451062D01*
X108730518Y-140409355D01*
X108685940Y-140346905D01*
X108634697Y-140274396D01*
X108617257Y-140249633D01*
X108569779Y-140182564D01*
X108532965Y-140131059D01*
X108513630Y-140104672D01*
X108498573Y-140083720D01*
X108463943Y-140033988D01*
X108415895Y-139964239D01*
X108359926Y-139882422D01*
X108309969Y-139809462D01*
X108260586Y-139738023D01*
X108223916Y-139685744D01*
X108205484Y-139660563D01*
X108198922Y-139652075D01*
X108170476Y-139613205D01*
X108127839Y-139553816D01*
X108077841Y-139483527D01*
X108027308Y-139411954D01*
X107983068Y-139348715D01*
X107951949Y-139303428D01*
X107933247Y-139276810D01*
X107904104Y-139239034D01*
X107891649Y-139223390D01*
X107861770Y-139180416D01*
X107772539Y-139042978D01*
X107693815Y-138934370D01*
X107631564Y-138864236D01*
X107585611Y-138832383D01*
X107555783Y-138838617D01*
X107552372Y-138842606D01*
X107517859Y-138885690D01*
X107473797Y-138943741D01*
X107427241Y-139007043D01*
X107385249Y-139065881D01*
X107354879Y-139110539D01*
X107343187Y-139131300D01*
X107339396Y-139142307D01*
X107316729Y-139172648D01*
X107292759Y-139201075D01*
X107258520Y-139248342D01*
X107247774Y-139264113D01*
X107211579Y-139315413D01*
X107161527Y-139385082D01*
X107105062Y-139462720D01*
X107072474Y-139507672D01*
X107026592Y-139572653D01*
X106995070Y-139619548D01*
X106983354Y-139640408D01*
X106981020Y-139648307D01*
X106961826Y-139677331D01*
X106949377Y-139692532D01*
X106909897Y-139743457D01*
X106862661Y-139806815D01*
X106814329Y-139873366D01*
X106771561Y-139933874D01*
X106741015Y-139979099D01*
X106729354Y-139999804D01*
X106725543Y-140010502D01*
X106702895Y-140040481D01*
X106679285Y-140068190D01*
X106644687Y-140115007D01*
X106644672Y-140115030D01*
X106616345Y-140155743D01*
X106572628Y-140217378D01*
X106522979Y-140286601D01*
X106518487Y-140292853D01*
X106475257Y-140355894D01*
X106444643Y-140405627D01*
X106433020Y-140431761D01*
X106430060Y-140442584D01*
X106404602Y-140469136D01*
X106402550Y-140470453D01*
X106371359Y-140501602D01*
X106336652Y-140549563D01*
X106306433Y-140594916D01*
X106258796Y-140662139D01*
X106206320Y-140733163D01*
X106202684Y-140737983D01*
X106158632Y-140798204D01*
X106127391Y-140844199D01*
X106115520Y-140866348D01*
X106113180Y-140874981D01*
X106093751Y-140904998D01*
X106081544Y-140920649D01*
X106047385Y-140966758D01*
X105999351Y-141032896D01*
X105943713Y-141110480D01*
X105938719Y-141117516D01*
X105898729Y-141175778D01*
X105865755Y-141224177D01*
X105835687Y-141263617D01*
X105804413Y-141295003D01*
X105767821Y-141319242D01*
X105721799Y-141337239D01*
X105662237Y-141349898D01*
X105585022Y-141358126D01*
X105486043Y-141362828D01*
X105361189Y-141364908D01*
X105206348Y-141365274D01*
X105017408Y-141364829D01*
X104790259Y-141364480D01*
X104741909Y-141364469D01*
X104511619Y-141364069D01*
X104320541Y-141363032D01*
X104166051Y-141361290D01*
X104045530Y-141358774D01*
X103956354Y-141355413D01*
X103895902Y-141351138D01*
X103861554Y-141345881D01*
X103850687Y-141339570D01*
X103850695Y-141339150D01*
X103863633Y-141306371D01*
X103898544Y-141246304D01*
X103951527Y-141164943D01*
X104018685Y-141068282D01*
X104096118Y-140962313D01*
X104105343Y-140949916D01*
X104163167Y-140870388D01*
X104229541Y-140776895D01*
X104291867Y-140687146D01*
X104298479Y-140677497D01*
X104366647Y-140578967D01*
X104441030Y-140472752D01*
X104506665Y-140380230D01*
X104523105Y-140357261D01*
X104573724Y-140286285D01*
X104614982Y-140228073D01*
X104639208Y-140193433D01*
X104657050Y-140167948D01*
X104692703Y-140119350D01*
X104698040Y-140112238D01*
X104728697Y-140070112D01*
X104774092Y-140006827D01*
X104826893Y-139932694D01*
X104879769Y-139858027D01*
X104925390Y-139793138D01*
X104956426Y-139748340D01*
X104966591Y-139733742D01*
X105000877Y-139685591D01*
X105049293Y-139618306D01*
X105104812Y-139541669D01*
X105137708Y-139495970D01*
X105183441Y-139430679D01*
X105214849Y-139383506D01*
X105226520Y-139362421D01*
X105230367Y-139352295D01*
X105252979Y-139322978D01*
X105271998Y-139301148D01*
X105306115Y-139255698D01*
X105311276Y-139248125D01*
X105341575Y-139204605D01*
X105386441Y-139140886D01*
X105438187Y-139067896D01*
X105454225Y-139045327D01*
X105504686Y-138974032D01*
X105545925Y-138915359D01*
X105570259Y-138880225D01*
X105579221Y-138867159D01*
X105612319Y-138819689D01*
X105659388Y-138752713D01*
X105713354Y-138676313D01*
X105739459Y-138639407D01*
X105792252Y-138564543D01*
X105835419Y-138503034D01*
X105861520Y-138465464D01*
X105863450Y-138462650D01*
X105893271Y-138419967D01*
X105937928Y-138356814D01*
X105988520Y-138285783D01*
X105993804Y-138278387D01*
X106044228Y-138207359D01*
X106087773Y-138145303D01*
X106115520Y-138104918D01*
X106141028Y-138068975D01*
X106169847Y-138033428D01*
X106171380Y-138031763D01*
X106198908Y-137996043D01*
X106232506Y-137946063D01*
X106262965Y-137900743D01*
X106310818Y-137833506D01*
X106363388Y-137762462D01*
X106366384Y-137758488D01*
X106410733Y-137696809D01*
X106442216Y-137647833D01*
X106454187Y-137621852D01*
X106457907Y-137610821D01*
X106485937Y-137589158D01*
X106500607Y-137580133D01*
X106517687Y-137547152D01*
X106522522Y-137527370D01*
X106549437Y-137490980D01*
X106564558Y-137477489D01*
X106579380Y-137458086D01*
X106585216Y-137434506D01*
X106580108Y-137402967D01*
X106562103Y-137359687D01*
X106529245Y-137300884D01*
X106479579Y-137222777D01*
X106411149Y-137121584D01*
X106322001Y-136993523D01*
X106210178Y-136834813D01*
X106146776Y-136744781D01*
X106079426Y-136648631D01*
X106020547Y-136564070D01*
X105978148Y-136502569D01*
X105941940Y-136450533D01*
X105902454Y-136396197D01*
X105877015Y-136364092D01*
X105862580Y-136347020D01*
X105829770Y-136300998D01*
X105824077Y-136292040D01*
X105795350Y-136248901D01*
X105752048Y-136185262D01*
X105701139Y-136111392D01*
X105690007Y-136095333D01*
X105628883Y-136007037D01*
X105568766Y-135920039D01*
X105521223Y-135851077D01*
X105488054Y-135803874D01*
X105447532Y-135748901D01*
X105420444Y-135715405D01*
X105411459Y-135704883D01*
X105377914Y-135659476D01*
X105339786Y-135602154D01*
X105327157Y-135582638D01*
X105283019Y-135517423D01*
X105226613Y-135436699D01*
X105167029Y-135353545D01*
X105144534Y-135322480D01*
X105070365Y-135219061D01*
X104990806Y-135107001D01*
X104919604Y-135005631D01*
X104878366Y-134946575D01*
X104801198Y-134836405D01*
X104719222Y-134719694D01*
X104644437Y-134613536D01*
X104593428Y-134541028D01*
X104521063Y-134437489D01*
X104453670Y-134340382D01*
X104401020Y-134263748D01*
X104390684Y-134248612D01*
X104343657Y-134180829D01*
X104305283Y-134127179D01*
X104283045Y-134098161D01*
X104278214Y-134092312D01*
X104249922Y-134054694D01*
X104207141Y-133995386D01*
X104157088Y-133924349D01*
X104153143Y-133918691D01*
X104090214Y-133828863D01*
X104023979Y-133734944D01*
X103968147Y-133656378D01*
X103914187Y-133580121D01*
X103848078Y-133485416D01*
X103787187Y-133397058D01*
X103778746Y-133384722D01*
X103729483Y-133313589D01*
X103687171Y-133253815D01*
X103660187Y-133217259D01*
X103634496Y-133183257D01*
X103596687Y-133129922D01*
X103595705Y-133128469D01*
X103556633Y-133071777D01*
X103507150Y-133001436D01*
X103454186Y-132927118D01*
X103404674Y-132858492D01*
X103365543Y-132805228D01*
X103343727Y-132776998D01*
X103333481Y-132764046D01*
X103321520Y-132741242D01*
X103310397Y-132721892D01*
X103280497Y-132676735D01*
X103237869Y-132614488D01*
X103188567Y-132543826D01*
X103138643Y-132473422D01*
X103094148Y-132411949D01*
X103061135Y-132368081D01*
X103060011Y-132366636D01*
X103034290Y-132331598D01*
X102993520Y-132274243D01*
X102945999Y-132206232D01*
X102907407Y-132148790D01*
X102881276Y-132102418D01*
X102876250Y-132076489D01*
X102889521Y-132063923D01*
X102898443Y-132063336D01*
X102946490Y-132062376D01*
X103034960Y-132061454D01*
X103162686Y-132060570D01*
X103328504Y-132059723D01*
X103531248Y-132058914D01*
X103769752Y-132058142D01*
X104042851Y-132057406D01*
X104349379Y-132056707D01*
X104688170Y-132056044D01*
X105058059Y-132055416D01*
X105457881Y-132054824D01*
X105886469Y-132054267D01*
X106342659Y-132053745D01*
X106825284Y-132053258D01*
X107333180Y-132052804D01*
X107865180Y-132052385D01*
X108420118Y-132051999D01*
X108996831Y-132051647D01*
X109594150Y-132051327D01*
X110210912Y-132051041D01*
X110845951Y-132050786D01*
X111498101Y-132050564D01*
X112166196Y-132050373D01*
X112849071Y-132050214D01*
X113545560Y-132050087D01*
X114254498Y-132049990D01*
X114974719Y-132049923D01*
X115705058Y-132049887D01*
X116444349Y-132049881D01*
X117191426Y-132049904D01*
G37*
%TD*%
D11*
%TO.C,SW12*%
X195579490Y-113896240D03*
X189700409Y-110078320D03*
D12*
X195887303Y-111127151D03*
X192113285Y-108676275D03*
%TD*%
D13*
%TO.C,J5*%
X138199891Y-104402551D03*
D14*
X138199891Y-106402551D03*
X138199891Y-108402551D03*
X138199891Y-110402551D03*
X138199891Y-112402551D03*
%TD*%
M02*
