%TF.GenerationSoftware,KiCad,Pcbnew,7.0.9*%
%TF.CreationDate,2023-12-20T17:36:05-07:00*%
%TF.ProjectId,vb_controller_shoulder_right_pcb,76625f63-6f6e-4747-926f-6c6c65725f73,4a*%
%TF.SameCoordinates,Original*%
%TF.FileFunction,Copper,L1,Top*%
%TF.FilePolarity,Positive*%
%FSLAX46Y46*%
G04 Gerber Fmt 4.6, Leading zero omitted, Abs format (unit mm)*
G04 Created by KiCad (PCBNEW 7.0.9) date 2023-12-20 17:36:05*
%MOMM*%
%LPD*%
G01*
G04 APERTURE LIST*
G04 Aperture macros list*
%AMRoundRect*
0 Rectangle with rounded corners*
0 $1 Rounding radius*
0 $2 $3 $4 $5 $6 $7 $8 $9 X,Y pos of 4 corners*
0 Add a 4 corners polygon primitive as box body*
4,1,4,$2,$3,$4,$5,$6,$7,$8,$9,$2,$3,0*
0 Add four circle primitives for the rounded corners*
1,1,$1+$1,$2,$3*
1,1,$1+$1,$4,$5*
1,1,$1+$1,$6,$7*
1,1,$1+$1,$8,$9*
0 Add four rect primitives between the rounded corners*
20,1,$1+$1,$2,$3,$4,$5,0*
20,1,$1+$1,$4,$5,$6,$7,0*
20,1,$1+$1,$6,$7,$8,$9,0*
20,1,$1+$1,$8,$9,$2,$3,0*%
%AMHorizOval*
0 Thick line with rounded ends*
0 $1 width*
0 $2 $3 position (X,Y) of the first rounded end (center of the circle)*
0 $4 $5 position (X,Y) of the second rounded end (center of the circle)*
0 Add line between two ends*
20,1,$1,$2,$3,$4,$5,0*
0 Add two circle primitives to create the rounded ends*
1,1,$1,$2,$3*
1,1,$1,$4,$5*%
%AMRotRect*
0 Rectangle, with rotation*
0 The origin of the aperture is its center*
0 $1 length*
0 $2 width*
0 $3 Rotation angle, in degrees counterclockwise*
0 Add horizontal line*
21,1,$1,$2,0,0,$3*%
G04 Aperture macros list end*
%TA.AperFunction,SMDPad,CuDef*%
%ADD10RotRect,0.300000X0.300000X271.239585*%
%TD*%
%TA.AperFunction,SMDPad,CuDef*%
%ADD11RotRect,0.300000X0.300000X264.753270*%
%TD*%
%TA.AperFunction,SMDPad,CuDef*%
%ADD12RotRect,0.300000X0.300000X277.725900*%
%TD*%
%TA.AperFunction,SMDPad,CuDef*%
%ADD13RotRect,0.300000X0.300000X258.266956*%
%TD*%
%TA.AperFunction,SMDPad,CuDef*%
%ADD14RotRect,0.300000X0.300000X284.212214*%
%TD*%
%TA.AperFunction,SMDPad,CuDef*%
%ADD15RotRect,0.300000X0.300000X251.780641*%
%TD*%
%TA.AperFunction,SMDPad,CuDef*%
%ADD16RotRect,0.300000X0.300000X290.698529*%
%TD*%
%TA.AperFunction,SMDPad,CuDef*%
%ADD17RotRect,0.300000X0.300000X245.294326*%
%TD*%
%TA.AperFunction,SMDPad,CuDef*%
%ADD18RotRect,0.300000X0.300000X297.184844*%
%TD*%
%TA.AperFunction,SMDPad,CuDef*%
%ADD19RotRect,0.300000X0.300000X238.808012*%
%TD*%
%TA.AperFunction,SMDPad,CuDef*%
%ADD20RotRect,0.300000X0.300000X303.671158*%
%TD*%
%TA.AperFunction,SMDPad,CuDef*%
%ADD21RotRect,0.300000X0.300000X232.321697*%
%TD*%
%TA.AperFunction,SMDPad,CuDef*%
%ADD22RotRect,0.300000X0.300000X310.157473*%
%TD*%
%TA.AperFunction,SMDPad,CuDef*%
%ADD23RotRect,0.300000X0.300000X225.835382*%
%TD*%
%TA.AperFunction,SMDPad,CuDef*%
%ADD24RotRect,0.300000X0.300000X316.643788*%
%TD*%
%TA.AperFunction,SMDPad,CuDef*%
%ADD25RotRect,0.300000X0.300000X219.349068*%
%TD*%
%TA.AperFunction,SMDPad,CuDef*%
%ADD26RotRect,0.300000X0.300000X323.130102*%
%TD*%
%TA.AperFunction,SMDPad,CuDef*%
%ADD27RotRect,0.300000X0.300000X212.862753*%
%TD*%
%TA.AperFunction,SMDPad,CuDef*%
%ADD28RotRect,0.300000X0.300000X208.357637*%
%TD*%
%TA.AperFunction,SMDPad,CuDef*%
%ADD29O,0.300000X1.187434*%
%TD*%
%TA.AperFunction,SMDPad,CuDef*%
%ADD30O,0.300000X3.377409*%
%TD*%
%TA.AperFunction,SMDPad,CuDef*%
%ADD31O,0.300000X3.967623*%
%TD*%
%TA.AperFunction,SMDPad,CuDef*%
%ADD32O,0.300000X4.506459*%
%TD*%
%TA.AperFunction,SMDPad,CuDef*%
%ADD33O,0.300000X4.434032*%
%TD*%
%TA.AperFunction,SMDPad,CuDef*%
%ADD34O,0.300000X4.169127*%
%TD*%
%TA.AperFunction,SMDPad,CuDef*%
%ADD35O,0.300000X2.937844*%
%TD*%
%TA.AperFunction,SMDPad,CuDef*%
%ADD36O,0.300000X1.500000*%
%TD*%
%TA.AperFunction,SMDPad,CuDef*%
%ADD37RotRect,0.300000X0.300000X151.642363*%
%TD*%
%TA.AperFunction,SMDPad,CuDef*%
%ADD38RotRect,0.300000X0.300000X145.156049*%
%TD*%
%TA.AperFunction,SMDPad,CuDef*%
%ADD39RotRect,0.300000X0.300000X36.869898*%
%TD*%
%TA.AperFunction,SMDPad,CuDef*%
%ADD40RotRect,0.300000X0.300000X138.669734*%
%TD*%
%TA.AperFunction,SMDPad,CuDef*%
%ADD41RotRect,0.300000X0.300000X41.375014*%
%TD*%
%TA.AperFunction,SMDPad,CuDef*%
%ADD42RotRect,0.300000X0.300000X132.183419*%
%TD*%
%TA.AperFunction,SMDPad,CuDef*%
%ADD43RotRect,0.300000X0.300000X47.861329*%
%TD*%
%TA.AperFunction,SMDPad,CuDef*%
%ADD44RotRect,0.300000X0.300000X125.697105*%
%TD*%
%TA.AperFunction,SMDPad,CuDef*%
%ADD45RotRect,0.300000X0.300000X54.347643*%
%TD*%
%TA.AperFunction,SMDPad,CuDef*%
%ADD46RotRect,0.300000X0.300000X119.210790*%
%TD*%
%TA.AperFunction,SMDPad,CuDef*%
%ADD47RotRect,0.300000X0.300000X60.833958*%
%TD*%
%TA.AperFunction,SMDPad,CuDef*%
%ADD48RotRect,0.300000X0.300000X112.724475*%
%TD*%
%TA.AperFunction,SMDPad,CuDef*%
%ADD49RotRect,0.300000X0.300000X67.320273*%
%TD*%
%TA.AperFunction,SMDPad,CuDef*%
%ADD50RotRect,0.300000X0.300000X106.238161*%
%TD*%
%TA.AperFunction,SMDPad,CuDef*%
%ADD51RotRect,0.300000X0.300000X73.806588*%
%TD*%
%TA.AperFunction,SMDPad,CuDef*%
%ADD52RotRect,0.300000X0.300000X99.751846*%
%TD*%
%TA.AperFunction,SMDPad,CuDef*%
%ADD53RotRect,0.300000X0.300000X80.292902*%
%TD*%
%TA.AperFunction,SMDPad,CuDef*%
%ADD54RotRect,0.300000X0.300000X93.265531*%
%TD*%
%TA.AperFunction,SMDPad,CuDef*%
%ADD55RotRect,0.300000X0.300000X86.779217*%
%TD*%
%TA.AperFunction,ComponentPad*%
%ADD56C,2.200000*%
%TD*%
%TA.AperFunction,ComponentPad*%
%ADD57RoundRect,0.250000X-0.194454X0.689429X-0.689429X0.194454X0.194454X-0.689429X0.689429X-0.194454X0*%
%TD*%
%TA.AperFunction,ComponentPad*%
%ADD58HorizOval,1.200000X-0.194454X0.194454X0.194454X-0.194454X0*%
%TD*%
%TA.AperFunction,Conductor*%
%ADD59C,0.500000*%
%TD*%
G04 APERTURE END LIST*
D10*
%TO.P,SW9,1,1*%
%TO.N,Net-(J1-Pin_2)*%
X118154082Y-111299414D03*
D11*
X117871389Y-111289525D03*
D12*
X118436085Y-111277306D03*
D13*
X117591620Y-111247764D03*
D14*
X118713785Y-111223482D03*
D15*
X117318361Y-111174666D03*
D16*
X118983627Y-111138632D03*
D17*
X117055108Y-111071166D03*
D18*
X119242156Y-111023843D03*
D19*
X116805232Y-110938591D03*
D20*
X119486063Y-110880583D03*
D21*
X116571932Y-110778637D03*
D22*
X119712226Y-110710687D03*
D23*
X116358195Y-110593352D03*
D24*
X119917748Y-110516330D03*
D25*
X116166757Y-110385108D03*
D26*
X120100000Y-110299999D03*
D27*
X116000069Y-110156571D03*
D28*
X115900001Y-109987434D03*
D29*
X115900000Y-109393717D03*
D30*
X119500000Y-109182526D03*
D31*
X117100000Y-109107476D03*
D32*
X118300000Y-109038757D03*
D33*
%TO.P,SW9,2,2*%
%TO.N,Net-(J1-Pin_1)*%
X117700000Y-108549224D03*
D34*
X118900000Y-108516020D03*
D35*
X116500000Y-108347985D03*
D36*
X120100000Y-108050000D03*
D37*
X115900000Y-107612566D03*
D38*
X116048223Y-107371642D03*
D39*
X120100000Y-107300001D03*
D40*
X116222712Y-107149004D03*
D41*
X119975998Y-107147539D03*
D42*
X116421235Y-106947503D03*
D43*
X119777318Y-106946193D03*
D44*
X116641250Y-106769718D03*
D45*
X119557164Y-106768579D03*
D46*
X116879940Y-106617925D03*
D47*
X119318355Y-106616973D03*
D48*
X117134250Y-106494068D03*
D49*
X119063948Y-106493314D03*
D50*
X117400924Y-106399731D03*
D51*
X118797201Y-106399186D03*
D52*
X117676547Y-106336124D03*
D53*
X118521528Y-106335794D03*
D54*
X117957592Y-106304060D03*
D55*
X118240459Y-106303949D03*
%TD*%
D56*
%TO.P,JW8,1,1*%
%TO.N,Net-(J1-Pin_1)*%
X132000000Y-113000000D03*
%TD*%
%TO.P,JW5,1,1*%
%TO.N,Net-(J1-Pin_2)*%
X129250000Y-116000000D03*
%TD*%
D57*
%TO.P,J1,1,Pin_1*%
%TO.N,Net-(J1-Pin_1)*%
X126400000Y-119600000D03*
D58*
%TO.P,J1,2,Pin_2*%
%TO.N,Net-(J1-Pin_2)*%
X124985786Y-121014214D03*
%TD*%
D59*
%TO.N,Net-(J1-Pin_1)*%
X125050000Y-113000000D02*
X132000000Y-113000000D01*
X126400000Y-119600000D02*
X129800000Y-119600000D01*
X129800000Y-119600000D02*
X132000000Y-117400000D01*
X120100000Y-108050000D02*
X125050000Y-113000000D01*
X132000000Y-117400000D02*
X132000000Y-113000000D01*
%TO.N,Net-(J1-Pin_2)*%
X124985786Y-121014214D02*
X124985786Y-116014214D01*
X120350000Y-112800000D02*
X123550000Y-116000000D01*
X124985786Y-116014214D02*
X125000000Y-116000000D01*
X120350000Y-112800000D02*
X120350000Y-111744520D01*
X125000000Y-116000000D02*
X123550000Y-116000000D01*
X120350000Y-111744520D02*
X119486063Y-110880583D01*
X129250000Y-116000000D02*
X125000000Y-116000000D01*
%TD*%
%TA.AperFunction,Conductor*%
%TO.N,Net-(J1-Pin_2)*%
G36*
X128809470Y-115010684D02*
G01*
X128809498Y-115010746D01*
X129248872Y-115995232D01*
X129249115Y-116004183D01*
X129248872Y-116004768D01*
X128809498Y-116989253D01*
X128802997Y-116995412D01*
X128794046Y-116995169D01*
X128793984Y-116995141D01*
X127156870Y-116253113D01*
X127150749Y-116246577D01*
X127150000Y-116242457D01*
X127150000Y-115757542D01*
X127153427Y-115749269D01*
X127156870Y-115746886D01*
X128793985Y-115004857D01*
X128802934Y-115004563D01*
X128809470Y-115010684D01*
G37*
%TD.AperFunction*%
%TD*%
%TA.AperFunction,Conductor*%
%TO.N,Net-(J1-Pin_1)*%
G36*
X131559470Y-112010684D02*
G01*
X131559498Y-112010746D01*
X131998872Y-112995232D01*
X131999115Y-113004183D01*
X131998872Y-113004768D01*
X131559498Y-113989253D01*
X131552997Y-113995412D01*
X131544046Y-113995169D01*
X131543984Y-113995141D01*
X129906870Y-113253113D01*
X129900749Y-113246577D01*
X129900000Y-113242457D01*
X129900000Y-112757542D01*
X129903427Y-112749269D01*
X129906870Y-112746886D01*
X131543985Y-112004857D01*
X131552934Y-112004563D01*
X131559470Y-112010684D01*
G37*
%TD.AperFunction*%
%TD*%
M02*
