%TF.GenerationSoftware,KiCad,Pcbnew,7.0.9*%
%TF.CreationDate,2023-12-20T17:36:05-07:00*%
%TF.ProjectId,vb_controller_shoulder_right_pcb,76625f63-6f6e-4747-926f-6c6c65725f73,4a*%
%TF.SameCoordinates,Original*%
%TF.FileFunction,Legend,Bot*%
%TF.FilePolarity,Positive*%
%FSLAX46Y46*%
G04 Gerber Fmt 4.6, Leading zero omitted, Abs format (unit mm)*
G04 Created by KiCad (PCBNEW 7.0.9) date 2023-12-20 17:36:05*
%MOMM*%
%LPD*%
G01*
G04 APERTURE LIST*
G04 Aperture macros list*
%AMRoundRect*
0 Rectangle with rounded corners*
0 $1 Rounding radius*
0 $2 $3 $4 $5 $6 $7 $8 $9 X,Y pos of 4 corners*
0 Add a 4 corners polygon primitive as box body*
4,1,4,$2,$3,$4,$5,$6,$7,$8,$9,$2,$3,0*
0 Add four circle primitives for the rounded corners*
1,1,$1+$1,$2,$3*
1,1,$1+$1,$4,$5*
1,1,$1+$1,$6,$7*
1,1,$1+$1,$8,$9*
0 Add four rect primitives between the rounded corners*
20,1,$1+$1,$2,$3,$4,$5,0*
20,1,$1+$1,$4,$5,$6,$7,0*
20,1,$1+$1,$6,$7,$8,$9,0*
20,1,$1+$1,$8,$9,$2,$3,0*%
%AMHorizOval*
0 Thick line with rounded ends*
0 $1 width*
0 $2 $3 position (X,Y) of the first rounded end (center of the circle)*
0 $4 $5 position (X,Y) of the second rounded end (center of the circle)*
0 Add line between two ends*
20,1,$1,$2,$3,$4,$5,0*
0 Add two circle primitives to create the rounded ends*
1,1,$1,$2,$3*
1,1,$1,$4,$5*%
G04 Aperture macros list end*
%ADD10C,0.120000*%
%ADD11C,2.301600*%
%ADD12RoundRect,0.300800X-0.194454X0.689429X-0.689429X0.194454X0.194454X-0.689429X0.689429X-0.194454X0*%
%ADD13HorizOval,1.301600X-0.194454X0.194454X0.194454X-0.194454X0*%
G04 APERTURE END LIST*
D10*
%TO.C,J1*%
X126576777Y-116439233D02*
X127460660Y-117323116D01*
X129914321Y-120201041D02*
X125586827Y-124528534D01*
X128422325Y-118709045D02*
X127990990Y-119140381D01*
X127503087Y-117789807D02*
X127071751Y-118221142D01*
X126576777Y-116863497D02*
X129914321Y-120201041D01*
X129051650Y-120201041D02*
X125586827Y-123665864D01*
X126576777Y-117726167D02*
X129051650Y-120201041D01*
X125692893Y-117323116D02*
X126576777Y-116439233D01*
X125402979Y-117754451D02*
X125544401Y-117895873D01*
X125332269Y-118108005D02*
X125190847Y-117966583D01*
X125261558Y-118037294D02*
X125473690Y-117825162D01*
X125190847Y-117966583D02*
X125402979Y-117754451D01*
X125197918Y-119105025D02*
X126576777Y-117726167D01*
X124766583Y-118673690D02*
X125197918Y-119105025D01*
X127389949Y-121862742D02*
X127036396Y-121509188D01*
X127036396Y-121509188D02*
X126894975Y-121650610D01*
X127319239Y-121933452D02*
X126965685Y-121579899D01*
X126894975Y-121650610D02*
X127248528Y-122004163D01*
X124490812Y-119812132D02*
X124059477Y-119380797D01*
X125586827Y-123665864D02*
X123111953Y-121190990D01*
X123111953Y-121190990D02*
X124490812Y-119812132D01*
X125586827Y-124528534D02*
X122249283Y-121190990D01*
X124094832Y-123036539D02*
X124526167Y-122605204D01*
X123175593Y-122117300D02*
X123606928Y-121685965D01*
X122249283Y-121190990D02*
X126576777Y-116863497D01*
%TD*%
%LPC*%
D11*
%TO.C,JW8*%
X132000000Y-113000000D03*
%TD*%
%TO.C,JW5*%
X129250000Y-116000000D03*
%TD*%
D12*
%TO.C,J1*%
X126400000Y-119600000D03*
D13*
X124985786Y-121014214D03*
%TD*%
%LPD*%
M02*
