%TF.GenerationSoftware,KiCad,Pcbnew,7.0.9*%
%TF.CreationDate,2023-12-20T17:36:05-07:00*%
%TF.ProjectId,vb_controller_shoulder_right_pcb,76625f63-6f6e-4747-926f-6c6c65725f73,4a*%
%TF.SameCoordinates,Original*%
%TF.FileFunction,Soldermask,Top*%
%TF.FilePolarity,Negative*%
%FSLAX46Y46*%
G04 Gerber Fmt 4.6, Leading zero omitted, Abs format (unit mm)*
G04 Created by KiCad (PCBNEW 7.0.9) date 2023-12-20 17:36:05*
%MOMM*%
%LPD*%
G01*
G04 APERTURE LIST*
G04 Aperture macros list*
%AMRoundRect*
0 Rectangle with rounded corners*
0 $1 Rounding radius*
0 $2 $3 $4 $5 $6 $7 $8 $9 X,Y pos of 4 corners*
0 Add a 4 corners polygon primitive as box body*
4,1,4,$2,$3,$4,$5,$6,$7,$8,$9,$2,$3,0*
0 Add four circle primitives for the rounded corners*
1,1,$1+$1,$2,$3*
1,1,$1+$1,$4,$5*
1,1,$1+$1,$6,$7*
1,1,$1+$1,$8,$9*
0 Add four rect primitives between the rounded corners*
20,1,$1+$1,$2,$3,$4,$5,0*
20,1,$1+$1,$4,$5,$6,$7,0*
20,1,$1+$1,$6,$7,$8,$9,0*
20,1,$1+$1,$8,$9,$2,$3,0*%
%AMHorizOval*
0 Thick line with rounded ends*
0 $1 width*
0 $2 $3 position (X,Y) of the first rounded end (center of the circle)*
0 $4 $5 position (X,Y) of the second rounded end (center of the circle)*
0 Add line between two ends*
20,1,$1,$2,$3,$4,$5,0*
0 Add two circle primitives to create the rounded ends*
1,1,$1,$2,$3*
1,1,$1,$4,$5*%
G04 Aperture macros list end*
%ADD10RoundRect,0.050800X-0.153210X0.146720X-0.146720X-0.153210X0.153210X-0.146720X0.146720X0.153210X0*%
%ADD11RoundRect,0.050800X-0.135655X0.163088X-0.163088X-0.135655X0.135655X-0.163088X0.163088X0.135655X0*%
%ADD12RoundRect,0.050800X-0.168803X0.128473X-0.128473X-0.168803X0.168803X-0.128473X0.128473X0.168803X0*%
%ADD13RoundRect,0.050800X-0.116363X0.177369X-0.177369X-0.116363X0.116363X-0.177369X0.177369X0.116363X0*%
%ADD14RoundRect,0.050800X-0.182236X0.108582X-0.108582X-0.182236X0.182236X-0.108582X0.108582X0.182236X0*%
%ADD15RoundRect,0.050800X-0.095582X0.189378X-0.189378X-0.095582X0.095582X-0.189378X0.189378X0.095582X0*%
%ADD16RoundRect,0.050800X-0.193336X0.087300X-0.087300X-0.193336X0.193336X-0.087300X0.087300X0.193336X0*%
%ADD17RoundRect,0.050800X-0.073576X0.198964X-0.198964X-0.073576X0.073576X-0.198964X0.198964X0.073576X0*%
%ADD18RoundRect,0.050800X-0.201960X0.064901X-0.064901X-0.201960X0.201960X-0.064901X0.064901X0.201960X0*%
%ADD19RoundRect,0.050800X-0.050629X0.206002X-0.206002X-0.050629X0.050629X-0.206002X0.206002X0.050629X0*%
%ADD20RoundRect,0.050800X-0.207999X0.041671X-0.041671X-0.207999X0.207999X-0.041671X0.041671X0.207999X0*%
%ADD21RoundRect,0.050800X-0.027034X0.210402X-0.210402X-0.027034X0.027034X-0.210402X0.210402X0.027034X0*%
%ADD22RoundRect,0.050800X-0.211375X0.017908X-0.017908X-0.211375X0.211375X-0.017908X0.017908X0.211375X0*%
%ADD23RoundRect,0.050800X-0.003093X0.212109X-0.212109X-0.003093X0.003093X-0.212109X0.212109X0.003093X0*%
%ADD24RoundRect,0.050800X-0.212045X-0.006085X0.006085X-0.212045X0.212045X0.006085X-0.006085X0.212045X0*%
%ADD25RoundRect,0.050800X0.020888X0.211101X-0.211101X0.020888X-0.020888X-0.211101X0.211101X-0.020888X0*%
%ADD26RoundRect,0.050800X-0.210000X-0.030000X0.030000X-0.210000X0.210000X0.030000X-0.030000X0.210000X0*%
%ADD27RoundRect,0.050800X0.044602X0.207390X-0.207390X0.044602X-0.044602X-0.207390X0.207390X-0.044602X0*%
%ADD28RoundRect,0.050800X0.060754X0.203246X-0.203246X0.060754X-0.060754X-0.203246X0.203246X-0.060754X0*%
%ADD29O,0.401600X1.289034*%
%ADD30O,0.401600X3.479009*%
%ADD31O,0.401600X4.069223*%
%ADD32O,0.401600X4.608059*%
%ADD33O,0.401600X4.535632*%
%ADD34O,0.401600X4.270727*%
%ADD35O,0.401600X3.039444*%
%ADD36O,0.401600X1.601600*%
%ADD37RoundRect,0.050800X0.203246X0.060754X-0.060754X0.203246X-0.203246X-0.060754X0.060754X-0.203246X0*%
%ADD38RoundRect,0.050800X0.208808X0.037405X-0.037405X0.208808X-0.208808X-0.037405X0.037405X-0.208808X0*%
%ADD39RoundRect,0.050800X-0.030000X-0.210000X0.210000X-0.030000X0.030000X0.210000X-0.210000X0.030000X0*%
%ADD40RoundRect,0.050800X0.211697X0.013578X-0.013578X0.211697X-0.211697X-0.013578X0.013578X-0.211697X0*%
%ADD41RoundRect,0.050800X-0.013412X-0.211708X0.211708X-0.013412X0.013412X0.211708X-0.211708X0.013412X0*%
%ADD42RoundRect,0.050800X0.211876X-0.010424X0.010424X0.211876X-0.211876X0.010424X-0.010424X-0.211876X0*%
%ADD43RoundRect,0.050800X0.010589X-0.211868X0.211868X0.010589X-0.010589X0.211868X-0.211868X-0.010589X0*%
%ADD44RoundRect,0.050800X0.209342X-0.034292X0.034292X0.209342X-0.209342X0.034292X-0.034292X-0.209342X0*%
%ADD45RoundRect,0.050800X0.034455X-0.209315X0.209315X0.034455X-0.034455X0.209315X-0.209315X-0.034455X0*%
%ADD46RoundRect,0.050800X0.204128X-0.057721X0.057721X0.204128X-0.204128X0.057721X-0.057721X-0.204128X0*%
%ADD47RoundRect,0.050800X0.057880X-0.204083X0.204083X0.057880X-0.057880X0.204083X-0.204083X-0.057880X0*%
%ADD48RoundRect,0.050800X0.196301X-0.080411X0.080411X0.196301X-0.196301X0.080411X-0.080411X-0.196301X0*%
%ADD49RoundRect,0.050800X0.080564X-0.196238X0.196238X0.080564X-0.080564X0.196238X-0.196238X-0.080564X0*%
%ADD50RoundRect,0.050800X0.185961X-0.102072X0.102072X0.185961X-0.185961X0.102072X-0.102072X-0.185961X0*%
%ADD51RoundRect,0.050800X0.102217X-0.185881X0.185881X0.102217X-0.102217X0.185881X-0.185881X-0.102217X0*%
%ADD52RoundRect,0.050800X0.173240X-0.122425X0.122425X0.173240X-0.173240X0.122425X-0.122425X-0.173240X0*%
%ADD53RoundRect,0.050800X0.122561X-0.173144X0.173144X0.122561X-0.122561X0.173144X-0.173144X-0.122561X0*%
%ADD54RoundRect,0.050800X0.158301X-0.141212X0.141212X0.158301X-0.158301X0.141212X-0.141212X-0.158301X0*%
%ADD55RoundRect,0.050800X0.141336X-0.158191X0.158191X0.141336X-0.141336X0.158191X-0.158191X-0.141336X0*%
%ADD56C,2.301600*%
%ADD57RoundRect,0.300800X-0.194454X0.689429X-0.689429X0.194454X0.194454X-0.689429X0.689429X-0.194454X0*%
%ADD58HorizOval,1.301600X-0.194454X0.194454X0.194454X-0.194454X0*%
G04 APERTURE END LIST*
D10*
%TO.C,SW9*%
X118154082Y-111299414D03*
D11*
X117871389Y-111289525D03*
D12*
X118436085Y-111277306D03*
D13*
X117591620Y-111247764D03*
D14*
X118713785Y-111223482D03*
D15*
X117318361Y-111174666D03*
D16*
X118983627Y-111138632D03*
D17*
X117055108Y-111071166D03*
D18*
X119242156Y-111023843D03*
D19*
X116805232Y-110938591D03*
D20*
X119486063Y-110880583D03*
D21*
X116571932Y-110778637D03*
D22*
X119712226Y-110710687D03*
D23*
X116358195Y-110593352D03*
D24*
X119917748Y-110516330D03*
D25*
X116166757Y-110385108D03*
D26*
X120100000Y-110299999D03*
D27*
X116000069Y-110156571D03*
D28*
X115900001Y-109987434D03*
D29*
X115900000Y-109393717D03*
D30*
X119500000Y-109182526D03*
D31*
X117100000Y-109107476D03*
D32*
X118300000Y-109038757D03*
D33*
X117700000Y-108549224D03*
D34*
X118900000Y-108516020D03*
D35*
X116500000Y-108347985D03*
D36*
X120100000Y-108050000D03*
D37*
X115900000Y-107612566D03*
D38*
X116048223Y-107371642D03*
D39*
X120100000Y-107300001D03*
D40*
X116222712Y-107149004D03*
D41*
X119975998Y-107147539D03*
D42*
X116421235Y-106947503D03*
D43*
X119777318Y-106946193D03*
D44*
X116641250Y-106769718D03*
D45*
X119557164Y-106768579D03*
D46*
X116879940Y-106617925D03*
D47*
X119318355Y-106616973D03*
D48*
X117134250Y-106494068D03*
D49*
X119063948Y-106493314D03*
D50*
X117400924Y-106399731D03*
D51*
X118797201Y-106399186D03*
D52*
X117676547Y-106336124D03*
D53*
X118521528Y-106335794D03*
D54*
X117957592Y-106304060D03*
D55*
X118240459Y-106303949D03*
%TD*%
D56*
%TO.C,JW8*%
X132000000Y-113000000D03*
%TD*%
%TO.C,JW5*%
X129250000Y-116000000D03*
%TD*%
D57*
%TO.C,J1*%
X126400000Y-119600000D03*
D58*
X124985786Y-121014214D03*
%TD*%
M02*
