G04 #@! TF.GenerationSoftware,KiCad,Pcbnew,7.0.9*
G04 #@! TF.CreationDate,2023-12-20T17:36:11-07:00*
G04 #@! TF.ProjectId,vb_controller_shoulder_right_pcb,76625f63-6f6e-4747-926f-6c6c65725f73,4a*
G04 #@! TF.SameCoordinates,Original*
G04 #@! TF.FileFunction,AssemblyDrawing,Top*
%FSLAX46Y46*%
G04 Gerber Fmt 4.6, Leading zero omitted, Abs format (unit mm)*
G04 Created by KiCad (PCBNEW 7.0.9) date 2023-12-20 17:36:11*
%MOMM*%
%LPD*%
G01*
G04 APERTURE LIST*
%ADD10C,0.150000*%
G04 APERTURE END LIST*
D10*
X121775009Y-112442857D02*
X121822628Y-112300000D01*
X121822628Y-112300000D02*
X121870247Y-112252381D01*
X121870247Y-112252381D02*
X121965485Y-112204762D01*
X121965485Y-112204762D02*
X122108342Y-112204762D01*
X122108342Y-112204762D02*
X122203580Y-112252381D01*
X122203580Y-112252381D02*
X122251200Y-112300000D01*
X122251200Y-112300000D02*
X122298819Y-112395238D01*
X122298819Y-112395238D02*
X122298819Y-112776190D01*
X122298819Y-112776190D02*
X121298819Y-112776190D01*
X121298819Y-112776190D02*
X121298819Y-112442857D01*
X121298819Y-112442857D02*
X121346438Y-112347619D01*
X121346438Y-112347619D02*
X121394057Y-112300000D01*
X121394057Y-112300000D02*
X121489295Y-112252381D01*
X121489295Y-112252381D02*
X121584533Y-112252381D01*
X121584533Y-112252381D02*
X121679771Y-112300000D01*
X121679771Y-112300000D02*
X121727390Y-112347619D01*
X121727390Y-112347619D02*
X121775009Y-112442857D01*
X121775009Y-112442857D02*
X121775009Y-112776190D01*
X121632152Y-111347619D02*
X122298819Y-111347619D01*
X121632152Y-111776190D02*
X122155961Y-111776190D01*
X122155961Y-111776190D02*
X122251200Y-111728571D01*
X122251200Y-111728571D02*
X122298819Y-111633333D01*
X122298819Y-111633333D02*
X122298819Y-111490476D01*
X122298819Y-111490476D02*
X122251200Y-111395238D01*
X122251200Y-111395238D02*
X122203580Y-111347619D01*
X121632152Y-111014285D02*
X121632152Y-110633333D01*
X121298819Y-110871428D02*
X122155961Y-110871428D01*
X122155961Y-110871428D02*
X122251200Y-110823809D01*
X122251200Y-110823809D02*
X122298819Y-110728571D01*
X122298819Y-110728571D02*
X122298819Y-110633333D01*
X121632152Y-110442856D02*
X121632152Y-110061904D01*
X121298819Y-110299999D02*
X122155961Y-110299999D01*
X122155961Y-110299999D02*
X122251200Y-110252380D01*
X122251200Y-110252380D02*
X122298819Y-110157142D01*
X122298819Y-110157142D02*
X122298819Y-110061904D01*
X122298819Y-109585713D02*
X122251200Y-109680951D01*
X122251200Y-109680951D02*
X122203580Y-109728570D01*
X122203580Y-109728570D02*
X122108342Y-109776189D01*
X122108342Y-109776189D02*
X121822628Y-109776189D01*
X121822628Y-109776189D02*
X121727390Y-109728570D01*
X121727390Y-109728570D02*
X121679771Y-109680951D01*
X121679771Y-109680951D02*
X121632152Y-109585713D01*
X121632152Y-109585713D02*
X121632152Y-109442856D01*
X121632152Y-109442856D02*
X121679771Y-109347618D01*
X121679771Y-109347618D02*
X121727390Y-109299999D01*
X121727390Y-109299999D02*
X121822628Y-109252380D01*
X121822628Y-109252380D02*
X122108342Y-109252380D01*
X122108342Y-109252380D02*
X122203580Y-109299999D01*
X122203580Y-109299999D02*
X122251200Y-109347618D01*
X122251200Y-109347618D02*
X122298819Y-109442856D01*
X122298819Y-109442856D02*
X122298819Y-109585713D01*
X121632152Y-108823808D02*
X122298819Y-108823808D01*
X121727390Y-108823808D02*
X121679771Y-108776189D01*
X121679771Y-108776189D02*
X121632152Y-108680951D01*
X121632152Y-108680951D02*
X121632152Y-108538094D01*
X121632152Y-108538094D02*
X121679771Y-108442856D01*
X121679771Y-108442856D02*
X121775009Y-108395237D01*
X121775009Y-108395237D02*
X122298819Y-108395237D01*
X122394057Y-108157142D02*
X122394057Y-107395237D01*
X122298819Y-107157141D02*
X121298819Y-107157141D01*
X121298819Y-107157141D02*
X121298819Y-106776189D01*
X121298819Y-106776189D02*
X121346438Y-106680951D01*
X121346438Y-106680951D02*
X121394057Y-106633332D01*
X121394057Y-106633332D02*
X121489295Y-106585713D01*
X121489295Y-106585713D02*
X121632152Y-106585713D01*
X121632152Y-106585713D02*
X121727390Y-106633332D01*
X121727390Y-106633332D02*
X121775009Y-106680951D01*
X121775009Y-106680951D02*
X121822628Y-106776189D01*
X121822628Y-106776189D02*
X121822628Y-107157141D01*
X122298819Y-105728570D02*
X121775009Y-105728570D01*
X121775009Y-105728570D02*
X121679771Y-105776189D01*
X121679771Y-105776189D02*
X121632152Y-105871427D01*
X121632152Y-105871427D02*
X121632152Y-106061903D01*
X121632152Y-106061903D02*
X121679771Y-106157141D01*
X122251200Y-105728570D02*
X122298819Y-105823808D01*
X122298819Y-105823808D02*
X122298819Y-106061903D01*
X122298819Y-106061903D02*
X122251200Y-106157141D01*
X122251200Y-106157141D02*
X122155961Y-106204760D01*
X122155961Y-106204760D02*
X122060723Y-106204760D01*
X122060723Y-106204760D02*
X121965485Y-106157141D01*
X121965485Y-106157141D02*
X121917866Y-106061903D01*
X121917866Y-106061903D02*
X121917866Y-105823808D01*
X121917866Y-105823808D02*
X121870247Y-105728570D01*
X122298819Y-104823808D02*
X121298819Y-104823808D01*
X122251200Y-104823808D02*
X122298819Y-104919046D01*
X122298819Y-104919046D02*
X122298819Y-105109522D01*
X122298819Y-105109522D02*
X122251200Y-105204760D01*
X122251200Y-105204760D02*
X122203580Y-105252379D01*
X122203580Y-105252379D02*
X122108342Y-105299998D01*
X122108342Y-105299998D02*
X121822628Y-105299998D01*
X121822628Y-105299998D02*
X121727390Y-105252379D01*
X121727390Y-105252379D02*
X121679771Y-105204760D01*
X121679771Y-105204760D02*
X121632152Y-105109522D01*
X121632152Y-105109522D02*
X121632152Y-104919046D01*
X121632152Y-104919046D02*
X121679771Y-104823808D01*
X132131333Y-115994819D02*
X131655143Y-115994819D01*
X131655143Y-115994819D02*
X131655143Y-114994819D01*
X132417048Y-115947200D02*
X132559905Y-115994819D01*
X132559905Y-115994819D02*
X132798000Y-115994819D01*
X132798000Y-115994819D02*
X132893238Y-115947200D01*
X132893238Y-115947200D02*
X132940857Y-115899580D01*
X132940857Y-115899580D02*
X132988476Y-115804342D01*
X132988476Y-115804342D02*
X132988476Y-115709104D01*
X132988476Y-115709104D02*
X132940857Y-115613866D01*
X132940857Y-115613866D02*
X132893238Y-115566247D01*
X132893238Y-115566247D02*
X132798000Y-115518628D01*
X132798000Y-115518628D02*
X132607524Y-115471009D01*
X132607524Y-115471009D02*
X132512286Y-115423390D01*
X132512286Y-115423390D02*
X132464667Y-115375771D01*
X132464667Y-115375771D02*
X132417048Y-115280533D01*
X132417048Y-115280533D02*
X132417048Y-115185295D01*
X132417048Y-115185295D02*
X132464667Y-115090057D01*
X132464667Y-115090057D02*
X132512286Y-115042438D01*
X132512286Y-115042438D02*
X132607524Y-114994819D01*
X132607524Y-114994819D02*
X132845619Y-114994819D01*
X132845619Y-114994819D02*
X132988476Y-115042438D01*
X131395238Y-112454819D02*
X131395238Y-113169104D01*
X131395238Y-113169104D02*
X131347619Y-113311961D01*
X131347619Y-113311961D02*
X131252381Y-113407200D01*
X131252381Y-113407200D02*
X131109524Y-113454819D01*
X131109524Y-113454819D02*
X131014286Y-113454819D01*
X131776191Y-112454819D02*
X132014286Y-113454819D01*
X132014286Y-113454819D02*
X132204762Y-112740533D01*
X132204762Y-112740533D02*
X132395238Y-113454819D01*
X132395238Y-113454819D02*
X132633334Y-112454819D01*
X133157143Y-112883390D02*
X133061905Y-112835771D01*
X133061905Y-112835771D02*
X133014286Y-112788152D01*
X133014286Y-112788152D02*
X132966667Y-112692914D01*
X132966667Y-112692914D02*
X132966667Y-112645295D01*
X132966667Y-112645295D02*
X133014286Y-112550057D01*
X133014286Y-112550057D02*
X133061905Y-112502438D01*
X133061905Y-112502438D02*
X133157143Y-112454819D01*
X133157143Y-112454819D02*
X133347619Y-112454819D01*
X133347619Y-112454819D02*
X133442857Y-112502438D01*
X133442857Y-112502438D02*
X133490476Y-112550057D01*
X133490476Y-112550057D02*
X133538095Y-112645295D01*
X133538095Y-112645295D02*
X133538095Y-112692914D01*
X133538095Y-112692914D02*
X133490476Y-112788152D01*
X133490476Y-112788152D02*
X133442857Y-112835771D01*
X133442857Y-112835771D02*
X133347619Y-112883390D01*
X133347619Y-112883390D02*
X133157143Y-112883390D01*
X133157143Y-112883390D02*
X133061905Y-112931009D01*
X133061905Y-112931009D02*
X133014286Y-112978628D01*
X133014286Y-112978628D02*
X132966667Y-113073866D01*
X132966667Y-113073866D02*
X132966667Y-113264342D01*
X132966667Y-113264342D02*
X133014286Y-113359580D01*
X133014286Y-113359580D02*
X133061905Y-113407200D01*
X133061905Y-113407200D02*
X133157143Y-113454819D01*
X133157143Y-113454819D02*
X133347619Y-113454819D01*
X133347619Y-113454819D02*
X133442857Y-113407200D01*
X133442857Y-113407200D02*
X133490476Y-113359580D01*
X133490476Y-113359580D02*
X133538095Y-113264342D01*
X133538095Y-113264342D02*
X133538095Y-113073866D01*
X133538095Y-113073866D02*
X133490476Y-112978628D01*
X133490476Y-112978628D02*
X133442857Y-112931009D01*
X133442857Y-112931009D02*
X133347619Y-112883390D01*
X128762285Y-118994819D02*
X128286095Y-118994819D01*
X128286095Y-118994819D02*
X128286095Y-117994819D01*
X129048000Y-118947200D02*
X129190857Y-118994819D01*
X129190857Y-118994819D02*
X129428952Y-118994819D01*
X129428952Y-118994819D02*
X129524190Y-118947200D01*
X129524190Y-118947200D02*
X129571809Y-118899580D01*
X129571809Y-118899580D02*
X129619428Y-118804342D01*
X129619428Y-118804342D02*
X129619428Y-118709104D01*
X129619428Y-118709104D02*
X129571809Y-118613866D01*
X129571809Y-118613866D02*
X129524190Y-118566247D01*
X129524190Y-118566247D02*
X129428952Y-118518628D01*
X129428952Y-118518628D02*
X129238476Y-118471009D01*
X129238476Y-118471009D02*
X129143238Y-118423390D01*
X129143238Y-118423390D02*
X129095619Y-118375771D01*
X129095619Y-118375771D02*
X129048000Y-118280533D01*
X129048000Y-118280533D02*
X129048000Y-118185295D01*
X129048000Y-118185295D02*
X129095619Y-118090057D01*
X129095619Y-118090057D02*
X129143238Y-118042438D01*
X129143238Y-118042438D02*
X129238476Y-117994819D01*
X129238476Y-117994819D02*
X129476571Y-117994819D01*
X129476571Y-117994819D02*
X129619428Y-118042438D01*
X130048000Y-118613866D02*
X130809905Y-118613866D01*
X128645238Y-115454819D02*
X128645238Y-116169104D01*
X128645238Y-116169104D02*
X128597619Y-116311961D01*
X128597619Y-116311961D02*
X128502381Y-116407200D01*
X128502381Y-116407200D02*
X128359524Y-116454819D01*
X128359524Y-116454819D02*
X128264286Y-116454819D01*
X129026191Y-115454819D02*
X129264286Y-116454819D01*
X129264286Y-116454819D02*
X129454762Y-115740533D01*
X129454762Y-115740533D02*
X129645238Y-116454819D01*
X129645238Y-116454819D02*
X129883334Y-115454819D01*
X130740476Y-115454819D02*
X130264286Y-115454819D01*
X130264286Y-115454819D02*
X130216667Y-115931009D01*
X130216667Y-115931009D02*
X130264286Y-115883390D01*
X130264286Y-115883390D02*
X130359524Y-115835771D01*
X130359524Y-115835771D02*
X130597619Y-115835771D01*
X130597619Y-115835771D02*
X130692857Y-115883390D01*
X130692857Y-115883390D02*
X130740476Y-115931009D01*
X130740476Y-115931009D02*
X130788095Y-116026247D01*
X130788095Y-116026247D02*
X130788095Y-116264342D01*
X130788095Y-116264342D02*
X130740476Y-116359580D01*
X130740476Y-116359580D02*
X130692857Y-116407200D01*
X130692857Y-116407200D02*
X130597619Y-116454819D01*
X130597619Y-116454819D02*
X130359524Y-116454819D01*
X130359524Y-116454819D02*
X130264286Y-116407200D01*
X130264286Y-116407200D02*
X130216667Y-116359580D01*
M02*
