G04 #@! TF.GenerationSoftware,KiCad,Pcbnew,7.0.9*
G04 #@! TF.CreationDate,2023-12-20T17:36:11-07:00*
G04 #@! TF.ProjectId,vb_controller_shoulder_right_pcb,76625f63-6f6e-4747-926f-6c6c65725f73,4a*
G04 #@! TF.SameCoordinates,Original*
G04 #@! TF.FileFunction,AssemblyDrawing,Bot*
%FSLAX46Y46*%
G04 Gerber Fmt 4.6, Leading zero omitted, Abs format (unit mm)*
G04 Created by KiCad (PCBNEW 7.0.9) date 2023-12-20 17:36:11*
%MOMM*%
%LPD*%
G01*
G04 APERTURE LIST*
%ADD10C,0.150000*%
%ADD11C,0.100000*%
G04 APERTURE END LIST*
D10*
X123492485Y-117635293D02*
X123997561Y-118140369D01*
X123997561Y-118140369D02*
X124132248Y-118207713D01*
X124132248Y-118207713D02*
X124266935Y-118207713D01*
X124266935Y-118207713D02*
X124401622Y-118140369D01*
X124401622Y-118140369D02*
X124468966Y-118073026D01*
X123492485Y-119049507D02*
X123896546Y-118645446D01*
X123694515Y-118847476D02*
X122987408Y-118140369D01*
X122987408Y-118140369D02*
X123155767Y-118174041D01*
X123155767Y-118174041D02*
X123290454Y-118174041D01*
X123290454Y-118174041D02*
X123391469Y-118140369D01*
X131418814Y-120746563D02*
X131486158Y-120746563D01*
X131486158Y-120746563D02*
X131620845Y-120679220D01*
X131620845Y-120679220D02*
X131688188Y-120611876D01*
X131688188Y-120611876D02*
X131755532Y-120477189D01*
X131755532Y-120477189D02*
X131755532Y-120342502D01*
X131755532Y-120342502D02*
X131721860Y-120241487D01*
X131721860Y-120241487D02*
X131620845Y-120073128D01*
X131620845Y-120073128D02*
X131519829Y-119972113D01*
X131519829Y-119972113D02*
X131351471Y-119871098D01*
X131351471Y-119871098D02*
X131250455Y-119837426D01*
X131250455Y-119837426D02*
X131115768Y-119837426D01*
X131115768Y-119837426D02*
X130981081Y-119904769D01*
X130981081Y-119904769D02*
X130913738Y-119972113D01*
X130913738Y-119972113D02*
X130846394Y-120106800D01*
X130846394Y-120106800D02*
X130846394Y-120174143D01*
X131082097Y-121217968D02*
X131115768Y-121116952D01*
X131115768Y-121116952D02*
X131115768Y-121049609D01*
X131115768Y-121049609D02*
X131082097Y-120948594D01*
X131082097Y-120948594D02*
X130880066Y-120746563D01*
X130880066Y-120746563D02*
X130779051Y-120712891D01*
X130779051Y-120712891D02*
X130711707Y-120712891D01*
X130711707Y-120712891D02*
X130610692Y-120746563D01*
X130610692Y-120746563D02*
X130509677Y-120847578D01*
X130509677Y-120847578D02*
X130476005Y-120948594D01*
X130476005Y-120948594D02*
X130476005Y-121015937D01*
X130476005Y-121015937D02*
X130509677Y-121116952D01*
X130509677Y-121116952D02*
X130711707Y-121318983D01*
X130711707Y-121318983D02*
X130812723Y-121352655D01*
X130812723Y-121352655D02*
X130880066Y-121352655D01*
X130880066Y-121352655D02*
X130981081Y-121318983D01*
X130981081Y-121318983D02*
X131082097Y-121217968D01*
X130071944Y-121285311D02*
X130543348Y-121756716D01*
X130139287Y-121352655D02*
X130071944Y-121352655D01*
X130071944Y-121352655D02*
X129970929Y-121386327D01*
X129970929Y-121386327D02*
X129869913Y-121487342D01*
X129869913Y-121487342D02*
X129836242Y-121588357D01*
X129836242Y-121588357D02*
X129869913Y-121689372D01*
X129869913Y-121689372D02*
X130240303Y-122059762D01*
X129432181Y-121925075D02*
X129903585Y-122396479D01*
X129499524Y-121992418D02*
X129432181Y-121992418D01*
X129432181Y-121992418D02*
X129331165Y-122026090D01*
X129331165Y-122026090D02*
X129230150Y-122127105D01*
X129230150Y-122127105D02*
X129196478Y-122228120D01*
X129196478Y-122228120D02*
X129230150Y-122329136D01*
X129230150Y-122329136D02*
X129600539Y-122699525D01*
X129499524Y-122935227D02*
X128960776Y-123473975D01*
X127883280Y-123002571D02*
X127815936Y-123069914D01*
X127815936Y-123069914D02*
X127782265Y-123170930D01*
X127782265Y-123170930D02*
X127782265Y-123238273D01*
X127782265Y-123238273D02*
X127815936Y-123339288D01*
X127815936Y-123339288D02*
X127916952Y-123507647D01*
X127916952Y-123507647D02*
X128085310Y-123676006D01*
X128085310Y-123676006D02*
X128253669Y-123777021D01*
X128253669Y-123777021D02*
X128354684Y-123810693D01*
X128354684Y-123810693D02*
X128422028Y-123810693D01*
X128422028Y-123810693D02*
X128523043Y-123777021D01*
X128523043Y-123777021D02*
X128590387Y-123709678D01*
X128590387Y-123709678D02*
X128624058Y-123608662D01*
X128624058Y-123608662D02*
X128624058Y-123541319D01*
X128624058Y-123541319D02*
X128590387Y-123440304D01*
X128590387Y-123440304D02*
X128489371Y-123271945D01*
X128489371Y-123271945D02*
X128321013Y-123103586D01*
X128321013Y-123103586D02*
X128152654Y-123002571D01*
X128152654Y-123002571D02*
X128051639Y-122968899D01*
X128051639Y-122968899D02*
X127984295Y-122968899D01*
X127984295Y-122968899D02*
X127883280Y-123002571D01*
X127681249Y-124618815D02*
X128085310Y-124214754D01*
X127883280Y-124416784D02*
X127176173Y-123709678D01*
X127176173Y-123709678D02*
X127344532Y-123743349D01*
X127344532Y-123743349D02*
X127479219Y-123743349D01*
X127479219Y-123743349D02*
X127580234Y-123709678D01*
X127445547Y-124854517D02*
X126603753Y-124753502D01*
X126974142Y-124383113D02*
X127075158Y-125224907D01*
X125963990Y-124921861D02*
X125896646Y-124989204D01*
X125896646Y-124989204D02*
X125862975Y-125090220D01*
X125862975Y-125090220D02*
X125862975Y-125157563D01*
X125862975Y-125157563D02*
X125896646Y-125258578D01*
X125896646Y-125258578D02*
X125997662Y-125426937D01*
X125997662Y-125426937D02*
X126166020Y-125595296D01*
X126166020Y-125595296D02*
X126334379Y-125696311D01*
X126334379Y-125696311D02*
X126435394Y-125729983D01*
X126435394Y-125729983D02*
X126502738Y-125729983D01*
X126502738Y-125729983D02*
X126603753Y-125696311D01*
X126603753Y-125696311D02*
X126671097Y-125628968D01*
X126671097Y-125628968D02*
X126704768Y-125527952D01*
X126704768Y-125527952D02*
X126704768Y-125460609D01*
X126704768Y-125460609D02*
X126671097Y-125359594D01*
X126671097Y-125359594D02*
X126570081Y-125191235D01*
X126570081Y-125191235D02*
X126401723Y-125022876D01*
X126401723Y-125022876D02*
X126233364Y-124921861D01*
X126233364Y-124921861D02*
X126132349Y-124888189D01*
X126132349Y-124888189D02*
X126065005Y-124888189D01*
X126065005Y-124888189D02*
X125963990Y-124921861D01*
X125526257Y-125494281D02*
X125458913Y-125494281D01*
X125458913Y-125494281D02*
X125357898Y-125527952D01*
X125357898Y-125527952D02*
X125189539Y-125696311D01*
X125189539Y-125696311D02*
X125155868Y-125797327D01*
X125155868Y-125797327D02*
X125155868Y-125864670D01*
X125155868Y-125864670D02*
X125189539Y-125965685D01*
X125189539Y-125965685D02*
X125256883Y-126033029D01*
X125256883Y-126033029D02*
X125391570Y-126100372D01*
X125391570Y-126100372D02*
X126199692Y-126100372D01*
X126199692Y-126100372D02*
X125761959Y-126538105D01*
X126603754Y-120746563D02*
X127108830Y-121251639D01*
X127108830Y-121251639D02*
X127243517Y-121318983D01*
X127243517Y-121318983D02*
X127378204Y-121318983D01*
X127378204Y-121318983D02*
X127512891Y-121251639D01*
X127512891Y-121251639D02*
X127580235Y-121184296D01*
X126603754Y-122160777D02*
X127007815Y-121756716D01*
X126805784Y-121958746D02*
X126098677Y-121251639D01*
X126098677Y-121251639D02*
X126267036Y-121285311D01*
X126267036Y-121285311D02*
X126401723Y-121285311D01*
X126401723Y-121285311D02*
X126502738Y-121251639D01*
D11*
X126576777Y-116439233D02*
X127460660Y-117323116D01*
X129758757Y-120201041D02*
X125586827Y-124372971D01*
X126576777Y-117019060D02*
X129758757Y-120201041D01*
X125692893Y-117323116D02*
X126576777Y-116439233D01*
X125586827Y-124372971D02*
X122404847Y-121190990D01*
X122404847Y-121190990D02*
X126576777Y-117019060D01*
M02*
