%TF.GenerationSoftware,KiCad,Pcbnew,7.0.9*%
%TF.CreationDate,2023-12-20T17:33:42-07:00*%
%TF.ProjectId,vb_controller_shoulder_left_pcb,76625f63-6f6e-4747-926f-6c6c65725f73,4a*%
%TF.SameCoordinates,Original*%
%TF.FileFunction,Copper,L1,Top*%
%TF.FilePolarity,Positive*%
%FSLAX46Y46*%
G04 Gerber Fmt 4.6, Leading zero omitted, Abs format (unit mm)*
G04 Created by KiCad (PCBNEW 7.0.9) date 2023-12-20 17:33:42*
%MOMM*%
%LPD*%
G01*
G04 APERTURE LIST*
G04 Aperture macros list*
%AMRoundRect*
0 Rectangle with rounded corners*
0 $1 Rounding radius*
0 $2 $3 $4 $5 $6 $7 $8 $9 X,Y pos of 4 corners*
0 Add a 4 corners polygon primitive as box body*
4,1,4,$2,$3,$4,$5,$6,$7,$8,$9,$2,$3,0*
0 Add four circle primitives for the rounded corners*
1,1,$1+$1,$2,$3*
1,1,$1+$1,$4,$5*
1,1,$1+$1,$6,$7*
1,1,$1+$1,$8,$9*
0 Add four rect primitives between the rounded corners*
20,1,$1+$1,$2,$3,$4,$5,0*
20,1,$1+$1,$4,$5,$6,$7,0*
20,1,$1+$1,$6,$7,$8,$9,0*
20,1,$1+$1,$8,$9,$2,$3,0*%
%AMHorizOval*
0 Thick line with rounded ends*
0 $1 width*
0 $2 $3 position (X,Y) of the first rounded end (center of the circle)*
0 $4 $5 position (X,Y) of the second rounded end (center of the circle)*
0 Add line between two ends*
20,1,$1,$2,$3,$4,$5,0*
0 Add two circle primitives to create the rounded ends*
1,1,$1,$2,$3*
1,1,$1,$4,$5*%
%AMRotRect*
0 Rectangle, with rotation*
0 The origin of the aperture is its center*
0 $1 length*
0 $2 width*
0 $3 Rotation angle, in degrees counterclockwise*
0 Add horizontal line*
21,1,$1,$2,0,0,$3*%
G04 Aperture macros list end*
%TA.AperFunction,ComponentPad*%
%ADD10C,2.200000*%
%TD*%
%TA.AperFunction,SMDPad,CuDef*%
%ADD11R,1.400000X1.600000*%
%TD*%
%TA.AperFunction,SMDPad,CuDef*%
%ADD12RotRect,0.300000X0.300000X271.239585*%
%TD*%
%TA.AperFunction,SMDPad,CuDef*%
%ADD13RotRect,0.300000X0.300000X264.753270*%
%TD*%
%TA.AperFunction,SMDPad,CuDef*%
%ADD14RotRect,0.300000X0.300000X277.725900*%
%TD*%
%TA.AperFunction,SMDPad,CuDef*%
%ADD15RotRect,0.300000X0.300000X258.266956*%
%TD*%
%TA.AperFunction,SMDPad,CuDef*%
%ADD16RotRect,0.300000X0.300000X284.212214*%
%TD*%
%TA.AperFunction,SMDPad,CuDef*%
%ADD17RotRect,0.300000X0.300000X251.780641*%
%TD*%
%TA.AperFunction,SMDPad,CuDef*%
%ADD18RotRect,0.300000X0.300000X290.698529*%
%TD*%
%TA.AperFunction,SMDPad,CuDef*%
%ADD19RotRect,0.300000X0.300000X245.294326*%
%TD*%
%TA.AperFunction,SMDPad,CuDef*%
%ADD20RotRect,0.300000X0.300000X297.184844*%
%TD*%
%TA.AperFunction,SMDPad,CuDef*%
%ADD21RotRect,0.300000X0.300000X238.808012*%
%TD*%
%TA.AperFunction,SMDPad,CuDef*%
%ADD22RotRect,0.300000X0.300000X303.671158*%
%TD*%
%TA.AperFunction,SMDPad,CuDef*%
%ADD23RotRect,0.300000X0.300000X232.321697*%
%TD*%
%TA.AperFunction,SMDPad,CuDef*%
%ADD24RotRect,0.300000X0.300000X310.157473*%
%TD*%
%TA.AperFunction,SMDPad,CuDef*%
%ADD25RotRect,0.300000X0.300000X225.835382*%
%TD*%
%TA.AperFunction,SMDPad,CuDef*%
%ADD26RotRect,0.300000X0.300000X316.643788*%
%TD*%
%TA.AperFunction,SMDPad,CuDef*%
%ADD27RotRect,0.300000X0.300000X219.349068*%
%TD*%
%TA.AperFunction,SMDPad,CuDef*%
%ADD28RotRect,0.300000X0.300000X323.130102*%
%TD*%
%TA.AperFunction,SMDPad,CuDef*%
%ADD29RotRect,0.300000X0.300000X212.862753*%
%TD*%
%TA.AperFunction,SMDPad,CuDef*%
%ADD30RotRect,0.300000X0.300000X208.357637*%
%TD*%
%TA.AperFunction,SMDPad,CuDef*%
%ADD31O,0.300000X1.187434*%
%TD*%
%TA.AperFunction,SMDPad,CuDef*%
%ADD32O,0.300000X3.377409*%
%TD*%
%TA.AperFunction,SMDPad,CuDef*%
%ADD33O,0.300000X3.967623*%
%TD*%
%TA.AperFunction,SMDPad,CuDef*%
%ADD34O,0.300000X4.506459*%
%TD*%
%TA.AperFunction,SMDPad,CuDef*%
%ADD35O,0.300000X4.434032*%
%TD*%
%TA.AperFunction,SMDPad,CuDef*%
%ADD36O,0.300000X4.169127*%
%TD*%
%TA.AperFunction,SMDPad,CuDef*%
%ADD37O,0.300000X2.937844*%
%TD*%
%TA.AperFunction,SMDPad,CuDef*%
%ADD38O,0.300000X1.500000*%
%TD*%
%TA.AperFunction,SMDPad,CuDef*%
%ADD39RotRect,0.300000X0.300000X151.642363*%
%TD*%
%TA.AperFunction,SMDPad,CuDef*%
%ADD40RotRect,0.300000X0.300000X145.156049*%
%TD*%
%TA.AperFunction,SMDPad,CuDef*%
%ADD41RotRect,0.300000X0.300000X36.869898*%
%TD*%
%TA.AperFunction,SMDPad,CuDef*%
%ADD42RotRect,0.300000X0.300000X138.669734*%
%TD*%
%TA.AperFunction,SMDPad,CuDef*%
%ADD43RotRect,0.300000X0.300000X41.375014*%
%TD*%
%TA.AperFunction,SMDPad,CuDef*%
%ADD44RotRect,0.300000X0.300000X132.183419*%
%TD*%
%TA.AperFunction,SMDPad,CuDef*%
%ADD45RotRect,0.300000X0.300000X47.861329*%
%TD*%
%TA.AperFunction,SMDPad,CuDef*%
%ADD46RotRect,0.300000X0.300000X125.697105*%
%TD*%
%TA.AperFunction,SMDPad,CuDef*%
%ADD47RotRect,0.300000X0.300000X54.347643*%
%TD*%
%TA.AperFunction,SMDPad,CuDef*%
%ADD48RotRect,0.300000X0.300000X119.210790*%
%TD*%
%TA.AperFunction,SMDPad,CuDef*%
%ADD49RotRect,0.300000X0.300000X60.833958*%
%TD*%
%TA.AperFunction,SMDPad,CuDef*%
%ADD50RotRect,0.300000X0.300000X112.724475*%
%TD*%
%TA.AperFunction,SMDPad,CuDef*%
%ADD51RotRect,0.300000X0.300000X67.320273*%
%TD*%
%TA.AperFunction,SMDPad,CuDef*%
%ADD52RotRect,0.300000X0.300000X106.238161*%
%TD*%
%TA.AperFunction,SMDPad,CuDef*%
%ADD53RotRect,0.300000X0.300000X73.806588*%
%TD*%
%TA.AperFunction,SMDPad,CuDef*%
%ADD54RotRect,0.300000X0.300000X99.751846*%
%TD*%
%TA.AperFunction,SMDPad,CuDef*%
%ADD55RotRect,0.300000X0.300000X80.292902*%
%TD*%
%TA.AperFunction,SMDPad,CuDef*%
%ADD56RotRect,0.300000X0.300000X93.265531*%
%TD*%
%TA.AperFunction,SMDPad,CuDef*%
%ADD57RotRect,0.300000X0.300000X86.779217*%
%TD*%
%TA.AperFunction,ComponentPad*%
%ADD58RoundRect,0.250000X0.689429X0.194454X0.194454X0.689429X-0.689429X-0.194454X-0.194454X-0.689429X0*%
%TD*%
%TA.AperFunction,ComponentPad*%
%ADD59HorizOval,1.200000X0.194454X0.194454X-0.194454X-0.194454X0*%
%TD*%
%TA.AperFunction,ViaPad*%
%ADD60C,0.508000*%
%TD*%
%TA.AperFunction,Conductor*%
%ADD61C,0.500000*%
%TD*%
G04 APERTURE END LIST*
D10*
%TO.P,JW8,1,1*%
%TO.N,Net-(J1-Pin_1)*%
X140900000Y-113000000D03*
%TD*%
D11*
%TO.P,SW1,1,1*%
%TO.N,Net-(J1-Pin_2)*%
X152650000Y-112800000D03*
X152650000Y-104800000D03*
%TO.P,SW1,2,2*%
%TO.N,Net-(J1-Pin_1)*%
X157150000Y-112800000D03*
X157150000Y-104800000D03*
%TD*%
D12*
%TO.P,SW9,1,1*%
%TO.N,Net-(J1-Pin_2)*%
X154954082Y-111299414D03*
D13*
X154671389Y-111289525D03*
D14*
X155236085Y-111277306D03*
D15*
X154391620Y-111247764D03*
D16*
X155513785Y-111223482D03*
D17*
X154118361Y-111174666D03*
D18*
X155783627Y-111138632D03*
D19*
X153855108Y-111071166D03*
D20*
X156042156Y-111023843D03*
D21*
X153605232Y-110938591D03*
D22*
X156286063Y-110880583D03*
D23*
X153371932Y-110778637D03*
D24*
X156512226Y-110710687D03*
D25*
X153158195Y-110593352D03*
D26*
X156717748Y-110516330D03*
D27*
X152966757Y-110385108D03*
D28*
X156900000Y-110299999D03*
D29*
X152800069Y-110156571D03*
D30*
X152700001Y-109987434D03*
D31*
X152700000Y-109393717D03*
D32*
X156300000Y-109182526D03*
D33*
X153900000Y-109107476D03*
D34*
X155100000Y-109038757D03*
D35*
%TO.P,SW9,2,2*%
%TO.N,Net-(J1-Pin_1)*%
X154500000Y-108549224D03*
D36*
X155700000Y-108516020D03*
D37*
X153300000Y-108347985D03*
D38*
X156900000Y-108050000D03*
D39*
X152700000Y-107612566D03*
D40*
X152848223Y-107371642D03*
D41*
X156900000Y-107300001D03*
D42*
X153022712Y-107149004D03*
D43*
X156775998Y-107147539D03*
D44*
X153221235Y-106947503D03*
D45*
X156577318Y-106946193D03*
D46*
X153441250Y-106769718D03*
D47*
X156357164Y-106768579D03*
D48*
X153679940Y-106617925D03*
D49*
X156118355Y-106616973D03*
D50*
X153934250Y-106494068D03*
D51*
X155863948Y-106493314D03*
D52*
X154200924Y-106399731D03*
D53*
X155597201Y-106399186D03*
D54*
X154476547Y-106336124D03*
D55*
X155321528Y-106335794D03*
D56*
X154757592Y-106304060D03*
D57*
X155040459Y-106303949D03*
%TD*%
D10*
%TO.P,JW5,1,1*%
%TO.N,Net-(J1-Pin_2)*%
X143650000Y-116000000D03*
%TD*%
D58*
%TO.P,J1,1,Pin_1*%
%TO.N,Net-(J1-Pin_1)*%
X147914214Y-121114214D03*
D59*
%TO.P,J1,2,Pin_2*%
%TO.N,Net-(J1-Pin_2)*%
X146500000Y-119700000D03*
%TD*%
D60*
%TO.N,Net-(J1-Pin_2)*%
X150950000Y-115250000D03*
X150900000Y-104800000D03*
%TD*%
D61*
%TO.N,Net-(J1-Pin_1)*%
X157512400Y-112437600D02*
X157512400Y-108662400D01*
X144914214Y-121114214D02*
X147914214Y-121114214D01*
X140900000Y-117100000D02*
X144914214Y-121114214D01*
X157150000Y-104800000D02*
X157150000Y-107050001D01*
X157150000Y-107050001D02*
X156900000Y-107300001D01*
X157512400Y-108662400D02*
X156900000Y-108050000D01*
X140900000Y-113000000D02*
X147312566Y-113000000D01*
X157150000Y-112800000D02*
X157512400Y-112437600D01*
X140900000Y-113000000D02*
X140900000Y-117100000D01*
X147312566Y-113000000D02*
X152700000Y-107612566D01*
%TO.N,Net-(J1-Pin_2)*%
X143650000Y-116850000D02*
X146500000Y-119700000D01*
X152650000Y-112800000D02*
X152650000Y-109443717D01*
X152650000Y-113550000D02*
X152650000Y-112800000D01*
X143650000Y-116000000D02*
X143650000Y-116850000D01*
X150950000Y-115250000D02*
X152650000Y-113550000D01*
X152650000Y-104800000D02*
X150900000Y-104800000D01*
X152650000Y-109443717D02*
X152700000Y-109393717D01*
X146500000Y-119700000D02*
X150950000Y-115250000D01*
%TD*%
%TA.AperFunction,Conductor*%
%TO.N,Net-(J1-Pin_2)*%
G36*
X144105953Y-115004830D02*
G01*
X144106015Y-115004858D01*
X145743130Y-115746886D01*
X145749251Y-115753422D01*
X145750000Y-115757542D01*
X145750000Y-116242457D01*
X145746573Y-116250730D01*
X145743130Y-116253113D01*
X144106015Y-116995141D01*
X144097065Y-116995436D01*
X144090529Y-116989315D01*
X144090501Y-116989253D01*
X143970715Y-116720854D01*
X143651126Y-116004765D01*
X143650884Y-115995817D01*
X143651114Y-115995262D01*
X144090501Y-115010745D01*
X144097002Y-115004587D01*
X144105953Y-115004830D01*
G37*
%TD.AperFunction*%
%TD*%
%TA.AperFunction,Conductor*%
%TO.N,Net-(J1-Pin_1)*%
G36*
X141355953Y-112004830D02*
G01*
X141356015Y-112004858D01*
X142993130Y-112746886D01*
X142999251Y-112753422D01*
X143000000Y-112757542D01*
X143000000Y-113242457D01*
X142996573Y-113250730D01*
X142993130Y-113253113D01*
X141356015Y-113995141D01*
X141347065Y-113995436D01*
X141340529Y-113989315D01*
X141340501Y-113989253D01*
X141220715Y-113720854D01*
X140901126Y-113004765D01*
X140900884Y-112995817D01*
X140901114Y-112995262D01*
X141340501Y-112010745D01*
X141347002Y-112004587D01*
X141355953Y-112004830D01*
G37*
%TD.AperFunction*%
%TD*%
M02*
