%TF.GenerationSoftware,KiCad,Pcbnew,7.0.9*%
%TF.CreationDate,2023-12-20T17:27:25-07:00*%
%TF.ProjectId,nes_controller_pcb,6e65735f-636f-46e7-9472-6f6c6c65725f,4a*%
%TF.SameCoordinates,Original*%
%TF.FileFunction,Soldermask,Bot*%
%TF.FilePolarity,Negative*%
%FSLAX46Y46*%
G04 Gerber Fmt 4.6, Leading zero omitted, Abs format (unit mm)*
G04 Created by KiCad (PCBNEW 7.0.9) date 2023-12-20 17:27:25*
%MOMM*%
%LPD*%
G01*
G04 APERTURE LIST*
G04 Aperture macros list*
%AMRoundRect*
0 Rectangle with rounded corners*
0 $1 Rounding radius*
0 $2 $3 $4 $5 $6 $7 $8 $9 X,Y pos of 4 corners*
0 Add a 4 corners polygon primitive as box body*
4,1,4,$2,$3,$4,$5,$6,$7,$8,$9,$2,$3,0*
0 Add four circle primitives for the rounded corners*
1,1,$1+$1,$2,$3*
1,1,$1+$1,$4,$5*
1,1,$1+$1,$6,$7*
1,1,$1+$1,$8,$9*
0 Add four rect primitives between the rounded corners*
20,1,$1+$1,$2,$3,$4,$5,0*
20,1,$1+$1,$4,$5,$6,$7,0*
20,1,$1+$1,$6,$7,$8,$9,0*
20,1,$1+$1,$8,$9,$2,$3,0*%
G04 Aperture macros list end*
%ADD10C,0.010000*%
%ADD11RoundRect,0.050800X1.000000X0.750000X-1.000000X0.750000X-1.000000X-0.750000X1.000000X-0.750000X0*%
%ADD12RoundRect,0.050800X1.000000X1.900000X-1.000000X1.900000X-1.000000X-1.900000X1.000000X-1.900000X0*%
%ADD13RoundRect,0.190800X0.140000X0.170000X-0.140000X0.170000X-0.140000X-0.170000X0.140000X-0.170000X0*%
%ADD14RoundRect,0.190800X-0.140000X-0.170000X0.140000X-0.170000X0.140000X0.170000X-0.140000X0.170000X0*%
%ADD15O,0.801600X0.301600*%
%ADD16RoundRect,0.185800X-0.185000X0.135000X-0.185000X-0.135000X0.185000X-0.135000X0.185000X0.135000X0*%
%ADD17O,0.301600X0.801600*%
%ADD18RoundRect,0.050800X0.900000X0.550000X-0.900000X0.550000X-0.900000X-0.550000X0.900000X-0.550000X0*%
%ADD19RoundRect,0.185800X-0.135000X-0.185000X0.135000X-0.185000X0.135000X0.185000X-0.135000X0.185000X0*%
%ADD20RoundRect,0.050800X-0.550000X0.900000X-0.550000X-0.900000X0.550000X-0.900000X0.550000X0.900000X0*%
%ADD21RoundRect,0.300800X0.625000X-0.350000X0.625000X0.350000X-0.625000X0.350000X-0.625000X-0.350000X0*%
%ADD22O,1.851600X1.301600*%
%ADD23RoundRect,0.190800X-0.170000X0.140000X-0.170000X-0.140000X0.170000X-0.140000X0.170000X0.140000X0*%
%ADD24RoundRect,0.190800X0.170000X-0.140000X0.170000X0.140000X-0.170000X0.140000X-0.170000X-0.140000X0*%
%ADD25RoundRect,0.269550X-0.256250X0.218750X-0.256250X-0.218750X0.256250X-0.218750X0.256250X0.218750X0*%
%ADD26RoundRect,0.269550X-0.218750X-0.256250X0.218750X-0.256250X0.218750X0.256250X-0.218750X0.256250X0*%
%ADD27RoundRect,0.050800X0.200000X-0.325000X0.200000X0.325000X-0.200000X0.325000X-0.200000X-0.325000X0*%
%ADD28RoundRect,0.185800X0.185000X-0.135000X0.185000X0.135000X-0.185000X0.135000X-0.185000X-0.135000X0*%
%ADD29RoundRect,0.050800X0.805000X0.290000X-0.805000X0.290000X-0.805000X-0.290000X0.805000X-0.290000X0*%
%ADD30RoundRect,0.125800X0.225000X0.075000X-0.225000X0.075000X-0.225000X-0.075000X0.225000X-0.075000X0*%
%ADD31RoundRect,0.100800X0.050000X0.700000X-0.050000X0.700000X-0.050000X-0.700000X0.050000X-0.700000X0*%
%ADD32RoundRect,0.050800X0.575000X-0.700000X0.575000X0.700000X-0.575000X0.700000X-0.575000X-0.700000X0*%
%ADD33RoundRect,0.100800X0.387500X0.050000X-0.387500X0.050000X-0.387500X-0.050000X0.387500X-0.050000X0*%
%ADD34RoundRect,0.100800X0.050000X0.387500X-0.050000X0.387500X-0.050000X-0.387500X0.050000X-0.387500X0*%
%ADD35RoundRect,0.194800X1.456000X1.456000X-1.456000X1.456000X-1.456000X-1.456000X1.456000X-1.456000X0*%
G04 APERTURE END LIST*
%TO.C,Ref\u002A\u002A*%
D10*
X189694410Y-127929180D02*
X189711672Y-127946387D01*
X189739734Y-127982195D01*
X189779451Y-128038021D01*
X189831757Y-128115336D01*
X189897588Y-128215612D01*
X189977877Y-128340320D01*
X190073561Y-128490932D01*
X190185573Y-128668920D01*
X190314850Y-128875756D01*
X190462325Y-129112910D01*
X190628934Y-129381855D01*
X190815611Y-129684062D01*
X191023292Y-130021003D01*
X191077622Y-130109264D01*
X191241709Y-130376274D01*
X191399333Y-130633432D01*
X191549058Y-130878362D01*
X191689447Y-131108685D01*
X191819064Y-131322024D01*
X191936470Y-131516002D01*
X192040230Y-131688241D01*
X192128906Y-131836364D01*
X192201062Y-131957993D01*
X192255260Y-132050750D01*
X192290065Y-132112260D01*
X192304039Y-132140143D01*
X192308478Y-132156987D01*
X192309492Y-132244829D01*
X192271140Y-132319022D01*
X192195002Y-132376150D01*
X192182809Y-132381448D01*
X192166249Y-132386425D01*
X192143587Y-132390839D01*
X192112558Y-132394717D01*
X192070898Y-132398087D01*
X192016343Y-132400975D01*
X191946627Y-132403409D01*
X191859488Y-132405415D01*
X191752660Y-132407020D01*
X191623878Y-132408253D01*
X191470879Y-132409138D01*
X191291398Y-132409704D01*
X191083170Y-132409977D01*
X190843931Y-132409985D01*
X190571417Y-132409754D01*
X190263363Y-132409312D01*
X189917505Y-132408685D01*
X189531578Y-132407900D01*
X186942214Y-132402461D01*
X186880453Y-132333335D01*
X186851675Y-132296423D01*
X186822929Y-132225767D01*
X186828235Y-132147188D01*
X186867162Y-132051506D01*
X186868009Y-132049887D01*
X186892289Y-132006947D01*
X186936389Y-131932303D01*
X186998561Y-131828781D01*
X187077056Y-131699203D01*
X187170127Y-131546394D01*
X187276024Y-131373179D01*
X187392998Y-131182382D01*
X187519303Y-130976827D01*
X187653187Y-130759338D01*
X187792905Y-130532740D01*
X187936705Y-130299857D01*
X188082841Y-130063514D01*
X188229564Y-129826534D01*
X188375124Y-129591742D01*
X188517775Y-129361962D01*
X188655766Y-129140019D01*
X188787349Y-128928737D01*
X188910776Y-128730939D01*
X189024299Y-128549451D01*
X189126168Y-128387097D01*
X189214636Y-128246701D01*
X189287953Y-128131087D01*
X189344371Y-128043080D01*
X189382142Y-127985504D01*
X189399517Y-127961183D01*
X189430520Y-127933980D01*
X189515852Y-127893615D01*
X189606860Y-127891684D01*
X189694410Y-127929180D01*
G36*
X189694410Y-127929180D02*
G01*
X189711672Y-127946387D01*
X189739734Y-127982195D01*
X189779451Y-128038021D01*
X189831757Y-128115336D01*
X189897588Y-128215612D01*
X189977877Y-128340320D01*
X190073561Y-128490932D01*
X190185573Y-128668920D01*
X190314850Y-128875756D01*
X190462325Y-129112910D01*
X190628934Y-129381855D01*
X190815611Y-129684062D01*
X191023292Y-130021003D01*
X191077622Y-130109264D01*
X191241709Y-130376274D01*
X191399333Y-130633432D01*
X191549058Y-130878362D01*
X191689447Y-131108685D01*
X191819064Y-131322024D01*
X191936470Y-131516002D01*
X192040230Y-131688241D01*
X192128906Y-131836364D01*
X192201062Y-131957993D01*
X192255260Y-132050750D01*
X192290065Y-132112260D01*
X192304039Y-132140143D01*
X192308478Y-132156987D01*
X192309492Y-132244829D01*
X192271140Y-132319022D01*
X192195002Y-132376150D01*
X192182809Y-132381448D01*
X192166249Y-132386425D01*
X192143587Y-132390839D01*
X192112558Y-132394717D01*
X192070898Y-132398087D01*
X192016343Y-132400975D01*
X191946627Y-132403409D01*
X191859488Y-132405415D01*
X191752660Y-132407020D01*
X191623878Y-132408253D01*
X191470879Y-132409138D01*
X191291398Y-132409704D01*
X191083170Y-132409977D01*
X190843931Y-132409985D01*
X190571417Y-132409754D01*
X190263363Y-132409312D01*
X189917505Y-132408685D01*
X189531578Y-132407900D01*
X186942214Y-132402461D01*
X186880453Y-132333335D01*
X186851675Y-132296423D01*
X186822929Y-132225767D01*
X186828235Y-132147188D01*
X186867162Y-132051506D01*
X186868009Y-132049887D01*
X186892289Y-132006947D01*
X186936389Y-131932303D01*
X186998561Y-131828781D01*
X187077056Y-131699203D01*
X187170127Y-131546394D01*
X187276024Y-131373179D01*
X187392998Y-131182382D01*
X187519303Y-130976827D01*
X187653187Y-130759338D01*
X187792905Y-130532740D01*
X187936705Y-130299857D01*
X188082841Y-130063514D01*
X188229564Y-129826534D01*
X188375124Y-129591742D01*
X188517775Y-129361962D01*
X188655766Y-129140019D01*
X188787349Y-128928737D01*
X188910776Y-128730939D01*
X189024299Y-128549451D01*
X189126168Y-128387097D01*
X189214636Y-128246701D01*
X189287953Y-128131087D01*
X189344371Y-128043080D01*
X189382142Y-127985504D01*
X189399517Y-127961183D01*
X189430520Y-127933980D01*
X189515852Y-127893615D01*
X189606860Y-127891684D01*
X189694410Y-127929180D01*
G37*
X202258518Y-127909502D02*
X202340678Y-127974843D01*
X202348066Y-127984188D01*
X202379170Y-128029328D01*
X202429481Y-128106187D01*
X202497266Y-128211944D01*
X202580794Y-128343783D01*
X202678332Y-128498882D01*
X202788148Y-128674424D01*
X202908508Y-128867589D01*
X203037680Y-129075558D01*
X203173933Y-129295512D01*
X203315533Y-129524633D01*
X203460748Y-129760100D01*
X203607845Y-129999095D01*
X203755093Y-130238799D01*
X203900758Y-130476393D01*
X204043108Y-130709058D01*
X204180410Y-130933975D01*
X204310933Y-131148324D01*
X204432943Y-131349287D01*
X204544708Y-131534045D01*
X204644496Y-131699778D01*
X204730574Y-131843668D01*
X204801210Y-131962895D01*
X204854671Y-132054641D01*
X204889225Y-132116086D01*
X204903138Y-132144411D01*
X204907291Y-132161307D01*
X204907415Y-132247564D01*
X204867955Y-132319019D01*
X204788764Y-132375969D01*
X204779878Y-132379972D01*
X204764127Y-132385116D01*
X204742560Y-132389700D01*
X204712895Y-132393753D01*
X204672849Y-132397310D01*
X204620139Y-132400403D01*
X204552485Y-132403063D01*
X204467602Y-132405322D01*
X204363209Y-132407214D01*
X204237024Y-132408770D01*
X204086764Y-132410023D01*
X203910147Y-132411005D01*
X203704891Y-132411748D01*
X203468713Y-132412285D01*
X203199331Y-132412647D01*
X202894463Y-132412867D01*
X202551826Y-132412978D01*
X202169138Y-132413011D01*
X202085938Y-132413013D01*
X201704786Y-132413042D01*
X201363271Y-132413029D01*
X201059157Y-132412879D01*
X200790206Y-132412498D01*
X200554181Y-132411793D01*
X200348844Y-132410668D01*
X200171959Y-132409029D01*
X200021287Y-132406781D01*
X199894592Y-132403831D01*
X199789637Y-132400083D01*
X199704183Y-132395443D01*
X199635995Y-132389818D01*
X199582834Y-132383112D01*
X199542464Y-132375231D01*
X199512647Y-132366081D01*
X199491145Y-132355567D01*
X199475722Y-132343595D01*
X199464141Y-132330070D01*
X199454163Y-132314898D01*
X199443553Y-132297985D01*
X199422075Y-132251112D01*
X199419601Y-132168033D01*
X199425256Y-132154021D01*
X199451363Y-132104492D01*
X199497034Y-132023642D01*
X199560553Y-131914272D01*
X199640202Y-131779184D01*
X199734264Y-131621180D01*
X199841020Y-131443061D01*
X199958755Y-131247629D01*
X200085749Y-131037685D01*
X200220286Y-130816031D01*
X200360648Y-130585470D01*
X200505118Y-130348802D01*
X200651979Y-130108829D01*
X200799512Y-129868352D01*
X200946000Y-129630175D01*
X201089727Y-129397097D01*
X201228974Y-129171922D01*
X201362023Y-128957449D01*
X201487159Y-128756482D01*
X201602662Y-128571822D01*
X201706816Y-128406270D01*
X201797903Y-128262629D01*
X201874206Y-128143699D01*
X201934007Y-128052282D01*
X201975589Y-127991181D01*
X201997234Y-127963196D01*
X202083184Y-127904075D01*
X202171658Y-127885878D01*
X202258518Y-127909502D01*
G36*
X202258518Y-127909502D02*
G01*
X202340678Y-127974843D01*
X202348066Y-127984188D01*
X202379170Y-128029328D01*
X202429481Y-128106187D01*
X202497266Y-128211944D01*
X202580794Y-128343783D01*
X202678332Y-128498882D01*
X202788148Y-128674424D01*
X202908508Y-128867589D01*
X203037680Y-129075558D01*
X203173933Y-129295512D01*
X203315533Y-129524633D01*
X203460748Y-129760100D01*
X203607845Y-129999095D01*
X203755093Y-130238799D01*
X203900758Y-130476393D01*
X204043108Y-130709058D01*
X204180410Y-130933975D01*
X204310933Y-131148324D01*
X204432943Y-131349287D01*
X204544708Y-131534045D01*
X204644496Y-131699778D01*
X204730574Y-131843668D01*
X204801210Y-131962895D01*
X204854671Y-132054641D01*
X204889225Y-132116086D01*
X204903138Y-132144411D01*
X204907291Y-132161307D01*
X204907415Y-132247564D01*
X204867955Y-132319019D01*
X204788764Y-132375969D01*
X204779878Y-132379972D01*
X204764127Y-132385116D01*
X204742560Y-132389700D01*
X204712895Y-132393753D01*
X204672849Y-132397310D01*
X204620139Y-132400403D01*
X204552485Y-132403063D01*
X204467602Y-132405322D01*
X204363209Y-132407214D01*
X204237024Y-132408770D01*
X204086764Y-132410023D01*
X203910147Y-132411005D01*
X203704891Y-132411748D01*
X203468713Y-132412285D01*
X203199331Y-132412647D01*
X202894463Y-132412867D01*
X202551826Y-132412978D01*
X202169138Y-132413011D01*
X202085938Y-132413013D01*
X201704786Y-132413042D01*
X201363271Y-132413029D01*
X201059157Y-132412879D01*
X200790206Y-132412498D01*
X200554181Y-132411793D01*
X200348844Y-132410668D01*
X200171959Y-132409029D01*
X200021287Y-132406781D01*
X199894592Y-132403831D01*
X199789637Y-132400083D01*
X199704183Y-132395443D01*
X199635995Y-132389818D01*
X199582834Y-132383112D01*
X199542464Y-132375231D01*
X199512647Y-132366081D01*
X199491145Y-132355567D01*
X199475722Y-132343595D01*
X199464141Y-132330070D01*
X199454163Y-132314898D01*
X199443553Y-132297985D01*
X199422075Y-132251112D01*
X199419601Y-132168033D01*
X199425256Y-132154021D01*
X199451363Y-132104492D01*
X199497034Y-132023642D01*
X199560553Y-131914272D01*
X199640202Y-131779184D01*
X199734264Y-131621180D01*
X199841020Y-131443061D01*
X199958755Y-131247629D01*
X200085749Y-131037685D01*
X200220286Y-130816031D01*
X200360648Y-130585470D01*
X200505118Y-130348802D01*
X200651979Y-130108829D01*
X200799512Y-129868352D01*
X200946000Y-129630175D01*
X201089727Y-129397097D01*
X201228974Y-129171922D01*
X201362023Y-128957449D01*
X201487159Y-128756482D01*
X201602662Y-128571822D01*
X201706816Y-128406270D01*
X201797903Y-128262629D01*
X201874206Y-128143699D01*
X201934007Y-128052282D01*
X201975589Y-127991181D01*
X201997234Y-127963196D01*
X202083184Y-127904075D01*
X202171658Y-127885878D01*
X202258518Y-127909502D01*
G37*
X187732320Y-123947528D02*
X188080595Y-123947736D01*
X188468848Y-123948004D01*
X188545435Y-123948057D01*
X188944503Y-123948469D01*
X189303206Y-123949093D01*
X189623211Y-123949946D01*
X189906187Y-123951045D01*
X190153799Y-123952408D01*
X190367715Y-123954052D01*
X190549601Y-123955994D01*
X190701126Y-123958252D01*
X190823955Y-123960842D01*
X190919757Y-123963782D01*
X190990197Y-123967089D01*
X191036944Y-123970781D01*
X191061664Y-123974875D01*
X191108683Y-123994136D01*
X191176143Y-124050730D01*
X191209860Y-124127289D01*
X191205776Y-124217000D01*
X191201853Y-124225171D01*
X191178102Y-124267067D01*
X191134014Y-124341905D01*
X191070826Y-124447671D01*
X190989772Y-124582352D01*
X190892090Y-124743934D01*
X190779015Y-124930403D01*
X190651783Y-125139746D01*
X190511630Y-125369948D01*
X190359793Y-125618997D01*
X190197506Y-125884878D01*
X190026006Y-126165578D01*
X189846530Y-126459083D01*
X189660312Y-126763380D01*
X189468590Y-127076454D01*
X189272598Y-127396292D01*
X189073573Y-127720881D01*
X188872751Y-128048206D01*
X188671368Y-128376255D01*
X188470660Y-128703012D01*
X188271862Y-129026466D01*
X188076212Y-129344601D01*
X187884944Y-129655404D01*
X187699295Y-129956862D01*
X187520500Y-130246961D01*
X187349797Y-130523687D01*
X187188420Y-130785026D01*
X187037605Y-131028966D01*
X186898589Y-131253491D01*
X186772608Y-131456589D01*
X186660898Y-131636245D01*
X186564694Y-131790447D01*
X186485232Y-131917180D01*
X186423749Y-132014430D01*
X186381481Y-132080185D01*
X186359662Y-132112430D01*
X186290444Y-132183882D01*
X186190478Y-132258017D01*
X186075245Y-132323394D01*
X185958143Y-132371375D01*
X185952450Y-132373170D01*
X185932247Y-132378888D01*
X185909107Y-132383992D01*
X185880711Y-132388512D01*
X185844744Y-132392477D01*
X185798887Y-132395919D01*
X185740822Y-132398867D01*
X185668233Y-132401351D01*
X185578803Y-132403402D01*
X185470213Y-132405050D01*
X185340146Y-132406326D01*
X185186285Y-132407259D01*
X185006313Y-132407880D01*
X184797912Y-132408219D01*
X184558765Y-132408306D01*
X184286554Y-132408172D01*
X183978962Y-132407846D01*
X183633672Y-132407360D01*
X183248366Y-132406743D01*
X180662289Y-132402461D01*
X180602532Y-132357997D01*
X180552305Y-132296337D01*
X180532585Y-132213054D01*
X180544287Y-132116552D01*
X180587753Y-132014810D01*
X180600388Y-131993885D01*
X180634948Y-131937301D01*
X180689766Y-131847846D01*
X180763784Y-131727236D01*
X180855946Y-131577189D01*
X180965196Y-131399422D01*
X181090478Y-131195652D01*
X181230734Y-130967597D01*
X181384909Y-130716975D01*
X181551945Y-130445501D01*
X181730787Y-130154895D01*
X181920379Y-129846872D01*
X182119663Y-129523151D01*
X182327583Y-129185449D01*
X182543082Y-128835483D01*
X182765105Y-128474970D01*
X182992595Y-128105627D01*
X183238479Y-127706670D01*
X183485653Y-127306093D01*
X183721758Y-126923948D01*
X183946005Y-126561496D01*
X184157607Y-126220001D01*
X184355775Y-125900724D01*
X184539722Y-125604929D01*
X184708660Y-125333877D01*
X184861800Y-125088832D01*
X184998356Y-124871055D01*
X185117538Y-124681810D01*
X185218559Y-124522359D01*
X185300632Y-124393963D01*
X185362967Y-124297887D01*
X185404778Y-124235392D01*
X185425276Y-124207741D01*
X185458164Y-124176614D01*
X185535841Y-124114287D01*
X185610859Y-124065563D01*
X185612855Y-124064475D01*
X185644528Y-124047035D01*
X185673758Y-124031399D01*
X185702904Y-124017471D01*
X185734320Y-124005153D01*
X185770365Y-123994349D01*
X185813394Y-123984962D01*
X185865763Y-123976894D01*
X185929830Y-123970049D01*
X186007952Y-123964330D01*
X186102484Y-123959640D01*
X186215783Y-123955882D01*
X186350207Y-123952959D01*
X186508111Y-123950774D01*
X186691852Y-123949230D01*
X186903787Y-123948230D01*
X187146272Y-123947678D01*
X187421664Y-123947476D01*
X187732320Y-123947528D01*
G36*
X187732320Y-123947528D02*
G01*
X188080595Y-123947736D01*
X188468848Y-123948004D01*
X188545435Y-123948057D01*
X188944503Y-123948469D01*
X189303206Y-123949093D01*
X189623211Y-123949946D01*
X189906187Y-123951045D01*
X190153799Y-123952408D01*
X190367715Y-123954052D01*
X190549601Y-123955994D01*
X190701126Y-123958252D01*
X190823955Y-123960842D01*
X190919757Y-123963782D01*
X190990197Y-123967089D01*
X191036944Y-123970781D01*
X191061664Y-123974875D01*
X191108683Y-123994136D01*
X191176143Y-124050730D01*
X191209860Y-124127289D01*
X191205776Y-124217000D01*
X191201853Y-124225171D01*
X191178102Y-124267067D01*
X191134014Y-124341905D01*
X191070826Y-124447671D01*
X190989772Y-124582352D01*
X190892090Y-124743934D01*
X190779015Y-124930403D01*
X190651783Y-125139746D01*
X190511630Y-125369948D01*
X190359793Y-125618997D01*
X190197506Y-125884878D01*
X190026006Y-126165578D01*
X189846530Y-126459083D01*
X189660312Y-126763380D01*
X189468590Y-127076454D01*
X189272598Y-127396292D01*
X189073573Y-127720881D01*
X188872751Y-128048206D01*
X188671368Y-128376255D01*
X188470660Y-128703012D01*
X188271862Y-129026466D01*
X188076212Y-129344601D01*
X187884944Y-129655404D01*
X187699295Y-129956862D01*
X187520500Y-130246961D01*
X187349797Y-130523687D01*
X187188420Y-130785026D01*
X187037605Y-131028966D01*
X186898589Y-131253491D01*
X186772608Y-131456589D01*
X186660898Y-131636245D01*
X186564694Y-131790447D01*
X186485232Y-131917180D01*
X186423749Y-132014430D01*
X186381481Y-132080185D01*
X186359662Y-132112430D01*
X186290444Y-132183882D01*
X186190478Y-132258017D01*
X186075245Y-132323394D01*
X185958143Y-132371375D01*
X185952450Y-132373170D01*
X185932247Y-132378888D01*
X185909107Y-132383992D01*
X185880711Y-132388512D01*
X185844744Y-132392477D01*
X185798887Y-132395919D01*
X185740822Y-132398867D01*
X185668233Y-132401351D01*
X185578803Y-132403402D01*
X185470213Y-132405050D01*
X185340146Y-132406326D01*
X185186285Y-132407259D01*
X185006313Y-132407880D01*
X184797912Y-132408219D01*
X184558765Y-132408306D01*
X184286554Y-132408172D01*
X183978962Y-132407846D01*
X183633672Y-132407360D01*
X183248366Y-132406743D01*
X180662289Y-132402461D01*
X180602532Y-132357997D01*
X180552305Y-132296337D01*
X180532585Y-132213054D01*
X180544287Y-132116552D01*
X180587753Y-132014810D01*
X180600388Y-131993885D01*
X180634948Y-131937301D01*
X180689766Y-131847846D01*
X180763784Y-131727236D01*
X180855946Y-131577189D01*
X180965196Y-131399422D01*
X181090478Y-131195652D01*
X181230734Y-130967597D01*
X181384909Y-130716975D01*
X181551945Y-130445501D01*
X181730787Y-130154895D01*
X181920379Y-129846872D01*
X182119663Y-129523151D01*
X182327583Y-129185449D01*
X182543082Y-128835483D01*
X182765105Y-128474970D01*
X182992595Y-128105627D01*
X183238479Y-127706670D01*
X183485653Y-127306093D01*
X183721758Y-126923948D01*
X183946005Y-126561496D01*
X184157607Y-126220001D01*
X184355775Y-125900724D01*
X184539722Y-125604929D01*
X184708660Y-125333877D01*
X184861800Y-125088832D01*
X184998356Y-124871055D01*
X185117538Y-124681810D01*
X185218559Y-124522359D01*
X185300632Y-124393963D01*
X185362967Y-124297887D01*
X185404778Y-124235392D01*
X185425276Y-124207741D01*
X185458164Y-124176614D01*
X185535841Y-124114287D01*
X185610859Y-124065563D01*
X185612855Y-124064475D01*
X185644528Y-124047035D01*
X185673758Y-124031399D01*
X185702904Y-124017471D01*
X185734320Y-124005153D01*
X185770365Y-123994349D01*
X185813394Y-123984962D01*
X185865763Y-123976894D01*
X185929830Y-123970049D01*
X186007952Y-123964330D01*
X186102484Y-123959640D01*
X186215783Y-123955882D01*
X186350207Y-123952959D01*
X186508111Y-123950774D01*
X186691852Y-123949230D01*
X186903787Y-123948230D01*
X187146272Y-123947678D01*
X187421664Y-123947476D01*
X187732320Y-123947528D01*
G37*
X193051206Y-123951743D02*
X193166089Y-123959004D01*
X193260623Y-123971281D01*
X193341026Y-123989259D01*
X193413520Y-124013620D01*
X193484324Y-124045048D01*
X193512202Y-124059019D01*
X193552295Y-124081262D01*
X193590807Y-124106747D01*
X193629552Y-124138005D01*
X193670349Y-124177566D01*
X193715013Y-124227964D01*
X193765360Y-124291728D01*
X193823208Y-124371390D01*
X193890373Y-124469482D01*
X193968672Y-124588534D01*
X194059921Y-124731077D01*
X194165936Y-124899644D01*
X194288534Y-125096765D01*
X194429532Y-125324971D01*
X194590745Y-125586794D01*
X194691017Y-125749891D01*
X194819304Y-125958860D01*
X194940667Y-126156887D01*
X195053194Y-126340834D01*
X195154973Y-126507566D01*
X195244092Y-126653945D01*
X195318641Y-126776836D01*
X195376707Y-126873101D01*
X195416378Y-126939605D01*
X195435744Y-126973211D01*
X195452409Y-127006637D01*
X195470074Y-127054762D01*
X195480401Y-127110425D01*
X195485240Y-127185213D01*
X195486442Y-127290711D01*
X195486137Y-127349689D01*
X195483110Y-127439147D01*
X195475435Y-127503357D01*
X195461397Y-127553601D01*
X195439283Y-127601162D01*
X195438141Y-127603286D01*
X195409491Y-127653657D01*
X195361375Y-127735057D01*
X195295529Y-127844692D01*
X195213687Y-127979764D01*
X195117582Y-128137479D01*
X195008950Y-128315040D01*
X194889525Y-128509651D01*
X194761040Y-128718518D01*
X194625231Y-128938842D01*
X194483831Y-129167830D01*
X194338575Y-129402685D01*
X194191197Y-129640611D01*
X194043431Y-129878812D01*
X193897013Y-130114493D01*
X193753675Y-130344857D01*
X193615153Y-130567109D01*
X193483180Y-130778452D01*
X193359491Y-130976092D01*
X193245820Y-131157232D01*
X193143902Y-131319075D01*
X193055471Y-131458828D01*
X192982261Y-131573692D01*
X192926007Y-131660873D01*
X192888442Y-131717575D01*
X192871301Y-131741002D01*
X192868946Y-131743145D01*
X192787757Y-131789485D01*
X192694536Y-131797854D01*
X192597241Y-131767485D01*
X192589906Y-131763725D01*
X192580791Y-131758518D01*
X192571007Y-131751250D01*
X192559422Y-131740133D01*
X192544902Y-131723378D01*
X192526312Y-131699197D01*
X192502519Y-131665801D01*
X192472390Y-131621402D01*
X192434791Y-131564211D01*
X192388589Y-131492441D01*
X192332649Y-131404302D01*
X192265838Y-131298006D01*
X192187023Y-131171765D01*
X192095070Y-131023791D01*
X191988845Y-130852294D01*
X191867215Y-130655487D01*
X191729046Y-130431581D01*
X191573204Y-130178787D01*
X191398556Y-129895318D01*
X191203969Y-129579385D01*
X190988307Y-129229199D01*
X190903583Y-129091609D01*
X190736356Y-128819813D01*
X190589456Y-128580501D01*
X190461568Y-128371263D01*
X190351374Y-128189687D01*
X190257560Y-128033361D01*
X190178808Y-127899875D01*
X190113803Y-127786816D01*
X190061228Y-127691775D01*
X190019768Y-127612340D01*
X189988106Y-127546099D01*
X189964927Y-127490641D01*
X189948913Y-127443556D01*
X189938748Y-127402431D01*
X189933118Y-127364856D01*
X189930704Y-127328420D01*
X189930192Y-127290711D01*
X189930193Y-127289827D01*
X189930876Y-127248727D01*
X189933846Y-127209051D01*
X189940530Y-127168125D01*
X189952357Y-127123279D01*
X189970758Y-127071839D01*
X189997160Y-127011134D01*
X190032994Y-126938490D01*
X190079687Y-126851237D01*
X190138670Y-126746701D01*
X190211371Y-126622211D01*
X190299219Y-126475094D01*
X190403644Y-126302678D01*
X190526074Y-126102291D01*
X190667938Y-125871259D01*
X190830667Y-125606912D01*
X190940703Y-125428342D01*
X191085064Y-125194412D01*
X191210143Y-124992335D01*
X191317605Y-124819574D01*
X191409118Y-124673589D01*
X191486347Y-124551844D01*
X191550959Y-124451801D01*
X191604620Y-124370920D01*
X191648998Y-124306665D01*
X191685758Y-124256496D01*
X191716568Y-124217876D01*
X191743093Y-124188268D01*
X191767000Y-124165132D01*
X191789955Y-124145931D01*
X191813442Y-124127673D01*
X191883345Y-124076828D01*
X191949165Y-124037281D01*
X192017532Y-124007495D01*
X192095077Y-123985931D01*
X192188431Y-123971050D01*
X192304223Y-123961316D01*
X192449085Y-123955188D01*
X192629646Y-123951130D01*
X192735505Y-123949535D01*
X192909751Y-123948814D01*
X193051206Y-123951743D01*
G36*
X193051206Y-123951743D02*
G01*
X193166089Y-123959004D01*
X193260623Y-123971281D01*
X193341026Y-123989259D01*
X193413520Y-124013620D01*
X193484324Y-124045048D01*
X193512202Y-124059019D01*
X193552295Y-124081262D01*
X193590807Y-124106747D01*
X193629552Y-124138005D01*
X193670349Y-124177566D01*
X193715013Y-124227964D01*
X193765360Y-124291728D01*
X193823208Y-124371390D01*
X193890373Y-124469482D01*
X193968672Y-124588534D01*
X194059921Y-124731077D01*
X194165936Y-124899644D01*
X194288534Y-125096765D01*
X194429532Y-125324971D01*
X194590745Y-125586794D01*
X194691017Y-125749891D01*
X194819304Y-125958860D01*
X194940667Y-126156887D01*
X195053194Y-126340834D01*
X195154973Y-126507566D01*
X195244092Y-126653945D01*
X195318641Y-126776836D01*
X195376707Y-126873101D01*
X195416378Y-126939605D01*
X195435744Y-126973211D01*
X195452409Y-127006637D01*
X195470074Y-127054762D01*
X195480401Y-127110425D01*
X195485240Y-127185213D01*
X195486442Y-127290711D01*
X195486137Y-127349689D01*
X195483110Y-127439147D01*
X195475435Y-127503357D01*
X195461397Y-127553601D01*
X195439283Y-127601162D01*
X195438141Y-127603286D01*
X195409491Y-127653657D01*
X195361375Y-127735057D01*
X195295529Y-127844692D01*
X195213687Y-127979764D01*
X195117582Y-128137479D01*
X195008950Y-128315040D01*
X194889525Y-128509651D01*
X194761040Y-128718518D01*
X194625231Y-128938842D01*
X194483831Y-129167830D01*
X194338575Y-129402685D01*
X194191197Y-129640611D01*
X194043431Y-129878812D01*
X193897013Y-130114493D01*
X193753675Y-130344857D01*
X193615153Y-130567109D01*
X193483180Y-130778452D01*
X193359491Y-130976092D01*
X193245820Y-131157232D01*
X193143902Y-131319075D01*
X193055471Y-131458828D01*
X192982261Y-131573692D01*
X192926007Y-131660873D01*
X192888442Y-131717575D01*
X192871301Y-131741002D01*
X192868946Y-131743145D01*
X192787757Y-131789485D01*
X192694536Y-131797854D01*
X192597241Y-131767485D01*
X192589906Y-131763725D01*
X192580791Y-131758518D01*
X192571007Y-131751250D01*
X192559422Y-131740133D01*
X192544902Y-131723378D01*
X192526312Y-131699197D01*
X192502519Y-131665801D01*
X192472390Y-131621402D01*
X192434791Y-131564211D01*
X192388589Y-131492441D01*
X192332649Y-131404302D01*
X192265838Y-131298006D01*
X192187023Y-131171765D01*
X192095070Y-131023791D01*
X191988845Y-130852294D01*
X191867215Y-130655487D01*
X191729046Y-130431581D01*
X191573204Y-130178787D01*
X191398556Y-129895318D01*
X191203969Y-129579385D01*
X190988307Y-129229199D01*
X190903583Y-129091609D01*
X190736356Y-128819813D01*
X190589456Y-128580501D01*
X190461568Y-128371263D01*
X190351374Y-128189687D01*
X190257560Y-128033361D01*
X190178808Y-127899875D01*
X190113803Y-127786816D01*
X190061228Y-127691775D01*
X190019768Y-127612340D01*
X189988106Y-127546099D01*
X189964927Y-127490641D01*
X189948913Y-127443556D01*
X189938748Y-127402431D01*
X189933118Y-127364856D01*
X189930704Y-127328420D01*
X189930192Y-127290711D01*
X189930193Y-127289827D01*
X189930876Y-127248727D01*
X189933846Y-127209051D01*
X189940530Y-127168125D01*
X189952357Y-127123279D01*
X189970758Y-127071839D01*
X189997160Y-127011134D01*
X190032994Y-126938490D01*
X190079687Y-126851237D01*
X190138670Y-126746701D01*
X190211371Y-126622211D01*
X190299219Y-126475094D01*
X190403644Y-126302678D01*
X190526074Y-126102291D01*
X190667938Y-125871259D01*
X190830667Y-125606912D01*
X190940703Y-125428342D01*
X191085064Y-125194412D01*
X191210143Y-124992335D01*
X191317605Y-124819574D01*
X191409118Y-124673589D01*
X191486347Y-124551844D01*
X191550959Y-124451801D01*
X191604620Y-124370920D01*
X191648998Y-124306665D01*
X191685758Y-124256496D01*
X191716568Y-124217876D01*
X191743093Y-124188268D01*
X191767000Y-124165132D01*
X191789955Y-124145931D01*
X191813442Y-124127673D01*
X191883345Y-124076828D01*
X191949165Y-124037281D01*
X192017532Y-124007495D01*
X192095077Y-123985931D01*
X192188431Y-123971050D01*
X192304223Y-123961316D01*
X192449085Y-123955188D01*
X192629646Y-123951130D01*
X192735505Y-123949535D01*
X192909751Y-123948814D01*
X193051206Y-123951743D01*
G37*
X199145764Y-123947887D02*
X199283679Y-123950696D01*
X199405361Y-123955364D01*
X199502122Y-123961870D01*
X199565276Y-123970195D01*
X199626663Y-123986109D01*
X199764903Y-124039809D01*
X199895216Y-124112324D01*
X200000405Y-124194776D01*
X200009044Y-124204548D01*
X200044112Y-124252148D01*
X200098945Y-124332675D01*
X200172065Y-124443812D01*
X200261993Y-124583242D01*
X200367251Y-124748647D01*
X200486361Y-124937711D01*
X200617844Y-125148116D01*
X200760222Y-125377546D01*
X200912017Y-125623683D01*
X201036545Y-125826305D01*
X201182728Y-126064676D01*
X201309130Y-126271761D01*
X201417184Y-126450238D01*
X201508323Y-126602782D01*
X201583980Y-126732069D01*
X201645590Y-126840776D01*
X201694583Y-126931580D01*
X201732395Y-127007156D01*
X201760457Y-127070181D01*
X201780204Y-127123331D01*
X201793067Y-127169283D01*
X201800481Y-127210713D01*
X201803879Y-127250296D01*
X201804692Y-127290711D01*
X201804647Y-127304133D01*
X201803799Y-127334909D01*
X201801000Y-127365813D01*
X201795126Y-127398841D01*
X201785052Y-127435989D01*
X201769653Y-127479253D01*
X201747803Y-127530626D01*
X201718378Y-127592106D01*
X201680252Y-127665686D01*
X201632302Y-127753363D01*
X201573401Y-127857132D01*
X201502425Y-127978988D01*
X201418249Y-128120927D01*
X201319747Y-128284944D01*
X201205796Y-128473034D01*
X201075269Y-128687192D01*
X200927043Y-128929415D01*
X200759991Y-129201696D01*
X200572989Y-129506033D01*
X200364912Y-129844419D01*
X200343098Y-129879886D01*
X200123512Y-130236568D01*
X199924934Y-130558448D01*
X199746544Y-130846825D01*
X199587520Y-131102998D01*
X199447042Y-131328265D01*
X199324287Y-131523927D01*
X199218435Y-131691282D01*
X199128664Y-131831628D01*
X199054153Y-131946266D01*
X198994080Y-132036495D01*
X198947625Y-132103612D01*
X198913966Y-132148918D01*
X198892281Y-132173712D01*
X198835887Y-132220853D01*
X198725194Y-132294007D01*
X198606210Y-132354512D01*
X198496736Y-132392520D01*
X198479126Y-132394047D01*
X198420301Y-132396101D01*
X198323768Y-132398099D01*
X198192197Y-132400022D01*
X198028258Y-132401851D01*
X197834624Y-132403569D01*
X197613965Y-132405155D01*
X197368951Y-132406591D01*
X197102255Y-132407860D01*
X196816546Y-132408941D01*
X196514495Y-132409817D01*
X196198775Y-132410469D01*
X195872054Y-132410877D01*
X195851744Y-132410894D01*
X195462926Y-132411235D01*
X195114113Y-132411499D01*
X194803087Y-132411604D01*
X194527629Y-132411464D01*
X194285520Y-132410995D01*
X194074543Y-132410111D01*
X193892478Y-132408727D01*
X193737107Y-132406760D01*
X193606213Y-132404124D01*
X193497575Y-132400735D01*
X193408976Y-132396507D01*
X193338197Y-132391357D01*
X193283021Y-132385198D01*
X193241227Y-132377947D01*
X193210598Y-132369518D01*
X193188915Y-132359828D01*
X193173960Y-132348790D01*
X193163515Y-132336320D01*
X193155360Y-132322334D01*
X193147278Y-132306747D01*
X193142533Y-132298199D01*
X193135066Y-132284908D01*
X193128874Y-132271564D01*
X193124794Y-132256725D01*
X193123662Y-132238952D01*
X193126312Y-132216805D01*
X193133582Y-132188842D01*
X193146307Y-132153623D01*
X193165323Y-132109709D01*
X193191465Y-132055658D01*
X193225570Y-131990031D01*
X193268474Y-131911388D01*
X193321012Y-131818287D01*
X193384021Y-131709288D01*
X193458336Y-131582952D01*
X193544794Y-131437838D01*
X193644229Y-131272505D01*
X193757479Y-131085514D01*
X193885378Y-130875424D01*
X194028763Y-130640794D01*
X194188470Y-130380184D01*
X194365334Y-130092154D01*
X194560193Y-129775264D01*
X194773880Y-129428074D01*
X195007233Y-129049142D01*
X195261087Y-128637029D01*
X195536278Y-128190294D01*
X195560017Y-128151757D01*
X195820480Y-127729195D01*
X196070308Y-127324364D01*
X196308737Y-126938489D01*
X196535003Y-126572796D01*
X196748341Y-126228509D01*
X196947986Y-125906854D01*
X197133175Y-125609055D01*
X197303143Y-125336337D01*
X197457126Y-125089926D01*
X197594359Y-124871047D01*
X197714078Y-124680924D01*
X197815519Y-124520782D01*
X197897917Y-124391848D01*
X197960507Y-124295344D01*
X198002527Y-124232498D01*
X198023210Y-124204533D01*
X198077889Y-124154955D01*
X198199926Y-124073304D01*
X198339045Y-124008078D01*
X198479123Y-123967656D01*
X198516754Y-123962439D01*
X198605523Y-123955648D01*
X198721496Y-123950818D01*
X198855985Y-123947928D01*
X199000304Y-123946958D01*
X199145764Y-123947887D01*
G36*
X199145764Y-123947887D02*
G01*
X199283679Y-123950696D01*
X199405361Y-123955364D01*
X199502122Y-123961870D01*
X199565276Y-123970195D01*
X199626663Y-123986109D01*
X199764903Y-124039809D01*
X199895216Y-124112324D01*
X200000405Y-124194776D01*
X200009044Y-124204548D01*
X200044112Y-124252148D01*
X200098945Y-124332675D01*
X200172065Y-124443812D01*
X200261993Y-124583242D01*
X200367251Y-124748647D01*
X200486361Y-124937711D01*
X200617844Y-125148116D01*
X200760222Y-125377546D01*
X200912017Y-125623683D01*
X201036545Y-125826305D01*
X201182728Y-126064676D01*
X201309130Y-126271761D01*
X201417184Y-126450238D01*
X201508323Y-126602782D01*
X201583980Y-126732069D01*
X201645590Y-126840776D01*
X201694583Y-126931580D01*
X201732395Y-127007156D01*
X201760457Y-127070181D01*
X201780204Y-127123331D01*
X201793067Y-127169283D01*
X201800481Y-127210713D01*
X201803879Y-127250296D01*
X201804692Y-127290711D01*
X201804647Y-127304133D01*
X201803799Y-127334909D01*
X201801000Y-127365813D01*
X201795126Y-127398841D01*
X201785052Y-127435989D01*
X201769653Y-127479253D01*
X201747803Y-127530626D01*
X201718378Y-127592106D01*
X201680252Y-127665686D01*
X201632302Y-127753363D01*
X201573401Y-127857132D01*
X201502425Y-127978988D01*
X201418249Y-128120927D01*
X201319747Y-128284944D01*
X201205796Y-128473034D01*
X201075269Y-128687192D01*
X200927043Y-128929415D01*
X200759991Y-129201696D01*
X200572989Y-129506033D01*
X200364912Y-129844419D01*
X200343098Y-129879886D01*
X200123512Y-130236568D01*
X199924934Y-130558448D01*
X199746544Y-130846825D01*
X199587520Y-131102998D01*
X199447042Y-131328265D01*
X199324287Y-131523927D01*
X199218435Y-131691282D01*
X199128664Y-131831628D01*
X199054153Y-131946266D01*
X198994080Y-132036495D01*
X198947625Y-132103612D01*
X198913966Y-132148918D01*
X198892281Y-132173712D01*
X198835887Y-132220853D01*
X198725194Y-132294007D01*
X198606210Y-132354512D01*
X198496736Y-132392520D01*
X198479126Y-132394047D01*
X198420301Y-132396101D01*
X198323768Y-132398099D01*
X198192197Y-132400022D01*
X198028258Y-132401851D01*
X197834624Y-132403569D01*
X197613965Y-132405155D01*
X197368951Y-132406591D01*
X197102255Y-132407860D01*
X196816546Y-132408941D01*
X196514495Y-132409817D01*
X196198775Y-132410469D01*
X195872054Y-132410877D01*
X195851744Y-132410894D01*
X195462926Y-132411235D01*
X195114113Y-132411499D01*
X194803087Y-132411604D01*
X194527629Y-132411464D01*
X194285520Y-132410995D01*
X194074543Y-132410111D01*
X193892478Y-132408727D01*
X193737107Y-132406760D01*
X193606213Y-132404124D01*
X193497575Y-132400735D01*
X193408976Y-132396507D01*
X193338197Y-132391357D01*
X193283021Y-132385198D01*
X193241227Y-132377947D01*
X193210598Y-132369518D01*
X193188915Y-132359828D01*
X193173960Y-132348790D01*
X193163515Y-132336320D01*
X193155360Y-132322334D01*
X193147278Y-132306747D01*
X193142533Y-132298199D01*
X193135066Y-132284908D01*
X193128874Y-132271564D01*
X193124794Y-132256725D01*
X193123662Y-132238952D01*
X193126312Y-132216805D01*
X193133582Y-132188842D01*
X193146307Y-132153623D01*
X193165323Y-132109709D01*
X193191465Y-132055658D01*
X193225570Y-131990031D01*
X193268474Y-131911388D01*
X193321012Y-131818287D01*
X193384021Y-131709288D01*
X193458336Y-131582952D01*
X193544794Y-131437838D01*
X193644229Y-131272505D01*
X193757479Y-131085514D01*
X193885378Y-130875424D01*
X194028763Y-130640794D01*
X194188470Y-130380184D01*
X194365334Y-130092154D01*
X194560193Y-129775264D01*
X194773880Y-129428074D01*
X195007233Y-129049142D01*
X195261087Y-128637029D01*
X195536278Y-128190294D01*
X195560017Y-128151757D01*
X195820480Y-127729195D01*
X196070308Y-127324364D01*
X196308737Y-126938489D01*
X196535003Y-126572796D01*
X196748341Y-126228509D01*
X196947986Y-125906854D01*
X197133175Y-125609055D01*
X197303143Y-125336337D01*
X197457126Y-125089926D01*
X197594359Y-124871047D01*
X197714078Y-124680924D01*
X197815519Y-124520782D01*
X197897917Y-124391848D01*
X197960507Y-124295344D01*
X198002527Y-124232498D01*
X198023210Y-124204533D01*
X198077889Y-124154955D01*
X198199926Y-124073304D01*
X198339045Y-124008078D01*
X198479123Y-123967656D01*
X198516754Y-123962439D01*
X198605523Y-123955648D01*
X198721496Y-123950818D01*
X198855985Y-123947928D01*
X199000304Y-123946958D01*
X199145764Y-123947887D01*
G37*
X196559417Y-139053726D02*
X196035542Y-139048065D01*
X195511667Y-139042403D01*
X195501084Y-137994653D01*
X195490500Y-136946903D01*
X194638542Y-136941371D01*
X193786584Y-136935840D01*
X193786584Y-135899633D01*
X194638542Y-135894102D01*
X195490500Y-135888570D01*
X195496161Y-135364898D01*
X195501822Y-134841227D01*
X193458500Y-134830237D01*
X193458500Y-133793070D01*
X195008959Y-133787641D01*
X196559417Y-133782212D01*
X196559417Y-139053726D01*
G36*
X196559417Y-139053726D02*
G01*
X196035542Y-139048065D01*
X195511667Y-139042403D01*
X195501084Y-137994653D01*
X195490500Y-136946903D01*
X194638542Y-136941371D01*
X193786584Y-136935840D01*
X193786584Y-135899633D01*
X194638542Y-135894102D01*
X195490500Y-135888570D01*
X195496161Y-135364898D01*
X195501822Y-134841227D01*
X193458500Y-134830237D01*
X193458500Y-133793070D01*
X195008959Y-133787641D01*
X196559417Y-133782212D01*
X196559417Y-139053726D01*
G37*
X200073084Y-139052987D02*
X197003178Y-139052987D01*
X197014500Y-138005237D01*
X198009334Y-137994653D01*
X199004167Y-137984070D01*
X199009851Y-137477561D01*
X199010262Y-137439082D01*
X199011317Y-137278858D01*
X199010736Y-137155924D01*
X199008350Y-137066125D01*
X199003991Y-137005309D01*
X198997492Y-136969322D01*
X198988684Y-136954010D01*
X198987163Y-136953387D01*
X198954299Y-136949605D01*
X198884653Y-136946121D01*
X198783010Y-136943034D01*
X198654157Y-136940443D01*
X198502882Y-136938449D01*
X198333970Y-136937149D01*
X198152209Y-136936644D01*
X197342584Y-136936320D01*
X197342584Y-135899645D01*
X198173375Y-135894107D01*
X199004167Y-135888570D01*
X199004167Y-134851403D01*
X198009334Y-134840820D01*
X197014500Y-134830237D01*
X197014500Y-133793070D01*
X200073084Y-133782208D01*
X200073084Y-139052987D01*
G36*
X200073084Y-139052987D02*
G01*
X197003178Y-139052987D01*
X197014500Y-138005237D01*
X198009334Y-137994653D01*
X199004167Y-137984070D01*
X199009851Y-137477561D01*
X199010262Y-137439082D01*
X199011317Y-137278858D01*
X199010736Y-137155924D01*
X199008350Y-137066125D01*
X199003991Y-137005309D01*
X198997492Y-136969322D01*
X198988684Y-136954010D01*
X198987163Y-136953387D01*
X198954299Y-136949605D01*
X198884653Y-136946121D01*
X198783010Y-136943034D01*
X198654157Y-136940443D01*
X198502882Y-136938449D01*
X198333970Y-136937149D01*
X198152209Y-136936644D01*
X197342584Y-136936320D01*
X197342584Y-135899645D01*
X198173375Y-135894107D01*
X199004167Y-135888570D01*
X199004167Y-134851403D01*
X198009334Y-134840820D01*
X197014500Y-134830237D01*
X197014500Y-133793070D01*
X200073084Y-133782208D01*
X200073084Y-139052987D01*
G37*
X187822875Y-133787639D02*
X189352167Y-133793070D01*
X189357542Y-136423028D01*
X189362916Y-139052987D01*
X186293584Y-139052987D01*
X186293584Y-137995068D01*
X188293834Y-137984070D01*
X188299518Y-137477561D01*
X188299928Y-137439082D01*
X188300984Y-137278858D01*
X188300403Y-137155924D01*
X188298017Y-137066125D01*
X188293658Y-137005309D01*
X188287159Y-136969322D01*
X188278351Y-136954010D01*
X188277387Y-136953568D01*
X188246349Y-136949751D01*
X188178339Y-136946231D01*
X188078179Y-136943110D01*
X187950690Y-136940490D01*
X187800693Y-136938471D01*
X187633009Y-136937155D01*
X187452459Y-136936644D01*
X186653417Y-136936320D01*
X186653417Y-135899650D01*
X187473625Y-135894110D01*
X188293834Y-135888570D01*
X188293834Y-134851403D01*
X186293584Y-134840405D01*
X186293584Y-133782208D01*
X187822875Y-133787639D01*
G36*
X187822875Y-133787639D02*
G01*
X189352167Y-133793070D01*
X189357542Y-136423028D01*
X189362916Y-139052987D01*
X186293584Y-139052987D01*
X186293584Y-137995068D01*
X188293834Y-137984070D01*
X188299518Y-137477561D01*
X188299928Y-137439082D01*
X188300984Y-137278858D01*
X188300403Y-137155924D01*
X188298017Y-137066125D01*
X188293658Y-137005309D01*
X188287159Y-136969322D01*
X188278351Y-136954010D01*
X188277387Y-136953568D01*
X188246349Y-136949751D01*
X188178339Y-136946231D01*
X188078179Y-136943110D01*
X187950690Y-136940490D01*
X187800693Y-136938471D01*
X187633009Y-136937155D01*
X187452459Y-136936644D01*
X186653417Y-136936320D01*
X186653417Y-135899650D01*
X187473625Y-135894110D01*
X188293834Y-135888570D01*
X188293834Y-134851403D01*
X186293584Y-134840405D01*
X186293584Y-133782208D01*
X187822875Y-133787639D01*
G37*
X192469062Y-133787409D02*
X192992834Y-133793070D01*
X192998279Y-136396570D01*
X192998818Y-136683727D01*
X192999269Y-137002586D01*
X192999544Y-137307601D01*
X192999648Y-137596181D01*
X192999586Y-137865737D01*
X192999362Y-138113679D01*
X192998981Y-138337417D01*
X192998448Y-138534361D01*
X192997767Y-138701922D01*
X192996942Y-138837508D01*
X192995978Y-138938532D01*
X192994880Y-139002402D01*
X192993652Y-139026528D01*
X192991809Y-139028512D01*
X192975346Y-139033414D01*
X192940256Y-139037662D01*
X192884166Y-139041297D01*
X192804707Y-139044357D01*
X192699509Y-139046882D01*
X192566201Y-139048911D01*
X192402412Y-139050483D01*
X192205773Y-139051637D01*
X191973912Y-139052413D01*
X191704460Y-139052850D01*
X191395045Y-139052987D01*
X189806511Y-139052987D01*
X189812172Y-138529112D01*
X189817834Y-138005237D01*
X190876167Y-137994653D01*
X191934500Y-137984070D01*
X191939895Y-135882909D01*
X191945289Y-133781747D01*
X192469062Y-133787409D01*
G36*
X192469062Y-133787409D02*
G01*
X192992834Y-133793070D01*
X192998279Y-136396570D01*
X192998818Y-136683727D01*
X192999269Y-137002586D01*
X192999544Y-137307601D01*
X192999648Y-137596181D01*
X192999586Y-137865737D01*
X192999362Y-138113679D01*
X192998981Y-138337417D01*
X192998448Y-138534361D01*
X192997767Y-138701922D01*
X192996942Y-138837508D01*
X192995978Y-138938532D01*
X192994880Y-139002402D01*
X192993652Y-139026528D01*
X192991809Y-139028512D01*
X192975346Y-139033414D01*
X192940256Y-139037662D01*
X192884166Y-139041297D01*
X192804707Y-139044357D01*
X192699509Y-139046882D01*
X192566201Y-139048911D01*
X192402412Y-139050483D01*
X192205773Y-139051637D01*
X191973912Y-139052413D01*
X191704460Y-139052850D01*
X191395045Y-139052987D01*
X189806511Y-139052987D01*
X189812172Y-138529112D01*
X189817834Y-138005237D01*
X190876167Y-137994653D01*
X191934500Y-137984070D01*
X191939895Y-135882909D01*
X191945289Y-133781747D01*
X192469062Y-133787409D01*
G37*
X204287171Y-133783573D02*
X204406441Y-133785231D01*
X204499062Y-133788240D01*
X204567896Y-133792829D01*
X204615802Y-133799225D01*
X204645640Y-133807657D01*
X204660271Y-133818352D01*
X204662554Y-133831537D01*
X204655349Y-133847442D01*
X204641517Y-133866294D01*
X204623917Y-133888320D01*
X204622798Y-133889756D01*
X204594174Y-133930159D01*
X204582054Y-133954439D01*
X204581936Y-133955129D01*
X204569939Y-133980677D01*
X204541130Y-134034667D01*
X204499564Y-134109657D01*
X204449292Y-134198206D01*
X204395649Y-134292313D01*
X204346673Y-134379361D01*
X204308083Y-134449123D01*
X204285284Y-134491919D01*
X204283384Y-134495684D01*
X204258938Y-134541065D01*
X204242951Y-134565653D01*
X204223137Y-134594121D01*
X204185046Y-134659652D01*
X204130185Y-134760088D01*
X204088345Y-134838107D01*
X203144339Y-134844755D01*
X203044120Y-134845465D01*
X202836383Y-134847038D01*
X202665263Y-134848638D01*
X202526749Y-134850478D01*
X202416828Y-134852768D01*
X202331487Y-134855720D01*
X202266716Y-134859545D01*
X202218501Y-134864454D01*
X202182830Y-134870659D01*
X202155692Y-134878370D01*
X202133074Y-134887800D01*
X202110964Y-134899158D01*
X202032384Y-134946623D01*
X201905489Y-135056436D01*
X201814351Y-135188164D01*
X201793621Y-135231704D01*
X201772187Y-135295435D01*
X201761676Y-135367676D01*
X201758715Y-135465237D01*
X201759313Y-135510561D01*
X201769632Y-135628133D01*
X201792031Y-135711607D01*
X201816726Y-135758733D01*
X201889154Y-135856778D01*
X201981906Y-135949122D01*
X202082147Y-136022033D01*
X202179167Y-136079070D01*
X202766542Y-136085588D01*
X202785583Y-136085808D01*
X202936827Y-136088220D01*
X203072634Y-136091526D01*
X203187626Y-136095507D01*
X203276424Y-136099947D01*
X203333647Y-136104628D01*
X203353917Y-136109333D01*
X203346640Y-136128163D01*
X203322079Y-136177360D01*
X203284275Y-136248071D01*
X203237500Y-136332126D01*
X203196736Y-136404797D01*
X203157531Y-136476314D01*
X203130902Y-136526850D01*
X203121084Y-136548530D01*
X203121040Y-136549104D01*
X203108978Y-136573746D01*
X203081980Y-136615552D01*
X203059904Y-136649556D01*
X203020342Y-136715485D01*
X202979265Y-136788153D01*
X202950643Y-136840228D01*
X202906311Y-136919979D01*
X202870202Y-136983945D01*
X202851607Y-137016425D01*
X202794682Y-137116006D01*
X202751249Y-137192314D01*
X202715316Y-137255902D01*
X202680892Y-137317320D01*
X202654851Y-137363671D01*
X202610105Y-137442856D01*
X202556637Y-137537156D01*
X202501100Y-137634820D01*
X202455667Y-137714848D01*
X202398501Y-137816180D01*
X202347795Y-137906717D01*
X202310834Y-137973487D01*
X202280117Y-138028667D01*
X202248932Y-138082445D01*
X202230434Y-138111554D01*
X202216234Y-138133731D01*
X202187009Y-138184370D01*
X202151439Y-138249137D01*
X202123412Y-138300289D01*
X202077363Y-138382896D01*
X202019256Y-138486241D01*
X201953738Y-138602057D01*
X201885457Y-138722081D01*
X201878381Y-138734488D01*
X201816154Y-138844148D01*
X201762167Y-138940238D01*
X201719631Y-139016971D01*
X201691756Y-139068564D01*
X201681750Y-139089230D01*
X201681704Y-139089791D01*
X201669625Y-139113974D01*
X201642647Y-139155552D01*
X201620570Y-139189556D01*
X201581009Y-139255485D01*
X201539932Y-139328153D01*
X201511309Y-139380228D01*
X201466977Y-139459979D01*
X201430868Y-139523945D01*
X201426079Y-139532315D01*
X201382605Y-139608635D01*
X201340672Y-139682695D01*
X201286270Y-139778969D01*
X201238051Y-139863514D01*
X201204358Y-139921322D01*
X201181931Y-139957968D01*
X201167514Y-139979028D01*
X201164939Y-139979725D01*
X201129507Y-139981908D01*
X201053847Y-139984003D01*
X200939517Y-139986011D01*
X200788076Y-139987933D01*
X200601081Y-139989768D01*
X200380089Y-139991517D01*
X200126658Y-139993180D01*
X199842347Y-139994757D01*
X199528712Y-139996248D01*
X199187312Y-139997653D01*
X198819705Y-139998973D01*
X198427447Y-140000207D01*
X198012098Y-140001356D01*
X197575213Y-140002420D01*
X197118353Y-140003400D01*
X196643073Y-140004294D01*
X196150932Y-140005104D01*
X195643488Y-140005829D01*
X195122298Y-140006470D01*
X194588920Y-140007027D01*
X194044912Y-140007499D01*
X193491832Y-140007888D01*
X192931237Y-140008193D01*
X192364685Y-140008415D01*
X191793734Y-140008553D01*
X191219941Y-140008608D01*
X190644865Y-140008580D01*
X190070063Y-140008469D01*
X189497092Y-140008275D01*
X188927511Y-140007999D01*
X188362878Y-140007640D01*
X187804749Y-140007199D01*
X187254684Y-140006676D01*
X186714239Y-140006070D01*
X186184972Y-140005383D01*
X185668441Y-140004614D01*
X185166204Y-140003763D01*
X184679818Y-140002831D01*
X184210842Y-140001818D01*
X183760833Y-140000724D01*
X183331349Y-139999549D01*
X182923947Y-139998293D01*
X182540186Y-139996956D01*
X182181622Y-139995539D01*
X181849814Y-139994042D01*
X181546320Y-139992464D01*
X181272697Y-139990806D01*
X181030504Y-139989069D01*
X180821297Y-139987252D01*
X180646634Y-139985355D01*
X180508074Y-139983379D01*
X180407173Y-139981323D01*
X180345491Y-139979189D01*
X180324584Y-139976975D01*
X180333559Y-139948048D01*
X180361625Y-139905656D01*
X180365119Y-139901509D01*
X180397696Y-139858930D01*
X180443491Y-139795216D01*
X180493749Y-139722500D01*
X180588831Y-139582153D01*
X190336249Y-139581829D01*
X190930057Y-139581781D01*
X191560592Y-139581665D01*
X192179266Y-139581487D01*
X192784754Y-139581248D01*
X193375732Y-139580950D01*
X193950874Y-139580595D01*
X194508856Y-139580186D01*
X195048352Y-139579724D01*
X195568039Y-139579213D01*
X196066590Y-139578653D01*
X196542681Y-139578047D01*
X196994988Y-139577398D01*
X197422185Y-139576707D01*
X197822947Y-139575976D01*
X198195950Y-139575209D01*
X198539868Y-139574406D01*
X198853377Y-139573570D01*
X199135152Y-139572703D01*
X199383868Y-139571808D01*
X199598199Y-139570886D01*
X199776822Y-139569940D01*
X199918411Y-139568971D01*
X200021642Y-139567983D01*
X200085189Y-139566976D01*
X200107727Y-139565954D01*
X200119265Y-139554707D01*
X200149511Y-139512977D01*
X200184174Y-139455153D01*
X200443892Y-138978903D01*
X200508055Y-138860251D01*
X200584376Y-138719465D01*
X200648675Y-138601354D01*
X200705605Y-138497362D01*
X200741732Y-138431137D01*
X200792226Y-138337777D01*
X200840044Y-138248653D01*
X200881032Y-138172311D01*
X200928167Y-138085398D01*
X200966382Y-138015820D01*
X200994202Y-137965152D01*
X201038159Y-137884193D01*
X201090118Y-137787883D01*
X201143851Y-137687737D01*
X201194157Y-137594055D01*
X201241993Y-137505645D01*
X201280704Y-137434792D01*
X201304904Y-137391403D01*
X201324343Y-137356297D01*
X201361215Y-137286551D01*
X201399458Y-137211487D01*
X201427093Y-137157451D01*
X201454170Y-137107729D01*
X201469086Y-137084487D01*
X201475835Y-137077027D01*
X201500595Y-137038293D01*
X201523506Y-136991746D01*
X201533584Y-136958791D01*
X201524062Y-136943629D01*
X201487549Y-136910188D01*
X201433042Y-136869662D01*
X201359880Y-136816536D01*
X201169532Y-136645152D01*
X201005420Y-136446385D01*
X200872736Y-136227160D01*
X200776673Y-135994403D01*
X200774362Y-135987195D01*
X200752823Y-135920163D01*
X200729738Y-135848499D01*
X200723152Y-135822341D01*
X200712089Y-135739730D01*
X200705457Y-135630890D01*
X200703170Y-135506689D01*
X200705143Y-135377996D01*
X200711293Y-135255680D01*
X200721533Y-135150610D01*
X200735780Y-135073653D01*
X200749307Y-135024773D01*
X200772820Y-134944673D01*
X200794060Y-134881714D01*
X200818306Y-134819653D01*
X200818904Y-134818198D01*
X200933998Y-134593096D01*
X201089084Y-134379077D01*
X201114074Y-134350161D01*
X201272841Y-134194784D01*
X201454310Y-134057384D01*
X201647267Y-133945600D01*
X201840500Y-133867072D01*
X201853618Y-133862894D01*
X201922620Y-133839093D01*
X201978084Y-133817414D01*
X202009506Y-133811927D01*
X202080174Y-133806818D01*
X202190238Y-133802228D01*
X202340188Y-133798148D01*
X202530513Y-133794566D01*
X202761701Y-133791472D01*
X203034242Y-133788854D01*
X203348625Y-133786701D01*
X203486415Y-133785899D01*
X203740876Y-133784430D01*
X203957249Y-133783400D01*
X204138394Y-133783039D01*
X204287171Y-133783573D01*
G36*
X204287171Y-133783573D02*
G01*
X204406441Y-133785231D01*
X204499062Y-133788240D01*
X204567896Y-133792829D01*
X204615802Y-133799225D01*
X204645640Y-133807657D01*
X204660271Y-133818352D01*
X204662554Y-133831537D01*
X204655349Y-133847442D01*
X204641517Y-133866294D01*
X204623917Y-133888320D01*
X204622798Y-133889756D01*
X204594174Y-133930159D01*
X204582054Y-133954439D01*
X204581936Y-133955129D01*
X204569939Y-133980677D01*
X204541130Y-134034667D01*
X204499564Y-134109657D01*
X204449292Y-134198206D01*
X204395649Y-134292313D01*
X204346673Y-134379361D01*
X204308083Y-134449123D01*
X204285284Y-134491919D01*
X204283384Y-134495684D01*
X204258938Y-134541065D01*
X204242951Y-134565653D01*
X204223137Y-134594121D01*
X204185046Y-134659652D01*
X204130185Y-134760088D01*
X204088345Y-134838107D01*
X203144339Y-134844755D01*
X203044120Y-134845465D01*
X202836383Y-134847038D01*
X202665263Y-134848638D01*
X202526749Y-134850478D01*
X202416828Y-134852768D01*
X202331487Y-134855720D01*
X202266716Y-134859545D01*
X202218501Y-134864454D01*
X202182830Y-134870659D01*
X202155692Y-134878370D01*
X202133074Y-134887800D01*
X202110964Y-134899158D01*
X202032384Y-134946623D01*
X201905489Y-135056436D01*
X201814351Y-135188164D01*
X201793621Y-135231704D01*
X201772187Y-135295435D01*
X201761676Y-135367676D01*
X201758715Y-135465237D01*
X201759313Y-135510561D01*
X201769632Y-135628133D01*
X201792031Y-135711607D01*
X201816726Y-135758733D01*
X201889154Y-135856778D01*
X201981906Y-135949122D01*
X202082147Y-136022033D01*
X202179167Y-136079070D01*
X202766542Y-136085588D01*
X202785583Y-136085808D01*
X202936827Y-136088220D01*
X203072634Y-136091526D01*
X203187626Y-136095507D01*
X203276424Y-136099947D01*
X203333647Y-136104628D01*
X203353917Y-136109333D01*
X203346640Y-136128163D01*
X203322079Y-136177360D01*
X203284275Y-136248071D01*
X203237500Y-136332126D01*
X203196736Y-136404797D01*
X203157531Y-136476314D01*
X203130902Y-136526850D01*
X203121084Y-136548530D01*
X203121040Y-136549104D01*
X203108978Y-136573746D01*
X203081980Y-136615552D01*
X203059904Y-136649556D01*
X203020342Y-136715485D01*
X202979265Y-136788153D01*
X202950643Y-136840228D01*
X202906311Y-136919979D01*
X202870202Y-136983945D01*
X202851607Y-137016425D01*
X202794682Y-137116006D01*
X202751249Y-137192314D01*
X202715316Y-137255902D01*
X202680892Y-137317320D01*
X202654851Y-137363671D01*
X202610105Y-137442856D01*
X202556637Y-137537156D01*
X202501100Y-137634820D01*
X202455667Y-137714848D01*
X202398501Y-137816180D01*
X202347795Y-137906717D01*
X202310834Y-137973487D01*
X202280117Y-138028667D01*
X202248932Y-138082445D01*
X202230434Y-138111554D01*
X202216234Y-138133731D01*
X202187009Y-138184370D01*
X202151439Y-138249137D01*
X202123412Y-138300289D01*
X202077363Y-138382896D01*
X202019256Y-138486241D01*
X201953738Y-138602057D01*
X201885457Y-138722081D01*
X201878381Y-138734488D01*
X201816154Y-138844148D01*
X201762167Y-138940238D01*
X201719631Y-139016971D01*
X201691756Y-139068564D01*
X201681750Y-139089230D01*
X201681704Y-139089791D01*
X201669625Y-139113974D01*
X201642647Y-139155552D01*
X201620570Y-139189556D01*
X201581009Y-139255485D01*
X201539932Y-139328153D01*
X201511309Y-139380228D01*
X201466977Y-139459979D01*
X201430868Y-139523945D01*
X201426079Y-139532315D01*
X201382605Y-139608635D01*
X201340672Y-139682695D01*
X201286270Y-139778969D01*
X201238051Y-139863514D01*
X201204358Y-139921322D01*
X201181931Y-139957968D01*
X201167514Y-139979028D01*
X201164939Y-139979725D01*
X201129507Y-139981908D01*
X201053847Y-139984003D01*
X200939517Y-139986011D01*
X200788076Y-139987933D01*
X200601081Y-139989768D01*
X200380089Y-139991517D01*
X200126658Y-139993180D01*
X199842347Y-139994757D01*
X199528712Y-139996248D01*
X199187312Y-139997653D01*
X198819705Y-139998973D01*
X198427447Y-140000207D01*
X198012098Y-140001356D01*
X197575213Y-140002420D01*
X197118353Y-140003400D01*
X196643073Y-140004294D01*
X196150932Y-140005104D01*
X195643488Y-140005829D01*
X195122298Y-140006470D01*
X194588920Y-140007027D01*
X194044912Y-140007499D01*
X193491832Y-140007888D01*
X192931237Y-140008193D01*
X192364685Y-140008415D01*
X191793734Y-140008553D01*
X191219941Y-140008608D01*
X190644865Y-140008580D01*
X190070063Y-140008469D01*
X189497092Y-140008275D01*
X188927511Y-140007999D01*
X188362878Y-140007640D01*
X187804749Y-140007199D01*
X187254684Y-140006676D01*
X186714239Y-140006070D01*
X186184972Y-140005383D01*
X185668441Y-140004614D01*
X185166204Y-140003763D01*
X184679818Y-140002831D01*
X184210842Y-140001818D01*
X183760833Y-140000724D01*
X183331349Y-139999549D01*
X182923947Y-139998293D01*
X182540186Y-139996956D01*
X182181622Y-139995539D01*
X181849814Y-139994042D01*
X181546320Y-139992464D01*
X181272697Y-139990806D01*
X181030504Y-139989069D01*
X180821297Y-139987252D01*
X180646634Y-139985355D01*
X180508074Y-139983379D01*
X180407173Y-139981323D01*
X180345491Y-139979189D01*
X180324584Y-139976975D01*
X180333559Y-139948048D01*
X180361625Y-139905656D01*
X180365119Y-139901509D01*
X180397696Y-139858930D01*
X180443491Y-139795216D01*
X180493749Y-139722500D01*
X180588831Y-139582153D01*
X190336249Y-139581829D01*
X190930057Y-139581781D01*
X191560592Y-139581665D01*
X192179266Y-139581487D01*
X192784754Y-139581248D01*
X193375732Y-139580950D01*
X193950874Y-139580595D01*
X194508856Y-139580186D01*
X195048352Y-139579724D01*
X195568039Y-139579213D01*
X196066590Y-139578653D01*
X196542681Y-139578047D01*
X196994988Y-139577398D01*
X197422185Y-139576707D01*
X197822947Y-139575976D01*
X198195950Y-139575209D01*
X198539868Y-139574406D01*
X198853377Y-139573570D01*
X199135152Y-139572703D01*
X199383868Y-139571808D01*
X199598199Y-139570886D01*
X199776822Y-139569940D01*
X199918411Y-139568971D01*
X200021642Y-139567983D01*
X200085189Y-139566976D01*
X200107727Y-139565954D01*
X200119265Y-139554707D01*
X200149511Y-139512977D01*
X200184174Y-139455153D01*
X200443892Y-138978903D01*
X200508055Y-138860251D01*
X200584376Y-138719465D01*
X200648675Y-138601354D01*
X200705605Y-138497362D01*
X200741732Y-138431137D01*
X200792226Y-138337777D01*
X200840044Y-138248653D01*
X200881032Y-138172311D01*
X200928167Y-138085398D01*
X200966382Y-138015820D01*
X200994202Y-137965152D01*
X201038159Y-137884193D01*
X201090118Y-137787883D01*
X201143851Y-137687737D01*
X201194157Y-137594055D01*
X201241993Y-137505645D01*
X201280704Y-137434792D01*
X201304904Y-137391403D01*
X201324343Y-137356297D01*
X201361215Y-137286551D01*
X201399458Y-137211487D01*
X201427093Y-137157451D01*
X201454170Y-137107729D01*
X201469086Y-137084487D01*
X201475835Y-137077027D01*
X201500595Y-137038293D01*
X201523506Y-136991746D01*
X201533584Y-136958791D01*
X201524062Y-136943629D01*
X201487549Y-136910188D01*
X201433042Y-136869662D01*
X201359880Y-136816536D01*
X201169532Y-136645152D01*
X201005420Y-136446385D01*
X200872736Y-136227160D01*
X200776673Y-135994403D01*
X200774362Y-135987195D01*
X200752823Y-135920163D01*
X200729738Y-135848499D01*
X200723152Y-135822341D01*
X200712089Y-135739730D01*
X200705457Y-135630890D01*
X200703170Y-135506689D01*
X200705143Y-135377996D01*
X200711293Y-135255680D01*
X200721533Y-135150610D01*
X200735780Y-135073653D01*
X200749307Y-135024773D01*
X200772820Y-134944673D01*
X200794060Y-134881714D01*
X200818306Y-134819653D01*
X200818904Y-134818198D01*
X200933998Y-134593096D01*
X201089084Y-134379077D01*
X201114074Y-134350161D01*
X201272841Y-134194784D01*
X201454310Y-134057384D01*
X201647267Y-133945600D01*
X201840500Y-133867072D01*
X201853618Y-133862894D01*
X201922620Y-133839093D01*
X201978084Y-133817414D01*
X202009506Y-133811927D01*
X202080174Y-133806818D01*
X202190238Y-133802228D01*
X202340188Y-133798148D01*
X202530513Y-133794566D01*
X202761701Y-133791472D01*
X203034242Y-133788854D01*
X203348625Y-133786701D01*
X203486415Y-133785899D01*
X203740876Y-133784430D01*
X203957249Y-133783400D01*
X204138394Y-133783039D01*
X204287171Y-133783573D01*
G37*
X193192734Y-132851410D02*
X193819837Y-132851454D01*
X194444550Y-132851527D01*
X195065444Y-132851628D01*
X195681094Y-132851757D01*
X196290073Y-132851914D01*
X196890955Y-132852098D01*
X197482312Y-132852311D01*
X198062720Y-132852551D01*
X198630751Y-132852819D01*
X199184978Y-132853115D01*
X199723975Y-132853439D01*
X200246316Y-132853790D01*
X200750575Y-132854169D01*
X201235324Y-132854576D01*
X201699137Y-132855010D01*
X202140588Y-132855472D01*
X202558249Y-132855962D01*
X202950696Y-132856479D01*
X203316501Y-132857023D01*
X203654237Y-132857595D01*
X203962479Y-132858195D01*
X204239799Y-132858822D01*
X204484771Y-132859476D01*
X204695969Y-132860158D01*
X204871967Y-132860867D01*
X205011336Y-132861604D01*
X205112653Y-132862368D01*
X205174488Y-132863159D01*
X205195417Y-132863977D01*
X205192908Y-132871361D01*
X205174454Y-132909257D01*
X205141983Y-132970509D01*
X205100167Y-133046177D01*
X205078711Y-133084758D01*
X205040848Y-133155299D01*
X205014683Y-133207496D01*
X205004917Y-133232171D01*
X205000470Y-133242128D01*
X204971436Y-133261639D01*
X204971373Y-133261658D01*
X204947339Y-133262437D01*
X204882225Y-133263203D01*
X204777253Y-133263957D01*
X204633646Y-133264695D01*
X204452627Y-133265418D01*
X204235418Y-133266123D01*
X203983242Y-133266810D01*
X203697322Y-133267476D01*
X203378881Y-133268121D01*
X203029140Y-133268742D01*
X202649324Y-133269340D01*
X202240655Y-133269912D01*
X201804355Y-133270457D01*
X201341647Y-133270973D01*
X200853753Y-133271460D01*
X200341898Y-133271916D01*
X199807303Y-133272339D01*
X199251191Y-133272729D01*
X198674784Y-133273083D01*
X198079306Y-133273401D01*
X197465980Y-133273681D01*
X196836027Y-133273921D01*
X196190671Y-133274121D01*
X195531134Y-133274279D01*
X194858639Y-133274393D01*
X194174409Y-133274463D01*
X193479667Y-133274487D01*
X193462452Y-133274487D01*
X192767953Y-133274511D01*
X192083998Y-133274582D01*
X191411807Y-133274697D01*
X190752605Y-133274856D01*
X190107613Y-133275057D01*
X189478055Y-133275299D01*
X188865153Y-133275579D01*
X188270130Y-133275898D01*
X187694208Y-133276253D01*
X187138611Y-133276644D01*
X186604561Y-133277068D01*
X186093280Y-133277524D01*
X185605992Y-133278012D01*
X185143920Y-133278529D01*
X184708285Y-133279075D01*
X184300311Y-133279647D01*
X183921220Y-133280246D01*
X183572235Y-133280868D01*
X183254580Y-133281513D01*
X182969475Y-133282180D01*
X182718146Y-133282867D01*
X182501813Y-133283573D01*
X182321699Y-133284296D01*
X182179029Y-133285035D01*
X182075023Y-133285788D01*
X182010905Y-133286555D01*
X181987898Y-133287334D01*
X181971389Y-133296452D01*
X181954417Y-133321444D01*
X181964125Y-133340630D01*
X181993491Y-133387672D01*
X182037376Y-133454570D01*
X182090563Y-133533702D01*
X182147832Y-133617441D01*
X182203967Y-133698164D01*
X182253750Y-133768245D01*
X182291962Y-133820061D01*
X182313387Y-133845987D01*
X182322642Y-133856836D01*
X182346000Y-133891244D01*
X182350395Y-133898107D01*
X182377289Y-133937951D01*
X182421773Y-134002547D01*
X182478838Y-134084645D01*
X182543474Y-134176994D01*
X182622850Y-134290152D01*
X182710838Y-134415785D01*
X182795904Y-134537417D01*
X182867332Y-134639737D01*
X182925042Y-134722197D01*
X182981721Y-134802539D01*
X183027164Y-134866277D01*
X183054926Y-134904320D01*
X183061095Y-134912621D01*
X183094097Y-134958438D01*
X183143792Y-135028540D01*
X183204569Y-135114987D01*
X183270818Y-135209839D01*
X183296839Y-135246919D01*
X183358832Y-135332795D01*
X183411912Y-135402949D01*
X183451121Y-135450946D01*
X183471506Y-135470354D01*
X183474000Y-135470546D01*
X183500001Y-135452870D01*
X183539729Y-135408888D01*
X183585649Y-135346761D01*
X183589702Y-135340800D01*
X183637130Y-135272218D01*
X183677890Y-135215176D01*
X183703548Y-135181495D01*
X183707398Y-135176709D01*
X183735091Y-135139281D01*
X183779977Y-135076425D01*
X183836754Y-134995614D01*
X183900125Y-134904320D01*
X183919188Y-134876728D01*
X183979646Y-134789637D01*
X184030887Y-134716442D01*
X184067992Y-134664142D01*
X184086044Y-134639737D01*
X184087947Y-134637434D01*
X184113391Y-134603419D01*
X184147280Y-134555070D01*
X184149700Y-134551535D01*
X184178362Y-134510216D01*
X184226228Y-134441693D01*
X184288805Y-134352380D01*
X184361601Y-134248687D01*
X184440126Y-134137028D01*
X184689671Y-133782487D01*
X185332878Y-133782487D01*
X185399154Y-133782554D01*
X185554019Y-133783270D01*
X185692254Y-133784683D01*
X185808719Y-133786692D01*
X185898272Y-133789194D01*
X185955774Y-133792088D01*
X185976084Y-133795270D01*
X185976005Y-133795793D01*
X185962664Y-133819421D01*
X185929700Y-133869824D01*
X185881824Y-133939966D01*
X185823746Y-134022812D01*
X185773741Y-134093411D01*
X185690780Y-134210852D01*
X185608157Y-134328125D01*
X185537973Y-134428070D01*
X185534077Y-134433631D01*
X185467975Y-134527700D01*
X185387779Y-134641437D01*
X185303258Y-134761005D01*
X185224179Y-134872570D01*
X185212634Y-134888831D01*
X185136661Y-134995984D01*
X185060331Y-135103842D01*
X184991943Y-135200671D01*
X184939794Y-135274737D01*
X184893733Y-135340091D01*
X184825034Y-135437092D01*
X184749545Y-135543306D01*
X184676905Y-135645153D01*
X184623215Y-135720587D01*
X184533980Y-135846903D01*
X184443323Y-135976133D01*
X184364338Y-136089653D01*
X184360844Y-136094702D01*
X184299146Y-136182730D01*
X184243184Y-136260636D01*
X184198994Y-136320133D01*
X184172610Y-136352936D01*
X184147634Y-136384504D01*
X184134584Y-136412622D01*
X184137307Y-136422266D01*
X184158079Y-136461276D01*
X184192088Y-136514953D01*
X184230662Y-136570544D01*
X184265127Y-136615297D01*
X184286810Y-136636459D01*
X184293129Y-136641072D01*
X184303917Y-136671737D01*
X184305151Y-136682668D01*
X184321260Y-136707014D01*
X184323748Y-136708639D01*
X184347200Y-136735003D01*
X184385356Y-136785710D01*
X184431287Y-136851653D01*
X184474720Y-136915171D01*
X184536133Y-137003664D01*
X184609078Y-137107954D01*
X184687610Y-137219612D01*
X184765785Y-137330207D01*
X184837660Y-137431310D01*
X184897290Y-137514491D01*
X184938733Y-137571320D01*
X184947756Y-137583735D01*
X184981715Y-137631468D01*
X185033798Y-137705320D01*
X185099987Y-137799572D01*
X185176261Y-137908506D01*
X185258601Y-138026403D01*
X185305326Y-138093295D01*
X185381514Y-138201939D01*
X185447750Y-138295856D01*
X185500483Y-138370037D01*
X185536160Y-138419472D01*
X185551230Y-138439153D01*
X185560883Y-138450110D01*
X185584500Y-138484695D01*
X185586772Y-138488325D01*
X185610840Y-138524369D01*
X185652953Y-138585831D01*
X185707882Y-138665116D01*
X185770394Y-138754625D01*
X185784661Y-138775029D01*
X185844847Y-138862330D01*
X185895301Y-138937430D01*
X185931090Y-138992896D01*
X185947284Y-139021292D01*
X185947907Y-139023316D01*
X185945031Y-139032020D01*
X185929216Y-139038861D01*
X185896264Y-139044050D01*
X185841975Y-139047800D01*
X185762151Y-139050324D01*
X185652591Y-139051834D01*
X185509099Y-139052542D01*
X185327473Y-139052662D01*
X185274327Y-139052580D01*
X185118181Y-139051684D01*
X184977267Y-139049918D01*
X184857005Y-139047413D01*
X184762816Y-139044302D01*
X184700118Y-139040716D01*
X184674334Y-139036787D01*
X184656279Y-139018972D01*
X184626404Y-138978903D01*
X184619518Y-138968077D01*
X184601517Y-138940480D01*
X184578355Y-138906173D01*
X184546169Y-138859589D01*
X184501096Y-138795163D01*
X184439272Y-138707329D01*
X184356834Y-138590520D01*
X184300215Y-138510336D01*
X184194999Y-138361227D01*
X184106810Y-138236053D01*
X184030583Y-138127590D01*
X183961255Y-138028613D01*
X183893759Y-137931896D01*
X183823031Y-137830216D01*
X183744007Y-137716347D01*
X183687125Y-137635105D01*
X183620907Y-137542586D01*
X183564660Y-137466265D01*
X183523012Y-137412401D01*
X183500590Y-137387251D01*
X183494901Y-137382903D01*
X183483222Y-137376340D01*
X183470352Y-137376752D01*
X183453435Y-137387623D01*
X183429618Y-137412438D01*
X183396046Y-137454682D01*
X183349865Y-137517841D01*
X183288221Y-137605399D01*
X183208258Y-137720841D01*
X183107123Y-137867653D01*
X183069407Y-137922108D01*
X183022149Y-137989291D01*
X182987496Y-138037266D01*
X182971075Y-138058153D01*
X182969322Y-138060042D01*
X182948093Y-138087928D01*
X182907657Y-138143647D01*
X182852005Y-138221549D01*
X182785127Y-138315985D01*
X182711014Y-138421304D01*
X182633656Y-138531858D01*
X182557045Y-138641996D01*
X182485170Y-138746070D01*
X182455825Y-138788393D01*
X182405257Y-138859634D01*
X182364840Y-138914446D01*
X182341359Y-138943512D01*
X182323348Y-138964850D01*
X182292201Y-139012304D01*
X182292133Y-139012429D01*
X182284040Y-139023992D01*
X182270511Y-139033124D01*
X182246934Y-139040109D01*
X182208695Y-139045236D01*
X182151184Y-139048789D01*
X182069789Y-139051054D01*
X181959896Y-139052318D01*
X181816895Y-139052867D01*
X181636172Y-139052987D01*
X181611146Y-139052986D01*
X181435767Y-139052851D01*
X181297704Y-139052287D01*
X181192502Y-139051011D01*
X181115707Y-139048736D01*
X181062863Y-139045178D01*
X181029517Y-139040052D01*
X181011214Y-139033073D01*
X181003499Y-139023957D01*
X181001917Y-139012417D01*
X181004663Y-138989009D01*
X181018572Y-138964792D01*
X181023176Y-138961058D01*
X181050336Y-138928817D01*
X181096759Y-138867574D01*
X181159226Y-138781726D01*
X181234518Y-138675670D01*
X181319417Y-138553804D01*
X181372951Y-138476692D01*
X181441938Y-138378000D01*
X181519118Y-138268096D01*
X181600431Y-138152715D01*
X181681815Y-138037592D01*
X181759210Y-137928462D01*
X181828555Y-137831059D01*
X181885788Y-137751120D01*
X181926848Y-137694378D01*
X181947674Y-137666570D01*
X181955807Y-137655737D01*
X181985429Y-137614072D01*
X182029208Y-137551238D01*
X182080964Y-137476070D01*
X182109842Y-137434099D01*
X182160146Y-137361942D01*
X182200182Y-137305723D01*
X182223198Y-137274987D01*
X182224893Y-137272904D01*
X182253420Y-137234945D01*
X182302771Y-137166508D01*
X182370121Y-137071595D01*
X182452644Y-136954206D01*
X182547514Y-136818344D01*
X182651904Y-136668008D01*
X182654145Y-136664769D01*
X182711287Y-136579288D01*
X182757999Y-136504114D01*
X182789519Y-136447268D01*
X182801084Y-136416770D01*
X182791475Y-136393367D01*
X182759678Y-136338845D01*
X182708616Y-136258800D01*
X182641360Y-136157770D01*
X182560981Y-136040294D01*
X182470549Y-135910910D01*
X182373136Y-135774156D01*
X182271811Y-135634570D01*
X182220967Y-135564187D01*
X182158315Y-135475912D01*
X182099090Y-135391153D01*
X182004503Y-135254658D01*
X181907107Y-135114777D01*
X181820613Y-134991264D01*
X181747635Y-134887825D01*
X181690788Y-134808162D01*
X181652686Y-134755982D01*
X181635945Y-134734987D01*
X181622273Y-134718104D01*
X181589092Y-134672524D01*
X181542213Y-134606003D01*
X181486966Y-134526018D01*
X181395146Y-134392264D01*
X181299995Y-134254515D01*
X181214359Y-134131435D01*
X181141095Y-134027091D01*
X181083062Y-133945550D01*
X181043116Y-133890882D01*
X181024115Y-133867153D01*
X181014744Y-133856250D01*
X180991334Y-133821766D01*
X180982904Y-133808699D01*
X180951562Y-133762563D01*
X180905789Y-133696677D01*
X180852253Y-133620683D01*
X180725526Y-133441590D01*
X180611236Y-133279080D01*
X180519090Y-133146737D01*
X180447657Y-133042445D01*
X180395507Y-132964090D01*
X180361212Y-132909557D01*
X180343341Y-132876730D01*
X180340465Y-132863494D01*
X180343080Y-132863219D01*
X180378603Y-132862411D01*
X180454529Y-132861632D01*
X180569432Y-132860881D01*
X180721886Y-132860160D01*
X180910463Y-132859467D01*
X181133739Y-132858803D01*
X181390285Y-132858168D01*
X181678676Y-132857561D01*
X181997486Y-132856983D01*
X182345286Y-132856434D01*
X182720652Y-132855913D01*
X183122157Y-132855420D01*
X183548374Y-132854957D01*
X183997876Y-132854521D01*
X184469237Y-132854115D01*
X184961031Y-132853736D01*
X185471832Y-132853386D01*
X186000211Y-132853065D01*
X186544744Y-132852771D01*
X187104004Y-132852507D01*
X187676563Y-132852270D01*
X188260997Y-132852062D01*
X188855877Y-132851882D01*
X189459778Y-132851730D01*
X190071273Y-132851606D01*
X190688936Y-132851510D01*
X191311340Y-132851443D01*
X191937059Y-132851404D01*
X192564666Y-132851393D01*
X193192734Y-132851410D01*
G36*
X193192734Y-132851410D02*
G01*
X193819837Y-132851454D01*
X194444550Y-132851527D01*
X195065444Y-132851628D01*
X195681094Y-132851757D01*
X196290073Y-132851914D01*
X196890955Y-132852098D01*
X197482312Y-132852311D01*
X198062720Y-132852551D01*
X198630751Y-132852819D01*
X199184978Y-132853115D01*
X199723975Y-132853439D01*
X200246316Y-132853790D01*
X200750575Y-132854169D01*
X201235324Y-132854576D01*
X201699137Y-132855010D01*
X202140588Y-132855472D01*
X202558249Y-132855962D01*
X202950696Y-132856479D01*
X203316501Y-132857023D01*
X203654237Y-132857595D01*
X203962479Y-132858195D01*
X204239799Y-132858822D01*
X204484771Y-132859476D01*
X204695969Y-132860158D01*
X204871967Y-132860867D01*
X205011336Y-132861604D01*
X205112653Y-132862368D01*
X205174488Y-132863159D01*
X205195417Y-132863977D01*
X205192908Y-132871361D01*
X205174454Y-132909257D01*
X205141983Y-132970509D01*
X205100167Y-133046177D01*
X205078711Y-133084758D01*
X205040848Y-133155299D01*
X205014683Y-133207496D01*
X205004917Y-133232171D01*
X205000470Y-133242128D01*
X204971436Y-133261639D01*
X204971373Y-133261658D01*
X204947339Y-133262437D01*
X204882225Y-133263203D01*
X204777253Y-133263957D01*
X204633646Y-133264695D01*
X204452627Y-133265418D01*
X204235418Y-133266123D01*
X203983242Y-133266810D01*
X203697322Y-133267476D01*
X203378881Y-133268121D01*
X203029140Y-133268742D01*
X202649324Y-133269340D01*
X202240655Y-133269912D01*
X201804355Y-133270457D01*
X201341647Y-133270973D01*
X200853753Y-133271460D01*
X200341898Y-133271916D01*
X199807303Y-133272339D01*
X199251191Y-133272729D01*
X198674784Y-133273083D01*
X198079306Y-133273401D01*
X197465980Y-133273681D01*
X196836027Y-133273921D01*
X196190671Y-133274121D01*
X195531134Y-133274279D01*
X194858639Y-133274393D01*
X194174409Y-133274463D01*
X193479667Y-133274487D01*
X193462452Y-133274487D01*
X192767953Y-133274511D01*
X192083998Y-133274582D01*
X191411807Y-133274697D01*
X190752605Y-133274856D01*
X190107613Y-133275057D01*
X189478055Y-133275299D01*
X188865153Y-133275579D01*
X188270130Y-133275898D01*
X187694208Y-133276253D01*
X187138611Y-133276644D01*
X186604561Y-133277068D01*
X186093280Y-133277524D01*
X185605992Y-133278012D01*
X185143920Y-133278529D01*
X184708285Y-133279075D01*
X184300311Y-133279647D01*
X183921220Y-133280246D01*
X183572235Y-133280868D01*
X183254580Y-133281513D01*
X182969475Y-133282180D01*
X182718146Y-133282867D01*
X182501813Y-133283573D01*
X182321699Y-133284296D01*
X182179029Y-133285035D01*
X182075023Y-133285788D01*
X182010905Y-133286555D01*
X181987898Y-133287334D01*
X181971389Y-133296452D01*
X181954417Y-133321444D01*
X181964125Y-133340630D01*
X181993491Y-133387672D01*
X182037376Y-133454570D01*
X182090563Y-133533702D01*
X182147832Y-133617441D01*
X182203967Y-133698164D01*
X182253750Y-133768245D01*
X182291962Y-133820061D01*
X182313387Y-133845987D01*
X182322642Y-133856836D01*
X182346000Y-133891244D01*
X182350395Y-133898107D01*
X182377289Y-133937951D01*
X182421773Y-134002547D01*
X182478838Y-134084645D01*
X182543474Y-134176994D01*
X182622850Y-134290152D01*
X182710838Y-134415785D01*
X182795904Y-134537417D01*
X182867332Y-134639737D01*
X182925042Y-134722197D01*
X182981721Y-134802539D01*
X183027164Y-134866277D01*
X183054926Y-134904320D01*
X183061095Y-134912621D01*
X183094097Y-134958438D01*
X183143792Y-135028540D01*
X183204569Y-135114987D01*
X183270818Y-135209839D01*
X183296839Y-135246919D01*
X183358832Y-135332795D01*
X183411912Y-135402949D01*
X183451121Y-135450946D01*
X183471506Y-135470354D01*
X183474000Y-135470546D01*
X183500001Y-135452870D01*
X183539729Y-135408888D01*
X183585649Y-135346761D01*
X183589702Y-135340800D01*
X183637130Y-135272218D01*
X183677890Y-135215176D01*
X183703548Y-135181495D01*
X183707398Y-135176709D01*
X183735091Y-135139281D01*
X183779977Y-135076425D01*
X183836754Y-134995614D01*
X183900125Y-134904320D01*
X183919188Y-134876728D01*
X183979646Y-134789637D01*
X184030887Y-134716442D01*
X184067992Y-134664142D01*
X184086044Y-134639737D01*
X184087947Y-134637434D01*
X184113391Y-134603419D01*
X184147280Y-134555070D01*
X184149700Y-134551535D01*
X184178362Y-134510216D01*
X184226228Y-134441693D01*
X184288805Y-134352380D01*
X184361601Y-134248687D01*
X184440126Y-134137028D01*
X184689671Y-133782487D01*
X185332878Y-133782487D01*
X185399154Y-133782554D01*
X185554019Y-133783270D01*
X185692254Y-133784683D01*
X185808719Y-133786692D01*
X185898272Y-133789194D01*
X185955774Y-133792088D01*
X185976084Y-133795270D01*
X185976005Y-133795793D01*
X185962664Y-133819421D01*
X185929700Y-133869824D01*
X185881824Y-133939966D01*
X185823746Y-134022812D01*
X185773741Y-134093411D01*
X185690780Y-134210852D01*
X185608157Y-134328125D01*
X185537973Y-134428070D01*
X185534077Y-134433631D01*
X185467975Y-134527700D01*
X185387779Y-134641437D01*
X185303258Y-134761005D01*
X185224179Y-134872570D01*
X185212634Y-134888831D01*
X185136661Y-134995984D01*
X185060331Y-135103842D01*
X184991943Y-135200671D01*
X184939794Y-135274737D01*
X184893733Y-135340091D01*
X184825034Y-135437092D01*
X184749545Y-135543306D01*
X184676905Y-135645153D01*
X184623215Y-135720587D01*
X184533980Y-135846903D01*
X184443323Y-135976133D01*
X184364338Y-136089653D01*
X184360844Y-136094702D01*
X184299146Y-136182730D01*
X184243184Y-136260636D01*
X184198994Y-136320133D01*
X184172610Y-136352936D01*
X184147634Y-136384504D01*
X184134584Y-136412622D01*
X184137307Y-136422266D01*
X184158079Y-136461276D01*
X184192088Y-136514953D01*
X184230662Y-136570544D01*
X184265127Y-136615297D01*
X184286810Y-136636459D01*
X184293129Y-136641072D01*
X184303917Y-136671737D01*
X184305151Y-136682668D01*
X184321260Y-136707014D01*
X184323748Y-136708639D01*
X184347200Y-136735003D01*
X184385356Y-136785710D01*
X184431287Y-136851653D01*
X184474720Y-136915171D01*
X184536133Y-137003664D01*
X184609078Y-137107954D01*
X184687610Y-137219612D01*
X184765785Y-137330207D01*
X184837660Y-137431310D01*
X184897290Y-137514491D01*
X184938733Y-137571320D01*
X184947756Y-137583735D01*
X184981715Y-137631468D01*
X185033798Y-137705320D01*
X185099987Y-137799572D01*
X185176261Y-137908506D01*
X185258601Y-138026403D01*
X185305326Y-138093295D01*
X185381514Y-138201939D01*
X185447750Y-138295856D01*
X185500483Y-138370037D01*
X185536160Y-138419472D01*
X185551230Y-138439153D01*
X185560883Y-138450110D01*
X185584500Y-138484695D01*
X185586772Y-138488325D01*
X185610840Y-138524369D01*
X185652953Y-138585831D01*
X185707882Y-138665116D01*
X185770394Y-138754625D01*
X185784661Y-138775029D01*
X185844847Y-138862330D01*
X185895301Y-138937430D01*
X185931090Y-138992896D01*
X185947284Y-139021292D01*
X185947907Y-139023316D01*
X185945031Y-139032020D01*
X185929216Y-139038861D01*
X185896264Y-139044050D01*
X185841975Y-139047800D01*
X185762151Y-139050324D01*
X185652591Y-139051834D01*
X185509099Y-139052542D01*
X185327473Y-139052662D01*
X185274327Y-139052580D01*
X185118181Y-139051684D01*
X184977267Y-139049918D01*
X184857005Y-139047413D01*
X184762816Y-139044302D01*
X184700118Y-139040716D01*
X184674334Y-139036787D01*
X184656279Y-139018972D01*
X184626404Y-138978903D01*
X184619518Y-138968077D01*
X184601517Y-138940480D01*
X184578355Y-138906173D01*
X184546169Y-138859589D01*
X184501096Y-138795163D01*
X184439272Y-138707329D01*
X184356834Y-138590520D01*
X184300215Y-138510336D01*
X184194999Y-138361227D01*
X184106810Y-138236053D01*
X184030583Y-138127590D01*
X183961255Y-138028613D01*
X183893759Y-137931896D01*
X183823031Y-137830216D01*
X183744007Y-137716347D01*
X183687125Y-137635105D01*
X183620907Y-137542586D01*
X183564660Y-137466265D01*
X183523012Y-137412401D01*
X183500590Y-137387251D01*
X183494901Y-137382903D01*
X183483222Y-137376340D01*
X183470352Y-137376752D01*
X183453435Y-137387623D01*
X183429618Y-137412438D01*
X183396046Y-137454682D01*
X183349865Y-137517841D01*
X183288221Y-137605399D01*
X183208258Y-137720841D01*
X183107123Y-137867653D01*
X183069407Y-137922108D01*
X183022149Y-137989291D01*
X182987496Y-138037266D01*
X182971075Y-138058153D01*
X182969322Y-138060042D01*
X182948093Y-138087928D01*
X182907657Y-138143647D01*
X182852005Y-138221549D01*
X182785127Y-138315985D01*
X182711014Y-138421304D01*
X182633656Y-138531858D01*
X182557045Y-138641996D01*
X182485170Y-138746070D01*
X182455825Y-138788393D01*
X182405257Y-138859634D01*
X182364840Y-138914446D01*
X182341359Y-138943512D01*
X182323348Y-138964850D01*
X182292201Y-139012304D01*
X182292133Y-139012429D01*
X182284040Y-139023992D01*
X182270511Y-139033124D01*
X182246934Y-139040109D01*
X182208695Y-139045236D01*
X182151184Y-139048789D01*
X182069789Y-139051054D01*
X181959896Y-139052318D01*
X181816895Y-139052867D01*
X181636172Y-139052987D01*
X181611146Y-139052986D01*
X181435767Y-139052851D01*
X181297704Y-139052287D01*
X181192502Y-139051011D01*
X181115707Y-139048736D01*
X181062863Y-139045178D01*
X181029517Y-139040052D01*
X181011214Y-139033073D01*
X181003499Y-139023957D01*
X181001917Y-139012417D01*
X181004663Y-138989009D01*
X181018572Y-138964792D01*
X181023176Y-138961058D01*
X181050336Y-138928817D01*
X181096759Y-138867574D01*
X181159226Y-138781726D01*
X181234518Y-138675670D01*
X181319417Y-138553804D01*
X181372951Y-138476692D01*
X181441938Y-138378000D01*
X181519118Y-138268096D01*
X181600431Y-138152715D01*
X181681815Y-138037592D01*
X181759210Y-137928462D01*
X181828555Y-137831059D01*
X181885788Y-137751120D01*
X181926848Y-137694378D01*
X181947674Y-137666570D01*
X181955807Y-137655737D01*
X181985429Y-137614072D01*
X182029208Y-137551238D01*
X182080964Y-137476070D01*
X182109842Y-137434099D01*
X182160146Y-137361942D01*
X182200182Y-137305723D01*
X182223198Y-137274987D01*
X182224893Y-137272904D01*
X182253420Y-137234945D01*
X182302771Y-137166508D01*
X182370121Y-137071595D01*
X182452644Y-136954206D01*
X182547514Y-136818344D01*
X182651904Y-136668008D01*
X182654145Y-136664769D01*
X182711287Y-136579288D01*
X182757999Y-136504114D01*
X182789519Y-136447268D01*
X182801084Y-136416770D01*
X182791475Y-136393367D01*
X182759678Y-136338845D01*
X182708616Y-136258800D01*
X182641360Y-136157770D01*
X182560981Y-136040294D01*
X182470549Y-135910910D01*
X182373136Y-135774156D01*
X182271811Y-135634570D01*
X182220967Y-135564187D01*
X182158315Y-135475912D01*
X182099090Y-135391153D01*
X182004503Y-135254658D01*
X181907107Y-135114777D01*
X181820613Y-134991264D01*
X181747635Y-134887825D01*
X181690788Y-134808162D01*
X181652686Y-134755982D01*
X181635945Y-134734987D01*
X181622273Y-134718104D01*
X181589092Y-134672524D01*
X181542213Y-134606003D01*
X181486966Y-134526018D01*
X181395146Y-134392264D01*
X181299995Y-134254515D01*
X181214359Y-134131435D01*
X181141095Y-134027091D01*
X181083062Y-133945550D01*
X181043116Y-133890882D01*
X181024115Y-133867153D01*
X181014744Y-133856250D01*
X180991334Y-133821766D01*
X180982904Y-133808699D01*
X180951562Y-133762563D01*
X180905789Y-133696677D01*
X180852253Y-133620683D01*
X180725526Y-133441590D01*
X180611236Y-133279080D01*
X180519090Y-133146737D01*
X180447657Y-133042445D01*
X180395507Y-132964090D01*
X180361212Y-132909557D01*
X180343341Y-132876730D01*
X180340465Y-132863494D01*
X180343080Y-132863219D01*
X180378603Y-132862411D01*
X180454529Y-132861632D01*
X180569432Y-132860881D01*
X180721886Y-132860160D01*
X180910463Y-132859467D01*
X181133739Y-132858803D01*
X181390285Y-132858168D01*
X181678676Y-132857561D01*
X181997486Y-132856983D01*
X182345286Y-132856434D01*
X182720652Y-132855913D01*
X183122157Y-132855420D01*
X183548374Y-132854957D01*
X183997876Y-132854521D01*
X184469237Y-132854115D01*
X184961031Y-132853736D01*
X185471832Y-132853386D01*
X186000211Y-132853065D01*
X186544744Y-132852771D01*
X187104004Y-132852507D01*
X187676563Y-132852270D01*
X188260997Y-132852062D01*
X188855877Y-132851882D01*
X189459778Y-132851730D01*
X190071273Y-132851606D01*
X190688936Y-132851510D01*
X191311340Y-132851443D01*
X191937059Y-132851404D01*
X192564666Y-132851393D01*
X193192734Y-132851410D01*
G37*
%TD*%
D11*
%TO.C,U3*%
X173090000Y-111710000D03*
X173090000Y-114010000D03*
D12*
X166790000Y-114010000D03*
D11*
X173090000Y-116310000D03*
%TD*%
D13*
%TO.C,C11*%
X139530000Y-119365000D03*
X138570000Y-119365000D03*
%TD*%
D14*
%TO.C,C5*%
X150206681Y-109491286D03*
X151166681Y-109491286D03*
%TD*%
D15*
%TO.C,U2*%
X133330000Y-136135664D03*
X133330000Y-136635664D03*
X133330000Y-137135664D03*
X133330000Y-137635664D03*
X133330000Y-138135664D03*
X132280000Y-138135664D03*
X132280000Y-137635664D03*
X132280000Y-137135664D03*
X132280000Y-136635664D03*
X132280000Y-136135664D03*
%TD*%
D16*
%TO.C,R5*%
X144910000Y-124025000D03*
X144910000Y-125045000D03*
%TD*%
D17*
%TO.C,U5*%
X141810000Y-126510000D03*
X142310000Y-126510000D03*
X142810000Y-126510000D03*
X143310000Y-126510000D03*
X143810000Y-126510000D03*
X143810000Y-127560000D03*
X143310000Y-127560000D03*
X142810000Y-127560000D03*
X142310000Y-127560000D03*
X141810000Y-127560000D03*
%TD*%
D18*
%TO.C,SW6*%
X161600000Y-130150000D03*
X155400000Y-130150000D03*
X161600000Y-133850000D03*
X155400000Y-133850000D03*
%TD*%
D19*
%TO.C,R8*%
X138550000Y-118025000D03*
X139570000Y-118025000D03*
%TD*%
D16*
%TO.C,R7*%
X142730000Y-111885505D03*
X142730000Y-112905505D03*
%TD*%
D13*
%TO.C,C9*%
X139540000Y-116015000D03*
X138580000Y-116015000D03*
%TD*%
D20*
%TO.C,SW8*%
X156050000Y-117500000D03*
X156050000Y-123700000D03*
X159750000Y-117500000D03*
X159750000Y-123700000D03*
%TD*%
D21*
%TO.C,J5*%
X187290000Y-115020000D03*
D22*
X187290000Y-113020000D03*
X187290000Y-111020000D03*
X187290000Y-109020000D03*
X187290000Y-107020000D03*
%TD*%
D23*
%TO.C,C12*%
X149202500Y-120270505D03*
X149202500Y-121230505D03*
%TD*%
D14*
%TO.C,C2*%
X171110000Y-109890000D03*
X172070000Y-109890000D03*
%TD*%
%TO.C,C15*%
X153090000Y-123490000D03*
X154050000Y-123490000D03*
%TD*%
D24*
%TO.C,C13*%
X144840000Y-112885000D03*
X144840000Y-111925000D03*
%TD*%
D17*
%TO.C,U6*%
X142230000Y-109285000D03*
X142730000Y-109285000D03*
X143230000Y-109285000D03*
X143730000Y-109285000D03*
X144230000Y-109285000D03*
X144230000Y-110335000D03*
X143730000Y-110335000D03*
X143230000Y-110335000D03*
X142730000Y-110335000D03*
X142230000Y-110335000D03*
%TD*%
D16*
%TO.C,R4*%
X159630000Y-109959326D03*
X159630000Y-110979326D03*
%TD*%
D15*
%TO.C,U1*%
X152035000Y-122035000D03*
X152035000Y-121535000D03*
X152035000Y-121035000D03*
X152035000Y-120535000D03*
X152035000Y-120035000D03*
X153085000Y-120035000D03*
X153085000Y-120535000D03*
X153085000Y-121035000D03*
X153085000Y-121535000D03*
X153085000Y-122035000D03*
%TD*%
D16*
%TO.C,R6*%
X143730000Y-111885505D03*
X143730000Y-112905505D03*
%TD*%
D24*
%TO.C,C10*%
X140760000Y-112905000D03*
X140760000Y-111945000D03*
%TD*%
D25*
%TO.C,D2*%
X136705000Y-116270000D03*
X136705000Y-117845000D03*
%TD*%
D26*
%TO.C,D1*%
X174442500Y-118500000D03*
X176017500Y-118500000D03*
%TD*%
D24*
%TO.C,C3*%
X144910000Y-127695000D03*
X144910000Y-126735000D03*
%TD*%
D27*
%TO.C,U8*%
X153100000Y-126600000D03*
X152450000Y-126600000D03*
X151800000Y-126600000D03*
X151800000Y-124700000D03*
X153100000Y-124700000D03*
%TD*%
D28*
%TO.C,R10*%
X153250000Y-129311332D03*
X153250000Y-128291332D03*
%TD*%
D29*
%TO.C,FLASH1*%
X157405821Y-111094125D03*
D30*
X155000821Y-112249125D03*
D29*
X157405821Y-112364125D03*
D30*
X155000821Y-112749125D03*
D29*
X157405821Y-113634125D03*
D30*
X155000821Y-113249125D03*
D29*
X157405821Y-114904125D03*
D30*
X155000821Y-113749125D03*
D31*
X153800821Y-112999125D03*
D30*
X152600821Y-113749125D03*
D29*
X150195821Y-114904125D03*
D30*
X152600821Y-113249125D03*
D29*
X150195821Y-113634125D03*
D30*
X152600821Y-112749125D03*
D29*
X150195821Y-112364125D03*
D30*
X152600821Y-112249125D03*
D29*
X150195821Y-111094125D03*
%TD*%
D32*
%TO.C,Y1*%
X146360000Y-126810000D03*
X146360000Y-124610000D03*
X147960000Y-124610000D03*
X147960000Y-126810000D03*
%TD*%
D23*
%TO.C,C14*%
X143910000Y-124050000D03*
X143910000Y-125010000D03*
%TD*%
D24*
%TO.C,C4*%
X149390000Y-125500000D03*
X149390000Y-124540000D03*
%TD*%
D33*
%TO.C,U4*%
X147962500Y-116030505D03*
X147962500Y-116430505D03*
X147962500Y-116830505D03*
X147962500Y-117230505D03*
X147962500Y-117630505D03*
X147962500Y-118030505D03*
X147962500Y-118430505D03*
X147962500Y-118830505D03*
X147962500Y-119230505D03*
X147962500Y-119630505D03*
X147962500Y-120030505D03*
X147962500Y-120430505D03*
X147962500Y-120830505D03*
X147962500Y-121230505D03*
D34*
X147125000Y-122068005D03*
X146725000Y-122068005D03*
X146325000Y-122068005D03*
X145925000Y-122068005D03*
X145525000Y-122068005D03*
X145125000Y-122068005D03*
X144725000Y-122068005D03*
X144325000Y-122068005D03*
X143925000Y-122068005D03*
X143525000Y-122068005D03*
X143125000Y-122068005D03*
X142725000Y-122068005D03*
X142325000Y-122068005D03*
X141925000Y-122068005D03*
D33*
X141087500Y-121230505D03*
X141087500Y-120830505D03*
X141087500Y-120430505D03*
X141087500Y-120030505D03*
X141087500Y-119630505D03*
X141087500Y-119230505D03*
X141087500Y-118830505D03*
X141087500Y-118430505D03*
X141087500Y-118030505D03*
X141087500Y-117630505D03*
X141087500Y-117230505D03*
X141087500Y-116830505D03*
X141087500Y-116430505D03*
X141087500Y-116030505D03*
D34*
X141925000Y-115193005D03*
X142325000Y-115193005D03*
X142725000Y-115193005D03*
X143125000Y-115193005D03*
X143525000Y-115193005D03*
X143925000Y-115193005D03*
X144325000Y-115193005D03*
X144725000Y-115193005D03*
X145125000Y-115193005D03*
X145525000Y-115193005D03*
X145925000Y-115193005D03*
X146325000Y-115193005D03*
X146725000Y-115193005D03*
X147125000Y-115193005D03*
D35*
X144525000Y-118630505D03*
%TD*%
D24*
%TO.C,C8*%
X141740000Y-112875000D03*
X141740000Y-111915000D03*
%TD*%
D13*
%TO.C,C1*%
X173060000Y-118200000D03*
X172100000Y-118200000D03*
%TD*%
D16*
%TO.C,R3*%
X159630000Y-111890000D03*
X159630000Y-112910000D03*
%TD*%
D28*
%TO.C,R9*%
X152190000Y-129311332D03*
X152190000Y-128291332D03*
%TD*%
D24*
%TO.C,C7*%
X145950000Y-112875000D03*
X145950000Y-111915000D03*
%TD*%
D23*
%TO.C,C6*%
X142930000Y-124060000D03*
X142930000Y-125020000D03*
%TD*%
M02*
