G04 #@! TF.GenerationSoftware,KiCad,Pcbnew,7.0.9*
G04 #@! TF.CreationDate,2023-12-20T17:35:01-07:00*
G04 #@! TF.ProjectId,vb_controller_shoulder_left_pcb,76625f63-6f6e-4747-926f-6c6c65725f73,4a*
G04 #@! TF.SameCoordinates,Original*
G04 #@! TF.FileFunction,Legend,Bot*
G04 #@! TF.FilePolarity,Positive*
%FSLAX46Y46*%
G04 Gerber Fmt 4.6, Leading zero omitted, Abs format (unit mm)*
G04 Created by KiCad (PCBNEW 7.0.9) date 2023-12-20 17:35:01*
%MOMM*%
%LPD*%
G01*
G04 APERTURE LIST*
%ADD10C,0.120000*%
G04 APERTURE END LIST*
D10*
X151074981Y-121290991D02*
X150191098Y-122174874D01*
X147313173Y-124628535D02*
X142985680Y-120301041D01*
X148805169Y-123136539D02*
X148373833Y-122705204D01*
X149724407Y-122217301D02*
X149293072Y-121785965D01*
X150650717Y-121290991D02*
X147313173Y-124628535D01*
X147313173Y-123765864D02*
X143848350Y-120301041D01*
X149788047Y-121290991D02*
X147313173Y-123765864D01*
X150191098Y-120407107D02*
X151074981Y-121290991D01*
X149759763Y-120117193D02*
X149618341Y-120258615D01*
X149406209Y-120046483D02*
X149547631Y-119905061D01*
X149476920Y-119975772D02*
X149689052Y-120187904D01*
X149547631Y-119905061D02*
X149759763Y-120117193D01*
X148409189Y-119912132D02*
X149788047Y-121290991D01*
X148840524Y-119480797D02*
X148409189Y-119912132D01*
X145651472Y-122104163D02*
X146005026Y-121750610D01*
X146005026Y-121750610D02*
X145863604Y-121609189D01*
X145580762Y-122033453D02*
X145934315Y-121679899D01*
X145863604Y-121609189D02*
X145510051Y-121962742D01*
X147702082Y-119205026D02*
X148133417Y-118773691D01*
X143848350Y-120301041D02*
X146323224Y-117826167D01*
X146323224Y-117826167D02*
X147702082Y-119205026D01*
X142985680Y-120301041D02*
X146323224Y-116963497D01*
X144477675Y-118809046D02*
X144909010Y-119240381D01*
X145396914Y-117889807D02*
X145828249Y-118321142D01*
X146323224Y-116963497D02*
X150650717Y-121290991D01*
M02*
