%TF.GenerationSoftware,KiCad,Pcbnew,7.0.9*%
%TF.CreationDate,2023-12-20T17:33:09-07:00*%
%TF.ProjectId,vb_controller_pcb,76625f63-6f6e-4747-926f-6c6c65725f70,4a*%
%TF.SameCoordinates,Original*%
%TF.FileFunction,Soldermask,Bot*%
%TF.FilePolarity,Negative*%
%FSLAX46Y46*%
G04 Gerber Fmt 4.6, Leading zero omitted, Abs format (unit mm)*
G04 Created by KiCad (PCBNEW 7.0.9) date 2023-12-20 17:33:09*
%MOMM*%
%LPD*%
G01*
G04 APERTURE LIST*
G04 Aperture macros list*
%AMRoundRect*
0 Rectangle with rounded corners*
0 $1 Rounding radius*
0 $2 $3 $4 $5 $6 $7 $8 $9 X,Y pos of 4 corners*
0 Add a 4 corners polygon primitive as box body*
4,1,4,$2,$3,$4,$5,$6,$7,$8,$9,$2,$3,0*
0 Add four circle primitives for the rounded corners*
1,1,$1+$1,$2,$3*
1,1,$1+$1,$4,$5*
1,1,$1+$1,$6,$7*
1,1,$1+$1,$8,$9*
0 Add four rect primitives between the rounded corners*
20,1,$1+$1,$2,$3,$4,$5,0*
20,1,$1+$1,$4,$5,$6,$7,0*
20,1,$1+$1,$6,$7,$8,$9,0*
20,1,$1+$1,$8,$9,$2,$3,0*%
G04 Aperture macros list end*
%ADD10C,0.010000*%
%ADD11C,2.301600*%
%ADD12O,0.801600X0.301600*%
%ADD13RoundRect,0.300800X-0.350000X-0.625000X0.350000X-0.625000X0.350000X0.625000X-0.350000X0.625000X0*%
%ADD14O,1.301600X1.851600*%
G04 APERTURE END LIST*
%TO.C,Ref\u002A\u002A*%
D10*
X211719838Y-114572642D02*
X211737100Y-114589849D01*
X211765162Y-114625657D01*
X211804879Y-114681483D01*
X211857185Y-114758798D01*
X211923016Y-114859074D01*
X212003305Y-114983782D01*
X212098989Y-115134394D01*
X212211001Y-115312382D01*
X212340278Y-115519218D01*
X212487753Y-115756372D01*
X212654362Y-116025317D01*
X212841039Y-116327524D01*
X213048720Y-116664465D01*
X213103050Y-116752726D01*
X213267137Y-117019736D01*
X213424761Y-117276894D01*
X213574486Y-117521824D01*
X213714875Y-117752147D01*
X213844492Y-117965486D01*
X213961898Y-118159464D01*
X214065658Y-118331703D01*
X214154334Y-118479826D01*
X214226490Y-118601455D01*
X214280688Y-118694212D01*
X214315493Y-118755722D01*
X214329467Y-118783605D01*
X214333906Y-118800449D01*
X214334920Y-118888291D01*
X214296568Y-118962484D01*
X214220430Y-119019612D01*
X214208237Y-119024910D01*
X214191677Y-119029887D01*
X214169015Y-119034301D01*
X214137986Y-119038179D01*
X214096326Y-119041549D01*
X214041771Y-119044437D01*
X213972055Y-119046871D01*
X213884916Y-119048877D01*
X213778088Y-119050482D01*
X213649306Y-119051715D01*
X213496307Y-119052600D01*
X213316826Y-119053166D01*
X213108598Y-119053439D01*
X212869359Y-119053447D01*
X212596845Y-119053216D01*
X212288791Y-119052774D01*
X211942933Y-119052147D01*
X211557006Y-119051362D01*
X208967642Y-119045923D01*
X208905881Y-118976797D01*
X208877103Y-118939885D01*
X208848357Y-118869229D01*
X208853663Y-118790650D01*
X208892590Y-118694968D01*
X208893437Y-118693349D01*
X208917717Y-118650409D01*
X208961817Y-118575765D01*
X209023989Y-118472243D01*
X209102484Y-118342665D01*
X209195555Y-118189856D01*
X209301452Y-118016641D01*
X209418426Y-117825844D01*
X209544731Y-117620289D01*
X209678615Y-117402800D01*
X209818333Y-117176202D01*
X209962133Y-116943319D01*
X210108269Y-116706976D01*
X210254992Y-116469996D01*
X210400552Y-116235204D01*
X210543203Y-116005424D01*
X210681194Y-115783481D01*
X210812777Y-115572199D01*
X210936204Y-115374401D01*
X211049727Y-115192913D01*
X211151596Y-115030559D01*
X211240064Y-114890163D01*
X211313381Y-114774549D01*
X211369799Y-114686542D01*
X211407570Y-114628966D01*
X211424945Y-114604645D01*
X211455948Y-114577442D01*
X211541280Y-114537077D01*
X211632288Y-114535146D01*
X211719838Y-114572642D01*
G36*
X211719838Y-114572642D02*
G01*
X211737100Y-114589849D01*
X211765162Y-114625657D01*
X211804879Y-114681483D01*
X211857185Y-114758798D01*
X211923016Y-114859074D01*
X212003305Y-114983782D01*
X212098989Y-115134394D01*
X212211001Y-115312382D01*
X212340278Y-115519218D01*
X212487753Y-115756372D01*
X212654362Y-116025317D01*
X212841039Y-116327524D01*
X213048720Y-116664465D01*
X213103050Y-116752726D01*
X213267137Y-117019736D01*
X213424761Y-117276894D01*
X213574486Y-117521824D01*
X213714875Y-117752147D01*
X213844492Y-117965486D01*
X213961898Y-118159464D01*
X214065658Y-118331703D01*
X214154334Y-118479826D01*
X214226490Y-118601455D01*
X214280688Y-118694212D01*
X214315493Y-118755722D01*
X214329467Y-118783605D01*
X214333906Y-118800449D01*
X214334920Y-118888291D01*
X214296568Y-118962484D01*
X214220430Y-119019612D01*
X214208237Y-119024910D01*
X214191677Y-119029887D01*
X214169015Y-119034301D01*
X214137986Y-119038179D01*
X214096326Y-119041549D01*
X214041771Y-119044437D01*
X213972055Y-119046871D01*
X213884916Y-119048877D01*
X213778088Y-119050482D01*
X213649306Y-119051715D01*
X213496307Y-119052600D01*
X213316826Y-119053166D01*
X213108598Y-119053439D01*
X212869359Y-119053447D01*
X212596845Y-119053216D01*
X212288791Y-119052774D01*
X211942933Y-119052147D01*
X211557006Y-119051362D01*
X208967642Y-119045923D01*
X208905881Y-118976797D01*
X208877103Y-118939885D01*
X208848357Y-118869229D01*
X208853663Y-118790650D01*
X208892590Y-118694968D01*
X208893437Y-118693349D01*
X208917717Y-118650409D01*
X208961817Y-118575765D01*
X209023989Y-118472243D01*
X209102484Y-118342665D01*
X209195555Y-118189856D01*
X209301452Y-118016641D01*
X209418426Y-117825844D01*
X209544731Y-117620289D01*
X209678615Y-117402800D01*
X209818333Y-117176202D01*
X209962133Y-116943319D01*
X210108269Y-116706976D01*
X210254992Y-116469996D01*
X210400552Y-116235204D01*
X210543203Y-116005424D01*
X210681194Y-115783481D01*
X210812777Y-115572199D01*
X210936204Y-115374401D01*
X211049727Y-115192913D01*
X211151596Y-115030559D01*
X211240064Y-114890163D01*
X211313381Y-114774549D01*
X211369799Y-114686542D01*
X211407570Y-114628966D01*
X211424945Y-114604645D01*
X211455948Y-114577442D01*
X211541280Y-114537077D01*
X211632288Y-114535146D01*
X211719838Y-114572642D01*
G37*
X224283946Y-114552964D02*
X224366106Y-114618305D01*
X224373494Y-114627650D01*
X224404598Y-114672790D01*
X224454909Y-114749649D01*
X224522694Y-114855406D01*
X224606222Y-114987245D01*
X224703760Y-115142344D01*
X224813576Y-115317886D01*
X224933936Y-115511051D01*
X225063108Y-115719020D01*
X225199361Y-115938974D01*
X225340961Y-116168095D01*
X225486176Y-116403562D01*
X225633273Y-116642557D01*
X225780521Y-116882261D01*
X225926186Y-117119855D01*
X226068536Y-117352520D01*
X226205838Y-117577437D01*
X226336361Y-117791786D01*
X226458371Y-117992749D01*
X226570136Y-118177507D01*
X226669924Y-118343240D01*
X226756002Y-118487130D01*
X226826638Y-118606357D01*
X226880099Y-118698103D01*
X226914653Y-118759548D01*
X226928566Y-118787873D01*
X226932719Y-118804769D01*
X226932843Y-118891026D01*
X226893383Y-118962481D01*
X226814192Y-119019431D01*
X226805306Y-119023434D01*
X226789555Y-119028578D01*
X226767988Y-119033162D01*
X226738323Y-119037215D01*
X226698277Y-119040772D01*
X226645567Y-119043865D01*
X226577913Y-119046525D01*
X226493030Y-119048784D01*
X226388637Y-119050676D01*
X226262452Y-119052232D01*
X226112192Y-119053485D01*
X225935575Y-119054467D01*
X225730319Y-119055210D01*
X225494141Y-119055747D01*
X225224759Y-119056109D01*
X224919891Y-119056329D01*
X224577254Y-119056440D01*
X224194566Y-119056473D01*
X224111366Y-119056475D01*
X223730214Y-119056504D01*
X223388699Y-119056491D01*
X223084585Y-119056341D01*
X222815634Y-119055960D01*
X222579609Y-119055255D01*
X222374272Y-119054130D01*
X222197387Y-119052491D01*
X222046715Y-119050243D01*
X221920020Y-119047293D01*
X221815065Y-119043545D01*
X221729611Y-119038905D01*
X221661423Y-119033280D01*
X221608262Y-119026574D01*
X221567892Y-119018693D01*
X221538075Y-119009543D01*
X221516573Y-118999029D01*
X221501150Y-118987057D01*
X221489569Y-118973532D01*
X221479591Y-118958360D01*
X221468981Y-118941447D01*
X221447503Y-118894574D01*
X221445029Y-118811495D01*
X221450684Y-118797483D01*
X221476791Y-118747954D01*
X221522462Y-118667104D01*
X221585981Y-118557734D01*
X221665630Y-118422646D01*
X221759692Y-118264642D01*
X221866448Y-118086523D01*
X221984183Y-117891091D01*
X222111177Y-117681147D01*
X222245714Y-117459493D01*
X222386076Y-117228932D01*
X222530546Y-116992264D01*
X222677407Y-116752291D01*
X222824940Y-116511814D01*
X222971428Y-116273637D01*
X223115155Y-116040559D01*
X223254402Y-115815384D01*
X223387451Y-115600911D01*
X223512587Y-115399944D01*
X223628090Y-115215284D01*
X223732244Y-115049732D01*
X223823331Y-114906091D01*
X223899634Y-114787161D01*
X223959435Y-114695744D01*
X224001017Y-114634643D01*
X224022662Y-114606658D01*
X224108612Y-114547537D01*
X224197086Y-114529340D01*
X224283946Y-114552964D01*
G36*
X224283946Y-114552964D02*
G01*
X224366106Y-114618305D01*
X224373494Y-114627650D01*
X224404598Y-114672790D01*
X224454909Y-114749649D01*
X224522694Y-114855406D01*
X224606222Y-114987245D01*
X224703760Y-115142344D01*
X224813576Y-115317886D01*
X224933936Y-115511051D01*
X225063108Y-115719020D01*
X225199361Y-115938974D01*
X225340961Y-116168095D01*
X225486176Y-116403562D01*
X225633273Y-116642557D01*
X225780521Y-116882261D01*
X225926186Y-117119855D01*
X226068536Y-117352520D01*
X226205838Y-117577437D01*
X226336361Y-117791786D01*
X226458371Y-117992749D01*
X226570136Y-118177507D01*
X226669924Y-118343240D01*
X226756002Y-118487130D01*
X226826638Y-118606357D01*
X226880099Y-118698103D01*
X226914653Y-118759548D01*
X226928566Y-118787873D01*
X226932719Y-118804769D01*
X226932843Y-118891026D01*
X226893383Y-118962481D01*
X226814192Y-119019431D01*
X226805306Y-119023434D01*
X226789555Y-119028578D01*
X226767988Y-119033162D01*
X226738323Y-119037215D01*
X226698277Y-119040772D01*
X226645567Y-119043865D01*
X226577913Y-119046525D01*
X226493030Y-119048784D01*
X226388637Y-119050676D01*
X226262452Y-119052232D01*
X226112192Y-119053485D01*
X225935575Y-119054467D01*
X225730319Y-119055210D01*
X225494141Y-119055747D01*
X225224759Y-119056109D01*
X224919891Y-119056329D01*
X224577254Y-119056440D01*
X224194566Y-119056473D01*
X224111366Y-119056475D01*
X223730214Y-119056504D01*
X223388699Y-119056491D01*
X223084585Y-119056341D01*
X222815634Y-119055960D01*
X222579609Y-119055255D01*
X222374272Y-119054130D01*
X222197387Y-119052491D01*
X222046715Y-119050243D01*
X221920020Y-119047293D01*
X221815065Y-119043545D01*
X221729611Y-119038905D01*
X221661423Y-119033280D01*
X221608262Y-119026574D01*
X221567892Y-119018693D01*
X221538075Y-119009543D01*
X221516573Y-118999029D01*
X221501150Y-118987057D01*
X221489569Y-118973532D01*
X221479591Y-118958360D01*
X221468981Y-118941447D01*
X221447503Y-118894574D01*
X221445029Y-118811495D01*
X221450684Y-118797483D01*
X221476791Y-118747954D01*
X221522462Y-118667104D01*
X221585981Y-118557734D01*
X221665630Y-118422646D01*
X221759692Y-118264642D01*
X221866448Y-118086523D01*
X221984183Y-117891091D01*
X222111177Y-117681147D01*
X222245714Y-117459493D01*
X222386076Y-117228932D01*
X222530546Y-116992264D01*
X222677407Y-116752291D01*
X222824940Y-116511814D01*
X222971428Y-116273637D01*
X223115155Y-116040559D01*
X223254402Y-115815384D01*
X223387451Y-115600911D01*
X223512587Y-115399944D01*
X223628090Y-115215284D01*
X223732244Y-115049732D01*
X223823331Y-114906091D01*
X223899634Y-114787161D01*
X223959435Y-114695744D01*
X224001017Y-114634643D01*
X224022662Y-114606658D01*
X224108612Y-114547537D01*
X224197086Y-114529340D01*
X224283946Y-114552964D01*
G37*
X209757748Y-110590990D02*
X210106023Y-110591198D01*
X210494276Y-110591466D01*
X210570863Y-110591519D01*
X210969931Y-110591931D01*
X211328634Y-110592555D01*
X211648639Y-110593408D01*
X211931615Y-110594507D01*
X212179227Y-110595870D01*
X212393143Y-110597514D01*
X212575029Y-110599456D01*
X212726554Y-110601714D01*
X212849383Y-110604304D01*
X212945185Y-110607244D01*
X213015625Y-110610551D01*
X213062372Y-110614243D01*
X213087092Y-110618337D01*
X213134111Y-110637598D01*
X213201571Y-110694192D01*
X213235288Y-110770751D01*
X213231204Y-110860462D01*
X213227281Y-110868633D01*
X213203530Y-110910529D01*
X213159442Y-110985367D01*
X213096254Y-111091133D01*
X213015200Y-111225814D01*
X212917518Y-111387396D01*
X212804443Y-111573865D01*
X212677211Y-111783208D01*
X212537058Y-112013410D01*
X212385221Y-112262459D01*
X212222934Y-112528340D01*
X212051434Y-112809040D01*
X211871958Y-113102545D01*
X211685740Y-113406842D01*
X211494018Y-113719916D01*
X211298026Y-114039754D01*
X211099001Y-114364343D01*
X210898179Y-114691668D01*
X210696796Y-115019717D01*
X210496088Y-115346474D01*
X210297290Y-115669928D01*
X210101640Y-115988063D01*
X209910372Y-116298866D01*
X209724723Y-116600324D01*
X209545928Y-116890423D01*
X209375225Y-117167149D01*
X209213848Y-117428488D01*
X209063033Y-117672428D01*
X208924017Y-117896953D01*
X208798036Y-118100051D01*
X208686326Y-118279707D01*
X208590122Y-118433909D01*
X208510660Y-118560642D01*
X208449177Y-118657892D01*
X208406909Y-118723647D01*
X208385090Y-118755892D01*
X208315872Y-118827344D01*
X208215906Y-118901479D01*
X208100673Y-118966856D01*
X207983571Y-119014837D01*
X207977878Y-119016632D01*
X207957675Y-119022350D01*
X207934535Y-119027454D01*
X207906139Y-119031974D01*
X207870172Y-119035939D01*
X207824315Y-119039381D01*
X207766250Y-119042329D01*
X207693661Y-119044813D01*
X207604231Y-119046864D01*
X207495641Y-119048512D01*
X207365574Y-119049788D01*
X207211713Y-119050721D01*
X207031741Y-119051342D01*
X206823340Y-119051681D01*
X206584193Y-119051768D01*
X206311982Y-119051634D01*
X206004390Y-119051308D01*
X205659100Y-119050822D01*
X205273794Y-119050205D01*
X202687717Y-119045923D01*
X202627960Y-119001459D01*
X202577733Y-118939799D01*
X202558013Y-118856516D01*
X202569715Y-118760014D01*
X202613181Y-118658272D01*
X202625816Y-118637347D01*
X202660376Y-118580763D01*
X202715194Y-118491308D01*
X202789212Y-118370698D01*
X202881374Y-118220651D01*
X202990624Y-118042884D01*
X203115906Y-117839114D01*
X203256162Y-117611059D01*
X203410337Y-117360437D01*
X203577373Y-117088963D01*
X203756215Y-116798357D01*
X203945807Y-116490334D01*
X204145091Y-116166613D01*
X204353011Y-115828911D01*
X204568510Y-115478945D01*
X204790533Y-115118432D01*
X205018023Y-114749089D01*
X205263907Y-114350132D01*
X205511081Y-113949555D01*
X205747186Y-113567410D01*
X205971433Y-113204958D01*
X206183035Y-112863463D01*
X206381203Y-112544186D01*
X206565150Y-112248391D01*
X206734088Y-111977339D01*
X206887228Y-111732294D01*
X207023784Y-111514517D01*
X207142966Y-111325272D01*
X207243987Y-111165821D01*
X207326060Y-111037425D01*
X207388395Y-110941349D01*
X207430206Y-110878854D01*
X207450704Y-110851203D01*
X207483592Y-110820076D01*
X207561269Y-110757749D01*
X207636287Y-110709025D01*
X207638283Y-110707937D01*
X207669956Y-110690497D01*
X207699186Y-110674861D01*
X207728332Y-110660933D01*
X207759748Y-110648615D01*
X207795793Y-110637811D01*
X207838822Y-110628424D01*
X207891191Y-110620356D01*
X207955258Y-110613511D01*
X208033380Y-110607792D01*
X208127912Y-110603102D01*
X208241211Y-110599344D01*
X208375635Y-110596421D01*
X208533539Y-110594236D01*
X208717280Y-110592692D01*
X208929215Y-110591692D01*
X209171700Y-110591140D01*
X209447092Y-110590938D01*
X209757748Y-110590990D01*
G36*
X209757748Y-110590990D02*
G01*
X210106023Y-110591198D01*
X210494276Y-110591466D01*
X210570863Y-110591519D01*
X210969931Y-110591931D01*
X211328634Y-110592555D01*
X211648639Y-110593408D01*
X211931615Y-110594507D01*
X212179227Y-110595870D01*
X212393143Y-110597514D01*
X212575029Y-110599456D01*
X212726554Y-110601714D01*
X212849383Y-110604304D01*
X212945185Y-110607244D01*
X213015625Y-110610551D01*
X213062372Y-110614243D01*
X213087092Y-110618337D01*
X213134111Y-110637598D01*
X213201571Y-110694192D01*
X213235288Y-110770751D01*
X213231204Y-110860462D01*
X213227281Y-110868633D01*
X213203530Y-110910529D01*
X213159442Y-110985367D01*
X213096254Y-111091133D01*
X213015200Y-111225814D01*
X212917518Y-111387396D01*
X212804443Y-111573865D01*
X212677211Y-111783208D01*
X212537058Y-112013410D01*
X212385221Y-112262459D01*
X212222934Y-112528340D01*
X212051434Y-112809040D01*
X211871958Y-113102545D01*
X211685740Y-113406842D01*
X211494018Y-113719916D01*
X211298026Y-114039754D01*
X211099001Y-114364343D01*
X210898179Y-114691668D01*
X210696796Y-115019717D01*
X210496088Y-115346474D01*
X210297290Y-115669928D01*
X210101640Y-115988063D01*
X209910372Y-116298866D01*
X209724723Y-116600324D01*
X209545928Y-116890423D01*
X209375225Y-117167149D01*
X209213848Y-117428488D01*
X209063033Y-117672428D01*
X208924017Y-117896953D01*
X208798036Y-118100051D01*
X208686326Y-118279707D01*
X208590122Y-118433909D01*
X208510660Y-118560642D01*
X208449177Y-118657892D01*
X208406909Y-118723647D01*
X208385090Y-118755892D01*
X208315872Y-118827344D01*
X208215906Y-118901479D01*
X208100673Y-118966856D01*
X207983571Y-119014837D01*
X207977878Y-119016632D01*
X207957675Y-119022350D01*
X207934535Y-119027454D01*
X207906139Y-119031974D01*
X207870172Y-119035939D01*
X207824315Y-119039381D01*
X207766250Y-119042329D01*
X207693661Y-119044813D01*
X207604231Y-119046864D01*
X207495641Y-119048512D01*
X207365574Y-119049788D01*
X207211713Y-119050721D01*
X207031741Y-119051342D01*
X206823340Y-119051681D01*
X206584193Y-119051768D01*
X206311982Y-119051634D01*
X206004390Y-119051308D01*
X205659100Y-119050822D01*
X205273794Y-119050205D01*
X202687717Y-119045923D01*
X202627960Y-119001459D01*
X202577733Y-118939799D01*
X202558013Y-118856516D01*
X202569715Y-118760014D01*
X202613181Y-118658272D01*
X202625816Y-118637347D01*
X202660376Y-118580763D01*
X202715194Y-118491308D01*
X202789212Y-118370698D01*
X202881374Y-118220651D01*
X202990624Y-118042884D01*
X203115906Y-117839114D01*
X203256162Y-117611059D01*
X203410337Y-117360437D01*
X203577373Y-117088963D01*
X203756215Y-116798357D01*
X203945807Y-116490334D01*
X204145091Y-116166613D01*
X204353011Y-115828911D01*
X204568510Y-115478945D01*
X204790533Y-115118432D01*
X205018023Y-114749089D01*
X205263907Y-114350132D01*
X205511081Y-113949555D01*
X205747186Y-113567410D01*
X205971433Y-113204958D01*
X206183035Y-112863463D01*
X206381203Y-112544186D01*
X206565150Y-112248391D01*
X206734088Y-111977339D01*
X206887228Y-111732294D01*
X207023784Y-111514517D01*
X207142966Y-111325272D01*
X207243987Y-111165821D01*
X207326060Y-111037425D01*
X207388395Y-110941349D01*
X207430206Y-110878854D01*
X207450704Y-110851203D01*
X207483592Y-110820076D01*
X207561269Y-110757749D01*
X207636287Y-110709025D01*
X207638283Y-110707937D01*
X207669956Y-110690497D01*
X207699186Y-110674861D01*
X207728332Y-110660933D01*
X207759748Y-110648615D01*
X207795793Y-110637811D01*
X207838822Y-110628424D01*
X207891191Y-110620356D01*
X207955258Y-110613511D01*
X208033380Y-110607792D01*
X208127912Y-110603102D01*
X208241211Y-110599344D01*
X208375635Y-110596421D01*
X208533539Y-110594236D01*
X208717280Y-110592692D01*
X208929215Y-110591692D01*
X209171700Y-110591140D01*
X209447092Y-110590938D01*
X209757748Y-110590990D01*
G37*
X215076634Y-110595205D02*
X215191517Y-110602466D01*
X215286051Y-110614743D01*
X215366454Y-110632721D01*
X215438948Y-110657082D01*
X215509752Y-110688510D01*
X215537630Y-110702481D01*
X215577723Y-110724724D01*
X215616235Y-110750209D01*
X215654980Y-110781467D01*
X215695777Y-110821028D01*
X215740441Y-110871426D01*
X215790788Y-110935190D01*
X215848636Y-111014852D01*
X215915801Y-111112944D01*
X215994100Y-111231996D01*
X216085349Y-111374539D01*
X216191364Y-111543106D01*
X216313962Y-111740227D01*
X216454960Y-111968433D01*
X216616173Y-112230256D01*
X216716445Y-112393353D01*
X216844732Y-112602322D01*
X216966095Y-112800349D01*
X217078622Y-112984296D01*
X217180401Y-113151028D01*
X217269520Y-113297407D01*
X217344069Y-113420298D01*
X217402135Y-113516563D01*
X217441806Y-113583067D01*
X217461172Y-113616673D01*
X217477837Y-113650099D01*
X217495502Y-113698224D01*
X217505829Y-113753887D01*
X217510668Y-113828675D01*
X217511870Y-113934173D01*
X217511565Y-113993151D01*
X217508538Y-114082609D01*
X217500863Y-114146819D01*
X217486825Y-114197063D01*
X217464711Y-114244624D01*
X217463569Y-114246748D01*
X217434919Y-114297119D01*
X217386803Y-114378519D01*
X217320957Y-114488154D01*
X217239115Y-114623226D01*
X217143010Y-114780941D01*
X217034378Y-114958502D01*
X216914953Y-115153113D01*
X216786468Y-115361980D01*
X216650659Y-115582304D01*
X216509259Y-115811292D01*
X216364003Y-116046147D01*
X216216625Y-116284073D01*
X216068859Y-116522274D01*
X215922441Y-116757955D01*
X215779103Y-116988319D01*
X215640581Y-117210571D01*
X215508608Y-117421914D01*
X215384919Y-117619554D01*
X215271248Y-117800694D01*
X215169330Y-117962537D01*
X215080899Y-118102290D01*
X215007689Y-118217154D01*
X214951435Y-118304335D01*
X214913870Y-118361037D01*
X214896729Y-118384464D01*
X214894374Y-118386607D01*
X214813185Y-118432947D01*
X214719964Y-118441316D01*
X214622669Y-118410947D01*
X214615334Y-118407187D01*
X214606219Y-118401980D01*
X214596435Y-118394712D01*
X214584850Y-118383595D01*
X214570330Y-118366840D01*
X214551740Y-118342659D01*
X214527947Y-118309263D01*
X214497818Y-118264864D01*
X214460219Y-118207673D01*
X214414017Y-118135903D01*
X214358077Y-118047764D01*
X214291266Y-117941468D01*
X214212451Y-117815227D01*
X214120498Y-117667253D01*
X214014273Y-117495756D01*
X213892643Y-117298949D01*
X213754474Y-117075043D01*
X213598632Y-116822249D01*
X213423984Y-116538780D01*
X213229397Y-116222847D01*
X213013735Y-115872661D01*
X212929011Y-115735071D01*
X212761784Y-115463275D01*
X212614884Y-115223963D01*
X212486996Y-115014725D01*
X212376802Y-114833149D01*
X212282988Y-114676823D01*
X212204236Y-114543337D01*
X212139231Y-114430278D01*
X212086656Y-114335237D01*
X212045196Y-114255802D01*
X212013534Y-114189561D01*
X211990355Y-114134103D01*
X211974341Y-114087018D01*
X211964176Y-114045893D01*
X211958546Y-114008318D01*
X211956132Y-113971882D01*
X211955620Y-113934173D01*
X211955621Y-113933289D01*
X211956304Y-113892189D01*
X211959274Y-113852513D01*
X211965958Y-113811587D01*
X211977785Y-113766741D01*
X211996186Y-113715301D01*
X212022588Y-113654596D01*
X212058422Y-113581952D01*
X212105115Y-113494699D01*
X212164098Y-113390163D01*
X212236799Y-113265673D01*
X212324647Y-113118556D01*
X212429072Y-112946140D01*
X212551502Y-112745753D01*
X212693366Y-112514721D01*
X212856095Y-112250374D01*
X212966131Y-112071804D01*
X213110492Y-111837874D01*
X213235571Y-111635797D01*
X213343033Y-111463036D01*
X213434546Y-111317051D01*
X213511775Y-111195306D01*
X213576387Y-111095263D01*
X213630048Y-111014382D01*
X213674426Y-110950127D01*
X213711186Y-110899958D01*
X213741996Y-110861338D01*
X213768521Y-110831730D01*
X213792428Y-110808594D01*
X213815383Y-110789393D01*
X213838870Y-110771135D01*
X213908773Y-110720290D01*
X213974593Y-110680743D01*
X214042960Y-110650957D01*
X214120505Y-110629393D01*
X214213859Y-110614512D01*
X214329651Y-110604778D01*
X214474513Y-110598650D01*
X214655074Y-110594592D01*
X214760933Y-110592997D01*
X214935179Y-110592276D01*
X215076634Y-110595205D01*
G36*
X215076634Y-110595205D02*
G01*
X215191517Y-110602466D01*
X215286051Y-110614743D01*
X215366454Y-110632721D01*
X215438948Y-110657082D01*
X215509752Y-110688510D01*
X215537630Y-110702481D01*
X215577723Y-110724724D01*
X215616235Y-110750209D01*
X215654980Y-110781467D01*
X215695777Y-110821028D01*
X215740441Y-110871426D01*
X215790788Y-110935190D01*
X215848636Y-111014852D01*
X215915801Y-111112944D01*
X215994100Y-111231996D01*
X216085349Y-111374539D01*
X216191364Y-111543106D01*
X216313962Y-111740227D01*
X216454960Y-111968433D01*
X216616173Y-112230256D01*
X216716445Y-112393353D01*
X216844732Y-112602322D01*
X216966095Y-112800349D01*
X217078622Y-112984296D01*
X217180401Y-113151028D01*
X217269520Y-113297407D01*
X217344069Y-113420298D01*
X217402135Y-113516563D01*
X217441806Y-113583067D01*
X217461172Y-113616673D01*
X217477837Y-113650099D01*
X217495502Y-113698224D01*
X217505829Y-113753887D01*
X217510668Y-113828675D01*
X217511870Y-113934173D01*
X217511565Y-113993151D01*
X217508538Y-114082609D01*
X217500863Y-114146819D01*
X217486825Y-114197063D01*
X217464711Y-114244624D01*
X217463569Y-114246748D01*
X217434919Y-114297119D01*
X217386803Y-114378519D01*
X217320957Y-114488154D01*
X217239115Y-114623226D01*
X217143010Y-114780941D01*
X217034378Y-114958502D01*
X216914953Y-115153113D01*
X216786468Y-115361980D01*
X216650659Y-115582304D01*
X216509259Y-115811292D01*
X216364003Y-116046147D01*
X216216625Y-116284073D01*
X216068859Y-116522274D01*
X215922441Y-116757955D01*
X215779103Y-116988319D01*
X215640581Y-117210571D01*
X215508608Y-117421914D01*
X215384919Y-117619554D01*
X215271248Y-117800694D01*
X215169330Y-117962537D01*
X215080899Y-118102290D01*
X215007689Y-118217154D01*
X214951435Y-118304335D01*
X214913870Y-118361037D01*
X214896729Y-118384464D01*
X214894374Y-118386607D01*
X214813185Y-118432947D01*
X214719964Y-118441316D01*
X214622669Y-118410947D01*
X214615334Y-118407187D01*
X214606219Y-118401980D01*
X214596435Y-118394712D01*
X214584850Y-118383595D01*
X214570330Y-118366840D01*
X214551740Y-118342659D01*
X214527947Y-118309263D01*
X214497818Y-118264864D01*
X214460219Y-118207673D01*
X214414017Y-118135903D01*
X214358077Y-118047764D01*
X214291266Y-117941468D01*
X214212451Y-117815227D01*
X214120498Y-117667253D01*
X214014273Y-117495756D01*
X213892643Y-117298949D01*
X213754474Y-117075043D01*
X213598632Y-116822249D01*
X213423984Y-116538780D01*
X213229397Y-116222847D01*
X213013735Y-115872661D01*
X212929011Y-115735071D01*
X212761784Y-115463275D01*
X212614884Y-115223963D01*
X212486996Y-115014725D01*
X212376802Y-114833149D01*
X212282988Y-114676823D01*
X212204236Y-114543337D01*
X212139231Y-114430278D01*
X212086656Y-114335237D01*
X212045196Y-114255802D01*
X212013534Y-114189561D01*
X211990355Y-114134103D01*
X211974341Y-114087018D01*
X211964176Y-114045893D01*
X211958546Y-114008318D01*
X211956132Y-113971882D01*
X211955620Y-113934173D01*
X211955621Y-113933289D01*
X211956304Y-113892189D01*
X211959274Y-113852513D01*
X211965958Y-113811587D01*
X211977785Y-113766741D01*
X211996186Y-113715301D01*
X212022588Y-113654596D01*
X212058422Y-113581952D01*
X212105115Y-113494699D01*
X212164098Y-113390163D01*
X212236799Y-113265673D01*
X212324647Y-113118556D01*
X212429072Y-112946140D01*
X212551502Y-112745753D01*
X212693366Y-112514721D01*
X212856095Y-112250374D01*
X212966131Y-112071804D01*
X213110492Y-111837874D01*
X213235571Y-111635797D01*
X213343033Y-111463036D01*
X213434546Y-111317051D01*
X213511775Y-111195306D01*
X213576387Y-111095263D01*
X213630048Y-111014382D01*
X213674426Y-110950127D01*
X213711186Y-110899958D01*
X213741996Y-110861338D01*
X213768521Y-110831730D01*
X213792428Y-110808594D01*
X213815383Y-110789393D01*
X213838870Y-110771135D01*
X213908773Y-110720290D01*
X213974593Y-110680743D01*
X214042960Y-110650957D01*
X214120505Y-110629393D01*
X214213859Y-110614512D01*
X214329651Y-110604778D01*
X214474513Y-110598650D01*
X214655074Y-110594592D01*
X214760933Y-110592997D01*
X214935179Y-110592276D01*
X215076634Y-110595205D01*
G37*
X221171192Y-110591349D02*
X221309107Y-110594158D01*
X221430789Y-110598826D01*
X221527550Y-110605332D01*
X221590704Y-110613657D01*
X221652091Y-110629571D01*
X221790331Y-110683271D01*
X221920644Y-110755786D01*
X222025833Y-110838238D01*
X222034472Y-110848010D01*
X222069540Y-110895610D01*
X222124373Y-110976137D01*
X222197493Y-111087274D01*
X222287421Y-111226704D01*
X222392679Y-111392109D01*
X222511789Y-111581173D01*
X222643272Y-111791578D01*
X222785650Y-112021008D01*
X222937445Y-112267145D01*
X223061973Y-112469767D01*
X223208156Y-112708138D01*
X223334558Y-112915223D01*
X223442612Y-113093700D01*
X223533751Y-113246244D01*
X223609408Y-113375531D01*
X223671018Y-113484238D01*
X223720011Y-113575042D01*
X223757823Y-113650618D01*
X223785885Y-113713643D01*
X223805632Y-113766793D01*
X223818495Y-113812745D01*
X223825909Y-113854175D01*
X223829307Y-113893758D01*
X223830120Y-113934173D01*
X223830075Y-113947595D01*
X223829227Y-113978371D01*
X223826428Y-114009275D01*
X223820554Y-114042303D01*
X223810480Y-114079451D01*
X223795081Y-114122715D01*
X223773231Y-114174088D01*
X223743806Y-114235568D01*
X223705680Y-114309148D01*
X223657730Y-114396825D01*
X223598829Y-114500594D01*
X223527853Y-114622450D01*
X223443677Y-114764389D01*
X223345175Y-114928406D01*
X223231224Y-115116496D01*
X223100697Y-115330654D01*
X222952471Y-115572877D01*
X222785419Y-115845158D01*
X222598417Y-116149495D01*
X222390340Y-116487881D01*
X222368526Y-116523348D01*
X222148940Y-116880030D01*
X221950362Y-117201910D01*
X221771972Y-117490287D01*
X221612948Y-117746460D01*
X221472470Y-117971727D01*
X221349715Y-118167389D01*
X221243863Y-118334744D01*
X221154092Y-118475090D01*
X221079581Y-118589728D01*
X221019508Y-118679957D01*
X220973053Y-118747074D01*
X220939394Y-118792380D01*
X220917709Y-118817174D01*
X220861315Y-118864315D01*
X220750622Y-118937469D01*
X220631638Y-118997974D01*
X220522164Y-119035982D01*
X220504554Y-119037509D01*
X220445729Y-119039563D01*
X220349196Y-119041561D01*
X220217625Y-119043484D01*
X220053686Y-119045313D01*
X219860052Y-119047031D01*
X219639393Y-119048617D01*
X219394379Y-119050053D01*
X219127683Y-119051322D01*
X218841974Y-119052403D01*
X218539923Y-119053279D01*
X218224203Y-119053931D01*
X217897482Y-119054339D01*
X217877172Y-119054356D01*
X217488354Y-119054697D01*
X217139541Y-119054961D01*
X216828515Y-119055066D01*
X216553057Y-119054926D01*
X216310948Y-119054457D01*
X216099971Y-119053573D01*
X215917906Y-119052189D01*
X215762535Y-119050222D01*
X215631641Y-119047586D01*
X215523003Y-119044197D01*
X215434404Y-119039969D01*
X215363625Y-119034819D01*
X215308449Y-119028660D01*
X215266655Y-119021409D01*
X215236026Y-119012980D01*
X215214343Y-119003290D01*
X215199388Y-118992252D01*
X215188943Y-118979782D01*
X215180788Y-118965796D01*
X215172706Y-118950209D01*
X215167961Y-118941661D01*
X215160494Y-118928370D01*
X215154302Y-118915026D01*
X215150222Y-118900187D01*
X215149090Y-118882414D01*
X215151740Y-118860267D01*
X215159010Y-118832304D01*
X215171735Y-118797085D01*
X215190751Y-118753171D01*
X215216893Y-118699120D01*
X215250998Y-118633493D01*
X215293902Y-118554850D01*
X215346440Y-118461749D01*
X215409449Y-118352750D01*
X215483764Y-118226414D01*
X215570222Y-118081300D01*
X215669657Y-117915967D01*
X215782907Y-117728976D01*
X215910806Y-117518886D01*
X216054191Y-117284256D01*
X216213898Y-117023646D01*
X216390762Y-116735616D01*
X216585621Y-116418726D01*
X216799308Y-116071536D01*
X217032661Y-115692604D01*
X217286515Y-115280491D01*
X217561706Y-114833756D01*
X217585445Y-114795219D01*
X217845908Y-114372657D01*
X218095736Y-113967826D01*
X218334165Y-113581951D01*
X218560431Y-113216258D01*
X218773769Y-112871971D01*
X218973414Y-112550316D01*
X219158603Y-112252517D01*
X219328571Y-111979799D01*
X219482554Y-111733388D01*
X219619787Y-111514509D01*
X219739506Y-111324386D01*
X219840947Y-111164244D01*
X219923345Y-111035310D01*
X219985935Y-110938806D01*
X220027955Y-110875960D01*
X220048638Y-110847995D01*
X220103317Y-110798417D01*
X220225354Y-110716766D01*
X220364473Y-110651540D01*
X220504551Y-110611118D01*
X220542182Y-110605901D01*
X220630951Y-110599110D01*
X220746924Y-110594280D01*
X220881413Y-110591390D01*
X221025732Y-110590420D01*
X221171192Y-110591349D01*
G36*
X221171192Y-110591349D02*
G01*
X221309107Y-110594158D01*
X221430789Y-110598826D01*
X221527550Y-110605332D01*
X221590704Y-110613657D01*
X221652091Y-110629571D01*
X221790331Y-110683271D01*
X221920644Y-110755786D01*
X222025833Y-110838238D01*
X222034472Y-110848010D01*
X222069540Y-110895610D01*
X222124373Y-110976137D01*
X222197493Y-111087274D01*
X222287421Y-111226704D01*
X222392679Y-111392109D01*
X222511789Y-111581173D01*
X222643272Y-111791578D01*
X222785650Y-112021008D01*
X222937445Y-112267145D01*
X223061973Y-112469767D01*
X223208156Y-112708138D01*
X223334558Y-112915223D01*
X223442612Y-113093700D01*
X223533751Y-113246244D01*
X223609408Y-113375531D01*
X223671018Y-113484238D01*
X223720011Y-113575042D01*
X223757823Y-113650618D01*
X223785885Y-113713643D01*
X223805632Y-113766793D01*
X223818495Y-113812745D01*
X223825909Y-113854175D01*
X223829307Y-113893758D01*
X223830120Y-113934173D01*
X223830075Y-113947595D01*
X223829227Y-113978371D01*
X223826428Y-114009275D01*
X223820554Y-114042303D01*
X223810480Y-114079451D01*
X223795081Y-114122715D01*
X223773231Y-114174088D01*
X223743806Y-114235568D01*
X223705680Y-114309148D01*
X223657730Y-114396825D01*
X223598829Y-114500594D01*
X223527853Y-114622450D01*
X223443677Y-114764389D01*
X223345175Y-114928406D01*
X223231224Y-115116496D01*
X223100697Y-115330654D01*
X222952471Y-115572877D01*
X222785419Y-115845158D01*
X222598417Y-116149495D01*
X222390340Y-116487881D01*
X222368526Y-116523348D01*
X222148940Y-116880030D01*
X221950362Y-117201910D01*
X221771972Y-117490287D01*
X221612948Y-117746460D01*
X221472470Y-117971727D01*
X221349715Y-118167389D01*
X221243863Y-118334744D01*
X221154092Y-118475090D01*
X221079581Y-118589728D01*
X221019508Y-118679957D01*
X220973053Y-118747074D01*
X220939394Y-118792380D01*
X220917709Y-118817174D01*
X220861315Y-118864315D01*
X220750622Y-118937469D01*
X220631638Y-118997974D01*
X220522164Y-119035982D01*
X220504554Y-119037509D01*
X220445729Y-119039563D01*
X220349196Y-119041561D01*
X220217625Y-119043484D01*
X220053686Y-119045313D01*
X219860052Y-119047031D01*
X219639393Y-119048617D01*
X219394379Y-119050053D01*
X219127683Y-119051322D01*
X218841974Y-119052403D01*
X218539923Y-119053279D01*
X218224203Y-119053931D01*
X217897482Y-119054339D01*
X217877172Y-119054356D01*
X217488354Y-119054697D01*
X217139541Y-119054961D01*
X216828515Y-119055066D01*
X216553057Y-119054926D01*
X216310948Y-119054457D01*
X216099971Y-119053573D01*
X215917906Y-119052189D01*
X215762535Y-119050222D01*
X215631641Y-119047586D01*
X215523003Y-119044197D01*
X215434404Y-119039969D01*
X215363625Y-119034819D01*
X215308449Y-119028660D01*
X215266655Y-119021409D01*
X215236026Y-119012980D01*
X215214343Y-119003290D01*
X215199388Y-118992252D01*
X215188943Y-118979782D01*
X215180788Y-118965796D01*
X215172706Y-118950209D01*
X215167961Y-118941661D01*
X215160494Y-118928370D01*
X215154302Y-118915026D01*
X215150222Y-118900187D01*
X215149090Y-118882414D01*
X215151740Y-118860267D01*
X215159010Y-118832304D01*
X215171735Y-118797085D01*
X215190751Y-118753171D01*
X215216893Y-118699120D01*
X215250998Y-118633493D01*
X215293902Y-118554850D01*
X215346440Y-118461749D01*
X215409449Y-118352750D01*
X215483764Y-118226414D01*
X215570222Y-118081300D01*
X215669657Y-117915967D01*
X215782907Y-117728976D01*
X215910806Y-117518886D01*
X216054191Y-117284256D01*
X216213898Y-117023646D01*
X216390762Y-116735616D01*
X216585621Y-116418726D01*
X216799308Y-116071536D01*
X217032661Y-115692604D01*
X217286515Y-115280491D01*
X217561706Y-114833756D01*
X217585445Y-114795219D01*
X217845908Y-114372657D01*
X218095736Y-113967826D01*
X218334165Y-113581951D01*
X218560431Y-113216258D01*
X218773769Y-112871971D01*
X218973414Y-112550316D01*
X219158603Y-112252517D01*
X219328571Y-111979799D01*
X219482554Y-111733388D01*
X219619787Y-111514509D01*
X219739506Y-111324386D01*
X219840947Y-111164244D01*
X219923345Y-111035310D01*
X219985935Y-110938806D01*
X220027955Y-110875960D01*
X220048638Y-110847995D01*
X220103317Y-110798417D01*
X220225354Y-110716766D01*
X220364473Y-110651540D01*
X220504551Y-110611118D01*
X220542182Y-110605901D01*
X220630951Y-110599110D01*
X220746924Y-110594280D01*
X220881413Y-110591390D01*
X221025732Y-110590420D01*
X221171192Y-110591349D01*
G37*
X168549416Y-118823726D02*
X168025541Y-118818065D01*
X167501666Y-118812403D01*
X167491083Y-117764653D01*
X167480499Y-116716903D01*
X166628541Y-116711371D01*
X165776583Y-116705840D01*
X165776583Y-115669633D01*
X166628541Y-115664102D01*
X167480499Y-115658570D01*
X167486160Y-115134898D01*
X167491821Y-114611227D01*
X165448499Y-114600237D01*
X165448499Y-113563070D01*
X166998958Y-113557641D01*
X168549416Y-113552212D01*
X168549416Y-118823726D01*
G36*
X168549416Y-118823726D02*
G01*
X168025541Y-118818065D01*
X167501666Y-118812403D01*
X167491083Y-117764653D01*
X167480499Y-116716903D01*
X166628541Y-116711371D01*
X165776583Y-116705840D01*
X165776583Y-115669633D01*
X166628541Y-115664102D01*
X167480499Y-115658570D01*
X167486160Y-115134898D01*
X167491821Y-114611227D01*
X165448499Y-114600237D01*
X165448499Y-113563070D01*
X166998958Y-113557641D01*
X168549416Y-113552212D01*
X168549416Y-118823726D01*
G37*
X172063083Y-118822987D02*
X168993177Y-118822987D01*
X169004499Y-117775237D01*
X169999333Y-117764653D01*
X170994166Y-117754070D01*
X170999850Y-117247561D01*
X171000261Y-117209082D01*
X171001316Y-117048858D01*
X171000735Y-116925924D01*
X170998349Y-116836125D01*
X170993990Y-116775309D01*
X170987491Y-116739322D01*
X170978683Y-116724010D01*
X170977162Y-116723387D01*
X170944298Y-116719605D01*
X170874652Y-116716121D01*
X170773009Y-116713034D01*
X170644156Y-116710443D01*
X170492881Y-116708449D01*
X170323969Y-116707149D01*
X170142208Y-116706644D01*
X169332583Y-116706320D01*
X169332583Y-115669645D01*
X170163374Y-115664107D01*
X170994166Y-115658570D01*
X170994166Y-114621403D01*
X169999333Y-114610820D01*
X169004499Y-114600237D01*
X169004499Y-113563070D01*
X172063083Y-113552208D01*
X172063083Y-118822987D01*
G36*
X172063083Y-118822987D02*
G01*
X168993177Y-118822987D01*
X169004499Y-117775237D01*
X169999333Y-117764653D01*
X170994166Y-117754070D01*
X170999850Y-117247561D01*
X171000261Y-117209082D01*
X171001316Y-117048858D01*
X171000735Y-116925924D01*
X170998349Y-116836125D01*
X170993990Y-116775309D01*
X170987491Y-116739322D01*
X170978683Y-116724010D01*
X170977162Y-116723387D01*
X170944298Y-116719605D01*
X170874652Y-116716121D01*
X170773009Y-116713034D01*
X170644156Y-116710443D01*
X170492881Y-116708449D01*
X170323969Y-116707149D01*
X170142208Y-116706644D01*
X169332583Y-116706320D01*
X169332583Y-115669645D01*
X170163374Y-115664107D01*
X170994166Y-115658570D01*
X170994166Y-114621403D01*
X169999333Y-114610820D01*
X169004499Y-114600237D01*
X169004499Y-113563070D01*
X172063083Y-113552208D01*
X172063083Y-118822987D01*
G37*
X159812874Y-113557639D02*
X161342166Y-113563070D01*
X161347541Y-116193028D01*
X161352915Y-118822987D01*
X158283583Y-118822987D01*
X158283583Y-117765068D01*
X160283833Y-117754070D01*
X160289517Y-117247561D01*
X160289927Y-117209082D01*
X160290983Y-117048858D01*
X160290402Y-116925924D01*
X160288016Y-116836125D01*
X160283657Y-116775309D01*
X160277158Y-116739322D01*
X160268350Y-116724010D01*
X160267386Y-116723568D01*
X160236348Y-116719751D01*
X160168338Y-116716231D01*
X160068178Y-116713110D01*
X159940689Y-116710490D01*
X159790692Y-116708471D01*
X159623008Y-116707155D01*
X159442458Y-116706644D01*
X158643416Y-116706320D01*
X158643416Y-115669650D01*
X159463624Y-115664110D01*
X160283833Y-115658570D01*
X160283833Y-114621403D01*
X158283583Y-114610405D01*
X158283583Y-113552208D01*
X159812874Y-113557639D01*
G36*
X159812874Y-113557639D02*
G01*
X161342166Y-113563070D01*
X161347541Y-116193028D01*
X161352915Y-118822987D01*
X158283583Y-118822987D01*
X158283583Y-117765068D01*
X160283833Y-117754070D01*
X160289517Y-117247561D01*
X160289927Y-117209082D01*
X160290983Y-117048858D01*
X160290402Y-116925924D01*
X160288016Y-116836125D01*
X160283657Y-116775309D01*
X160277158Y-116739322D01*
X160268350Y-116724010D01*
X160267386Y-116723568D01*
X160236348Y-116719751D01*
X160168338Y-116716231D01*
X160068178Y-116713110D01*
X159940689Y-116710490D01*
X159790692Y-116708471D01*
X159623008Y-116707155D01*
X159442458Y-116706644D01*
X158643416Y-116706320D01*
X158643416Y-115669650D01*
X159463624Y-115664110D01*
X160283833Y-115658570D01*
X160283833Y-114621403D01*
X158283583Y-114610405D01*
X158283583Y-113552208D01*
X159812874Y-113557639D01*
G37*
X164459061Y-113557409D02*
X164982833Y-113563070D01*
X164988278Y-116166570D01*
X164988817Y-116453727D01*
X164989268Y-116772586D01*
X164989543Y-117077601D01*
X164989647Y-117366181D01*
X164989585Y-117635737D01*
X164989361Y-117883679D01*
X164988980Y-118107417D01*
X164988447Y-118304361D01*
X164987766Y-118471922D01*
X164986941Y-118607508D01*
X164985977Y-118708532D01*
X164984879Y-118772402D01*
X164983651Y-118796528D01*
X164981808Y-118798512D01*
X164965345Y-118803414D01*
X164930255Y-118807662D01*
X164874165Y-118811297D01*
X164794706Y-118814357D01*
X164689508Y-118816882D01*
X164556200Y-118818911D01*
X164392411Y-118820483D01*
X164195772Y-118821637D01*
X163963911Y-118822413D01*
X163694459Y-118822850D01*
X163385044Y-118822987D01*
X161796510Y-118822987D01*
X161802171Y-118299112D01*
X161807833Y-117775237D01*
X162866166Y-117764653D01*
X163924499Y-117754070D01*
X163929894Y-115652909D01*
X163935288Y-113551747D01*
X164459061Y-113557409D01*
G36*
X164459061Y-113557409D02*
G01*
X164982833Y-113563070D01*
X164988278Y-116166570D01*
X164988817Y-116453727D01*
X164989268Y-116772586D01*
X164989543Y-117077601D01*
X164989647Y-117366181D01*
X164989585Y-117635737D01*
X164989361Y-117883679D01*
X164988980Y-118107417D01*
X164988447Y-118304361D01*
X164987766Y-118471922D01*
X164986941Y-118607508D01*
X164985977Y-118708532D01*
X164984879Y-118772402D01*
X164983651Y-118796528D01*
X164981808Y-118798512D01*
X164965345Y-118803414D01*
X164930255Y-118807662D01*
X164874165Y-118811297D01*
X164794706Y-118814357D01*
X164689508Y-118816882D01*
X164556200Y-118818911D01*
X164392411Y-118820483D01*
X164195772Y-118821637D01*
X163963911Y-118822413D01*
X163694459Y-118822850D01*
X163385044Y-118822987D01*
X161796510Y-118822987D01*
X161802171Y-118299112D01*
X161807833Y-117775237D01*
X162866166Y-117764653D01*
X163924499Y-117754070D01*
X163929894Y-115652909D01*
X163935288Y-113551747D01*
X164459061Y-113557409D01*
G37*
X176277170Y-113553573D02*
X176396440Y-113555231D01*
X176489061Y-113558240D01*
X176557895Y-113562829D01*
X176605801Y-113569225D01*
X176635639Y-113577657D01*
X176650270Y-113588352D01*
X176652553Y-113601537D01*
X176645348Y-113617442D01*
X176631516Y-113636294D01*
X176613916Y-113658320D01*
X176612797Y-113659756D01*
X176584173Y-113700159D01*
X176572053Y-113724439D01*
X176571935Y-113725129D01*
X176559938Y-113750677D01*
X176531129Y-113804667D01*
X176489563Y-113879657D01*
X176439291Y-113968206D01*
X176385648Y-114062313D01*
X176336672Y-114149361D01*
X176298082Y-114219123D01*
X176275283Y-114261919D01*
X176273383Y-114265684D01*
X176248937Y-114311065D01*
X176232950Y-114335653D01*
X176213136Y-114364121D01*
X176175045Y-114429652D01*
X176120184Y-114530088D01*
X176078344Y-114608107D01*
X175134338Y-114614755D01*
X175034119Y-114615465D01*
X174826382Y-114617038D01*
X174655262Y-114618638D01*
X174516748Y-114620478D01*
X174406827Y-114622768D01*
X174321486Y-114625720D01*
X174256715Y-114629545D01*
X174208500Y-114634454D01*
X174172829Y-114640659D01*
X174145691Y-114648370D01*
X174123073Y-114657800D01*
X174100963Y-114669158D01*
X174022383Y-114716623D01*
X173895488Y-114826436D01*
X173804350Y-114958164D01*
X173783620Y-115001704D01*
X173762186Y-115065435D01*
X173751675Y-115137676D01*
X173748714Y-115235237D01*
X173749312Y-115280561D01*
X173759631Y-115398133D01*
X173782030Y-115481607D01*
X173806725Y-115528733D01*
X173879153Y-115626778D01*
X173971905Y-115719122D01*
X174072146Y-115792033D01*
X174169166Y-115849070D01*
X174756541Y-115855588D01*
X174775582Y-115855808D01*
X174926826Y-115858220D01*
X175062633Y-115861526D01*
X175177625Y-115865507D01*
X175266423Y-115869947D01*
X175323646Y-115874628D01*
X175343916Y-115879333D01*
X175336639Y-115898163D01*
X175312078Y-115947360D01*
X175274274Y-116018071D01*
X175227499Y-116102126D01*
X175186735Y-116174797D01*
X175147530Y-116246314D01*
X175120901Y-116296850D01*
X175111083Y-116318530D01*
X175111039Y-116319104D01*
X175098977Y-116343746D01*
X175071979Y-116385552D01*
X175049903Y-116419556D01*
X175010341Y-116485485D01*
X174969264Y-116558153D01*
X174940642Y-116610228D01*
X174896310Y-116689979D01*
X174860201Y-116753945D01*
X174841606Y-116786425D01*
X174784681Y-116886006D01*
X174741248Y-116962314D01*
X174705315Y-117025902D01*
X174670891Y-117087320D01*
X174644850Y-117133671D01*
X174600104Y-117212856D01*
X174546636Y-117307156D01*
X174491099Y-117404820D01*
X174445666Y-117484848D01*
X174388500Y-117586180D01*
X174337794Y-117676717D01*
X174300833Y-117743487D01*
X174270116Y-117798667D01*
X174238931Y-117852445D01*
X174220433Y-117881554D01*
X174206233Y-117903731D01*
X174177008Y-117954370D01*
X174141438Y-118019137D01*
X174113411Y-118070289D01*
X174067362Y-118152896D01*
X174009255Y-118256241D01*
X173943737Y-118372057D01*
X173875456Y-118492081D01*
X173868380Y-118504488D01*
X173806153Y-118614148D01*
X173752166Y-118710238D01*
X173709630Y-118786971D01*
X173681755Y-118838564D01*
X173671749Y-118859230D01*
X173671703Y-118859791D01*
X173659624Y-118883974D01*
X173632646Y-118925552D01*
X173610569Y-118959556D01*
X173571008Y-119025485D01*
X173529931Y-119098153D01*
X173501308Y-119150228D01*
X173456976Y-119229979D01*
X173420867Y-119293945D01*
X173416078Y-119302315D01*
X173372604Y-119378635D01*
X173330671Y-119452695D01*
X173276269Y-119548969D01*
X173228050Y-119633514D01*
X173194357Y-119691322D01*
X173171930Y-119727968D01*
X173157513Y-119749028D01*
X173154938Y-119749725D01*
X173119506Y-119751908D01*
X173043846Y-119754003D01*
X172929516Y-119756011D01*
X172778075Y-119757933D01*
X172591080Y-119759768D01*
X172370088Y-119761517D01*
X172116657Y-119763180D01*
X171832346Y-119764757D01*
X171518711Y-119766248D01*
X171177311Y-119767653D01*
X170809704Y-119768973D01*
X170417446Y-119770207D01*
X170002097Y-119771356D01*
X169565212Y-119772420D01*
X169108352Y-119773400D01*
X168633072Y-119774294D01*
X168140931Y-119775104D01*
X167633487Y-119775829D01*
X167112297Y-119776470D01*
X166578919Y-119777027D01*
X166034911Y-119777499D01*
X165481831Y-119777888D01*
X164921236Y-119778193D01*
X164354684Y-119778415D01*
X163783733Y-119778553D01*
X163209940Y-119778608D01*
X162634864Y-119778580D01*
X162060062Y-119778469D01*
X161487091Y-119778275D01*
X160917510Y-119777999D01*
X160352877Y-119777640D01*
X159794748Y-119777199D01*
X159244683Y-119776676D01*
X158704238Y-119776070D01*
X158174971Y-119775383D01*
X157658440Y-119774614D01*
X157156203Y-119773763D01*
X156669817Y-119772831D01*
X156200841Y-119771818D01*
X155750832Y-119770724D01*
X155321348Y-119769549D01*
X154913946Y-119768293D01*
X154530185Y-119766956D01*
X154171621Y-119765539D01*
X153839813Y-119764042D01*
X153536319Y-119762464D01*
X153262696Y-119760806D01*
X153020503Y-119759069D01*
X152811296Y-119757252D01*
X152636633Y-119755355D01*
X152498073Y-119753379D01*
X152397172Y-119751323D01*
X152335490Y-119749189D01*
X152314583Y-119746975D01*
X152323558Y-119718048D01*
X152351624Y-119675656D01*
X152355118Y-119671509D01*
X152387695Y-119628930D01*
X152433490Y-119565216D01*
X152483748Y-119492500D01*
X152578830Y-119352153D01*
X162326248Y-119351829D01*
X162920056Y-119351781D01*
X163550591Y-119351665D01*
X164169265Y-119351487D01*
X164774753Y-119351248D01*
X165365731Y-119350950D01*
X165940873Y-119350595D01*
X166498855Y-119350186D01*
X167038351Y-119349724D01*
X167558038Y-119349213D01*
X168056589Y-119348653D01*
X168532680Y-119348047D01*
X168984987Y-119347398D01*
X169412184Y-119346707D01*
X169812946Y-119345976D01*
X170185949Y-119345209D01*
X170529867Y-119344406D01*
X170843376Y-119343570D01*
X171125151Y-119342703D01*
X171373867Y-119341808D01*
X171588198Y-119340886D01*
X171766821Y-119339940D01*
X171908410Y-119338971D01*
X172011641Y-119337983D01*
X172075188Y-119336976D01*
X172097726Y-119335954D01*
X172109264Y-119324707D01*
X172139510Y-119282977D01*
X172174173Y-119225153D01*
X172433891Y-118748903D01*
X172498054Y-118630251D01*
X172574375Y-118489465D01*
X172638674Y-118371354D01*
X172695604Y-118267362D01*
X172731731Y-118201137D01*
X172782225Y-118107777D01*
X172830043Y-118018653D01*
X172871031Y-117942311D01*
X172918166Y-117855398D01*
X172956381Y-117785820D01*
X172984201Y-117735152D01*
X173028158Y-117654193D01*
X173080117Y-117557883D01*
X173133850Y-117457737D01*
X173184156Y-117364055D01*
X173231992Y-117275645D01*
X173270703Y-117204792D01*
X173294903Y-117161403D01*
X173314342Y-117126297D01*
X173351214Y-117056551D01*
X173389457Y-116981487D01*
X173417092Y-116927451D01*
X173444169Y-116877729D01*
X173459085Y-116854487D01*
X173465834Y-116847027D01*
X173490594Y-116808293D01*
X173513505Y-116761746D01*
X173523583Y-116728791D01*
X173514061Y-116713629D01*
X173477548Y-116680188D01*
X173423041Y-116639662D01*
X173349879Y-116586536D01*
X173159531Y-116415152D01*
X172995419Y-116216385D01*
X172862735Y-115997160D01*
X172766672Y-115764403D01*
X172764361Y-115757195D01*
X172742822Y-115690163D01*
X172719737Y-115618499D01*
X172713151Y-115592341D01*
X172702088Y-115509730D01*
X172695456Y-115400890D01*
X172693169Y-115276689D01*
X172695142Y-115147996D01*
X172701292Y-115025680D01*
X172711532Y-114920610D01*
X172725779Y-114843653D01*
X172739306Y-114794773D01*
X172762819Y-114714673D01*
X172784059Y-114651714D01*
X172808305Y-114589653D01*
X172808903Y-114588198D01*
X172923997Y-114363096D01*
X173079083Y-114149077D01*
X173104073Y-114120161D01*
X173262840Y-113964784D01*
X173444309Y-113827384D01*
X173637266Y-113715600D01*
X173830499Y-113637072D01*
X173843617Y-113632894D01*
X173912619Y-113609093D01*
X173968083Y-113587414D01*
X173999505Y-113581927D01*
X174070173Y-113576818D01*
X174180237Y-113572228D01*
X174330187Y-113568148D01*
X174520512Y-113564566D01*
X174751700Y-113561472D01*
X175024241Y-113558854D01*
X175338624Y-113556701D01*
X175476414Y-113555899D01*
X175730875Y-113554430D01*
X175947248Y-113553400D01*
X176128393Y-113553039D01*
X176277170Y-113553573D01*
G36*
X176277170Y-113553573D02*
G01*
X176396440Y-113555231D01*
X176489061Y-113558240D01*
X176557895Y-113562829D01*
X176605801Y-113569225D01*
X176635639Y-113577657D01*
X176650270Y-113588352D01*
X176652553Y-113601537D01*
X176645348Y-113617442D01*
X176631516Y-113636294D01*
X176613916Y-113658320D01*
X176612797Y-113659756D01*
X176584173Y-113700159D01*
X176572053Y-113724439D01*
X176571935Y-113725129D01*
X176559938Y-113750677D01*
X176531129Y-113804667D01*
X176489563Y-113879657D01*
X176439291Y-113968206D01*
X176385648Y-114062313D01*
X176336672Y-114149361D01*
X176298082Y-114219123D01*
X176275283Y-114261919D01*
X176273383Y-114265684D01*
X176248937Y-114311065D01*
X176232950Y-114335653D01*
X176213136Y-114364121D01*
X176175045Y-114429652D01*
X176120184Y-114530088D01*
X176078344Y-114608107D01*
X175134338Y-114614755D01*
X175034119Y-114615465D01*
X174826382Y-114617038D01*
X174655262Y-114618638D01*
X174516748Y-114620478D01*
X174406827Y-114622768D01*
X174321486Y-114625720D01*
X174256715Y-114629545D01*
X174208500Y-114634454D01*
X174172829Y-114640659D01*
X174145691Y-114648370D01*
X174123073Y-114657800D01*
X174100963Y-114669158D01*
X174022383Y-114716623D01*
X173895488Y-114826436D01*
X173804350Y-114958164D01*
X173783620Y-115001704D01*
X173762186Y-115065435D01*
X173751675Y-115137676D01*
X173748714Y-115235237D01*
X173749312Y-115280561D01*
X173759631Y-115398133D01*
X173782030Y-115481607D01*
X173806725Y-115528733D01*
X173879153Y-115626778D01*
X173971905Y-115719122D01*
X174072146Y-115792033D01*
X174169166Y-115849070D01*
X174756541Y-115855588D01*
X174775582Y-115855808D01*
X174926826Y-115858220D01*
X175062633Y-115861526D01*
X175177625Y-115865507D01*
X175266423Y-115869947D01*
X175323646Y-115874628D01*
X175343916Y-115879333D01*
X175336639Y-115898163D01*
X175312078Y-115947360D01*
X175274274Y-116018071D01*
X175227499Y-116102126D01*
X175186735Y-116174797D01*
X175147530Y-116246314D01*
X175120901Y-116296850D01*
X175111083Y-116318530D01*
X175111039Y-116319104D01*
X175098977Y-116343746D01*
X175071979Y-116385552D01*
X175049903Y-116419556D01*
X175010341Y-116485485D01*
X174969264Y-116558153D01*
X174940642Y-116610228D01*
X174896310Y-116689979D01*
X174860201Y-116753945D01*
X174841606Y-116786425D01*
X174784681Y-116886006D01*
X174741248Y-116962314D01*
X174705315Y-117025902D01*
X174670891Y-117087320D01*
X174644850Y-117133671D01*
X174600104Y-117212856D01*
X174546636Y-117307156D01*
X174491099Y-117404820D01*
X174445666Y-117484848D01*
X174388500Y-117586180D01*
X174337794Y-117676717D01*
X174300833Y-117743487D01*
X174270116Y-117798667D01*
X174238931Y-117852445D01*
X174220433Y-117881554D01*
X174206233Y-117903731D01*
X174177008Y-117954370D01*
X174141438Y-118019137D01*
X174113411Y-118070289D01*
X174067362Y-118152896D01*
X174009255Y-118256241D01*
X173943737Y-118372057D01*
X173875456Y-118492081D01*
X173868380Y-118504488D01*
X173806153Y-118614148D01*
X173752166Y-118710238D01*
X173709630Y-118786971D01*
X173681755Y-118838564D01*
X173671749Y-118859230D01*
X173671703Y-118859791D01*
X173659624Y-118883974D01*
X173632646Y-118925552D01*
X173610569Y-118959556D01*
X173571008Y-119025485D01*
X173529931Y-119098153D01*
X173501308Y-119150228D01*
X173456976Y-119229979D01*
X173420867Y-119293945D01*
X173416078Y-119302315D01*
X173372604Y-119378635D01*
X173330671Y-119452695D01*
X173276269Y-119548969D01*
X173228050Y-119633514D01*
X173194357Y-119691322D01*
X173171930Y-119727968D01*
X173157513Y-119749028D01*
X173154938Y-119749725D01*
X173119506Y-119751908D01*
X173043846Y-119754003D01*
X172929516Y-119756011D01*
X172778075Y-119757933D01*
X172591080Y-119759768D01*
X172370088Y-119761517D01*
X172116657Y-119763180D01*
X171832346Y-119764757D01*
X171518711Y-119766248D01*
X171177311Y-119767653D01*
X170809704Y-119768973D01*
X170417446Y-119770207D01*
X170002097Y-119771356D01*
X169565212Y-119772420D01*
X169108352Y-119773400D01*
X168633072Y-119774294D01*
X168140931Y-119775104D01*
X167633487Y-119775829D01*
X167112297Y-119776470D01*
X166578919Y-119777027D01*
X166034911Y-119777499D01*
X165481831Y-119777888D01*
X164921236Y-119778193D01*
X164354684Y-119778415D01*
X163783733Y-119778553D01*
X163209940Y-119778608D01*
X162634864Y-119778580D01*
X162060062Y-119778469D01*
X161487091Y-119778275D01*
X160917510Y-119777999D01*
X160352877Y-119777640D01*
X159794748Y-119777199D01*
X159244683Y-119776676D01*
X158704238Y-119776070D01*
X158174971Y-119775383D01*
X157658440Y-119774614D01*
X157156203Y-119773763D01*
X156669817Y-119772831D01*
X156200841Y-119771818D01*
X155750832Y-119770724D01*
X155321348Y-119769549D01*
X154913946Y-119768293D01*
X154530185Y-119766956D01*
X154171621Y-119765539D01*
X153839813Y-119764042D01*
X153536319Y-119762464D01*
X153262696Y-119760806D01*
X153020503Y-119759069D01*
X152811296Y-119757252D01*
X152636633Y-119755355D01*
X152498073Y-119753379D01*
X152397172Y-119751323D01*
X152335490Y-119749189D01*
X152314583Y-119746975D01*
X152323558Y-119718048D01*
X152351624Y-119675656D01*
X152355118Y-119671509D01*
X152387695Y-119628930D01*
X152433490Y-119565216D01*
X152483748Y-119492500D01*
X152578830Y-119352153D01*
X162326248Y-119351829D01*
X162920056Y-119351781D01*
X163550591Y-119351665D01*
X164169265Y-119351487D01*
X164774753Y-119351248D01*
X165365731Y-119350950D01*
X165940873Y-119350595D01*
X166498855Y-119350186D01*
X167038351Y-119349724D01*
X167558038Y-119349213D01*
X168056589Y-119348653D01*
X168532680Y-119348047D01*
X168984987Y-119347398D01*
X169412184Y-119346707D01*
X169812946Y-119345976D01*
X170185949Y-119345209D01*
X170529867Y-119344406D01*
X170843376Y-119343570D01*
X171125151Y-119342703D01*
X171373867Y-119341808D01*
X171588198Y-119340886D01*
X171766821Y-119339940D01*
X171908410Y-119338971D01*
X172011641Y-119337983D01*
X172075188Y-119336976D01*
X172097726Y-119335954D01*
X172109264Y-119324707D01*
X172139510Y-119282977D01*
X172174173Y-119225153D01*
X172433891Y-118748903D01*
X172498054Y-118630251D01*
X172574375Y-118489465D01*
X172638674Y-118371354D01*
X172695604Y-118267362D01*
X172731731Y-118201137D01*
X172782225Y-118107777D01*
X172830043Y-118018653D01*
X172871031Y-117942311D01*
X172918166Y-117855398D01*
X172956381Y-117785820D01*
X172984201Y-117735152D01*
X173028158Y-117654193D01*
X173080117Y-117557883D01*
X173133850Y-117457737D01*
X173184156Y-117364055D01*
X173231992Y-117275645D01*
X173270703Y-117204792D01*
X173294903Y-117161403D01*
X173314342Y-117126297D01*
X173351214Y-117056551D01*
X173389457Y-116981487D01*
X173417092Y-116927451D01*
X173444169Y-116877729D01*
X173459085Y-116854487D01*
X173465834Y-116847027D01*
X173490594Y-116808293D01*
X173513505Y-116761746D01*
X173523583Y-116728791D01*
X173514061Y-116713629D01*
X173477548Y-116680188D01*
X173423041Y-116639662D01*
X173349879Y-116586536D01*
X173159531Y-116415152D01*
X172995419Y-116216385D01*
X172862735Y-115997160D01*
X172766672Y-115764403D01*
X172764361Y-115757195D01*
X172742822Y-115690163D01*
X172719737Y-115618499D01*
X172713151Y-115592341D01*
X172702088Y-115509730D01*
X172695456Y-115400890D01*
X172693169Y-115276689D01*
X172695142Y-115147996D01*
X172701292Y-115025680D01*
X172711532Y-114920610D01*
X172725779Y-114843653D01*
X172739306Y-114794773D01*
X172762819Y-114714673D01*
X172784059Y-114651714D01*
X172808305Y-114589653D01*
X172808903Y-114588198D01*
X172923997Y-114363096D01*
X173079083Y-114149077D01*
X173104073Y-114120161D01*
X173262840Y-113964784D01*
X173444309Y-113827384D01*
X173637266Y-113715600D01*
X173830499Y-113637072D01*
X173843617Y-113632894D01*
X173912619Y-113609093D01*
X173968083Y-113587414D01*
X173999505Y-113581927D01*
X174070173Y-113576818D01*
X174180237Y-113572228D01*
X174330187Y-113568148D01*
X174520512Y-113564566D01*
X174751700Y-113561472D01*
X175024241Y-113558854D01*
X175338624Y-113556701D01*
X175476414Y-113555899D01*
X175730875Y-113554430D01*
X175947248Y-113553400D01*
X176128393Y-113553039D01*
X176277170Y-113553573D01*
G37*
X165182733Y-112621410D02*
X165809836Y-112621454D01*
X166434549Y-112621527D01*
X167055443Y-112621628D01*
X167671093Y-112621757D01*
X168280072Y-112621914D01*
X168880954Y-112622098D01*
X169472311Y-112622311D01*
X170052719Y-112622551D01*
X170620750Y-112622819D01*
X171174977Y-112623115D01*
X171713974Y-112623439D01*
X172236315Y-112623790D01*
X172740574Y-112624169D01*
X173225323Y-112624576D01*
X173689136Y-112625010D01*
X174130587Y-112625472D01*
X174548248Y-112625962D01*
X174940695Y-112626479D01*
X175306500Y-112627023D01*
X175644236Y-112627595D01*
X175952478Y-112628195D01*
X176229798Y-112628822D01*
X176474770Y-112629476D01*
X176685968Y-112630158D01*
X176861966Y-112630867D01*
X177001335Y-112631604D01*
X177102652Y-112632368D01*
X177164487Y-112633159D01*
X177185416Y-112633977D01*
X177182907Y-112641361D01*
X177164453Y-112679257D01*
X177131982Y-112740509D01*
X177090166Y-112816177D01*
X177068710Y-112854758D01*
X177030847Y-112925299D01*
X177004682Y-112977496D01*
X176994916Y-113002171D01*
X176990469Y-113012128D01*
X176961435Y-113031639D01*
X176961372Y-113031658D01*
X176937338Y-113032437D01*
X176872224Y-113033203D01*
X176767252Y-113033957D01*
X176623645Y-113034695D01*
X176442626Y-113035418D01*
X176225417Y-113036123D01*
X175973241Y-113036810D01*
X175687321Y-113037476D01*
X175368880Y-113038121D01*
X175019139Y-113038742D01*
X174639323Y-113039340D01*
X174230654Y-113039912D01*
X173794354Y-113040457D01*
X173331646Y-113040973D01*
X172843752Y-113041460D01*
X172331897Y-113041916D01*
X171797302Y-113042339D01*
X171241190Y-113042729D01*
X170664783Y-113043083D01*
X170069305Y-113043401D01*
X169455979Y-113043681D01*
X168826026Y-113043921D01*
X168180670Y-113044121D01*
X167521133Y-113044279D01*
X166848638Y-113044393D01*
X166164408Y-113044463D01*
X165469666Y-113044487D01*
X165452451Y-113044487D01*
X164757952Y-113044511D01*
X164073997Y-113044582D01*
X163401806Y-113044697D01*
X162742604Y-113044856D01*
X162097612Y-113045057D01*
X161468054Y-113045299D01*
X160855152Y-113045579D01*
X160260129Y-113045898D01*
X159684207Y-113046253D01*
X159128610Y-113046644D01*
X158594560Y-113047068D01*
X158083279Y-113047524D01*
X157595991Y-113048012D01*
X157133919Y-113048529D01*
X156698284Y-113049075D01*
X156290310Y-113049647D01*
X155911219Y-113050246D01*
X155562234Y-113050868D01*
X155244579Y-113051513D01*
X154959474Y-113052180D01*
X154708145Y-113052867D01*
X154491812Y-113053573D01*
X154311698Y-113054296D01*
X154169028Y-113055035D01*
X154065022Y-113055788D01*
X154000904Y-113056555D01*
X153977897Y-113057334D01*
X153961388Y-113066452D01*
X153944416Y-113091444D01*
X153954124Y-113110630D01*
X153983490Y-113157672D01*
X154027375Y-113224570D01*
X154080562Y-113303702D01*
X154137831Y-113387441D01*
X154193966Y-113468164D01*
X154243749Y-113538245D01*
X154281961Y-113590061D01*
X154303386Y-113615987D01*
X154312641Y-113626836D01*
X154335999Y-113661244D01*
X154340394Y-113668107D01*
X154367288Y-113707951D01*
X154411772Y-113772547D01*
X154468837Y-113854645D01*
X154533473Y-113946994D01*
X154612849Y-114060152D01*
X154700837Y-114185785D01*
X154785903Y-114307417D01*
X154857331Y-114409737D01*
X154915041Y-114492197D01*
X154971720Y-114572539D01*
X155017163Y-114636277D01*
X155044925Y-114674320D01*
X155051094Y-114682621D01*
X155084096Y-114728438D01*
X155133791Y-114798540D01*
X155194568Y-114884987D01*
X155260817Y-114979839D01*
X155286838Y-115016919D01*
X155348831Y-115102795D01*
X155401911Y-115172949D01*
X155441120Y-115220946D01*
X155461505Y-115240354D01*
X155463999Y-115240546D01*
X155490000Y-115222870D01*
X155529728Y-115178888D01*
X155575648Y-115116761D01*
X155579701Y-115110800D01*
X155627129Y-115042218D01*
X155667889Y-114985176D01*
X155693547Y-114951495D01*
X155697397Y-114946709D01*
X155725090Y-114909281D01*
X155769976Y-114846425D01*
X155826753Y-114765614D01*
X155890124Y-114674320D01*
X155909187Y-114646728D01*
X155969645Y-114559637D01*
X156020886Y-114486442D01*
X156057991Y-114434142D01*
X156076043Y-114409737D01*
X156077946Y-114407434D01*
X156103390Y-114373419D01*
X156137279Y-114325070D01*
X156139699Y-114321535D01*
X156168361Y-114280216D01*
X156216227Y-114211693D01*
X156278804Y-114122380D01*
X156351600Y-114018687D01*
X156430125Y-113907028D01*
X156679670Y-113552487D01*
X157322877Y-113552487D01*
X157389153Y-113552554D01*
X157544018Y-113553270D01*
X157682253Y-113554683D01*
X157798718Y-113556692D01*
X157888271Y-113559194D01*
X157945773Y-113562088D01*
X157966083Y-113565270D01*
X157966004Y-113565793D01*
X157952663Y-113589421D01*
X157919699Y-113639824D01*
X157871823Y-113709966D01*
X157813745Y-113792812D01*
X157763740Y-113863411D01*
X157680779Y-113980852D01*
X157598156Y-114098125D01*
X157527972Y-114198070D01*
X157524076Y-114203631D01*
X157457974Y-114297700D01*
X157377778Y-114411437D01*
X157293257Y-114531005D01*
X157214178Y-114642570D01*
X157202633Y-114658831D01*
X157126660Y-114765984D01*
X157050330Y-114873842D01*
X156981942Y-114970671D01*
X156929793Y-115044737D01*
X156883732Y-115110091D01*
X156815033Y-115207092D01*
X156739544Y-115313306D01*
X156666904Y-115415153D01*
X156613214Y-115490587D01*
X156523979Y-115616903D01*
X156433322Y-115746133D01*
X156354337Y-115859653D01*
X156350843Y-115864702D01*
X156289145Y-115952730D01*
X156233183Y-116030636D01*
X156188993Y-116090133D01*
X156162609Y-116122936D01*
X156137633Y-116154504D01*
X156124583Y-116182622D01*
X156127306Y-116192266D01*
X156148078Y-116231276D01*
X156182087Y-116284953D01*
X156220661Y-116340544D01*
X156255126Y-116385297D01*
X156276809Y-116406459D01*
X156283128Y-116411072D01*
X156293916Y-116441737D01*
X156295150Y-116452668D01*
X156311259Y-116477014D01*
X156313747Y-116478639D01*
X156337199Y-116505003D01*
X156375355Y-116555710D01*
X156421286Y-116621653D01*
X156464719Y-116685171D01*
X156526132Y-116773664D01*
X156599077Y-116877954D01*
X156677609Y-116989612D01*
X156755784Y-117100207D01*
X156827659Y-117201310D01*
X156887289Y-117284491D01*
X156928732Y-117341320D01*
X156937755Y-117353735D01*
X156971714Y-117401468D01*
X157023797Y-117475320D01*
X157089986Y-117569572D01*
X157166260Y-117678506D01*
X157248600Y-117796403D01*
X157295325Y-117863295D01*
X157371513Y-117971939D01*
X157437749Y-118065856D01*
X157490482Y-118140037D01*
X157526159Y-118189472D01*
X157541229Y-118209153D01*
X157550882Y-118220110D01*
X157574499Y-118254695D01*
X157576771Y-118258325D01*
X157600839Y-118294369D01*
X157642952Y-118355831D01*
X157697881Y-118435116D01*
X157760393Y-118524625D01*
X157774660Y-118545029D01*
X157834846Y-118632330D01*
X157885300Y-118707430D01*
X157921089Y-118762896D01*
X157937283Y-118791292D01*
X157937906Y-118793316D01*
X157935030Y-118802020D01*
X157919215Y-118808861D01*
X157886263Y-118814050D01*
X157831974Y-118817800D01*
X157752150Y-118820324D01*
X157642590Y-118821834D01*
X157499098Y-118822542D01*
X157317472Y-118822662D01*
X157264326Y-118822580D01*
X157108180Y-118821684D01*
X156967266Y-118819918D01*
X156847004Y-118817413D01*
X156752815Y-118814302D01*
X156690117Y-118810716D01*
X156664333Y-118806787D01*
X156646278Y-118788972D01*
X156616403Y-118748903D01*
X156609517Y-118738077D01*
X156591516Y-118710480D01*
X156568354Y-118676173D01*
X156536168Y-118629589D01*
X156491095Y-118565163D01*
X156429271Y-118477329D01*
X156346833Y-118360520D01*
X156290214Y-118280336D01*
X156184998Y-118131227D01*
X156096809Y-118006053D01*
X156020582Y-117897590D01*
X155951254Y-117798613D01*
X155883758Y-117701896D01*
X155813030Y-117600216D01*
X155734006Y-117486347D01*
X155677124Y-117405105D01*
X155610906Y-117312586D01*
X155554659Y-117236265D01*
X155513011Y-117182401D01*
X155490589Y-117157251D01*
X155484900Y-117152903D01*
X155473221Y-117146340D01*
X155460351Y-117146752D01*
X155443434Y-117157623D01*
X155419617Y-117182438D01*
X155386045Y-117224682D01*
X155339864Y-117287841D01*
X155278220Y-117375399D01*
X155198257Y-117490841D01*
X155097122Y-117637653D01*
X155059406Y-117692108D01*
X155012148Y-117759291D01*
X154977495Y-117807266D01*
X154961074Y-117828153D01*
X154959321Y-117830042D01*
X154938092Y-117857928D01*
X154897656Y-117913647D01*
X154842004Y-117991549D01*
X154775126Y-118085985D01*
X154701013Y-118191304D01*
X154623655Y-118301858D01*
X154547044Y-118411996D01*
X154475169Y-118516070D01*
X154445824Y-118558393D01*
X154395256Y-118629634D01*
X154354839Y-118684446D01*
X154331358Y-118713512D01*
X154313347Y-118734850D01*
X154282200Y-118782304D01*
X154282132Y-118782429D01*
X154274039Y-118793992D01*
X154260510Y-118803124D01*
X154236933Y-118810109D01*
X154198694Y-118815236D01*
X154141183Y-118818789D01*
X154059788Y-118821054D01*
X153949895Y-118822318D01*
X153806894Y-118822867D01*
X153626171Y-118822987D01*
X153601145Y-118822986D01*
X153425766Y-118822851D01*
X153287703Y-118822287D01*
X153182501Y-118821011D01*
X153105706Y-118818736D01*
X153052862Y-118815178D01*
X153019516Y-118810052D01*
X153001213Y-118803073D01*
X152993498Y-118793957D01*
X152991916Y-118782417D01*
X152994662Y-118759009D01*
X153008571Y-118734792D01*
X153013175Y-118731058D01*
X153040335Y-118698817D01*
X153086758Y-118637574D01*
X153149225Y-118551726D01*
X153224517Y-118445670D01*
X153309416Y-118323804D01*
X153362950Y-118246692D01*
X153431937Y-118148000D01*
X153509117Y-118038096D01*
X153590430Y-117922715D01*
X153671814Y-117807592D01*
X153749209Y-117698462D01*
X153818554Y-117601059D01*
X153875787Y-117521120D01*
X153916847Y-117464378D01*
X153937673Y-117436570D01*
X153945806Y-117425737D01*
X153975428Y-117384072D01*
X154019207Y-117321238D01*
X154070963Y-117246070D01*
X154099841Y-117204099D01*
X154150145Y-117131942D01*
X154190181Y-117075723D01*
X154213197Y-117044987D01*
X154214892Y-117042904D01*
X154243419Y-117004945D01*
X154292770Y-116936508D01*
X154360120Y-116841595D01*
X154442643Y-116724206D01*
X154537513Y-116588344D01*
X154641903Y-116438008D01*
X154644144Y-116434769D01*
X154701286Y-116349288D01*
X154747998Y-116274114D01*
X154779518Y-116217268D01*
X154791083Y-116186770D01*
X154781474Y-116163367D01*
X154749677Y-116108845D01*
X154698615Y-116028800D01*
X154631359Y-115927770D01*
X154550980Y-115810294D01*
X154460548Y-115680910D01*
X154363135Y-115544156D01*
X154261810Y-115404570D01*
X154210966Y-115334187D01*
X154148314Y-115245912D01*
X154089089Y-115161153D01*
X153994502Y-115024658D01*
X153897106Y-114884777D01*
X153810612Y-114761264D01*
X153737634Y-114657825D01*
X153680787Y-114578162D01*
X153642685Y-114525982D01*
X153625944Y-114504987D01*
X153612272Y-114488104D01*
X153579091Y-114442524D01*
X153532212Y-114376003D01*
X153476965Y-114296018D01*
X153385145Y-114162264D01*
X153289994Y-114024515D01*
X153204358Y-113901435D01*
X153131094Y-113797091D01*
X153073061Y-113715550D01*
X153033115Y-113660882D01*
X153014114Y-113637153D01*
X153004743Y-113626250D01*
X152981333Y-113591766D01*
X152972903Y-113578699D01*
X152941561Y-113532563D01*
X152895788Y-113466677D01*
X152842252Y-113390683D01*
X152715525Y-113211590D01*
X152601235Y-113049080D01*
X152509089Y-112916737D01*
X152437656Y-112812445D01*
X152385506Y-112734090D01*
X152351211Y-112679557D01*
X152333340Y-112646730D01*
X152330464Y-112633494D01*
X152333079Y-112633219D01*
X152368602Y-112632411D01*
X152444528Y-112631632D01*
X152559431Y-112630881D01*
X152711885Y-112630160D01*
X152900462Y-112629467D01*
X153123738Y-112628803D01*
X153380284Y-112628168D01*
X153668675Y-112627561D01*
X153987485Y-112626983D01*
X154335285Y-112626434D01*
X154710651Y-112625913D01*
X155112156Y-112625420D01*
X155538373Y-112624957D01*
X155987875Y-112624521D01*
X156459236Y-112624115D01*
X156951030Y-112623736D01*
X157461831Y-112623386D01*
X157990210Y-112623065D01*
X158534743Y-112622771D01*
X159094003Y-112622507D01*
X159666562Y-112622270D01*
X160250996Y-112622062D01*
X160845876Y-112621882D01*
X161449777Y-112621730D01*
X162061272Y-112621606D01*
X162678935Y-112621510D01*
X163301339Y-112621443D01*
X163927058Y-112621404D01*
X164554665Y-112621393D01*
X165182733Y-112621410D01*
G36*
X165182733Y-112621410D02*
G01*
X165809836Y-112621454D01*
X166434549Y-112621527D01*
X167055443Y-112621628D01*
X167671093Y-112621757D01*
X168280072Y-112621914D01*
X168880954Y-112622098D01*
X169472311Y-112622311D01*
X170052719Y-112622551D01*
X170620750Y-112622819D01*
X171174977Y-112623115D01*
X171713974Y-112623439D01*
X172236315Y-112623790D01*
X172740574Y-112624169D01*
X173225323Y-112624576D01*
X173689136Y-112625010D01*
X174130587Y-112625472D01*
X174548248Y-112625962D01*
X174940695Y-112626479D01*
X175306500Y-112627023D01*
X175644236Y-112627595D01*
X175952478Y-112628195D01*
X176229798Y-112628822D01*
X176474770Y-112629476D01*
X176685968Y-112630158D01*
X176861966Y-112630867D01*
X177001335Y-112631604D01*
X177102652Y-112632368D01*
X177164487Y-112633159D01*
X177185416Y-112633977D01*
X177182907Y-112641361D01*
X177164453Y-112679257D01*
X177131982Y-112740509D01*
X177090166Y-112816177D01*
X177068710Y-112854758D01*
X177030847Y-112925299D01*
X177004682Y-112977496D01*
X176994916Y-113002171D01*
X176990469Y-113012128D01*
X176961435Y-113031639D01*
X176961372Y-113031658D01*
X176937338Y-113032437D01*
X176872224Y-113033203D01*
X176767252Y-113033957D01*
X176623645Y-113034695D01*
X176442626Y-113035418D01*
X176225417Y-113036123D01*
X175973241Y-113036810D01*
X175687321Y-113037476D01*
X175368880Y-113038121D01*
X175019139Y-113038742D01*
X174639323Y-113039340D01*
X174230654Y-113039912D01*
X173794354Y-113040457D01*
X173331646Y-113040973D01*
X172843752Y-113041460D01*
X172331897Y-113041916D01*
X171797302Y-113042339D01*
X171241190Y-113042729D01*
X170664783Y-113043083D01*
X170069305Y-113043401D01*
X169455979Y-113043681D01*
X168826026Y-113043921D01*
X168180670Y-113044121D01*
X167521133Y-113044279D01*
X166848638Y-113044393D01*
X166164408Y-113044463D01*
X165469666Y-113044487D01*
X165452451Y-113044487D01*
X164757952Y-113044511D01*
X164073997Y-113044582D01*
X163401806Y-113044697D01*
X162742604Y-113044856D01*
X162097612Y-113045057D01*
X161468054Y-113045299D01*
X160855152Y-113045579D01*
X160260129Y-113045898D01*
X159684207Y-113046253D01*
X159128610Y-113046644D01*
X158594560Y-113047068D01*
X158083279Y-113047524D01*
X157595991Y-113048012D01*
X157133919Y-113048529D01*
X156698284Y-113049075D01*
X156290310Y-113049647D01*
X155911219Y-113050246D01*
X155562234Y-113050868D01*
X155244579Y-113051513D01*
X154959474Y-113052180D01*
X154708145Y-113052867D01*
X154491812Y-113053573D01*
X154311698Y-113054296D01*
X154169028Y-113055035D01*
X154065022Y-113055788D01*
X154000904Y-113056555D01*
X153977897Y-113057334D01*
X153961388Y-113066452D01*
X153944416Y-113091444D01*
X153954124Y-113110630D01*
X153983490Y-113157672D01*
X154027375Y-113224570D01*
X154080562Y-113303702D01*
X154137831Y-113387441D01*
X154193966Y-113468164D01*
X154243749Y-113538245D01*
X154281961Y-113590061D01*
X154303386Y-113615987D01*
X154312641Y-113626836D01*
X154335999Y-113661244D01*
X154340394Y-113668107D01*
X154367288Y-113707951D01*
X154411772Y-113772547D01*
X154468837Y-113854645D01*
X154533473Y-113946994D01*
X154612849Y-114060152D01*
X154700837Y-114185785D01*
X154785903Y-114307417D01*
X154857331Y-114409737D01*
X154915041Y-114492197D01*
X154971720Y-114572539D01*
X155017163Y-114636277D01*
X155044925Y-114674320D01*
X155051094Y-114682621D01*
X155084096Y-114728438D01*
X155133791Y-114798540D01*
X155194568Y-114884987D01*
X155260817Y-114979839D01*
X155286838Y-115016919D01*
X155348831Y-115102795D01*
X155401911Y-115172949D01*
X155441120Y-115220946D01*
X155461505Y-115240354D01*
X155463999Y-115240546D01*
X155490000Y-115222870D01*
X155529728Y-115178888D01*
X155575648Y-115116761D01*
X155579701Y-115110800D01*
X155627129Y-115042218D01*
X155667889Y-114985176D01*
X155693547Y-114951495D01*
X155697397Y-114946709D01*
X155725090Y-114909281D01*
X155769976Y-114846425D01*
X155826753Y-114765614D01*
X155890124Y-114674320D01*
X155909187Y-114646728D01*
X155969645Y-114559637D01*
X156020886Y-114486442D01*
X156057991Y-114434142D01*
X156076043Y-114409737D01*
X156077946Y-114407434D01*
X156103390Y-114373419D01*
X156137279Y-114325070D01*
X156139699Y-114321535D01*
X156168361Y-114280216D01*
X156216227Y-114211693D01*
X156278804Y-114122380D01*
X156351600Y-114018687D01*
X156430125Y-113907028D01*
X156679670Y-113552487D01*
X157322877Y-113552487D01*
X157389153Y-113552554D01*
X157544018Y-113553270D01*
X157682253Y-113554683D01*
X157798718Y-113556692D01*
X157888271Y-113559194D01*
X157945773Y-113562088D01*
X157966083Y-113565270D01*
X157966004Y-113565793D01*
X157952663Y-113589421D01*
X157919699Y-113639824D01*
X157871823Y-113709966D01*
X157813745Y-113792812D01*
X157763740Y-113863411D01*
X157680779Y-113980852D01*
X157598156Y-114098125D01*
X157527972Y-114198070D01*
X157524076Y-114203631D01*
X157457974Y-114297700D01*
X157377778Y-114411437D01*
X157293257Y-114531005D01*
X157214178Y-114642570D01*
X157202633Y-114658831D01*
X157126660Y-114765984D01*
X157050330Y-114873842D01*
X156981942Y-114970671D01*
X156929793Y-115044737D01*
X156883732Y-115110091D01*
X156815033Y-115207092D01*
X156739544Y-115313306D01*
X156666904Y-115415153D01*
X156613214Y-115490587D01*
X156523979Y-115616903D01*
X156433322Y-115746133D01*
X156354337Y-115859653D01*
X156350843Y-115864702D01*
X156289145Y-115952730D01*
X156233183Y-116030636D01*
X156188993Y-116090133D01*
X156162609Y-116122936D01*
X156137633Y-116154504D01*
X156124583Y-116182622D01*
X156127306Y-116192266D01*
X156148078Y-116231276D01*
X156182087Y-116284953D01*
X156220661Y-116340544D01*
X156255126Y-116385297D01*
X156276809Y-116406459D01*
X156283128Y-116411072D01*
X156293916Y-116441737D01*
X156295150Y-116452668D01*
X156311259Y-116477014D01*
X156313747Y-116478639D01*
X156337199Y-116505003D01*
X156375355Y-116555710D01*
X156421286Y-116621653D01*
X156464719Y-116685171D01*
X156526132Y-116773664D01*
X156599077Y-116877954D01*
X156677609Y-116989612D01*
X156755784Y-117100207D01*
X156827659Y-117201310D01*
X156887289Y-117284491D01*
X156928732Y-117341320D01*
X156937755Y-117353735D01*
X156971714Y-117401468D01*
X157023797Y-117475320D01*
X157089986Y-117569572D01*
X157166260Y-117678506D01*
X157248600Y-117796403D01*
X157295325Y-117863295D01*
X157371513Y-117971939D01*
X157437749Y-118065856D01*
X157490482Y-118140037D01*
X157526159Y-118189472D01*
X157541229Y-118209153D01*
X157550882Y-118220110D01*
X157574499Y-118254695D01*
X157576771Y-118258325D01*
X157600839Y-118294369D01*
X157642952Y-118355831D01*
X157697881Y-118435116D01*
X157760393Y-118524625D01*
X157774660Y-118545029D01*
X157834846Y-118632330D01*
X157885300Y-118707430D01*
X157921089Y-118762896D01*
X157937283Y-118791292D01*
X157937906Y-118793316D01*
X157935030Y-118802020D01*
X157919215Y-118808861D01*
X157886263Y-118814050D01*
X157831974Y-118817800D01*
X157752150Y-118820324D01*
X157642590Y-118821834D01*
X157499098Y-118822542D01*
X157317472Y-118822662D01*
X157264326Y-118822580D01*
X157108180Y-118821684D01*
X156967266Y-118819918D01*
X156847004Y-118817413D01*
X156752815Y-118814302D01*
X156690117Y-118810716D01*
X156664333Y-118806787D01*
X156646278Y-118788972D01*
X156616403Y-118748903D01*
X156609517Y-118738077D01*
X156591516Y-118710480D01*
X156568354Y-118676173D01*
X156536168Y-118629589D01*
X156491095Y-118565163D01*
X156429271Y-118477329D01*
X156346833Y-118360520D01*
X156290214Y-118280336D01*
X156184998Y-118131227D01*
X156096809Y-118006053D01*
X156020582Y-117897590D01*
X155951254Y-117798613D01*
X155883758Y-117701896D01*
X155813030Y-117600216D01*
X155734006Y-117486347D01*
X155677124Y-117405105D01*
X155610906Y-117312586D01*
X155554659Y-117236265D01*
X155513011Y-117182401D01*
X155490589Y-117157251D01*
X155484900Y-117152903D01*
X155473221Y-117146340D01*
X155460351Y-117146752D01*
X155443434Y-117157623D01*
X155419617Y-117182438D01*
X155386045Y-117224682D01*
X155339864Y-117287841D01*
X155278220Y-117375399D01*
X155198257Y-117490841D01*
X155097122Y-117637653D01*
X155059406Y-117692108D01*
X155012148Y-117759291D01*
X154977495Y-117807266D01*
X154961074Y-117828153D01*
X154959321Y-117830042D01*
X154938092Y-117857928D01*
X154897656Y-117913647D01*
X154842004Y-117991549D01*
X154775126Y-118085985D01*
X154701013Y-118191304D01*
X154623655Y-118301858D01*
X154547044Y-118411996D01*
X154475169Y-118516070D01*
X154445824Y-118558393D01*
X154395256Y-118629634D01*
X154354839Y-118684446D01*
X154331358Y-118713512D01*
X154313347Y-118734850D01*
X154282200Y-118782304D01*
X154282132Y-118782429D01*
X154274039Y-118793992D01*
X154260510Y-118803124D01*
X154236933Y-118810109D01*
X154198694Y-118815236D01*
X154141183Y-118818789D01*
X154059788Y-118821054D01*
X153949895Y-118822318D01*
X153806894Y-118822867D01*
X153626171Y-118822987D01*
X153601145Y-118822986D01*
X153425766Y-118822851D01*
X153287703Y-118822287D01*
X153182501Y-118821011D01*
X153105706Y-118818736D01*
X153052862Y-118815178D01*
X153019516Y-118810052D01*
X153001213Y-118803073D01*
X152993498Y-118793957D01*
X152991916Y-118782417D01*
X152994662Y-118759009D01*
X153008571Y-118734792D01*
X153013175Y-118731058D01*
X153040335Y-118698817D01*
X153086758Y-118637574D01*
X153149225Y-118551726D01*
X153224517Y-118445670D01*
X153309416Y-118323804D01*
X153362950Y-118246692D01*
X153431937Y-118148000D01*
X153509117Y-118038096D01*
X153590430Y-117922715D01*
X153671814Y-117807592D01*
X153749209Y-117698462D01*
X153818554Y-117601059D01*
X153875787Y-117521120D01*
X153916847Y-117464378D01*
X153937673Y-117436570D01*
X153945806Y-117425737D01*
X153975428Y-117384072D01*
X154019207Y-117321238D01*
X154070963Y-117246070D01*
X154099841Y-117204099D01*
X154150145Y-117131942D01*
X154190181Y-117075723D01*
X154213197Y-117044987D01*
X154214892Y-117042904D01*
X154243419Y-117004945D01*
X154292770Y-116936508D01*
X154360120Y-116841595D01*
X154442643Y-116724206D01*
X154537513Y-116588344D01*
X154641903Y-116438008D01*
X154644144Y-116434769D01*
X154701286Y-116349288D01*
X154747998Y-116274114D01*
X154779518Y-116217268D01*
X154791083Y-116186770D01*
X154781474Y-116163367D01*
X154749677Y-116108845D01*
X154698615Y-116028800D01*
X154631359Y-115927770D01*
X154550980Y-115810294D01*
X154460548Y-115680910D01*
X154363135Y-115544156D01*
X154261810Y-115404570D01*
X154210966Y-115334187D01*
X154148314Y-115245912D01*
X154089089Y-115161153D01*
X153994502Y-115024658D01*
X153897106Y-114884777D01*
X153810612Y-114761264D01*
X153737634Y-114657825D01*
X153680787Y-114578162D01*
X153642685Y-114525982D01*
X153625944Y-114504987D01*
X153612272Y-114488104D01*
X153579091Y-114442524D01*
X153532212Y-114376003D01*
X153476965Y-114296018D01*
X153385145Y-114162264D01*
X153289994Y-114024515D01*
X153204358Y-113901435D01*
X153131094Y-113797091D01*
X153073061Y-113715550D01*
X153033115Y-113660882D01*
X153014114Y-113637153D01*
X153004743Y-113626250D01*
X152981333Y-113591766D01*
X152972903Y-113578699D01*
X152941561Y-113532563D01*
X152895788Y-113466677D01*
X152842252Y-113390683D01*
X152715525Y-113211590D01*
X152601235Y-113049080D01*
X152509089Y-112916737D01*
X152437656Y-112812445D01*
X152385506Y-112734090D01*
X152351211Y-112679557D01*
X152333340Y-112646730D01*
X152330464Y-112633494D01*
X152333079Y-112633219D01*
X152368602Y-112632411D01*
X152444528Y-112631632D01*
X152559431Y-112630881D01*
X152711885Y-112630160D01*
X152900462Y-112629467D01*
X153123738Y-112628803D01*
X153380284Y-112628168D01*
X153668675Y-112627561D01*
X153987485Y-112626983D01*
X154335285Y-112626434D01*
X154710651Y-112625913D01*
X155112156Y-112625420D01*
X155538373Y-112624957D01*
X155987875Y-112624521D01*
X156459236Y-112624115D01*
X156951030Y-112623736D01*
X157461831Y-112623386D01*
X157990210Y-112623065D01*
X158534743Y-112622771D01*
X159094003Y-112622507D01*
X159666562Y-112622270D01*
X160250996Y-112622062D01*
X160845876Y-112621882D01*
X161449777Y-112621730D01*
X162061272Y-112621606D01*
X162678935Y-112621510D01*
X163301339Y-112621443D01*
X163927058Y-112621404D01*
X164554665Y-112621393D01*
X165182733Y-112621410D01*
G37*
%TD*%
D11*
%TO.C,JW1*%
X195200000Y-137800000D03*
%TD*%
%TO.C,JW4*%
X138923677Y-139100000D03*
%TD*%
%TO.C,JW3*%
X191100000Y-139100000D03*
%TD*%
%TO.C,JW2*%
X135200000Y-137800000D03*
%TD*%
D12*
%TO.C,U2*%
X132000000Y-134770000D03*
X132000000Y-135270000D03*
X132000000Y-135770000D03*
X132000000Y-136270000D03*
X132000000Y-136770000D03*
X130950000Y-136770000D03*
X130950000Y-136270000D03*
X130950000Y-135770000D03*
X130950000Y-135270000D03*
X130950000Y-134770000D03*
%TD*%
D13*
%TO.C,J5*%
X177900000Y-149000000D03*
D14*
X179900000Y-149000000D03*
X181900000Y-149000000D03*
X183900000Y-149000000D03*
X185900000Y-149000000D03*
%TD*%
M02*
