%TF.GenerationSoftware,KiCad,Pcbnew,7.0.9*%
%TF.CreationDate,2023-12-20T17:33:09-07:00*%
%TF.ProjectId,vb_controller_pcb,76625f63-6f6e-4747-926f-6c6c65725f70,4a*%
%TF.SameCoordinates,Original*%
%TF.FileFunction,Other,Comment*%
%FSLAX46Y46*%
G04 Gerber Fmt 4.6, Leading zero omitted, Abs format (unit mm)*
G04 Created by KiCad (PCBNEW 7.0.9) date 2023-12-20 17:33:09*
%MOMM*%
%LPD*%
G01*
G04 APERTURE LIST*
%ADD10C,0.030000*%
%ADD11C,0.150000*%
G04 APERTURE END LIST*
D10*
X181770963Y-121240952D02*
X181570963Y-121240952D01*
X181570963Y-121240952D02*
X181770963Y-121126667D01*
X181770963Y-121126667D02*
X181570963Y-121126667D01*
X181770963Y-121002857D02*
X181761440Y-121021905D01*
X181761440Y-121021905D02*
X181751916Y-121031428D01*
X181751916Y-121031428D02*
X181732868Y-121040952D01*
X181732868Y-121040952D02*
X181675725Y-121040952D01*
X181675725Y-121040952D02*
X181656678Y-121031428D01*
X181656678Y-121031428D02*
X181647154Y-121021905D01*
X181647154Y-121021905D02*
X181637630Y-121002857D01*
X181637630Y-121002857D02*
X181637630Y-120974286D01*
X181637630Y-120974286D02*
X181647154Y-120955238D01*
X181647154Y-120955238D02*
X181656678Y-120945714D01*
X181656678Y-120945714D02*
X181675725Y-120936190D01*
X181675725Y-120936190D02*
X181732868Y-120936190D01*
X181732868Y-120936190D02*
X181751916Y-120945714D01*
X181751916Y-120945714D02*
X181761440Y-120955238D01*
X181761440Y-120955238D02*
X181770963Y-120974286D01*
X181770963Y-120974286D02*
X181770963Y-121002857D01*
X181666201Y-120631429D02*
X181666201Y-120698095D01*
X181770963Y-120698095D02*
X181570963Y-120698095D01*
X181570963Y-120698095D02*
X181570963Y-120602857D01*
X181751916Y-120526666D02*
X181761440Y-120517143D01*
X181761440Y-120517143D02*
X181770963Y-120526666D01*
X181770963Y-120526666D02*
X181761440Y-120536190D01*
X181761440Y-120536190D02*
X181751916Y-120526666D01*
X181751916Y-120526666D02*
X181770963Y-120526666D01*
X181751916Y-120317143D02*
X181761440Y-120326667D01*
X181761440Y-120326667D02*
X181770963Y-120355238D01*
X181770963Y-120355238D02*
X181770963Y-120374286D01*
X181770963Y-120374286D02*
X181761440Y-120402857D01*
X181761440Y-120402857D02*
X181742392Y-120421905D01*
X181742392Y-120421905D02*
X181723344Y-120431428D01*
X181723344Y-120431428D02*
X181685249Y-120440952D01*
X181685249Y-120440952D02*
X181656678Y-120440952D01*
X181656678Y-120440952D02*
X181618582Y-120431428D01*
X181618582Y-120431428D02*
X181599535Y-120421905D01*
X181599535Y-120421905D02*
X181580487Y-120402857D01*
X181580487Y-120402857D02*
X181570963Y-120374286D01*
X181570963Y-120374286D02*
X181570963Y-120355238D01*
X181570963Y-120355238D02*
X181580487Y-120326667D01*
X181580487Y-120326667D02*
X181590011Y-120317143D01*
X181637630Y-120145714D02*
X181770963Y-120145714D01*
X181637630Y-120231428D02*
X181742392Y-120231428D01*
X181742392Y-120231428D02*
X181761440Y-120221905D01*
X181761440Y-120221905D02*
X181770963Y-120202857D01*
X181770963Y-120202857D02*
X181770963Y-120174286D01*
X181770963Y-120174286D02*
X181761440Y-120155238D01*
X181761440Y-120155238D02*
X181751916Y-120145714D01*
X181637630Y-119926667D02*
X181637630Y-119850476D01*
X181570963Y-119898095D02*
X181742392Y-119898095D01*
X181742392Y-119898095D02*
X181761440Y-119888572D01*
X181761440Y-119888572D02*
X181770963Y-119869524D01*
X181770963Y-119869524D02*
X181770963Y-119850476D01*
X181770963Y-119783809D02*
X181637630Y-119783809D01*
X181675725Y-119783809D02*
X181656678Y-119774286D01*
X181656678Y-119774286D02*
X181647154Y-119764762D01*
X181647154Y-119764762D02*
X181637630Y-119745714D01*
X181637630Y-119745714D02*
X181637630Y-119726667D01*
X181770963Y-119574285D02*
X181666201Y-119574285D01*
X181666201Y-119574285D02*
X181647154Y-119583809D01*
X181647154Y-119583809D02*
X181637630Y-119602857D01*
X181637630Y-119602857D02*
X181637630Y-119640952D01*
X181637630Y-119640952D02*
X181647154Y-119659999D01*
X181761440Y-119574285D02*
X181770963Y-119593333D01*
X181770963Y-119593333D02*
X181770963Y-119640952D01*
X181770963Y-119640952D02*
X181761440Y-119659999D01*
X181761440Y-119659999D02*
X181742392Y-119669523D01*
X181742392Y-119669523D02*
X181723344Y-119669523D01*
X181723344Y-119669523D02*
X181704297Y-119659999D01*
X181704297Y-119659999D02*
X181694773Y-119640952D01*
X181694773Y-119640952D02*
X181694773Y-119593333D01*
X181694773Y-119593333D02*
X181685249Y-119574285D01*
X181761440Y-119393333D02*
X181770963Y-119412381D01*
X181770963Y-119412381D02*
X181770963Y-119450476D01*
X181770963Y-119450476D02*
X181761440Y-119469524D01*
X181761440Y-119469524D02*
X181751916Y-119479047D01*
X181751916Y-119479047D02*
X181732868Y-119488571D01*
X181732868Y-119488571D02*
X181675725Y-119488571D01*
X181675725Y-119488571D02*
X181656678Y-119479047D01*
X181656678Y-119479047D02*
X181647154Y-119469524D01*
X181647154Y-119469524D02*
X181637630Y-119450476D01*
X181637630Y-119450476D02*
X181637630Y-119412381D01*
X181637630Y-119412381D02*
X181647154Y-119393333D01*
X181770963Y-119307618D02*
X181570963Y-119307618D01*
X181694773Y-119288571D02*
X181770963Y-119231428D01*
X181637630Y-119231428D02*
X181713820Y-119307618D01*
X181761440Y-119155237D02*
X181770963Y-119136190D01*
X181770963Y-119136190D02*
X181770963Y-119098094D01*
X181770963Y-119098094D02*
X181761440Y-119079047D01*
X181761440Y-119079047D02*
X181742392Y-119069523D01*
X181742392Y-119069523D02*
X181732868Y-119069523D01*
X181732868Y-119069523D02*
X181713820Y-119079047D01*
X181713820Y-119079047D02*
X181704297Y-119098094D01*
X181704297Y-119098094D02*
X181704297Y-119126666D01*
X181704297Y-119126666D02*
X181694773Y-119145713D01*
X181694773Y-119145713D02*
X181675725Y-119155237D01*
X181675725Y-119155237D02*
X181666201Y-119155237D01*
X181666201Y-119155237D02*
X181647154Y-119145713D01*
X181647154Y-119145713D02*
X181637630Y-119126666D01*
X181637630Y-119126666D02*
X181637630Y-119098094D01*
X181637630Y-119098094D02*
X181647154Y-119079047D01*
X182170963Y-116374284D02*
X181970963Y-116374284D01*
X182170963Y-116259999D02*
X182056678Y-116345713D01*
X181970963Y-116259999D02*
X182085249Y-116374284D01*
X182066201Y-116174284D02*
X182066201Y-116107618D01*
X182170963Y-116079046D02*
X182170963Y-116174284D01*
X182170963Y-116174284D02*
X181970963Y-116174284D01*
X181970963Y-116174284D02*
X181970963Y-116079046D01*
X182066201Y-115993332D02*
X182066201Y-115926666D01*
X182170963Y-115898094D02*
X182170963Y-115993332D01*
X182170963Y-115993332D02*
X181970963Y-115993332D01*
X181970963Y-115993332D02*
X181970963Y-115898094D01*
X182170963Y-115812380D02*
X181970963Y-115812380D01*
X181970963Y-115812380D02*
X181970963Y-115736190D01*
X181970963Y-115736190D02*
X181980487Y-115717142D01*
X181980487Y-115717142D02*
X181990011Y-115707619D01*
X181990011Y-115707619D02*
X182009059Y-115698095D01*
X182009059Y-115698095D02*
X182037630Y-115698095D01*
X182037630Y-115698095D02*
X182056678Y-115707619D01*
X182056678Y-115707619D02*
X182066201Y-115717142D01*
X182066201Y-115717142D02*
X182075725Y-115736190D01*
X182075725Y-115736190D02*
X182075725Y-115812380D01*
X182094773Y-115612380D02*
X182094773Y-115460000D01*
X181970963Y-115326666D02*
X181970963Y-115288571D01*
X181970963Y-115288571D02*
X181980487Y-115269523D01*
X181980487Y-115269523D02*
X181999535Y-115250476D01*
X181999535Y-115250476D02*
X182037630Y-115240952D01*
X182037630Y-115240952D02*
X182104297Y-115240952D01*
X182104297Y-115240952D02*
X182142392Y-115250476D01*
X182142392Y-115250476D02*
X182161440Y-115269523D01*
X182161440Y-115269523D02*
X182170963Y-115288571D01*
X182170963Y-115288571D02*
X182170963Y-115326666D01*
X182170963Y-115326666D02*
X182161440Y-115345714D01*
X182161440Y-115345714D02*
X182142392Y-115364761D01*
X182142392Y-115364761D02*
X182104297Y-115374285D01*
X182104297Y-115374285D02*
X182037630Y-115374285D01*
X182037630Y-115374285D02*
X181999535Y-115364761D01*
X181999535Y-115364761D02*
X181980487Y-115345714D01*
X181980487Y-115345714D02*
X181970963Y-115326666D01*
X181970963Y-115155237D02*
X182132868Y-115155237D01*
X182132868Y-115155237D02*
X182151916Y-115145714D01*
X182151916Y-115145714D02*
X182161440Y-115136190D01*
X182161440Y-115136190D02*
X182170963Y-115117142D01*
X182170963Y-115117142D02*
X182170963Y-115079047D01*
X182170963Y-115079047D02*
X182161440Y-115059999D01*
X182161440Y-115059999D02*
X182151916Y-115050476D01*
X182151916Y-115050476D02*
X182132868Y-115040952D01*
X182132868Y-115040952D02*
X181970963Y-115040952D01*
X181970963Y-114974285D02*
X181970963Y-114859999D01*
X182170963Y-114917142D02*
X181970963Y-114917142D01*
X181970963Y-114659999D02*
X181970963Y-114526666D01*
X181970963Y-114526666D02*
X182170963Y-114659999D01*
X182170963Y-114659999D02*
X182170963Y-114526666D01*
X181970963Y-114412380D02*
X181970963Y-114374285D01*
X181970963Y-114374285D02*
X181980487Y-114355237D01*
X181980487Y-114355237D02*
X181999535Y-114336190D01*
X181999535Y-114336190D02*
X182037630Y-114326666D01*
X182037630Y-114326666D02*
X182104297Y-114326666D01*
X182104297Y-114326666D02*
X182142392Y-114336190D01*
X182142392Y-114336190D02*
X182161440Y-114355237D01*
X182161440Y-114355237D02*
X182170963Y-114374285D01*
X182170963Y-114374285D02*
X182170963Y-114412380D01*
X182170963Y-114412380D02*
X182161440Y-114431428D01*
X182161440Y-114431428D02*
X182142392Y-114450475D01*
X182142392Y-114450475D02*
X182104297Y-114459999D01*
X182104297Y-114459999D02*
X182037630Y-114459999D01*
X182037630Y-114459999D02*
X181999535Y-114450475D01*
X181999535Y-114450475D02*
X181980487Y-114431428D01*
X181980487Y-114431428D02*
X181970963Y-114412380D01*
X182170963Y-114240951D02*
X181970963Y-114240951D01*
X181970963Y-114240951D02*
X182170963Y-114126666D01*
X182170963Y-114126666D02*
X181970963Y-114126666D01*
X182066201Y-114031427D02*
X182066201Y-113964761D01*
X182170963Y-113936189D02*
X182170963Y-114031427D01*
X182170963Y-114031427D02*
X181970963Y-114031427D01*
X181970963Y-114031427D02*
X181970963Y-113936189D01*
X182170963Y-121374284D02*
X181970963Y-121374284D01*
X182170963Y-121259999D02*
X182056678Y-121345713D01*
X181970963Y-121259999D02*
X182085249Y-121374284D01*
X182066201Y-121174284D02*
X182066201Y-121107618D01*
X182170963Y-121079046D02*
X182170963Y-121174284D01*
X182170963Y-121174284D02*
X181970963Y-121174284D01*
X181970963Y-121174284D02*
X181970963Y-121079046D01*
X182066201Y-120993332D02*
X182066201Y-120926666D01*
X182170963Y-120898094D02*
X182170963Y-120993332D01*
X182170963Y-120993332D02*
X181970963Y-120993332D01*
X181970963Y-120993332D02*
X181970963Y-120898094D01*
X182170963Y-120812380D02*
X181970963Y-120812380D01*
X181970963Y-120812380D02*
X181970963Y-120736190D01*
X181970963Y-120736190D02*
X181980487Y-120717142D01*
X181980487Y-120717142D02*
X181990011Y-120707619D01*
X181990011Y-120707619D02*
X182009059Y-120698095D01*
X182009059Y-120698095D02*
X182037630Y-120698095D01*
X182037630Y-120698095D02*
X182056678Y-120707619D01*
X182056678Y-120707619D02*
X182066201Y-120717142D01*
X182066201Y-120717142D02*
X182075725Y-120736190D01*
X182075725Y-120736190D02*
X182075725Y-120812380D01*
X182094773Y-120612380D02*
X182094773Y-120460000D01*
X181970963Y-120326666D02*
X181970963Y-120288571D01*
X181970963Y-120288571D02*
X181980487Y-120269523D01*
X181980487Y-120269523D02*
X181999535Y-120250476D01*
X181999535Y-120250476D02*
X182037630Y-120240952D01*
X182037630Y-120240952D02*
X182104297Y-120240952D01*
X182104297Y-120240952D02*
X182142392Y-120250476D01*
X182142392Y-120250476D02*
X182161440Y-120269523D01*
X182161440Y-120269523D02*
X182170963Y-120288571D01*
X182170963Y-120288571D02*
X182170963Y-120326666D01*
X182170963Y-120326666D02*
X182161440Y-120345714D01*
X182161440Y-120345714D02*
X182142392Y-120364761D01*
X182142392Y-120364761D02*
X182104297Y-120374285D01*
X182104297Y-120374285D02*
X182037630Y-120374285D01*
X182037630Y-120374285D02*
X181999535Y-120364761D01*
X181999535Y-120364761D02*
X181980487Y-120345714D01*
X181980487Y-120345714D02*
X181970963Y-120326666D01*
X181970963Y-120155237D02*
X182132868Y-120155237D01*
X182132868Y-120155237D02*
X182151916Y-120145714D01*
X182151916Y-120145714D02*
X182161440Y-120136190D01*
X182161440Y-120136190D02*
X182170963Y-120117142D01*
X182170963Y-120117142D02*
X182170963Y-120079047D01*
X182170963Y-120079047D02*
X182161440Y-120059999D01*
X182161440Y-120059999D02*
X182151916Y-120050476D01*
X182151916Y-120050476D02*
X182132868Y-120040952D01*
X182132868Y-120040952D02*
X181970963Y-120040952D01*
X181970963Y-119974285D02*
X181970963Y-119859999D01*
X182170963Y-119917142D02*
X181970963Y-119917142D01*
X181970963Y-119659999D02*
X181970963Y-119526666D01*
X181970963Y-119526666D02*
X182170963Y-119659999D01*
X182170963Y-119659999D02*
X182170963Y-119526666D01*
X181970963Y-119412380D02*
X181970963Y-119374285D01*
X181970963Y-119374285D02*
X181980487Y-119355237D01*
X181980487Y-119355237D02*
X181999535Y-119336190D01*
X181999535Y-119336190D02*
X182037630Y-119326666D01*
X182037630Y-119326666D02*
X182104297Y-119326666D01*
X182104297Y-119326666D02*
X182142392Y-119336190D01*
X182142392Y-119336190D02*
X182161440Y-119355237D01*
X182161440Y-119355237D02*
X182170963Y-119374285D01*
X182170963Y-119374285D02*
X182170963Y-119412380D01*
X182170963Y-119412380D02*
X182161440Y-119431428D01*
X182161440Y-119431428D02*
X182142392Y-119450475D01*
X182142392Y-119450475D02*
X182104297Y-119459999D01*
X182104297Y-119459999D02*
X182037630Y-119459999D01*
X182037630Y-119459999D02*
X181999535Y-119450475D01*
X181999535Y-119450475D02*
X181980487Y-119431428D01*
X181980487Y-119431428D02*
X181970963Y-119412380D01*
X182170963Y-119240951D02*
X181970963Y-119240951D01*
X181970963Y-119240951D02*
X182170963Y-119126666D01*
X182170963Y-119126666D02*
X181970963Y-119126666D01*
X182066201Y-119031427D02*
X182066201Y-118964761D01*
X182170963Y-118936189D02*
X182170963Y-119031427D01*
X182170963Y-119031427D02*
X181970963Y-119031427D01*
X181970963Y-119031427D02*
X181970963Y-118936189D01*
X181770963Y-116240952D02*
X181570963Y-116240952D01*
X181570963Y-116240952D02*
X181770963Y-116126667D01*
X181770963Y-116126667D02*
X181570963Y-116126667D01*
X181770963Y-116002857D02*
X181761440Y-116021905D01*
X181761440Y-116021905D02*
X181751916Y-116031428D01*
X181751916Y-116031428D02*
X181732868Y-116040952D01*
X181732868Y-116040952D02*
X181675725Y-116040952D01*
X181675725Y-116040952D02*
X181656678Y-116031428D01*
X181656678Y-116031428D02*
X181647154Y-116021905D01*
X181647154Y-116021905D02*
X181637630Y-116002857D01*
X181637630Y-116002857D02*
X181637630Y-115974286D01*
X181637630Y-115974286D02*
X181647154Y-115955238D01*
X181647154Y-115955238D02*
X181656678Y-115945714D01*
X181656678Y-115945714D02*
X181675725Y-115936190D01*
X181675725Y-115936190D02*
X181732868Y-115936190D01*
X181732868Y-115936190D02*
X181751916Y-115945714D01*
X181751916Y-115945714D02*
X181761440Y-115955238D01*
X181761440Y-115955238D02*
X181770963Y-115974286D01*
X181770963Y-115974286D02*
X181770963Y-116002857D01*
X181666201Y-115631429D02*
X181666201Y-115698095D01*
X181770963Y-115698095D02*
X181570963Y-115698095D01*
X181570963Y-115698095D02*
X181570963Y-115602857D01*
X181751916Y-115526666D02*
X181761440Y-115517143D01*
X181761440Y-115517143D02*
X181770963Y-115526666D01*
X181770963Y-115526666D02*
X181761440Y-115536190D01*
X181761440Y-115536190D02*
X181751916Y-115526666D01*
X181751916Y-115526666D02*
X181770963Y-115526666D01*
X181751916Y-115317143D02*
X181761440Y-115326667D01*
X181761440Y-115326667D02*
X181770963Y-115355238D01*
X181770963Y-115355238D02*
X181770963Y-115374286D01*
X181770963Y-115374286D02*
X181761440Y-115402857D01*
X181761440Y-115402857D02*
X181742392Y-115421905D01*
X181742392Y-115421905D02*
X181723344Y-115431428D01*
X181723344Y-115431428D02*
X181685249Y-115440952D01*
X181685249Y-115440952D02*
X181656678Y-115440952D01*
X181656678Y-115440952D02*
X181618582Y-115431428D01*
X181618582Y-115431428D02*
X181599535Y-115421905D01*
X181599535Y-115421905D02*
X181580487Y-115402857D01*
X181580487Y-115402857D02*
X181570963Y-115374286D01*
X181570963Y-115374286D02*
X181570963Y-115355238D01*
X181570963Y-115355238D02*
X181580487Y-115326667D01*
X181580487Y-115326667D02*
X181590011Y-115317143D01*
X181637630Y-115145714D02*
X181770963Y-115145714D01*
X181637630Y-115231428D02*
X181742392Y-115231428D01*
X181742392Y-115231428D02*
X181761440Y-115221905D01*
X181761440Y-115221905D02*
X181770963Y-115202857D01*
X181770963Y-115202857D02*
X181770963Y-115174286D01*
X181770963Y-115174286D02*
X181761440Y-115155238D01*
X181761440Y-115155238D02*
X181751916Y-115145714D01*
X181637630Y-114926667D02*
X181637630Y-114850476D01*
X181570963Y-114898095D02*
X181742392Y-114898095D01*
X181742392Y-114898095D02*
X181761440Y-114888572D01*
X181761440Y-114888572D02*
X181770963Y-114869524D01*
X181770963Y-114869524D02*
X181770963Y-114850476D01*
X181770963Y-114783809D02*
X181637630Y-114783809D01*
X181675725Y-114783809D02*
X181656678Y-114774286D01*
X181656678Y-114774286D02*
X181647154Y-114764762D01*
X181647154Y-114764762D02*
X181637630Y-114745714D01*
X181637630Y-114745714D02*
X181637630Y-114726667D01*
X181770963Y-114574285D02*
X181666201Y-114574285D01*
X181666201Y-114574285D02*
X181647154Y-114583809D01*
X181647154Y-114583809D02*
X181637630Y-114602857D01*
X181637630Y-114602857D02*
X181637630Y-114640952D01*
X181637630Y-114640952D02*
X181647154Y-114659999D01*
X181761440Y-114574285D02*
X181770963Y-114593333D01*
X181770963Y-114593333D02*
X181770963Y-114640952D01*
X181770963Y-114640952D02*
X181761440Y-114659999D01*
X181761440Y-114659999D02*
X181742392Y-114669523D01*
X181742392Y-114669523D02*
X181723344Y-114669523D01*
X181723344Y-114669523D02*
X181704297Y-114659999D01*
X181704297Y-114659999D02*
X181694773Y-114640952D01*
X181694773Y-114640952D02*
X181694773Y-114593333D01*
X181694773Y-114593333D02*
X181685249Y-114574285D01*
X181761440Y-114393333D02*
X181770963Y-114412381D01*
X181770963Y-114412381D02*
X181770963Y-114450476D01*
X181770963Y-114450476D02*
X181761440Y-114469524D01*
X181761440Y-114469524D02*
X181751916Y-114479047D01*
X181751916Y-114479047D02*
X181732868Y-114488571D01*
X181732868Y-114488571D02*
X181675725Y-114488571D01*
X181675725Y-114488571D02*
X181656678Y-114479047D01*
X181656678Y-114479047D02*
X181647154Y-114469524D01*
X181647154Y-114469524D02*
X181637630Y-114450476D01*
X181637630Y-114450476D02*
X181637630Y-114412381D01*
X181637630Y-114412381D02*
X181647154Y-114393333D01*
X181770963Y-114307618D02*
X181570963Y-114307618D01*
X181694773Y-114288571D02*
X181770963Y-114231428D01*
X181637630Y-114231428D02*
X181713820Y-114307618D01*
X181761440Y-114155237D02*
X181770963Y-114136190D01*
X181770963Y-114136190D02*
X181770963Y-114098094D01*
X181770963Y-114098094D02*
X181761440Y-114079047D01*
X181761440Y-114079047D02*
X181742392Y-114069523D01*
X181742392Y-114069523D02*
X181732868Y-114069523D01*
X181732868Y-114069523D02*
X181713820Y-114079047D01*
X181713820Y-114079047D02*
X181704297Y-114098094D01*
X181704297Y-114098094D02*
X181704297Y-114126666D01*
X181704297Y-114126666D02*
X181694773Y-114145713D01*
X181694773Y-114145713D02*
X181675725Y-114155237D01*
X181675725Y-114155237D02*
X181666201Y-114155237D01*
X181666201Y-114155237D02*
X181647154Y-114145713D01*
X181647154Y-114145713D02*
X181637630Y-114126666D01*
X181637630Y-114126666D02*
X181637630Y-114098094D01*
X181637630Y-114098094D02*
X181647154Y-114079047D01*
X147866461Y-121374284D02*
X147666461Y-121374284D01*
X147866461Y-121259999D02*
X147752176Y-121345713D01*
X147666461Y-121259999D02*
X147780747Y-121374284D01*
X147761699Y-121174284D02*
X147761699Y-121107618D01*
X147866461Y-121079046D02*
X147866461Y-121174284D01*
X147866461Y-121174284D02*
X147666461Y-121174284D01*
X147666461Y-121174284D02*
X147666461Y-121079046D01*
X147761699Y-120993332D02*
X147761699Y-120926666D01*
X147866461Y-120898094D02*
X147866461Y-120993332D01*
X147866461Y-120993332D02*
X147666461Y-120993332D01*
X147666461Y-120993332D02*
X147666461Y-120898094D01*
X147866461Y-120812380D02*
X147666461Y-120812380D01*
X147666461Y-120812380D02*
X147666461Y-120736190D01*
X147666461Y-120736190D02*
X147675985Y-120717142D01*
X147675985Y-120717142D02*
X147685509Y-120707619D01*
X147685509Y-120707619D02*
X147704557Y-120698095D01*
X147704557Y-120698095D02*
X147733128Y-120698095D01*
X147733128Y-120698095D02*
X147752176Y-120707619D01*
X147752176Y-120707619D02*
X147761699Y-120717142D01*
X147761699Y-120717142D02*
X147771223Y-120736190D01*
X147771223Y-120736190D02*
X147771223Y-120812380D01*
X147790271Y-120612380D02*
X147790271Y-120460000D01*
X147666461Y-120326666D02*
X147666461Y-120288571D01*
X147666461Y-120288571D02*
X147675985Y-120269523D01*
X147675985Y-120269523D02*
X147695033Y-120250476D01*
X147695033Y-120250476D02*
X147733128Y-120240952D01*
X147733128Y-120240952D02*
X147799795Y-120240952D01*
X147799795Y-120240952D02*
X147837890Y-120250476D01*
X147837890Y-120250476D02*
X147856938Y-120269523D01*
X147856938Y-120269523D02*
X147866461Y-120288571D01*
X147866461Y-120288571D02*
X147866461Y-120326666D01*
X147866461Y-120326666D02*
X147856938Y-120345714D01*
X147856938Y-120345714D02*
X147837890Y-120364761D01*
X147837890Y-120364761D02*
X147799795Y-120374285D01*
X147799795Y-120374285D02*
X147733128Y-120374285D01*
X147733128Y-120374285D02*
X147695033Y-120364761D01*
X147695033Y-120364761D02*
X147675985Y-120345714D01*
X147675985Y-120345714D02*
X147666461Y-120326666D01*
X147666461Y-120155237D02*
X147828366Y-120155237D01*
X147828366Y-120155237D02*
X147847414Y-120145714D01*
X147847414Y-120145714D02*
X147856938Y-120136190D01*
X147856938Y-120136190D02*
X147866461Y-120117142D01*
X147866461Y-120117142D02*
X147866461Y-120079047D01*
X147866461Y-120079047D02*
X147856938Y-120059999D01*
X147856938Y-120059999D02*
X147847414Y-120050476D01*
X147847414Y-120050476D02*
X147828366Y-120040952D01*
X147828366Y-120040952D02*
X147666461Y-120040952D01*
X147666461Y-119974285D02*
X147666461Y-119859999D01*
X147866461Y-119917142D02*
X147666461Y-119917142D01*
X147666461Y-119659999D02*
X147666461Y-119526666D01*
X147666461Y-119526666D02*
X147866461Y-119659999D01*
X147866461Y-119659999D02*
X147866461Y-119526666D01*
X147666461Y-119412380D02*
X147666461Y-119374285D01*
X147666461Y-119374285D02*
X147675985Y-119355237D01*
X147675985Y-119355237D02*
X147695033Y-119336190D01*
X147695033Y-119336190D02*
X147733128Y-119326666D01*
X147733128Y-119326666D02*
X147799795Y-119326666D01*
X147799795Y-119326666D02*
X147837890Y-119336190D01*
X147837890Y-119336190D02*
X147856938Y-119355237D01*
X147856938Y-119355237D02*
X147866461Y-119374285D01*
X147866461Y-119374285D02*
X147866461Y-119412380D01*
X147866461Y-119412380D02*
X147856938Y-119431428D01*
X147856938Y-119431428D02*
X147837890Y-119450475D01*
X147837890Y-119450475D02*
X147799795Y-119459999D01*
X147799795Y-119459999D02*
X147733128Y-119459999D01*
X147733128Y-119459999D02*
X147695033Y-119450475D01*
X147695033Y-119450475D02*
X147675985Y-119431428D01*
X147675985Y-119431428D02*
X147666461Y-119412380D01*
X147866461Y-119240951D02*
X147666461Y-119240951D01*
X147666461Y-119240951D02*
X147866461Y-119126666D01*
X147866461Y-119126666D02*
X147666461Y-119126666D01*
X147761699Y-119031427D02*
X147761699Y-118964761D01*
X147866461Y-118936189D02*
X147866461Y-119031427D01*
X147866461Y-119031427D02*
X147666461Y-119031427D01*
X147666461Y-119031427D02*
X147666461Y-118936189D01*
X147466461Y-116240952D02*
X147266461Y-116240952D01*
X147266461Y-116240952D02*
X147466461Y-116126667D01*
X147466461Y-116126667D02*
X147266461Y-116126667D01*
X147466461Y-116002857D02*
X147456938Y-116021905D01*
X147456938Y-116021905D02*
X147447414Y-116031428D01*
X147447414Y-116031428D02*
X147428366Y-116040952D01*
X147428366Y-116040952D02*
X147371223Y-116040952D01*
X147371223Y-116040952D02*
X147352176Y-116031428D01*
X147352176Y-116031428D02*
X147342652Y-116021905D01*
X147342652Y-116021905D02*
X147333128Y-116002857D01*
X147333128Y-116002857D02*
X147333128Y-115974286D01*
X147333128Y-115974286D02*
X147342652Y-115955238D01*
X147342652Y-115955238D02*
X147352176Y-115945714D01*
X147352176Y-115945714D02*
X147371223Y-115936190D01*
X147371223Y-115936190D02*
X147428366Y-115936190D01*
X147428366Y-115936190D02*
X147447414Y-115945714D01*
X147447414Y-115945714D02*
X147456938Y-115955238D01*
X147456938Y-115955238D02*
X147466461Y-115974286D01*
X147466461Y-115974286D02*
X147466461Y-116002857D01*
X147361699Y-115631429D02*
X147361699Y-115698095D01*
X147466461Y-115698095D02*
X147266461Y-115698095D01*
X147266461Y-115698095D02*
X147266461Y-115602857D01*
X147447414Y-115526666D02*
X147456938Y-115517143D01*
X147456938Y-115517143D02*
X147466461Y-115526666D01*
X147466461Y-115526666D02*
X147456938Y-115536190D01*
X147456938Y-115536190D02*
X147447414Y-115526666D01*
X147447414Y-115526666D02*
X147466461Y-115526666D01*
X147447414Y-115317143D02*
X147456938Y-115326667D01*
X147456938Y-115326667D02*
X147466461Y-115355238D01*
X147466461Y-115355238D02*
X147466461Y-115374286D01*
X147466461Y-115374286D02*
X147456938Y-115402857D01*
X147456938Y-115402857D02*
X147437890Y-115421905D01*
X147437890Y-115421905D02*
X147418842Y-115431428D01*
X147418842Y-115431428D02*
X147380747Y-115440952D01*
X147380747Y-115440952D02*
X147352176Y-115440952D01*
X147352176Y-115440952D02*
X147314080Y-115431428D01*
X147314080Y-115431428D02*
X147295033Y-115421905D01*
X147295033Y-115421905D02*
X147275985Y-115402857D01*
X147275985Y-115402857D02*
X147266461Y-115374286D01*
X147266461Y-115374286D02*
X147266461Y-115355238D01*
X147266461Y-115355238D02*
X147275985Y-115326667D01*
X147275985Y-115326667D02*
X147285509Y-115317143D01*
X147333128Y-115145714D02*
X147466461Y-115145714D01*
X147333128Y-115231428D02*
X147437890Y-115231428D01*
X147437890Y-115231428D02*
X147456938Y-115221905D01*
X147456938Y-115221905D02*
X147466461Y-115202857D01*
X147466461Y-115202857D02*
X147466461Y-115174286D01*
X147466461Y-115174286D02*
X147456938Y-115155238D01*
X147456938Y-115155238D02*
X147447414Y-115145714D01*
X147333128Y-114926667D02*
X147333128Y-114850476D01*
X147266461Y-114898095D02*
X147437890Y-114898095D01*
X147437890Y-114898095D02*
X147456938Y-114888572D01*
X147456938Y-114888572D02*
X147466461Y-114869524D01*
X147466461Y-114869524D02*
X147466461Y-114850476D01*
X147466461Y-114783809D02*
X147333128Y-114783809D01*
X147371223Y-114783809D02*
X147352176Y-114774286D01*
X147352176Y-114774286D02*
X147342652Y-114764762D01*
X147342652Y-114764762D02*
X147333128Y-114745714D01*
X147333128Y-114745714D02*
X147333128Y-114726667D01*
X147466461Y-114574285D02*
X147361699Y-114574285D01*
X147361699Y-114574285D02*
X147342652Y-114583809D01*
X147342652Y-114583809D02*
X147333128Y-114602857D01*
X147333128Y-114602857D02*
X147333128Y-114640952D01*
X147333128Y-114640952D02*
X147342652Y-114659999D01*
X147456938Y-114574285D02*
X147466461Y-114593333D01*
X147466461Y-114593333D02*
X147466461Y-114640952D01*
X147466461Y-114640952D02*
X147456938Y-114659999D01*
X147456938Y-114659999D02*
X147437890Y-114669523D01*
X147437890Y-114669523D02*
X147418842Y-114669523D01*
X147418842Y-114669523D02*
X147399795Y-114659999D01*
X147399795Y-114659999D02*
X147390271Y-114640952D01*
X147390271Y-114640952D02*
X147390271Y-114593333D01*
X147390271Y-114593333D02*
X147380747Y-114574285D01*
X147456938Y-114393333D02*
X147466461Y-114412381D01*
X147466461Y-114412381D02*
X147466461Y-114450476D01*
X147466461Y-114450476D02*
X147456938Y-114469524D01*
X147456938Y-114469524D02*
X147447414Y-114479047D01*
X147447414Y-114479047D02*
X147428366Y-114488571D01*
X147428366Y-114488571D02*
X147371223Y-114488571D01*
X147371223Y-114488571D02*
X147352176Y-114479047D01*
X147352176Y-114479047D02*
X147342652Y-114469524D01*
X147342652Y-114469524D02*
X147333128Y-114450476D01*
X147333128Y-114450476D02*
X147333128Y-114412381D01*
X147333128Y-114412381D02*
X147342652Y-114393333D01*
X147466461Y-114307618D02*
X147266461Y-114307618D01*
X147390271Y-114288571D02*
X147466461Y-114231428D01*
X147333128Y-114231428D02*
X147409318Y-114307618D01*
X147456938Y-114155237D02*
X147466461Y-114136190D01*
X147466461Y-114136190D02*
X147466461Y-114098094D01*
X147466461Y-114098094D02*
X147456938Y-114079047D01*
X147456938Y-114079047D02*
X147437890Y-114069523D01*
X147437890Y-114069523D02*
X147428366Y-114069523D01*
X147428366Y-114069523D02*
X147409318Y-114079047D01*
X147409318Y-114079047D02*
X147399795Y-114098094D01*
X147399795Y-114098094D02*
X147399795Y-114126666D01*
X147399795Y-114126666D02*
X147390271Y-114145713D01*
X147390271Y-114145713D02*
X147371223Y-114155237D01*
X147371223Y-114155237D02*
X147361699Y-114155237D01*
X147361699Y-114155237D02*
X147342652Y-114145713D01*
X147342652Y-114145713D02*
X147333128Y-114126666D01*
X147333128Y-114126666D02*
X147333128Y-114098094D01*
X147333128Y-114098094D02*
X147342652Y-114079047D01*
X147466461Y-121240952D02*
X147266461Y-121240952D01*
X147266461Y-121240952D02*
X147466461Y-121126667D01*
X147466461Y-121126667D02*
X147266461Y-121126667D01*
X147466461Y-121002857D02*
X147456938Y-121021905D01*
X147456938Y-121021905D02*
X147447414Y-121031428D01*
X147447414Y-121031428D02*
X147428366Y-121040952D01*
X147428366Y-121040952D02*
X147371223Y-121040952D01*
X147371223Y-121040952D02*
X147352176Y-121031428D01*
X147352176Y-121031428D02*
X147342652Y-121021905D01*
X147342652Y-121021905D02*
X147333128Y-121002857D01*
X147333128Y-121002857D02*
X147333128Y-120974286D01*
X147333128Y-120974286D02*
X147342652Y-120955238D01*
X147342652Y-120955238D02*
X147352176Y-120945714D01*
X147352176Y-120945714D02*
X147371223Y-120936190D01*
X147371223Y-120936190D02*
X147428366Y-120936190D01*
X147428366Y-120936190D02*
X147447414Y-120945714D01*
X147447414Y-120945714D02*
X147456938Y-120955238D01*
X147456938Y-120955238D02*
X147466461Y-120974286D01*
X147466461Y-120974286D02*
X147466461Y-121002857D01*
X147361699Y-120631429D02*
X147361699Y-120698095D01*
X147466461Y-120698095D02*
X147266461Y-120698095D01*
X147266461Y-120698095D02*
X147266461Y-120602857D01*
X147447414Y-120526666D02*
X147456938Y-120517143D01*
X147456938Y-120517143D02*
X147466461Y-120526666D01*
X147466461Y-120526666D02*
X147456938Y-120536190D01*
X147456938Y-120536190D02*
X147447414Y-120526666D01*
X147447414Y-120526666D02*
X147466461Y-120526666D01*
X147447414Y-120317143D02*
X147456938Y-120326667D01*
X147456938Y-120326667D02*
X147466461Y-120355238D01*
X147466461Y-120355238D02*
X147466461Y-120374286D01*
X147466461Y-120374286D02*
X147456938Y-120402857D01*
X147456938Y-120402857D02*
X147437890Y-120421905D01*
X147437890Y-120421905D02*
X147418842Y-120431428D01*
X147418842Y-120431428D02*
X147380747Y-120440952D01*
X147380747Y-120440952D02*
X147352176Y-120440952D01*
X147352176Y-120440952D02*
X147314080Y-120431428D01*
X147314080Y-120431428D02*
X147295033Y-120421905D01*
X147295033Y-120421905D02*
X147275985Y-120402857D01*
X147275985Y-120402857D02*
X147266461Y-120374286D01*
X147266461Y-120374286D02*
X147266461Y-120355238D01*
X147266461Y-120355238D02*
X147275985Y-120326667D01*
X147275985Y-120326667D02*
X147285509Y-120317143D01*
X147333128Y-120145714D02*
X147466461Y-120145714D01*
X147333128Y-120231428D02*
X147437890Y-120231428D01*
X147437890Y-120231428D02*
X147456938Y-120221905D01*
X147456938Y-120221905D02*
X147466461Y-120202857D01*
X147466461Y-120202857D02*
X147466461Y-120174286D01*
X147466461Y-120174286D02*
X147456938Y-120155238D01*
X147456938Y-120155238D02*
X147447414Y-120145714D01*
X147333128Y-119926667D02*
X147333128Y-119850476D01*
X147266461Y-119898095D02*
X147437890Y-119898095D01*
X147437890Y-119898095D02*
X147456938Y-119888572D01*
X147456938Y-119888572D02*
X147466461Y-119869524D01*
X147466461Y-119869524D02*
X147466461Y-119850476D01*
X147466461Y-119783809D02*
X147333128Y-119783809D01*
X147371223Y-119783809D02*
X147352176Y-119774286D01*
X147352176Y-119774286D02*
X147342652Y-119764762D01*
X147342652Y-119764762D02*
X147333128Y-119745714D01*
X147333128Y-119745714D02*
X147333128Y-119726667D01*
X147466461Y-119574285D02*
X147361699Y-119574285D01*
X147361699Y-119574285D02*
X147342652Y-119583809D01*
X147342652Y-119583809D02*
X147333128Y-119602857D01*
X147333128Y-119602857D02*
X147333128Y-119640952D01*
X147333128Y-119640952D02*
X147342652Y-119659999D01*
X147456938Y-119574285D02*
X147466461Y-119593333D01*
X147466461Y-119593333D02*
X147466461Y-119640952D01*
X147466461Y-119640952D02*
X147456938Y-119659999D01*
X147456938Y-119659999D02*
X147437890Y-119669523D01*
X147437890Y-119669523D02*
X147418842Y-119669523D01*
X147418842Y-119669523D02*
X147399795Y-119659999D01*
X147399795Y-119659999D02*
X147390271Y-119640952D01*
X147390271Y-119640952D02*
X147390271Y-119593333D01*
X147390271Y-119593333D02*
X147380747Y-119574285D01*
X147456938Y-119393333D02*
X147466461Y-119412381D01*
X147466461Y-119412381D02*
X147466461Y-119450476D01*
X147466461Y-119450476D02*
X147456938Y-119469524D01*
X147456938Y-119469524D02*
X147447414Y-119479047D01*
X147447414Y-119479047D02*
X147428366Y-119488571D01*
X147428366Y-119488571D02*
X147371223Y-119488571D01*
X147371223Y-119488571D02*
X147352176Y-119479047D01*
X147352176Y-119479047D02*
X147342652Y-119469524D01*
X147342652Y-119469524D02*
X147333128Y-119450476D01*
X147333128Y-119450476D02*
X147333128Y-119412381D01*
X147333128Y-119412381D02*
X147342652Y-119393333D01*
X147466461Y-119307618D02*
X147266461Y-119307618D01*
X147390271Y-119288571D02*
X147466461Y-119231428D01*
X147333128Y-119231428D02*
X147409318Y-119307618D01*
X147456938Y-119155237D02*
X147466461Y-119136190D01*
X147466461Y-119136190D02*
X147466461Y-119098094D01*
X147466461Y-119098094D02*
X147456938Y-119079047D01*
X147456938Y-119079047D02*
X147437890Y-119069523D01*
X147437890Y-119069523D02*
X147428366Y-119069523D01*
X147428366Y-119069523D02*
X147409318Y-119079047D01*
X147409318Y-119079047D02*
X147399795Y-119098094D01*
X147399795Y-119098094D02*
X147399795Y-119126666D01*
X147399795Y-119126666D02*
X147390271Y-119145713D01*
X147390271Y-119145713D02*
X147371223Y-119155237D01*
X147371223Y-119155237D02*
X147361699Y-119155237D01*
X147361699Y-119155237D02*
X147342652Y-119145713D01*
X147342652Y-119145713D02*
X147333128Y-119126666D01*
X147333128Y-119126666D02*
X147333128Y-119098094D01*
X147333128Y-119098094D02*
X147342652Y-119079047D01*
X147866461Y-116374284D02*
X147666461Y-116374284D01*
X147866461Y-116259999D02*
X147752176Y-116345713D01*
X147666461Y-116259999D02*
X147780747Y-116374284D01*
X147761699Y-116174284D02*
X147761699Y-116107618D01*
X147866461Y-116079046D02*
X147866461Y-116174284D01*
X147866461Y-116174284D02*
X147666461Y-116174284D01*
X147666461Y-116174284D02*
X147666461Y-116079046D01*
X147761699Y-115993332D02*
X147761699Y-115926666D01*
X147866461Y-115898094D02*
X147866461Y-115993332D01*
X147866461Y-115993332D02*
X147666461Y-115993332D01*
X147666461Y-115993332D02*
X147666461Y-115898094D01*
X147866461Y-115812380D02*
X147666461Y-115812380D01*
X147666461Y-115812380D02*
X147666461Y-115736190D01*
X147666461Y-115736190D02*
X147675985Y-115717142D01*
X147675985Y-115717142D02*
X147685509Y-115707619D01*
X147685509Y-115707619D02*
X147704557Y-115698095D01*
X147704557Y-115698095D02*
X147733128Y-115698095D01*
X147733128Y-115698095D02*
X147752176Y-115707619D01*
X147752176Y-115707619D02*
X147761699Y-115717142D01*
X147761699Y-115717142D02*
X147771223Y-115736190D01*
X147771223Y-115736190D02*
X147771223Y-115812380D01*
X147790271Y-115612380D02*
X147790271Y-115460000D01*
X147666461Y-115326666D02*
X147666461Y-115288571D01*
X147666461Y-115288571D02*
X147675985Y-115269523D01*
X147675985Y-115269523D02*
X147695033Y-115250476D01*
X147695033Y-115250476D02*
X147733128Y-115240952D01*
X147733128Y-115240952D02*
X147799795Y-115240952D01*
X147799795Y-115240952D02*
X147837890Y-115250476D01*
X147837890Y-115250476D02*
X147856938Y-115269523D01*
X147856938Y-115269523D02*
X147866461Y-115288571D01*
X147866461Y-115288571D02*
X147866461Y-115326666D01*
X147866461Y-115326666D02*
X147856938Y-115345714D01*
X147856938Y-115345714D02*
X147837890Y-115364761D01*
X147837890Y-115364761D02*
X147799795Y-115374285D01*
X147799795Y-115374285D02*
X147733128Y-115374285D01*
X147733128Y-115374285D02*
X147695033Y-115364761D01*
X147695033Y-115364761D02*
X147675985Y-115345714D01*
X147675985Y-115345714D02*
X147666461Y-115326666D01*
X147666461Y-115155237D02*
X147828366Y-115155237D01*
X147828366Y-115155237D02*
X147847414Y-115145714D01*
X147847414Y-115145714D02*
X147856938Y-115136190D01*
X147856938Y-115136190D02*
X147866461Y-115117142D01*
X147866461Y-115117142D02*
X147866461Y-115079047D01*
X147866461Y-115079047D02*
X147856938Y-115059999D01*
X147856938Y-115059999D02*
X147847414Y-115050476D01*
X147847414Y-115050476D02*
X147828366Y-115040952D01*
X147828366Y-115040952D02*
X147666461Y-115040952D01*
X147666461Y-114974285D02*
X147666461Y-114859999D01*
X147866461Y-114917142D02*
X147666461Y-114917142D01*
X147666461Y-114659999D02*
X147666461Y-114526666D01*
X147666461Y-114526666D02*
X147866461Y-114659999D01*
X147866461Y-114659999D02*
X147866461Y-114526666D01*
X147666461Y-114412380D02*
X147666461Y-114374285D01*
X147666461Y-114374285D02*
X147675985Y-114355237D01*
X147675985Y-114355237D02*
X147695033Y-114336190D01*
X147695033Y-114336190D02*
X147733128Y-114326666D01*
X147733128Y-114326666D02*
X147799795Y-114326666D01*
X147799795Y-114326666D02*
X147837890Y-114336190D01*
X147837890Y-114336190D02*
X147856938Y-114355237D01*
X147856938Y-114355237D02*
X147866461Y-114374285D01*
X147866461Y-114374285D02*
X147866461Y-114412380D01*
X147866461Y-114412380D02*
X147856938Y-114431428D01*
X147856938Y-114431428D02*
X147837890Y-114450475D01*
X147837890Y-114450475D02*
X147799795Y-114459999D01*
X147799795Y-114459999D02*
X147733128Y-114459999D01*
X147733128Y-114459999D02*
X147695033Y-114450475D01*
X147695033Y-114450475D02*
X147675985Y-114431428D01*
X147675985Y-114431428D02*
X147666461Y-114412380D01*
X147866461Y-114240951D02*
X147666461Y-114240951D01*
X147666461Y-114240951D02*
X147866461Y-114126666D01*
X147866461Y-114126666D02*
X147666461Y-114126666D01*
X147761699Y-114031427D02*
X147761699Y-113964761D01*
X147866461Y-113936189D02*
X147866461Y-114031427D01*
X147866461Y-114031427D02*
X147666461Y-114031427D01*
X147666461Y-114031427D02*
X147666461Y-113936189D01*
D11*
%TO.C,JW1*%
X196500000Y-137800000D02*
G75*
G03*
X196500000Y-137800000I-1300000J0D01*
G01*
%TO.C,JW4*%
X140223677Y-139100000D02*
G75*
G03*
X140223677Y-139100000I-1300000J0D01*
G01*
%TO.C,JW3*%
X192400000Y-139100000D02*
G75*
G03*
X192400000Y-139100000I-1300000J0D01*
G01*
%TO.C,JW2*%
X136500000Y-137800000D02*
G75*
G03*
X136500000Y-137800000I-1300000J0D01*
G01*
%TD*%
M02*
