%TF.GenerationSoftware,KiCad,Pcbnew,7.0.9*%
%TF.CreationDate,2023-12-20T17:33:09-07:00*%
%TF.ProjectId,vb_controller_pcb,76625f63-6f6e-4747-926f-6c6c65725f70,4a*%
%TF.SameCoordinates,Original*%
%TF.FileFunction,Legend,Top*%
%TF.FilePolarity,Positive*%
%FSLAX46Y46*%
G04 Gerber Fmt 4.6, Leading zero omitted, Abs format (unit mm)*
G04 Created by KiCad (PCBNEW 7.0.9) date 2023-12-20 17:33:09*
%MOMM*%
%LPD*%
G01*
G04 APERTURE LIST*
G04 Aperture macros list*
%AMRoundRect*
0 Rectangle with rounded corners*
0 $1 Rounding radius*
0 $2 $3 $4 $5 $6 $7 $8 $9 X,Y pos of 4 corners*
0 Add a 4 corners polygon primitive as box body*
4,1,4,$2,$3,$4,$5,$6,$7,$8,$9,$2,$3,0*
0 Add four circle primitives for the rounded corners*
1,1,$1+$1,$2,$3*
1,1,$1+$1,$4,$5*
1,1,$1+$1,$6,$7*
1,1,$1+$1,$8,$9*
0 Add four rect primitives between the rounded corners*
20,1,$1+$1,$2,$3,$4,$5,0*
20,1,$1+$1,$4,$5,$6,$7,0*
20,1,$1+$1,$6,$7,$8,$9,0*
20,1,$1+$1,$8,$9,$2,$3,0*%
%AMFreePoly0*
4,1,142,1.313367,2.648542,1.321935,2.645906,1.330902,2.645906,1.360764,2.636202,1.366113,2.632314,1.372436,2.630370,1.398126,2.612315,1.403507,2.605146,1.410760,2.599878,1.429217,2.574474,1.431260,2.568181,1.435231,2.562895,1.445403,2.533187,1.445543,2.524222,1.448313,2.515699,1.450800,2.500000,1.450800,-2.500000,1.448313,-2.515699,1.445543,-2.524222,1.445403,-2.533187,
1.435231,-2.562895,1.431260,-2.568181,1.429217,-2.574474,1.410760,-2.599878,1.403507,-2.605146,1.398126,-2.612315,1.372436,-2.630370,1.366113,-2.632314,1.360764,-2.636202,1.330902,-2.645906,1.321935,-2.645906,1.313367,-2.648542,1.297633,-2.650782,1.140502,-2.648315,1.132289,-2.646881,1.123969,-2.647143,0.812184,-2.607756,0.803050,-2.605102,0.793582,-2.604208,0.489192,-2.526054,
0.480466,-2.522278,0.471181,-2.520203,0.178986,-2.404515,0.170798,-2.399672,0.161850,-2.396451,-0.113539,-2.245054,-0.121053,-2.239224,-0.129529,-2.234906,-0.383773,-2.050187,-0.390501,-2.043458,-0.398364,-2.038116,-0.627453,-1.822989,-0.633284,-1.815470,-0.640417,-1.809183,-0.771443,-1.650800,-2.400000,-1.650800,-2.401553,-1.650553,-2.403114,-1.650768,-2.527194,-1.648206,-2.537963,-1.646271,
-2.548901,-1.646181,-2.793679,-1.605335,-2.805516,-1.601379,-2.817824,-1.599222,-3.052541,-1.518644,-3.063573,-1.512789,-3.075349,-1.508638,-3.293601,-1.390526,-3.303516,-1.382939,-3.314451,-1.376904,-3.510286,-1.224479,-3.518813,-1.215367,-3.528610,-1.207612,-3.696686,-1.025032,-3.703600,-1.014637,-3.711984,-1.005378,-3.847716,-0.797625,-3.852828,-0.786226,-3.859569,-0.775721,-3.959255,-0.548460,
-3.962418,-0.536385,-3.967343,-0.524904,-4.028263,-0.284334,-4.029396,-0.271894,-4.032361,-0.259769,-4.052855,-0.012453,-4.051926,0.000000,-4.052855,0.012453,-4.032361,0.259769,-4.029396,0.271894,-4.028263,0.284334,-3.967343,0.524904,-3.962418,0.536385,-3.959255,0.548460,-3.859569,0.775721,-3.852828,0.786226,-3.847716,0.797625,-3.711984,1.005378,-3.703600,1.014637,-3.696686,1.025032,
-3.528610,1.207612,-3.518813,1.215367,-3.510286,1.224479,-3.314451,1.376904,-3.303516,1.382939,-3.293601,1.390526,-3.075349,1.508638,-3.063573,1.512789,-3.052541,1.518644,-2.817824,1.599222,-2.805516,1.601379,-2.793679,1.605335,-2.548901,1.646181,-2.537963,1.646271,-2.527194,1.648206,-2.403114,1.650768,-2.401553,1.650553,-2.400000,1.650800,-0.771443,1.650800,-0.640417,1.809183,
-0.633284,1.815470,-0.627453,1.822989,-0.398364,2.038116,-0.390501,2.043458,-0.383773,2.050187,-0.129529,2.234906,-0.121053,2.239224,-0.113539,2.245054,0.161850,2.396451,0.170798,2.399672,0.178986,2.404515,0.471181,2.520203,0.480466,2.522278,0.489192,2.526054,0.793582,2.604208,0.803050,2.605102,0.812184,2.607756,1.123969,2.647143,1.132289,2.646881,1.140502,2.648315,
1.297633,2.650782,1.313367,2.648542,1.313367,2.648542,$1*%
%AMFreePoly1*
4,1,142,-1.140503,2.648315,-1.132291,2.646881,-1.123969,2.647143,-0.812184,2.607756,-0.803050,2.605102,-0.793582,2.604208,-0.489192,2.526054,-0.480466,2.522278,-0.471181,2.520203,-0.178985,2.404515,-0.170795,2.399671,-0.161851,2.396451,0.113539,2.245054,0.121053,2.239225,0.129530,2.234907,0.383773,2.050187,0.390497,2.043461,0.398365,2.038116,0.627453,1.822989,0.633286,1.815467,
0.640416,1.809183,0.771442,1.650800,2.400000,1.650800,2.401553,1.650553,2.403113,1.650768,2.527194,1.648206,2.537963,1.646271,2.548901,1.646181,2.793680,1.605335,2.805518,1.601379,2.817824,1.599222,3.052541,1.518644,3.063573,1.512789,3.075349,1.508638,3.293601,1.390526,3.303516,1.382939,3.314451,1.376904,3.510287,1.224479,3.518822,1.215359,3.528610,1.207611,
3.696687,1.025032,3.703604,1.014632,3.711984,1.005378,3.847715,0.797625,3.852824,0.786232,3.859569,0.775721,3.959255,0.548460,3.962419,0.536380,3.967343,0.524903,4.028263,0.284334,4.029396,0.271894,4.032361,0.259768,4.052855,0.012453,4.051926,0.000000,4.052855,-0.012453,4.032361,-0.259768,4.029396,-0.271894,4.028263,-0.284334,3.967343,-0.524903,3.962419,-0.536380,
3.959255,-0.548460,3.859569,-0.775721,3.852824,-0.786232,3.847715,-0.797625,3.711984,-1.005378,3.703604,-1.014632,3.696687,-1.025032,3.528610,-1.207611,3.518822,-1.215359,3.510287,-1.224479,3.314451,-1.376904,3.303516,-1.382939,3.293601,-1.390526,3.075349,-1.508638,3.063573,-1.512789,3.052541,-1.518644,2.817824,-1.599222,2.805518,-1.601379,2.793680,-1.605335,2.548901,-1.646181,
2.537963,-1.646271,2.527194,-1.648206,2.403113,-1.650768,2.401553,-1.650553,2.400000,-1.650800,0.771442,-1.650800,0.640416,-1.809183,0.633286,-1.815467,0.627453,-1.822989,0.398365,-2.038116,0.390497,-2.043461,0.383773,-2.050187,0.129530,-2.234907,0.121053,-2.239225,0.113539,-2.245054,-0.161851,-2.396451,-0.170795,-2.399671,-0.178985,-2.404515,-0.471181,-2.520203,-0.480466,-2.522278,
-0.489192,-2.526054,-0.793582,-2.604208,-0.803050,-2.605102,-0.812184,-2.607756,-1.123969,-2.647143,-1.132291,-2.646881,-1.140503,-2.648315,-1.297633,-2.650782,-1.313367,-2.648542,-1.321935,-2.645906,-1.330902,-2.645906,-1.360762,-2.636204,-1.366115,-2.632314,-1.372439,-2.630369,-1.398128,-2.612314,-1.403509,-2.605145,-1.410760,-2.599878,-1.429216,-2.574475,-1.431260,-2.568182,-1.435232,-2.562893,
-1.445403,-2.533187,-1.445543,-2.524222,-1.448313,-2.515699,-1.450800,-2.500000,-1.450800,2.500000,-1.448313,2.515699,-1.445543,2.524222,-1.445403,2.533187,-1.435232,2.562893,-1.431260,2.568182,-1.429216,2.574475,-1.410760,2.599878,-1.403509,2.605145,-1.398128,2.612314,-1.372439,2.630369,-1.366115,2.632314,-1.360762,2.636204,-1.330902,2.645906,-1.321935,2.645906,-1.313367,2.648542,
-1.297633,2.650782,-1.140503,2.648315,-1.140503,2.648315,$1*%
G04 Aperture macros list end*
%ADD10C,0.150000*%
%ADD11C,0.120000*%
%ADD12C,0.300000*%
%ADD13C,0.127000*%
%ADD14C,0.200000*%
%ADD15C,0.010000*%
%ADD16RoundRect,0.050800X-1.000000X-0.750000X1.000000X-0.750000X1.000000X0.750000X-1.000000X0.750000X0*%
%ADD17RoundRect,0.050800X-1.000000X-1.900000X1.000000X-1.900000X1.000000X1.900000X-1.000000X1.900000X0*%
%ADD18C,2.301600*%
%ADD19RoundRect,0.190800X-0.170000X0.140000X-0.170000X-0.140000X0.170000X-0.140000X0.170000X0.140000X0*%
%ADD20RoundRect,0.190800X0.140000X0.170000X-0.140000X0.170000X-0.140000X-0.170000X0.140000X-0.170000X0*%
%ADD21RoundRect,0.050800X-0.550000X0.900000X-0.550000X-0.900000X0.550000X-0.900000X0.550000X0.900000X0*%
%ADD22O,0.301600X0.801600*%
%ADD23RoundRect,0.050800X-0.153210X0.146720X-0.146720X-0.153210X0.153210X-0.146720X0.146720X0.153210X0*%
%ADD24RoundRect,0.050800X-0.135655X0.163088X-0.163088X-0.135655X0.135655X-0.163088X0.163088X0.135655X0*%
%ADD25RoundRect,0.050800X-0.168803X0.128473X-0.128473X-0.168803X0.168803X-0.128473X0.128473X0.168803X0*%
%ADD26RoundRect,0.050800X-0.116363X0.177369X-0.177369X-0.116363X0.116363X-0.177369X0.177369X0.116363X0*%
%ADD27RoundRect,0.050800X-0.182236X0.108582X-0.108582X-0.182236X0.182236X-0.108582X0.108582X0.182236X0*%
%ADD28RoundRect,0.050800X-0.095582X0.189378X-0.189378X-0.095582X0.095582X-0.189378X0.189378X0.095582X0*%
%ADD29RoundRect,0.050800X-0.193336X0.087300X-0.087300X-0.193336X0.193336X-0.087300X0.087300X0.193336X0*%
%ADD30RoundRect,0.050800X-0.073576X0.198964X-0.198964X-0.073576X0.073576X-0.198964X0.198964X0.073576X0*%
%ADD31RoundRect,0.050800X-0.201960X0.064901X-0.064901X-0.201960X0.201960X-0.064901X0.064901X0.201960X0*%
%ADD32RoundRect,0.050800X-0.050629X0.206002X-0.206002X-0.050629X0.050629X-0.206002X0.206002X0.050629X0*%
%ADD33RoundRect,0.050800X-0.207999X0.041671X-0.041671X-0.207999X0.207999X-0.041671X0.041671X0.207999X0*%
%ADD34RoundRect,0.050800X-0.027034X0.210402X-0.210402X-0.027034X0.027034X-0.210402X0.210402X0.027034X0*%
%ADD35RoundRect,0.050800X-0.211375X0.017908X-0.017908X-0.211375X0.211375X-0.017908X0.017908X0.211375X0*%
%ADD36RoundRect,0.050800X-0.003093X0.212109X-0.212109X-0.003093X0.003093X-0.212109X0.212109X0.003093X0*%
%ADD37RoundRect,0.050800X-0.212045X-0.006085X0.006085X-0.212045X0.212045X0.006085X-0.006085X0.212045X0*%
%ADD38RoundRect,0.050800X0.020888X0.211101X-0.211101X0.020888X-0.020888X-0.211101X0.211101X-0.020888X0*%
%ADD39RoundRect,0.050800X-0.210000X-0.030000X0.030000X-0.210000X0.210000X0.030000X-0.030000X0.210000X0*%
%ADD40RoundRect,0.050800X0.044602X0.207390X-0.207390X0.044602X-0.044602X-0.207390X0.207390X-0.044602X0*%
%ADD41RoundRect,0.050800X0.060754X0.203246X-0.203246X0.060754X-0.060754X-0.203246X0.203246X-0.060754X0*%
%ADD42O,0.401600X1.289034*%
%ADD43O,0.401600X3.479009*%
%ADD44O,0.401600X4.069223*%
%ADD45O,0.401600X4.608059*%
%ADD46O,0.401600X4.535632*%
%ADD47O,0.401600X4.270727*%
%ADD48O,0.401600X3.039444*%
%ADD49O,0.401600X1.601600*%
%ADD50RoundRect,0.050800X0.203246X0.060754X-0.060754X0.203246X-0.203246X-0.060754X0.060754X-0.203246X0*%
%ADD51RoundRect,0.050800X0.208808X0.037405X-0.037405X0.208808X-0.208808X-0.037405X0.037405X-0.208808X0*%
%ADD52RoundRect,0.050800X-0.030000X-0.210000X0.210000X-0.030000X0.030000X0.210000X-0.210000X0.030000X0*%
%ADD53RoundRect,0.050800X0.211697X0.013578X-0.013578X0.211697X-0.211697X-0.013578X0.013578X-0.211697X0*%
%ADD54RoundRect,0.050800X-0.013412X-0.211708X0.211708X-0.013412X0.013412X0.211708X-0.211708X0.013412X0*%
%ADD55RoundRect,0.050800X0.211876X-0.010424X0.010424X0.211876X-0.211876X0.010424X-0.010424X-0.211876X0*%
%ADD56RoundRect,0.050800X0.010589X-0.211868X0.211868X0.010589X-0.010589X0.211868X-0.211868X-0.010589X0*%
%ADD57RoundRect,0.050800X0.209342X-0.034292X0.034292X0.209342X-0.209342X0.034292X-0.034292X-0.209342X0*%
%ADD58RoundRect,0.050800X0.034455X-0.209315X0.209315X0.034455X-0.034455X0.209315X-0.209315X-0.034455X0*%
%ADD59RoundRect,0.050800X0.204128X-0.057721X0.057721X0.204128X-0.204128X0.057721X-0.057721X-0.204128X0*%
%ADD60RoundRect,0.050800X0.057880X-0.204083X0.204083X0.057880X-0.057880X0.204083X-0.204083X-0.057880X0*%
%ADD61RoundRect,0.050800X0.196301X-0.080411X0.080411X0.196301X-0.196301X0.080411X-0.080411X-0.196301X0*%
%ADD62RoundRect,0.050800X0.080564X-0.196238X0.196238X0.080564X-0.080564X0.196238X-0.196238X-0.080564X0*%
%ADD63RoundRect,0.050800X0.185961X-0.102072X0.102072X0.185961X-0.185961X0.102072X-0.102072X-0.185961X0*%
%ADD64RoundRect,0.050800X0.102217X-0.185881X0.185881X0.102217X-0.102217X0.185881X-0.185881X-0.102217X0*%
%ADD65RoundRect,0.050800X0.173240X-0.122425X0.122425X0.173240X-0.173240X0.122425X-0.122425X-0.173240X0*%
%ADD66RoundRect,0.050800X0.122561X-0.173144X0.173144X0.122561X-0.122561X0.173144X-0.173144X-0.122561X0*%
%ADD67RoundRect,0.050800X0.158301X-0.141212X0.141212X0.158301X-0.158301X0.141212X-0.141212X-0.158301X0*%
%ADD68RoundRect,0.050800X0.141336X-0.158191X0.158191X0.141336X-0.141336X0.158191X-0.158191X-0.141336X0*%
%ADD69FreePoly0,0.000000*%
%ADD70FreePoly1,0.000000*%
%ADD71FreePoly0,90.000000*%
%ADD72FreePoly1,90.000000*%
%ADD73RoundRect,0.050800X0.146720X0.153210X-0.153210X0.146720X-0.146720X-0.153210X0.153210X-0.146720X0*%
%ADD74RoundRect,0.050800X0.163088X0.135655X-0.135655X0.163088X-0.163088X-0.135655X0.135655X-0.163088X0*%
%ADD75RoundRect,0.050800X0.128473X0.168803X-0.168803X0.128473X-0.128473X-0.168803X0.168803X-0.128473X0*%
%ADD76RoundRect,0.050800X0.177369X0.116363X-0.116363X0.177369X-0.177369X-0.116363X0.116363X-0.177369X0*%
%ADD77RoundRect,0.050800X0.108582X0.182236X-0.182236X0.108582X-0.108582X-0.182236X0.182236X-0.108582X0*%
%ADD78RoundRect,0.050800X0.189378X0.095582X-0.095582X0.189378X-0.189378X-0.095582X0.095582X-0.189378X0*%
%ADD79RoundRect,0.050800X0.087300X0.193336X-0.193336X0.087300X-0.087300X-0.193336X0.193336X-0.087300X0*%
%ADD80RoundRect,0.050800X0.198964X0.073576X-0.073576X0.198964X-0.198964X-0.073576X0.073576X-0.198964X0*%
%ADD81RoundRect,0.050800X0.064901X0.201960X-0.201960X0.064901X-0.064901X-0.201960X0.201960X-0.064901X0*%
%ADD82RoundRect,0.050800X0.206002X0.050629X-0.050629X0.206002X-0.206002X-0.050629X0.050629X-0.206002X0*%
%ADD83RoundRect,0.050800X0.041671X0.207999X-0.207999X0.041671X-0.041671X-0.207999X0.207999X-0.041671X0*%
%ADD84RoundRect,0.050800X0.210402X0.027034X-0.027034X0.210402X-0.210402X-0.027034X0.027034X-0.210402X0*%
%ADD85RoundRect,0.050800X0.017908X0.211375X-0.211375X0.017908X-0.017908X-0.211375X0.211375X-0.017908X0*%
%ADD86RoundRect,0.050800X0.212109X0.003093X-0.003093X0.212109X-0.212109X-0.003093X0.003093X-0.212109X0*%
%ADD87RoundRect,0.050800X-0.006085X0.212045X-0.212045X-0.006085X0.006085X-0.212045X0.212045X0.006085X0*%
%ADD88RoundRect,0.050800X0.211101X-0.020888X0.020888X0.211101X-0.211101X0.020888X-0.020888X-0.211101X0*%
%ADD89RoundRect,0.050800X-0.030000X0.210000X-0.210000X-0.030000X0.030000X-0.210000X0.210000X0.030000X0*%
%ADD90RoundRect,0.050800X0.207390X-0.044602X0.044602X0.207390X-0.207390X0.044602X-0.044602X-0.207390X0*%
%ADD91RoundRect,0.050800X0.203246X-0.060754X0.060754X0.203246X-0.203246X0.060754X-0.060754X-0.203246X0*%
%ADD92O,1.289034X0.401600*%
%ADD93O,3.479009X0.401600*%
%ADD94O,4.069223X0.401600*%
%ADD95O,4.608059X0.401600*%
%ADD96O,4.535632X0.401600*%
%ADD97O,4.270727X0.401600*%
%ADD98O,3.039444X0.401600*%
%ADD99O,1.601600X0.401600*%
%ADD100RoundRect,0.050800X0.060754X-0.203246X0.203246X0.060754X-0.060754X0.203246X-0.203246X-0.060754X0*%
%ADD101RoundRect,0.050800X0.037405X-0.208808X0.208808X0.037405X-0.037405X0.208808X-0.208808X-0.037405X0*%
%ADD102RoundRect,0.050800X-0.210000X0.030000X-0.030000X-0.210000X0.210000X-0.030000X0.030000X0.210000X0*%
%ADD103RoundRect,0.050800X0.013578X-0.211697X0.211697X0.013578X-0.013578X0.211697X-0.211697X-0.013578X0*%
%ADD104RoundRect,0.050800X-0.211708X0.013412X-0.013412X-0.211708X0.211708X-0.013412X0.013412X0.211708X0*%
%ADD105RoundRect,0.050800X-0.010424X-0.211876X0.211876X-0.010424X0.010424X0.211876X-0.211876X0.010424X0*%
%ADD106RoundRect,0.050800X-0.211868X-0.010589X0.010589X-0.211868X0.211868X0.010589X-0.010589X0.211868X0*%
%ADD107RoundRect,0.050800X-0.034292X-0.209342X0.209342X-0.034292X0.034292X0.209342X-0.209342X0.034292X0*%
%ADD108RoundRect,0.050800X-0.209315X-0.034455X0.034455X-0.209315X0.209315X0.034455X-0.034455X0.209315X0*%
%ADD109RoundRect,0.050800X-0.057721X-0.204128X0.204128X-0.057721X0.057721X0.204128X-0.204128X0.057721X0*%
%ADD110RoundRect,0.050800X-0.204083X-0.057880X0.057880X-0.204083X0.204083X0.057880X-0.057880X0.204083X0*%
%ADD111RoundRect,0.050800X-0.080411X-0.196301X0.196301X-0.080411X0.080411X0.196301X-0.196301X0.080411X0*%
%ADD112RoundRect,0.050800X-0.196238X-0.080564X0.080564X-0.196238X0.196238X0.080564X-0.080564X0.196238X0*%
%ADD113RoundRect,0.050800X-0.102072X-0.185961X0.185961X-0.102072X0.102072X0.185961X-0.185961X0.102072X0*%
%ADD114RoundRect,0.050800X-0.185881X-0.102217X0.102217X-0.185881X0.185881X0.102217X-0.102217X0.185881X0*%
%ADD115RoundRect,0.050800X-0.122425X-0.173240X0.173240X-0.122425X0.122425X0.173240X-0.173240X0.122425X0*%
%ADD116RoundRect,0.050800X-0.173144X-0.122561X0.122561X-0.173144X0.173144X0.122561X-0.122561X0.173144X0*%
%ADD117RoundRect,0.050800X-0.141212X-0.158301X0.158301X-0.141212X0.141212X0.158301X-0.158301X0.141212X0*%
%ADD118RoundRect,0.050800X-0.158191X-0.141336X0.141336X-0.158191X0.158191X0.141336X-0.141336X0.158191X0*%
%ADD119RoundRect,0.185800X0.135000X0.185000X-0.135000X0.185000X-0.135000X-0.185000X0.135000X-0.185000X0*%
%ADD120RoundRect,0.185800X0.185000X-0.135000X0.185000X0.135000X-0.185000X0.135000X-0.185000X-0.135000X0*%
%ADD121RoundRect,0.190800X0.170000X-0.140000X0.170000X0.140000X-0.170000X0.140000X-0.170000X-0.140000X0*%
%ADD122RoundRect,0.190800X-0.140000X-0.170000X0.140000X-0.170000X0.140000X0.170000X-0.140000X0.170000X0*%
%ADD123O,0.801600X0.301600*%
%ADD124RoundRect,0.269550X0.218750X0.256250X-0.218750X0.256250X-0.218750X-0.256250X0.218750X-0.256250X0*%
%ADD125RoundRect,0.050800X0.153210X-0.146720X0.146720X0.153210X-0.153210X0.146720X-0.146720X-0.153210X0*%
%ADD126RoundRect,0.050800X0.135655X-0.163088X0.163088X0.135655X-0.135655X0.163088X-0.163088X-0.135655X0*%
%ADD127RoundRect,0.050800X0.168803X-0.128473X0.128473X0.168803X-0.168803X0.128473X-0.128473X-0.168803X0*%
%ADD128RoundRect,0.050800X0.116363X-0.177369X0.177369X0.116363X-0.116363X0.177369X-0.177369X-0.116363X0*%
%ADD129RoundRect,0.050800X0.182236X-0.108582X0.108582X0.182236X-0.182236X0.108582X-0.108582X-0.182236X0*%
%ADD130RoundRect,0.050800X0.095582X-0.189378X0.189378X0.095582X-0.095582X0.189378X-0.189378X-0.095582X0*%
%ADD131RoundRect,0.050800X0.193336X-0.087300X0.087300X0.193336X-0.193336X0.087300X-0.087300X-0.193336X0*%
%ADD132RoundRect,0.050800X0.073576X-0.198964X0.198964X0.073576X-0.073576X0.198964X-0.198964X-0.073576X0*%
%ADD133RoundRect,0.050800X0.201960X-0.064901X0.064901X0.201960X-0.201960X0.064901X-0.064901X-0.201960X0*%
%ADD134RoundRect,0.050800X0.050629X-0.206002X0.206002X0.050629X-0.050629X0.206002X-0.206002X-0.050629X0*%
%ADD135RoundRect,0.050800X0.207999X-0.041671X0.041671X0.207999X-0.207999X0.041671X-0.041671X-0.207999X0*%
%ADD136RoundRect,0.050800X0.027034X-0.210402X0.210402X0.027034X-0.027034X0.210402X-0.210402X-0.027034X0*%
%ADD137RoundRect,0.050800X0.211375X-0.017908X0.017908X0.211375X-0.211375X0.017908X-0.017908X-0.211375X0*%
%ADD138RoundRect,0.050800X0.003093X-0.212109X0.212109X0.003093X-0.003093X0.212109X-0.212109X-0.003093X0*%
%ADD139RoundRect,0.050800X0.212045X0.006085X-0.006085X0.212045X-0.212045X-0.006085X0.006085X-0.212045X0*%
%ADD140RoundRect,0.050800X-0.020888X-0.211101X0.211101X-0.020888X0.020888X0.211101X-0.211101X0.020888X0*%
%ADD141RoundRect,0.050800X0.210000X0.030000X-0.030000X0.210000X-0.210000X-0.030000X0.030000X-0.210000X0*%
%ADD142RoundRect,0.050800X-0.044602X-0.207390X0.207390X-0.044602X0.044602X0.207390X-0.207390X0.044602X0*%
%ADD143RoundRect,0.050800X-0.060754X-0.203246X0.203246X-0.060754X0.060754X0.203246X-0.203246X0.060754X0*%
%ADD144RoundRect,0.050800X-0.203246X-0.060754X0.060754X-0.203246X0.203246X0.060754X-0.060754X0.203246X0*%
%ADD145RoundRect,0.050800X-0.208808X-0.037405X0.037405X-0.208808X0.208808X0.037405X-0.037405X0.208808X0*%
%ADD146RoundRect,0.050800X0.030000X0.210000X-0.210000X0.030000X-0.030000X-0.210000X0.210000X-0.030000X0*%
%ADD147RoundRect,0.050800X-0.211697X-0.013578X0.013578X-0.211697X0.211697X0.013578X-0.013578X0.211697X0*%
%ADD148RoundRect,0.050800X0.013412X0.211708X-0.211708X0.013412X-0.013412X-0.211708X0.211708X-0.013412X0*%
%ADD149RoundRect,0.050800X-0.211876X0.010424X-0.010424X-0.211876X0.211876X-0.010424X0.010424X0.211876X0*%
%ADD150RoundRect,0.050800X-0.010589X0.211868X-0.211868X-0.010589X0.010589X-0.211868X0.211868X0.010589X0*%
%ADD151RoundRect,0.050800X-0.209342X0.034292X-0.034292X-0.209342X0.209342X-0.034292X0.034292X0.209342X0*%
%ADD152RoundRect,0.050800X-0.034455X0.209315X-0.209315X-0.034455X0.034455X-0.209315X0.209315X0.034455X0*%
%ADD153RoundRect,0.050800X-0.204128X0.057721X-0.057721X-0.204128X0.204128X-0.057721X0.057721X0.204128X0*%
%ADD154RoundRect,0.050800X-0.057880X0.204083X-0.204083X-0.057880X0.057880X-0.204083X0.204083X0.057880X0*%
%ADD155RoundRect,0.050800X-0.196301X0.080411X-0.080411X-0.196301X0.196301X-0.080411X0.080411X0.196301X0*%
%ADD156RoundRect,0.050800X-0.080564X0.196238X-0.196238X-0.080564X0.080564X-0.196238X0.196238X0.080564X0*%
%ADD157RoundRect,0.050800X-0.185961X0.102072X-0.102072X-0.185961X0.185961X-0.102072X0.102072X0.185961X0*%
%ADD158RoundRect,0.050800X-0.102217X0.185881X-0.185881X-0.102217X0.102217X-0.185881X0.185881X0.102217X0*%
%ADD159RoundRect,0.050800X-0.173240X0.122425X-0.122425X-0.173240X0.173240X-0.122425X0.122425X0.173240X0*%
%ADD160RoundRect,0.050800X-0.122561X0.173144X-0.173144X-0.122561X0.122561X-0.173144X0.173144X0.122561X0*%
%ADD161RoundRect,0.050800X-0.158301X0.141212X-0.141212X-0.158301X0.158301X-0.141212X0.141212X0.158301X0*%
%ADD162RoundRect,0.050800X-0.141336X0.158191X-0.158191X-0.141336X0.141336X-0.158191X0.158191X0.141336X0*%
%ADD163RoundRect,0.050800X-0.325000X-0.200000X0.325000X-0.200000X0.325000X0.200000X-0.325000X0.200000X0*%
%ADD164RoundRect,0.185800X-0.135000X-0.185000X0.135000X-0.185000X0.135000X0.185000X-0.135000X0.185000X0*%
%ADD165RoundRect,0.050800X-0.290000X0.805000X-0.290000X-0.805000X0.290000X-0.805000X0.290000X0.805000X0*%
%ADD166RoundRect,0.125800X-0.075000X0.225000X-0.075000X-0.225000X0.075000X-0.225000X0.075000X0.225000X0*%
%ADD167RoundRect,0.100800X-0.700000X0.050000X-0.700000X-0.050000X0.700000X-0.050000X0.700000X0.050000X0*%
%ADD168RoundRect,0.050800X-0.700000X-0.575000X0.700000X-0.575000X0.700000X0.575000X-0.700000X0.575000X0*%
%ADD169RoundRect,0.100800X-0.050000X0.387500X-0.050000X-0.387500X0.050000X-0.387500X0.050000X0.387500X0*%
%ADD170RoundRect,0.100800X-0.387500X0.050000X-0.387500X-0.050000X0.387500X-0.050000X0.387500X0.050000X0*%
%ADD171RoundRect,0.194800X-1.456000X1.456000X-1.456000X-1.456000X1.456000X-1.456000X1.456000X1.456000X0*%
%ADD172RoundRect,0.300800X-0.350000X-0.625000X0.350000X-0.625000X0.350000X0.625000X-0.350000X0.625000X0*%
%ADD173O,1.301600X1.851600*%
G04 APERTURE END LIST*
D10*
X146169048Y-110469819D02*
X146407143Y-111469819D01*
X146407143Y-111469819D02*
X146597619Y-110755533D01*
X146597619Y-110755533D02*
X146788095Y-111469819D01*
X146788095Y-111469819D02*
X147026191Y-110469819D01*
X147407143Y-110946009D02*
X147740476Y-110946009D01*
X147883333Y-111469819D02*
X147407143Y-111469819D01*
X147407143Y-111469819D02*
X147407143Y-110469819D01*
X147407143Y-110469819D02*
X147883333Y-110469819D01*
X148645238Y-110946009D02*
X148788095Y-110993628D01*
X148788095Y-110993628D02*
X148835714Y-111041247D01*
X148835714Y-111041247D02*
X148883333Y-111136485D01*
X148883333Y-111136485D02*
X148883333Y-111279342D01*
X148883333Y-111279342D02*
X148835714Y-111374580D01*
X148835714Y-111374580D02*
X148788095Y-111422200D01*
X148788095Y-111422200D02*
X148692857Y-111469819D01*
X148692857Y-111469819D02*
X148311905Y-111469819D01*
X148311905Y-111469819D02*
X148311905Y-110469819D01*
X148311905Y-110469819D02*
X148645238Y-110469819D01*
X148645238Y-110469819D02*
X148740476Y-110517438D01*
X148740476Y-110517438D02*
X148788095Y-110565057D01*
X148788095Y-110565057D02*
X148835714Y-110660295D01*
X148835714Y-110660295D02*
X148835714Y-110755533D01*
X148835714Y-110755533D02*
X148788095Y-110850771D01*
X148788095Y-110850771D02*
X148740476Y-110898390D01*
X148740476Y-110898390D02*
X148645238Y-110946009D01*
X148645238Y-110946009D02*
X148311905Y-110946009D01*
X145645238Y-112984580D02*
X145597619Y-113032200D01*
X145597619Y-113032200D02*
X145454762Y-113079819D01*
X145454762Y-113079819D02*
X145359524Y-113079819D01*
X145359524Y-113079819D02*
X145216667Y-113032200D01*
X145216667Y-113032200D02*
X145121429Y-112936961D01*
X145121429Y-112936961D02*
X145073810Y-112841723D01*
X145073810Y-112841723D02*
X145026191Y-112651247D01*
X145026191Y-112651247D02*
X145026191Y-112508390D01*
X145026191Y-112508390D02*
X145073810Y-112317914D01*
X145073810Y-112317914D02*
X145121429Y-112222676D01*
X145121429Y-112222676D02*
X145216667Y-112127438D01*
X145216667Y-112127438D02*
X145359524Y-112079819D01*
X145359524Y-112079819D02*
X145454762Y-112079819D01*
X145454762Y-112079819D02*
X145597619Y-112127438D01*
X145597619Y-112127438D02*
X145645238Y-112175057D01*
X146264286Y-112079819D02*
X146454762Y-112079819D01*
X146454762Y-112079819D02*
X146550000Y-112127438D01*
X146550000Y-112127438D02*
X146645238Y-112222676D01*
X146645238Y-112222676D02*
X146692857Y-112413152D01*
X146692857Y-112413152D02*
X146692857Y-112746485D01*
X146692857Y-112746485D02*
X146645238Y-112936961D01*
X146645238Y-112936961D02*
X146550000Y-113032200D01*
X146550000Y-113032200D02*
X146454762Y-113079819D01*
X146454762Y-113079819D02*
X146264286Y-113079819D01*
X146264286Y-113079819D02*
X146169048Y-113032200D01*
X146169048Y-113032200D02*
X146073810Y-112936961D01*
X146073810Y-112936961D02*
X146026191Y-112746485D01*
X146026191Y-112746485D02*
X146026191Y-112413152D01*
X146026191Y-112413152D02*
X146073810Y-112222676D01*
X146073810Y-112222676D02*
X146169048Y-112127438D01*
X146169048Y-112127438D02*
X146264286Y-112079819D01*
X147121429Y-113079819D02*
X147121429Y-112079819D01*
X147121429Y-112079819D02*
X147692857Y-113079819D01*
X147692857Y-113079819D02*
X147692857Y-112079819D01*
X148502381Y-112556009D02*
X148169048Y-112556009D01*
X148169048Y-113079819D02*
X148169048Y-112079819D01*
X148169048Y-112079819D02*
X148645238Y-112079819D01*
X149026191Y-113079819D02*
X149026191Y-112079819D01*
X150026190Y-112127438D02*
X149930952Y-112079819D01*
X149930952Y-112079819D02*
X149788095Y-112079819D01*
X149788095Y-112079819D02*
X149645238Y-112127438D01*
X149645238Y-112127438D02*
X149550000Y-112222676D01*
X149550000Y-112222676D02*
X149502381Y-112317914D01*
X149502381Y-112317914D02*
X149454762Y-112508390D01*
X149454762Y-112508390D02*
X149454762Y-112651247D01*
X149454762Y-112651247D02*
X149502381Y-112841723D01*
X149502381Y-112841723D02*
X149550000Y-112936961D01*
X149550000Y-112936961D02*
X149645238Y-113032200D01*
X149645238Y-113032200D02*
X149788095Y-113079819D01*
X149788095Y-113079819D02*
X149883333Y-113079819D01*
X149883333Y-113079819D02*
X150026190Y-113032200D01*
X150026190Y-113032200D02*
X150073809Y-112984580D01*
X150073809Y-112984580D02*
X150073809Y-112651247D01*
X150073809Y-112651247D02*
X149883333Y-112651247D01*
X144550475Y-123074295D02*
X144093332Y-123074295D01*
X144321904Y-123074295D02*
X144321904Y-122274295D01*
X144321904Y-122274295D02*
X144245713Y-122388580D01*
X144245713Y-122388580D02*
X144169523Y-122464771D01*
X144169523Y-122464771D02*
X144093332Y-122502866D01*
X144931428Y-123074295D02*
X145083809Y-123074295D01*
X145083809Y-123074295D02*
X145159999Y-123036200D01*
X145159999Y-123036200D02*
X145198095Y-122998104D01*
X145198095Y-122998104D02*
X145274285Y-122883819D01*
X145274285Y-122883819D02*
X145312380Y-122731438D01*
X145312380Y-122731438D02*
X145312380Y-122426676D01*
X145312380Y-122426676D02*
X145274285Y-122350485D01*
X145274285Y-122350485D02*
X145236190Y-122312390D01*
X145236190Y-122312390D02*
X145159999Y-122274295D01*
X145159999Y-122274295D02*
X145007618Y-122274295D01*
X145007618Y-122274295D02*
X144931428Y-122312390D01*
X144931428Y-122312390D02*
X144893333Y-122350485D01*
X144893333Y-122350485D02*
X144855237Y-122426676D01*
X144855237Y-122426676D02*
X144855237Y-122617152D01*
X144855237Y-122617152D02*
X144893333Y-122693342D01*
X144893333Y-122693342D02*
X144931428Y-122731438D01*
X144931428Y-122731438D02*
X145007618Y-122769533D01*
X145007618Y-122769533D02*
X145159999Y-122769533D01*
X145159999Y-122769533D02*
X145236190Y-122731438D01*
X145236190Y-122731438D02*
X145274285Y-122693342D01*
X145274285Y-122693342D02*
X145312380Y-122617152D01*
X145617142Y-122350485D02*
X145655238Y-122312390D01*
X145655238Y-122312390D02*
X145731428Y-122274295D01*
X145731428Y-122274295D02*
X145921904Y-122274295D01*
X145921904Y-122274295D02*
X145998095Y-122312390D01*
X145998095Y-122312390D02*
X146036190Y-122350485D01*
X146036190Y-122350485D02*
X146074285Y-122426676D01*
X146074285Y-122426676D02*
X146074285Y-122502866D01*
X146074285Y-122502866D02*
X146036190Y-122617152D01*
X146036190Y-122617152D02*
X145579047Y-123074295D01*
X145579047Y-123074295D02*
X146074285Y-123074295D01*
X146417143Y-122998104D02*
X146455238Y-123036200D01*
X146455238Y-123036200D02*
X146417143Y-123074295D01*
X146417143Y-123074295D02*
X146379047Y-123036200D01*
X146379047Y-123036200D02*
X146417143Y-122998104D01*
X146417143Y-122998104D02*
X146417143Y-123074295D01*
X147217142Y-123074295D02*
X146759999Y-123074295D01*
X146988571Y-123074295D02*
X146988571Y-122274295D01*
X146988571Y-122274295D02*
X146912380Y-122388580D01*
X146912380Y-122388580D02*
X146836190Y-122464771D01*
X146836190Y-122464771D02*
X146759999Y-122502866D01*
X147902857Y-122274295D02*
X147750476Y-122274295D01*
X147750476Y-122274295D02*
X147674285Y-122312390D01*
X147674285Y-122312390D02*
X147636190Y-122350485D01*
X147636190Y-122350485D02*
X147560000Y-122464771D01*
X147560000Y-122464771D02*
X147521904Y-122617152D01*
X147521904Y-122617152D02*
X147521904Y-122921914D01*
X147521904Y-122921914D02*
X147560000Y-122998104D01*
X147560000Y-122998104D02*
X147598095Y-123036200D01*
X147598095Y-123036200D02*
X147674285Y-123074295D01*
X147674285Y-123074295D02*
X147826666Y-123074295D01*
X147826666Y-123074295D02*
X147902857Y-123036200D01*
X147902857Y-123036200D02*
X147940952Y-122998104D01*
X147940952Y-122998104D02*
X147979047Y-122921914D01*
X147979047Y-122921914D02*
X147979047Y-122731438D01*
X147979047Y-122731438D02*
X147940952Y-122655247D01*
X147940952Y-122655247D02*
X147902857Y-122617152D01*
X147902857Y-122617152D02*
X147826666Y-122579057D01*
X147826666Y-122579057D02*
X147674285Y-122579057D01*
X147674285Y-122579057D02*
X147598095Y-122617152D01*
X147598095Y-122617152D02*
X147560000Y-122655247D01*
X147560000Y-122655247D02*
X147521904Y-122731438D01*
X148436190Y-122617152D02*
X148360000Y-122579057D01*
X148360000Y-122579057D02*
X148321905Y-122540961D01*
X148321905Y-122540961D02*
X148283809Y-122464771D01*
X148283809Y-122464771D02*
X148283809Y-122426676D01*
X148283809Y-122426676D02*
X148321905Y-122350485D01*
X148321905Y-122350485D02*
X148360000Y-122312390D01*
X148360000Y-122312390D02*
X148436190Y-122274295D01*
X148436190Y-122274295D02*
X148588571Y-122274295D01*
X148588571Y-122274295D02*
X148664762Y-122312390D01*
X148664762Y-122312390D02*
X148702857Y-122350485D01*
X148702857Y-122350485D02*
X148740952Y-122426676D01*
X148740952Y-122426676D02*
X148740952Y-122464771D01*
X148740952Y-122464771D02*
X148702857Y-122540961D01*
X148702857Y-122540961D02*
X148664762Y-122579057D01*
X148664762Y-122579057D02*
X148588571Y-122617152D01*
X148588571Y-122617152D02*
X148436190Y-122617152D01*
X148436190Y-122617152D02*
X148360000Y-122655247D01*
X148360000Y-122655247D02*
X148321905Y-122693342D01*
X148321905Y-122693342D02*
X148283809Y-122769533D01*
X148283809Y-122769533D02*
X148283809Y-122921914D01*
X148283809Y-122921914D02*
X148321905Y-122998104D01*
X148321905Y-122998104D02*
X148360000Y-123036200D01*
X148360000Y-123036200D02*
X148436190Y-123074295D01*
X148436190Y-123074295D02*
X148588571Y-123074295D01*
X148588571Y-123074295D02*
X148664762Y-123036200D01*
X148664762Y-123036200D02*
X148702857Y-122998104D01*
X148702857Y-122998104D02*
X148740952Y-122921914D01*
X148740952Y-122921914D02*
X148740952Y-122769533D01*
X148740952Y-122769533D02*
X148702857Y-122693342D01*
X148702857Y-122693342D02*
X148664762Y-122655247D01*
X148664762Y-122655247D02*
X148588571Y-122617152D01*
X149083810Y-122998104D02*
X149121905Y-123036200D01*
X149121905Y-123036200D02*
X149083810Y-123074295D01*
X149083810Y-123074295D02*
X149045714Y-123036200D01*
X149045714Y-123036200D02*
X149083810Y-122998104D01*
X149083810Y-122998104D02*
X149083810Y-123074295D01*
X149388571Y-122274295D02*
X149921905Y-122274295D01*
X149921905Y-122274295D02*
X149579047Y-123074295D01*
X150226667Y-122998104D02*
X150264762Y-123036200D01*
X150264762Y-123036200D02*
X150226667Y-123074295D01*
X150226667Y-123074295D02*
X150188571Y-123036200D01*
X150188571Y-123036200D02*
X150226667Y-122998104D01*
X150226667Y-122998104D02*
X150226667Y-123074295D01*
X151026666Y-123074295D02*
X150569523Y-123074295D01*
X150798095Y-123074295D02*
X150798095Y-122274295D01*
X150798095Y-122274295D02*
X150721904Y-122388580D01*
X150721904Y-122388580D02*
X150645714Y-122464771D01*
X150645714Y-122464771D02*
X150569523Y-122502866D01*
X180370112Y-112546009D02*
X180036779Y-112546009D01*
X180036779Y-113069819D02*
X180036779Y-112069819D01*
X180036779Y-112069819D02*
X180512969Y-112069819D01*
X181370112Y-113069819D02*
X180893922Y-113069819D01*
X180893922Y-113069819D02*
X180893922Y-112069819D01*
X181655827Y-112784104D02*
X182132017Y-112784104D01*
X181560589Y-113069819D02*
X181893922Y-112069819D01*
X181893922Y-112069819D02*
X182227255Y-113069819D01*
X182512970Y-113022200D02*
X182655827Y-113069819D01*
X182655827Y-113069819D02*
X182893922Y-113069819D01*
X182893922Y-113069819D02*
X182989160Y-113022200D01*
X182989160Y-113022200D02*
X183036779Y-112974580D01*
X183036779Y-112974580D02*
X183084398Y-112879342D01*
X183084398Y-112879342D02*
X183084398Y-112784104D01*
X183084398Y-112784104D02*
X183036779Y-112688866D01*
X183036779Y-112688866D02*
X182989160Y-112641247D01*
X182989160Y-112641247D02*
X182893922Y-112593628D01*
X182893922Y-112593628D02*
X182703446Y-112546009D01*
X182703446Y-112546009D02*
X182608208Y-112498390D01*
X182608208Y-112498390D02*
X182560589Y-112450771D01*
X182560589Y-112450771D02*
X182512970Y-112355533D01*
X182512970Y-112355533D02*
X182512970Y-112260295D01*
X182512970Y-112260295D02*
X182560589Y-112165057D01*
X182560589Y-112165057D02*
X182608208Y-112117438D01*
X182608208Y-112117438D02*
X182703446Y-112069819D01*
X182703446Y-112069819D02*
X182941541Y-112069819D01*
X182941541Y-112069819D02*
X183084398Y-112117438D01*
X183512970Y-113069819D02*
X183512970Y-112069819D01*
X183512970Y-112546009D02*
X184084398Y-112546009D01*
X184084398Y-113069819D02*
X184084398Y-112069819D01*
D11*
%TO.C,U3*%
X178780000Y-137065000D02*
X184790000Y-137065000D01*
X181030000Y-143885000D02*
X184790000Y-143885000D01*
X184790000Y-137065000D02*
X184790000Y-138325000D01*
X184790000Y-143885000D02*
X184790000Y-142625000D01*
%TO.C,C11*%
X164190000Y-146497164D02*
X164190000Y-146712836D01*
X163470000Y-146497164D02*
X163470000Y-146712836D01*
%TO.C,C5*%
X174780325Y-139840000D02*
X174564653Y-139840000D01*
X174780325Y-139120000D02*
X174564653Y-139120000D01*
%TO.C,SW6*%
X180840000Y-114940000D02*
X182920000Y-114940000D01*
X184600000Y-116210000D02*
X184110000Y-115720000D01*
X184600000Y-116210000D02*
X184600000Y-119110000D01*
X179160000Y-116210000D02*
X179650000Y-115720000D01*
X179160000Y-116210000D02*
X179160000Y-119110000D01*
X184600000Y-119110000D02*
X184110000Y-119600000D01*
X179160000Y-119110000D02*
X179650000Y-119600000D01*
X180840000Y-120380000D02*
X182920000Y-120380000D01*
%TO.C,U5*%
X204690000Y-131935000D02*
X204690000Y-133235000D01*
X207490000Y-132585000D02*
X207490000Y-133235000D01*
D10*
%TO.C,SW4*%
X148800000Y-129000000D02*
G75*
G03*
X148800000Y-129000000I-2800000J0D01*
G01*
D12*
%TO.C,SW12*%
X114565000Y-102795000D02*
X114565000Y-109595000D01*
%TO.C,SW9*%
X102415000Y-115000000D02*
X109215000Y-115000000D01*
D10*
%TO.C,SW5*%
X136300000Y-124000000D02*
G75*
G03*
X136300000Y-124000000I-2800000J0D01*
G01*
D11*
%TO.C,R5*%
X158813641Y-141125000D02*
X158506359Y-141125000D01*
X158813641Y-140365000D02*
X158506359Y-140365000D01*
%TO.C,SW10*%
X146535498Y-114940000D02*
X148615498Y-114940000D01*
X150295498Y-116210000D02*
X149805498Y-115720000D01*
X150295498Y-116210000D02*
X150295498Y-119110000D01*
X144855498Y-116210000D02*
X145345498Y-115720000D01*
X144855498Y-116210000D02*
X144855498Y-119110000D01*
X150295498Y-119110000D02*
X149805498Y-119600000D01*
X144855498Y-119110000D02*
X145345498Y-119600000D01*
X146535498Y-120380000D02*
X148615498Y-120380000D01*
%TO.C,R8*%
X164790000Y-146748641D02*
X164790000Y-146441359D01*
X165550000Y-146748641D02*
X165550000Y-146441359D01*
%TO.C,R7*%
X170953136Y-143305000D02*
X170645854Y-143305000D01*
X170953136Y-142545000D02*
X170645854Y-142545000D01*
%TO.C,C9*%
X167540000Y-146487164D02*
X167540000Y-146702836D01*
X166820000Y-146487164D02*
X166820000Y-146702836D01*
%TO.C,U7*%
X160080000Y-146485000D02*
X160080000Y-147785000D01*
X162880000Y-147135000D02*
X162880000Y-147785000D01*
D12*
%TO.C,SW3*%
X214750000Y-102725000D02*
X214750000Y-109525000D01*
D11*
%TO.C,C12*%
X162610000Y-136087836D02*
X162610000Y-135872164D01*
X163330000Y-136087836D02*
X163330000Y-135872164D01*
%TO.C,C2*%
X182197836Y-136435000D02*
X181982164Y-136435000D01*
X182197836Y-135715000D02*
X181982164Y-135715000D01*
%TO.C,C15*%
X157600000Y-132362836D02*
X157600000Y-132147164D01*
X158320000Y-132362836D02*
X158320000Y-132147164D01*
%TO.C,C13*%
X170682164Y-140570000D02*
X170897836Y-140570000D01*
X170682164Y-141290000D02*
X170897836Y-141290000D01*
%TO.C,U6*%
X174354495Y-141025000D02*
X173054495Y-141025000D01*
X173704495Y-143825000D02*
X173054495Y-143825000D01*
%TO.C,R4*%
X176400000Y-131223641D02*
X176400000Y-130916359D01*
X177160000Y-131223641D02*
X177160000Y-130916359D01*
D12*
%TO.C,SW8*%
X120165000Y-115000000D02*
X126965000Y-115000000D01*
D10*
%TO.C,SW11*%
X198800000Y-124000000D02*
G75*
G03*
X198800000Y-124000000I-2800000J0D01*
G01*
D11*
%TO.C,U1*%
X179595000Y-132070000D02*
X178295000Y-132070000D01*
X178945000Y-134870000D02*
X178295000Y-134870000D01*
%TO.C,R6*%
X170953136Y-142305000D02*
X170645854Y-142305000D01*
X170953136Y-141545000D02*
X170645854Y-141545000D01*
%TO.C,C10*%
X170662164Y-144535000D02*
X170877836Y-144535000D01*
X170662164Y-145255000D02*
X170877836Y-145255000D01*
%TO.C,D2*%
X167622500Y-149075000D02*
X167622500Y-147605000D01*
X167622500Y-147605000D02*
X165337500Y-147605000D01*
X166337500Y-148340000D02*
X165937500Y-148740000D01*
X166337500Y-147940000D02*
X166337500Y-148740000D01*
X165937500Y-148740000D02*
X165937500Y-147940000D01*
X165937500Y-147940000D02*
X166337500Y-148340000D01*
X165337500Y-149075000D02*
X167622500Y-149075000D01*
D12*
%TO.C,SW2*%
X214750000Y-120475000D02*
X214750000Y-127275000D01*
D11*
%TO.C,D1*%
X183435000Y-152225000D02*
X183435000Y-150755000D01*
X183435000Y-150755000D02*
X181150000Y-150755000D01*
X181150000Y-152225000D02*
X183435000Y-152225000D01*
D12*
%TO.C,SW1*%
X202600000Y-115000000D02*
X209400000Y-115000000D01*
D11*
%TO.C,C3*%
X155872164Y-140385000D02*
X156087836Y-140385000D01*
X155872164Y-141105000D02*
X156087836Y-141105000D01*
D10*
%TO.C,SW7*%
X186300000Y-129000000D02*
G75*
G03*
X186300000Y-129000000I-2800000J0D01*
G01*
D11*
%TO.C,U8*%
X153830000Y-134440000D02*
X155230000Y-134440000D01*
X155230000Y-132120000D02*
X153330000Y-132120000D01*
%TO.C,R10*%
X151736359Y-132260000D02*
X152043641Y-132260000D01*
X151736359Y-133020000D02*
X152043641Y-133020000D01*
D13*
%TO.C,FLASH1*%
X175920000Y-131490000D02*
X175740000Y-131490000D01*
X175920000Y-131490000D02*
X175920000Y-136870000D01*
X170720000Y-131490000D02*
X170540000Y-131490000D01*
X170540000Y-131490000D02*
X170540000Y-136870000D01*
X175920000Y-136870000D02*
X175740000Y-136870000D01*
X170720000Y-136870000D02*
X170540000Y-136870000D01*
D11*
X174230000Y-132680000D02*
X172230000Y-132680000D01*
X172230000Y-132680000D02*
X172230000Y-135680000D01*
X172230000Y-135680000D02*
X174230000Y-135680000D01*
X174230000Y-135680000D02*
X174230000Y-132680000D01*
D14*
X175330000Y-129180000D02*
G75*
G03*
X175330000Y-129180000I-100000J0D01*
G01*
D11*
X174091803Y-132230000D02*
G75*
G03*
X174091803Y-132230000I-111803J0D01*
G01*
D12*
%TO.C,SW13*%
X114565000Y-120545000D02*
X114565000Y-127345000D01*
D11*
%TO.C,Y1*%
X154360000Y-136900000D02*
X154360000Y-140050000D01*
X154360000Y-140050000D02*
X158360000Y-140050000D01*
%TO.C,C14*%
X158767836Y-142115000D02*
X158552164Y-142115000D01*
X158767836Y-141395000D02*
X158552164Y-141395000D01*
%TO.C,C4*%
X156262164Y-135765000D02*
X156477836Y-135765000D01*
X156262164Y-136485000D02*
X156477836Y-136485000D01*
D12*
%TO.C,SW0*%
X220100000Y-115000000D02*
X226900000Y-115000000D01*
D11*
%TO.C,U4*%
X160954495Y-137520000D02*
X161604495Y-137520000D01*
X168174495Y-138170000D02*
X168174495Y-137520000D01*
X160954495Y-138170000D02*
X160954495Y-137520000D01*
X168174495Y-144090000D02*
X168174495Y-144740000D01*
X160954495Y-144090000D02*
X160954495Y-144740000D01*
X168174495Y-144740000D02*
X167524495Y-144740000D01*
X160954495Y-144740000D02*
X161604495Y-144740000D01*
%TO.C,C8*%
X170692164Y-143555000D02*
X170907836Y-143555000D01*
X170692164Y-144275000D02*
X170907836Y-144275000D01*
%TO.C,C1*%
X180157836Y-145050000D02*
X179942164Y-145050000D01*
X180157836Y-144330000D02*
X179942164Y-144330000D01*
%TO.C,R3*%
X176400000Y-129283641D02*
X176400000Y-128976359D01*
X177160000Y-129283641D02*
X177160000Y-128976359D01*
%TO.C,R9*%
X151726359Y-133255000D02*
X152033641Y-133255000D01*
X151726359Y-134015000D02*
X152033641Y-134015000D01*
%TO.C,C7*%
X170682164Y-139590000D02*
X170897836Y-139590000D01*
X170682164Y-140310000D02*
X170897836Y-140310000D01*
%TO.C,C6*%
X158767836Y-143105000D02*
X158552164Y-143105000D01*
X158767836Y-142385000D02*
X158552164Y-142385000D01*
%TD*%
%LPC*%
%TO.C,Ref\u002A\u002A*%
D15*
X162501042Y-113557641D02*
X164051501Y-113563070D01*
X164051501Y-114600237D01*
X162008179Y-114611227D01*
X162013840Y-115134898D01*
X162019501Y-115658570D01*
X162871459Y-115664102D01*
X163723417Y-115669633D01*
X163723417Y-116705840D01*
X162871459Y-116711371D01*
X162019501Y-116716903D01*
X162008917Y-117764653D01*
X161998334Y-118812403D01*
X161474459Y-118818065D01*
X160950584Y-118823726D01*
X160950584Y-113552212D01*
X162501042Y-113557641D01*
G36*
X162501042Y-113557641D02*
G01*
X164051501Y-113563070D01*
X164051501Y-114600237D01*
X162008179Y-114611227D01*
X162013840Y-115134898D01*
X162019501Y-115658570D01*
X162871459Y-115664102D01*
X163723417Y-115669633D01*
X163723417Y-116705840D01*
X162871459Y-116711371D01*
X162019501Y-116716903D01*
X162008917Y-117764653D01*
X161998334Y-118812403D01*
X161474459Y-118818065D01*
X160950584Y-118823726D01*
X160950584Y-113552212D01*
X162501042Y-113557641D01*
G37*
X160495501Y-113563070D02*
X160495501Y-114600237D01*
X159500667Y-114610820D01*
X158505834Y-114621403D01*
X158505834Y-115658570D01*
X159336626Y-115664107D01*
X160167417Y-115669645D01*
X160167417Y-116706320D01*
X159357792Y-116706644D01*
X159176031Y-116707149D01*
X159007119Y-116708449D01*
X158855844Y-116710443D01*
X158726991Y-116713034D01*
X158625348Y-116716121D01*
X158555702Y-116719605D01*
X158522838Y-116723387D01*
X158521317Y-116724010D01*
X158512509Y-116739322D01*
X158506010Y-116775309D01*
X158501651Y-116836125D01*
X158499265Y-116925924D01*
X158498684Y-117048858D01*
X158499739Y-117209082D01*
X158500150Y-117247561D01*
X158505834Y-117754070D01*
X159500667Y-117764653D01*
X160495501Y-117775237D01*
X160506823Y-118822987D01*
X157436917Y-118822987D01*
X157436917Y-113552208D01*
X160495501Y-113563070D01*
G36*
X160495501Y-113563070D02*
G01*
X160495501Y-114600237D01*
X159500667Y-114610820D01*
X158505834Y-114621403D01*
X158505834Y-115658570D01*
X159336626Y-115664107D01*
X160167417Y-115669645D01*
X160167417Y-116706320D01*
X159357792Y-116706644D01*
X159176031Y-116707149D01*
X159007119Y-116708449D01*
X158855844Y-116710443D01*
X158726991Y-116713034D01*
X158625348Y-116716121D01*
X158555702Y-116719605D01*
X158522838Y-116723387D01*
X158521317Y-116724010D01*
X158512509Y-116739322D01*
X158506010Y-116775309D01*
X158501651Y-116836125D01*
X158499265Y-116925924D01*
X158498684Y-117048858D01*
X158499739Y-117209082D01*
X158500150Y-117247561D01*
X158505834Y-117754070D01*
X159500667Y-117764653D01*
X160495501Y-117775237D01*
X160506823Y-118822987D01*
X157436917Y-118822987D01*
X157436917Y-113552208D01*
X160495501Y-113563070D01*
G37*
X171216417Y-114610405D02*
X169216167Y-114621403D01*
X169216167Y-115658570D01*
X170036376Y-115664110D01*
X170856584Y-115669650D01*
X170856584Y-116706320D01*
X170057542Y-116706644D01*
X169876992Y-116707155D01*
X169709308Y-116708471D01*
X169559311Y-116710490D01*
X169431822Y-116713110D01*
X169331662Y-116716231D01*
X169263652Y-116719751D01*
X169232614Y-116723568D01*
X169231650Y-116724010D01*
X169222842Y-116739322D01*
X169216343Y-116775309D01*
X169211984Y-116836125D01*
X169209598Y-116925924D01*
X169209017Y-117048858D01*
X169210073Y-117209082D01*
X169210483Y-117247561D01*
X169216167Y-117754070D01*
X171216417Y-117765068D01*
X171216417Y-118822987D01*
X168147085Y-118822987D01*
X168152459Y-116193028D01*
X168157834Y-113563070D01*
X169687126Y-113557639D01*
X171216417Y-113552208D01*
X171216417Y-114610405D01*
G36*
X171216417Y-114610405D02*
G01*
X169216167Y-114621403D01*
X169216167Y-115658570D01*
X170036376Y-115664110D01*
X170856584Y-115669650D01*
X170856584Y-116706320D01*
X170057542Y-116706644D01*
X169876992Y-116707155D01*
X169709308Y-116708471D01*
X169559311Y-116710490D01*
X169431822Y-116713110D01*
X169331662Y-116716231D01*
X169263652Y-116719751D01*
X169232614Y-116723568D01*
X169231650Y-116724010D01*
X169222842Y-116739322D01*
X169216343Y-116775309D01*
X169211984Y-116836125D01*
X169209598Y-116925924D01*
X169209017Y-117048858D01*
X169210073Y-117209082D01*
X169210483Y-117247561D01*
X169216167Y-117754070D01*
X171216417Y-117765068D01*
X171216417Y-118822987D01*
X168147085Y-118822987D01*
X168152459Y-116193028D01*
X168157834Y-113563070D01*
X169687126Y-113557639D01*
X171216417Y-113552208D01*
X171216417Y-114610405D01*
G37*
X165570106Y-115652909D02*
X165575501Y-117754070D01*
X166633834Y-117764653D01*
X167692167Y-117775237D01*
X167697829Y-118299112D01*
X167703490Y-118822987D01*
X166114956Y-118822987D01*
X165805541Y-118822850D01*
X165536089Y-118822413D01*
X165304228Y-118821637D01*
X165107589Y-118820483D01*
X164943800Y-118818911D01*
X164810492Y-118816882D01*
X164705294Y-118814357D01*
X164625835Y-118811297D01*
X164569745Y-118807662D01*
X164534655Y-118803414D01*
X164518192Y-118798512D01*
X164516349Y-118796528D01*
X164515121Y-118772402D01*
X164514023Y-118708532D01*
X164513059Y-118607508D01*
X164512234Y-118471922D01*
X164511553Y-118304361D01*
X164511020Y-118107417D01*
X164510639Y-117883679D01*
X164510415Y-117635737D01*
X164510353Y-117366181D01*
X164510457Y-117077601D01*
X164510732Y-116772586D01*
X164511183Y-116453727D01*
X164511722Y-116166570D01*
X164517167Y-113563070D01*
X165040939Y-113557409D01*
X165564712Y-113551747D01*
X165570106Y-115652909D01*
G36*
X165570106Y-115652909D02*
G01*
X165575501Y-117754070D01*
X166633834Y-117764653D01*
X167692167Y-117775237D01*
X167697829Y-118299112D01*
X167703490Y-118822987D01*
X166114956Y-118822987D01*
X165805541Y-118822850D01*
X165536089Y-118822413D01*
X165304228Y-118821637D01*
X165107589Y-118820483D01*
X164943800Y-118818911D01*
X164810492Y-118816882D01*
X164705294Y-118814357D01*
X164625835Y-118811297D01*
X164569745Y-118807662D01*
X164534655Y-118803414D01*
X164518192Y-118798512D01*
X164516349Y-118796528D01*
X164515121Y-118772402D01*
X164514023Y-118708532D01*
X164513059Y-118607508D01*
X164512234Y-118471922D01*
X164511553Y-118304361D01*
X164511020Y-118107417D01*
X164510639Y-117883679D01*
X164510415Y-117635737D01*
X164510353Y-117366181D01*
X164510457Y-117077601D01*
X164510732Y-116772586D01*
X164511183Y-116453727D01*
X164511722Y-116166570D01*
X164517167Y-113563070D01*
X165040939Y-113557409D01*
X165564712Y-113551747D01*
X165570106Y-115652909D01*
G37*
X153552752Y-113553400D02*
X153769125Y-113554430D01*
X154023586Y-113555899D01*
X154161376Y-113556701D01*
X154475759Y-113558854D01*
X154748300Y-113561472D01*
X154979488Y-113564566D01*
X155169813Y-113568148D01*
X155319763Y-113572228D01*
X155429827Y-113576818D01*
X155500495Y-113581927D01*
X155531917Y-113587414D01*
X155587381Y-113609093D01*
X155656383Y-113632894D01*
X155669501Y-113637072D01*
X155862734Y-113715600D01*
X156055691Y-113827384D01*
X156237160Y-113964784D01*
X156395927Y-114120161D01*
X156420917Y-114149077D01*
X156576003Y-114363096D01*
X156691097Y-114588198D01*
X156691695Y-114589653D01*
X156715941Y-114651714D01*
X156737181Y-114714673D01*
X156760694Y-114794773D01*
X156774221Y-114843653D01*
X156788468Y-114920610D01*
X156798708Y-115025680D01*
X156804858Y-115147996D01*
X156806831Y-115276689D01*
X156804544Y-115400890D01*
X156797912Y-115509730D01*
X156786849Y-115592341D01*
X156780263Y-115618499D01*
X156757178Y-115690163D01*
X156735639Y-115757195D01*
X156733328Y-115764403D01*
X156637265Y-115997160D01*
X156504581Y-116216385D01*
X156340469Y-116415152D01*
X156150121Y-116586536D01*
X156076959Y-116639662D01*
X156022452Y-116680188D01*
X155985939Y-116713629D01*
X155976417Y-116728791D01*
X155986495Y-116761746D01*
X156009406Y-116808293D01*
X156034166Y-116847027D01*
X156040915Y-116854487D01*
X156055831Y-116877729D01*
X156082908Y-116927451D01*
X156110543Y-116981487D01*
X156148786Y-117056551D01*
X156185658Y-117126297D01*
X156205097Y-117161403D01*
X156229297Y-117204792D01*
X156268008Y-117275645D01*
X156315844Y-117364055D01*
X156366150Y-117457737D01*
X156419883Y-117557883D01*
X156471842Y-117654193D01*
X156515799Y-117735152D01*
X156543619Y-117785820D01*
X156581834Y-117855398D01*
X156628969Y-117942311D01*
X156669957Y-118018653D01*
X156717775Y-118107777D01*
X156768269Y-118201137D01*
X156804396Y-118267362D01*
X156861326Y-118371354D01*
X156925625Y-118489465D01*
X157001946Y-118630251D01*
X157066109Y-118748903D01*
X157325827Y-119225153D01*
X157360490Y-119282977D01*
X157390736Y-119324707D01*
X157402274Y-119335954D01*
X157424812Y-119336976D01*
X157488359Y-119337983D01*
X157591590Y-119338971D01*
X157733179Y-119339940D01*
X157911802Y-119340886D01*
X158126133Y-119341808D01*
X158374849Y-119342703D01*
X158656624Y-119343570D01*
X158970133Y-119344406D01*
X159314051Y-119345209D01*
X159687054Y-119345976D01*
X160087816Y-119346707D01*
X160515013Y-119347398D01*
X160967320Y-119348047D01*
X161443411Y-119348653D01*
X161941962Y-119349213D01*
X162461649Y-119349724D01*
X163001145Y-119350186D01*
X163559127Y-119350595D01*
X164134269Y-119350950D01*
X164725247Y-119351248D01*
X165330735Y-119351487D01*
X165949409Y-119351665D01*
X166579944Y-119351781D01*
X167173752Y-119351829D01*
X176921170Y-119352153D01*
X177016252Y-119492500D01*
X177066510Y-119565216D01*
X177112305Y-119628930D01*
X177144882Y-119671509D01*
X177148376Y-119675656D01*
X177176442Y-119718048D01*
X177185417Y-119746975D01*
X177164510Y-119749189D01*
X177102828Y-119751323D01*
X177001927Y-119753379D01*
X176863367Y-119755355D01*
X176688704Y-119757252D01*
X176479497Y-119759069D01*
X176237304Y-119760806D01*
X175963681Y-119762464D01*
X175660187Y-119764042D01*
X175328379Y-119765539D01*
X174969815Y-119766956D01*
X174586054Y-119768293D01*
X174178652Y-119769549D01*
X173749168Y-119770724D01*
X173299159Y-119771818D01*
X172830183Y-119772831D01*
X172343797Y-119773763D01*
X171841560Y-119774614D01*
X171325029Y-119775383D01*
X170795762Y-119776070D01*
X170255317Y-119776676D01*
X169705252Y-119777199D01*
X169147123Y-119777640D01*
X168582490Y-119777999D01*
X168012909Y-119778275D01*
X167439938Y-119778469D01*
X166865136Y-119778580D01*
X166290060Y-119778608D01*
X165716267Y-119778553D01*
X165145316Y-119778415D01*
X164578764Y-119778193D01*
X164018169Y-119777888D01*
X163465089Y-119777499D01*
X162921081Y-119777027D01*
X162387703Y-119776470D01*
X161866513Y-119775829D01*
X161359069Y-119775104D01*
X160866928Y-119774294D01*
X160391648Y-119773400D01*
X159934788Y-119772420D01*
X159497903Y-119771356D01*
X159082554Y-119770207D01*
X158690296Y-119768973D01*
X158322689Y-119767653D01*
X157981289Y-119766248D01*
X157667654Y-119764757D01*
X157383343Y-119763180D01*
X157129912Y-119761517D01*
X156908920Y-119759768D01*
X156721925Y-119757933D01*
X156570484Y-119756011D01*
X156456154Y-119754003D01*
X156380494Y-119751908D01*
X156345062Y-119749725D01*
X156342487Y-119749028D01*
X156328070Y-119727968D01*
X156305643Y-119691322D01*
X156271950Y-119633514D01*
X156223731Y-119548969D01*
X156169329Y-119452695D01*
X156127396Y-119378635D01*
X156083922Y-119302315D01*
X156079133Y-119293945D01*
X156043024Y-119229979D01*
X155998692Y-119150228D01*
X155970069Y-119098153D01*
X155928992Y-119025485D01*
X155889431Y-118959556D01*
X155867354Y-118925552D01*
X155840376Y-118883974D01*
X155828297Y-118859791D01*
X155828251Y-118859230D01*
X155818245Y-118838564D01*
X155790370Y-118786971D01*
X155747834Y-118710238D01*
X155693847Y-118614148D01*
X155631620Y-118504488D01*
X155624544Y-118492081D01*
X155556263Y-118372057D01*
X155490745Y-118256241D01*
X155432638Y-118152896D01*
X155386589Y-118070289D01*
X155358562Y-118019137D01*
X155322992Y-117954370D01*
X155293767Y-117903731D01*
X155279567Y-117881554D01*
X155261069Y-117852445D01*
X155229884Y-117798667D01*
X155199167Y-117743487D01*
X155162206Y-117676717D01*
X155111500Y-117586180D01*
X155054334Y-117484848D01*
X155008901Y-117404820D01*
X154953364Y-117307156D01*
X154899896Y-117212856D01*
X154855150Y-117133671D01*
X154829109Y-117087320D01*
X154794685Y-117025902D01*
X154758752Y-116962314D01*
X154715319Y-116886006D01*
X154658394Y-116786425D01*
X154639799Y-116753945D01*
X154603690Y-116689979D01*
X154559358Y-116610228D01*
X154530736Y-116558153D01*
X154489659Y-116485485D01*
X154450097Y-116419556D01*
X154428021Y-116385552D01*
X154401023Y-116343746D01*
X154388961Y-116319104D01*
X154388917Y-116318530D01*
X154379099Y-116296850D01*
X154352470Y-116246314D01*
X154313265Y-116174797D01*
X154272501Y-116102126D01*
X154225726Y-116018071D01*
X154187922Y-115947360D01*
X154163361Y-115898163D01*
X154156084Y-115879333D01*
X154176354Y-115874628D01*
X154233577Y-115869947D01*
X154322375Y-115865507D01*
X154437367Y-115861526D01*
X154573174Y-115858220D01*
X154724418Y-115855808D01*
X154743459Y-115855588D01*
X155330834Y-115849070D01*
X155427854Y-115792033D01*
X155528095Y-115719122D01*
X155620847Y-115626778D01*
X155693275Y-115528733D01*
X155717970Y-115481607D01*
X155740369Y-115398133D01*
X155750688Y-115280561D01*
X155751286Y-115235237D01*
X155748325Y-115137676D01*
X155737814Y-115065435D01*
X155716380Y-115001704D01*
X155695650Y-114958164D01*
X155604512Y-114826436D01*
X155477617Y-114716623D01*
X155399037Y-114669158D01*
X155376927Y-114657800D01*
X155354309Y-114648370D01*
X155327171Y-114640659D01*
X155291500Y-114634454D01*
X155243285Y-114629545D01*
X155178514Y-114625720D01*
X155093173Y-114622768D01*
X154983252Y-114620478D01*
X154844738Y-114618638D01*
X154673618Y-114617038D01*
X154465881Y-114615465D01*
X154365662Y-114614755D01*
X153421656Y-114608107D01*
X153379816Y-114530088D01*
X153324955Y-114429652D01*
X153286864Y-114364121D01*
X153267050Y-114335653D01*
X153251063Y-114311065D01*
X153226617Y-114265684D01*
X153224717Y-114261919D01*
X153201918Y-114219123D01*
X153163328Y-114149361D01*
X153114352Y-114062313D01*
X153060709Y-113968206D01*
X153010437Y-113879657D01*
X152968871Y-113804667D01*
X152940062Y-113750677D01*
X152928065Y-113725129D01*
X152927947Y-113724439D01*
X152915827Y-113700159D01*
X152887203Y-113659756D01*
X152886084Y-113658320D01*
X152868484Y-113636294D01*
X152854652Y-113617442D01*
X152847447Y-113601537D01*
X152849730Y-113588352D01*
X152864361Y-113577657D01*
X152894199Y-113569225D01*
X152942105Y-113562829D01*
X153010939Y-113558240D01*
X153103560Y-113555231D01*
X153222830Y-113553573D01*
X153371607Y-113553039D01*
X153552752Y-113553400D01*
G36*
X153552752Y-113553400D02*
G01*
X153769125Y-113554430D01*
X154023586Y-113555899D01*
X154161376Y-113556701D01*
X154475759Y-113558854D01*
X154748300Y-113561472D01*
X154979488Y-113564566D01*
X155169813Y-113568148D01*
X155319763Y-113572228D01*
X155429827Y-113576818D01*
X155500495Y-113581927D01*
X155531917Y-113587414D01*
X155587381Y-113609093D01*
X155656383Y-113632894D01*
X155669501Y-113637072D01*
X155862734Y-113715600D01*
X156055691Y-113827384D01*
X156237160Y-113964784D01*
X156395927Y-114120161D01*
X156420917Y-114149077D01*
X156576003Y-114363096D01*
X156691097Y-114588198D01*
X156691695Y-114589653D01*
X156715941Y-114651714D01*
X156737181Y-114714673D01*
X156760694Y-114794773D01*
X156774221Y-114843653D01*
X156788468Y-114920610D01*
X156798708Y-115025680D01*
X156804858Y-115147996D01*
X156806831Y-115276689D01*
X156804544Y-115400890D01*
X156797912Y-115509730D01*
X156786849Y-115592341D01*
X156780263Y-115618499D01*
X156757178Y-115690163D01*
X156735639Y-115757195D01*
X156733328Y-115764403D01*
X156637265Y-115997160D01*
X156504581Y-116216385D01*
X156340469Y-116415152D01*
X156150121Y-116586536D01*
X156076959Y-116639662D01*
X156022452Y-116680188D01*
X155985939Y-116713629D01*
X155976417Y-116728791D01*
X155986495Y-116761746D01*
X156009406Y-116808293D01*
X156034166Y-116847027D01*
X156040915Y-116854487D01*
X156055831Y-116877729D01*
X156082908Y-116927451D01*
X156110543Y-116981487D01*
X156148786Y-117056551D01*
X156185658Y-117126297D01*
X156205097Y-117161403D01*
X156229297Y-117204792D01*
X156268008Y-117275645D01*
X156315844Y-117364055D01*
X156366150Y-117457737D01*
X156419883Y-117557883D01*
X156471842Y-117654193D01*
X156515799Y-117735152D01*
X156543619Y-117785820D01*
X156581834Y-117855398D01*
X156628969Y-117942311D01*
X156669957Y-118018653D01*
X156717775Y-118107777D01*
X156768269Y-118201137D01*
X156804396Y-118267362D01*
X156861326Y-118371354D01*
X156925625Y-118489465D01*
X157001946Y-118630251D01*
X157066109Y-118748903D01*
X157325827Y-119225153D01*
X157360490Y-119282977D01*
X157390736Y-119324707D01*
X157402274Y-119335954D01*
X157424812Y-119336976D01*
X157488359Y-119337983D01*
X157591590Y-119338971D01*
X157733179Y-119339940D01*
X157911802Y-119340886D01*
X158126133Y-119341808D01*
X158374849Y-119342703D01*
X158656624Y-119343570D01*
X158970133Y-119344406D01*
X159314051Y-119345209D01*
X159687054Y-119345976D01*
X160087816Y-119346707D01*
X160515013Y-119347398D01*
X160967320Y-119348047D01*
X161443411Y-119348653D01*
X161941962Y-119349213D01*
X162461649Y-119349724D01*
X163001145Y-119350186D01*
X163559127Y-119350595D01*
X164134269Y-119350950D01*
X164725247Y-119351248D01*
X165330735Y-119351487D01*
X165949409Y-119351665D01*
X166579944Y-119351781D01*
X167173752Y-119351829D01*
X176921170Y-119352153D01*
X177016252Y-119492500D01*
X177066510Y-119565216D01*
X177112305Y-119628930D01*
X177144882Y-119671509D01*
X177148376Y-119675656D01*
X177176442Y-119718048D01*
X177185417Y-119746975D01*
X177164510Y-119749189D01*
X177102828Y-119751323D01*
X177001927Y-119753379D01*
X176863367Y-119755355D01*
X176688704Y-119757252D01*
X176479497Y-119759069D01*
X176237304Y-119760806D01*
X175963681Y-119762464D01*
X175660187Y-119764042D01*
X175328379Y-119765539D01*
X174969815Y-119766956D01*
X174586054Y-119768293D01*
X174178652Y-119769549D01*
X173749168Y-119770724D01*
X173299159Y-119771818D01*
X172830183Y-119772831D01*
X172343797Y-119773763D01*
X171841560Y-119774614D01*
X171325029Y-119775383D01*
X170795762Y-119776070D01*
X170255317Y-119776676D01*
X169705252Y-119777199D01*
X169147123Y-119777640D01*
X168582490Y-119777999D01*
X168012909Y-119778275D01*
X167439938Y-119778469D01*
X166865136Y-119778580D01*
X166290060Y-119778608D01*
X165716267Y-119778553D01*
X165145316Y-119778415D01*
X164578764Y-119778193D01*
X164018169Y-119777888D01*
X163465089Y-119777499D01*
X162921081Y-119777027D01*
X162387703Y-119776470D01*
X161866513Y-119775829D01*
X161359069Y-119775104D01*
X160866928Y-119774294D01*
X160391648Y-119773400D01*
X159934788Y-119772420D01*
X159497903Y-119771356D01*
X159082554Y-119770207D01*
X158690296Y-119768973D01*
X158322689Y-119767653D01*
X157981289Y-119766248D01*
X157667654Y-119764757D01*
X157383343Y-119763180D01*
X157129912Y-119761517D01*
X156908920Y-119759768D01*
X156721925Y-119757933D01*
X156570484Y-119756011D01*
X156456154Y-119754003D01*
X156380494Y-119751908D01*
X156345062Y-119749725D01*
X156342487Y-119749028D01*
X156328070Y-119727968D01*
X156305643Y-119691322D01*
X156271950Y-119633514D01*
X156223731Y-119548969D01*
X156169329Y-119452695D01*
X156127396Y-119378635D01*
X156083922Y-119302315D01*
X156079133Y-119293945D01*
X156043024Y-119229979D01*
X155998692Y-119150228D01*
X155970069Y-119098153D01*
X155928992Y-119025485D01*
X155889431Y-118959556D01*
X155867354Y-118925552D01*
X155840376Y-118883974D01*
X155828297Y-118859791D01*
X155828251Y-118859230D01*
X155818245Y-118838564D01*
X155790370Y-118786971D01*
X155747834Y-118710238D01*
X155693847Y-118614148D01*
X155631620Y-118504488D01*
X155624544Y-118492081D01*
X155556263Y-118372057D01*
X155490745Y-118256241D01*
X155432638Y-118152896D01*
X155386589Y-118070289D01*
X155358562Y-118019137D01*
X155322992Y-117954370D01*
X155293767Y-117903731D01*
X155279567Y-117881554D01*
X155261069Y-117852445D01*
X155229884Y-117798667D01*
X155199167Y-117743487D01*
X155162206Y-117676717D01*
X155111500Y-117586180D01*
X155054334Y-117484848D01*
X155008901Y-117404820D01*
X154953364Y-117307156D01*
X154899896Y-117212856D01*
X154855150Y-117133671D01*
X154829109Y-117087320D01*
X154794685Y-117025902D01*
X154758752Y-116962314D01*
X154715319Y-116886006D01*
X154658394Y-116786425D01*
X154639799Y-116753945D01*
X154603690Y-116689979D01*
X154559358Y-116610228D01*
X154530736Y-116558153D01*
X154489659Y-116485485D01*
X154450097Y-116419556D01*
X154428021Y-116385552D01*
X154401023Y-116343746D01*
X154388961Y-116319104D01*
X154388917Y-116318530D01*
X154379099Y-116296850D01*
X154352470Y-116246314D01*
X154313265Y-116174797D01*
X154272501Y-116102126D01*
X154225726Y-116018071D01*
X154187922Y-115947360D01*
X154163361Y-115898163D01*
X154156084Y-115879333D01*
X154176354Y-115874628D01*
X154233577Y-115869947D01*
X154322375Y-115865507D01*
X154437367Y-115861526D01*
X154573174Y-115858220D01*
X154724418Y-115855808D01*
X154743459Y-115855588D01*
X155330834Y-115849070D01*
X155427854Y-115792033D01*
X155528095Y-115719122D01*
X155620847Y-115626778D01*
X155693275Y-115528733D01*
X155717970Y-115481607D01*
X155740369Y-115398133D01*
X155750688Y-115280561D01*
X155751286Y-115235237D01*
X155748325Y-115137676D01*
X155737814Y-115065435D01*
X155716380Y-115001704D01*
X155695650Y-114958164D01*
X155604512Y-114826436D01*
X155477617Y-114716623D01*
X155399037Y-114669158D01*
X155376927Y-114657800D01*
X155354309Y-114648370D01*
X155327171Y-114640659D01*
X155291500Y-114634454D01*
X155243285Y-114629545D01*
X155178514Y-114625720D01*
X155093173Y-114622768D01*
X154983252Y-114620478D01*
X154844738Y-114618638D01*
X154673618Y-114617038D01*
X154465881Y-114615465D01*
X154365662Y-114614755D01*
X153421656Y-114608107D01*
X153379816Y-114530088D01*
X153324955Y-114429652D01*
X153286864Y-114364121D01*
X153267050Y-114335653D01*
X153251063Y-114311065D01*
X153226617Y-114265684D01*
X153224717Y-114261919D01*
X153201918Y-114219123D01*
X153163328Y-114149361D01*
X153114352Y-114062313D01*
X153060709Y-113968206D01*
X153010437Y-113879657D01*
X152968871Y-113804667D01*
X152940062Y-113750677D01*
X152928065Y-113725129D01*
X152927947Y-113724439D01*
X152915827Y-113700159D01*
X152887203Y-113659756D01*
X152886084Y-113658320D01*
X152868484Y-113636294D01*
X152854652Y-113617442D01*
X152847447Y-113601537D01*
X152849730Y-113588352D01*
X152864361Y-113577657D01*
X152894199Y-113569225D01*
X152942105Y-113562829D01*
X153010939Y-113558240D01*
X153103560Y-113555231D01*
X153222830Y-113553573D01*
X153371607Y-113553039D01*
X153552752Y-113553400D01*
G37*
X165572942Y-112621404D02*
X166198661Y-112621443D01*
X166821065Y-112621510D01*
X167438728Y-112621606D01*
X168050223Y-112621730D01*
X168654124Y-112621882D01*
X169249004Y-112622062D01*
X169833438Y-112622270D01*
X170405997Y-112622507D01*
X170965257Y-112622771D01*
X171509790Y-112623065D01*
X172038169Y-112623386D01*
X172548970Y-112623736D01*
X173040764Y-112624115D01*
X173512125Y-112624521D01*
X173961627Y-112624957D01*
X174387844Y-112625420D01*
X174789349Y-112625913D01*
X175164715Y-112626434D01*
X175512515Y-112626983D01*
X175831325Y-112627561D01*
X176119716Y-112628168D01*
X176376262Y-112628803D01*
X176599538Y-112629467D01*
X176788115Y-112630160D01*
X176940569Y-112630881D01*
X177055472Y-112631632D01*
X177131398Y-112632411D01*
X177166921Y-112633219D01*
X177169536Y-112633494D01*
X177166660Y-112646730D01*
X177148789Y-112679557D01*
X177114494Y-112734090D01*
X177062344Y-112812445D01*
X176990911Y-112916737D01*
X176898765Y-113049080D01*
X176784475Y-113211590D01*
X176657748Y-113390683D01*
X176604212Y-113466677D01*
X176558439Y-113532563D01*
X176527097Y-113578699D01*
X176518667Y-113591766D01*
X176495257Y-113626250D01*
X176485886Y-113637153D01*
X176466885Y-113660882D01*
X176426939Y-113715550D01*
X176368906Y-113797091D01*
X176295642Y-113901435D01*
X176210006Y-114024515D01*
X176114855Y-114162264D01*
X176023035Y-114296018D01*
X175967788Y-114376003D01*
X175920909Y-114442524D01*
X175887728Y-114488104D01*
X175874056Y-114504987D01*
X175857315Y-114525982D01*
X175819213Y-114578162D01*
X175762366Y-114657825D01*
X175689388Y-114761264D01*
X175602894Y-114884777D01*
X175505498Y-115024658D01*
X175410911Y-115161153D01*
X175351686Y-115245912D01*
X175289034Y-115334187D01*
X175238190Y-115404570D01*
X175136865Y-115544156D01*
X175039452Y-115680910D01*
X174949020Y-115810294D01*
X174868641Y-115927770D01*
X174801385Y-116028800D01*
X174750323Y-116108845D01*
X174718526Y-116163367D01*
X174708917Y-116186770D01*
X174720482Y-116217268D01*
X174752002Y-116274114D01*
X174798714Y-116349288D01*
X174855856Y-116434769D01*
X174858097Y-116438008D01*
X174962487Y-116588344D01*
X175057357Y-116724206D01*
X175139880Y-116841595D01*
X175207230Y-116936508D01*
X175256581Y-117004945D01*
X175285108Y-117042904D01*
X175286803Y-117044987D01*
X175309819Y-117075723D01*
X175349855Y-117131942D01*
X175400159Y-117204099D01*
X175429037Y-117246070D01*
X175480793Y-117321238D01*
X175524572Y-117384072D01*
X175554194Y-117425737D01*
X175562327Y-117436570D01*
X175583153Y-117464378D01*
X175624213Y-117521120D01*
X175681446Y-117601059D01*
X175750791Y-117698462D01*
X175828186Y-117807592D01*
X175909570Y-117922715D01*
X175990883Y-118038096D01*
X176068063Y-118148000D01*
X176137050Y-118246692D01*
X176190584Y-118323804D01*
X176275483Y-118445670D01*
X176350775Y-118551726D01*
X176413242Y-118637574D01*
X176459665Y-118698817D01*
X176486825Y-118731058D01*
X176491429Y-118734792D01*
X176505338Y-118759009D01*
X176508084Y-118782417D01*
X176506502Y-118793957D01*
X176498787Y-118803073D01*
X176480484Y-118810052D01*
X176447138Y-118815178D01*
X176394294Y-118818736D01*
X176317499Y-118821011D01*
X176212297Y-118822287D01*
X176074234Y-118822851D01*
X175898855Y-118822986D01*
X175873829Y-118822987D01*
X175693106Y-118822867D01*
X175550105Y-118822318D01*
X175440212Y-118821054D01*
X175358817Y-118818789D01*
X175301306Y-118815236D01*
X175263067Y-118810109D01*
X175239490Y-118803124D01*
X175225961Y-118793992D01*
X175217868Y-118782429D01*
X175217800Y-118782304D01*
X175186653Y-118734850D01*
X175168642Y-118713512D01*
X175145161Y-118684446D01*
X175104744Y-118629634D01*
X175054176Y-118558393D01*
X175024831Y-118516070D01*
X174952956Y-118411996D01*
X174876345Y-118301858D01*
X174798987Y-118191304D01*
X174724874Y-118085985D01*
X174657996Y-117991549D01*
X174602344Y-117913647D01*
X174561908Y-117857928D01*
X174540679Y-117830042D01*
X174538926Y-117828153D01*
X174522505Y-117807266D01*
X174487852Y-117759291D01*
X174440594Y-117692108D01*
X174402878Y-117637653D01*
X174301743Y-117490841D01*
X174221780Y-117375399D01*
X174160136Y-117287841D01*
X174113955Y-117224682D01*
X174080383Y-117182438D01*
X174056566Y-117157623D01*
X174039649Y-117146752D01*
X174026779Y-117146340D01*
X174015100Y-117152903D01*
X174009411Y-117157251D01*
X173986989Y-117182401D01*
X173945341Y-117236265D01*
X173889094Y-117312586D01*
X173822876Y-117405105D01*
X173765994Y-117486347D01*
X173686970Y-117600216D01*
X173616242Y-117701896D01*
X173548746Y-117798613D01*
X173479418Y-117897590D01*
X173403191Y-118006053D01*
X173315002Y-118131227D01*
X173209786Y-118280336D01*
X173153167Y-118360520D01*
X173070729Y-118477329D01*
X173008905Y-118565163D01*
X172963832Y-118629589D01*
X172931646Y-118676173D01*
X172908484Y-118710480D01*
X172890483Y-118738077D01*
X172883597Y-118748903D01*
X172853722Y-118788972D01*
X172835667Y-118806787D01*
X172809883Y-118810716D01*
X172747185Y-118814302D01*
X172652996Y-118817413D01*
X172532734Y-118819918D01*
X172391820Y-118821684D01*
X172235674Y-118822580D01*
X172182528Y-118822662D01*
X172000902Y-118822542D01*
X171857410Y-118821834D01*
X171747850Y-118820324D01*
X171668026Y-118817800D01*
X171613737Y-118814050D01*
X171580785Y-118808861D01*
X171564970Y-118802020D01*
X171562094Y-118793316D01*
X171562717Y-118791292D01*
X171578911Y-118762896D01*
X171614700Y-118707430D01*
X171665154Y-118632330D01*
X171725340Y-118545029D01*
X171739607Y-118524625D01*
X171802119Y-118435116D01*
X171857048Y-118355831D01*
X171899161Y-118294369D01*
X171923229Y-118258325D01*
X171925501Y-118254695D01*
X171949118Y-118220110D01*
X171958771Y-118209153D01*
X171973841Y-118189472D01*
X172009518Y-118140037D01*
X172062251Y-118065856D01*
X172128487Y-117971939D01*
X172204675Y-117863295D01*
X172251400Y-117796403D01*
X172333740Y-117678506D01*
X172410014Y-117569572D01*
X172476203Y-117475320D01*
X172528286Y-117401468D01*
X172562245Y-117353735D01*
X172571268Y-117341320D01*
X172612711Y-117284491D01*
X172672341Y-117201310D01*
X172744216Y-117100207D01*
X172822391Y-116989612D01*
X172900923Y-116877954D01*
X172973868Y-116773664D01*
X173035281Y-116685171D01*
X173078714Y-116621653D01*
X173124645Y-116555710D01*
X173162801Y-116505003D01*
X173186253Y-116478639D01*
X173188741Y-116477014D01*
X173204850Y-116452668D01*
X173206084Y-116441737D01*
X173216872Y-116411072D01*
X173223191Y-116406459D01*
X173244874Y-116385297D01*
X173279339Y-116340544D01*
X173317913Y-116284953D01*
X173351922Y-116231276D01*
X173372694Y-116192266D01*
X173375417Y-116182622D01*
X173362367Y-116154504D01*
X173337391Y-116122936D01*
X173311007Y-116090133D01*
X173266817Y-116030636D01*
X173210855Y-115952730D01*
X173149157Y-115864702D01*
X173145663Y-115859653D01*
X173066678Y-115746133D01*
X172976021Y-115616903D01*
X172886786Y-115490587D01*
X172833096Y-115415153D01*
X172760456Y-115313306D01*
X172684967Y-115207092D01*
X172616268Y-115110091D01*
X172570207Y-115044737D01*
X172518058Y-114970671D01*
X172449670Y-114873842D01*
X172373340Y-114765984D01*
X172297367Y-114658831D01*
X172285822Y-114642570D01*
X172206743Y-114531005D01*
X172122222Y-114411437D01*
X172042026Y-114297700D01*
X171975924Y-114203631D01*
X171972028Y-114198070D01*
X171901844Y-114098125D01*
X171819221Y-113980852D01*
X171736260Y-113863411D01*
X171686255Y-113792812D01*
X171628177Y-113709966D01*
X171580301Y-113639824D01*
X171547337Y-113589421D01*
X171533996Y-113565793D01*
X171533917Y-113565270D01*
X171554227Y-113562088D01*
X171611729Y-113559194D01*
X171701282Y-113556692D01*
X171817747Y-113554683D01*
X171955982Y-113553270D01*
X172110847Y-113552554D01*
X172177123Y-113552487D01*
X172820330Y-113552487D01*
X173069875Y-113907028D01*
X173148400Y-114018687D01*
X173221196Y-114122380D01*
X173283773Y-114211693D01*
X173331639Y-114280216D01*
X173360301Y-114321535D01*
X173362721Y-114325070D01*
X173396610Y-114373419D01*
X173422054Y-114407434D01*
X173423957Y-114409737D01*
X173442009Y-114434142D01*
X173479114Y-114486442D01*
X173530355Y-114559637D01*
X173590813Y-114646728D01*
X173609876Y-114674320D01*
X173673247Y-114765614D01*
X173730024Y-114846425D01*
X173774910Y-114909281D01*
X173802603Y-114946709D01*
X173806453Y-114951495D01*
X173832111Y-114985176D01*
X173872871Y-115042218D01*
X173920299Y-115110800D01*
X173924352Y-115116761D01*
X173970272Y-115178888D01*
X174010000Y-115222870D01*
X174036001Y-115240546D01*
X174038495Y-115240354D01*
X174058880Y-115220946D01*
X174098089Y-115172949D01*
X174151169Y-115102795D01*
X174213162Y-115016919D01*
X174239183Y-114979839D01*
X174305432Y-114884987D01*
X174366209Y-114798540D01*
X174415904Y-114728438D01*
X174448906Y-114682621D01*
X174455075Y-114674320D01*
X174482837Y-114636277D01*
X174528280Y-114572539D01*
X174584959Y-114492197D01*
X174642669Y-114409737D01*
X174714097Y-114307417D01*
X174799163Y-114185785D01*
X174887151Y-114060152D01*
X174966527Y-113946994D01*
X175031163Y-113854645D01*
X175088228Y-113772547D01*
X175132712Y-113707951D01*
X175159606Y-113668107D01*
X175164001Y-113661244D01*
X175187359Y-113626836D01*
X175196614Y-113615987D01*
X175218039Y-113590061D01*
X175256251Y-113538245D01*
X175306034Y-113468164D01*
X175362169Y-113387441D01*
X175419438Y-113303702D01*
X175472625Y-113224570D01*
X175516510Y-113157672D01*
X175545876Y-113110630D01*
X175555584Y-113091444D01*
X175538612Y-113066452D01*
X175522103Y-113057334D01*
X175499096Y-113056555D01*
X175434978Y-113055788D01*
X175330972Y-113055035D01*
X175188302Y-113054296D01*
X175008188Y-113053573D01*
X174791855Y-113052867D01*
X174540526Y-113052180D01*
X174255421Y-113051513D01*
X173937766Y-113050868D01*
X173588781Y-113050246D01*
X173209690Y-113049647D01*
X172801716Y-113049075D01*
X172366081Y-113048529D01*
X171904009Y-113048012D01*
X171416721Y-113047524D01*
X170905440Y-113047068D01*
X170371390Y-113046644D01*
X169815793Y-113046253D01*
X169239871Y-113045898D01*
X168644848Y-113045579D01*
X168031946Y-113045299D01*
X167402388Y-113045057D01*
X166757396Y-113044856D01*
X166098194Y-113044697D01*
X165426003Y-113044582D01*
X164742048Y-113044511D01*
X164047549Y-113044487D01*
X164030334Y-113044487D01*
X163335592Y-113044463D01*
X162651362Y-113044393D01*
X161978867Y-113044279D01*
X161319330Y-113044121D01*
X160673974Y-113043921D01*
X160044021Y-113043681D01*
X159430695Y-113043401D01*
X158835217Y-113043083D01*
X158258810Y-113042729D01*
X157702698Y-113042339D01*
X157168103Y-113041916D01*
X156656248Y-113041460D01*
X156168354Y-113040973D01*
X155705646Y-113040457D01*
X155269346Y-113039912D01*
X154860677Y-113039340D01*
X154480861Y-113038742D01*
X154131120Y-113038121D01*
X153812679Y-113037476D01*
X153526759Y-113036810D01*
X153274583Y-113036123D01*
X153057374Y-113035418D01*
X152876355Y-113034695D01*
X152732748Y-113033957D01*
X152627776Y-113033203D01*
X152562662Y-113032437D01*
X152538628Y-113031658D01*
X152538565Y-113031639D01*
X152509531Y-113012128D01*
X152505084Y-113002171D01*
X152495318Y-112977496D01*
X152469153Y-112925299D01*
X152431290Y-112854758D01*
X152409834Y-112816177D01*
X152368018Y-112740509D01*
X152335547Y-112679257D01*
X152317093Y-112641361D01*
X152314584Y-112633977D01*
X152335513Y-112633159D01*
X152397348Y-112632368D01*
X152498665Y-112631604D01*
X152638034Y-112630867D01*
X152814032Y-112630158D01*
X153025230Y-112629476D01*
X153270202Y-112628822D01*
X153547522Y-112628195D01*
X153855764Y-112627595D01*
X154193500Y-112627023D01*
X154559305Y-112626479D01*
X154951752Y-112625962D01*
X155369413Y-112625472D01*
X155810864Y-112625010D01*
X156274677Y-112624576D01*
X156759426Y-112624169D01*
X157263685Y-112623790D01*
X157786026Y-112623439D01*
X158325023Y-112623115D01*
X158879250Y-112622819D01*
X159447281Y-112622551D01*
X160027689Y-112622311D01*
X160619046Y-112622098D01*
X161219928Y-112621914D01*
X161828907Y-112621757D01*
X162444557Y-112621628D01*
X163065451Y-112621527D01*
X163690164Y-112621454D01*
X164317267Y-112621410D01*
X164945335Y-112621393D01*
X165572942Y-112621404D01*
G36*
X165572942Y-112621404D02*
G01*
X166198661Y-112621443D01*
X166821065Y-112621510D01*
X167438728Y-112621606D01*
X168050223Y-112621730D01*
X168654124Y-112621882D01*
X169249004Y-112622062D01*
X169833438Y-112622270D01*
X170405997Y-112622507D01*
X170965257Y-112622771D01*
X171509790Y-112623065D01*
X172038169Y-112623386D01*
X172548970Y-112623736D01*
X173040764Y-112624115D01*
X173512125Y-112624521D01*
X173961627Y-112624957D01*
X174387844Y-112625420D01*
X174789349Y-112625913D01*
X175164715Y-112626434D01*
X175512515Y-112626983D01*
X175831325Y-112627561D01*
X176119716Y-112628168D01*
X176376262Y-112628803D01*
X176599538Y-112629467D01*
X176788115Y-112630160D01*
X176940569Y-112630881D01*
X177055472Y-112631632D01*
X177131398Y-112632411D01*
X177166921Y-112633219D01*
X177169536Y-112633494D01*
X177166660Y-112646730D01*
X177148789Y-112679557D01*
X177114494Y-112734090D01*
X177062344Y-112812445D01*
X176990911Y-112916737D01*
X176898765Y-113049080D01*
X176784475Y-113211590D01*
X176657748Y-113390683D01*
X176604212Y-113466677D01*
X176558439Y-113532563D01*
X176527097Y-113578699D01*
X176518667Y-113591766D01*
X176495257Y-113626250D01*
X176485886Y-113637153D01*
X176466885Y-113660882D01*
X176426939Y-113715550D01*
X176368906Y-113797091D01*
X176295642Y-113901435D01*
X176210006Y-114024515D01*
X176114855Y-114162264D01*
X176023035Y-114296018D01*
X175967788Y-114376003D01*
X175920909Y-114442524D01*
X175887728Y-114488104D01*
X175874056Y-114504987D01*
X175857315Y-114525982D01*
X175819213Y-114578162D01*
X175762366Y-114657825D01*
X175689388Y-114761264D01*
X175602894Y-114884777D01*
X175505498Y-115024658D01*
X175410911Y-115161153D01*
X175351686Y-115245912D01*
X175289034Y-115334187D01*
X175238190Y-115404570D01*
X175136865Y-115544156D01*
X175039452Y-115680910D01*
X174949020Y-115810294D01*
X174868641Y-115927770D01*
X174801385Y-116028800D01*
X174750323Y-116108845D01*
X174718526Y-116163367D01*
X174708917Y-116186770D01*
X174720482Y-116217268D01*
X174752002Y-116274114D01*
X174798714Y-116349288D01*
X174855856Y-116434769D01*
X174858097Y-116438008D01*
X174962487Y-116588344D01*
X175057357Y-116724206D01*
X175139880Y-116841595D01*
X175207230Y-116936508D01*
X175256581Y-117004945D01*
X175285108Y-117042904D01*
X175286803Y-117044987D01*
X175309819Y-117075723D01*
X175349855Y-117131942D01*
X175400159Y-117204099D01*
X175429037Y-117246070D01*
X175480793Y-117321238D01*
X175524572Y-117384072D01*
X175554194Y-117425737D01*
X175562327Y-117436570D01*
X175583153Y-117464378D01*
X175624213Y-117521120D01*
X175681446Y-117601059D01*
X175750791Y-117698462D01*
X175828186Y-117807592D01*
X175909570Y-117922715D01*
X175990883Y-118038096D01*
X176068063Y-118148000D01*
X176137050Y-118246692D01*
X176190584Y-118323804D01*
X176275483Y-118445670D01*
X176350775Y-118551726D01*
X176413242Y-118637574D01*
X176459665Y-118698817D01*
X176486825Y-118731058D01*
X176491429Y-118734792D01*
X176505338Y-118759009D01*
X176508084Y-118782417D01*
X176506502Y-118793957D01*
X176498787Y-118803073D01*
X176480484Y-118810052D01*
X176447138Y-118815178D01*
X176394294Y-118818736D01*
X176317499Y-118821011D01*
X176212297Y-118822287D01*
X176074234Y-118822851D01*
X175898855Y-118822986D01*
X175873829Y-118822987D01*
X175693106Y-118822867D01*
X175550105Y-118822318D01*
X175440212Y-118821054D01*
X175358817Y-118818789D01*
X175301306Y-118815236D01*
X175263067Y-118810109D01*
X175239490Y-118803124D01*
X175225961Y-118793992D01*
X175217868Y-118782429D01*
X175217800Y-118782304D01*
X175186653Y-118734850D01*
X175168642Y-118713512D01*
X175145161Y-118684446D01*
X175104744Y-118629634D01*
X175054176Y-118558393D01*
X175024831Y-118516070D01*
X174952956Y-118411996D01*
X174876345Y-118301858D01*
X174798987Y-118191304D01*
X174724874Y-118085985D01*
X174657996Y-117991549D01*
X174602344Y-117913647D01*
X174561908Y-117857928D01*
X174540679Y-117830042D01*
X174538926Y-117828153D01*
X174522505Y-117807266D01*
X174487852Y-117759291D01*
X174440594Y-117692108D01*
X174402878Y-117637653D01*
X174301743Y-117490841D01*
X174221780Y-117375399D01*
X174160136Y-117287841D01*
X174113955Y-117224682D01*
X174080383Y-117182438D01*
X174056566Y-117157623D01*
X174039649Y-117146752D01*
X174026779Y-117146340D01*
X174015100Y-117152903D01*
X174009411Y-117157251D01*
X173986989Y-117182401D01*
X173945341Y-117236265D01*
X173889094Y-117312586D01*
X173822876Y-117405105D01*
X173765994Y-117486347D01*
X173686970Y-117600216D01*
X173616242Y-117701896D01*
X173548746Y-117798613D01*
X173479418Y-117897590D01*
X173403191Y-118006053D01*
X173315002Y-118131227D01*
X173209786Y-118280336D01*
X173153167Y-118360520D01*
X173070729Y-118477329D01*
X173008905Y-118565163D01*
X172963832Y-118629589D01*
X172931646Y-118676173D01*
X172908484Y-118710480D01*
X172890483Y-118738077D01*
X172883597Y-118748903D01*
X172853722Y-118788972D01*
X172835667Y-118806787D01*
X172809883Y-118810716D01*
X172747185Y-118814302D01*
X172652996Y-118817413D01*
X172532734Y-118819918D01*
X172391820Y-118821684D01*
X172235674Y-118822580D01*
X172182528Y-118822662D01*
X172000902Y-118822542D01*
X171857410Y-118821834D01*
X171747850Y-118820324D01*
X171668026Y-118817800D01*
X171613737Y-118814050D01*
X171580785Y-118808861D01*
X171564970Y-118802020D01*
X171562094Y-118793316D01*
X171562717Y-118791292D01*
X171578911Y-118762896D01*
X171614700Y-118707430D01*
X171665154Y-118632330D01*
X171725340Y-118545029D01*
X171739607Y-118524625D01*
X171802119Y-118435116D01*
X171857048Y-118355831D01*
X171899161Y-118294369D01*
X171923229Y-118258325D01*
X171925501Y-118254695D01*
X171949118Y-118220110D01*
X171958771Y-118209153D01*
X171973841Y-118189472D01*
X172009518Y-118140037D01*
X172062251Y-118065856D01*
X172128487Y-117971939D01*
X172204675Y-117863295D01*
X172251400Y-117796403D01*
X172333740Y-117678506D01*
X172410014Y-117569572D01*
X172476203Y-117475320D01*
X172528286Y-117401468D01*
X172562245Y-117353735D01*
X172571268Y-117341320D01*
X172612711Y-117284491D01*
X172672341Y-117201310D01*
X172744216Y-117100207D01*
X172822391Y-116989612D01*
X172900923Y-116877954D01*
X172973868Y-116773664D01*
X173035281Y-116685171D01*
X173078714Y-116621653D01*
X173124645Y-116555710D01*
X173162801Y-116505003D01*
X173186253Y-116478639D01*
X173188741Y-116477014D01*
X173204850Y-116452668D01*
X173206084Y-116441737D01*
X173216872Y-116411072D01*
X173223191Y-116406459D01*
X173244874Y-116385297D01*
X173279339Y-116340544D01*
X173317913Y-116284953D01*
X173351922Y-116231276D01*
X173372694Y-116192266D01*
X173375417Y-116182622D01*
X173362367Y-116154504D01*
X173337391Y-116122936D01*
X173311007Y-116090133D01*
X173266817Y-116030636D01*
X173210855Y-115952730D01*
X173149157Y-115864702D01*
X173145663Y-115859653D01*
X173066678Y-115746133D01*
X172976021Y-115616903D01*
X172886786Y-115490587D01*
X172833096Y-115415153D01*
X172760456Y-115313306D01*
X172684967Y-115207092D01*
X172616268Y-115110091D01*
X172570207Y-115044737D01*
X172518058Y-114970671D01*
X172449670Y-114873842D01*
X172373340Y-114765984D01*
X172297367Y-114658831D01*
X172285822Y-114642570D01*
X172206743Y-114531005D01*
X172122222Y-114411437D01*
X172042026Y-114297700D01*
X171975924Y-114203631D01*
X171972028Y-114198070D01*
X171901844Y-114098125D01*
X171819221Y-113980852D01*
X171736260Y-113863411D01*
X171686255Y-113792812D01*
X171628177Y-113709966D01*
X171580301Y-113639824D01*
X171547337Y-113589421D01*
X171533996Y-113565793D01*
X171533917Y-113565270D01*
X171554227Y-113562088D01*
X171611729Y-113559194D01*
X171701282Y-113556692D01*
X171817747Y-113554683D01*
X171955982Y-113553270D01*
X172110847Y-113552554D01*
X172177123Y-113552487D01*
X172820330Y-113552487D01*
X173069875Y-113907028D01*
X173148400Y-114018687D01*
X173221196Y-114122380D01*
X173283773Y-114211693D01*
X173331639Y-114280216D01*
X173360301Y-114321535D01*
X173362721Y-114325070D01*
X173396610Y-114373419D01*
X173422054Y-114407434D01*
X173423957Y-114409737D01*
X173442009Y-114434142D01*
X173479114Y-114486442D01*
X173530355Y-114559637D01*
X173590813Y-114646728D01*
X173609876Y-114674320D01*
X173673247Y-114765614D01*
X173730024Y-114846425D01*
X173774910Y-114909281D01*
X173802603Y-114946709D01*
X173806453Y-114951495D01*
X173832111Y-114985176D01*
X173872871Y-115042218D01*
X173920299Y-115110800D01*
X173924352Y-115116761D01*
X173970272Y-115178888D01*
X174010000Y-115222870D01*
X174036001Y-115240546D01*
X174038495Y-115240354D01*
X174058880Y-115220946D01*
X174098089Y-115172949D01*
X174151169Y-115102795D01*
X174213162Y-115016919D01*
X174239183Y-114979839D01*
X174305432Y-114884987D01*
X174366209Y-114798540D01*
X174415904Y-114728438D01*
X174448906Y-114682621D01*
X174455075Y-114674320D01*
X174482837Y-114636277D01*
X174528280Y-114572539D01*
X174584959Y-114492197D01*
X174642669Y-114409737D01*
X174714097Y-114307417D01*
X174799163Y-114185785D01*
X174887151Y-114060152D01*
X174966527Y-113946994D01*
X175031163Y-113854645D01*
X175088228Y-113772547D01*
X175132712Y-113707951D01*
X175159606Y-113668107D01*
X175164001Y-113661244D01*
X175187359Y-113626836D01*
X175196614Y-113615987D01*
X175218039Y-113590061D01*
X175256251Y-113538245D01*
X175306034Y-113468164D01*
X175362169Y-113387441D01*
X175419438Y-113303702D01*
X175472625Y-113224570D01*
X175516510Y-113157672D01*
X175545876Y-113110630D01*
X175555584Y-113091444D01*
X175538612Y-113066452D01*
X175522103Y-113057334D01*
X175499096Y-113056555D01*
X175434978Y-113055788D01*
X175330972Y-113055035D01*
X175188302Y-113054296D01*
X175008188Y-113053573D01*
X174791855Y-113052867D01*
X174540526Y-113052180D01*
X174255421Y-113051513D01*
X173937766Y-113050868D01*
X173588781Y-113050246D01*
X173209690Y-113049647D01*
X172801716Y-113049075D01*
X172366081Y-113048529D01*
X171904009Y-113048012D01*
X171416721Y-113047524D01*
X170905440Y-113047068D01*
X170371390Y-113046644D01*
X169815793Y-113046253D01*
X169239871Y-113045898D01*
X168644848Y-113045579D01*
X168031946Y-113045299D01*
X167402388Y-113045057D01*
X166757396Y-113044856D01*
X166098194Y-113044697D01*
X165426003Y-113044582D01*
X164742048Y-113044511D01*
X164047549Y-113044487D01*
X164030334Y-113044487D01*
X163335592Y-113044463D01*
X162651362Y-113044393D01*
X161978867Y-113044279D01*
X161319330Y-113044121D01*
X160673974Y-113043921D01*
X160044021Y-113043681D01*
X159430695Y-113043401D01*
X158835217Y-113043083D01*
X158258810Y-113042729D01*
X157702698Y-113042339D01*
X157168103Y-113041916D01*
X156656248Y-113041460D01*
X156168354Y-113040973D01*
X155705646Y-113040457D01*
X155269346Y-113039912D01*
X154860677Y-113039340D01*
X154480861Y-113038742D01*
X154131120Y-113038121D01*
X153812679Y-113037476D01*
X153526759Y-113036810D01*
X153274583Y-113036123D01*
X153057374Y-113035418D01*
X152876355Y-113034695D01*
X152732748Y-113033957D01*
X152627776Y-113033203D01*
X152562662Y-113032437D01*
X152538628Y-113031658D01*
X152538565Y-113031639D01*
X152509531Y-113012128D01*
X152505084Y-113002171D01*
X152495318Y-112977496D01*
X152469153Y-112925299D01*
X152431290Y-112854758D01*
X152409834Y-112816177D01*
X152368018Y-112740509D01*
X152335547Y-112679257D01*
X152317093Y-112641361D01*
X152314584Y-112633977D01*
X152335513Y-112633159D01*
X152397348Y-112632368D01*
X152498665Y-112631604D01*
X152638034Y-112630867D01*
X152814032Y-112630158D01*
X153025230Y-112629476D01*
X153270202Y-112628822D01*
X153547522Y-112628195D01*
X153855764Y-112627595D01*
X154193500Y-112627023D01*
X154559305Y-112626479D01*
X154951752Y-112625962D01*
X155369413Y-112625472D01*
X155810864Y-112625010D01*
X156274677Y-112624576D01*
X156759426Y-112624169D01*
X157263685Y-112623790D01*
X157786026Y-112623439D01*
X158325023Y-112623115D01*
X158879250Y-112622819D01*
X159447281Y-112622551D01*
X160027689Y-112622311D01*
X160619046Y-112622098D01*
X161219928Y-112621914D01*
X161828907Y-112621757D01*
X162444557Y-112621628D01*
X163065451Y-112621527D01*
X163690164Y-112621454D01*
X164317267Y-112621410D01*
X164945335Y-112621393D01*
X165572942Y-112621404D01*
G37*
%TD*%
D16*
%TO.C,U3*%
X179730000Y-138175000D03*
X179730000Y-140475000D03*
D17*
X186030000Y-140475000D03*
D16*
X179730000Y-142775000D03*
%TD*%
D18*
%TO.C,JW1*%
X195200000Y-137800000D03*
%TD*%
D19*
%TO.C,C11*%
X163830000Y-146125000D03*
X163830000Y-147085000D03*
%TD*%
D20*
%TO.C,C5*%
X175152489Y-139480000D03*
X174192489Y-139480000D03*
%TD*%
D21*
%TO.C,SW6*%
X183730000Y-114560000D03*
X183730000Y-120760000D03*
X180030000Y-114560000D03*
X180030000Y-120760000D03*
%TD*%
D22*
%TO.C,U5*%
X207090000Y-132060000D03*
X206590000Y-132060000D03*
X206090000Y-132060000D03*
X205590000Y-132060000D03*
X205090000Y-132060000D03*
X205090000Y-133110000D03*
X205590000Y-133110000D03*
X206090000Y-133110000D03*
X206590000Y-133110000D03*
X207090000Y-133110000D03*
%TD*%
D23*
%TO.C,SW4*%
X146054082Y-131499414D03*
D24*
X145771389Y-131489525D03*
D25*
X146336085Y-131477306D03*
D26*
X145491620Y-131447764D03*
D27*
X146613785Y-131423482D03*
D28*
X145218361Y-131374666D03*
D29*
X146883627Y-131338632D03*
D30*
X144955108Y-131271166D03*
D31*
X147142156Y-131223843D03*
D32*
X144705232Y-131138591D03*
D33*
X147386063Y-131080583D03*
D34*
X144471932Y-130978637D03*
D35*
X147612226Y-130910687D03*
D36*
X144258195Y-130793352D03*
D37*
X147817748Y-130716330D03*
D38*
X144066757Y-130585108D03*
D39*
X148000000Y-130499999D03*
D40*
X143900069Y-130356571D03*
D41*
X143800001Y-130187434D03*
D42*
X143800000Y-129593717D03*
D43*
X147400000Y-129382526D03*
D44*
X145000000Y-129307476D03*
D45*
X146200000Y-129238757D03*
D46*
X145600000Y-128749224D03*
D47*
X146800000Y-128716020D03*
D48*
X144400000Y-128547985D03*
D49*
X148000000Y-128250000D03*
D50*
X143800000Y-127812566D03*
D51*
X143948223Y-127571642D03*
D52*
X148000000Y-127500001D03*
D53*
X144122712Y-127349004D03*
D54*
X147875998Y-127347539D03*
D55*
X144321235Y-127147503D03*
D56*
X147677318Y-127146193D03*
D57*
X144541250Y-126969718D03*
D58*
X147457164Y-126968579D03*
D59*
X144779940Y-126817925D03*
D60*
X147218355Y-126816973D03*
D61*
X145034250Y-126694068D03*
D62*
X146963948Y-126693314D03*
D63*
X145300924Y-126599731D03*
D64*
X146697201Y-126599186D03*
D65*
X145576547Y-126536124D03*
D66*
X146421528Y-126535794D03*
D67*
X145857592Y-126504060D03*
D68*
X146140459Y-126503949D03*
%TD*%
D69*
%TO.C,SW12*%
X112965000Y-106195000D03*
D70*
X116165000Y-106195000D03*
%TD*%
D18*
%TO.C,JW4*%
X138923677Y-139100000D03*
%TD*%
D71*
%TO.C,SW9*%
X105815000Y-116600000D03*
D72*
X105815000Y-113400000D03*
%TD*%
D73*
%TO.C,SW5*%
X131000586Y-124054082D03*
D74*
X131010475Y-123771389D03*
D75*
X131022694Y-124336085D03*
D76*
X131052236Y-123491620D03*
D77*
X131076518Y-124613785D03*
D78*
X131125334Y-123218361D03*
D79*
X131161368Y-124883627D03*
D80*
X131228834Y-122955108D03*
D81*
X131276157Y-125142156D03*
D82*
X131361409Y-122705232D03*
D83*
X131419417Y-125386063D03*
D84*
X131521363Y-122471932D03*
D85*
X131589313Y-125612226D03*
D86*
X131706648Y-122258195D03*
D87*
X131783670Y-125817748D03*
D88*
X131914892Y-122066757D03*
D89*
X132000001Y-126000000D03*
D90*
X132143429Y-121900069D03*
D91*
X132312566Y-121800001D03*
D92*
X132906283Y-121800000D03*
D93*
X133117474Y-125400000D03*
D94*
X133192524Y-123000000D03*
D95*
X133261243Y-124200000D03*
D96*
X133750776Y-123600000D03*
D97*
X133783980Y-124800000D03*
D98*
X133952015Y-122400000D03*
D99*
X134250000Y-126000000D03*
D100*
X134687434Y-121800000D03*
D101*
X134928358Y-121948223D03*
D102*
X134999999Y-126000000D03*
D103*
X135150996Y-122122712D03*
D104*
X135152461Y-125875998D03*
D105*
X135352497Y-122321235D03*
D106*
X135353807Y-125677318D03*
D107*
X135530282Y-122541250D03*
D108*
X135531421Y-125457164D03*
D109*
X135682075Y-122779940D03*
D110*
X135683027Y-125218355D03*
D111*
X135805932Y-123034250D03*
D112*
X135806686Y-124963948D03*
D113*
X135900269Y-123300924D03*
D114*
X135900814Y-124697201D03*
D115*
X135963876Y-123576547D03*
D116*
X135964206Y-124421528D03*
D117*
X135995940Y-123857592D03*
D118*
X135996051Y-124140459D03*
%TD*%
D119*
%TO.C,R5*%
X159170000Y-140745000D03*
X158150000Y-140745000D03*
%TD*%
D21*
%TO.C,SW10*%
X149425498Y-114560000D03*
X149425498Y-120760000D03*
X145725498Y-114560000D03*
X145725498Y-120760000D03*
%TD*%
D120*
%TO.C,R8*%
X165170000Y-147105000D03*
X165170000Y-146085000D03*
%TD*%
D119*
%TO.C,R7*%
X171309495Y-142925000D03*
X170289495Y-142925000D03*
%TD*%
D18*
%TO.C,JW3*%
X191100000Y-139100000D03*
%TD*%
D19*
%TO.C,C9*%
X167180000Y-146115000D03*
X167180000Y-147075000D03*
%TD*%
D22*
%TO.C,U7*%
X162480000Y-146610000D03*
X161980000Y-146610000D03*
X161480000Y-146610000D03*
X160980000Y-146610000D03*
X160480000Y-146610000D03*
X160480000Y-147660000D03*
X160980000Y-147660000D03*
X161480000Y-147660000D03*
X161980000Y-147660000D03*
X162480000Y-147660000D03*
%TD*%
D69*
%TO.C,SW3*%
X213150000Y-106125000D03*
D70*
X216350000Y-106125000D03*
%TD*%
D121*
%TO.C,C12*%
X162970000Y-136460000D03*
X162970000Y-135500000D03*
%TD*%
D20*
%TO.C,C2*%
X182570000Y-136075000D03*
X181610000Y-136075000D03*
%TD*%
D121*
%TO.C,C15*%
X157960000Y-132735000D03*
X157960000Y-131775000D03*
%TD*%
D122*
%TO.C,C13*%
X170310000Y-140930000D03*
X171270000Y-140930000D03*
%TD*%
D123*
%TO.C,U6*%
X174229495Y-143425000D03*
X174229495Y-142925000D03*
X174229495Y-142425000D03*
X174229495Y-141925000D03*
X174229495Y-141425000D03*
X173179495Y-141425000D03*
X173179495Y-141925000D03*
X173179495Y-142425000D03*
X173179495Y-142925000D03*
X173179495Y-143425000D03*
%TD*%
D120*
%TO.C,R4*%
X176780000Y-131580000D03*
X176780000Y-130560000D03*
%TD*%
D71*
%TO.C,SW8*%
X123565000Y-116600000D03*
D72*
X123565000Y-113400000D03*
%TD*%
D73*
%TO.C,SW11*%
X193500586Y-124054082D03*
D74*
X193510475Y-123771389D03*
D75*
X193522694Y-124336085D03*
D76*
X193552236Y-123491620D03*
D77*
X193576518Y-124613785D03*
D78*
X193625334Y-123218361D03*
D79*
X193661368Y-124883627D03*
D80*
X193728834Y-122955108D03*
D81*
X193776157Y-125142156D03*
D82*
X193861409Y-122705232D03*
D83*
X193919417Y-125386063D03*
D84*
X194021363Y-122471932D03*
D85*
X194089313Y-125612226D03*
D86*
X194206648Y-122258195D03*
D87*
X194283670Y-125817748D03*
D88*
X194414892Y-122066757D03*
D89*
X194500001Y-126000000D03*
D90*
X194643429Y-121900069D03*
D91*
X194812566Y-121800001D03*
D92*
X195406283Y-121800000D03*
D93*
X195617474Y-125400000D03*
D94*
X195692524Y-123000000D03*
D95*
X195761243Y-124200000D03*
D96*
X196250776Y-123600000D03*
D97*
X196283980Y-124800000D03*
D98*
X196452015Y-122400000D03*
D99*
X196750000Y-126000000D03*
D100*
X197187434Y-121800000D03*
D101*
X197428358Y-121948223D03*
D102*
X197499999Y-126000000D03*
D103*
X197650996Y-122122712D03*
D104*
X197652461Y-125875998D03*
D105*
X197852497Y-122321235D03*
D106*
X197853807Y-125677318D03*
D107*
X198030282Y-122541250D03*
D108*
X198031421Y-125457164D03*
D109*
X198182075Y-122779940D03*
D110*
X198183027Y-125218355D03*
D111*
X198305932Y-123034250D03*
D112*
X198306686Y-124963948D03*
D113*
X198400269Y-123300924D03*
D114*
X198400814Y-124697201D03*
D115*
X198463876Y-123576547D03*
D116*
X198464206Y-124421528D03*
D117*
X198495940Y-123857592D03*
D118*
X198496051Y-124140459D03*
%TD*%
D123*
%TO.C,U1*%
X179470000Y-134470000D03*
X179470000Y-133970000D03*
X179470000Y-133470000D03*
X179470000Y-132970000D03*
X179470000Y-132470000D03*
X178420000Y-132470000D03*
X178420000Y-132970000D03*
X178420000Y-133470000D03*
X178420000Y-133970000D03*
X178420000Y-134470000D03*
%TD*%
D119*
%TO.C,R6*%
X171309495Y-141925000D03*
X170289495Y-141925000D03*
%TD*%
D122*
%TO.C,C10*%
X170290000Y-144895000D03*
X171250000Y-144895000D03*
%TD*%
D124*
%TO.C,D2*%
X166925000Y-148340000D03*
X165350000Y-148340000D03*
%TD*%
D69*
%TO.C,SW2*%
X213150000Y-123875000D03*
D70*
X216350000Y-123875000D03*
%TD*%
D124*
%TO.C,D1*%
X182737500Y-151490000D03*
X181162500Y-151490000D03*
%TD*%
D71*
%TO.C,SW1*%
X206000000Y-116600000D03*
D72*
X206000000Y-113400000D03*
%TD*%
D122*
%TO.C,C3*%
X155500000Y-140745000D03*
X156460000Y-140745000D03*
%TD*%
D125*
%TO.C,SW7*%
X183445918Y-126500586D03*
D126*
X183728611Y-126510475D03*
D127*
X183163915Y-126522694D03*
D128*
X184008380Y-126552236D03*
D129*
X182886215Y-126576518D03*
D130*
X184281639Y-126625334D03*
D131*
X182616373Y-126661368D03*
D132*
X184544892Y-126728834D03*
D133*
X182357844Y-126776157D03*
D134*
X184794768Y-126861409D03*
D135*
X182113937Y-126919417D03*
D136*
X185028068Y-127021363D03*
D137*
X181887774Y-127089313D03*
D138*
X185241805Y-127206648D03*
D139*
X181682252Y-127283670D03*
D140*
X185433243Y-127414892D03*
D141*
X181500000Y-127500001D03*
D142*
X185599931Y-127643429D03*
D143*
X185699999Y-127812566D03*
D42*
X185700000Y-128406283D03*
D43*
X182100000Y-128617474D03*
D44*
X184500000Y-128692524D03*
D45*
X183300000Y-128761243D03*
D46*
X183900000Y-129250776D03*
D47*
X182700000Y-129283980D03*
D48*
X185100000Y-129452015D03*
D49*
X181500000Y-129750000D03*
D144*
X185700000Y-130187434D03*
D145*
X185551777Y-130428358D03*
D146*
X181500000Y-130499999D03*
D147*
X185377288Y-130650996D03*
D148*
X181624002Y-130652461D03*
D149*
X185178765Y-130852497D03*
D150*
X181822682Y-130853807D03*
D151*
X184958750Y-131030282D03*
D152*
X182042836Y-131031421D03*
D153*
X184720060Y-131182075D03*
D154*
X182281645Y-131183027D03*
D155*
X184465750Y-131305932D03*
D156*
X182536052Y-131306686D03*
D157*
X184199076Y-131400269D03*
D158*
X182802799Y-131400814D03*
D159*
X183923453Y-131463876D03*
D160*
X183078472Y-131464206D03*
D161*
X183642408Y-131495940D03*
D162*
X183359541Y-131496051D03*
%TD*%
D163*
%TO.C,U8*%
X153580000Y-132630000D03*
X153580000Y-133280000D03*
X153580000Y-133930000D03*
X155480000Y-133930000D03*
X155480000Y-132630000D03*
%TD*%
D164*
%TO.C,R10*%
X151380000Y-132640000D03*
X152400000Y-132640000D03*
%TD*%
D165*
%TO.C,FLASH1*%
X175135000Y-130575000D03*
D166*
X173980000Y-132980000D03*
D165*
X173865000Y-130575000D03*
D166*
X173480000Y-132980000D03*
D165*
X172595000Y-130575000D03*
D166*
X172980000Y-132980000D03*
D165*
X171325000Y-130575000D03*
D166*
X172480000Y-132980000D03*
D167*
X173230000Y-134180000D03*
D166*
X172480000Y-135380000D03*
D165*
X171325000Y-137785000D03*
D166*
X172980000Y-135380000D03*
D165*
X172595000Y-137785000D03*
D166*
X173480000Y-135380000D03*
D165*
X173865000Y-137785000D03*
D166*
X173980000Y-135380000D03*
D165*
X175135000Y-137785000D03*
%TD*%
D69*
%TO.C,SW13*%
X112965000Y-123945000D03*
D70*
X116165000Y-123945000D03*
%TD*%
D168*
%TO.C,Y1*%
X155260000Y-139275000D03*
X157460000Y-139275000D03*
X157460000Y-137675000D03*
X155260000Y-137675000D03*
%TD*%
D20*
%TO.C,C14*%
X159140000Y-141755000D03*
X158180000Y-141755000D03*
%TD*%
D122*
%TO.C,C4*%
X155890000Y-136125000D03*
X156850000Y-136125000D03*
%TD*%
D71*
%TO.C,SW0*%
X223500000Y-116600000D03*
D72*
X223500000Y-113400000D03*
%TD*%
D169*
%TO.C,U4*%
X167164495Y-137692500D03*
X166764495Y-137692500D03*
X166364495Y-137692500D03*
X165964495Y-137692500D03*
X165564495Y-137692500D03*
X165164495Y-137692500D03*
X164764495Y-137692500D03*
X164364495Y-137692500D03*
X163964495Y-137692500D03*
X163564495Y-137692500D03*
X163164495Y-137692500D03*
X162764495Y-137692500D03*
X162364495Y-137692500D03*
X161964495Y-137692500D03*
D170*
X161126995Y-138530000D03*
X161126995Y-138930000D03*
X161126995Y-139330000D03*
X161126995Y-139730000D03*
X161126995Y-140130000D03*
X161126995Y-140530000D03*
X161126995Y-140930000D03*
X161126995Y-141330000D03*
X161126995Y-141730000D03*
X161126995Y-142130000D03*
X161126995Y-142530000D03*
X161126995Y-142930000D03*
X161126995Y-143330000D03*
X161126995Y-143730000D03*
D169*
X161964495Y-144567500D03*
X162364495Y-144567500D03*
X162764495Y-144567500D03*
X163164495Y-144567500D03*
X163564495Y-144567500D03*
X163964495Y-144567500D03*
X164364495Y-144567500D03*
X164764495Y-144567500D03*
X165164495Y-144567500D03*
X165564495Y-144567500D03*
X165964495Y-144567500D03*
X166364495Y-144567500D03*
X166764495Y-144567500D03*
X167164495Y-144567500D03*
D170*
X168001995Y-143730000D03*
X168001995Y-143330000D03*
X168001995Y-142930000D03*
X168001995Y-142530000D03*
X168001995Y-142130000D03*
X168001995Y-141730000D03*
X168001995Y-141330000D03*
X168001995Y-140930000D03*
X168001995Y-140530000D03*
X168001995Y-140130000D03*
X168001995Y-139730000D03*
X168001995Y-139330000D03*
X168001995Y-138930000D03*
X168001995Y-138530000D03*
D171*
X164564495Y-141130000D03*
%TD*%
D122*
%TO.C,C8*%
X170320000Y-143915000D03*
X171280000Y-143915000D03*
%TD*%
D20*
%TO.C,C1*%
X180530000Y-144690000D03*
X179570000Y-144690000D03*
%TD*%
D120*
%TO.C,R3*%
X176780000Y-129640000D03*
X176780000Y-128620000D03*
%TD*%
D164*
%TO.C,R9*%
X151370000Y-133635000D03*
X152390000Y-133635000D03*
%TD*%
D122*
%TO.C,C7*%
X170310000Y-139950000D03*
X171270000Y-139950000D03*
%TD*%
D18*
%TO.C,JW2*%
X135200000Y-137800000D03*
%TD*%
D20*
%TO.C,C6*%
X159140000Y-142745000D03*
X158180000Y-142745000D03*
%TD*%
D172*
%TO.C,J5*%
X177900000Y-149000000D03*
D173*
X179900000Y-149000000D03*
X181900000Y-149000000D03*
X183900000Y-149000000D03*
X185900000Y-149000000D03*
%TD*%
%LPD*%
M02*
